<svg xmlns="http://www.w3.org/2000/svg" xmlns:xlink="http://www.w3.org/1999/xlink" fill="none" version="1.1" width="32" height="32" viewBox="0 0 32 32"><defs><clipPath id="master_svg0_134_24275"><rect x="0" y="0" width="32" height="32" rx="0"/></clipPath></defs><g clip-path="url(#master_svg0_134_24275)"><g><path d="M15.000019477844239,20.99999734741211C15.000019477844239,22.65685734741211,13.656819477844238,23.99999734741211,11.999999477844238,23.99999734741211L11.899999477844238,23.99999734741211C11.188749477844238,20.515594347412108,7.169849477844238,18.86660734741211,4.216229477844238,20.84729434741211C1.2626154778442382,22.82797734741211,1.2626154778442382,27.17201734741211,4.216229477844238,29.152697347412108C7.169849477844238,31.13343734741211,11.188749477844238,29.48440734741211,11.899999477844238,25.99999734741211L11.999999477844238,25.99999734741211C14.761419477844239,25.99999734741211,17.00001947784424,23.76142734741211,17.00001947784424,20.99999734741211L15.000019477844239,20.99999734741211ZM6.999999477844239,27.999997347412112C5.343149477844238,27.999997347412112,3.9999994778442383,26.65685734741211,3.9999994778442383,24.99999734741211C3.9999994778442383,23.34314734741211,5.343149477844238,21.99999734741211,6.999999477844239,21.99999734741211C8.65685947784424,21.99999734741211,9.999999477844238,23.34314734741211,9.999999477844238,24.99999734741211C9.999999477844238,26.65685734741211,8.65685947784424,27.999997347412112,6.999999477844239,27.999997347412112Z" fill="#000000" fill-opacity="1"/></g><g><rect x="15" y="13" width="2" height="6" rx="0" fill="#000000" fill-opacity="1"/></g><g><path d="M25,1.9999999999997105C22.62366,1.9995151757907104,20.57527,3.67166988079071,20.1,5.9999998807907104L20,5.9999998807907104C17.23858,5.9999998807907104,15,8.23857988079071,15,10.99999988079071L17,10.99999988079071C17,9.34314988079071,18.34315,7.9999998807907104,20,7.9999998807907104L20.1,7.9999998807907104C20.62623,10.577969880790711,23.06034,12.30699988079071,25.6678,11.95505988079071C28.2753,11.60309988079071,30.163899999999998,9.29055988079071,29.9878,6.66532988079071C29.8111,4.03956988079071,27.6306,1.9999998807907104,25,1.9999999999997105ZM25,9.99999988079071C23.34315,9.99999988079071,22,8.65684988079071,22,6.9999998807907104C22,5.34314988079071,23.34315,3.9999998807907104,25,3.9999998807907104C26.6569,3.9999998807907104,28,5.34314988079071,28,6.9999998807907104C28,8.65684988079071,26.6569,9.99999988079071,25,9.99999988079071Z" fill="#000000" fill-opacity="1"/></g><g></g></g></svg>