<svg xmlns="http://www.w3.org/2000/svg" xmlns:xlink="http://www.w3.org/1999/xlink" fill="none" version="1.1" width="32" height="32" viewBox="0 0 32 32"><defs><clipPath id="master_svg0_134_24300"><rect x="0" y="0" width="32" height="32" rx="0"/></clipPath></defs><g clip-path="url(#master_svg0_134_24300)"><g><path d="M29.976086307525634,15.7832L27.976086307525634,6.7832C27.920286307525636,6.53144,27.769286307525636,6.31101,27.554686307525635,6.168L21.554686307525635,2.168C21.390386307525635,2.0585141,21.197386307525633,2.0000622272,20.999986307525635,2L10.999996307525635,2C10.802576307525635,2.0000627041,10.609586307525635,2.0585141,10.445296307525634,2.168L4.445296307525634,6.168C4.230706307525635,6.31101,4.079716307525635,6.53144,4.023896307525635,6.7832L2.0239000075256346,15.7832C1.9868773075256347,15.95,1.9931079175256348,16.1234,2.0420000075256346,16.287100000000002L5.041996307525634,26.2871C5.138556307525635,26.6093,5.390656307525635,26.8614,5.712896307525635,26.958L15.712886307525634,29.958L15.717986307525635,29.9585C15.901886307525634,30.0138,16.098086307525634,30.0138,16.281986307525635,29.9585L16.287086307525634,29.958L26.287086307525634,26.958C26.609386307525636,26.8614,26.861486307525634,26.6093,26.957986307525633,26.2871L29.957986307525633,16.287100000000002C30.006886307525633,16.1234,30.013086307525636,15.95,29.976086307525634,15.7832ZM10.926106307525634,16.6162L7.0167963075256345,8.7974L14.298286307525634,11.4453L10.926106307525634,16.6162ZM15.999986307525635,12.4971L19.588886307525634,18L12.411086307525634,18L15.999986307525635,12.4971ZM19.381786307525633,20L15.999986307525635,26.7637L12.618186307525635,20L19.381786307525633,20ZM17.701786307525637,11.4453L24.983286307525635,8.7974L21.073286307525635,16.6162L17.701786307525637,11.4453ZM18.189986307525636,9.14L21.286086307525636,4.393L24.801286307525636,6.7362L18.189986307525636,9.14ZM15.999986307525635,8.836400000000001L12.845886307525635,4L19.154086307525635,4L15.999986307525635,8.836400000000001ZM13.809986307525635,9.1396L7.199196307525635,6.7358L10.714396307525634,4.3926L13.809986307525635,9.1396ZM8.966096307525635,17.169600000000003L4.164096307525635,15.3689L5.365196307525634,9.9668L8.966096307525635,17.169600000000003ZM14.069986307525635,27.377L7.5678963075256345,25.4263L10.696296307525635,20.6294L14.069986307525635,27.377ZM21.303386307525635,20.6294L24.431786307525634,25.4263L17.929986307525635,27.377L21.303386307525635,20.6294ZM26.634786307525633,9.9668L27.835386307525635,15.3687L23.033386307525635,17.1694L26.634786307525633,9.9668ZM4.5373963075256345,17.6445L9.131796307525635,19.3672L6.339096307525635,23.65L4.5373963075256345,17.6445ZM25.660886307525633,23.65L22.868186307525633,19.3673L27.462586307525633,17.6446L25.660886307525633,23.65Z" fill="#000000" fill-opacity="1"/></g><g></g></g></svg>