<svg xmlns="http://www.w3.org/2000/svg" xmlns:xlink="http://www.w3.org/1999/xlink" fill="none" version="1.1" width="32" height="32" viewBox="0 0 32 32"><defs><clipPath id="master_svg0_134_08982"><rect x="0" y="0" width="32" height="32" rx="0"/></clipPath></defs><g clip-path="url(#master_svg0_134_08982)"><g><path d="M8,14L19,14L19,16L8,16L8,14ZM8,19L21,19L21,21L8,21L8,19Z" fill="#000000" fill-opacity="1"/></g><g><path d="M28,4L4,4C2.895431,4,2,4.895431,2,6L2,26C2,27.1046,2.895431,28,4,28L28,28C29.1046,28,30,27.1046,30,26L30,6C30,4.895431,29.1046,4,28,4ZM28,6L28,8L4,8L4,6L28,6ZM4,26L4,10L28,10L28,26L4,26Z" fill="#000000" fill-opacity="1"/></g><g></g></g></svg>