<svg xmlns="http://www.w3.org/2000/svg" xmlns:xlink="http://www.w3.org/1999/xlink" fill="none" version="1.1" width="32" height="32" viewBox="0 0 32 32"><defs><clipPath id="master_svg0_134_09006"><rect x="0" y="0" width="32" height="32" rx="0"/></clipPath></defs><g clip-path="url(#master_svg0_134_09006)"><g><path d="M28,4C26.896,4.00126839,26.0013,4.895956,26,6L26,8L24,8C22.607,7.91869,21.4014,7.003439999999999,20.9487,5.6836C20.8107,5.27666,20.4297,5.00212,20,5C19.5705,4.99677,19.1881,5.2709600000000005,19.0532,5.6787C18.6013,7.00068,17.3947,7.91802,16,8C14.607,7.91869,13.4014,7.003439999999999,12.9487,5.6836C12.8107,5.27666,12.4297,5.00212,12,5C11.56867,4.990772,11.18297,5.26725,11.0532,5.6787C10.60127,7.00068,9.394680000000001,7.91802,8,8L6,8L6,6C5.99873,4.895956,5.1040399999999995,4.00126743,4,4L2,4L2,6L4,6L4,26C4.00127,27.104,4.8959600000000005,27.9987,6,28L26,28C27.104,27.9987,27.9987,27.104,28,26L28,6L30,6L30,4L28,4ZM6,26L6,22L10,22L10,20L6,20L6,16L10,16L10,14L6,14L6,10L8,10C9.57409,10.013919999999999,11.06025,9.275559999999999,12,8.012699999999999C14.0084,10.66245,17.9916,10.66245,20,8.012699999999999C20.9397,9.275559999999999,22.4259,10.013919999999999,24,10L26,10L26,26L6,26Z" fill="#000000" fill-opacity="1"/></g><g></g></g></svg>