<svg xmlns="http://www.w3.org/2000/svg" xmlns:xlink="http://www.w3.org/1999/xlink" fill="none" version="1.1" width="32" height="32" viewBox="0 0 32 32"><defs><clipPath id="master_svg0_134_09047"><rect x="0" y="0" width="32" height="32" rx="0"/></clipPath></defs><g clip-path="url(#master_svg0_134_09047)"><g><path d="M17.740000000000002,30L16,29L20,22L26,22C27.1046,22,28,21.1046,28,20L28,8C28,6.89543,27.1046,6,26,6L6,6C4.89543,6,4,6.89543,4,8L4,20C4,21.1046,4.89543,22,6,22L15,22L15,24L6,24C3.79086,24,2,22.2091,2,20L2,8C2,5.79086,3.79086,4,6,4L26,4C28.2091,4,30,5.79086,30,8L30,20C30,22.2091,28.2091,24,26,24L21.16,24L17.740000000000002,30Z" fill="#000000" fill-opacity="1"/></g><g><path d="M17,9L15,9L15,13L11,13L11,15L15,15L15,19L17,19L17,15L21,15L21,13L17,13L17,9Z" fill="#000000" fill-opacity="1"/></g><g></g></g></svg>