<svg xmlns="http://www.w3.org/2000/svg" xmlns:xlink="http://www.w3.org/1999/xlink" fill="none" version="1.1" width="32" height="32" viewBox="0 0 32 32"><defs><clipPath id="master_svg0_134_09066"><rect x="0" y="0" width="32" height="32" rx="0"/></clipPath></defs><g clip-path="url(#master_svg0_134_09066)"><g><path d="M24.251,21.3691L26.4453,22.832C26.886879999999998,23.12641,27.481540000000003,23.02457,27.8,22.6L30.8,18.6L29.2,17.4L26.767400000000002,20.6437L24.5547,19.168C24.10554,18.86845,23.4997,18.97951,23.186,19.4189L20,23.8789L20,16L18,16L18,26C18.00126839,27.104,18.895955999999998,27.9987,20,28L30,28L30,26L20.9434,26L24.251,21.3691Z" fill="#000000" fill-opacity="1"/></g><g><rect x="2" y="21" width="14" height="2" rx="0" fill="#000000" fill-opacity="1"/></g><g><rect x="2" y="26" width="14" height="2" rx="0" fill="#000000" fill-opacity="1"/></g><g><path d="M11,16L11,11L12,11C14.2081,10.99747,15.9975,9.20809,16,7L16,4L13,4C11.97611,4.00164,10.99228,4.398,10.2532,5.1066C9.19837,3.19184,7.18609,2.00182343,5,2L2,2L2,5C2.00363779,8.3122,4.6878,10.99636,8,11L9,11L9,16L2,16L2,18L16,18L16,16L11,16ZM13,6L14,6L14,7C13.9989,8.10411,13.1041,8.998899999999999,12,9L11,9L11,8C11.00105,6.89586,11.89586,6.00105,13,6ZM8,9C5.79191,8.99747,4.00253,7.20809,4,5L4,4L5,4C7.20811,4.00248,8.99752,5.79189,9,8L9,9L8,9Z" fill="#000000" fill-opacity="1"/></g><g></g></g></svg>