<svg xmlns="http://www.w3.org/2000/svg" xmlns:xlink="http://www.w3.org/1999/xlink" fill="none" version="1.1" width="32" height="32" viewBox="0 0 32 32"><defs><clipPath id="master_svg0_134_24352"><rect x="0" y="0" width="32" height="32" rx="0"/></clipPath></defs><g clip-path="url(#master_svg0_134_24352)"><g><rect x="11" y="24" width="10" height="2" rx="0" fill="#000000" fill-opacity="1"/></g><g><rect x="13" y="28" width="6" height="2" rx="0" fill="#000000" fill-opacity="1"/></g><g><path d="M10.814502114562988,18.1406C8.912682114562989,16.689799999999998,7.857542114562988,14.3878,8.000002114562989,12C8.005072114562989,7.58382,11.583822114562988,4.00507,15.999972114562988,4L15.999972114562988,2C10.479692114562988,2.00611687,6.006116414562988,6.47969,6.000000014562988,12C5.8622791145629884,14.9473,7.149662114562989,17.781100000000002,9.460002114562988,19.6162C10.471702114562987,20.5508,11.000002114562989,21.0815,11.000002114562989,22L13.000002114562989,22C13.000002114562989,20.16,11.889202114562988,19.1338,10.814502114562988,18.1406Z" fill="#000000" fill-opacity="1"/></g><g><rect x="20" y="2" width="2" height="7" rx="0" fill="#000000" fill-opacity="1"/></g><g><path d="M22.5,12.5Q22.5,12.57369,22.49278,12.64703Q22.48555,12.72036,22.47118,12.79264Q22.4568,12.86491,22.43541,12.93543Q22.41402,13.005939999999999,22.38582,13.07403Q22.35762,13.14211,22.32288,13.2071Q22.28814,13.272079999999999,22.2472,13.333359999999999Q22.20626,13.39463,22.15952,13.45159Q22.11277,13.50855,22.06066,13.56066Q22.00855,13.61277,21.95159,13.65952Q21.89463,13.70626,21.83335,13.747209999999999Q21.77208,13.78815,21.7071,13.82288Q21.64211,13.85762,21.57402,13.885819999999999Q21.50594,13.91402,21.43543,13.935410000000001Q21.364910000000002,13.9568,21.29264,13.97118Q21.22036,13.98556,21.14703,13.99278Q21.07369,14,21,14Q20.92631,14,20.85297,13.99278Q20.77964,13.98556,20.70736,13.97118Q20.635089999999998,13.9568,20.56457,13.935410000000001Q20.494056,13.91402,20.425975,13.885819999999999Q20.357894,13.85762,20.292905,13.82288Q20.227916,13.78815,20.166645,13.747209999999999Q20.105373,13.70627,20.04841,13.65952Q19.991447,13.61277,19.93934,13.56066Q19.887233,13.50855,19.840484,13.45159Q19.793736,13.39463,19.752796,13.333359999999999Q19.711855,13.272079999999999,19.677118,13.2071Q19.642381,13.14211,19.614181,13.07403Q19.5859806,13.005939999999999,19.5645895,12.93543Q19.5431983,12.86491,19.5288221,12.79264Q19.5144458,12.72036,19.50722291,12.64703Q19.5,12.57369,19.5,12.5Q19.5,12.42631,19.50722291,12.35297Q19.5144458,12.27964,19.5288221,12.20736Q19.5431983,12.13509,19.5645895,12.06457Q19.5859806,11.994056,19.614181,11.925975Q19.642381,11.857894,19.677118,11.792905Q19.711855,11.727916,19.752796,11.666645Q19.793736,11.605374,19.840484,11.54841Q19.887233,11.491447,19.93934,11.43934Q19.991447,11.387233,20.04841,11.340484Q20.105373,11.293735999999999,20.166645,11.252796Q20.227916,11.211855,20.292905,11.177118Q20.357894,11.142381,20.425975,11.114181Q20.494056,11.0859807,20.56457,11.0645895Q20.635089999999998,11.0431983,20.70736,11.0288221Q20.77964,11.0144458,20.85297,11.00722291Q20.92631,11,21,11Q21.07369,11,21.14703,11.00722291Q21.22036,11.0144458,21.29264,11.0288221Q21.364910000000002,11.0431983,21.43543,11.0645895Q21.50594,11.0859807,21.57402,11.114181Q21.64211,11.142381,21.7071,11.177118Q21.77208,11.211855,21.83336,11.252796Q21.89463,11.293735999999999,21.95159,11.340484Q22.00855,11.387233,22.06066,11.43934Q22.11277,11.491447,22.15952,11.54841Q22.20626,11.605374,22.2472,11.666645Q22.28814,11.727916,22.32288,11.792905Q22.35762,11.857894,22.38582,11.925975Q22.41402,11.994056,22.43541,12.06457Q22.4568,12.13509,22.47118,12.20736Q22.48555,12.27964,22.49278,12.35297Q22.5,12.42631,22.5,12.5Z" fill="#000000" fill-opacity="1"/></g><g><rect x="26" y="2" width="2" height="7" rx="0" fill="#000000" fill-opacity="1"/></g><g><path d="M28.5,12.5Q28.5,12.57369,28.49278,12.64703Q28.48555,12.72036,28.47118,12.79264Q28.4568,12.86491,28.43541,12.93543Q28.41402,13.005939999999999,28.38582,13.07403Q28.35762,13.14211,28.32288,13.2071Q28.28814,13.272079999999999,28.2472,13.333359999999999Q28.20626,13.39463,28.15952,13.45159Q28.11277,13.50855,28.06066,13.56066Q28.00855,13.61277,27.95159,13.65952Q27.89463,13.70626,27.83335,13.747209999999999Q27.77208,13.78815,27.7071,13.82288Q27.64211,13.85762,27.57402,13.885819999999999Q27.50594,13.91402,27.43543,13.935410000000001Q27.364910000000002,13.9568,27.29264,13.97118Q27.22036,13.98556,27.14703,13.99278Q27.07369,14,27,14Q26.92631,14,26.85297,13.99278Q26.77964,13.98556,26.70736,13.97118Q26.635089999999998,13.9568,26.56457,13.935410000000001Q26.494056,13.91402,26.425975,13.885819999999999Q26.357894,13.85762,26.292905,13.82288Q26.227916,13.78815,26.166645,13.747209999999999Q26.105373,13.70627,26.04841,13.65952Q25.991447,13.61277,25.93934,13.56066Q25.887233,13.50855,25.840484,13.45159Q25.793736,13.39463,25.752796,13.333359999999999Q25.711855,13.272079999999999,25.677118,13.2071Q25.642381,13.14211,25.614181,13.07403Q25.5859806,13.005939999999999,25.5645895,12.93543Q25.5431983,12.86491,25.5288221,12.79264Q25.5144458,12.72036,25.50722291,12.64703Q25.5,12.57369,25.5,12.5Q25.5,12.42631,25.50722291,12.35297Q25.5144458,12.27964,25.5288221,12.20736Q25.5431983,12.13509,25.5645895,12.06457Q25.5859806,11.994056,25.614181,11.925975Q25.642381,11.857894,25.677118,11.792905Q25.711855,11.727916,25.752796,11.666645Q25.793736,11.605374,25.840484,11.54841Q25.887233,11.491447,25.93934,11.43934Q25.991447,11.387233,26.04841,11.340484Q26.105373,11.293735999999999,26.166645,11.252796Q26.227916,11.211855,26.292905,11.177118Q26.357894,11.142381,26.425975,11.114181Q26.494056,11.0859807,26.56457,11.0645895Q26.635089999999998,11.0431983,26.70736,11.0288221Q26.77964,11.0144458,26.85297,11.00722291Q26.92631,11,27,11Q27.07369,11,27.14703,11.00722291Q27.22036,11.0144458,27.29264,11.0288221Q27.364910000000002,11.0431983,27.43543,11.0645895Q27.50594,11.0859807,27.57402,11.114181Q27.64211,11.142381,27.7071,11.177118Q27.77208,11.211855,27.83336,11.252796Q27.89463,11.293735999999999,27.95159,11.340484Q28.00855,11.387233,28.06066,11.43934Q28.11277,11.491447,28.15952,11.54841Q28.20626,11.605374,28.2472,11.666645Q28.28814,11.727916,28.32288,11.792905Q28.35762,11.857894,28.38582,11.925975Q28.41402,11.994056,28.43541,12.06457Q28.4568,12.13509,28.47118,12.20736Q28.48555,12.27964,28.49278,12.35297Q28.5,12.42631,28.5,12.5Z" fill="#000000" fill-opacity="1"/></g><g><path d="M23.04,16C22.53022,16.803572,21.90243,17.52586,21.1777,18.1426C20.1069,19.1348,19,20.1611,19,22L21,22C21,21.0806,21.5264,20.55,22.5352,19.6143C23.71386,18.63573,24.651519999999998,17.39906,25.2756,16L23.04,16Z" fill="#000000" fill-opacity="1"/></g><g></g></g></svg>