<svg xmlns="http://www.w3.org/2000/svg" xmlns:xlink="http://www.w3.org/1999/xlink" fill="none" version="1.1" width="32" height="32" viewBox="0 0 32 32"><defs><clipPath id="master_svg0_134_24316"><rect x="0" y="0" width="32" height="32" rx="0"/></clipPath></defs><g clip-path="url(#master_svg0_134_24316)"><g><path d="M15.999999999999785,8.000004113693237C15.996554374279786,10.245354113693237,17.248973324279785,12.304084113693238,19.244513324279787,13.333484113693236C21.240043324279785,14.362784113693237,23.643623324279787,14.189784113693237,25.471203324279784,12.885284113693237L28.585993324279784,15.999984113693237L29.999993324279785,14.585984113693238L26.884993324279783,11.471204113693238C29.238193324279784,8.160554113693237,27.688793324279786,3.5173441136932375,23.819023324279783,2.2832861136932374C19.949253324279784,1.0492261136932373,15.997832294279785,3.938224113693237,15.999999999999785,8.000004113693237ZM18.000003324279785,8.000004113693237C18.000003324279785,5.790864113693237,19.790863324279783,4.000004113693237,22.000003324279785,4.000004113693237C24.209143324279786,4.000004113693237,25.999993324279785,5.790864113693237,25.999993324279785,8.000004113693237C25.999993324279785,10.209134113693237,24.209143324279786,11.999984113693237,22.000003324279785,11.999984113693237C19.791893324279783,11.997484113693238,18.002483324279787,10.208114113693238,18.000003324279785,8.000004113693237Z" fill="#000000" fill-opacity="1"/></g><g><rect x="11" y="24" width="10" height="2" rx="0" fill="#000000" fill-opacity="1"/></g><g><rect x="13" y="28" width="6" height="2" rx="0" fill="#000000" fill-opacity="1"/></g><g><path d="M10.814502114562988,18.140599952316286C8.912682114562989,16.689799952316285,7.857542114562988,14.387799952316284,8.000002114562989,11.999999952316283C8.005882114562988,8.355909952316285,10.472102114562988,5.175599952316285,14.000002114562989,4.262699952316284L13.613802114562988,2.299999952316284C9.148912114562988,3.4003599523162844,6.0082836145629885,7.4015299523162845,6.000000014562988,11.999999952316283C5.8622791145629884,14.947299952316284,7.149662114562989,17.781099952316282,9.460002114562988,19.616199952316283C10.471702114562987,20.550799952316286,11.000002114562989,21.081499952316285,11.000002114562989,21.999999952316283L13.000002114562989,21.999999952316283C13.000002114562989,20.159999952316284,11.889202114562988,19.133799952316284,10.814502114562988,18.140599952316286Z" fill="#000000" fill-opacity="1"/></g><g><path d="M23.0493,16C22.53532,16.803198,21.90453,17.52533,21.1777,18.1426C20.1069,19.1348,19,20.1611,19,22L21,22C21,21.0806,21.5264,20.55,22.5352,19.6143C23.4792,18.81061,24.28009,17.85266,24.9038,16.7812L23.0493,16Z" fill="#000000" fill-opacity="1"/></g><g></g></g></svg>