<svg xmlns="http://www.w3.org/2000/svg" xmlns:xlink="http://www.w3.org/1999/xlink" fill="none" version="1.1" width="32" height="32" viewBox="0 0 32 32"><defs><clipPath id="master_svg0_134_24325"><rect x="0" y="0" width="32" height="32" rx="0"/></clipPath></defs><g clip-path="url(#master_svg0_134_24325)"><g><rect x="11" y="24" width="10" height="2" rx="0" fill="#000000" fill-opacity="1"/></g><g><rect x="13" y="28" width="6" height="2" rx="0" fill="#000000" fill-opacity="1"/></g><g><path d="M23.0488,16C22.5348,16.803034,21.9042,17.52514,21.1777,18.1426C20.1069,19.1348,19,20.1611,19,22L21,22C21,21.0806,21.5264,20.55,22.5352,19.6143C23.71588,18.63627,24.65558,17.39957,25.2815,16L23.0488,16Z" fill="#000000" fill-opacity="1"/></g><g><path d="M15.999972114562988,3.9999972090530393C17.28567211456299,3.9998472090530397,18.55207211456299,4.31235720905304,19.689972114562988,4.910597209053039L20.58577211456299,3.1195972090530395C13.932022114562988,-0.3278827909469606,5.992275234562988,4.50614720905304,6.000000014562988,11.99996720905304C5.8622791145629884,14.94726720905304,7.149662114562989,17.78106720905304,9.460002114562988,19.61616720905304C10.471702114562987,20.55076720905304,11.000002114562989,21.081467209053038,11.000002114562989,21.99996720905304L13.000002114562989,21.99996720905304C13.000002114562989,20.15996720905304,11.889202114562988,19.13376720905304,10.814502114562988,18.14056720905304C8.912682114562989,16.68986720905304,7.857542114562988,14.38776720905304,8.000002114562989,11.99996720905304C8.005072114562989,7.583827209053039,11.583822114562988,4.00506720905304,15.999972114562988,3.9999972090530393Z" fill="#000000" fill-opacity="1"/></g><g><path d="M28.999992376708985,13.999968767166138L19.000002376708984,13.999968767166138C18.256525376708986,14.000068767166137,17.772943376708984,13.217668767166138,18.105499376708984,12.552668767166137L23.105502376708984,2.552699767166138C23.274902376708983,2.2139467671661377,23.621152376708984,1.9999687671661377,23.999902376708985,1.9999687671661377C24.378652376708985,1.9999686479571377,24.724892376708986,2.2139467671661377,24.894302376708985,2.552699767166138L29.894292376708982,12.552668767166137C30.226792376708985,13.217668767166138,29.743392376708982,13.999968767166138,28.999992376708985,13.999968767166138ZM20.618202376708986,11.999968767166138L27.381802376708983,11.999968767166138L24.000002376708984,5.236098767166138L20.618202376708986,11.999968767166138Z" fill="#000000" fill-opacity="1"/></g><g></g></g></svg>