<svg xmlns="http://www.w3.org/2000/svg" xmlns:xlink="http://www.w3.org/1999/xlink" fill="none" version="1.1" width="32" height="32" viewBox="0 0 32 32"><defs><clipPath id="master_svg0_134_24374"><rect x="0" y="0" width="32" height="32" rx="0"/></clipPath></defs><g clip-path="url(#master_svg0_134_24374)"><g><rect x="11" y="24" width="10" height="2" rx="0" fill="#000000" fill-opacity="1"/></g><g><rect x="13" y="28" width="6" height="2" rx="0" fill="#000000" fill-opacity="1"/></g><g><path d="M23.04,16C22.53022,16.803572,21.90243,17.52586,21.1777,18.1426C20.1069,19.1348,19,20.1611,19,22L21,22C21,21.0806,21.5264,20.55,22.5352,19.6143C23.71386,18.63573,24.651519999999998,17.39906,25.2756,16L23.04,16Z" fill="#000000" fill-opacity="1"/></g><g><path d="M20,13.999997379760742C19.62122,14.000047379760742,19.27493,13.786077379760743,19.1055,13.447297379760743L17.3818,9.999997379760742L14,9.999997379760742L14,7.999997379760742L18,7.999997379760742C18.37878,7.999957379760742,18.72507,8.213927379760742,18.8945,8.552697379760742L20,10.763897379760742L23.1055,4.5526993797607425C23.50955,3.875456379760742,24.4904,3.875456379760742,24.8945,4.5526993797607425L26.6182,7.999997379760742L30,7.999997379760742L30,9.999997379760742L26,9.999997379760742C25.6212,10.000047379760742,25.274900000000002,9.786077379760743,25.1055,9.447297379760741L24,7.236097379760742L20.8945,13.447297379760743C20.72514,13.786027379760743,20.37885,13.999997379760742,20,13.999997379760742Z" fill="#000000" fill-opacity="1"/></g><g><path d="M10.814502114562988,18.1406C8.912682114562989,16.689799999999998,7.857542114562988,14.3878,8.000002114562989,12C8.005072114562989,7.58382,11.583822114562988,4.00507,15.999972114562988,4L15.999972114562988,2C10.479692114562988,2.00611687,6.006116414562988,6.47969,6.000000014562988,12C5.8622791145629884,14.9473,7.149662114562989,17.781100000000002,9.460002114562988,19.6162C10.471702114562987,20.5508,11.000002114562989,21.0815,11.000002114562989,22L13.000002114562989,22C13.000002114562989,20.16,11.889202114562988,19.1338,10.814502114562988,18.1406Z" fill="#000000" fill-opacity="1"/></g><g></g></g></svg>