<svg xmlns="http://www.w3.org/2000/svg" xmlns:xlink="http://www.w3.org/1999/xlink" fill="none" version="1.1" width="32" height="32" viewBox="0 0 32 32"><defs><clipPath id="master_svg0_134_09122"><rect x="0" y="0" width="32" height="32" rx="0"/></clipPath></defs><g clip-path="url(#master_svg0_134_09122)"><g><path d="M18,23L16,23L16,21C15.9982,19.3439,14.6561,18.00182,13,18L9,18C7.3439,18.00182,6.00182,19.3439,6,21L6,23L4,23L4,21C4.00325203,18.23993,6.23992,16.00325203,9,16L13,16C15.7601,16.00325203,17.9967,18.23993,18,21L18,23Z" fill="#000000" fill-opacity="1"/></g><g><path d="M11,6C12.65685,6,14,7.34315,14,9C14,10.65685,12.65685,12,11,12C9.34315,12,8,10.65685,8,9C8,7.34315,9.34315,6,11,6ZM11,4C8.238579999999999,4,6,6.23858,6,9C6,11.761420000000001,8.238579999999999,14,11,14C13.761420000000001,14,16,11.761420000000001,16,9C16,6.23858,13.761420000000001,4,11,4Z" fill="#000000" fill-opacity="1"/></g><g><rect x="2" y="26.000099182128906" width="28" height="2" rx="0" fill="#000000" fill-opacity="1"/></g><g><path d="M22,4L22,6L26.586,6L20,12.586L21.414,14L28,7.414L28,12L30,12L30,4L22,4Z" fill="#000000" fill-opacity="1"/></g><g></g></g></svg>