<svg xmlns="http://www.w3.org/2000/svg" xmlns:xlink="http://www.w3.org/1999/xlink" fill="none" version="1.1" width="32" height="32" viewBox="0 0 32 32"><defs><clipPath id="master_svg0_134_09195"><rect x="0" y="0" width="32" height="32" rx="0"/></clipPath></defs><g clip-path="url(#master_svg0_134_09195)"><g><path d="M16,28C9.92487,28,5,23.0751,5,17C5,10.92487,9.92487,6,16,6C22.0751,6,27,10.92487,27,17C27,23.0751,22.0751,28,16,28ZM16,8C11.029440000000001,8,7,12.029440000000001,7,17C7,21.970599999999997,11.029440000000001,26,16,26C20.970599999999997,26,25,21.970599999999997,25,17C25,12.029440000000001,20.970599999999997,8,16,8Z" fill="#000000" fill-opacity="1"/></g><g transform="matrix(0.7063658833503723,-0.7078468799591064,0.7078468799591064,0.7063658833503723,-4.199250471873029,5.060985442035815)"><rect x="4.00048828125" y="7.5919389724731445" width="5.070000171661377" height="2" rx="0" fill="#000000" fill-opacity="1"/></g><g transform="matrix(0.7078468799591064,-0.7063658833503723,0.7063658833503723,0.7078468799591064,2.8999663330046985,17.825736389398912)"><rect x="22.99945831298828" y="5.407108783721924" width="2" height="5.070000171661377" rx="0" fill="#000000" fill-opacity="1"/></g><g><rect x="11" y="16" width="10" height="2" rx="0" fill="#000000" fill-opacity="1"/></g><g></g></g></svg>