<svg xmlns="http://www.w3.org/2000/svg" xmlns:xlink="http://www.w3.org/1999/xlink" fill="none" version="1.1" width="32" height="32" viewBox="0 0 32 32"><defs><clipPath id="master_svg0_134_09297"><rect x="0" y="0" width="32" height="32" rx="0"/></clipPath></defs><g clip-path="url(#master_svg0_134_09297)"><g><path d="M24,20L20,20C18.895955999999998,19.9987,18.00126839,19.104,18,18L18,11C18.00126839,9.895956,18.895955999999998,9.00126839,20,9L24,9C25.10404,9.00126743,25.998730000000002,9.895955,26,11L26,18C25.998730000000002,19.104,25.10404,19.9987,24,20ZM20,11L20,18L24.0012,18L24,11L20,11Z" fill="#000000" fill-opacity="1"/></g><g><path d="M12,28L8,28C6.895956,27.9987,6.00126743,27.104,6,26L6,11C6.00126791,9.895956,6.895956,9.00126743,8,9L12,9C13.104040000000001,9.00126743,13.99873,9.895956,14,11L14,26C13.99873,27.104,13.104040000000001,27.9987,12,28ZM8,11L8,26L12.0012,26L12,11L8,11Z" fill="#000000" fill-opacity="1"/></g><g><rect x="2" y="4" width="28" height="2" rx="0" fill="#000000" fill-opacity="1"/></g><g></g></g></svg>