<svg xmlns="http://www.w3.org/2000/svg" xmlns:xlink="http://www.w3.org/1999/xlink" fill="none" version="1.1" width="32" height="32" viewBox="0 0 32 32"><defs><clipPath id="master_svg0_134_09304"><rect x="0" y="0" width="32" height="32" rx="0"/></clipPath></defs><g clip-path="url(#master_svg0_134_09304)"><g><path d="M4,2L2,2L2,28C2,29.1046,2.895431,30,4,30L30,30L30,28L4,28L4,2Z" fill="#000000" fill-opacity="1"/></g><g><path d="M30,9L23,9L23,11L26.59,11L19,18.59L14.71,14.29C14.31882,13.8956,13.681180000000001,13.8956,13.29,14.29L6,21.59L7.41,23L14,16.41L18.29,20.71C18.6812,21.1044,19.3188,21.1044,19.71,20.71L28,12.41L28,16L30,16L30,9Z" fill="#000000" fill-opacity="1"/></g><g></g></g></svg>