<svg xmlns="http://www.w3.org/2000/svg" xmlns:xlink="http://www.w3.org/1999/xlink" fill="none" version="1.1" width="32" height="32" viewBox="0 0 32 32"><defs><clipPath id="master_svg0_134_09349"><rect x="0" y="0" width="32" height="32" rx="0"/></clipPath></defs><g clip-path="url(#master_svg0_134_09349)"><g><path d="M20,14L28,14C29.104,13.9987,29.9987,13.104,30,12L30,4C29.9987,2.895956,29.104,2.00126863,28,2L20,2C18.896,2.00126863,18.0013,2.895956,18,4L9,4C7.89596,4.00127,7.00127,4.8959600000000005,7,6L7,10L4,10C2.895956,10.00127,2.00126696,10.89596,2,12L2,20C2.00126863,21.104,2.895956,21.9987,4,22L6,22L6,26C6.00127,27.104,6.89596,27.9987,8,28L18,28C18.0013,29.104,18.896,29.9987,20,30L28,30C29.104,29.9987,29.9987,29.104,30,28L30,20C29.9987,18.896,29.104,18.0013,28,18L20,18C18.896,18.0013,18.0013,18.896,18,20L18,26L8,26L8,22L12,22C13.104,21.9987,13.9987,21.104,14,20L14,12C13.9987,10.89596,13.104,10.00127,12,10L9,10L9,6L18,6L18,12C18.0013,13.104,18.896,13.9987,20,14ZM20,28L20,24L28,24L28,28L20,28ZM28,20L28,22L20,22L20,20L28,20ZM4,20L4,16L12,16L12,20L4,20ZM12.0005,14L4,14L4,12L12,12L12.0005,14ZM20,12L20,8L28,8L28,12L20,12ZM28,4L28,6L20,6L20,4L28,4Z" fill="#000000" fill-opacity="1"/></g><g></g></g></svg>