<svg xmlns="http://www.w3.org/2000/svg" xmlns:xlink="http://www.w3.org/1999/xlink" fill="none" version="1.1" width="32" height="32" viewBox="0 0 32 32"><defs><clipPath id="master_svg0_134_09373"><rect x="0" y="0" width="32" height="32" rx="0"/></clipPath></defs><g clip-path="url(#master_svg0_134_09373)"><g><path d="M16,18L6,18C4.895431,18,4,17.104599999999998,4,16L4,6C4,4.895431,4.895431,4,6,4L16,4C17.104599999999998,4,18,4.895431,18,6L18,16C18,17.104599999999998,17.104599999999998,18,16,18ZM6,6L6,16L16,16L16,6L6,6Z" fill="#000000" fill-opacity="1"/></g><g><path d="M26,12L26,16L22,16L22,12L26,12ZM26,10L22,10C20.89543,10,20,10.895431,20,12L20,16C20,17.10457,20.89543,18,22,18L26,18C27.10457,18,28,17.10457,28,16L28,12C28,10.895431,27.10457,10,26,10Z" fill="#000000" fill-opacity="1"/></g><g><path d="M26,22L26,26L22,26L22,22L26,22ZM26,20L22,20C20.89543,20,20,20.895431,20,22L20,26C20,27.10457,20.89543,28,22,28L26,28C27.10457,28,28,27.10457,28,26L28,22C28,20.895431,27.10457,20,26,20Z" fill="#000000" fill-opacity="1"/></g><g><path d="M16,22L16,26L12,26L12,22L16,22ZM16,20L12,20C10.89543,20,10,20.895431,10,22L10,26C10,27.10457,10.89543,28,12,28L16,28C17.10457,28,18,27.10457,18,26L18,22C18,20.895431,17.10457,20,16,20Z" fill="#000000" fill-opacity="1"/></g><g><g></g></g></g></svg>