<svg xmlns="http://www.w3.org/2000/svg" xmlns:xlink="http://www.w3.org/1999/xlink" fill="none" version="1.1" width="32" height="32" viewBox="0 0 32 32"><defs><clipPath id="master_svg0_134_09415"><rect x="0" y="0" width="32" height="32" rx="0"/></clipPath></defs><g clip-path="url(#master_svg0_134_09415)"><g><rect x="14" y="19" width="4" height="2" rx="0" fill="#000000" fill-opacity="1"/></g><g><path d="M6,2L6,28C6,29.1046,6.895431,30,8,30L24,30C25.1046,30,26,29.1046,26,28L26,2L6,2ZM24,28L8,28L8,16L24,16L24,28ZM24,14L8,14L8,10L24,10L24,14ZM8,8L8,4L24,4L24,8L8,8Z" fill="#000000" fill-opacity="1"/></g><g></g></g></svg>