<svg xmlns="http://www.w3.org/2000/svg" xmlns:xlink="http://www.w3.org/1999/xlink" fill="none" version="1.1" width="32" height="32" viewBox="0 0 32 32"><defs><clipPath id="master_svg0_134_09426"><rect x="0" y="0" width="32" height="32" rx="0"/></clipPath></defs><g clip-path="url(#master_svg0_134_09426)"><g><path d="M30.00003858013153,6.000001493835449C30.003938580131532,3.8363314938354494,28.28333858013153,2.063463193835449,26.12053858013153,2.002704853835449C23.95763858013153,1.9419462938354493,22.14023858013153,3.6154214938354494,22.02273858013153,5.775901493835449L9.58639858013153,8.262701493835449C8.32126858013153,5.633861493835449,4.754768580131531,5.207241493835449,2.905288580131531,7.463521493835449C1.0558115801315306,9.719791493835448,2.1740095801315307,13.133201493835449,4.999998580131531,13.857901493835449L4.999998580131531,22.142101493835447C3.113178580131531,22.62600149383545,1.8511715801315307,24.401001493835448,2.013974680131531,26.34210149383545C2.1767775801315308,28.28320149383545,3.7168385801315305,29.823201493835448,5.657898580131531,29.98600149383545C7.598958580131531,30.14880149383545,9.374038580131531,28.88680149383545,9.85789858013153,27.00000149383545L18.14213858013153,27.00000149383545C18.86533858013153,29.82850149383545,22.281238580131532,30.94870149383545,24.53913858013153,29.09790149383545C26.79693858013153,27.247101493835448,26.36873858013153,23.67780149383545,23.737138580131532,22.41360149383545L26.22413858013153,9.97750149383545C28.337838580131532,9.861661493835449,29.99413858013153,8.116911493835449,30.00003858013153,6.000001493835449ZM26.00003858013153,4.000001493835449C27.104538580131532,4.000001493835449,28.00003858013153,4.895431493835449,28.00003858013153,6.000001493835449C28.00003858013153,7.104571493835449,27.104538580131532,8.000001493835448,26.00003858013153,8.000001493835448C24.89543858013153,8.000001493835448,24.00003858013153,7.104571493835449,24.00003858013153,6.000001493835449C24.00123858013153,4.895951493835449,24.89593858013153,4.001261493835449,26.00003858013153,4.000001493835449ZM3.999998580131531,10.000001493835448C3.999998580131531,8.89543149383545,4.895428580131531,8.000001493835448,5.999998580131531,8.000001493835448C7.104568580131531,8.000001493835448,7.999998580131531,8.89543149383545,7.999998580131531,10.000001493835448C7.999998580131531,11.104571493835449,7.104568580131531,12.00000149383545,5.999998580131531,12.00000149383545C4.895958580131531,11.998731493835448,4.001268580131531,11.10404149383545,3.999998580131531,10.000001493835448ZM5.999998580131531,28.00000149383545C4.895428580131531,28.00000149383545,3.999998580131531,27.10460149383545,3.999998580131531,26.00000149383545C3.999998580131531,24.89540149383545,4.895428580131531,24.00000149383545,5.999998580131531,24.00000149383545C7.104568580131531,24.00000149383545,7.999998580131531,24.89540149383545,7.999998580131531,26.00000149383545C7.998728580131531,27.10400149383545,7.104048580131531,27.998701493835448,5.999998580131531,28.00000149383545ZM18.14213858013153,25.00000149383545L9.85789858013153,25.00000149383545C9.49309858013153,23.60010149383545,8.399878580131531,22.50690149383545,6.999998580131531,22.142101493835447L6.999998580131531,13.857901493835449C8.67640858013153,13.422001493835449,9.879568580131531,11.95350149383545,9.977298580131531,10.22410149383545L22.41363858013153,7.737301493835449C22.805738580131532,8.54321149383545,23.45693858013153,9.19430149383545,24.262938580131532,9.58640149383545L21.77593858013153,22.02250149383545C20.046438580131532,22.12030149383545,18.57803858013153,23.32360149383545,18.14213858013153,25.00000149383545ZM22.00003858013153,28.00000149383545C20.89543858013153,28.00000149383545,20.00003858013153,27.10460149383545,20.00003858013153,26.00000149383545C20.00003858013153,24.89540149383545,20.89543858013153,24.00000149383545,22.00003858013153,24.00000149383545C23.104538580131532,24.00000149383545,24.00003858013153,24.89540149383545,24.00003858013153,26.00000149383545C23.99873858013153,27.10400149383545,23.10403858013153,27.998701493835448,22.00003858013153,28.00000149383545Z" fill="#000000" fill-opacity="1"/></g><g></g></g></svg>