<svg xmlns="http://www.w3.org/2000/svg" xmlns:xlink="http://www.w3.org/1999/xlink" fill="none" version="1.1" width="32" height="32" viewBox="0 0 32 32"><defs><clipPath id="master_svg0_134_09437"><rect x="0" y="0" width="32" height="32" rx="0"/></clipPath></defs><g clip-path="url(#master_svg0_134_09437)"><g><path d="M24,9L22,9L16,17.5713L10,9L8,9L15,19L8,29L10,29L16,20.4287L22,29L24,29L17,19L24,9Z" fill="#000000" fill-opacity="1"/></g><g><path d="M20.00000029067993,6.999999625778198C18.22290029067993,6.999999625778198,16.76860029067993,6.127399625778199,15.485600290679931,5.357499625778198C14.32200029067993,4.659399625778198,13.222900290679931,3.9999996257781985,12.000000290679932,3.9999996257781985C10.602300290679931,3.9999996257781985,9.551000290679932,4.862899625778198,8.707300290679932,5.706999625778199L7.292700290679932,4.292899625778198C8.36010029067993,3.2253996257781985,9.859600290679932,1.9998996257781982,12.000000290679932,1.9998996257781982C13.777100290679932,1.9998996257781982,15.231400290679932,2.8724996257781985,16.51440029067993,3.6423996257781983C17.678000290679933,4.3404996257781985,18.777100290679932,4.999899625778198,20.00000029067993,4.999899625778198C21.39750029067993,4.999899625778198,22.44870029067993,4.1369996257781985,23.29300029067993,3.292699625778198L24.707100290679932,4.706999625778199C23.639700290679933,5.774499625778198,22.140000290679932,6.9997996257781985,20.00000029067993,6.999999625778198Z" fill="#000000" fill-opacity="1"/></g><g></g></g></svg>