<svg xmlns="http://www.w3.org/2000/svg" xmlns:xlink="http://www.w3.org/1999/xlink" fill="none" version="1.1" width="32" height="32" viewBox="0 0 32 32"><defs><clipPath id="master_svg0_134_09443"><rect x="0" y="0" width="32" height="32" rx="0"/></clipPath></defs><g clip-path="url(#master_svg0_134_09443)"><g><rect x="2" y="28" width="28" height="2" rx="0" fill="#000000" fill-opacity="1"/></g><g><path d="M17.210044913482665,5.229997064971924L18.600044913482666,5.609997064971924L19.600044913482666,16.899997064971924L25.470044913482667,18.469997064971924C26.447544913482666,18.700797064971923,27.102244913482664,19.620797064971924,27.000044913482665,20.619997064971923C26.883244913482667,21.352597064971924,26.346544913482667,21.947997064971926,25.630044913482667,22.139997064971922C25.302044913482668,22.224697064971924,24.957944913482667,22.224697064971924,24.630044913482667,22.139997064971922L5.929994913482666,17.139997064971922C4.9316749134826665,16.866797064971923,4.338774913482666,15.841497064971923,4.599994913482666,14.839997064971923L6.349994913482666,8.339997064971925L7.790004913482666,8.719997064971924L8.399994913482665,13.899997064971924L14.400044913482667,15.519997064971923L17.210044913482665,5.229997064971924ZM16.210044913482665,3.029999964971924C15.879644913482666,3.127526064971924,15.622644913482667,3.388230064971924,15.530044913482666,3.7200000649719236L13.000044913482666,13.069997064971924L10.190004913482666,12.319997064971924L9.689994913482666,7.7899970649719235C9.627644913482666,7.417497064971924,9.360734913482666,7.111897064971924,9.000004913482666,6.999997064971923L5.869994913482666,6.139997064971924C5.706384913482665,6.094857064971924,5.5336149134826655,6.094857064971924,5.369994913482666,6.139997064971924C5.042064913482665,6.235647064971924,4.785644913482666,6.492067064971923,4.690004913482666,6.819997064971924L2.689999913482666,14.309997064971924C2.1368949134826662,16.375697064971924,3.363951913482666,18.498397064971925,5.430004913482666,19.049997064971922L24.140044913482665,24.049997064971922C26.343244913482668,24.670597064971926,28.600744913482664,23.253897064971923,29.000044913482665,20.999997064971925C29.274544913482664,18.976997064971926,27.981444913482665,17.071897064971925,26.000044913482665,16.579997064971923L21.480044913482665,15.369997064971924L20.530044913482666,4.709997064971924C20.484644913482665,4.306847064971924,20.200244913482667,3.971047064971924,19.810044913482667,3.8600000649719237L16.730044913482665,2.999999964971924C16.565744913482668,2.9601294949719237,16.394244913482666,2.9601294949719237,16.230044913482665,2.999999964971924L16.210044913482665,3.029999964971924Z" fill="#000000" fill-opacity="1"/></g><g></g></g></svg>