<svg xmlns="http://www.w3.org/2000/svg" xmlns:xlink="http://www.w3.org/1999/xlink" fill="none" version="1.1" width="32" height="32" viewBox="0 0 32 32"><defs><clipPath id="master_svg0_134_24446"><rect x="0" y="0" width="32" height="32" rx="0"/></clipPath></defs><g clip-path="url(#master_svg0_134_24446)"><g><path d="M13.71,12.29L7.42,6L14,6L14,4L4,4L4,13.99L6,14.01L6,7.41L12.29,13.7L13.71,12.29Z" fill="#000000" fill-opacity="1"/></g><g><path d="M28,10L18,10L18,12L28,12L28,28L12,28L12,18L10,18L10,28C10,29.1046,10.895431,30,12,30L28,30C29.1046,30,30,29.1046,30,28L30,12C30,10.895431,29.1046,10,28,10Z" fill="#000000" fill-opacity="1"/></g><g><path d="M19,25L21,25L21,18L24,18L24,16L16,16L16,18L19,18L19,25Z" fill="#000000" fill-opacity="1"/></g><g></g></g></svg>