<svg xmlns="http://www.w3.org/2000/svg" xmlns:xlink="http://www.w3.org/1999/xlink" fill="none" version="1.1" width="32" height="32" viewBox="0 0 32 32"><defs><clipPath id="master_svg0_134_09511"><rect x="0" y="0" width="32" height="32" rx="0"/></clipPath></defs><g clip-path="url(#master_svg0_134_09511)"><g><path d="M14.980041011047364,3C14.921441011047364,3.0000915527,14.863041011047363,3.00531149,14.805441011047364,3.0156C8.210681011047363,4.1869499999999995,3.562704011047363,10.145620000000001,4.031920911047363,16.8271C4.501138011047363,23.5086,9.936291011047363,28.7591,16.63004101104736,28.9973C16.794141011047365,29.0033,16.958241011047363,28.9973,17.120941011047364,28.9973C21.380341011047364,28.9995,25.373741011047365,26.9265,27.822941011047362,23.4417C28.022041011047364,23.1405,28.045141011047363,22.7559,27.883441011047363,22.4331C27.721841011047363,22.1102,27.400041011047364,21.8983,27.03964101104736,21.8773C18.476041011047364,21.1261,12.953181011047363,12.45949,15.889241011047364,4.38C16.140441011047365,3.729833,15.676541011047362,3.0257449,14.980041011047364,3Z" fill="#000000" fill-opacity="1"/></g><g></g></g></svg>