<svg xmlns="http://www.w3.org/2000/svg" xmlns:xlink="http://www.w3.org/1999/xlink" fill="none" version="1.1" width="32" height="32" viewBox="0 0 32 32"><defs><clipPath id="master_svg0_134_09516"><rect x="0" y="0" width="32" height="32" rx="0"/></clipPath></defs><g clip-path="url(#master_svg0_134_09516)"><g><path d="M16,25.400001335144044L8,20.700001335144044L8,11.300001335144042L16,6.600001335144043L24,11.300001335144042L24,20.700001335144044L16,25.400001335144044ZM10,19.600001335144043L16,23.100001335144043L22,19.600001335144043L22,12.500001335144043L16,9.000001335144043L10,12.500001335144043L10,19.600001335144043Z" fill="#000000" fill-opacity="1"/></g><g><path d="M27,8.2L17,2.3C16.7,2.0999999,16.4,2,16,2C15.6,2,15.3,2.0999999,15,2.3L5,8.2C4.4,8.6,4,9.2,4,9.9L4,22.1C4,22.8,4.4,23.5,5,23.8L15,29.7C15.3,29.9,15.7,30,16,30C16.3,30,16.7,29.9,17,29.7L27,23.8C27.6,23.4,28,22.8,28,22.1L28,9.9C28,9.2,27.6,8.5,27,8.2ZM26,22.1L16,28L6,22.1L6,9.9L16,4L26,9.9L26,22.1Z" fill="#000000" fill-opacity="1"/></g><g></g></g></svg>