<svg xmlns="http://www.w3.org/2000/svg" xmlns:xlink="http://www.w3.org/1999/xlink" fill="none" version="1.1" width="16" height="16" viewBox="0 0 16 16"><defs><clipPath id="master_svg0_134_08466"><rect x="0" y="0" width="16" height="16" rx="0"/></clipPath></defs><g clip-path="url(#master_svg0_134_08466)"><g><rect x="7.5" y="1" width="1" height="2.5" rx="0" fill="#000000" fill-opacity="1"/></g><g transform="matrix(0.707099974155426,-0.707099974155426,0.707099974155426,0.707099974155426,0.015224333929779732,8.94378085709917)"><rect x="10.8037109375" y="4.453660011291504" width="2.5" height="1" rx="0" fill="#000000" fill-opacity="1"/></g><g><rect x="12.5" y="7.5" width="2.5" height="1" rx="0" fill="#000000" fill-opacity="1"/></g><g transform="matrix(0.707099974155426,-0.707099974155426,0.707099974155426,0.707099974155426,-4.964684741744463,11.034868040685296)"><rect x="10.83784008026123" y="11.510519981384277" width="1" height="2.5" rx="0" fill="#000000" fill-opacity="1"/></g><g><rect x="7.5" y="12.5" width="1" height="2.5" rx="0" fill="#000000" fill-opacity="1"/></g><g transform="matrix(0.707099974155426,-0.707099974155426,0.707099974155426,0.707099974155426,-8.118495313495885,5.617614670029354)"><rect x="2.7216796875" y="12.608790397644043" width="2.5" height="1" rx="0" fill="#000000" fill-opacity="1"/></g><g><rect x="1" y="7.5" width="2.5" height="1" rx="0" fill="#000000" fill-opacity="1"/></g><g transform="matrix(0.707099974155426,-0.707099974155426,0.707099974155426,0.707099974155426,-1.638629542707136,2.9051627870214674)"><rect x="2.6875" y="3.4306299686431885" width="1" height="2.5" rx="0" fill="#000000" fill-opacity="1"/></g><g><path d="M8,6C9.1,6,10,6.9,10,8C10,9.1,9.1,10,8,10C6.9,10,6,9.1,6,8C6,6.9,6.9,6,8,6ZM8,5C6.3,5,5,6.3,5,8C5,9.7,6.3,11,8,11C9.7,11,11,9.7,11,8C11,6.3,9.7,5,8,5Z" fill="#000000" fill-opacity="1"/></g><g></g></g></svg>