<svg xmlns="http://www.w3.org/2000/svg" xmlns:xlink="http://www.w3.org/1999/xlink" fill="none" version="1.1" width="32" height="32" viewBox="0 0 32 32"><defs><clipPath id="master_svg0_134_09689"><rect x="0" y="0" width="32" height="32" rx="0"/></clipPath></defs><g clip-path="url(#master_svg0_134_09689)"><g><path d="M25,11L15,11C14.447715,11,14,11.447715,14,12L14,16C14.00485516,18.92483,16.11639,21.4207,19,21.91L19,28L16,28L16,30L24,30L24,28L21,28L21,21.91C23.883609999999997,21.4207,25.9951,18.92483,26,16L26,12C26,11.447715,25.552300000000002,11,25,11ZM24,16C24,18.209139999999998,22.209139999999998,20,20,20C17.79086,20,16,18.209139999999998,16,16L16,13L24,13L24,16Z" fill="#000000" fill-opacity="1"/></g><g><path d="M15.000002380218506,1L10.000002380218506,1C9.447712380218505,1,9.000002380218506,1.447715,9.000002380218506,2L9.000002380218506,9.3706C7.018642380218505,10.53139,5.858687380218506,12.708,5.999999980218506,15L5.999999980218506,29C5.999999980218506,29.5523,6.447715380218506,30,7.000002380218506,30L12.000002380218506,30L12.000002380218506,28L8.000002380218506,28L8.000002380218506,15C8.000002380218506,11.8125,10.231002380218506,10.98,10.316402380218506,10.9487L11.000002380218506,10.7207L11.000002380218506,3L14.000002380218506,3L14.000002380218506,8L16.000012380218507,8L16.000012380218507,2C16.000012380218507,1.447715,15.552282380218506,1,15.000002380218506,1Z" fill="#000000" fill-opacity="1"/></g><g></g></g></svg>