<svg xmlns="http://www.w3.org/2000/svg" xmlns:xlink="http://www.w3.org/1999/xlink" fill="none" version="1.1" width="32" height="32" viewBox="0 0 32 32"><defs><clipPath id="master_svg0_134_09722"><rect x="0" y="0" width="32" height="32" rx="0"/></clipPath></defs><g clip-path="url(#master_svg0_134_09722)"><g><path d="M17,28L17,22L15,22L15,28L5,28L5,30L27,30L27,28L17,28Z" fill="#000000" fill-opacity="1"/></g><g><ellipse cx="9" cy="16" rx="1" ry="1" fill="#000000" fill-opacity="1"/></g><g><path d="M26,20L6,20C4.895956,19.998730000000002,4.00126743,19.10404,4,18L4,14C4.00126743,12.895956,4.895956,12.00126743,6,12L26,12C27.104,12.00126839,27.9987,12.895956,28,14L28,18C27.9987,19.10404,27.104,19.998730000000002,26,20ZM6,14L6,18L26,18L26,14L6,14Z" fill="#000000" fill-opacity="1"/></g><g><ellipse cx="9" cy="6" rx="1" ry="1" fill="#000000" fill-opacity="1"/></g><g><path d="M26,10L6,10C4.895956,9.99873,4.00126696,9.104040000000001,4,8L4,4C4.00126696,2.895956,4.895956,2.00126719,6,2L26,2C27.104,2.00126767,27.9987,2.895956,28,4L28,8C27.9987,9.104040000000001,27.104,9.99873,26,10ZM6,4L6,8L26,8L26,4L6,4Z" fill="#000000" fill-opacity="1"/></g><g></g></g></svg>