<svg xmlns="http://www.w3.org/2000/svg" xmlns:xlink="http://www.w3.org/1999/xlink" fill="none" version="1.1" width="32" height="32" viewBox="0 0 32 32"><defs><clipPath id="master_svg0_134_09760"><rect x="0" y="0" width="32" height="32" rx="0"/></clipPath></defs><g clip-path="url(#master_svg0_134_09760)"><g><path d="M27,11L26,11L26,10C26,8.895431,25.10457,8,24,8L20,8L20,10L24,10L24,13L27,13L27,19L24,19L24,22L19,22L19,24L24,24C25.10457,24,26,23.104599999999998,26,22L26,21L27,21C28.104570000000002,21,29,20.104599999999998,29,19L29,13C29,11.895430000000001,28.104570000000002,11,27,11Z" fill="#000000" fill-opacity="1"/></g><g><path d="M11,22L6,22L6,10L12,10L12,8L6,8C4.895431,8,4,8.895431,4,10L4,22C4,23.104599999999998,4.895431,24,6,24L11,24L11,22Z" fill="#000000" fill-opacity="1"/></g><g><path d="M14.809999885559083,23.580000114440917L13.189999885559082,22.420000114440917L17.059999885559083,17.000000114440915L9.369999885559082,17.000000114440915L16.219999885559083,8.380000114440918L17.779999885559082,9.620000114440918L13.509999885559083,15.000000114440919L20.939999885559082,15.000000114440919L14.809999885559083,23.580000114440917Z" fill="#000000" fill-opacity="1"/></g><g></g></g></svg>