<svg xmlns="http://www.w3.org/2000/svg" xmlns:xlink="http://www.w3.org/1999/xlink" fill="none" version="1.1" width="32" height="32" viewBox="0 0 32 32"><defs><clipPath id="master_svg0_134_09767"><rect x="0" y="0" width="32" height="32" rx="0"/></clipPath></defs><g clip-path="url(#master_svg0_134_09767)"><g><path d="M24,24L6,24C4.895955,23.9987,4.00126648,23.104,4,22L4,10C4.00110292,8.895887,4.895887,8.00110245,6,8L24,8C25.104,8.00126743,25.9987,8.895956,26,10L26,11L27,11C28.104,11.00127,28.9987,11.89596,29,13L29,19C28.9985,20.104,28.104,20.9985,27,21L26,21L26,22C25.9985,23.104,25.104,23.9985,24,24ZM6,10L6,22L24,22L24,19L27,19L27,13L24,13L24,10L6,10Z" fill="#000000" fill-opacity="1"/></g><g></g></g></svg>