<svg xmlns="http://www.w3.org/2000/svg" xmlns:xlink="http://www.w3.org/1999/xlink" fill="none" version="1.1" width="32" height="32" viewBox="0 0 32 32"><defs><clipPath id="master_svg0_134_09796"><rect x="0" y="0" width="32" height="32" rx="0"/></clipPath></defs><g clip-path="url(#master_svg0_134_09796)"><g><path d="M16,10C12.68629,10,10,12.68629,10,16L10,24C10,27.3137,12.68629,30,16,30C19.31371,30,22,27.3137,22,24L22,16C22,12.68629,19.31371,10,16,10ZM11.75,17.87L20.25,17.87L20.25,22.119999999999997L11.75,22.119999999999997L11.75,17.87ZM16,28.25C13.65734,28.2391,11.76095,26.3427,11.75,24L11.75,23.869999999999997L20.25,23.869999999999997L20.25,24C20.2391,26.3427,18.342660000000002,28.2391,16,28.25ZM20.25,16.12L11.75,16.12L11.75,16C11.75,13.65279,13.65279,11.75,16,11.75C18.34721,11.75,20.25,13.65279,20.25,16L20.25,16.12Z" fill="#000000" fill-opacity="1"/></g><g><path d="M30.66,19.21L24,13L24,22.1C24,24.3091,25.79086,26.1,28,26.1C30.209139999999998,26.1,32,24.3091,32,22.1C31.99414,20.9878,31.5051,19.93307,30.66,19.21ZM28,24.35C26.75736,24.35,25.75,23.342599999999997,25.75,22.1L25.75,17L29.47,20.47C29.92268,20.85079,30.18881,21.40856,30.2,22C30.25643,23.262,29.26302,24.3232,28,24.35Z" fill="#000000" fill-opacity="1"/></g><g><path d="M0,22.1C0,24.3091,1.79086,26.1,4,26.1C6.20914,26.1,8,24.3091,8,22.1L8,13L1.34,19.21C0.500237,19.93711,0.0123849,20.98927,0,22.1ZM2.48,20.54L6.25,17L6.25,22.1C6.25,23.342599999999997,5.24264,24.35,4,24.35C2.75736,24.35,1.75,23.342599999999997,1.75,22.1C1.75249,21.49804,2.01943,20.927599999999998,2.48,20.54Z" fill="#000000" fill-opacity="1"/></g><g><path d="M15.000000953674316,5.500000715255737C15.000000953674316,3.5670007152557375,13.433000953674316,2.0000007152557373,11.500000953674316,2.0000007152557373C9.567000953674317,2.0000007152557373,8.000000953674316,3.5670007152557375,8.000000953674316,5.500000715255737C8.000000953674316,7.433000715255737,9.567000953674317,9.000000715255737,11.500000953674316,9.000000715255737C13.433000953674316,9.000000715255737,15.000000953674316,7.433000715255737,15.000000953674316,5.500000715255737ZM9.750000953674316,5.500000715255737C9.750000953674316,4.533500715255737,10.533500953674316,3.7500007152557373,11.500000953674316,3.7500007152557373C12.466500953674316,3.7500007152557373,13.250000953674316,4.533500715255737,13.250000953674316,5.500000715255737C13.250000953674316,6.466500715255737,12.466500953674316,7.250000715255737,11.500000953674316,7.250000715255737C10.538010953674316,7.239190715255737,9.760810953674316,6.461980715255737,9.750000953674316,5.500000715255737Z" fill="#000000" fill-opacity="1"/></g><g><path d="M20.500001907348633,2C18.567001907348633,2.000000238419,17.000001907348633,3.567,17.000001907348633,5.5C17.000001907348633,7.433,18.567001907348633,9,20.500001907348633,9C22.433001907348633,9,24.000001907348633,7.433,24.000001907348633,5.5C24.000001907348633,3.567,22.433001907348633,2.000000238419,20.500001907348633,2ZM20.500001907348633,7.25C19.533501907348633,7.25,18.750001907348633,6.4665,18.750001907348633,5.5C18.750001907348633,4.5335,19.533501907348633,3.75,20.500001907348633,3.75C21.466501907348633,3.75,22.250001907348633,4.5335,22.250001907348633,5.5C22.239191907348633,6.46199,21.461981907348633,7.23919,20.500001907348633,7.25Z" fill="#000000" fill-opacity="1"/></g><g></g></g></svg>