<svg xmlns="http://www.w3.org/2000/svg" xmlns:xlink="http://www.w3.org/1999/xlink" fill="none" version="1.1" width="32" height="32" viewBox="0 0 32 32"><defs><clipPath id="master_svg0_134_09840"><rect x="0" y="0" width="32" height="32" rx="0"/></clipPath></defs><g clip-path="url(#master_svg0_134_09840)"><g><path d="M28,20L26,20L26,22L28,22L28,28L4,28L4,22L6,22L6,20L4,20C2.895978,20.00132179,2.00132132,20.895979,2,22L2,28C2.00132227,29.10402,2.895979,29.99868,4,30L28,30C29.104,29.99868,29.9987,29.10402,30,28L30,22C29.9987,20.895979,29.104,20.00132179,28,20Z" fill="#000000" fill-opacity="1"/></g><g><ellipse cx="7" cy="25" rx="1" ry="1" fill="#000000" fill-opacity="1"/></g><g><path d="M15,20L8,20L8,13L15,13L15,20ZM10,18L13,18L13,15L10,15L10,18Z" fill="#000000" fill-opacity="1"/></g><g><path d="M24,20L17,20L17,13L24,13L24,20ZM19,18L22,18L22,15L19,15L19,18Z" fill="#000000" fill-opacity="1"/></g><g><path d="M15,11L8,11L8,4L15,4L15,11ZM10,9L13,9L13,6L10,6L10,9Z" fill="#000000" fill-opacity="1"/></g><g><path d="M24,11L17,11L17,4L24,4L24,11ZM19,9L22,9L22,6L19,6L19,9Z" fill="#000000" fill-opacity="1"/></g><g></g></g></svg>