<svg xmlns="http://www.w3.org/2000/svg" xmlns:xlink="http://www.w3.org/1999/xlink" fill="none" version="1.1" width="32" height="32" viewBox="0 0 32 32"><defs><clipPath id="master_svg0_134_09832"><rect x="0" y="0" width="32" height="32" rx="0"/></clipPath></defs><g clip-path="url(#master_svg0_134_09832)"><g><path d="M9,12L9,10L4,10C2.895431,10,2,10.895431,2,12L2,28C2,29.1046,2.895431,30,4,30L20,30C21.1046,30,22,29.1046,22,28L22,19L20,19L20,28L4,28L4,12" fill="#000000" fill-opacity="1"/></g><g><path d="M22,12L14,12L14,4L22,4L22,12ZM12,4L12,12C12,13.1046,12.895431,14,14,14L22,14C23.104599999999998,14,24,13.1046,24,12L24,4C24,2.895431,23.104599999999998,2,22,2L14,2C12.895431,2,12,2.895431,12,4Z" fill="#000000" fill-opacity="1"/></g><g><path d="M14,18L14,22L10,22L10,18L14,18ZM8,18L8,22C8,23.10457,8.895431,24,10,24L14,24C15.104569999999999,24,16,23.10457,16,22L16,18C16,16.89543,15.104569999999999,16,14,16L10,16C8.895431,16,8,16.89543,8,18Z" fill="#000000" fill-opacity="1"/></g><g><path d="M28,17L28,19L26,19L26,17L28,17ZM24,16L24,20C24,20.55228,24.447716,21,25,21L29,21C29.55228,21,30,20.55228,30,20L30,16C30,15.447715,29.55228,15,29,15L25,15C24.447716,15,24,15.447715,24,16Z" fill="#000000" fill-opacity="1"/></g><g></g></g></svg>