<svg xmlns="http://www.w3.org/2000/svg" xmlns:xlink="http://www.w3.org/1999/xlink" fill="none" version="1.1" width="32" height="32" viewBox="0 0 32 32"><defs><clipPath id="master_svg0_134_09907"><rect x="0" y="0" width="32" height="32" rx="0"/></clipPath></defs><g clip-path="url(#master_svg0_134_09907)"><g><path d="M32,22L32,20L29,20L29,18L27,18L27,20L26,20L26,22L27,22L27,28C27,29.1025,27.8975,30,29,30L32,30L32,28L29,28L29,22L32,22Z" fill="#000000" fill-opacity="1"/></g><g><path d="M23,30L20,30C18.897499,30,18,29.1025,18,28L18,22C18,20.896999,18.897499,20,20,20L23,20C24.1025,20,25,20.896999,25,22L25,28C25,29.1025,24.1025,30,23,30ZM20,22L20,28L23,28L23,22L20,22Z" fill="#000000" fill-opacity="1"/></g><g><path d="M14,30L11,30C9.897499,30,9,29.1025,9,28L9,22C9,20.896999,9.897499,20,11,20L14,20C15.1025,20,16,20.896999,16,22L16,28C16,29.1025,15.1025,30,14,30ZM11,22L11,28L14,28L14,22L11,22Z" fill="#000000" fill-opacity="1"/></g><g><path d="M5,20L2,20L2,16L0,16L0,30L5,30C6.1025,30,7,29.1025,7,28L7,22C7,20.897,6.1025,20,5,20ZM2,28L2,22L5,22L5,28L2,28Z" fill="#000000" fill-opacity="1"/></g><g><path d="M4,13.999993085861206L4,5.000003085861206L11.5857,5.000003085861206L15.5857,9.000003085861206L28,9.000003085861206L28,15.999993085861206L30,15.999993085861206L30,9.000003085861206C29.9987,7.895903085861206,29.1041,7.001303085861206,28,7.000003085861206L16.4143,7.000003085861206L13,3.585900085861206C12.6258,3.209500085861206,12.1165,2.998600005861206,11.5857,3.000000000001206L4,3.000000000001206C2.8959,3.001300095861206,2.00129986,3.8959000858612063,2,5.000003085861206L2,13.999993085861206L4,13.999993085861206Z" fill="#000000" fill-opacity="1"/></g><g></g></g></svg>