<svg xmlns="http://www.w3.org/2000/svg" xmlns:xlink="http://www.w3.org/1999/xlink" fill="none" version="1.1" width="32" height="32" viewBox="0 0 32 32"><defs><clipPath id="master_svg0_134_10008"><rect x="0" y="0" width="32" height="32" rx="0"/></clipPath></defs><g clip-path="url(#master_svg0_134_10008)"><g transform="matrix(0,1,-1,0,32,-26)"><rect x="29" y="3" width="26" height="2" rx="0" fill="#000000" fill-opacity="1"/></g><g transform="matrix(0,1,-1,0,28,-22)"><rect x="25" y="3" width="2" height="2" rx="0" fill="#000000" fill-opacity="1"/></g><g transform="matrix(0,1,-1,0,24,-18)"><rect x="21" y="3" width="2" height="2" rx="0" fill="#000000" fill-opacity="1"/></g><g transform="matrix(0,1,-1,0,20,-14)"><rect x="17" y="3" width="2" height="2" rx="0" fill="#000000" fill-opacity="1"/></g><g transform="matrix(0,1,-1,0,16,-10)"><rect x="13" y="3" width="2" height="2" rx="0" fill="#000000" fill-opacity="1"/></g><g transform="matrix(0,1,-1,0,12,-6)"><rect x="9" y="3" width="2" height="2" rx="0" fill="#000000" fill-opacity="1"/></g><g transform="matrix(0,1,-1,0,8,-2)"><rect x="5" y="3" width="2" height="2" rx="0" fill="#000000" fill-opacity="1"/></g><g transform="matrix(0,1,-1,0,12,2)"><rect x="5" y="7" width="2" height="2" rx="0" fill="#000000" fill-opacity="1"/></g><g transform="matrix(0,1,-1,0,16,6)"><rect x="5" y="11" width="2" height="2" rx="0" fill="#000000" fill-opacity="1"/></g><g transform="matrix(0,1,-1,0,20,10)"><rect x="5" y="15" width="2" height="2" rx="0" fill="#000000" fill-opacity="1"/></g><g transform="matrix(0,1,-1,0,28,18)"><rect x="5" y="23" width="2" height="2" rx="0" fill="#000000" fill-opacity="1"/></g><g transform="matrix(0,1,-1,0,24,14)"><rect x="5" y="19" width="2" height="2" rx="0" fill="#000000" fill-opacity="1"/></g><g transform="matrix(0,1,-1,0,52,2)"><rect x="25" y="27" width="2" height="2" rx="0" fill="#000000" fill-opacity="1"/></g><g transform="matrix(0,1,-1,0,48,6)"><rect x="21" y="27" width="2" height="2" rx="0" fill="#000000" fill-opacity="1"/></g><g transform="matrix(0,1,-1,0,44,10)"><rect x="17" y="27" width="2" height="2" rx="0" fill="#000000" fill-opacity="1"/></g><g transform="matrix(0,1,-1,0,40,14)"><rect x="13" y="27" width="2" height="2" rx="0" fill="#000000" fill-opacity="1"/></g><g transform="matrix(0,1,-1,0,36,18)"><rect x="9" y="27" width="2" height="2" rx="0" fill="#000000" fill-opacity="1"/></g><g transform="matrix(0,1,-1,0,32,22)"><rect x="5" y="27" width="2" height="2" rx="0" fill="#000000" fill-opacity="1"/></g><g><rect x="8" y="10" width="10" height="2" rx="0" fill="#000000" fill-opacity="1"/></g><g><rect x="8" y="15" width="6" height="2" rx="0" fill="#000000" fill-opacity="1"/></g><g></g></g></svg>