<svg xmlns="http://www.w3.org/2000/svg" xmlns:xlink="http://www.w3.org/1999/xlink" fill="none" version="1.1" width="32" height="32" viewBox="0 0 32 32"><defs><clipPath id="master_svg0_134_10097"><rect x="0" y="0" width="32" height="32" rx="0"/></clipPath></defs><g clip-path="url(#master_svg0_134_10097)"><g><path d="M23,10L23,8C23,7.4478,22.5522,7,22,7L19,7L19,9L21,9L21,10.9688Q23,12.092600000000001,23,14.4488L23,23.0001L19,23.0001L19,25.0001L24,25.0001C24.5522,25.0001,25,24.5523,25,24.0001L25,14.448699999999999C25,12.735800000000001,24.2771,11.1411,23,10Z" fill="#000000" fill-opacity="1"/></g><g><path d="M15,10L15,8C15,7.4478,14.5522,7,14,7L10,7C9.4478,7,9,7.4478,9,8L9,10C7.7229,11.1411,7,12.735800000000001,7,14.448699999999999L7,24C7,24.5522,7.4478,25,8,25L16,25C16.5522,25,17,24.5522,17,24L17,14.448699999999999C17,12.735800000000001,16.2771,11.1411,15,10ZM15,23L9,23L9,14.448699999999999Q9,12.0927,11,10.9687L11,8.9999L13,8.9999L13,10.9687Q15,12.0927,15,14.448699999999999L15,23Z" fill="#000000" fill-opacity="1"/></g><g><path d="M28,2L4,2C2.8954,2,2,2.8954,2,4L2,28C2,29.1046,2.8954,30,4,30L28,30C29.1046,30,30,29.1046,30,28L30,4C30,2.8954,29.1046,2,28,2ZM28,28L4,28L4,4L28,4L28,28Z" fill="#000000" fill-opacity="1"/></g><g></g></g></svg>