<svg xmlns="http://www.w3.org/2000/svg" xmlns:xlink="http://www.w3.org/1999/xlink" fill="none" version="1.1" width="32" height="32" viewBox="0 0 32 32"><defs><clipPath id="master_svg0_134_10125"><rect x="0" y="0" width="32" height="32" rx="0"/></clipPath></defs><g clip-path="url(#master_svg0_134_10125)"><g><path d="M26,28L6,28C4.89591,27.9988,4.00115824,27.1041,4,26L4,9L6,9L6,26L26,26L26,9L28,9L28,26C27.9988,27.1041,27.1041,27.9988,26,28Z" fill="#000000" fill-opacity="1"/></g><g><path d="M18,9L16.485,14L16,15.977L15.535,14L14,9L12,9L12,23L14,23L14,15L13.842,13.004L14.421,15L16,19.625999999999998L17.579,15L18.159,13L18,15L18,23L20,23L20,9L18,9Z" fill="#000000" fill-opacity="1"/></g><g><rect x="4" y="4" width="24" height="2" rx="0" fill="#000000" fill-opacity="1"/></g><g></g></g></svg>