<svg xmlns="http://www.w3.org/2000/svg" xmlns:xlink="http://www.w3.org/1999/xlink" fill="none" version="1.1" width="32" height="32" viewBox="0 0 32 32"><defs><clipPath id="master_svg0_134_10158"><rect x="0" y="0" width="32" height="32" rx="0"/></clipPath></defs><g clip-path="url(#master_svg0_134_10158)"><g><rect x="15" y="2" width="2" height="3" rx="0" fill="#000000" fill-opacity="1"/></g><g><rect x="27" y="15" width="3" height="2" rx="0" fill="#000000" fill-opacity="1"/></g><g><rect x="15" y="27" width="2" height="3" rx="0" fill="#000000" fill-opacity="1"/></g><g><rect x="2" y="15" width="3" height="2" rx="0" fill="#000000" fill-opacity="1"/></g><g transform="matrix(0.7071067690849304,-0.7071067690849304,0.7071067690849304,0.7071067690849304,-3.2711996906720344,5.869660482888179)"><rect x="5.44970703125" y="6.883517742156982" width="2" height="3" rx="0" fill="#000000" fill-opacity="1"/></g><g transform="matrix(0.7071067690849304,-0.7071067690849304,0.7071067690849304,0.7071067690849304,1.375895117894089,18.483504912194604)"><rect x="22.99951171875" y="7.5809006690979" width="3" height="2" rx="0" fill="#000000" fill-opacity="1"/></g><g transform="matrix(0.7071067690849304,-0.7071067690849304,0.7071067690849304,0.7071067690849304,-10.527775346113003,23.416593981105734)"><rect x="23.00244140625" y="24.416446685791016" width="2" height="3" rx="0" fill="#000000" fill-opacity="1"/></g><g><path d="M5.46999979019165,25.13L7.5899997901916505,23L8.99999979019165,24.42L6.8799997901916505,26.54L5.46999979019165,25.13Z" fill="#000000" fill-opacity="1"/></g><g><path d="M16,8C11.58172,8,8,11.58172,8,16C8,20.418300000000002,11.58172,24,16,24C20.418300000000002,24,24,20.418300000000002,24,16C24,11.58172,20.418300000000002,8,16,8ZM16,22C12.68629,22,10,19.3137,10,16C10,12.68629,12.68629,10,16,10L16,22Z" fill="#000000" fill-opacity="1"/></g><g></g></g></svg>