<svg xmlns="http://www.w3.org/2000/svg" xmlns:xlink="http://www.w3.org/1999/xlink" fill="none" version="1.1" width="32" height="32" viewBox="0 0 32 32"><defs><clipPath id="master_svg0_134_10239"><rect x="0" y="0" width="32" height="32" rx="0"/></clipPath></defs><g clip-path="url(#master_svg0_134_10239)"><g><path d="M28,14L27,14L27,7C27,5.9,26.1,5,25,5L19,5L19,7L25,7L25,14L24,14C22.9,14,22,14.9,22,16L22,25L9.9,25C9.5,23.6,8.4,22.5,7,22.1L7,7L13.2,7L10.6,9.6L12,11L17,6L12,1L10.6,2.4L13.2,5L7,5C5.9,5,5,5.9,5,7L5,22.1C3.3,22.5,2,24.1,2,26C2,28.2,3.8,30,6,30C7.9,30,9.4,28.7,9.9,27L22,27L22,28C22,29.1,22.9,30,24,30L28,30C29.1,30,30,29.1,30,28L30,16C30,14.9,29.1,14,28,14ZM6,28C4.9,28,4,27.1,4,26C4,24.9,4.9,24,6,24C7.1,24,8,24.9,8,26C8,27.1,7.1,28,6,28ZM24,28L24,16L28,16L28,28L24,28Z" fill="#000000" fill-opacity="1"/></g><g></g></g></svg>