<svg xmlns="http://www.w3.org/2000/svg" xmlns:xlink="http://www.w3.org/1999/xlink" fill="none" version="1.1" width="32" height="32" viewBox="0 0 32 32"><defs><clipPath id="master_svg0_134_10244"><rect x="0" y="0" width="32" height="32" rx="0"/></clipPath></defs><g clip-path="url(#master_svg0_134_10244)"><g><path d="M26.000029633331298,6L26.000029633331298,8.17L5.639999633331299,11.870000000000001C4.677814633331299,12.04593,3.984047133331299,12.89199,4.0000000003312985,13.870000000000001L4.0000000003312985,18.21C3.984047933331299,19.188000000000002,4.677814633331299,20.034100000000002,5.639999633331299,20.21L7.999999633331299,20.560000000000002L7.999999633331299,24C7.999999633331299,25.1046,8.895429633331299,26,9.9999996333313,26L18.000029633331298,26C19.104529633331296,26,20.000029633331298,25.1046,20.000029633331298,24L20.000029633331298,22.74L26.000029633331298,23.83L26.000029633331298,26L28.000029633331298,26L28.000029633331298,6L26.000029633331298,6ZM18.000029633331298,24L9.9999996333313,24L9.9999996333313,20.93L18.000029633331298,22.38L18.000029633331298,24ZM5.999999633331299,18.17L5.999999633331299,13.83L26.000029633331298,10.2L26.000029633331298,21.8L5.999999633331299,18.17Z" fill="#000000" fill-opacity="1"/></g><g></g></g></svg>