<svg xmlns="http://www.w3.org/2000/svg" xmlns:xlink="http://www.w3.org/1999/xlink" fill="none" version="1.1" width="32" height="32" viewBox="0 0 32 32"><defs><clipPath id="master_svg0_134_10255"><rect x="0" y="0" width="32" height="32" rx="0"/></clipPath></defs><g clip-path="url(#master_svg0_134_10255)"><g><rect x="27" y="11" width="2" height="4" rx="0" fill="#000000" fill-opacity="1"/></g><g><rect x="3" y="11" width="2" height="4" rx="0" fill="#000000" fill-opacity="1"/></g><g><rect x="20" y="20" width="2" height="2" rx="0" fill="#000000" fill-opacity="1"/></g><g><rect x="10" y="20" width="2" height="2" rx="0" fill="#000000" fill-opacity="1"/></g><g><path d="M21,4L11,4C8.23992,4.00325155,6.00325155,6.23992,6,9L6,23C6.00126648,24.104,6.895955,24.9987,8,25L8,28L10,28L10,25L22,25L22,28L24,28L24,25C25.104,24.9985,25.9985,24.104,26,23L26,9C25.9967,6.23992,23.7601,4.00324965,21,4ZM24,10L24.0009,16L8,16L8,10L24,10ZM11,6L21,6C22.2672,6.00389,23.3947,6.80481,23.8157,8L8.1843,8C8.60527,6.80481,9.73285,6.00389,11,6ZM8,23L8,18L24.0012,18L24.002,23L8,23Z" fill="#000000" fill-opacity="1"/></g><g></g></g></svg>