<svg xmlns="http://www.w3.org/2000/svg" xmlns:xlink="http://www.w3.org/1999/xlink" fill="none" version="1.1" width="32" height="32" viewBox="0 0 32 32"><defs><clipPath id="master_svg0_134_10264"><rect x="0" y="0" width="32" height="32" rx="0"/></clipPath></defs><g clip-path="url(#master_svg0_134_10264)"><g><path d="M23.0002,31.00004305114746C22.9907,31.00004305114746,22.9814,30.99994305114746,22.971899999999998,30.99964305114746C22.561700000000002,30.98814305114746,22.200400000000002,30.72734305114746,22.060299999999998,30.34184305114746L18.9238,21.716603051147462L16.9192,26.39400305114746C16.761499999999998,26.76170305114746,16.400199999999998,27.000103051147462,16,27.000103051147462L12,27.000103051147462L12,25.000103051147462L15.3406,25.000103051147462L18.0808,18.60619905114746C18.2427,18.229000051147462,18.628700000000002,17.98959925114746,19.028100000000002,18.00049972514746C19.438299999999998,18.01199915114746,19.799599999999998,18.27280005114746,19.939700000000002,18.65830005114746L23.0762,27.283503051147463L25.0808,22.60610305114746C25.238500000000002,22.23840305114746,25.599800000000002,22.00000305114746,26,22.00000305114746L30,22.00000305114746L30,24.00000305114746L26.659399999999998,24.00000305114746L23.9192,30.39394305114746C23.761200000000002,30.76234305114746,23.3992,31.00004305114746,23.0002,31.00004305114746Z" fill="#000000" fill-opacity="1"/></g><g><path d="M9,25L4,25L4,10L28,10L28,19L30,19L30,10C30,8.897,29.1025,8,28,8L22,8L22,4C22,2.8970000000000002,21.1025,2,20,2L12,2C10.897,2,10,2.8970000000000002,10,4L10,8L4,8C2.8970000000000002,8,2,8.897,2,10L2,25C2,26.1025,2.8970000000000002,27,4,27L9,27L9,25ZM12,4L20,4L20,8L12,8L12,4Z" fill="#000000" fill-opacity="1"/></g><g></g></g></svg>