<svg xmlns="http://www.w3.org/2000/svg" xmlns:xlink="http://www.w3.org/1999/xlink" fill="none" version="1.1" width="32" height="32" viewBox="0 0 32 32"><defs><clipPath id="master_svg0_134_10295"><rect x="0" y="0" width="32" height="32" rx="0"/></clipPath></defs><g clip-path="url(#master_svg0_134_10295)"><g><path d="M30.000000072288515,24.999999897766113L30.000000072288515,22.999999897766113L20.767600072288513,22.999999897766113L19.967600072288512,19.999999897766113L27.000000072288515,19.999999897766113L27.000000072288515,17.999999897766113L19.434800072288514,17.999999897766113L16.965800072288513,8.742199897766113L15.034200072288513,9.257799897766112L18.835900072288513,23.51459989776611C19.070400072288514,24.390199897766113,19.863500072288513,24.999399897766114,20.770000072288514,24.999999897766113L22.000000072288515,24.999999897766113L22.000000072288515,27.999999897766113L10.000000072288513,27.999999897766113L10.000000072288513,24.999999897766113L16.000000072288515,24.999999897766113L16.000000072288515,22.999999897766113L6.767600072288513,22.999999897766113L5.967600072288513,19.999999897766113L13.000000072288513,19.999999897766113L13.000000072288513,17.999999897766113L5.434800072288513,17.999999897766113L2.965800072288513,8.742199897766113L1.0342000722885132,9.257799897766112L4.8359000722885135,23.51459989776611C5.070380072288513,24.390199897766113,5.863520072288513,24.999399897766114,6.770000072288513,24.999999897766113L8.000000072288513,24.999999897766113L8.000000072288513,27.999999897766113L2.000000072288513,27.999999897766113L2.000000072288513,29.999999897766113L30.000000072288515,29.999999897766113L30.000000072288515,27.999999897766113L24.000000072288515,27.999999897766113L24.000000072288515,24.999999897766113L30.000000072288515,24.999999897766113Z" fill="#000000" fill-opacity="1"/></g><g><path d="M27.30300237060547,1.9999999999524658C26.58430237060547,1.9999945163724657,25.896162370605467,2.290667840652466,25.395102370605468,2.805899840652466L25.00000237060547,3.2111978406524657L24.60490237060547,2.805899840652466C23.55995237060547,1.7313508406524658,21.83414237060547,1.7313508406524658,20.78919937060547,2.805899840652466C19.736923370605467,3.891527840652466,19.736923370605467,5.616577840652466,20.78919937060547,6.702197840652466L25.00000237060547,10.999997840652465L29.21080237060547,6.702197840652466C30.26309237060547,5.616577840652466,30.26309237060547,3.891527840652466,29.21080237060547,2.805899840652466C28.70971237060547,2.290671840652466,28.021612370605467,2.0000002384524658,27.30300237060547,1.9999999999524658Z" fill="#000000" fill-opacity="1"/></g><g></g></g></svg>