<svg xmlns="http://www.w3.org/2000/svg" xmlns:xlink="http://www.w3.org/1999/xlink" fill="none" version="1.1" width="32" height="32" viewBox="0 0 32 32"><defs><clipPath id="master_svg0_134_10308"><rect x="0" y="0" width="32" height="32" rx="0"/></clipPath></defs><g clip-path="url(#master_svg0_134_10308)"><g><rect x="2" y="28" width="28" height="2" rx="0" fill="#000000" fill-opacity="1"/></g><g><path d="M24.5,11L8,11C6.895887,11.00110245,6.00110245,11.895887,6,13L6,21C6.00324917,23.7601,8.23992,25.9967,11,26L19,26C21.7601,25.9968,23.9968,23.7601,24,21L24,20L24.5,20C26.9853,20,29,17.98528,29,15.5C29,13.01472,26.9853,11.000000953674,24.5,11ZM22,21C21.9982,22.656100000000002,20.656100000000002,23.9982,19,24L11,24C9.3439,23.9982,8.00182,22.656100000000002,8,21L8,13L22,13L22,21ZM24.5,18L24,18L24,13L24.5,13C25.8807,13,27,14.11929,27,15.5C27,16.88071,25.8807,18,24.5,18Z" fill="#000000" fill-opacity="1"/></g><g><path d="M18.999998065490722,9L16.999998065490722,9L16.999998065490722,8.854C17.002678065490723,8.095780000000001,16.57388806549072,7.40204,15.894498065490723,7.0654L13.210898065490722,5.7236C11.852393065490723,5.04982,10.994996075490723,3.66241,10.999999999990722,2.146L10.999999999990722,1L12.999998065490722,1L12.999998065490722,2.146C12.997538065490723,2.90416,13.426258065490723,3.59779,14.105498065490723,3.9346L16.789098065490723,5.2764C18.14753806549072,5.95025,19.004908065490724,7.33762,18.999998065490722,8.854L18.999998065490722,9Z" fill="#000000" fill-opacity="1"/></g><g></g></g></svg>