<svg xmlns="http://www.w3.org/2000/svg" xmlns:xlink="http://www.w3.org/1999/xlink" fill="none" version="1.1" width="32" height="32" viewBox="0 0 32 32"><defs><clipPath id="master_svg0_134_10324"><rect x="0" y="0" width="32" height="32" rx="0"/></clipPath></defs><g clip-path="url(#master_svg0_134_10324)"><g><rect x="19" y="13" width="6" height="2" rx="0" fill="#000000" fill-opacity="1"/></g><g><path d="M13,21L11,21L11,19L9,19L9,21L7,21L7,23L9,23L9,25L11,25L11,23L13,23L13,21Z" fill="#000000" fill-opacity="1"/></g><g><rect x="7" y="9" width="6" height="2" rx="0" fill="#000000" fill-opacity="1"/></g><g><rect x="19" y="17" width="6" height="2" rx="0" fill="#000000" fill-opacity="1"/></g><g><path d="M27,3L5,3C3.895956,3.00126719,3.00126719,3.895956,3,5L3,27C3.00126648,28.104,3.895955,28.9987,5,29L27,29C28.104,28.9987,28.9987,28.104,29,27L29,5C28.9987,3.895955,28.104,3.00126672,27,3ZM15,5L15,15L5,15L5,5L15,5ZM5,17L15,17L15,27L5,27L5,17ZM17,27L17,5L27,5L27,27L17,27Z" fill="#000000" fill-opacity="1"/></g><g></g></g></svg>