<svg xmlns="http://www.w3.org/2000/svg" xmlns:xlink="http://www.w3.org/1999/xlink" fill="none" version="1.1" width="32" height="32" viewBox="0 0 32 32"><defs><clipPath id="master_svg0_134_10348"><rect x="0" y="0" width="32" height="32" rx="0"/></clipPath></defs><g clip-path="url(#master_svg0_134_10348)"><g><path d="M24,26.59L21.41,24L20,25.41L24,29.41L31,22.41L29.59,21L24,26.59Z" fill="#000000" fill-opacity="1"/></g><g><rect x="15" y="23" width="2" height="2" rx="0" fill="#000000" fill-opacity="1"/></g><g><rect x="9" y="23" width="2" height="2" rx="0" fill="#000000" fill-opacity="1"/></g><g><rect x="21" y="18" width="2" height="2" rx="0" fill="#000000" fill-opacity="1"/></g><g><rect x="15" y="18" width="2" height="2" rx="0" fill="#000000" fill-opacity="1"/></g><g><rect x="9" y="18" width="2" height="2" rx="0" fill="#000000" fill-opacity="1"/></g><g><rect x="21" y="13" width="2" height="2" rx="0" fill="#000000" fill-opacity="1"/></g><g><rect x="15" y="13" width="2" height="2" rx="0" fill="#000000" fill-opacity="1"/></g><g><rect x="9" y="13" width="2" height="2" rx="0" fill="#000000" fill-opacity="1"/></g><g><rect x="9" y="7" width="14" height="3" rx="0" fill="#000000" fill-opacity="1"/></g><g><path d="M17,30L6.0046,30C4.897922,29.9987,4.00115776,29.1018,4,27.9951L4,3.9961C4.00126743,2.89421,4.89421,2.00126767,5.9961,2L26.0037,2C27.1056,2.00121188,27.9987,2.894154,28,3.9961L28,18L26,18L26,4L6,4L6,28L17,28L17,30Z" fill="#000000" fill-opacity="1"/></g><g></g></g></svg>