<svg xmlns="http://www.w3.org/2000/svg" xmlns:xlink="http://www.w3.org/1999/xlink" fill="none" version="1.1" width="32" height="32" viewBox="0 0 32 32"><defs><clipPath id="master_svg0_134_10315"><rect x="0" y="0" width="32" height="32" rx="0"/></clipPath></defs><g clip-path="url(#master_svg0_134_10315)"><g><path d="M14,8L10,8L10,4L8,4L8,8L4,8L4,10L8,10L8,14L10,14L10,10L14,10L14,8Z" fill="#000000" fill-opacity="1"/></g><g><rect x="4" y="19" width="10" height="2" rx="0" fill="#000000" fill-opacity="1"/></g><g><rect x="4" y="24" width="10" height="2" rx="0" fill="#000000" fill-opacity="1"/></g><g><rect x="18" y="8" width="10" height="2" rx="0" fill="#000000" fill-opacity="1"/></g><g><path d="M24.41,22L28,18.41L26.59,17L23,20.59L19.41,17L18,18.41L21.59,22L18,25.59L19.41,27L23,23.41L26.59,27L28,25.59L24.41,22Z" fill="#000000" fill-opacity="1"/></g><g></g></g></svg>