<svg xmlns="http://www.w3.org/2000/svg" xmlns:xlink="http://www.w3.org/1999/xlink" fill="none" version="1.1" width="32" height="32" viewBox="0 0 32 32"><defs><clipPath id="master_svg0_134_10432"><rect x="0" y="0" width="32" height="32" rx="0"/></clipPath></defs><g clip-path="url(#master_svg0_134_10432)"><g><path d="M12,23C8.68629,23,6,20.31371,6,17C6,13.68629,8.68629,11,12,11C15.31371,11,18,13.68629,18,17C18,20.31371,15.31371,23,12,23ZM12,13C9.79086,13,8,14.79086,8,17C8,19.209139999999998,9.79086,21,12,21C14.20914,21,16,19.209139999999998,16,17C16,14.79086,14.20914,13,12,13Z" fill="#000000" fill-opacity="1"/></g><g><path d="M29,27L3,27C2.447715,27,2,26.5523,2,26L2,6C2,5.447715,2.447715,5,3,5L29,5C29.5523,5,30,5.447715,30,6L30,26C30,26.5523,29.5523,27,29,27ZM4,25L28,25L28,7L4,7L4,25Z" fill="#000000" fill-opacity="1"/></g><g><rect x="19" y="9" width="7" height="2" rx="0" fill="#000000" fill-opacity="1"/></g><g><ellipse cx="12" cy="17" rx="1" ry="1" fill="#000000" fill-opacity="1"/></g><g></g></g></svg>