<svg xmlns="http://www.w3.org/2000/svg" xmlns:xlink="http://www.w3.org/1999/xlink" fill="none" version="1.1" width="32" height="32" viewBox="0 0 32 32"><defs><clipPath id="master_svg0_134_10493"><rect x="0" y="0" width="32" height="32" rx="0"/></clipPath></defs><g clip-path="url(#master_svg0_134_10493)"><g><rect x="24" y="28" width="6" height="2" rx="0" fill="#000000" fill-opacity="1"/></g><g><ellipse cx="21" cy="29" rx="1" ry="1" fill="#000000" fill-opacity="1"/></g><g><ellipse cx="29" cy="25" rx="1" ry="1" fill="#000000" fill-opacity="1"/></g><g transform="matrix(-1,-1.2246468525851679e-16,1.2246468525851679e-16,-1,52,52)"><rect x="26" y="26" width="6" height="2" rx="0" fill="#000000" fill-opacity="1"/></g><g><rect x="24" y="20" width="6" height="2" rx="0" fill="#000000" fill-opacity="1"/></g><g><ellipse cx="21" cy="21" rx="1" ry="1" fill="#000000" fill-opacity="1"/></g><g><path d="M21.4927,14.129895622558593L12.9927,9.315000622558594C12.687,9.142100322558594,12.313,9.142100322558594,12.0073,9.315000622558594L3.5073,14.129895622558593C3.1938,14.307595622558594,3,14.639695622558595,3,14.999995622558593L3,25.000025622558596C3,25.360425622558594,3.1938,25.692425622558595,3.5073,25.870125622558593L12.0073,30.685025622558594L12.9927,28.944825622558593L5,24.417025622558594L5,15.582995622558593L12.5,11.334495622558594L20,15.582995622558593L20,17.999995622558593L22,17.999995622558593L22,14.999995622558593C22,14.639595622558595,21.8062,14.307595622558594,21.4927,14.129895622558593Z" fill="#000000" fill-opacity="1"/></g><g><path d="M24.999999559020996,15.000025009918213L26.999999559020996,15.000025009918213L26.999999559020996,6.999995009918213C26.999999559020996,6.639595009918213,26.806199559020996,6.307605009918213,26.492699559020995,6.129895009918213L17.992699559021,1.3149000099182129C17.686999559020997,1.1420001099182129,17.312999559020994,1.1420001099182129,17.007299559020996,1.3149000099182129L8.507399559020996,6.129895009918213L9.492799559020996,7.870105009918213L17.499999559020996,3.334505009918213L24.999999559020996,7.583005009918213L24.999999559020996,15.000025009918213Z" fill="#000000" fill-opacity="1"/></g><g></g></g></svg>