<svg xmlns="http://www.w3.org/2000/svg" xmlns:xlink="http://www.w3.org/1999/xlink" fill="none" version="1.1" width="32" height="32" viewBox="0 0 32 32"><defs><clipPath id="master_svg0_134_10450"><rect x="0" y="0" width="32" height="32" rx="0"/></clipPath></defs><g clip-path="url(#master_svg0_134_10450)"><g><path d="M13.5,30.81489333343506C13.3273,30.81479333343506,13.15757,30.769993333435057,13.0073,30.68489333343506L4.5073,25.86989333343506C4.193885,25.69249333343506,4.000107765,25.36019333343506,4,24.999993333435057L4,15.000003333435059C4.0000720024,14.639803333435058,4.193854,14.307473333435059,4.5073,14.13000333343506L13.0073,9.315000333435059C13.31304,9.142190933435058,13.68696,9.142190933435058,13.9927,9.315000333435059L22.4927,14.13000333343506C22.8062,14.307593333435058,23,14.639923333435059,23,15.000003333435059L23,24.999993333435057C22.9999,25.36019333343506,22.8061,25.69249333343506,22.4927,25.86999333343506L13.9927,30.68499333343506C13.84242,30.77009333343506,13.67269,30.81479333343506,13.5,30.81489333343506ZM6,24.41699333343506L13.5,28.66549333343506L21,24.41699333343506L21,15.583003333435059L13.5,11.334503333435059L6,15.583003333435059L6,24.41699333343506Z" fill="#000000" fill-opacity="1"/></g><g><path d="M28.00000037689209,16.999993214225768L26.00000037689209,16.999993214225768L26.00000037689209,7.583003214225769L18.50000037689209,3.334503214225769L10.492699376892089,7.870003214225769L9.50730037689209,6.130003214225769L18.00730037689209,1.315000214225769C18.31304037689209,1.1421909142257691,18.686960376892088,1.1421909142257691,18.99270037689209,1.315000214225769L27.49270037689209,6.130003214225769C27.80620037689209,6.307593214225769,28.00000037689209,6.639923214225769,28.00000037689209,7.000003214225769L28.00000037689209,16.999993214225768Z" fill="#000000" fill-opacity="1"/></g><g transform="matrix(-1,1.2246468525851679e-16,-1.2246468525851679e-16,-1,64,64)"></g></g></svg>