<svg xmlns="http://www.w3.org/2000/svg" xmlns:xlink="http://www.w3.org/1999/xlink" fill="none" version="1.1" width="32" height="32" viewBox="0 0 32 32"><defs><clipPath id="master_svg0_134_10561"><rect x="0" y="0" width="32" height="32" rx="0"/></clipPath></defs><g clip-path="url(#master_svg0_134_10561)"><g><path d="M26,2L8,2C6.89543,2,6,2.895431,6,4L6,8L4,8L4,10L6,10L6,15L4,15L4,17L6,17L6,22L4,22L4,24L6,24L6,28C6,29.1046,6.89543,30,8,30L26,30C27.1046,30,28,29.1046,28,28L28,4C28,2.895431,27.1046,2,26,2ZM26,28L8,28L8,24L10,24L10,22L8,22L8,17L10,17L10,15L8,15L8,10L10,10L10,8L8,8L8,4L26,4L26,28Z" fill="#000000" fill-opacity="1"/></g><g><rect x="14" y="8" width="8" height="2" rx="0" fill="#000000" fill-opacity="1"/></g><g><rect x="14" y="15" width="8" height="2" rx="0" fill="#000000" fill-opacity="1"/></g><g><rect x="14" y="22" width="8" height="2" rx="0" fill="#000000" fill-opacity="1"/></g><g></g></g></svg>