<svg xmlns="http://www.w3.org/2000/svg" xmlns:xlink="http://www.w3.org/1999/xlink" fill="none" version="1.1" width="32" height="32" viewBox="0 0 32 32"><defs><clipPath id="master_svg0_134_10577"><rect x="0" y="0" width="32" height="32" rx="0"/></clipPath></defs><g clip-path="url(#master_svg0_134_10577)"><g><path d="M6.76,5.999995681304932L7.21,6.8899956813049315L7.76,7.999995681304932L12,7.999995681304932L12,12.99999568130493L4,12.99999568130493L4,5.999995681304932L6.76,5.999995681304932ZM7.38,4.000000000004932L3,4.000000000004932C2.447715,4.000000000004932,2,4.447715681304931,2,4.999995681304932L2,13.999975681304932C2,14.552275681304932,2.447715,14.999975681304932,3,14.999975681304932L13,14.999975681304932C13.5523,14.999975681304932,14,14.552275681304932,14,13.999975681304932L14,6.999995681304932C14,6.447715681304931,13.5523,5.999995681304932,13,5.999995681304932L9,5.999995681304932L8.280000000000001,4.550000681304931C8.10893,4.210496681304932,7.76016,3.997354511304932,7.38,4.000000000004932Z" fill="#000000" fill-opacity="1"/></g><g><path d="M22.759999999999998,5.999995681304932L23.21,6.8899956813049315L23.759999999999998,7.999995681304932L28,7.999995681304932L28,12.99999568130493L20,12.99999568130493L20,5.999995681304932L22.759999999999998,5.999995681304932ZM23.38,4.000000000004932L19,4.000000000004932C18.447716,4.000000000004932,18,4.447715681304931,18,4.999995681304932L18,13.999975681304932C18,14.552275681304932,18.447716,14.999975681304932,19,14.999975681304932L29,14.999975681304932C29.552300000000002,14.999975681304932,30,14.552275681304932,30,13.999975681304932L30,6.999995681304932C30,6.447715681304931,29.552300000000002,5.999995681304932,29,5.999995681304932L25,5.999995681304932L24.28,4.550000681304931C24.10893,4.2104956813049315,23.76016,3.9973540313049316,23.38,4.000000000004932Z" fill="#000000" fill-opacity="1"/></g><g><path d="M6.76,18.999995204467773L7.21,19.889995204467773L7.76,20.999995204467773L12,20.999995204467773L12,25.999995204467773L4,25.999995204467773L4,18.999995204467773L6.76,18.999995204467773ZM7.38,16.999999999967773L3,16.999999999967773C2.447715,16.999999999967773,2,17.447716204467774,2,17.999995204467773L2,26.999975204467773C2,27.552275204467776,2.447715,27.999975204467773,3,27.999975204467773L13,27.999975204467773C13.5523,27.999975204467773,14,27.552275204467776,14,26.999975204467773L14,19.999995204467773C14,19.447715204467773,13.5523,18.999995204467773,13,18.999995204467773L9,18.999995204467773L8.280000000000001,17.549999204467774C8.10893,17.210495204467772,7.76016,16.997354504467772,7.38,16.999999999967773Z" fill="#000000" fill-opacity="1"/></g><g><path d="M22.759999999999998,18.999995204467773L23.21,19.889995204467773L23.759999999999998,20.999995204467773L28,20.999995204467773L28,25.999995204467773L20,25.999995204467773L20,18.999995204467773L22.759999999999998,18.999995204467773ZM23.38,16.999999999967773L19,16.999999999967773C18.447716,16.999999999967773,18,17.447716204467774,18,17.999995204467773L18,26.999975204467773C18,27.552275204467776,18.447716,27.999975204467773,19,27.999975204467773L29,27.999975204467773C29.552300000000002,27.999975204467773,30,27.552275204467776,30,26.999975204467773L30,19.999995204467773C30,19.447715204467773,29.552300000000002,18.999995204467773,29,18.999995204467773L25,18.999995204467773L24.28,17.549999204467774C24.10893,17.210495204467772,23.76016,16.997354504467772,23.38,16.999999999967773Z" fill="#000000" fill-opacity="1"/></g><g></g></g></svg>