<svg xmlns="http://www.w3.org/2000/svg" xmlns:xlink="http://www.w3.org/1999/xlink" fill="none" version="1.1" width="32" height="32" viewBox="0 0 32 32"><defs><clipPath id="master_svg0_134_10596"><rect x="0" y="0" width="32" height="32" rx="0"/></clipPath></defs><g clip-path="url(#master_svg0_134_10596)"><g><path d="M4,30L4,26L15,26L15,30L17,30L17,26L28,26L28,30L30,30L30,26C30,24.89543,29.1046,24,28,24L17,24L17,19L15,19L15,24L4,24C2.895431,24,2,24.89543,2,26L2,30L4,30Z" fill="#000000" fill-opacity="1"/></g><g><path d="M20.69530321838379,13.985781641960145C21.386033218383787,12.759181641960144,21.81223321838379,11.401381641960144,21.94633321838379,10.000001641960145L23.00003321838379,10.000001641960145L23.00003321838379,8.000001641960143L20.00000321838379,8.000001641960143L20.00000321838379,9.000001641960143C19.97845321838379,10.121381641960143,19.75343321838379,11.229521641960144,19.33590321838379,12.270481641960144L16.65110321838379,8.881601641960145C17.59981321838379,8.340341641960144,18.350843218383787,7.510201641960144,18.794703218383788,6.512201641960144C19.12781321838379,5.6269116419601435,19.05900321838379,4.640461641960144,18.60620321838379,3.8100016419601443C18.14331321838379,2.942955641960144,17.325953218383788,2.320338641960144,16.36710321838379,2.104399641960144C14.621953218383789,1.595060641960144,12.779613218383789,2.519477641960144,12.144803218383789,4.223001641960144C11.640400218383789,5.774801641960144,12.585403218383789,7.338801641960144,13.40600321838379,8.330701641960143C11.697145218383788,9.296581641960145,10.763345218383789,11.218311641960144,11.060000418383789,13.158681641960143C11.36281221838379,15.344181641960144,13.22051321838379,16.978381641960144,15.426803218383789,16.999981641960144L15.43260321838379,16.999981641960144C16.888473218383787,17.042481641960144,18.306803218383788,16.534281641960142,19.404303218383788,15.576681641960144L20.53200321838379,16.999981641960144L23.08393321838379,16.999981641960144L20.69530321838379,13.985781641960145ZM14.04700321838379,4.841301641960144C14.26091321838379,4.284721641960144,14.82084321838379,3.940151641960144,15.41410321838379,4.000001641960144C15.58949321838379,4.000331641960145,15.76433321838379,4.019821641960144,15.93550321838379,4.058101641960144C16.32567321838379,4.151041641960144,16.65734321838379,4.406671641960144,16.84660321838379,4.760301641960144C17.02394321838379,5.079391641960144,17.05284321838379,5.460091641960144,16.925703218383788,5.802301641960144C16.550793218383788,6.500041641960144,15.961153218383789,7.058511641960144,15.244103218383788,7.395001641960144C14.583103218383789,6.681601641960144,13.808703218383789,5.573201641960145,14.04700321838379,4.841301641960144ZM15.431603218383788,14.999981641960144L15.42770321838379,14.999981641960144C14.20442321838379,14.982981641960144,13.182343218383789,14.063681641960144,13.03610321838379,12.849081641960144C12.859613218383789,11.541961641960144,13.61080321838379,10.286571641960144,14.846103218383789,9.824201641960144L18.15760321838379,14.002881641960144C17.41187321838379,14.674981641960144,16.43496321838379,15.032281641960145,15.431603218383788,14.999981641960144Z" fill="#000000" fill-opacity="1"/></g><g></g></g></svg>