<svg xmlns="http://www.w3.org/2000/svg" xmlns:xlink="http://www.w3.org/1999/xlink" fill="none" version="1.1" width="32" height="32" viewBox="0 0 32 32"><defs><clipPath id="master_svg0_134_10608"><rect x="0" y="0" width="32" height="32" rx="0"/></clipPath></defs><g clip-path="url(#master_svg0_134_10608)"><g><path d="M28.999997341308593,10L23.999997341308593,10L23.999997341308593,12L28.999997341308593,12L28.999997341308593,18L22.000000001308592,18L22.000000001308592,20L24.999997341308593,20L24.999997341308593,22.142C22.301819341308594,22.8387,21.125011341308593,26.0118,22.716432341308593,28.2993C24.307857341308594,30.5869,27.692147341308594,30.5869,29.283567341308594,28.2993C30.874987341308593,26.0118,29.698177341308593,22.8387,26.999997341308593,22.142L26.999997341308593,20L28.999997341308593,20C30.103957341308593,19.99851,30.99851734130859,19.103949999999998,30.999997341308593,18L30.999997341308593,12C30.998727341308594,10.895956,30.104047341308593,10.00126839,28.999997341308593,10ZM27.999997341308593,26C27.999997341308593,27.1046,27.104567341308595,28,25.999997341308593,28C24.895427341308594,28,23.999997341308593,27.1046,23.999997341308593,26C23.999997341308593,24.895400000000002,24.895427341308594,24,25.999997341308593,24C27.103957341308593,24.0015,27.998507341308596,24.896,27.999997341308593,26Z" fill="#000000" fill-opacity="1"/></g><g><path d="M18.99999829498291,6L13.99999829498291,6L13.99999829498291,8L18.99999829498291,8L18.99999829498291,14L12.00000000498291,14L12.00000000498291,16L14.99999829498291,16L14.99999829498291,22.142C12.30181929498291,22.8387,11.12501129498291,26.0118,12.71643229498291,28.2993C14.30785829498291,30.5869,17.69214829498291,30.5869,19.28356829498291,28.2993C20.87498829498291,26.0118,19.69817829498291,22.8387,16.99999829498291,22.142L16.99999829498291,16L18.99999829498291,16C20.10404829498291,15.99873,20.99873829498291,15.10404,20.99999829498291,14L20.99999829498291,8C20.99873829498291,6.895955,20.10404829498291,6.00126648,18.99999829498291,6ZM17.99999829498291,26C17.99999829498291,27.1046,17.10456829498291,28,15.999998294982909,28C14.89542829498291,28,13.99999829498291,27.1046,13.99999829498291,26C13.99999829498291,24.8954,14.89542829498291,24,15.999998294982909,24C17.10395829498291,24.0015,17.998518294982908,24.896,17.99999829498291,26Z" fill="#000000" fill-opacity="1"/></g><g><path d="M9,2L3,2C1.895887,2.00110245,1.00110233,2.895887,1,4L1,10C1.00110245,11.10411,1.895887,11.9989,3,12L5,12L5,22.142C2.30182,22.8387,1.125012,26.0118,2.71643,28.2993C4.30785,30.5869,7.69215,30.5869,9.28357,28.2993C10.87499,26.0118,9.69818,22.8387,7,22.142L7,12L9,12C10.10411,11.9989,10.9989,11.10411,11,10L11,4C10.9989,2.895887,10.10411,2.00110245,9,2ZM8,26C8,27.1046,7.10457,28,6,28C4.89543,28,4,27.1046,4,26C4,24.8954,4.89543,24,6,24C7.10404,24.0013,7.99873,24.896,8,26ZM3,10L3,4L9,4L9.0015,10L3,10Z" fill="#000000" fill-opacity="1"/></g><g></g></g></svg>