<svg xmlns="http://www.w3.org/2000/svg" xmlns:xlink="http://www.w3.org/1999/xlink" fill="none" version="1.1" width="32" height="32" viewBox="0 0 32 32"><defs><clipPath id="master_svg0_134_10602"><rect x="0" y="0" width="32" height="32" rx="0"/></clipPath></defs><g clip-path="url(#master_svg0_134_10602)"><g><path d="M21,10L17,10L17,6L15,6L15,10L11,10L11,12L15,12L15,16L17,16L17,12L21,12L21,10Z" fill="#000000" fill-opacity="1"/></g><g><path d="M28,24L17,24L17,20L23,20C24.104,19.9985,24.9985,19.104,25,18L25,4C24.9987,2.895955,24.104,2.00126648,23,2L9,2C7.89589,2.00110245,7.0011,2.895887,7,4L7,18C7.00127,19.104,7.89596,19.9987,9,20L15,20L15,24L4,24C2.895431,24,2,24.8954,2,26L2,30L4,30L4,26L15,26L15,30L17,30L17,26L28,26L28,30L30,30L30,26C30,24.8954,29.1046,24,28,24ZM9,4L23,4L23.002,18L9,18L9,4Z" fill="#000000" fill-opacity="1"/></g><g></g></g></svg>