<svg xmlns="http://www.w3.org/2000/svg" xmlns:xlink="http://www.w3.org/1999/xlink" fill="none" version="1.1" width="32" height="32" viewBox="0 0 32 32"><defs><clipPath id="master_svg0_134_10833"><rect x="0" y="0" width="32" height="32" rx="0"/></clipPath></defs><g clip-path="url(#master_svg0_134_10833)"><g><path d="M30,30L4,30C2.895431,30,2,29.1046,2,28L2,2L4,2L4,28L30,28L30,30Z" fill="#000000" fill-opacity="1"/></g><g><path d="M10,16C11.104569999999999,16,12,16.89543,12,18C12,19.10457,11.104569999999999,20,10,20C8.895430000000001,20,8,19.10457,8,18C8,16.89543,8.895430000000001,16,10,16ZM10,14C7.79086,14,6,15.79086,6,18C6,20.209139999999998,7.79086,22,10,22C12.20914,22,14,20.209139999999998,14,18C14,15.79086,12.20914,14,10,14Z" fill="#000000" fill-opacity="1"/></g><g><path d="M21,6C23.209139999999998,6,25,7.79086,25,10C25,12.20914,23.209139999999998,14,21,14C18.79086,14,17,12.20914,17,10C17,7.79086,18.79086,6,21,6ZM21,4C17.68629,4,15,6.68629,15,10C15,13.31371,17.68629,16,21,16C24.31371,16,27,13.31371,27,10C27,6.68629,24.31371,4,21,4Z" fill="#000000" fill-opacity="1"/></g><g><path d="M24.5,21C25.32843,21,26,21.67157,26,22.5C26,23.32843,25.32843,24,24.5,24C23.67157,24,23,23.32843,23,22.5C23,21.67157,23.67157,21,24.5,21ZM24.5,19C22.567,19,21,20.567,21,22.5C21,24.433,22.567,26,24.5,26C26.433,26,28,24.433,28,22.5C28,20.567,26.433,19,24.5,19Z" fill="#000000" fill-opacity="1"/></g><g></g></g></svg>