<svg xmlns="http://www.w3.org/2000/svg" xmlns:xlink="http://www.w3.org/1999/xlink" fill="none" version="1.1" width="32" height="32" viewBox="0 0 32 32"><defs><clipPath id="master_svg0_134_10700"><rect x="0" y="0" width="32" height="32" rx="0"/></clipPath></defs><g clip-path="url(#master_svg0_134_10700)"><g><g><path d="M19.5,22.5L19.5,21.5L22.5,21.5L22.5,10.5L19.5,10.5L19.5,9.5L23.5,9.5L23.5,21.5L26.5,21.5L26.5,22.5L19.5,22.5Z" fill="#FFFFFF" fill-opacity="1"/></g><g><path d="M23,10L23,22L23,10ZM24,9L19,9L19,11L22,11L22,21L19,21L19,23L27,23L27,21L24,21L24,9Z" fill="#000000" fill-opacity="1"/></g></g><g><rect x="5" y="21" width="10" height="2" rx="0" fill="#000000" fill-opacity="1"/></g><g><path d="M15,13L11,13L11,9L9,9L9,13L5,13L5,15L9,15L9,19L11,19L11,15L15,15L15,13Z" fill="#000000" fill-opacity="1"/></g><g></g></g></svg>