<svg xmlns="http://www.w3.org/2000/svg" xmlns:xlink="http://www.w3.org/1999/xlink" fill="none" version="1.1" width="32" height="32" viewBox="0 0 32 32"><defs><clipPath id="master_svg0_134_10986"><rect x="0" y="0" width="32" height="32" rx="0"/></clipPath></defs><g clip-path="url(#master_svg0_134_10986)"><g transform="matrix(0,-1,1,0,-8,40)"><rect x="16" y="24" width="2" height="2" rx="0" fill="#000000" fill-opacity="1"/></g><g><path d="M18,28L18,26L16,26L16,28L4,28L4,2L2,2L2,28C2,29.1046,2.895431,30,4,30L30,30L30,28L18,28Z" fill="#000000" fill-opacity="1"/></g><g><path d="M26.053200048828124,19.6787C25.601300048828126,21.000700000000002,24.394700048828124,21.918,23.000000048828124,22C20.830000048828126,22,19.688500048828125,18.667,18.480000048828124,15.1377C18.124300048828125,14.0991,17.756100048828124,13.0283,17.341800048828127,12L18.000000048828127,12L18.000000048828127,10L16.422100048828124,10C15.212400048828124,7.7148,13.581100048828125,6,11.000000048828124,6C7.321800048828125,6,6.101600148828125,9.5332,6.051300048828125,9.6836L7.946800048828125,10.3213C8.398730048828124,8.99932,9.605320048828125,8.08198,11.000000048828124,8C13.920000048828125,8,15.276400048828124,11.958,16.587400048828123,15.7861C16.841800048828127,16.5283,17.097900048828123,17.275399999999998,17.368700048828124,18L16.000000048828127,18L16.000000048828127,20L18.201900048828126,20C19.284700048828125,22.2886,20.697800048828125,24,23.000000048828124,24C26.678200048828124,24,27.898400048828126,20.4668,27.948700048828126,20.3164L26.053200048828124,19.6787Z" fill="#000000" fill-opacity="1"/></g><g transform="matrix(0,-1,1,0,8,24)"><rect x="16" y="8" width="2" height="2" rx="0" fill="#000000" fill-opacity="1"/></g><g transform="matrix(0,-1,1,0,12,20)"><rect x="16" y="4" width="2" height="2" rx="0" fill="#000000" fill-opacity="1"/></g><g></g></g></svg>