<svg xmlns="http://www.w3.org/2000/svg" xmlns:xlink="http://www.w3.org/1999/xlink" fill="none" version="1.1" width="32" height="32" viewBox="0 0 32 32"><defs><clipPath id="master_svg0_134_10809"><rect x="0" y="0" width="32" height="32" rx="0"/></clipPath></defs><g clip-path="url(#master_svg0_134_10809)"><g><path d="M28,24L14,24L14,16L28,16L28,24ZM16,22L26,22L26,18L16,18L16,22Z" fill="#000000" fill-opacity="1"/></g><g><path d="M26,12L8,12L8,4L26,4L26,12ZM10,10L24,10L24,6L10,6L10,10Z" fill="#000000" fill-opacity="1"/></g><g><path d="M30,30L4,30C2.895956,29.9987,2.00126839,29.104,2,28L2,2L4,2L4,28L30,28L30,30Z" fill="#000000" fill-opacity="1"/></g><g></g></g></svg>