<svg xmlns="http://www.w3.org/2000/svg" xmlns:xlink="http://www.w3.org/1999/xlink" fill="none" version="1.1" width="32" height="32" viewBox="0 0 32 32"><defs><clipPath id="master_svg0_134_11076"><rect x="0" y="0" width="32" height="32" rx="0"/></clipPath></defs><g clip-path="url(#master_svg0_134_11076)"><g><path d="M26.000047786331177,6.000004931335449C24.181147786331177,6.005564931335449,22.595547786331178,7.23859493133545,22.142147786331176,9.00000493133545L17.930547786331175,9.00000493133545C17.41224778633118,4.874074931335449,13.818147786331176,1.8339779313354492,9.663417786331177,2.0071678113354494C5.508667786331177,2.180357931335449,2.1800797863311767,5.50902493133545,2.0069832763311766,9.66376493133545C1.8338877863311767,13.81852493133545,4.874057786331177,17.412524931335447,8.999997786331177,17.930724931335448L8.999997786331177,22.14212493133545C6.301817786331177,22.83872493133545,5.125007786331176,26.01182493133545,6.716437786331177,28.299424931335448C8.307857786331176,30.58692493133545,11.692147786331176,30.58692493133545,13.283547786331177,28.299424931335448C14.874947786331177,26.01182493133545,13.698147786331177,22.83872493133545,10.999997786331177,22.14212493133545L10.999997786331177,17.930724931335448C12.421347786331177,17.75192493133545,13.767947786331177,17.19252493133545,14.897647786331177,16.31152493133545L18.566947786331177,19.98152493133545C18.199647786331177,20.59102493133545,18.00384778633118,21.28842493133545,18.000047786331177,22.00002493133545C18.000047786331177,24.20912493133545,19.790847786331177,26.00002493133545,22.000047786331177,26.00002493133545C24.209147786331176,26.00002493133545,26.000047786331177,24.20912493133545,26.000047786331177,22.00002493133545C26.000047786331177,19.79082493133545,24.209147786331176,18.00002493133545,22.000047786331177,18.00002493133545C21.288247786331176,18.003724931335448,20.590647786331175,18.19952493133545,19.981047786331178,18.56692493133545L16.31164778633118,14.897524931335449C17.192547786331176,13.767924931335449,17.751847786331176,12.42132493133545,17.930547786331175,11.000004931335448L22.142147786331176,11.000004931335448C22.665147786331175,13.008024931335449,24.638847786331176,14.280824931335449,26.683847786331178,13.92892493133545C28.728747786331176,13.57702493133545,30.163447786331176,11.71758493133545,29.985147786331176,9.65025493133545C29.806847786331176,7.582924931335449,28.075047786331176,5.99659493133545,26.000047786331177,6.000004931335449ZM12.000047786331177,26.00002493133545C12.000047786331177,27.104524931335447,11.104567786331177,28.00002493133545,9.999997786331177,28.00002493133545C8.895427786331176,28.00002493133545,7.999997786331177,27.104524931335447,7.999997786331177,26.00002493133545C7.999997786331177,24.895424931335448,8.895427786331176,24.00002493133545,9.999997786331177,24.00002493133545C11.104047786331178,24.00122493133545,11.998737786331176,24.89592493133545,12.000047786331177,26.00002493133545ZM9.999997786331177,16.00002493133545C6.686287786331177,16.00002493133545,3.9999977863311766,13.313724931335448,3.9999977863311766,10.00000493133545C3.9999977863311766,6.686294931335449,6.686287786331177,4.000004931335449,9.999997786331177,4.000004931335449C13.313747786331177,4.000004931335449,16.000047786331177,6.686294931335449,16.000047786331177,10.00000493133545C15.996347786331176,13.312224931335448,13.312247786331177,15.99632493133545,9.999997786331177,16.00002493133545ZM24.000047786331177,22.00002493133545C24.000047786331177,23.104524931335447,23.104547786331178,24.00002493133545,22.000047786331177,24.00002493133545C20.895447786331175,24.00002493133545,20.000047786331177,23.104524931335447,20.000047786331177,22.00002493133545C20.000047786331177,20.895424931335448,20.895447786331175,20.00002493133545,22.000047786331177,20.00002493133545C23.104047786331176,20.00122493133545,23.998747786331176,20.89592493133545,24.000047786331177,22.00002493133545ZM26.000047786331177,12.000004931335448C24.895447786331175,12.000004931335448,24.000047786331177,11.10456493133545,24.000047786331177,10.00000493133545C24.000047786331177,8.89543493133545,24.895447786331175,8.00000493133545,26.000047786331177,8.00000493133545C27.104547786331178,8.00000493133545,28.000047786331177,8.89543493133545,28.000047786331177,10.00000493133545C27.998747786331176,11.10404493133545,27.104047786331176,11.998734931335449,26.000047786331177,12.000004931335448Z" fill="#000000" fill-opacity="1"/></g><g></g></g></svg>