<svg xmlns="http://www.w3.org/2000/svg" xmlns:xlink="http://www.w3.org/1999/xlink" fill="none" version="1.1" width="32" height="32" viewBox="0 0 32 32"><defs><clipPath id="master_svg0_134_10860"><rect x="0" y="0" width="32" height="32" rx="0"/></clipPath></defs><g clip-path="url(#master_svg0_134_10860)"><g><path d="M30,30L4,30C2.895431,30,2,29.1046,2,28L2,2L4,2L4,28L30,28L30,30Z" fill="#000000" fill-opacity="1"/></g><g><rect x="10" y="16" width="2" height="10" rx="0" fill="#000000" fill-opacity="1"/></g><g><rect x="7" y="22" width="2" height="4" rx="0" fill="#000000" fill-opacity="1"/></g><g><rect x="26" y="8" width="2" height="18" rx="0" fill="#000000" fill-opacity="1"/></g><g><rect x="23" y="14" width="2" height="12" rx="0" fill="#000000" fill-opacity="1"/></g><g transform="matrix(-1,-1.2246468525851679e-16,1.2246468525851679e-16,-1,34,52)"><rect x="17" y="26" width="2" height="14" rx="0" fill="#000000" fill-opacity="1"/></g><g transform="matrix(-1,-1.2246468525851679e-16,1.2246468525851679e-16,-1,40,52)"><rect x="20" y="26" width="2" height="8" rx="0" fill="#000000" fill-opacity="1"/></g><g></g></g></svg>