<svg xmlns="http://www.w3.org/2000/svg" xmlns:xlink="http://www.w3.org/1999/xlink" fill="none" version="1.1" width="32" height="32" viewBox="0 0 32 32"><defs><clipPath id="master_svg0_134_10916"><rect x="0" y="0" width="32" height="32" rx="0"/></clipPath></defs><g clip-path="url(#master_svg0_134_10916)"><g><path d="M22,28L22,12L18,12L18,8L20,8L20,6L14,6L14,8L16,8L16,12L12,12L12,28L4,28L4,2L2,2L2,28C2,29.1046,2.895431,30,4,30L30,30L30,28L22,28ZM14,14L16,14L16,18L14,18L14,14ZM20,28L14,28L14,20L20,20L20,28ZM20,18L18,18L18,14L20,14L20,18Z" fill="#000000" fill-opacity="1"/></g><g></g></g></svg>