<svg xmlns="http://www.w3.org/2000/svg" xmlns:xlink="http://www.w3.org/1999/xlink" fill="none" version="1.1" width="32" height="32" viewBox="0 0 32 32"><defs><clipPath id="master_svg0_134_10962"><rect x="0" y="0" width="32" height="32" rx="0"/></clipPath></defs><g clip-path="url(#master_svg0_134_10962)"><g><ellipse cx="26" cy="22" rx="2" ry="2" fill="#000000" fill-opacity="1"/></g><g><ellipse cx="20" cy="22" rx="2" ry="2" fill="#000000" fill-opacity="1"/></g><g><ellipse cx="14" cy="6" rx="2" ry="2" fill="#000000" fill-opacity="1"/></g><g><ellipse cx="8" cy="6" rx="2" ry="2" fill="#000000" fill-opacity="1"/></g><g><path d="M8.2339,24C12.1138,24,15.5449,21.5269,16.772199999999998,17.8457L19.1252,10.7866C20.0795,7.9238,22.7485,6,25.7661,6L30,6L30,4L25.7661,4C21.8862,4,18.4551,6.4731,17.227800000000002,10.1543L14.8748,17.2134C13.9205,20.0762,11.2515,22,8.2339,22L4,22L4,2L2,2L2,28C2,29.1025,2.8970000000000002,30,4,30L30,30L30,28L4,28L4,24L8.2339,24Z" fill="#000000" fill-opacity="1"/></g><g></g></g></svg>