<svg xmlns="http://www.w3.org/2000/svg" xmlns:xlink="http://www.w3.org/1999/xlink" fill="none" version="1.1" width="32" height="32" viewBox="0 0 32 32"><defs><clipPath id="master_svg0_134_10952"><rect x="0" y="0" width="32" height="32" rx="0"/></clipPath></defs><g clip-path="url(#master_svg0_134_10952)"><g><path d="M10.06,17.880000000000003C10.36788,17.954900000000002,10.68317,17.9952,11,18C11.79436,17.9998,12.5707,17.7631,13.23,17.32L16.45,20.19C15.9341,21.1697,15.8613,22.3232,16.25,23.36C17.1156,25.8505,20.1118,26.8369,22.2876,25.3477C24.4634,23.8584,24.6283,20.7083,22.62,19L25.16,13.91C26.1617,14.1359,27.2123,13.9446,28.07,13.38C30.0965,12.1433,30.6061,9.42395,29.1649,7.5374C27.7237,5.6508400000000005,24.9661,5.42741,23.24,7.05734C21.5139,8.687280000000001,21.5791,11.45316,23.38,13L20.84,18.09C20.5641,18.0294,20.2824,17.999200000000002,20,18C19.2056,18.0002,18.4293,18.2369,17.77,18.68L14.55,15.81C15.0659,14.8303,15.1387,13.6768,14.75,12.64C13.8917,10.17023,10.93351,9.17445,8.75643,10.62246C6.57934,12.0705,6.35407,15.1836,8.3,16.93L4,25L4,2L2,2L2,28C2,29.1046,2.895431,30,4,30L30,30L30,28L4.67,28L10.06,17.880000000000003ZM26,8C27.1046,8,28,8.895430000000001,28,10C28,11.10457,27.1046,12,26,12C24.8954,12,24,11.10457,24,10C24,8.895430000000001,24.8954,8,26,8ZM22,22C22,23.1046,21.1046,24,20,24C18.8954,24,18,23.1046,18,22C18,20.8954,18.8954,20,20,20C21.1046,20,22,20.8954,22,22ZM11,12C12.1046,12,13,12.8954,13,14C13,15.1046,12.1046,16,11,16C9.895430000000001,16,9,15.1046,9,14C9,12.8954,9.895430000000001,12,11,12Z" fill="#000000" fill-opacity="1"/></g><g></g></g></svg>