<svg xmlns="http://www.w3.org/2000/svg" xmlns:xlink="http://www.w3.org/1999/xlink" fill="none" version="1.1" width="32" height="32" viewBox="0 0 32 32"><defs><clipPath id="master_svg0_134_11131"><rect x="0" y="0" width="32" height="32" rx="0"/></clipPath></defs><g clip-path="url(#master_svg0_134_11131)"><g><ellipse cx="10" cy="20" rx="2" ry="2" fill="#000000" fill-opacity="1"/></g><g><ellipse cx="10" cy="28" rx="2" ry="2" fill="#000000" fill-opacity="1"/></g><g><ellipse cx="10" cy="14" rx="2" ry="2" fill="#000000" fill-opacity="1"/></g><g><ellipse cx="28" cy="4" rx="2" ry="2" fill="#000000" fill-opacity="1"/></g><g><ellipse cx="22" cy="6" rx="2" ry="2" fill="#000000" fill-opacity="1"/></g><g><ellipse cx="28" cy="10" rx="2" ry="2" fill="#000000" fill-opacity="1"/></g><g><ellipse cx="20" cy="12" rx="2" ry="2" fill="#000000" fill-opacity="1"/></g><g><ellipse cx="28" cy="22" rx="2" ry="2" fill="#000000" fill-opacity="1"/></g><g><ellipse cx="26" cy="28" rx="2" ry="2" fill="#000000" fill-opacity="1"/></g><g><ellipse cx="20" cy="26" rx="2" ry="2" fill="#000000" fill-opacity="1"/></g><g><ellipse cx="22" cy="20" rx="2" ry="2" fill="#000000" fill-opacity="1"/></g><g><ellipse cx="16" cy="4" rx="2" ry="2" fill="#000000" fill-opacity="1"/></g><g><ellipse cx="4" cy="24" rx="2" ry="2" fill="#000000" fill-opacity="1"/></g><g><ellipse cx="4" cy="16" rx="2" ry="2" fill="#000000" fill-opacity="1"/></g><g></g></g></svg>