<svg xmlns="http://www.w3.org/2000/svg" xmlns:xlink="http://www.w3.org/1999/xlink" fill="none" version="1.1" width="32" height="32" viewBox="0 0 32 32"><defs><clipPath id="master_svg0_134_10804"><rect x="0" y="0" width="32" height="32" rx="0"/></clipPath></defs><g clip-path="url(#master_svg0_134_10804)"><g><path d="M4,2L2,2L2,28C2,29.1046,2.895431,30,4,30L30,30L30,28L4,28L4,25L26,25L26,17L4,17L4,13L18,13L18,5L4,5L4,2ZM24,19L24,23L4,23L4,19L24,19ZM16,7L16,11L4,11L4,7L16,7Z" fill="#000000" fill-opacity="1"/></g><g></g></g></svg>