<svg xmlns="http://www.w3.org/2000/svg" xmlns:xlink="http://www.w3.org/1999/xlink" fill="none" version="1.1" width="32" height="32" viewBox="0 0 32 32"><defs><clipPath id="master_svg0_134_10921"><rect x="0" y="0" width="32" height="32" rx="0"/></clipPath></defs><g clip-path="url(#master_svg0_134_10921)"><g><path d="M13.999996594238281,10L13.999996594238281,8L8.00000000003828,8L8.00000000003828,10L9.999996594238281,10L9.999996594238281,14.1836C8.80227459423828,14.60162,7.999946594238281,15.73142,7.999946594238281,17C7.999947071075281,18.2686,8.80227459423828,19.398400000000002,9.999996594238281,19.8164L9.999996594238281,24L8.00000000003828,24L8.00000000003828,26L13.999996594238281,26L13.999996594238281,24L11.999996594238281,24L11.999996594238281,19.8164C13.197726594238281,19.398400000000002,14.00005659423828,18.2686,14.00005659423828,17C14.00005659423828,15.73142,13.197726594238281,14.60161,11.999996594238281,14.1836L11.999996594238281,10L13.999996594238281,10Z" fill="#000000" fill-opacity="1"/></g><g><path d="M26.00000468688965,6L26.00000468688965,4L19.999999999989647,4L19.999999999989647,6L22.00000468688965,6L22.00000468688965,8.1836C20.802272686889648,8.60162,19.99994468688965,9.73142,19.99994468688965,11C19.99994468688965,12.26858,20.802272686889648,13.39839,22.00000468688965,13.8164L22.00000468688965,18L19.999999999989647,18L19.999999999989647,20L26.00000468688965,20L26.00000468688965,18L24.00000468688965,18L24.00000468688965,13.8164C25.19772468688965,13.39839,26.000054686889648,12.26858,26.000054686889648,11C26.000054686889648,9.73142,25.19772468688965,8.60161,24.00000468688965,8.1836L24.00000468688965,6L26.00000468688965,6Z" fill="#000000" fill-opacity="1"/></g><g><path d="M30,30L4,30C2.895431,30,2,29.1046,2,28L2,2L4,2L4,28L30,28L30,30Z" fill="#000000" fill-opacity="1"/></g><g></g></g></svg>