<svg xmlns="http://www.w3.org/2000/svg" xmlns:xlink="http://www.w3.org/1999/xlink" fill="none" version="1.1" width="32" height="32" viewBox="0 0 32 32"><defs><clipPath id="master_svg0_134_10871"><rect x="0" y="0" width="32" height="32" rx="0"/></clipPath></defs><g clip-path="url(#master_svg0_134_10871)"><g><path d="M27,28L27,6L19,6L19,28L15,28L15,14L7,14L7,28L4,28L4,2L2,2L2,28C2,29.1046,2.895431,30,4,30L30,30L30,28L27,28ZM13,28L9,28L9,16L13,16L13,28ZM25,28L21,28L21,8L25,8L25,28Z" fill="#000000" fill-opacity="1"/></g><g></g></g></svg>