<svg xmlns="http://www.w3.org/2000/svg" xmlns:xlink="http://www.w3.org/1999/xlink" fill="none" version="1.1" width="32" height="32" viewBox="0 0 32 32"><defs><clipPath id="master_svg0_134_11025"><rect x="0" y="0" width="32" height="32" rx="0"/></clipPath></defs><g clip-path="url(#master_svg0_134_11025)"><g><path d="M26.00003734741211,14C27.10453734741211,14,28.00003734741211,13.10457,28.00003734741211,12L28.00003734741211,6C28.00003734741211,4.895431,27.10453734741211,4,26.00003734741211,4L20.00003734741211,4C18.89543734741211,4,18.00003734741211,4.895431,18.00003734741211,6L18.00003734741211,12C18.00003734741211,13.10457,18.89543734741211,14,20.00003734741211,14L22.00003734741211,14L22.00003734741211,18.1C20.03573734741211,18.5006,18.50063734741211,20.0357,18.100037347412112,22L14.000037347412109,22L14.000037347412109,20C14.000037347412109,18.895400000000002,13.10456734741211,18,11.99999734741211,18L9.999997347412108,18L9.999997347412108,13.9C13.484407347412109,13.18875,15.133437347412109,9.16985,13.15270734741211,6.2162299999999995C11.172017347412108,3.262616,6.8279773474121095,3.262616,4.8472943474121095,6.2162299999999995C2.8666073474121094,9.16985,4.515595347412109,13.18875,7.999997347412109,13.9L7.999997347412109,18L5.999997347412109,18C4.895430347412109,18,3.999999997412109,18.895400000000002,3.999999997412109,20L3.999999997412109,26C3.999999997412109,27.1046,4.895430347412109,28,5.999997347412109,28L11.99999734741211,28C13.10456734741211,28,14.000037347412109,27.1046,14.000037347412109,26L14.000037347412109,24L18.100037347412112,24C18.60113734741211,26.4518,20.83763734741211,28.1555,23.33453734741211,27.9874C25.83133734741211,27.8194,27.81933734741211,25.8313,27.987437347412108,23.3345C28.15543734741211,20.8377,26.45173734741211,18.601100000000002,24.00003734741211,18.1L24.00003734741211,14L26.00003734741211,14ZM5.999997347412109,9C5.999997347412109,7.34315,7.34314734741211,6,8.999997347412108,6C10.65685734741211,6,11.99999734741211,7.34315,11.99999734741211,9C11.99999734741211,10.65685,10.65685734741211,12,8.999997347412108,12C7.34314734741211,12,5.999997347412109,10.65685,5.999997347412109,9ZM11.99999734741211,26L5.999997347412109,26L5.999997347412109,20L11.99999734741211,20L11.99999734741211,26ZM26.00003734741211,23C26.00003734741211,24.6569,24.65683734741211,26,23.00003734741211,26C21.34313734741211,26,20.00003734741211,24.6569,20.00003734741211,23C20.00003734741211,21.3431,21.34313734741211,20,23.00003734741211,20C24.65683734741211,20,26.00003734741211,21.3431,26.00003734741211,23ZM20.00003734741211,6L26.00003734741211,6L26.00003734741211,12L20.00003734741211,12L20.00003734741211,6Z" fill="#000000" fill-opacity="1"/></g><g></g></g></svg>