<svg xmlns="http://www.w3.org/2000/svg" xmlns:xlink="http://www.w3.org/1999/xlink" fill="none" version="1.1" width="32" height="32" viewBox="0 0 32 32"><defs><clipPath id="master_svg0_134_10841"><rect x="0" y="0" width="32" height="32" rx="0"/></clipPath></defs><g clip-path="url(#master_svg0_134_10841)"><g><path d="M27.53218512458801,17.172351706695558C31.127885124588012,13.369151706695556,30.72728512458801,7.310401706695557,26.662085124588014,4.013731706695557C22.596885124588013,0.7170617066955567,16.586085124588013,1.5763617066955566,13.607385124588014,5.880001706695557C12.137885124588013,1.9882386066955566,7.249105124588013,0.7383017066955566,4.092035124588013,3.447181706695557C0.9349651245880126,6.156071706695557,1.4276621245880126,11.178031706695556,5.050995124588013,13.221651706695557C1.8386371245880127,15.414251706695557,1.0309191245880127,19.805851706695556,3.252905124588013,22.997851706695556C5.474885124588013,26.189951706695556,9.873665124588012,26.957351706695558,13.045185124588013,24.706051706695558C13.417785124588013,27.860451706695557,16.18478512458801,30.177551706695557,19.355585124588014,29.990251706695556C22.526285124588014,29.802951706695556,25.001385124588012,27.176351706695556,24.99998512458801,23.99995170669556C24.99998512458801,23.878351706695558,24.988985124588012,23.759951706695556,24.98188512458801,23.640551706695557C26.809885124588014,24.534451706695556,29.011785124588013,23.67985170669556,29.758085124588014,21.786751706695558C30.504385124588012,19.893751706695557,29.478085124588013,17.766451706695555,27.53218512458801,17.172351706695558L27.53218512458801,17.172351706695558ZM20.99998512458801,4.000001706695556C24.86598512458801,4.000001706695556,27.99998512458801,7.134001706695557,27.99998512458801,11.000001706695556C27.99998512458801,14.865951706695556,24.86598512458801,17.99995170669556,20.99998512458801,17.99995170669556C17.133985124588012,17.99995170669556,13.999985124588013,14.865951706695556,13.999985124588013,11.000001706695556C14.004285124588012,7.1357917066955565,17.13578512458801,4.004301706695557,20.99998512458801,4.000001706695556ZM8.000005124588013,4.000001706695556C10.209135124588013,4.000001706695556,11.999985124588013,5.790861706695557,11.999985124588013,8.000001706695556C11.999985124588013,10.209141706695556,10.209135124588013,11.999951706695557,8.000005124588013,11.999951706695557C5.790865124588013,11.999951706695557,3.9999951245880125,10.209141706695556,3.9999951245880125,8.000001706695556C4.002475124588013,5.791891706695557,5.7918851245880125,4.002481706695557,8.000005124588013,4.000001706695556ZM18.99998512458801,27.99995170669556C16.790885124588012,27.99995170669556,14.999985124588013,26.209151706695557,14.999985124588013,23.99995170669556C14.999985124588013,21.790851706695555,16.790885124588012,19.99995170669556,18.99998512458801,19.99995170669556C21.209185124588014,19.99995170669556,22.99998512458801,21.790851706695555,22.99998512458801,23.99995170669556C22.997485124588014,26.208151706695556,21.208085124588013,27.997551706695557,18.99998512458801,27.99995170669556Z" fill="#000000" fill-opacity="1"/></g><g></g></g></svg>