<svg xmlns="http://www.w3.org/2000/svg" xmlns:xlink="http://www.w3.org/1999/xlink" fill="none" version="1.1" width="32" height="32" viewBox="0 0 32 32"><defs><clipPath id="master_svg0_134_11081"><rect x="0" y="0" width="32" height="32" rx="0"/></clipPath></defs><g clip-path="url(#master_svg0_134_11081)"><g><path d="M16,2C8.26801,2,2,8.26801,2,16C2,23.732,8.26801,30,16,30C23.732,30,30,23.732,30,16C29.9913,8.27162,23.7284,2.00870943,16,2ZM27.9493,15.001L21.91,15.001C21.1837,10.6341,16.130699999999997,8.54122,12.5294,11.1157L8.2594,6.8457C11.68324,3.93938,16.4452,3.19245,20.5944,4.910909999999999C24.7437,6.62936,27.583,10.52443,27.9493,15.001L27.9493,15.001ZM16,20C13.7909,20,12,18.2091,12,16C12,13.7909,13.7909,12,16,12C18.2091,12,20,13.7909,20,16C19.9975,18.2081,18.2081,19.9975,16,20ZM4,16C3.99891,13.1639,5.00764,10.42005,6.8455,8.26L11.1155,12.5295C8.542010000000001,16.1308,10.63395,21.1828,15,21.9106L15,27.9506C8.78727,27.426,4.00899,22.2348,4,16ZM17,27.95L17,21.91C19.5127,21.4809,21.4809,19.5127,21.91,17L27.95,17C27.4553,22.8303,22.8303,27.4553,17,27.95Z" fill="#000000" fill-opacity="1"/></g><g></g></g></svg>