<svg xmlns="http://www.w3.org/2000/svg" xmlns:xlink="http://www.w3.org/1999/xlink" fill="none" version="1.1" width="32" height="32" viewBox="0 0 32 32"><defs><clipPath id="master_svg0_134_11179"><rect x="0" y="0" width="32" height="32" rx="0"/></clipPath></defs><g clip-path="url(#master_svg0_134_11179)"><g><path d="M15.999999816894531,18.99999980316162C13.653849816894532,19.00196980316162,11.46313981689453,17.826919803161623,10.166999816894531,15.871299803161621L11.832999816894532,14.763899803161621C13.811049816894531,17.74533980316162,18.18894981689453,17.74533980316162,20.16699981689453,14.763899803161621L21.83299981689453,15.871299803161621C20.536899816894532,17.826919803161623,18.34615981689453,19.00196980316162,15.999999816894531,18.99999980316162Z" fill="#000000" fill-opacity="1"/></g><g><path d="M20,8.00000000004541C18.89543,8.00000000004541,18,8.89543077154541,18,10.00000177154541C18,11.10457177154541,18.89543,12.00000177154541,20,12.00000177154541C21.10457,12.00000177154541,22,11.10457177154541,22,10.00000177154541C22.01092,8.89094077154541,21.10906,7.98908327154541,20,8.00000000004541Z" fill="#000000" fill-opacity="1"/></g><g><path d="M12,7.999999999994043C10.895431,7.999999999994043,10,8.895430678894042,10,10.000003678894043C10,11.104573678894043,10.895431,12.000003678894043,12,12.000003678894043C13.104569999999999,12.000003678894043,14,11.104573678894043,14,10.000003678894043C14.010919999999999,8.890939678894043,13.10906,7.9890818788940425,12,7.999999999994043Z" fill="#000000" fill-opacity="1"/></g><g><path d="M17.73579976158142,29.99999976158142L15.999999761581421,28.99999976158142L19.99999976158142,21.99999976158142L25.99999976158142,21.99999976158142C27.10529976158142,22.00189976158142,28.00189976158142,21.10529976158142,27.99999976158142,19.99999976158142L27.99999976158142,5.999999761581421C28.00189976158142,4.894649761581421,27.10539976158142,3.998119761581421,25.99999976158142,3.999999761581421L5.999999761581421,3.999999761581421C4.894649761581421,3.998119761581421,3.998119761581421,4.894649761581421,3.999999761581421,5.999999761581421L3.999999761581421,19.99999976158142C3.998119761581421,21.10529976158142,4.894649761581421,22.00189976158142,5.999999761581421,21.99999976158142L14.999999761581421,21.99999976158142L14.999999761581421,23.99999976158142L5.999999761581421,23.99999976158142C3.791089761581421,24.000799761581423,1.999999880790421,22.209699761581422,2.000000000000421,19.99999976158142L2.000000000000421,5.999999761581421C1.999337077581421,3.790589761581421,3.790589761581421,1.999336242581421,5.999999761581421,2.000000000000421L25.99999976158142,2.000000000000421C28.20939976158142,1.9993375535814208,30.00069976158142,3.790589761581421,29.99999976158142,5.999999761581421L29.99999976158142,19.99999976158142C30.000799761581423,22.20889976158142,28.209699761581422,23.99999976158142,25.99999976158142,23.99999976158142L21.16459976158142,23.99999976158142L17.73579976158142,29.99999976158142Z" fill="#000000" fill-opacity="1"/></g><g></g></g></svg>