<svg xmlns="http://www.w3.org/2000/svg" xmlns:xlink="http://www.w3.org/1999/xlink" fill="none" version="1.1" width="20" height="20" viewBox="0 0 20 20"><defs><clipPath id="master_svg0_134_08853"><rect x="0" y="0" width="20" height="20" rx="0"/></clipPath></defs><g clip-path="url(#master_svg0_134_08853)"><g></g><g><path d="M10,1C5.1,1,1,5.1,1,10C1,14.9,5.1,19,10,19C14.9,19,19,15,19,10C19,5,15,1,10,1ZM8.7,13.5L5.5,10.3L6.5,9.3L8.7,11.5L13.5,6.7L14.5,7.7L8.7,13.5Z" fill="#000000" fill-opacity="1"/></g><g style="opacity:0;"><path d="M8.7,13.499999809265137L5.5,10.299999809265136L6.5,9.299999809265136L8.7,11.499999809265137L13.5,6.699999809265137L14.5,7.699999809265137L8.7,13.499999809265137Z" fill="#000000" fill-opacity="1"/></g></g></svg>