<svg xmlns="http://www.w3.org/2000/svg" xmlns:xlink="http://www.w3.org/1999/xlink" fill="none" version="1.1" width="32" height="32" viewBox="0 0 32 32"><defs><clipPath id="master_svg0_134_11464"><rect x="0" y="0" width="32" height="32" rx="0"/></clipPath></defs><g clip-path="url(#master_svg0_134_11464)"><g><ellipse cx="28" cy="10" rx="2" ry="2" fill="#000000" fill-opacity="1"/></g><g><path d="M18,29L11,29L11,27L18,27C22.962600000000002,27,27,22.962600000000002,27,18L27,14L29,14L29,18C29,24.0654,24.0654,29,18,29Z" fill="#000000" fill-opacity="1"/></g><g><path d="M16,21C13.2429,21,11,18.7571,11,16C11,13.2429,13.2429,11,16,11C18.7571,11,21,13.2429,21,16C21,18.7571,18.7571,21,16,21ZM16,13C14.3457,13,13,14.3457,13,16C13,17.6543,14.3457,19,16,19C17.6543,19,19,17.6543,19,16C19,14.3457,17.6543,13,16,13Z" fill="#000000" fill-opacity="1"/></g><g><ellipse cx="4" cy="22" rx="2" ry="2" fill="#000000" fill-opacity="1"/></g><g><path d="M5,18L3,18L3,14C3,7.9346,7.9346,3,14,3L21,3L21,5L14,5C9.0374,5,5,9.0374,5,14L5,18Z" fill="#000000" fill-opacity="1"/></g><g></g></g></svg>