<svg xmlns="http://www.w3.org/2000/svg" xmlns:xlink="http://www.w3.org/1999/xlink" fill="none" version="1.1" width="32" height="32" viewBox="0 0 32 32"><defs><clipPath id="master_svg0_134_11385"><rect x="0" y="0" width="32" height="32" rx="0"/></clipPath></defs><g clip-path="url(#master_svg0_134_11385)"><g><path d="M24,16L19.4,14.6L21.7,10.3L17.4,12.6L16,8L14.6,12.6L10.3,10.3L12.6,14.6L8,16L12.6,17.4L10.3,21.7L14.6,19.4L16,24L17.4,19.4L21.7,21.7L19.4,17.4L24,16Z" fill="#000000" fill-opacity="1"/></g><g><path d="M16,30C8.26801,30,2,23.732,2,16C2,8.26801,8.26801,2,16,2C23.732,2,30,8.26801,30,16C29.9913,23.7284,23.7284,29.9913,16,30ZM16,4C9.37258,4,4,9.37258,4,16C4,22.6274,9.37258,28,16,28C22.6274,28,28,22.6274,28,16C27.9925,9.37571,22.6243,4.00755,16,4Z" fill="#000000" fill-opacity="1"/></g><g></g></g></svg>