<svg xmlns="http://www.w3.org/2000/svg" xmlns:xlink="http://www.w3.org/1999/xlink" fill="none" version="1.1" width="32" height="32" viewBox="0 0 32 32"><defs><clipPath id="master_svg0_134_11473"><rect x="0" y="0" width="32" height="32" rx="0"/></clipPath></defs><g clip-path="url(#master_svg0_134_11473)"><g><path d="M22,22L24,22L24,28L22,28L22,30L28,30L28,28L26,28L26,22L28,22L28,20L22,20L22,22Z" fill="#000000" fill-opacity="1"/></g><g><path d="M18,28L16,28L16,20L14,20L14,28.6C14.0287189,29.400309999999998,14.699614,30.0265,15.5,30L18.5,30C19.30039,30.0265,19.97128,29.400309999999998,20,28.6L20,20L18,20L18,28Z" fill="#000000" fill-opacity="1"/></g><g><path d="M10.2,20L10,28.5L9,22L7,22L6,28.5L5.8,20L4,20L4.72,30L7,30L8,23.5L9,30L11.280000000000001,30L12,20L10.2,20Z" fill="#000000" fill-opacity="1"/></g><g><path d="M16,11L13,11L13,8L11,8L11,11L8,11L8,13L11,13L11,16L13,16L13,13L16,13L16,11Z" fill="#000000" fill-opacity="1"/></g><g><path d="M26,4L6,4C4.896775,4.00323963,4.00323963,4.896775,4,6L4,18L6,18L6,6L26,6L26,18L28,18L28,6C27.9968,4.896775,27.1032,4.00324011,26,4Z" fill="#000000" fill-opacity="1"/></g><g></g></g></svg>