<svg xmlns="http://www.w3.org/2000/svg" xmlns:xlink="http://www.w3.org/1999/xlink" fill="none" version="1.1" width="32" height="32" viewBox="0 0 32 32"><defs><clipPath id="master_svg0_134_11408"><rect x="0" y="0" width="32" height="32" rx="0"/></clipPath></defs><g clip-path="url(#master_svg0_134_11408)"><g><path d="M23.5,18L21,18.7L21,16L19,16L19,18.7L16.5,18L16,19.9L18.4,20.6L17,23L18.7,24L20,21.8L21.3,24L23,23L21.6,20.6L24,19.9L23.5,18Z" fill="#000000" fill-opacity="1"/></g><g><path d="M16,13L16,11L13,11L13,8L11,8L11,11L8,11L8,13L11,13L11,16L13,16L13,13L16,13Z" fill="#000000" fill-opacity="1"/></g><g><path d="M26,4L6,4C4.896775,4.00323963,4.00323963,4.896775,4,6L4,26C4.00324011,27.1032,4.896775,27.9968,6,28L26,28C27.1032,27.9968,27.9968,27.1032,28,26L28,6C27.9968,4.896775,27.1032,4.00324011,26,4ZM6,26L6,6L26,6L26,26L6,26Z" fill="#000000" fill-opacity="1"/></g><g></g></g></svg>