<svg xmlns="http://www.w3.org/2000/svg" xmlns:xlink="http://www.w3.org/1999/xlink" fill="none" version="1.1" width="32" height="32" viewBox="0 0 32 32"><defs><clipPath id="master_svg0_134_11507"><rect x="0" y="0" width="32" height="32" rx="0"/></clipPath></defs><g clip-path="url(#master_svg0_134_11507)"><g><path d="M16,2C8.26801,2,2,8.26801,2,16C2,23.732,8.26801,30,16,30C23.732,30,30,23.732,30,16C30,8.26801,23.732,2,16,2ZM23.5,9C25.433,9,27,10.567,27,12.5C27,14.433,25.433,16,23.5,16C21.567,16,20,14.433,20,12.5C20.0023,10.56794,21.5679,9.00226,23.5,9ZM23.9348,7.022C23.791,7.0107,23.6467,7,23.5,7C21.9159,6.99975,20.4091,7.68469,19.3677,8.8784C18.3648,6.52236,16.2961,4.7877,13.8013,4.2109000000000005C17.4327,3.51659,21.1801,4.55614,23.9348,7.022ZM16,28C13.7909,28,12,26.2091,12,24C12,21.7909,13.7909,20,16,20C18.2091,20,20,21.7909,20,24C19.9975,26.2081,18.2081,27.9975,16,28ZM12,18C8.68629,18,6,15.3137,6,12C6,8.68629,8.68629,6,12,6C15.3137,6,18,8.68629,18,12C17.996299999999998,15.3122,15.3122,17.996299999999998,12,18ZM4,16C4.00248,15.2622,4.07318,14.5261,4.2112,13.8013C5.013590000000001,17.264699999999998,8.00732,19.7818,11.5571,19.9775C9.87461,21.8209,9.51938,24.5177,10.6671,26.7339C6.58877,24.71,4.00666,20.5529,4,16ZM21.3325,26.7339C23.1654,23.1861,21.0748,18.8726,17.1543,18.1133C17.9371,17.4535,18.5863,16.65,19.0669,15.7461C21.2798,18.7797,25.8172,18.7451,27.9836,15.6782C27.9866,15.7861,28,15.8916,28,16C27.9933,20.553,25.411,24.7101,21.3325,26.7339Z" fill="#000000" fill-opacity="1"/></g><g></g></g></svg>