<svg xmlns="http://www.w3.org/2000/svg" xmlns:xlink="http://www.w3.org/1999/xlink" fill="none" version="1.1" width="32" height="32" viewBox="0 0 32 32"><defs><clipPath id="master_svg0_134_11545"><rect x="0" y="0" width="32" height="32" rx="0"/></clipPath></defs><g clip-path="url(#master_svg0_134_11545)"><g><path d="M15,21L10,21C8.895431,21,8,20.104570000000002,8,19L8,13C8,11.895431,8.895431,11,10,11L15,11L15,13L10,13L10,19L15,19L15,21Z" fill="#000000" fill-opacity="1"/></g><g><path d="M25,21L20,21C18.895431,21,18,20.104570000000002,18,19L18,13C18,11.895431,18.895431,11,20,11L25,11L25,13L20,13L20,19L25,19L25,21Z" fill="#000000" fill-opacity="1"/></g><g><path d="M28,26L4,26C2.895431,26,2,25.1046,2,24L2,8C2,6.895431,2.895431,6,4,6L28,6C29.1046,6,30,6.895431,30,8L30,24C30,25.1046,29.1046,26,28,26ZM4,8L4,24L28,24L28,8L4,8Z" fill="#000000" fill-opacity="1"/></g><g></g></g></svg>