<svg xmlns="http://www.w3.org/2000/svg" xmlns:xlink="http://www.w3.org/1999/xlink" fill="none" version="1.1" width="32" height="32" viewBox="0 0 32 32"><defs><clipPath id="master_svg0_134_11568"><rect x="0" y="0" width="32" height="32" rx="0"/></clipPath></defs><g clip-path="url(#master_svg0_134_11568)"><g><path d="M16,2C8.2,2,2,8.2,2,16C2,23.8,8.2,30,16,30C23.8,30,30,23.8,30,16C30,8.2,23.8,2,16,2ZM21.4,23L16,17.6L10.6,23L9,21.4L14.4,16L9,10.6L10.6,9L16,14.4L21.4,9L23,10.6L17.6,16L23,21.4L21.4,23Z" fill="#000000" fill-opacity="1"/></g><g style="opacity:0;"><path d="M14.4,16L9,10.6L10.6,9L16,14.4L21.4,9L23,10.6L17.6,16L23,21.4L21.4,23L16,17.6L10.6,23L9,21.4L14.4,16Z" fill="#000000" fill-opacity="1"/></g><g></g></g></svg>