<svg xmlns="http://www.w3.org/2000/svg" xmlns:xlink="http://www.w3.org/1999/xlink" fill="none" version="1.1" width="32" height="32" viewBox="0 0 32 32"><defs><clipPath id="master_svg0_134_11665"><rect x="0" y="0" width="32" height="32" rx="0"/></clipPath></defs><g clip-path="url(#master_svg0_134_11665)"><g><path d="M24.8008,12.1362C24.6073,11.243,24.2769,10.38507,23.8213,9.5928L30,3.4142L28.5872,2L2,28.5872L3.4142,30L8.414200000000001,25L23.5,25C26.8363,25.0014,29.6314,22.4757,29.9671,19.1563C30.3028,15.8369,28.0698,12.8028,24.8008,12.1362ZM23.5,23L10.4141,23L22.3418,11.0723C22.6492,11.72686,22.8519,12.4256,22.9424,13.1431L23.041,13.9551L23.8564,14.019C26.2641,14.2094,28.0915,16.2675,27.9958,18.6808C27.9,21.0942,25.9152,23.001,23.5,23Z" fill="#000000" fill-opacity="1"/></g><g><path d="M4.296401489372253,23.448679460144042L5.7277014893722535,22.01757946014404C4.266511489372253,20.88057946014404,3.655851489372253,18.96147946014404,4.191251489372253,17.189179460144043C4.726661489372253,15.416879460144044,6.297701489372254,14.156839460144043,8.144001489372254,14.018999460144043L8.959501489372254,13.955099460144043L9.058601489372254,13.143099460144043C9.675571489372253,8.070379460144043,15.351381489372253,5.354496460144043,19.688581489372254,8.056599460144042L21.131681489372255,6.613799460144043C15.850381489372253,2.932719460144043,8.525021489372254,5.836405460144043,7.200001489372253,12.136199460144043C4.762641489372253,12.630249460144043,2.822033489372253,14.473849460144043,2.2037504893722533,16.882679460144043C1.5854684893722535,19.291579460144042,2.3982794893722534,21.841879460144042,4.296401489372253,23.448679460144042Z" fill="#000000" fill-opacity="1"/></g><g></g></g></svg>