<svg xmlns="http://www.w3.org/2000/svg" xmlns:xlink="http://www.w3.org/1999/xlink" fill="none" version="1.1" width="32" height="32" viewBox="0 0 32 32"><defs><clipPath id="master_svg0_134_11590"><rect x="0" y="0" width="32" height="32" rx="0"/></clipPath></defs><g clip-path="url(#master_svg0_134_11590)"><g><path d="M28,17L28,22L4,22L4,6L15,6L15,4L4,4C2.895431,4,2,4.895431,2,6L2,22C2,23.1046,2.895431,24,4,24L12,24L12,28L8,28L8,30L24,30L24,28L20,28L20,24L28,24C29.1046,24,30,23.1046,30,22L30,17L28,17ZM18,28L14,28L14,24L18,24L18,28Z" fill="#000000" fill-opacity="1"/></g><g><path d="M28.999950680541993,14.000049422073364L16.999999680541993,14.000049422073364C16.639776680541992,13.999949422073364,16.307418680541993,13.806149422073364,16.129941680541993,13.492649422073365C15.952465080541993,13.179249422073365,15.957300180541992,12.794549422073365,16.142598680541994,12.485649422073365L22.142600680541992,2.4855994220733644C22.530920680541993,1.8377994220733642,23.46967068054199,1.8377994220733642,23.85800068054199,2.4855994220733644L29.85795068054199,12.485649422073365C30.04335068054199,12.794649422073364,30.048150680541994,13.179449422073365,29.870550680541992,13.492949422073364C29.692850680541994,13.806449422073364,29.36035068054199,14.000149422073365,28.999950680541993,14.000049422073364ZM18.766100680541992,12.000049422073364L27.23385068054199,12.000049422073364L23.000000680541994,4.943599422073364L18.766100680541992,12.000049422073364Z" fill="#000000" fill-opacity="1"/></g><g></g></g></svg>