<svg xmlns="http://www.w3.org/2000/svg" xmlns:xlink="http://www.w3.org/1999/xlink" fill="none" version="1.1" width="32" height="32" viewBox="0 0 32 32"><defs><clipPath id="master_svg0_134_11596"><rect x="0" y="0" width="32" height="32" rx="0"/></clipPath></defs><g clip-path="url(#master_svg0_134_11596)"><g><path d="M25.8289,13.115500202178955C24.91704,8.406740202178955,20.79624,5.004495622178955,16,5.000500202178955L16,7.000000202178955C19.83706,7.005350202178954,23.13324,9.726740202178956,23.8649,13.493400202178956L24.124000000000002,14.839400202178956L25.4728,15.083500202178955C28.2743,15.588600202178956,30.227899999999998,18.147100202178954,29.9772,20.982700202178954C29.726399999999998,23.818200202178954,27.3542,25.994300202178955,24.5076,26.000000202178956L16,26.000000202178956L16,28.000000202178956L24.5076,28.000000202178956C28.389400000000002,27.994200202178956,31.6256,25.028000202178955,31.968899999999998,21.161400202178957C32.3121,17.294800202178955,29.649,13.805010202178956,25.8289,13.115500202178955Z" fill="#000000" fill-opacity="1"/></g><g><rect x="8" y="24" width="6" height="2" rx="0" fill="#000000" fill-opacity="1"/></g><g><rect x="4" y="24" width="2" height="2" rx="0" fill="#000000" fill-opacity="1"/></g><g><rect x="6" y="20" width="8" height="2" rx="0" fill="#000000" fill-opacity="1"/></g><g><rect x="2" y="20" width="2" height="2" rx="0" fill="#000000" fill-opacity="1"/></g><g><rect x="8" y="16" width="6" height="2" rx="0" fill="#000000" fill-opacity="1"/></g><g><rect x="4" y="16" width="2" height="2" rx="0" fill="#000000" fill-opacity="1"/></g><g><rect x="10" y="12" width="4" height="2" rx="0" fill="#000000" fill-opacity="1"/></g><g><rect x="6" y="12" width="2" height="2" rx="0" fill="#000000" fill-opacity="1"/></g><g><rect x="12" y="8" width="2" height="2" rx="0" fill="#000000" fill-opacity="1"/></g><g></g></g></svg>