<svg xmlns="http://www.w3.org/2000/svg" xmlns:xlink="http://www.w3.org/1999/xlink" fill="none" version="1.1" width="32" height="32" viewBox="0 0 32 32"><defs><clipPath id="master_svg0_134_11610"><rect x="0" y="0" width="32" height="32" rx="0"/></clipPath></defs><g clip-path="url(#master_svg0_134_11610)"><g><path d="M28,16L28,22L4,22L4,6L16,6L16,4L4,4C2.895431,4,2,4.895431,2,6L2,22C2,23.1046,2.895431,24,4,24L12,24L12,28L8,28L8,30L24,30L24,28L20,28L20,24L28,24C29.1046,24,30,23.1046,30,22L30,16L28,16ZM18,28L14,28L14,24L18,24L18,28Z" fill="#000000" fill-opacity="1"/></g><g><path d="M21,15L16,10.04L17.59,8.47L21,11.85L28.41,4.5L30,6.08L21,15Z" fill="#000000" fill-opacity="1"/></g><g></g></g></svg>