<svg xmlns="http://www.w3.org/2000/svg" xmlns:xlink="http://www.w3.org/1999/xlink" fill="none" version="1.1" width="32" height="32" viewBox="0 0 32 32"><defs><clipPath id="master_svg0_134_24501"><rect x="0" y="0" width="32" height="32" rx="0"/></clipPath></defs><g clip-path="url(#master_svg0_134_24501)"><g><path d="M20,17L20,15C20,13.895431,19.104599999999998,13,18,13L10,13C8.895431,13,8,13.895431,8,15L8,17C8,18.10457,8.895431,19,10,19L18,19C19.104599999999998,19,20,18.10457,20,17ZM10,15L18,15L18,17L10,17L10,15Z" fill="#000000" fill-opacity="1"/></g><g><path d="M23.420000532531738,24.48000332885742C23.136400532531738,23.425302328857423,22.059100532531737,22.79317332885742,21.000000532531736,23.05999942885742L13.27000053253174,25.130003328857423C12.205446532531738,25.413443328857422,11.570549532531738,26.50439332885742,11.850000332531739,27.57000332885742L12.370000532531739,29.50000332885742C12.594482532531739,30.37003332885742,13.371620532531738,30.98356332885742,14.27000053253174,31.000003328857424C14.445040532531738,30.991903328857422,14.619040532531738,30.96847332885742,14.790000532531739,30.930003328857424L22.52000053253174,28.860003328857424C23.58550053253174,28.57225332885742,24.21650053253174,27.475823328857423,23.930000532531736,26.41000332885742L23.420000532531738,24.48000332885742ZM14.27000053253174,29.00000332885742L13.760000532531738,27.060003328857423L21.48000053253174,25.00000332885742L22.000000532531736,26.920003328857423L14.27000053253174,29.00000332885742Z" fill="#000000" fill-opacity="1"/></g><g><path d="M13.239999845886231,6.860004802761078L20.99999984588623,8.930004802761077C21.16674984588623,8.972854802761077,21.33787984588623,8.996344802761078,21.50999984588623,9.000004802761078C22.41759984588623,9.003984802761078,23.213999845886228,8.396364802761077,23.449999845886232,7.520004802761078L23.99999984588623,5.580004802761078C24.286499845886233,4.514184802761077,23.655499845886233,3.417744802761078,22.589999845886233,3.130004802761078L14.78999984588623,1.0599999027610778C13.72417984588623,0.7735078027610779,12.62774484588623,1.404518802761078,12.339999845886231,2.469994802761078L11.81999964588623,4.3999948027610785C11.54054984588623,5.465604802761078,12.17544584588623,6.556554802761078,13.239999845886231,6.839994802761078L13.239999845886231,6.860004802761078ZM14.239999845886231,3.0000048027610777L21.99999984588623,5.070004802761078L21.47999984588623,7.000004802761078L13.759999845886231,4.929994802761078L14.239999845886231,3.0000048027610777Z" fill="#000000" fill-opacity="1"/></g><g><rect x="14" y="21" width="2" height="2" rx="0" fill="#000000" fill-opacity="1"/></g><g><rect x="14" y="9" width="2" height="2" rx="0" fill="#000000" fill-opacity="1"/></g><g></g></g></svg>