<svg xmlns="http://www.w3.org/2000/svg" xmlns:xlink="http://www.w3.org/1999/xlink" fill="none" version="1.1" width="32" height="32" viewBox="0 0 32 32"><defs><clipPath id="master_svg0_134_11753"><rect x="0" y="0" width="32" height="32" rx="0"/></clipPath></defs><g clip-path="url(#master_svg0_134_11753)"><g><path d="M4,20L4,22L8.586,22L2,28.586L3.4139999999999997,30L10,23.414L10,28L12,28L12,20L4,20Z" fill="#000000" fill-opacity="1"/></g><g><path d="M30.000000442504884,10L24.000000442504884,4L22.586000442504883,5.414L27.17200044250488,10L22.586000442504883,14.586L24.000000442504884,16L30.000000442504884,10Z" fill="#000000" fill-opacity="1"/></g><g transform="matrix(0.2588999569416046,-0.9659041166305542,0.9659041166305542,0.2588999569416046,-6.572022647764243,26.400616112683565)"><rect x="13.91845703125" y="17.48309326171875" width="16.029699325561523" height="1.9996999502182007" rx="0" fill="#000000" fill-opacity="1"/></g><g><path d="M4,10L10,4L11.414,5.414L6.827999999999999,10L11.414,14.586L10,16L4,10Z" fill="#000000" fill-opacity="1"/></g><g></g></g></svg>