<svg xmlns="http://www.w3.org/2000/svg" xmlns:xlink="http://www.w3.org/1999/xlink" fill="none" version="1.1" width="32" height="32" viewBox="0 0 32 32"><defs><clipPath id="master_svg0_134_11783"><rect x="0" y="0" width="32" height="32" rx="0"/></clipPath></defs><g clip-path="url(#master_svg0_134_11783)"><g><path d="M6,21L6,20L4,20L4,21C4,24.86599,7.13401,28,11,28L14,28L14,26L11,26C8.238579999999999,26,6,23.76142,6,21Z" fill="#000000" fill-opacity="1"/></g><g><path d="M24,11L24,12L26,12L26,11C26,7.13401,22.86599,4,19,4L16,4L16,6L19,6C21.76142,6,24,8.238579999999999,24,11Z" fill="#000000" fill-opacity="1"/></g><g><path d="M11,11L5,11C3.34315,11,2,12.34315,2,14L2,16L4,16L4,14C4,13.44771,4.44772,13,5,13L11,13C11.55229,13,12,13.44771,12,14L12,16L14,16L14,14C14,12.34315,12.6569,11,11,11Z" fill="#000000" fill-opacity="1"/></g><g><path d="M8,10C10.20914,10,12,8.20914,12,6C12,3.79086,10.20914,2,8,2C5.79086,2,4,3.79086,4,6C4,8.20914,5.79086,10,8,10ZM8,4C9.104569999999999,4,10,4.89543,10,6C10,7.10457,9.104569999999999,8,8,8C6.89543,8,6,7.10457,6,6C6,4.89543,6.89543,4,8,4Z" fill="#000000" fill-opacity="1"/></g><g><path d="M27,25L21,25C19.34315,25,18,26.34315,18,28L18,30L20,30L20,28C20,27.44771,20.44772,27,21,27L27,27C27.55229,27,28,27.44771,28,28L28,30L30,30L30,28C30,26.34315,28.6569,25,27,25Z" fill="#000000" fill-opacity="1"/></g><g><path d="M20,20C20,22.209139999999998,21.79086,24,24,24C26.209139999999998,24,28,22.209139999999998,28,20C28,17.79086,26.209139999999998,16,24,16C21.79086,16,20,17.79086,20,20ZM26,20C26,21.10457,25.10457,22,24,22C22.89543,22,22,21.10457,22,20C22,18.89543,22.89543,18,24,18C25.10457,18,26,18.89543,26,20Z" fill="#000000" fill-opacity="1"/></g><g></g></g></svg>