<svg xmlns="http://www.w3.org/2000/svg" xmlns:xlink="http://www.w3.org/1999/xlink" fill="none" version="1.1" width="32" height="32" viewBox="0 0 32 32"><defs><clipPath id="master_svg0_134_11800"><rect x="0" y="0" width="32" height="32" rx="0"/></clipPath></defs><g clip-path="url(#master_svg0_134_11800)"><g><rect x="14" y="25" width="14" height="2" rx="0" fill="#000000" fill-opacity="1"/></g><g><path d="M7.1699999237060545,26L4.590000123706055,28.58L5.999999923706055,30L9.999999923706055,26L5.999999923706055,22L4.579999923706055,23.41L7.1699999237060545,26Z" fill="#000000" fill-opacity="1"/></g><g><rect x="14" y="15" width="14" height="2" rx="0" fill="#000000" fill-opacity="1"/></g><g><path d="M7.1699999237060545,16L4.590000123706055,18.58L5.999999923706055,20L9.999999923706055,16L5.999999923706055,12L4.579999923706055,13.41L7.1699999237060545,16Z" fill="#000000" fill-opacity="1"/></g><g><rect x="14" y="5" width="14" height="2" rx="0" fill="#000000" fill-opacity="1"/></g><g><path d="M7.1699999237060545,6L4.590000123706055,8.58L5.999999923706055,10L9.999999923706055,6L5.999999923706055,2L4.579999923706055,3.41L7.1699999237060545,6Z" fill="#000000" fill-opacity="1"/></g><g></g></g></svg>