<svg xmlns="http://www.w3.org/2000/svg" xmlns:xlink="http://www.w3.org/1999/xlink" fill="none" version="1.1" width="32" height="32" viewBox="0 0 32 32"><defs><clipPath id="master_svg0_134_11825"><rect x="0" y="0" width="32" height="32" rx="0"/></clipPath></defs><g clip-path="url(#master_svg0_134_11825)"><g><rect x="24" y="4" width="2" height="24" rx="0" fill="#000000" fill-opacity="1"/></g><g><path d="M18,6L18,26L14,26L14,6L18,6ZM18,4L14,4C12.895431,4,12,4.895431,12,6L12,26C12,27.1046,12.895431,28,14,28L18,28C19.10457,28,20,27.1046,20,26L20,6C20,4.895431,19.10457,4,18,4Z" fill="#000000" fill-opacity="1"/></g><g><rect x="6" y="4" width="2" height="24" rx="0" fill="#000000" fill-opacity="1"/></g><g></g></g></svg>