<svg xmlns="http://www.w3.org/2000/svg" xmlns:xlink="http://www.w3.org/1999/xlink" fill="none" version="1.1" width="32" height="32" viewBox="0 0 32 32"><defs><clipPath id="master_svg0_134_11856"><rect x="0" y="0" width="32" height="32" rx="0"/></clipPath></defs><g clip-path="url(#master_svg0_134_11856)"><g><path d="M28,17L18,17C16.896002,17.00137711,16.00137711,17.896,16,19L16,25C16.00137711,26.104,16.896,26.998620000000003,18,27L22,27L22,25L18,25L18,19L28,19L28,25L25.4648,25L22.8711,28.8906L24.5352,30L26.5352,27L28,27C29.104,26.998620000000003,29.9986,26.104,30,25L30,19C29.9986,17.896002,29.104,17.00137711,28,17Z" fill="#000000" fill-opacity="1"/></g><g><path d="M8.666698003616332,24.108596185302734L9.528098003616332,23.247096185302734C9.763858003616333,23.011406185302732,10.117388003616332,22.938876185302735,10.426898003616333,23.062696185302734L11.476198003616332,23.482696185302736C11.792438003616333,23.609236185302734,11.999858003616334,23.915486185302733,11.999998003616334,24.256096185302734L11.999998003616334,26.164296185302735C12.001108003616332,26.643096185302735,11.599498003616333,27.024396185302734,11.121398003616333,26.998396185302735C3.766798003616333,26.540596185302732,2.281400003616333,20.312096185302735,2.005599973616333,17.926100185302733C1.949039703616333,17.431610185302734,2.336589003616333,16.998512265302736,2.834300003616333,17.000000000002736L4.708498003616333,17.000000000002736C5.049218003616334,17.000051498402733,5.355598003616333,17.207474185302733,5.4821980036163325,17.523800185302733L5.902198003616332,18.573096185302735C6.026058003616333,18.882626185302733,5.953478003616333,19.236196185302735,5.7176980036163325,19.471896185302736L4.856298003616333,20.333296185302736C5.163788003616332,22.289786185302734,6.707448003616333,23.819226185302735,8.666698003616332,24.108596185302734Z" fill="#000000" fill-opacity="1"/></g><g><rect x="21" y="9" width="7" height="2" rx="0" fill="#000000" fill-opacity="1"/></g><g><rect x="21" y="5" width="9" height="2" rx="0" fill="#000000" fill-opacity="1"/></g><g><path d="M17,6L14,8.2L14,6C13.9987,4.895978,13.104,4.00132227,12,4L4,4C2.895978,4.00132179,2.00132203,4.895978,2,6L2,12C2.00132227,13.10402,2.895978,13.99868,4,14L12,14C13.104,13.99868,13.9987,13.10402,14,12L14,9.8L17,12L17,6ZM4,12L4,6L12,6L12,12L4,12Z" fill="#000000" fill-opacity="1"/></g><g></g></g></svg>