<svg xmlns="http://www.w3.org/2000/svg" xmlns:xlink="http://www.w3.org/1999/xlink" fill="none" version="1.1" width="32" height="32" viewBox="0 0 32 32"><defs><clipPath id="master_svg0_134_11932"><rect x="0" y="0" width="32" height="32" rx="0"/></clipPath></defs><g clip-path="url(#master_svg0_134_11932)"><g><path d="M25.999998803710938,12.999999809265137C26.005208803710936,15.327999809265137,25.098918803710937,17.565699809265137,23.47509880371094,19.233899809265136L24.88839880371094,20.646999809265136C29.509468803710938,15.899099809265136,28.904358803710938,8.170829809265136,23.600598803710938,4.199999809265137L22.399398803710938,5.799999809265136C24.674388803710936,7.492439809265137,26.01065880371094,10.164539809265136,25.999998803710938,12.999999809265137Z" fill="#000000" fill-opacity="1"/></g><g><path d="M21.00000018310547,12.999998631286621C20.99808018310547,14.021948631286621,20.68319018310547,15.018788631286622,20.09770018310547,15.856398631286622L21.525400183105468,17.28419863128662C23.78449018310547,14.384708631286621,23.40918018310547,10.23035863128662,20.66700018310547,7.782698631286621L19.33300018310547,9.272698631286621C20.39295018310547,10.221888631286621,20.99908018310547,11.577168631286622,21.00000018310547,12.999998631286621Z" fill="#000000" fill-opacity="1"/></g><g><path d="M30,28.5859L3.4143,2L2,3.4141L5.71,7.1241C2.635317,11.96782,3.80701,18.362,8.3994,21.8008L9.6006,20.2008C5.9787,17.4949,4.9374400000000005,12.516,7.1714,8.5854L9.3677,10.7817C8.47143,13.4298,9.24502,16.3572,11.3325,18.2168L12.6665,16.7268C11.60681,15.7777,11.00087,14.4226,11,13C11.00287,12.8173,11.01599,12.6349,11.0393,12.4536L15,16.414099999999998L15,30L17,30L17,18.4141L28.5857,30L30,28.5859Z" fill="#000000" fill-opacity="1"/></g><g></g></g></svg>