<svg xmlns="http://www.w3.org/2000/svg" xmlns:xlink="http://www.w3.org/1999/xlink" fill="none" version="1.1" width="32" height="32" viewBox="0 0 32 32"><defs><clipPath id="master_svg0_134_11939"><rect x="0" y="0" width="32" height="32" rx="0"/></clipPath></defs><g clip-path="url(#master_svg0_134_11939)"><g><rect x="8" y="8" width="2" height="4" rx="0" fill="#000000" fill-opacity="1"/></g><g><rect x="8" y="14" width="2" height="4" rx="0" fill="#000000" fill-opacity="1"/></g><g><rect x="14" y="8" width="2" height="4" rx="0" fill="#000000" fill-opacity="1"/></g><g><rect x="14" y="14" width="2" height="4" rx="0" fill="#000000" fill-opacity="1"/></g><g><rect x="8" y="20" width="2" height="4" rx="0" fill="#000000" fill-opacity="1"/></g><g><rect x="14" y="20" width="2" height="4" rx="0" fill="#000000" fill-opacity="1"/></g><g><path d="M30,22L21.83,22L24.41,24.59L23,26L18,21L23,16L24.41,17.41L21.83,20L30,20L30,22Z" fill="#000000" fill-opacity="1"/></g><g><path d="M19,12L27.17,12L24.59,14.59L26,16L31,11L26,6L24.59,7.41L27.17,10L19,10L19,12Z" fill="#000000" fill-opacity="1"/></g><g><path d="M28,26L28,28L4,28L4,4L20,4L20,6L22,6L22,4C22,2.895431,21.1046,2,20,2L4,2C2.895431,2,2,2.895431,2,4L2,30L30,30L30,26L28,26Z" fill="#000000" fill-opacity="1"/></g><g></g></g></svg>