<svg xmlns="http://www.w3.org/2000/svg" xmlns:xlink="http://www.w3.org/1999/xlink" fill="none" version="1.1" width="32" height="32" viewBox="0 0 32 32"><defs><clipPath id="master_svg0_134_11974"><rect x="0" y="0" width="32" height="32" rx="0"/></clipPath></defs><g clip-path="url(#master_svg0_134_11974)"><g><path d="M29.34,16.06C28.9442,15.91699,28.5012,16.03688,28.2316,16.36L24.46,20.8857L19.0245,19.8975L15.4225,10.9463C14.98,9.778208,13.8629,9.00408459,12.6138,9L8.553799999999999,9C8.00996,9.0000886917,7.47636,9.14792,7.01,9.4277L2,12.4336L2,18.8345L7,19.7437L7,30L9,30L9,20.1074L12.5652,20.7554L14,24.2L14,30L16,30L16,23.8L14.9089,21.181800000000003L22.99,22.6509L18.2319,28.36C17.9836,28.6581,17.9301,29.0728,18.0947,29.4241C18.2592,29.7754,18.6121,29.9999,19,30L29,30C29.5523,30,30,29.5523,30,29L30,17C29.9998,16.578969999999998,29.7359,16.20315,29.34,16.06ZM4,17.1655L4,13.5664L7,11.7664L7,17.711199999999998L4,17.1655ZM9,18.0747L9,11L12.6138,11C13.0383,11.00376,13.4155,11.27147,13.5591,11.6709L16.6991,19.474600000000002L9,18.0747ZM28,28L21.1353,28L28,19.761699999999998L28,28Z" fill="#000000" fill-opacity="1"/></g><g><path d="M12.500000953674316,8.000000357627869C10.567000953674317,8.000000357627869,9.000000953674316,6.4330003576278685,9.000000953674316,4.500000357627869C9.000000953674316,2.567000357627869,10.567000953674317,1.0000003576278687,12.500000953674316,1.0000003576278687C14.433000953674316,1.0000003576278687,16.000000953674316,2.567000357627869,16.000000953674316,4.500000357627869C15.997690953674317,6.432040357627868,14.432040953674317,7.997690357627869,12.500000953674316,8.000000357627869ZM12.500000953674316,3.0000003576278687C11.671570953674316,3.0000003576278687,11.000000953674316,3.6715703576278687,11.000000953674316,4.500000357627869C11.000000953674316,5.328430357627869,11.671570953674316,6.000000357627869,12.500000953674316,6.000000357627869C13.328430953674317,6.000000357627869,14.000000953674316,5.328430357627869,14.000000953674316,4.500000357627869C13.999060953674316,3.6719603576278685,13.328040953674316,3.0009403576278686,12.500000953674316,3.0000003576278687Z" fill="#000000" fill-opacity="1"/></g><g></g></g></svg>