<svg xmlns="http://www.w3.org/2000/svg" xmlns:xlink="http://www.w3.org/1999/xlink" fill="none" version="1.1" width="32" height="32" viewBox="0 0 32 32"><defs><clipPath id="master_svg0_134_11993"><rect x="0" y="0" width="32" height="32" rx="0"/></clipPath></defs><g clip-path="url(#master_svg0_134_11993)"><g><path d="M28,12L20,12L20,4L28,4L28,12ZM22,10L26,10L26,6L22,6L22,10Z" fill="#000000" fill-opacity="1"/></g><g><path d="M17,15L17,9L9,9L9,23L23,23L23,15L17,15ZM11,11L15,11L15,15L11,15L11,11ZM15,21L11,21L11,17L15,17L15,21ZM21,21L17,21L17,17L21,17L21,21Z" fill="#000000" fill-opacity="1"/></g><g><path d="M26,28L6,28C4.895956,27.9987,4.00126743,27.104,4,26L4,6C4.00126696,4.895956,4.895956,4.00126743,6,4L16,4L16,6L6,6L6,26L26,26L26,16L28,16L28,26C27.9987,27.104,27.104,27.9987,26,28Z" fill="#000000" fill-opacity="1"/></g><g></g></g></svg>