<svg xmlns="http://www.w3.org/2000/svg" xmlns:xlink="http://www.w3.org/1999/xlink" fill="none" version="1.1" width="32" height="32" viewBox="0 0 32 32"><defs><clipPath id="master_svg0_134_12008"><rect x="0" y="0" width="32" height="32" rx="0"/></clipPath></defs><g clip-path="url(#master_svg0_134_12008)"><g><ellipse cx="16" cy="19" rx="2" ry="2" fill="#000000" fill-opacity="1"/></g><g><path d="M23.776899999999998,18.4785C22.5138,15.26117,19.4548,13.106215,16,13C12.54523,13.106215,9.48621,15.26117,8.223101,18.4785L8,19L8.2231,19.5215C9.48621,22.73883,12.54523,24.8938,16,25C19.4548,24.8938,22.5138,22.73883,23.776899999999998,19.5215L24,19L23.776899999999998,18.4785ZM16,23C13.79086,23,12,21.209139999999998,12,19C12,16.79086,13.79086,15,16,15C18.2091,15,20,16.79086,20,19C19.997500000000002,21.208109999999998,18.2081,22.99752,16,23Z" fill="#000000" fill-opacity="1"/></g><g><path d="M27,3L5,3C3.895431,3,3,3.895431,3,5L3,27C3,28.1046,3.895431,29,5,29L27,29C28.1046,29,29,28.1046,29,27L29,5C29,3.895431,28.1046,3,27,3ZM5,5L27,5L27,9L5,9L5,5ZM5,27L5,11L27,11L27,27L5,27Z" fill="#000000" fill-opacity="1"/></g><g></g></g></svg>