<svg xmlns="http://www.w3.org/2000/svg" xmlns:xlink="http://www.w3.org/1999/xlink" fill="none" version="1.1" width="32" height="32" viewBox="0 0 32 32"><defs><clipPath id="master_svg0_134_24538"><rect x="0" y="0" width="32" height="32" rx="0"/></clipPath></defs><g clip-path="url(#master_svg0_134_24538)"><g><path d="M7.699999809265137,4.699999809265137C6.553019809265137,5.580211809265137,5.542142809265137,6.6247898092651365,4.699999809265137,7.799999809265136L6.299999809265136,8.999999809265137C7.034479809265137,7.981459809265137,7.909889809265136,7.072379809265136,8.899999809265136,6.299999809265136L7.699999809265137,4.699999809265137Z" fill="#090909" fill-opacity="1"/></g><g><path d="M4.599998424682617,12.299999809265136L2.699999424682617,11.699999809265137C2.2169854246826173,13.081359809265138,1.9800608246826172,14.536759809265137,2.0000000046826174,15.999999809265137L3.9999984246826172,15.999999809265137C3.995858424682617,14.742119809265137,4.198568424682618,13.492109809265138,4.599998424682617,12.299999809265136Z" fill="#090909" fill-opacity="1"/></g><g><path d="M2.700000047683716,20.39999923706055C3.163803047683716,21.79441923706055,3.838280047683716,23.10963923706055,4.700000047683716,24.299999237060547L6.3000000476837155,23.099999237060548C5.577040047683716,22.087809237060547,5.004430047683716,20.976279237060545,4.600000047683716,19.799999237060547L2.700000047683716,20.39999923706055Z" fill="#090909" fill-opacity="1"/></g><g><path d="M7.800000190734863,27.300000762939455C8.990360190734863,28.161720762939453,10.305580190734863,28.836190762939452,11.700000190734864,29.300000762939455L12.300000190734863,27.400000762939452C11.123720190734863,26.995560762939455,10.012190190734863,26.42295876293945,9.000000190734863,25.700000762939453L7.800000190734863,27.300000762939455Z" fill="#090909" fill-opacity="1"/></g><g><path d="M11.699999809265137,2.7000004246826173L12.299999809265136,4.599998424682617C13.492109809265138,4.198568424682618,14.742119809265137,3.995858424682617,15.999999809265137,3.9999984246826172L15.999999809265137,2.0000000046826174C14.536759809265137,1.9800603246826172,13.081359809265138,2.2169854246826173,11.699999809265137,2.7000004246826173Z" fill="#090909" fill-opacity="1"/></g><g><path d="M24.2,27.3C25.37789,26.42211,26.42211,25.37789,27.3,24.2L25.7,23C24.95637,24.04385,24.04385,24.95637,23,25.7L24.2,27.3Z" fill="#090909" fill-opacity="1"/></g><g><path d="M27.399999618530273,19.7L29.299999618530272,20.3C29.734939618530273,18.90685,29.970609618530272,17.45917,29.999999618530275,16L27.999999618530275,16C28.004136618530275,17.25788,27.80143361853027,18.50789,27.399999618530273,19.7Z" fill="#090909" fill-opacity="1"/></g><g><path d="M29.200000381469728,11.600000286102295C28.736200381469725,10.205580286102295,28.061720381469726,8.890360286102295,27.200000381469728,7.700000286102295L25.600000381469727,8.900000286102294C26.322960381469727,9.912190286102295,26.895570381469728,11.023720286102295,27.300000381469726,12.200000286102295L29.200000381469728,11.600000286102295Z" fill="#090909" fill-opacity="1"/></g><g><path d="M24.100000381469727,4.599999904632568C22.90964038146973,3.7382799046325683,21.594420381469728,3.0638039046325685,20.200000381469728,2.5999999046325684L19.600000381469727,4.499999904632569C20.776280381469725,4.904429904632568,21.887810381469727,5.477039904632568,22.900000381469727,6.199999904632568L24.100000381469727,4.599999904632568Z" fill="#090909" fill-opacity="1"/></g><g><path d="M20.3,29.299999618530272L19.7,27.399999618530273C18.50789,27.80143361853027,17.25788,28.004136618530275,16,27.999999618530275L16,29.999999618530275C17.4534,29.913409618530274,18.89418,29.678869618530275,20.3,29.299999618530272Z" fill="#090909" fill-opacity="1"/></g><g><path d="M16,26C10.47715,26,6,21.5228,6,16C6,10.47715,10.47715,6,16,6C21.5228,6,26,10.47715,26,16C25.9937,21.520200000000003,21.520200000000003,25.9937,16,26ZM16,8C11.58172,8,8,11.58172,8,16C8,20.418300000000002,11.58172,24,16,24C20.418300000000002,24,24,20.418300000000002,24,16C23.9949,11.58382,20.4162,8.00507,16,8Z" fill="#090909" fill-opacity="1"/></g><g></g></g></svg>