<svg xmlns="http://www.w3.org/2000/svg" xmlns:xlink="http://www.w3.org/1999/xlink" fill="none" version="1.1" width="32" height="32" viewBox="0 0 32 32"><defs><clipPath id="master_svg0_134_11988"><rect x="0" y="0" width="32" height="32" rx="0"/></clipPath></defs><g clip-path="url(#master_svg0_134_11988)"><g><path d="M27,22L27,17C26.9987,15.896,26.104,15.0013,25,15L17,15L17,10L20,10C21.104,9.99873,21.9987,9.104040000000001,22,8L22,4C21.9987,2.895956,21.104,2.00126863,20,2L12,2C10.89596,2.00126696,10.00127,2.895956,10,4L10,8C10.00127,9.104040000000001,10.89596,9.99873,12,10L15,10L15,15L7,15C5.8959600000000005,15.0013,5.00127,15.896,5,17L5,22L2,22L2,30L10,30L10,22L7,22L7,17L15,17L15,22L12,22L12,30L20,30L20,22L17,22L17,17L25,17L25,22L22,22L22,30L30,30L30,22L27,22ZM12,4L20,4L20,8L12,8L12,4ZM8,28L4,28L4,24L8,24L8,28ZM18,28L14,28L14,24L18,24L18,28ZM28,28L24,28L24,24L28,24L28,28Z" fill="#000000" fill-opacity="1"/></g><g></g></g></svg>