<svg xmlns="http://www.w3.org/2000/svg" xmlns:xlink="http://www.w3.org/1999/xlink" fill="none" version="1.1" width="32" height="32" viewBox="0 0 32 32"><defs><clipPath id="master_svg0_134_12042"><rect x="0" y="0" width="32" height="32" rx="0"/></clipPath></defs><g clip-path="url(#master_svg0_134_12042)"><g><path d="M26.5,12.0000361038208L19,12.0000361038208C16.79086,12.0000361038208,15,10.2091361038208,15,7.999996103820801C15,5.7908661038208,16.79086,3.9999961038208007,19,3.9999961038208007L19.0835,3.9999961038208007C19.98734,2.737566103820801,21.44739,1.9919807938208007,23,2.0000000000208007C25.0655,1.9996355768208007,26.917,3.273956103820801,27.6543,5.2033961038208005C29.0629,5.684716103820801,30.0069,7.011496103820801,30,8.499996103820802C29.997700000000002,10.4320561038208,28.4321,11.9977361038208,26.5,12.0000361038208ZM19,5.999996103820801C17.89543,5.999996103820801,17,6.8954261038208005,17,7.999996103820801C17,9.104566103820801,17.89543,9.9999961038208,19,9.9999961038208L26.5,9.9999961038208C27.328,9.999066103820802,27.9991,9.3280361038208,28,8.499996103820802C28.0015,7.758686103820801,27.456200000000003,7.129746103820801,26.7222,7.026096103820801L26.061,6.926996103820801L25.8994,6.278296103820801C25.617,5.080566103820801,24.62235,4.182936103820801,23.40202,4.024566103820801C22.18168,3.866206103820801,20.99084,4.480216103820801,20.4121,5.5661961038208005L20.1143,5.999996103820801L19,5.999996103820801Z" fill="#000000" fill-opacity="1"/></g><g><path d="M23,14L18,19L19.4141,20.4141L22,17.8325L22,24L16,24L16,26L22,26C23.104,25.9986,23.99862,25.104,24,24L24,17.8325L26.587400000000002,20.4155L28,19L23,14Z" fill="#000000" fill-opacity="1"/></g><g><rect x="2" y="20" width="10" height="2" rx="0" fill="#000000" fill-opacity="1"/></g><g><rect x="2" y="24" width="10" height="2" rx="0" fill="#000000" fill-opacity="1"/></g><g><rect x="2" y="28" width="10" height="2" rx="0" fill="#000000" fill-opacity="1"/></g><g></g></g></svg>