<svg xmlns="http://www.w3.org/2000/svg" xmlns:xlink="http://www.w3.org/1999/xlink" fill="none" version="1.1" width="32" height="32" viewBox="0 0 32 32"><defs><clipPath id="master_svg0_134_12075"><rect x="0" y="0" width="32" height="32" rx="0"/></clipPath></defs><g clip-path="url(#master_svg0_134_12075)"><g><path d="M11.947397649078368,18.999972548675537C9.945987649078369,19.000372548675536,8.141457649078369,17.79497254867554,7.375461649078369,15.945972548675536C6.6094696490783695,14.096972548675538,7.032917049078369,11.968542548675536,8.44829764907837,10.553502548675537L13.55359764907837,5.449202548675537C15.48593764907837,3.516727548675537,18.61901764907837,3.5166155486755373,20.551417649078367,5.448952548675537C22.48391764907837,7.381282548675538,22.484017649078368,10.514332548675537,20.55171764907837,12.446802548675537L19.999417649078367,12.999402548675537L18.58361764907837,11.586502548675536L19.141317649078367,11.028602548675536C20.28781764907837,9.876242548675538,20.28611764907837,8.013512548675537,19.13741764907837,6.863302548675537C17.97041764907837,5.749642548675537,16.13433764907837,5.749642548675537,14.967397649078368,6.863302548675537L9.862697649078369,11.967302548675537C8.711037649078369,13.118442548675537,8.711037649078369,14.985372548675537,9.862697649078369,16.136472548675535C11.029637649078369,17.250172548675536,12.865757649078368,17.250172548675536,14.032697649078369,16.136472548675535L15.44699764907837,17.55097254867554C14.52073764907837,18.48187254867554,13.26060764907837,19.00367254867554,11.947397649078368,18.999972548675537Z" fill="#000000" fill-opacity="1"/></g><g><path d="M19.947399079589843,16.99999712677002C17.945989079589843,17.000397126770018,16.141449079589844,15.794997126770019,15.375462079589843,13.945997126770019C14.609472079589844,12.096897126770019,15.032917979589843,9.96854712677002,16.448299079589844,8.553497126770019L17.000899079589843,8.00089712677002L18.415199079589843,9.41549712677002L17.862599079589845,9.96779712677002C16.711249079589845,11.118947126770019,16.711249079589845,12.985597126770019,17.862599079589845,14.13669712677002C19.029539079589846,15.25039712677002,20.865659079589843,15.25039712677002,22.032599079589843,14.13669712677002C22.292599079589845,13.87669712677002,26.761919079589845,9.40739712677002,27.137919079589842,9.032197126770019C28.287219079589846,7.88029712677002,28.287219079589846,6.015407126770019,27.137919079589842,4.863497126770019C25.970919079589844,3.7498471267700193,24.134839079589845,3.7498471267700193,22.967899079589845,4.863497126770019L21.553599079589844,3.4489971267700197C23.486509079589844,1.5195401267700195,26.61711907958984,1.5209041267700196,28.548319079589845,3.4520471267700197C30.479619079589845,5.38318712677002,30.481119079589845,8.513807126770018,28.551719079589844,10.44679712677002C28.175219079589844,10.82279712677002,23.707699079589844,15.289597126770019,23.447899079589845,15.550297126770019C22.521419079589844,16.48149712677002,21.260989079589844,17.00349712677002,19.947399079589843,16.99999712677002Z" fill="#000000" fill-opacity="1"/></g><g><path d="M24,30L4,30C2.895911,29.9988,2.00115824,29.1041,2,28L2,8C2.00115776,6.89591,2.895911,6.00115776,4,6L8,6L8,8L4,8L4,28L24,28L24,18L26,18L26,28C25.9988,29.1041,25.1041,29.9988,24,30Z" fill="#000000" fill-opacity="1"/></g><g></g></g></svg>