<svg xmlns="http://www.w3.org/2000/svg" xmlns:xlink="http://www.w3.org/1999/xlink" fill="none" version="1.1" width="32" height="32" viewBox="0 0 32 32"><defs><clipPath id="master_svg0_134_12063"><rect x="0" y="0" width="32" height="32" rx="0"/></clipPath></defs><g clip-path="url(#master_svg0_134_12063)"><g><path d="M28,10L28,28L10,28L10,10L28,10ZM28,8L10,8C8.895431,8,8,8.895431,8,10L8,28C8,29.1046,8.895431,30,10,30L28,30C29.1046,30,30,29.1046,30,28L30,10C30,8.895431,29.1046,8,28,8Z" fill="#000000" fill-opacity="1"/></g><g><path d="M4,18L2,18L2,4C2,2.895431,2.895431,2,4,2L18,2L18,4L4,4L4,18Z" fill="#000000" fill-opacity="1"/></g><g></g></g></svg>