<svg xmlns="http://www.w3.org/2000/svg" xmlns:xlink="http://www.w3.org/1999/xlink" fill="none" version="1.1" width="32" height="32" viewBox="0 0 32 32"><defs><clipPath id="master_svg0_134_12092"><rect x="0" y="0" width="32" height="32" rx="0"/></clipPath></defs><g clip-path="url(#master_svg0_134_12092)"><g><ellipse cx="15.5" cy="11.5" rx="1.5" ry="1.5" fill="#000000" fill-opacity="1"/></g><g><ellipse cx="20.5" cy="15.5" rx="1.5" ry="1.5" fill="#000000" fill-opacity="1"/></g><g><ellipse cx="16" cy="16" rx="1" ry="1" fill="#000000" fill-opacity="1"/></g><g><ellipse cx="16.5" cy="20.5" rx="1.5" ry="1.5" fill="#000000" fill-opacity="1"/></g><g><ellipse cx="11.5" cy="16.5" rx="1.5" ry="1.5" fill="#000000" fill-opacity="1"/></g><g><path d="M28,13L28,15L25.9492,15C25.7524,13.0466,24.9819,11.19509,23.7349,9.6787L25.1716,8.2422L26.5859,9.6567L28,8.2427L23.7578,4L22.3438,5.4140999999999995L23.7578,6.8281L22.3208,8.2646C20.8045,7.01776,18.9532,6.24749,17,6.0508L17,4L19,4L19,2L13,2L13,4L15,4L15,6.0508C13.0468,6.24749,11.19547,7.01776,9.6792,8.2646L8.2422,6.8281L9.6562,5.4140999999999995L8.2422,4L4,8.2427L5.4140999999999995,9.6567L6.8284,8.2422L8.2651,9.6787C7.01805,11.19509,6.24761,13.0466,6.0508,15L4,15L4,13L2,13L2,19L4,19L4,17L6.0508,17C6.24761,18.9534,7.01805,20.8049,8.2651,22.3213L6.8284,23.7578L5.4140999999999995,22.3433L4,23.7573L8.2422,28L9.6562,26.5859L8.2422,25.1719L9.6792,23.7354C11.19547,24.9822,13.0468,25.7525,15,25.9492L15,28L13,28L13,30L19,30L19,28L17,28L17,25.9492C18.9532,25.7525,20.8045,24.9822,22.3208,23.7354L23.7578,25.1719L22.3438,26.5859L23.7578,28L28,23.7573L26.5859,22.3433L25.1716,23.7578L23.7349,22.3213C24.9819,20.8049,25.7524,18.9534,25.9492,17L28,17L28,19L30,19L30,13L28,13ZM16,24C11.58172,24,8,20.4183,8,16C8,11.58172,11.58172,8,16,8C20.4183,8,24,11.58172,24,16C23.9949,20.4162,20.4162,23.9949,16,24Z" fill="#000000" fill-opacity="1"/></g><g></g></g></svg>