<svg xmlns="http://www.w3.org/2000/svg" xmlns:xlink="http://www.w3.org/1999/xlink" fill="none" version="1.1" width="32" height="32" viewBox="0 0 32 32"><defs><clipPath id="master_svg0_134_12108"><rect x="0" y="0" width="32" height="32" rx="0"/></clipPath></defs><g clip-path="url(#master_svg0_134_12108)"><g><rect x="10" y="13" width="12" height="2" rx="0" fill="#000000" fill-opacity="1"/></g><g><rect x="10" y="18" width="12" height="2" rx="0" fill="#000000" fill-opacity="1"/></g><g><path d="M30,6.4141L28.5859,5L25.2359,8.35C24.7576,7.7732,24.2267,7.24214,23.65,6.7637L27,3.4141L25.5859,2L21.9766,5.6094C17.2803,2.8932409999999997,11.3448,3.67238,7.50859,7.50859C3.67238,11.3448,2.8932409999999997,17.2803,5.6094,21.9766L2,25.5859L3.4141,27L6.7641,23.65C7.2424,24.2268,7.77332,24.7579,8.35,25.2363L5,28.5859L6.4141,30L10.0234,26.3906C14.7197,29.1068,20.6552,28.3276,24.4914,24.4914C28.3276,20.6552,29.1068,14.7197,26.3906,10.0234L30,6.4141ZM16,26C10.47715,26,6,21.5228,6,16C6,10.47715,10.47715,6,16,6C21.5228,6,26,10.47715,26,16C25.9937,21.5202,21.5202,25.9937,16,26Z" fill="#000000" fill-opacity="1"/></g><g></g></g></svg>