<svg xmlns="http://www.w3.org/2000/svg" xmlns:xlink="http://www.w3.org/1999/xlink" fill="none" version="1.1" width="32" height="32" viewBox="0 0 32 32"><defs><clipPath id="master_svg0_134_12115"><rect x="0" y="0" width="32" height="32" rx="0"/></clipPath></defs><g clip-path="url(#master_svg0_134_12115)"><g><path d="M25.99995763092041,30L23.99995763092041,30L23.99995763092041,27L19.99999763092041,27C17.23982763092041,26.997,15.00302763092041,24.7602,14.99999763092041,22L14.99999763092041,20.7207L12.68379963092041,19.9487C12.07696153092041,19.7464,11.81351563092041,19.0341,12.14259963092041,18.4856L14.99999763092041,13.7229L14.99999763092041,11C15.00550763092041,6.03172,19.03171763092041,2.00550938,23.99995763092041,2L28.99995763092041,2L28.99995763092041,4L23.99995763092041,4C20.13578763092041,4.004300000000001,17.004297630920412,7.13579,16.99999763092041,11L16.99999763092041,14C16.99999763092041,14.1812,16.950707630920412,14.359,16.85739763092041,14.5144L14.49879763092041,18.4456L16.31619763092041,19.0513C16.72455763092041,19.1874,16.99999763092041,19.5696,16.99999763092041,20L16.99999763092041,22C17.00181763092041,23.6561,18.34389763092041,24.9982,19.99999763092041,25L24.99995763092041,25C25.55225763092041,25,25.99995763092041,25.4477,25.99995763092041,26L25.99995763092041,30Z" fill="#000000" fill-opacity="1"/></g><g><ellipse cx="9" cy="23" rx="1" ry="1" fill="#000000" fill-opacity="1"/></g><g><ellipse cx="6" cy="20" rx="1" ry="1" fill="#000000" fill-opacity="1"/></g><g><ellipse cx="6" cy="26" rx="1" ry="1" fill="#000000" fill-opacity="1"/></g><g><ellipse cx="3" cy="17" rx="1" ry="1" fill="#000000" fill-opacity="1"/></g><g><ellipse cx="3" cy="29" rx="1" ry="1" fill="#000000" fill-opacity="1"/></g><g><ellipse cx="3" cy="23" rx="1" ry="1" fill="#000000" fill-opacity="1"/></g><g><rect x="19" y="12" width="4" height="2" rx="0" fill="#000000" fill-opacity="1"/></g><g></g></g></svg>