<svg xmlns="http://www.w3.org/2000/svg" xmlns:xlink="http://www.w3.org/1999/xlink" fill="none" version="1.1" width="32" height="32" viewBox="0 0 32 32"><defs><clipPath id="master_svg0_134_12127"><rect x="0" y="0" width="32" height="32" rx="0"/></clipPath></defs><g clip-path="url(#master_svg0_134_12127)"><g><path d="M24,30L8,30C6.895956,29.9987,6.00126839,29.104,6,28L6,4C6.00110245,2.895887,6.895887,2.00110221,8,2L24,2C25.104,2.00126648,25.9987,2.895955,26,4L26,20.6182L21,18.1182L16,20.6182L16,4L8,4L8,28L24,28L24,24L26,24L26,28C25.9985,29.104,25.104,29.9985,24,30ZM21,15.8818L24,17.3818L24,4L18,4L18,17.3818L21,15.8818Z" fill="#000000" fill-opacity="1"/></g><g></g></g></svg>