<svg xmlns="http://www.w3.org/2000/svg" xmlns:xlink="http://www.w3.org/1999/xlink" fill="none" version="1.1" width="32" height="32" viewBox="0 0 32 32"><defs><clipPath id="master_svg0_134_12148"><rect x="0" y="0" width="32" height="32" rx="0"/></clipPath></defs><g clip-path="url(#master_svg0_134_12148)"><g><path d="M25,20L23,20L23,9L12,9L12,7L23,7C24.104599999999998,7,25,7.895431,25,9L25,20Z" fill="#000000" fill-opacity="1"/></g><g><path d="M9,23L9,2L7,2L7,7L2,7L2,9L7,9L7,23C7,24.1046,7.89543,25,9,25L23,25L23,30L25,30L25,25L30,25L30,23L9,23Z" fill="#000000" fill-opacity="1"/></g><g></g></g></svg>