<svg xmlns="http://www.w3.org/2000/svg" xmlns:xlink="http://www.w3.org/1999/xlink" fill="none" version="1.1" width="32" height="32" viewBox="0 0 32 32"><defs><clipPath id="master_svg0_134_12223"><rect x="0" y="0" width="32" height="32" rx="0"/></clipPath></defs><g clip-path="url(#master_svg0_134_12223)"><g><path d="M17,26C13.3838,26,10.6672,23.7026,9.5544,20L19,20L19,18L9.1321,18C9.04434,17.3369,9.00021,16.668799999999997,9,16C9,15.67,9.01,15.3359,9.0259,15L19,15L19,13L9.2371,13C9.8447,9.3525,11.809999999999999,6,17,6C20.8533,6,22.5315,7.6465,24.1282,10.4893L25.8718,9.5107C24.2649,6.6484000000000005,22.0779,4,17,4C10.6448,4,7,8.373999999999999,7,16C7,23.0654,11.1121,28,17,28C22.0779,28,24.2649,25.3516,25.8718,22.4893L24.1282,21.5107C22.5315,24.3535,20.8533,26,17,26Z" fill="#000000" fill-opacity="1"/></g><g></g></g></svg>