<svg xmlns="http://www.w3.org/2000/svg" xmlns:xlink="http://www.w3.org/1999/xlink" fill="none" version="1.1" width="32" height="32" viewBox="0 0 32 32"><defs><clipPath id="master_svg0_134_12228"><rect x="0" y="0" width="32" height="32" rx="0"/></clipPath></defs><g clip-path="url(#master_svg0_134_12228)"><g><path d="M23,19C22.9964,22.3122,20.3122,24.9964,17,25L13,25L13,18.1079L21.213900000000002,15L21.213900000000002,13L13,16.1079L13,13.1079L21.213900000000002,10L21.213900000000002,8L13,11.1079L13,5L11,5L11,11.8647L8,13L8,15L11,13.8647L11,16.8647L8,18L8,20L11,18.8647L11,27L17,27C21.4162,26.9949,24.9949,23.4162,25,19L23,19Z" fill="#000000" fill-opacity="1"/></g><g></g></g></svg>