<svg xmlns="http://www.w3.org/2000/svg" xmlns:xlink="http://www.w3.org/1999/xlink" fill="none" version="1.1" width="32" height="32" viewBox="0 0 32 32"><defs><clipPath id="master_svg0_134_12213"><rect x="0" y="0" width="32" height="32" rx="0"/></clipPath></defs><g clip-path="url(#master_svg0_134_12213)"><g><path d="M21.4023,15.6426C22.4184,14.7035,22.9974,13.3836,23,12L23,11C22.9967,8.23992,20.7601,6.0032499999999995,18,6L17,6L17,3L15,3L15,6L10,6L10,26L15,26L15,29L17,29L17,26L19,26C21.7601,25.9968,23.9968,23.7601,24,21L24,20C23.993499999999997,18.182499999999997,22.997999999999998,16.512700000000002,21.4023,15.6426ZM12,8L18,8C19.656100000000002,8.00182,20.9982,9.3439,21,11L21,12C20.9982,13.6561,19.656100000000002,14.9982,18,15L12,15L12,8ZM22,21C21.9982,22.6561,20.656100000000002,23.9982,19,24L12,24L12,17L19,17C20.656100000000002,17.0018,21.9982,18.343899999999998,22,20L22,21Z" fill="#000000" fill-opacity="1"/></g><g></g></g></svg>