<svg xmlns="http://www.w3.org/2000/svg" xmlns:xlink="http://www.w3.org/1999/xlink" fill="none" version="1.1" width="32" height="32" viewBox="0 0 32 32"><defs><clipPath id="master_svg0_134_12275"><rect x="0" y="0" width="32" height="32" rx="0"/></clipPath></defs><g clip-path="url(#master_svg0_134_12275)"><g><path d="M29.75535231628418,21.3447C29.56545231628418,21.1259,29.28975231628418,21,28.99995231628418,21L26.99995231628418,21L26.99995231628418,19C26.99995231628418,17.897499,26.10275231628418,17,25.00000231628418,17L21.00000231628418,17C19.89720231628418,17,19.00000231628418,17.897499,19.00000231628418,19L19.00000231628418,21L17.00000231628418,21C16.71019931628418,21,16.43460131628418,21.126,16.24460031628418,21.3447C16.05470081628418,21.5639,15.96899981628418,21.8545,16.01000021628418,22.1416L17.01000231628418,29.1416C17.08030231628418,29.6338,17.50240231628418,30,18.00000231628418,30L27.99995231628418,30C28.497552316284178,30,28.91965231628418,29.6338,28.98995231628418,29.1416L29.98995231628418,22.1416C30.03095231628418,21.8545,29.94525231628418,21.564,29.75535231628418,21.3447ZM21.00000231628418,19L25.00000231628418,19L25.00000231628418,21L21.00000231628418,21L21.00000231628418,19ZM27.13275231628418,28L18.867202316284178,28L18.15310231628418,23L27.846852316284178,23L27.13275231628418,28Z" fill="#000000" fill-opacity="1"/></g><g><rect x="10" y="20" width="2" height="10" rx="0" fill="#000000" fill-opacity="1"/></g><g><path d="M16.780800135803222,17.874999046325684L14.873600135803223,15.491199046325683L13.431700135803222,11.885699046325684C12.973200135803223,10.740199046325683,11.879900135803222,9.999999046325684,10.646100135803223,9.999999046325684L5.000100135803223,9.999999046325684C3.3458001358032226,9.999999046325684,2.0001001358032227,11.345699046325684,2.0001001358032227,12.999999046325684L2.0001001358032227,19.999999046325684C2.0001001358032227,21.102499046325683,2.897100135803223,21.999999046325684,4.000100135803223,21.999999046325684L5.000100135803223,21.999999046325684L5.000100135803223,29.999999046325684L7.000100135803223,29.999999046325684L7.000100135803223,19.999999046325684L4.000100135803223,19.999999046325684L4.000100135803223,12.999999046325684C4.000100135803223,12.448199046325684,4.448800135803223,11.999999046325684,5.000100135803223,11.999999046325684L10.646100135803223,11.999999046325684C11.057200135803223,11.999999046325684,11.422000135803223,12.247099046325683,11.574300135803222,12.628899046325683L13.219300135803223,16.624999046325684L15.219300135803223,19.124999046325684L16.780800135803222,17.874999046325684Z" fill="#000000" fill-opacity="1"/></g><g><path d="M4,5C4,2.7944,5.7943999999999996,1,8,1C10.2056,1,12,2.7944,12,5C12,7.2056,10.2056,9,8,9C5.7943999999999996,9,4,7.2056,4,5ZM6,5C6,6.1028,6.897,7,8,7C9.103,7,10,6.1028,10,5C10,3.8972,9.103,3,8,3C6.897,3,6,3.8972,6,5Z" fill="#000000" fill-opacity="1"/></g><g></g></g></svg>