<svg xmlns="http://www.w3.org/2000/svg" xmlns:xlink="http://www.w3.org/1999/xlink" fill="none" version="1.1" width="32" height="32" viewBox="0 0 32 32"><defs><clipPath id="master_svg0_134_12283"><rect x="0" y="0" width="32" height="32" rx="0"/></clipPath></defs><g clip-path="url(#master_svg0_134_12283)"><g><path d="M26,30L24,30L24,25C23.9967,22.2399,21.7601,20.0033,19,20L13,20C10.239899999999999,20.0033,8.0033,22.2399,8,25L8,30L6,30L6,25C6.00449991,21.1359,9.1359,18.00449944,13,18L19,18C22.8641,18.00449944,25.9955,21.1359,26,25L26,30Z" fill="#000000" fill-opacity="1"/></g><g><path d="M22,6L22,10C22,11.1025,21.1028,12,20,12L19,12C18.4478,12,18,12.4478,18,13C18,13.5522,18.4478,14,19,14L20,14C22.2056,14,24,12.2056,24,10L24,6L22,6Z" fill="#000000" fill-opacity="1"/></g><g><path d="M16,16C12.1401,16,9,12.8599,9,9C9,5.1401,12.1401,2,16,2C17.988500000000002,2,19.8901,2.8503,21.2173,4.3329L19.7271,5.6669C18.7789,4.6076,17.4205,4,16,4C13.242899999999999,4,11,6.243,11,9C11,11.757,13.242899999999999,14,16,14L16,16Z" fill="#000000" fill-opacity="1"/></g><g></g></g></svg>