<svg xmlns="http://www.w3.org/2000/svg" xmlns:xlink="http://www.w3.org/1999/xlink" fill="none" version="1.1" width="32" height="32" viewBox="0 0 32 32"><defs><clipPath id="master_svg0_134_12311"><rect x="0" y="0" width="32" height="32" rx="0"/></clipPath></defs><g clip-path="url(#master_svg0_134_12311)"><g><rect x="24" y="21" width="2" height="5" rx="0" fill="#000000" fill-opacity="1"/></g><g><rect x="20" y="16" width="2" height="10" rx="0" fill="#000000" fill-opacity="1"/></g><g><path d="M11,26C8.23992,25.99675,6.00324917,23.760080000000002,6,21L8,21C8,22.65685,9.34315,24,11,24C12.65685,24,14,22.65685,14,21C14,19.34315,12.65685,18,11,18L11,16C13.761420000000001,16,16,18.23858,16,21C16,23.76142,13.761420000000001,26,11,26Z" fill="#000000" fill-opacity="1"/></g><g><path d="M28,2L4,2C2.895887,2.00110245,2.00110221,2.895887,2,4L2,28C2.00126863,29.104,2.895956,29.9987,4,30L28,30C29.104,29.9985,29.9985,29.104,30,28L30,4C29.9987,2.895956,29.104,2.00126863,28,2ZM28,11L14,11L14,4L28,4L28,11ZM12,4L12,11L4,11L4,4L12,4ZM4,28L4,13L28.0007,13L28.002,28L4,28Z" fill="#000000" fill-opacity="1"/></g><g></g></g></svg>