<svg xmlns="http://www.w3.org/2000/svg" xmlns:xlink="http://www.w3.org/1999/xlink" fill="none" version="1.1" width="32" height="32" viewBox="0 0 32 32"><defs><clipPath id="master_svg0_134_12648"><rect x="0" y="0" width="32" height="32" rx="0"/></clipPath></defs><g clip-path="url(#master_svg0_134_12648)"><g><path d="M4,20L4,22L8.586,22L2,28.586L3.4139999999999997,30L10,23.414L10,28L12,28L12,20L4,20Z" fill="#000000" fill-opacity="1"/></g><g><rect x="20" y="22" width="4" height="2" rx="0" fill="#000000" fill-opacity="1"/></g><g><rect x="16" y="18" width="4" height="2" rx="0" fill="#000000" fill-opacity="1"/></g><g><rect x="20" y="14" width="4" height="2" rx="0" fill="#000000" fill-opacity="1"/></g><g><rect x="8" y="14" width="4" height="2" rx="0" fill="#000000" fill-opacity="1"/></g><g><path d="M27,3L5,3C3.8960470000000003,3.00148726,3.00148749,3.8960470000000003,3,5L3,16L5,16L5,11L27,11L27,27L16,27L16,29L27,29C28.104,28.9985,28.9985,28.104,29,27L29,5C28.9985,3.8960470000000003,28.104,3.00148773,27,3ZM27,9L5,9L5,5L27,5L27,9Z" fill="#000000" fill-opacity="1"/></g><g></g></g></svg>