<svg xmlns="http://www.w3.org/2000/svg" xmlns:xlink="http://www.w3.org/1999/xlink" fill="none" version="1.1" width="32" height="32" viewBox="0 0 32 32"><defs><clipPath id="master_svg0_134_12622"><rect x="0" y="0" width="32" height="32" rx="0"/></clipPath></defs><g clip-path="url(#master_svg0_134_12622)"><g><ellipse cx="23" cy="23" rx="1" ry="1" fill="#000000" fill-opacity="1"/></g><g><rect x="8" y="22" width="12" height="2" rx="0" fill="#000000" fill-opacity="1"/></g><g><ellipse cx="23" cy="9" rx="1" ry="1" fill="#000000" fill-opacity="1"/></g><g><rect x="8" y="8" width="12" height="2" rx="0" fill="#000000" fill-opacity="1"/></g><g><path d="M26,14C27.1046,14,28,13.10457,28,12L28,6C28,4.895431,27.1046,4,26,4L6,4C4.895431,4,4,4.895431,4,6L4,12C4,13.10457,4.895431,14,6,14L8,14L8,18L6,18C4.895431,18,4,18.895400000000002,4,20L4,26C4,27.1046,4.895431,28,6,28L26,28C27.1046,28,28,27.1046,28,26L28,20C28,18.895400000000002,27.1046,18,26,18L24,18L24,14L26,14ZM6,6L26,6L26,12L6,12L6,6ZM26,26L6,26L6,20L26,20L26,26ZM22,18L10,18L10,14L22,14L22,18Z" fill="#000000" fill-opacity="1"/></g><g></g></g></svg>