<svg xmlns="http://www.w3.org/2000/svg" xmlns:xlink="http://www.w3.org/1999/xlink" fill="none" version="1.1" width="32" height="32" viewBox="0 0 32 32"><defs><clipPath id="master_svg0_134_12542"><rect x="0" y="0" width="32" height="32" rx="0"/></clipPath></defs><g clip-path="url(#master_svg0_134_12542)"><g><ellipse cx="11" cy="8" rx="1" ry="1" fill="#000000" fill-opacity="1"/></g><g><ellipse cx="11" cy="16" rx="1" ry="1" fill="#000000" fill-opacity="1"/></g><g><ellipse cx="11" cy="24" rx="1" ry="1" fill="#000000" fill-opacity="1"/></g><g><path d="M24,3L8,3C6.895431,3,6,3.895431,6,5L6,27C6,28.1046,6.895431,29,8,29L18,29L18,27L8,27L8,21L26,21L26,5C26,3.895431,25.1046,3,24,3ZM24,19L8,19L8,13L24,13L24,19ZM24,11L8,11L8,5L24,5L24,11Z" fill="#000000" fill-opacity="1"/></g><g><path d="M29,24.415L27.586,23L25,25.587L22.414,23L21,24.415L23.586,27L21,29.586L22.414,31L25,28.414L27.586,31L29,29.586L26.414,27L29,24.415Z" fill="#000000" fill-opacity="1"/></g><g></g></g></svg>