<svg xmlns="http://www.w3.org/2000/svg" xmlns:xlink="http://www.w3.org/1999/xlink" fill="none" version="1.1" width="32" height="32" viewBox="0 0 32 32"><defs><clipPath id="master_svg0_134_12418"><rect x="0" y="0" width="32" height="32" rx="0"/></clipPath></defs><g clip-path="url(#master_svg0_134_12418)"><g><path d="M20.944299240112304,20.94169963684082L20.944299240112304,14.34169963684082L19.174299240112305,14.34169963684082L19.174299240112305,11.99659963684082L20.094299240112306,11.99659963684082C20.967799240112306,11.99659963684082,21.243699240112306,11.58279963684082,21.243699240112306,10.75489963684082L21.243699240112306,8.70829963684082L23.888199240112304,8.70829963684082L23.888199240112304,11.99659963684082L26.348199240112304,11.99659963684082L26.348199240112304,14.341999636840821L23.888199240112304,14.341999636840821L23.888199240112304,21.654499636840818L26.164599240112306,21.654499636840818L26.164599240112306,23.99999963684082L24.048799240112306,23.99999963684082C22.269489240112303,24.22129963684082,20.749669240112304,22.72409963684082,20.944299240112304,20.94169963684082Z" fill="#000000" fill-opacity="1"/></g><g><path d="M6.684599876403809,23.999999809265137L6.684599876403809,7.949999809265137L17.262699876403808,7.949999809265137L17.262699876403808,10.639999809265136L9.719999876403808,10.639999809265136L9.719999876403808,14.526199809265137L16.38899987640381,14.526199809265137L16.38899987640381,17.216699809265137L9.719999876403808,17.216699809265137L9.719999876403808,21.309999809265136L17.26299987640381,21.309999809265136L17.26299987640381,23.999999809265137L6.684599876403809,23.999999809265137Z" fill="#000000" fill-opacity="1"/></g><g></g></g></svg>