<svg xmlns="http://www.w3.org/2000/svg" xmlns:xlink="http://www.w3.org/1999/xlink" fill="none" version="1.1" width="32" height="32" viewBox="0 0 32 32"><defs><clipPath id="master_svg0_134_12400"><rect x="0" y="0" width="32" height="32" rx="0"/></clipPath></defs><g clip-path="url(#master_svg0_134_12400)"><g><path d="M17.828100204467773,22.068421589660645L19.621800204467775,20.320801589660647C20.411190204467772,21.338401589660645,21.622180204467774,21.939621589660646,22.910000204467774,21.953421589660643C24.312500204467774,21.953421589660643,24.910000204467774,21.424601589660647,24.910000204467774,20.573401589660644C24.910000204467774,19.883401589660643,24.496200204467772,19.446701589660645,23.438400204467772,19.308801589660646L22.242600204467774,19.147601589660646C19.667100204467772,18.825901589660646,18.241600204467773,17.699201589660646,18.241600204467773,15.514601589660645C18.241600204467773,13.192101589660645,20.058200204467774,11.720400789660644,22.794600204467773,11.720400789660644C24.566150204467775,11.586588589660645,26.299370204467774,12.283250589660645,27.485500204467776,13.605901589660645L25.760900204467774,15.330501589660646C25.021720204467773,14.522791589660645,23.981400204467775,14.056761589660645,22.886600204467776,14.042901589660644C21.621700204467775,14.042901589660644,21.070000204467775,14.548801589660645,21.070000204467775,15.284601589660644C21.070000204467775,16.089501589660642,21.506700204467773,16.457201589660645,22.63370020446777,16.641301589660642L23.852400204467774,16.802201589660644C26.47380020446777,17.170101589660646,27.738400204467773,18.343001589660645,27.738400204467773,20.343501589660644C27.738400204467773,22.666021589660645,25.783800204467774,24.275621589660645,22.794600204467773,24.275621589660645C20.884530204467772,24.359621589660645,19.045730204467773,23.542421589660645,17.828100204467773,22.068421589660645Z" fill="#000000" fill-opacity="1"/></g><g><path d="M5.247099876403809,23.999999809265137L5.247099876403809,7.949999809265137L15.824999876403808,7.949999809265137L15.824999876403808,10.639999809265136L8.282499876403808,10.639999809265136L8.282499876403808,14.526199809265137L14.951199876403809,14.526199809265137L14.951199876403809,17.216699809265137L8.282499876403808,17.216699809265137L8.282499876403808,21.309999809265136L15.824999876403808,21.309999809265136L15.824999876403808,23.999999809265137L5.247099876403809,23.999999809265137Z" fill="#000000" fill-opacity="1"/></g><g></g></g></svg>