<svg xmlns="http://www.w3.org/2000/svg" xmlns:xlink="http://www.w3.org/1999/xlink" fill="none" version="1.1" width="32" height="32" viewBox="0 0 32 32"><defs><clipPath id="master_svg0_134_12605"><rect x="0" y="0" width="32" height="32" rx="0"/></clipPath></defs><g clip-path="url(#master_svg0_134_12605)"><g><path d="M25,12L25,3L23,3L23,5L20,5L20,7L23,7L23,12L20,12L20,14L28,14L28,12L25,12Z" fill="#000000" fill-opacity="1"/></g><g><path d="M8.5,5C10.4299,5,12,6.5701,12,8.5C12,10.4299,10.4299,12,8.5,12C6.5701,12,5,10.4299,5,8.5C5,6.5701,6.5701,5,8.5,5ZM8.5,3C5.462400000000001,3,3,5.462400000000001,3,8.5C3,11.5376,5.462400000000001,14,8.5,14C11.5376,14,14,11.5376,14,8.5C14,5.462400000000001,11.5376,3,8.5,3Z" fill="#000000" fill-opacity="1"/></g><g><path d="M8.5,20C10.4299,20,12,21.5701,12,23.5C12,25.4299,10.4299,27,8.5,27C6.5701,27,5,25.4299,5,23.5C5,21.5701,6.5701,20,8.5,20ZM8.5,18C5.462400000000001,18,3,20.4624,3,23.5C3,26.537599999999998,5.462400000000001,29,8.5,29C11.5376,29,14,26.537599999999998,14,23.5C14,20.4624,11.5376,18,8.5,18Z" fill="#000000" fill-opacity="1"/></g><g><path d="M23.5,20C25.4299,20,27,21.5701,27,23.5C27,25.4299,25.4299,27,23.5,27C21.5701,27,20,25.4299,20,23.5C20,21.5701,21.5701,20,23.5,20ZM23.5,18C20.4624,18,18,20.4624,18,23.5C18,26.537599999999998,20.4624,29,23.5,29C26.537599999999998,29,29,26.537599999999998,29,23.5C29,20.4624,26.537599999999998,18,23.5,18Z" fill="#000000" fill-opacity="1"/></g><g></g></g></svg>