<svg xmlns="http://www.w3.org/2000/svg" xmlns:xlink="http://www.w3.org/1999/xlink" fill="none" version="1.1" width="32" height="32" viewBox="0 0 32 32"><defs><clipPath id="master_svg0_134_12722"><rect x="0" y="0" width="32" height="32" rx="0"/></clipPath></defs><g clip-path="url(#master_svg0_134_12722)"><g><path d="M30,20L26,20L26,22L30,22L30,24L27,24C25.895401,24,25,24.895400000000002,25,26L25,28C25,29.104599999999998,25.895399,30,27,30L32,30L32,22C32,20.896999,31.1025,20,30,20ZM30,28L27,28L27,26L30,26L30,28Z" fill="#000000" fill-opacity="1"/></g><g><path d="M24,22L24,20L21,20L21,18L19,18L19,20L17,20L17,22L19,22L19,28C19,29.1025,19.8975,30,21,30L24,30L24,28L21,28L21,22L24,22Z" fill="#000000" fill-opacity="1"/></g><g><path d="M14,20L10,20L10,22L14,22L14,24L11,24C9.8954,24,9,24.895400000000002,9,26L9,28C9,29.104599999999998,9.8954,30,11,30L16,30L16,22C16,20.896999,15.1025,20,14,20ZM14,28L11,28L11,26L14,26L14,28Z" fill="#000000" fill-opacity="1"/></g><g><path d="M5,16.000499725341797L5,20.000499725341797L2,20.000499725341797C0.8975,20.000499725341797,0,20.897499725341795,0,22.000499725341797L0,27.999999725341794C0,29.102499725341797,0.8975,29.999999725341794,2,29.999999725341794L7,29.999999725341794L7,16.000499725341797L5,16.000499725341797ZM2,21.999999725341798L5,21.999999725341798L5,27.999999725341794L2,27.999999725341794L2,21.999999725341798Z" fill="#000000" fill-opacity="1"/></g><g><path d="M4,13.999993085861206L4,5.000003085861206L11.5857,5.000003085861206L15.5857,9.000003085861206L28,9.000003085861206L28,16.999993085861206L30,16.999993085861206L30,9.000003085861206C29.9987,7.895903085861206,29.1041,7.001303085861206,28,7.000003085861206L16.4143,7.000003085861206L13,3.585900085861206C12.6258,3.209500085861206,12.1165,2.998600005861206,11.5857,3.000000000001206L4,3.000000000001206C2.8959,3.001300095861206,2.00129986,3.8959000858612063,2,5.000003085861206L2,13.999993085861206L4,13.999993085861206Z" fill="#000000" fill-opacity="1"/></g><g></g></g></svg>