<svg xmlns="http://www.w3.org/2000/svg" xmlns:xlink="http://www.w3.org/1999/xlink" fill="none" version="1.1" width="32" height="32" viewBox="0 0 32 32"><defs><clipPath id="master_svg0_134_12358"><rect x="0" y="0" width="32" height="32" rx="0"/></clipPath></defs><g clip-path="url(#master_svg0_134_12358)"><g><rect x="12" y="11" width="2" height="6" rx="0" fill="#000000" fill-opacity="1"/></g><g><rect x="7" y="13" width="2" height="4" rx="0" fill="#000000" fill-opacity="1"/></g><g><rect x="2" y="7" width="2" height="10" rx="0" fill="#000000" fill-opacity="1"/></g><g><path d="M30.000000080871583,28.585899046325682L22.44780008087158,21.033699046325683C24.039600080871583,19.125499046325682,25.000000080871583,16.67329904632568,25.000000080871583,13.999999046325684C25.000000080871583,7.934599046325683,20.065400080871584,2.9999990463256836,14.000000080871581,2.9999990463256836C11.597400080871582,2.9999990463256836,9.314700080871582,3.7606990463256835,7.398700080871582,5.200199046325684L8.599900080871581,6.799299046325684C10.166800080871582,5.622099046325683,12.034200080871582,4.999999046325684,14.000000080871581,4.999999046325684C18.96260008087158,4.999999046325684,23.000000080871583,9.037099046325682,23.000000080871583,13.999999046325684C23.000000080871583,18.96289904632568,18.96260008087158,22.999999046325684,14.000000080871581,22.999999046325684C11.142600080871581,22.999999046325684,8.518100080871582,21.687999046325682,6.799300080871582,19.399899046325682L5.200200080871582,20.601599046325685C7.300300080871581,23.396499046325683,10.507800080871583,24.999999046325684,14.000000080871581,24.999999046325684C16.673300080871584,24.999999046325684,19.125500080871582,24.039599046325684,21.033700080871583,22.447799046325684L28.585900080871582,29.999999046325684L30.000000080871583,28.585899046325682Z" fill="#000000" fill-opacity="1"/></g><g></g></g></svg>