<svg xmlns="http://www.w3.org/2000/svg" xmlns:xlink="http://www.w3.org/1999/xlink" fill="none" version="1.1" width="32" height="32" viewBox="0 0 32 32"><defs><clipPath id="master_svg0_134_12472"><rect x="0" y="0" width="32" height="32" rx="0"/></clipPath></defs><g clip-path="url(#master_svg0_134_12472)"><g><path d="M29,30L19,30C18.4478,30,18,29.5522,18,29L18,19C18,18.4478,18.4478,18,19,18L29,18C29.5522,18,30,18.4478,30,19L30,29C30,29.5522,29.5522,30,29,30ZM20,28L28,28L28,20L20,20L20,28Z" fill="#000000" fill-opacity="1"/></g><g><path d="M8,30C4.6917,30,2,27.3083,2,24C2,20.6917,4.6917,18,8,18C11.3083,18,14,20.6917,14,24C14,27.3083,11.3083,30,8,30ZM8,20C5.7943999999999996,20,4,21.7944,4,24C4,26.2056,5.7943999999999996,28,8,28C10.2056,28,12,26.2056,12,24C12,21.7944,10.2056,20,8,20Z" fill="#000000" fill-opacity="1"/></g><g><path d="M22.00001049041748,13.99999988079071L10.00000049041748,13.99999988079071C9.639599490417481,13.99999988079071,9.307399490417481,13.806199880790711,9.12989949041748,13.49269988079071C8.95240019041748,13.17919988079071,8.95699979041748,12.79449988079071,9.14260049041748,12.48549988079071L15.144600490417481,2.4821998807907106C15.338300490417481,2.1592998807907104,15.66920049041748,1.9999998807907104,16.00000049041748,1.9999998807907104C16.33080049041748,1.9999998807907104,16.66170049041748,2.1592998807907104,16.85540049041748,2.4821998807907106L22.85741049041748,12.48549988079071C23.04291049041748,12.79449988079071,23.04761049041748,13.17919988079071,22.87011049041748,13.49269988079071C22.69261049041748,13.806199880790711,22.360310490417483,13.99999988079071,22.00001049041748,13.99999988079071ZM11.76610049041748,11.99999988079071L20.23391049041748,11.99999988079071L16.00000049041748,4.94359988079071L11.76610049041748,11.99999988079071Z" fill="#000000" fill-opacity="1"/></g><g></g></g></svg>