<svg xmlns="http://www.w3.org/2000/svg" xmlns:xlink="http://www.w3.org/1999/xlink" fill="none" version="1.1" width="32" height="32" viewBox="0 0 32 32"><defs><clipPath id="master_svg0_134_12600"><rect x="0" y="0" width="32" height="32" rx="0"/></clipPath></defs><g clip-path="url(#master_svg0_134_12600)"><g><path d="M27.00000129470825,24.00000238418579C26.537801294708252,24.00000238418579,26.10520129470825,24.11330238418579,25.714101294708254,24.299802384185792L20.885201294708253,19.470702384185792C21.58420129470825,18.48970238418579,21.999901294708252,17.29390238418579,21.999901294708252,16.00000238418579C21.999901294708252,12.69140238418579,19.30820129470825,10.000002384185791,15.999901294708252,10.000002384185791C14.706201294708253,10.000002384185791,13.510201294708253,10.416002384185791,12.529001294708252,11.11470238418579L7.700101294708252,6.286102384185791C7.886601294708252,5.895002384185791,7.999901294708252,5.462402384185792,7.999901294708252,5.000002384185791C7.999901294708252,3.343302384185791,6.656601294708252,2.000002384185791,4.999901294708252,2.000002384185791C3.343201294708252,2.000002384185791,1.999901294708252,3.343302384185791,1.999901294708252,5.000002384185791C1.999901294708252,6.656702384185791,3.343201294708252,8.000002384185791,4.999901294708252,8.000002384185791C5.462101294708252,8.000002384185791,5.894701294708252,7.886702384185791,6.285801294708252,7.700202384185791L11.114701294708253,12.52930238418579C10.415701294708253,13.510302384185792,10.000001294708252,14.70610238418579,10.000001294708252,16.00000238418579C10.000001294708252,19.30860238418579,12.691701294708253,22.00000238418579,16.00000129470825,22.00000238418579C17.29370129470825,22.00000238418579,18.48970129470825,21.58400238418579,19.470901294708252,20.885302384185792L24.299801294708253,25.71390238418579C24.11330129470825,26.10500238418579,24.00000129470825,26.537602384185792,24.00000129470825,27.00000238418579C24.00000129470825,28.65670238418579,25.34330129470825,30.00000238418579,27.00000129470825,30.00000238418579C28.656701294708252,30.00000238418579,30.00000129470825,28.65670238418579,30.00000129470825,27.00000238418579C30.00000129470825,25.34330238418579,28.656701294708252,24.00000238418579,27.00000129470825,24.00000238418579ZM16.00000129470825,20.00000238418579C13.794401294708251,20.00000238418579,12.000001294708252,18.20560238418579,12.000001294708252,16.00000238418579C12.000001294708252,13.79440238418579,13.794401294708251,12.000002384185791,16.00000129470825,12.000002384185791C18.205601294708252,12.000002384185791,20.00000129470825,13.79440238418579,20.00000129470825,16.00000238418579C20.00000129470825,18.20560238418579,18.205601294708252,20.00000238418579,16.00000129470825,20.00000238418579Z" fill="#000000" fill-opacity="1"/></g><g></g></g></svg>