<svg xmlns="http://www.w3.org/2000/svg" xmlns:xlink="http://www.w3.org/1999/xlink" fill="none" version="1.1" width="32" height="32" viewBox="0 0 32 32"><defs><clipPath id="master_svg0_134_12763"><rect x="0" y="0" width="32" height="32" rx="0"/></clipPath></defs><g clip-path="url(#master_svg0_134_12763)"><g><path d="M29.8300000333786,20L30.1700000333786,18L25.0000000333786,17.15L25.0000000333786,13C25.0000000333786,12.92,25.0000000333786,12.85,25.0000000333786,12.77L30.0600000333786,11.41L29.550000033378602,9.48L24.7200000333786,10.77C24.054600033378602,8.25486,22.333400033378602,6.15071,20.0000000333786,5L20.0000000333786,2L18.0000000333786,2L18.0000000333786,4.23C16.6843000333786,3.92331,15.3157000333786,3.92331,14.000000033378601,4.23L14.000000033378601,2L12.000000033378601,2L12.000000033378601,5C9.6592700333786,6.1639,7.940260033378601,8.28803,7.290000033378601,10.82L2.460000033378601,9.48L2.000000033378601,11.41L7.000000033378601,12.77C7.000000033378601,12.85,7.000000033378601,12.92,7.000000033378601,13L7.000000033378601,17.15L1.840000033378601,18L2.160000033378601,20L7.000000033378601,19.18C7.022840033378601,20.414,7.302090033378601,21.6297,7.8200000333786015,22.75L3.2900000333786013,27.29L4.710000033378601,28.71L8.9000000333786,24.51C12.5033000333786,29.1356,19.496700033378602,29.1356,23.100000033378603,24.51L27.2900000333786,28.71L28.710000033378602,27.29L24.1700000333786,22.75C24.691400033378603,21.6305,24.9740000333786,20.4147,25.0000000333786,19.18L29.8300000333786,20ZM15.000000033378601,25.92C11.559070033378601,25.4233,9.0040700333786,22.4766,9.000000033378601,19L9.000000033378601,13L15.000000033378601,13L15.000000033378601,25.92ZM9.2900000333786,11C10.172470033378602,8.030339999999999,12.9020000333786,5.99397,16.0000000333786,5.99397C19.0980000333786,5.99397,21.827500033378602,8.030339999999999,22.710000033378602,11L9.2900000333786,11ZM23.0000000333786,19C22.9959000333786,22.4766,20.4409000333786,25.4233,17.0000000333786,25.92L17.0000000333786,13L23.0000000333786,13L23.0000000333786,19Z" fill="#000000" fill-opacity="1"/></g><g></g></g></svg>