<svg xmlns="http://www.w3.org/2000/svg" xmlns:xlink="http://www.w3.org/1999/xlink" fill="none" version="1.1" width="32" height="32" viewBox="0 0 32 32"><defs><clipPath id="master_svg0_134_12835"><rect x="0" y="0" width="32" height="32" rx="0"/></clipPath></defs><g clip-path="url(#master_svg0_134_12835)"><g><path d="M19,16.000000221252442L19,14.000000221252442L26.171,14.000000221252442L23.878,11.707000221252441L25.292,10.293000221252441L30,15.000000221252442L25.292,19.707000221252443L23.878,18.29300022125244L26.171,16.000000221252442L19,16.000000221252442Z" fill="#000000" fill-opacity="1"/></g><g><path d="M17.000000221252442,12L15.000000221252442,12L15.000000221252442,5.827999999999999L12.707000221252441,8.121L11.293000221252441,6.707L16.000000221252442,2L20.707000221252443,6.707L19.29300022125244,8.121L17.000000221252442,5.827999999999999L17.000000221252442,12Z" fill="#000000" fill-opacity="1"/></g><g><path d="M17,20.10110022125244L17,18.000000221252442C16.997500000000002,15.79189022125244,15.2081,14.00248022125244,13,14.000000221252442L5.8281,14.000000221252442L8.1211,11.707000221252441L6.707,10.293000221252441L2,15.000000221252442L6.707,19.707000221252443L8.1211,18.29300022125244L5.8281,16.000000221252442L13,16.000000221252442C14.104,16.00138022125244,14.9986,16.896000221252443,15,18.000000221252442L15,20.10110022125244C11.51559,20.81240022125244,9.86661,24.83130022125244,11.8473,27.784900221252443C13.828,30.73850022125244,18.172,30.73850022125244,20.1527,27.784900221252443C22.1334,24.83130022125244,20.4844,20.81240022125244,17,20.10110022125244ZM16,28.000000221252442C14.3431,28.000000221252442,13,26.656900221252442,13,25.000000221252442C13,23.343100221252442,14.3431,22.000000221252442,16,22.000000221252442C17.6569,22.000000221252442,19,23.343100221252442,19,25.000000221252442C18.9982,26.65610022125244,17.656100000000002,27.998200221252443,16,28.000000221252442Z" fill="#000000" fill-opacity="1"/></g><g></g></g></svg>