<svg xmlns="http://www.w3.org/2000/svg" xmlns:xlink="http://www.w3.org/1999/xlink" fill="none" version="1.1" width="32" height="32" viewBox="0 0 32 32"><defs><clipPath id="master_svg0_134_12817"><rect x="0" y="0" width="32" height="32" rx="0"/></clipPath></defs><g clip-path="url(#master_svg0_134_12817)"><g><path d="M23,2L17,8L18.4146,9.4023L22,5.8184000000000005L22,28L6,28L6,12L4,12L4,28C4.00137663,29.104,4.896001,29.9986,6,30L22,30C23.104,29.9986,23.9986,29.104,24,28L24,5.8154L27.5859,9.4023L29,8L23,2Z" fill="#000000" fill-opacity="1"/></g><g><path d="M16,24L12,24C10.895955,23.998730000000002,10.00126553,23.10404,10,22L10,18C10.00126553,16.895955999999998,10.895955,16.00126648,12,16L16,16C17.10405,16.00126648,17.998730000000002,16.895955999999998,18,18L18,22C17.998730000000002,23.10404,17.10405,23.998730000000002,16,24ZM12,18L12,22L16,22L16,18L12,18Z" fill="#000000" fill-opacity="1"/></g><g></g></g></svg>