<svg xmlns="http://www.w3.org/2000/svg" xmlns:xlink="http://www.w3.org/1999/xlink" fill="none" version="1.1" width="32" height="32" viewBox="0 0 32 32"><defs><clipPath id="master_svg0_134_12938"><rect x="0" y="0" width="32" height="32" rx="0"/></clipPath></defs><g clip-path="url(#master_svg0_134_12938)"><g><path d="M13,30C6.92487,30,2,25.0751,2,19C2,12.92487,6.92487,8,13,8C13.5523,8,14,8.447715,14,9L14,18L23,18C23.5523,18,24,18.447699999999998,24,19C24,25.0751,19.0751,30,13,30ZM12,10.06C7.31603,10.58113,3.8273,14.62748,4.001329999999999,19.3371C4.1753599999999995,24.0468,7.95319,27.8246,12.6629,27.9987C17.372500000000002,28.1727,21.4189,24.684,21.94,20L14,20C12.8954,20,12,19.104599999999998,12,18L12,10.06Z" fill="#000000" fill-opacity="1"/></g><g><path d="M28,14L19,14C17.89543,14,17,13.1046,17,12L17,3C17,2.447715,17.447716,2,18,2C24.07513,2,29,6.92487,29,13C29,13.5523,28.552300000000002,14,28,14ZM19,12L26.939999999999998,12C26.471330000000002,7.82435,23.17565,4.52867,19,4.0600000000000005L19,12Z" fill="#000000" fill-opacity="1"/></g><g></g></g></svg>