<svg xmlns="http://www.w3.org/2000/svg" xmlns:xlink="http://www.w3.org/1999/xlink" fill="none" version="1.1" width="32" height="32" viewBox="0 0 32 32"><defs><clipPath id="master_svg0_134_12956"><rect x="0" y="0" width="32" height="32" rx="0"/></clipPath></defs><g clip-path="url(#master_svg0_134_12956)"><g><path d="M29.3906,14.5269L17.473100000000002,2.6094C17.0671,2.2032,16.5334,2,16,2C15.4666,2,14.9329,2.2031,14.5269,2.6094L2.6094,14.5269C2.2032,14.9331,2,15.4664,2,16C2,16.5336,2.2031,17.0669,2.6094,17.473100000000002L14.5269,29.3906C14.9329,29.7968,15.4666,30,16,30C16.5334,30,17.0671,29.7969,17.473100000000002,29.3906L29.3906,17.473100000000002C29.7968,17.0669,30,16.5336,30,16C30,15.4664,29.7969,14.9331,29.3906,14.5269Z" fill="#000000" fill-opacity="1"/></g><g transform="matrix(0,-1,1,0,-32,32)"></g></g></svg>