<svg xmlns="http://www.w3.org/2000/svg" xmlns:xlink="http://www.w3.org/1999/xlink" fill="none" version="1.1" width="32" height="32" viewBox="0 0 32 32"><defs><clipPath id="master_svg0_134_24592"><rect x="0" y="0" width="32" height="32" rx="0"/></clipPath></defs><g clip-path="url(#master_svg0_134_24592)"><g><path d="M28,6L28,26L4,26L4,6L28,6ZM28,4L4,4C2.895431,4,2,4.895431,2,6L2,26C2,27.1046,2.895431,28,4,28L28,28C29.1046,28,30,27.1046,30,26L30,6C30,4.895431,29.1046,4,28,4Z" fill="#000000" fill-opacity="1"/></g><g><rect x="6" y="8" width="10" height="2" rx="0" fill="#000000" fill-opacity="1"/></g><g><rect x="6" y="12" width="10" height="2" rx="0" fill="#000000" fill-opacity="1"/></g><g><rect x="6" y="16" width="6" height="2" rx="0" fill="#000000" fill-opacity="1"/></g><g></g></g></svg>