<svg xmlns="http://www.w3.org/2000/svg" xmlns:xlink="http://www.w3.org/1999/xlink" fill="none" version="1.1" width="32" height="32" viewBox="0 0 32 32"><defs><clipPath id="master_svg0_134_24579"><rect x="0" y="0" width="32" height="32" rx="0"/></clipPath></defs><g clip-path="url(#master_svg0_134_24579)"><g><path d="M13,11L7,11C5.34315,11,4,12.34315,4,14L4,16L6,16L6,14C6,13.44771,6.44772,13,7,13L13,13C13.55229,13,14,13.44771,14,14L14,16L16,16L16,14C16,12.34315,14.6569,11,13,11Z" fill="#000000" fill-opacity="1"/></g><g><path d="M10,10C12.20914,10,14,8.20914,14,6C14,3.79086,12.20914,2,10,2C7.79086,2,6,3.79086,6,6C6,8.20914,7.79086,10,10,10ZM10,4C11.104569999999999,4,12,4.89543,12,6C12,7.10457,11.104569999999999,8,10,8C8.895430000000001,8,8,7.10457,8,6C8,4.89543,8.895430000000001,4,10,4Z" fill="#000000" fill-opacity="1"/></g><g><rect x="20" y="4" width="10" height="2" rx="0" fill="#000000" fill-opacity="1"/></g><g><rect x="20" y="8" width="10" height="2" rx="0" fill="#000000" fill-opacity="1"/></g><g><rect x="20" y="12" width="6" height="2" rx="0" fill="#000000" fill-opacity="1"/></g><g><path d="M5,30L3,30C1.8954309999999999,30,1,29.104570000000002,1,28L1,22C1,20.895431,1.8954309999999999,20,3,20L6,20L6,22L3,22L3,24L5,24C6.10457,24,7,24.89543,7,26L7,28C7,29.104570000000002,6.10457,30,5,30ZM3,26L3,28L5,28L5,26L3,26Z" fill="#000000" fill-opacity="1"/></g><g><path d="M13,30L11,30C9.895431,30,9,29.104570000000002,9,28L9,22C9,20.895431,9.895431,20,11,20L13,20C14.104569999999999,20,15,20.895431,15,22L15,28C15,29.104570000000002,14.104569999999999,30,13,30ZM11,22L11,28L13,28L13,22L11,22Z" fill="#000000" fill-opacity="1"/></g><g><path d="M21,30L19,30C17.895431,30,17,29.104570000000002,17,28L17,22C17,20.895431,17.895431,20,19,20L21,20C22.10457,20,23,20.895431,23,22L23,28C23,29.104570000000002,22.10457,30,21,30ZM19,22L19,28L21,28L21,22L19,22Z" fill="#000000" fill-opacity="1"/></g><g><path d="M29,30L27,30C25.895431,30,25,29.104570000000002,25,28L25,22C25,20.895431,25.895431,20,27,20L29,20C30.10457,20,31,20.895431,31,22L31,28C31,29.104570000000002,30.10457,30,29,30ZM27,22L27,28L29,28L29,22L27,22Z" fill="#000000" fill-opacity="1"/></g><g></g></g></svg>