<svg xmlns="http://www.w3.org/2000/svg" xmlns:xlink="http://www.w3.org/1999/xlink" fill="none" version="1.1" width="32" height="32" viewBox="0 0 32 32"><defs><clipPath id="master_svg0_134_12978"><rect x="0" y="0" width="32" height="32" rx="0"/></clipPath></defs><g clip-path="url(#master_svg0_134_12978)"><g><path d="M28,2L4,2C2.895431,2,2,2.895431,2,4L2,28C2,29.1046,2.895431,30,4,30L28,30C29.1046,30,30,29.1046,30,28L30,4C30,2.895431,29.1046,2,28,2ZM6,7.4141L7.4141,6L14,12.5859L12.5859,14L6,7.4141ZM26,16L24,16L24,9.414100000000001L17.464399999999998,15.95C16.5238,16.8857,15.9965,18.1587,16,19.4854L16,26L14,26L14,19.4854C13.9948,17.6278,14.733,15.8454,16.05,14.5354L22.5859,8L16,8L16,6L26,6L26,16Z" fill="#000000" fill-opacity="1"/></g><g></g><g></g></g></svg>