<svg xmlns="http://www.w3.org/2000/svg" xmlns:xlink="http://www.w3.org/1999/xlink" fill="none" version="1.1" width="32" height="32" viewBox="0 0 32 32"><defs><clipPath id="master_svg0_134_13191"><rect x="0" y="0" width="32" height="32" rx="0"/></clipPath></defs><g clip-path="url(#master_svg0_134_13191)"><g><path d="M24,30L8,30C6.89591,29.99884,6.00115824,29.10409,6,28L6,24C6.00115728,22.89591,6.89591,22.00115776,8,22L24,22C25.1041,22.00115776,25.9988,22.89591,26,24L26,28C25.9988,29.10409,25.1041,29.99884,24,30ZM8,24L8,28L24,28L24,24L8,24Z" fill="#000000" fill-opacity="1"/></g><g><rect x="2" y="18" width="28" height="2" rx="0" fill="#000000" fill-opacity="1"/></g><g><path d="M20,14L12,14C10.89591,13.998840000000001,10.00115776,13.10409,10,12L10,8C10.00115776,6.89591,10.89591,6.00115728,12,6L20,6C21.104100000000003,6.00115728,21.9988,6.89591,22,8L22,12C21.9988,13.10409,21.104100000000003,13.998840000000001,20,14ZM12,8L12,12L20,12L20,8L12,8Z" fill="#000000" fill-opacity="1"/></g><g><rect x="2" y="2" width="28" height="2" rx="0" fill="#000000" fill-opacity="1"/></g><g></g></g></svg>