<svg xmlns="http://www.w3.org/2000/svg" xmlns:xlink="http://www.w3.org/1999/xlink" fill="none" version="1.1" width="32" height="32" viewBox="0 0 32 32"><defs><clipPath id="master_svg0_134_13206"><rect x="0" y="0" width="32" height="32" rx="0"/></clipPath></defs><g clip-path="url(#master_svg0_134_13206)"><g><path d="M30,23L24,23C22.895955999999998,22.9987,22.00126839,22.104,22,21L22,11C22.00110054,9.895887,22.895887,9.00110245,24,9L30,9L30,11L24,11L24,21L30,21L30,23Z" fill="#000000" fill-opacity="1"/></g><g><path d="M18,23L14,23C12.895956,22.9987,12.00126839,22.104,12,21L12,11C12.00110245,9.895887,12.895887,9.00110245,14,9L18,9C19.10411,9.00110245,19.9989,9.895887,20,11L20,21C19.998730000000002,22.104,19.10404,22.9987,18,23ZM14,11L14,21L18,21L18,11L14,11Z" fill="#000000" fill-opacity="1"/></g><g><path d="M6,23L2,23L2,9L6,9C8.20811,9.00247955,9.99752,10.79189,10,13L10,19C9.99752,21.2081,8.20811,22.997500000000002,6,23ZM4,21L6,21C7.10411,20.9989,7.9989,20.104100000000003,8,19L8,13C7.9989,11.89589,7.10411,11.001100000000001,6,11L4,11L4,21Z" fill="#000000" fill-opacity="1"/></g><g></g></g></svg>