<svg xmlns="http://www.w3.org/2000/svg" xmlns:xlink="http://www.w3.org/1999/xlink" fill="none" version="1.1" width="32" height="32" viewBox="0 0 32 32"><defs><clipPath id="master_svg0_134_13301"><rect x="0" y="0" width="32" height="32" rx="0"/></clipPath></defs><g clip-path="url(#master_svg0_134_13301)"><g><path d="M24,30C20.68629,30,18,27.31371,18,24C18,20.68629,20.68629,18,24,18C27.31371,18,30,20.68629,30,24C29.9962,27.31213,27.31213,29.9962,24,30ZM24,20C21.79086,20,20,21.79086,20,24C20,26.209139999999998,21.79086,28,24,28C26.209139999999998,28,28,26.209139999999998,28,24C27.99752,21.79189,26.208109999999998,20.00248,24,20Z" fill="#000000" fill-opacity="1"/></g><g><rect x="8" y="22" width="8" height="2" rx="0" fill="#000000" fill-opacity="1"/></g><g><rect x="8" y="16" width="10" height="2" rx="0" fill="#000000" fill-opacity="1"/></g><g><path d="M16,27.999955723571777L6,27.999955723571777L6,3.9999957235717774L14,3.9999957235717774L14,9.999995723571777C14.0032,11.103245723571778,14.8968,11.996815723571777,16,11.999955723571777L22,11.999955723571777L22,14.999955723571777L24,14.999955723571777L24,9.999995723571777C24.0073,9.734005723571777,23.8976,9.478195723571776,23.7,9.299995723571778L16.7,2.2999997235717773C16.5218,2.102328723571777,16.266,1.9926815035717773,16,1.9999999995717774L6,1.9999999995717774C4.896753,2.0031855135717773,4.00318575,2.8967527235717774,4,3.9999957235717774L4,27.999955723571777C4.00318575,29.103255723571777,4.896753,29.996855723571777,6,29.999955723571777L16,29.999955723571777L16,27.999955723571777ZM16,4.399995723571777L21.6,9.999995723571777L16,9.999995723571777L16,4.399995723571777Z" fill="#000000" fill-opacity="1"/></g><g></g></g></svg>