<svg xmlns="http://www.w3.org/2000/svg" xmlns:xlink="http://www.w3.org/1999/xlink" fill="none" version="1.1" width="32" height="32" viewBox="0 0 32 32"><defs><clipPath id="master_svg0_134_13315"><rect x="0" y="0" width="32" height="32" rx="0"/></clipPath></defs><g clip-path="url(#master_svg0_134_13315)"><g><path d="M23,30L20.8613,28.987299999999998C19.11775,28.156399999999998,18.00525665,26.3992,18,24.4678L18,18L28,18L28,24.4678C27.99493,26.39938,26.88241,28.1568,25.1387,28.9878L23,30ZM20,20L20,24.4678C20.00323,25.62642,20.67076,26.68048,21.7168,27.1787L23,27.786099999999998L24.2832,27.1787C25.32924,26.68048,25.996769999999998,25.62642,26,24.4678L26,20L20,20Z" fill="#000000" fill-opacity="1"/></g><g><path d="M16,27.999955723571777L6,27.999955723571777L6,3.9999957235717774L14,3.9999957235717774L14,9.999995723571777C14.0032,11.103245723571778,14.8968,11.996815723571777,16,11.999955723571777L22,11.999955723571777L22,14.999955723571777L24,14.999955723571777L24,9.999995723571777C24.0073,9.734005723571777,23.8976,9.478195723571776,23.7,9.299995723571778L16.7,2.2999997235717773C16.5218,2.102328723571777,16.266,1.9926815035717773,16,1.9999999995717774L6,1.9999999995717774C4.896753,2.0031855135717773,4.00318575,2.8967527235717774,4,3.9999957235717774L4,27.999955723571777C4.00318575,29.103255723571777,4.896753,29.996855723571777,6,29.999955723571777L16,29.999955723571777L16,27.999955723571777ZM16,4.399995723571777L21.6,9.999995723571777L16,9.999995723571777L16,4.399995723571777Z" fill="#000000" fill-opacity="1"/></g><g></g></g></svg>