<svg xmlns="http://www.w3.org/2000/svg" xmlns:xlink="http://www.w3.org/1999/xlink" fill="none" version="1.1" width="32" height="32" viewBox="0 0 32 32"><defs><clipPath id="master_svg0_134_13293"><rect x="0" y="0" width="32" height="32" rx="0"/></clipPath></defs><g clip-path="url(#master_svg0_134_13293)"><g><path d="M30,18L30,16L24,16L24,26L26,26L26,22L29,22L29,20L26,20L26,18L30,18Z" fill="#000000" fill-opacity="1"/></g><g><path d="M19,26L15,26L15,16L19,16C20.656100000000002,16.00181961,21.998179999999998,17.3439,22,19L22,23C21.998179999999998,24.656100000000002,20.656100000000002,25.998179999999998,19,26ZM17,24L19,24C19.552030000000002,23.99939,19.99939,23.552030000000002,20,23L20,19C19.99939,18.44797,19.552030000000002,18.00061,19,18L17,18L17,24Z" fill="#000000" fill-opacity="1"/></g><g><path d="M11,16L6,16L6,26L8,26L8,23L11,23C12.103950000000001,22.99851,12.99851,22.10395,13,21L13,18C12.99873,16.895954,12.104040000000001,16.00126648,11,16ZM8,21L8,18L11,18L11.001000000000001,21L8,21Z" fill="#000000" fill-opacity="1"/></g><g><path d="M22,13.999955723571777L22,9.999995723571777C22.0073,9.734005723571777,21.8976,9.478195723571776,21.7,9.299995723571778L14.7,2.2999997235717773C14.5218,2.102328723571777,14.266,1.9926815035717773,14,1.9999999995717774L4,1.9999999995717774C2.896775,2.0032398735717774,2.00323963,2.8967757235717775,2,3.9999957235717774L2,27.999955723571777C2,29.104555723571778,2.895431,29.999955723571777,4,29.999955723571777L20,29.999955723571777L20,27.999955723571777L4,27.999955723571777L4,3.9999957235717774L12,3.9999957235717774L12,9.999995723571777C12.0032,11.103225723571777,12.8968,11.996755723571777,14,11.999955723571777L20,11.999955723571777L20,13.999955723571777L22,13.999955723571777ZM14,9.999995723571777L14,4.399995723571777L19.6,9.999995723571777L14,9.999995723571777Z" fill="#000000" fill-opacity="1"/></g><g></g></g></svg>