<svg xmlns="http://www.w3.org/2000/svg" xmlns:xlink="http://www.w3.org/1999/xlink" fill="none" version="1.1" width="32" height="32" viewBox="0 0 32 32"><defs><clipPath id="master_svg0_134_13213"><rect x="0" y="0" width="32" height="32" rx="0"/></clipPath></defs><g clip-path="url(#master_svg0_134_13213)"><g><path d="M25.7,9.3L18.7,2.3C18.5,2.0999999,18.3,2,18,2L8,2C6.9,2,6,2.9,6,4L6,28C6,29.1,6.9,30,8,30L24,30C25.1,30,26,29.1,26,28L26,10C26,9.7,25.9,9.5,25.7,9.3ZM18,4.4L23.6,10L18,10L18,4.4ZM24,28L8,28L8,4L16,4L16,10C16,11.1,16.9,12,18,12L24,12L24,28Z" fill="#000000" fill-opacity="1"/></g><g><rect x="10" y="22" width="12" height="2" rx="0" fill="#000000" fill-opacity="1"/></g><g><rect x="10" y="16" width="12" height="2" rx="0" fill="#000000" fill-opacity="1"/></g><g></g></g></svg>