<svg xmlns="http://www.w3.org/2000/svg" xmlns:xlink="http://www.w3.org/1999/xlink" fill="none" version="1.1" width="32" height="32" viewBox="0 0 32 32"><defs><clipPath id="master_svg0_134_13395"><rect x="0" y="0" width="32" height="32" rx="0"/></clipPath></defs><g clip-path="url(#master_svg0_134_13395)"><g><path d="M28.3,20L27.391,28.611L26,20L24,20L22.609,28.611L21.7,20L20,20L21.36,30L23.64,30L25,21.626L26.36,30L28.64,30L30,20L28.3,20Z" fill="#000000" fill-opacity="1"/></g><g><path d="M4,20L4,22L8.586,22L2,28.586L3.4139999999999997,30L10,23.414L10,28L12,28L12,20L4,20Z" fill="#000000" fill-opacity="1"/></g><g><path d="M25.707,9.293L18.707,2.293C18.519399999999997,2.105394,18.2651,2,18,2L8,2C6.895887,2.00110245,6.00110245,2.895887,6,4L6,16L8,16L8,4L16,4L16,10C16.0011,11.10411,16.895899999999997,11.9989,18,12L24,12L24,16L26,16L26,10C25.9999,9.73481,25.8946,9.48049,25.707,9.293ZM18,10L18,4.4140999999999995L23.5859,10L18,10Z" fill="#000000" fill-opacity="1"/></g><g></g></g></svg>