<svg xmlns="http://www.w3.org/2000/svg" xmlns:xlink="http://www.w3.org/1999/xlink" fill="none" version="1.1" width="32" height="32" viewBox="0 0 32 32"><defs><clipPath id="master_svg0_134_13327"><rect x="0" y="0" width="32" height="32" rx="0"/></clipPath></defs><g clip-path="url(#master_svg0_134_13327)"><g><path d="M19.4141,30.000014727783203L15,30.000014727783203L15,25.585714727783206L20.0337,20.551994727783203C20.01142,20.368834727783202,20.00017,20.184504727783203,20,20.000004727783203C19.99824,17.165854727783202,22.35007,14.896863027783203,25.182299999999998,15.000211717783204C28.0146,15.103562727783203,30.1948,17.537934727783203,29.9865,20.364404727783203C29.7782,23.190884727783203,27.2646,25.279314727783202,24.4478,24.966304727783204L19.4141,30.000014727783203ZM17,28.000014727783203L18.5859,28.000014727783203L23.792,22.793704727783204L24.3315,22.917504727783204C26.145,23.349544727783204,27.9157,22.059884727783203,28.0608,20.201324727783202C28.2059,18.342764727783205,26.6569,16.793864727783202,24.79834,16.939164727783204C22.939799999999998,17.084464727783203,21.65029,18.855274727783204,22.0825,20.668704727783204L22.2061,21.208004727783205L17,26.414314727783204L17,28.000014727783203Z" fill="#000000" fill-opacity="1"/></g><g><ellipse cx="25" cy="20" rx="1" ry="1" fill="#000000" fill-opacity="1"/></g><g><rect x="8" y="6" width="12" height="2" rx="0" fill="#000000" fill-opacity="1"/></g><g><rect x="8" y="10" width="12" height="2" rx="0" fill="#000000" fill-opacity="1"/></g><g><rect x="8" y="14" width="6" height="2" rx="0" fill="#000000" fill-opacity="1"/></g><g><rect x="8" y="24" width="4" height="2" rx="0" fill="#000000" fill-opacity="1"/></g><g><path d="M12,30L6,30C4.89591,29.9988,4.00115824,29.1041,4,28L4,4C4.00115776,2.8959099999999998,4.89591,2.00115776,6,2L22,2C23.1041,2.00115633,23.9988,2.895909,24,4L24,13L22,13L22,4L6,4L6,28L12,28L12,30Z" fill="#000000" fill-opacity="1"/></g><g></g></g></svg>