<svg xmlns="http://www.w3.org/2000/svg" xmlns:xlink="http://www.w3.org/1999/xlink" fill="none" version="1.1" width="32" height="32" viewBox="0 0 32 32"><defs><clipPath id="master_svg0_134_13285"><rect x="0" y="0" width="32" height="32" rx="0"/></clipPath></defs><g clip-path="url(#master_svg0_134_13285)"><g><path d="M18,31L6,31C4.9,31,4,30.1,4,29L4,12L6,12L6,29L18,29L18,31Z" fill="#000000" fill-opacity="1"/></g><g><path d="M22,27L10,27C8.9,27,8,26.1,8,25L8,8L10,8L10,25L22,25L22,27Z" fill="#000000" fill-opacity="1"/></g><g><rect x="16" y="16" width="8" height="2" rx="0" fill="#000000" fill-opacity="1"/></g><g><path d="M27.7,9.3L20.7,2.3C20.5,2.0999999,20.3,2,20,2L14,2C12.9,2,12,2.9,12,4L12,21C12,22.1,12.9,23,14,23L26,23C27.1,23,28,22.1,28,21L28,10C28,9.7,27.9,9.5,27.7,9.3ZM20,4.4L25.6,10L20,10L20,4.4ZM26,21L14,21L14,4L18,4L18,10C18,11.1,18.9,12,20,12L26,12L26,21Z" fill="#000000" fill-opacity="1"/></g><g></g></g></svg>