<svg xmlns="http://www.w3.org/2000/svg" xmlns:xlink="http://www.w3.org/1999/xlink" fill="none" version="1.1" width="32" height="32" viewBox="0 0 32 32"><defs><clipPath id="master_svg0_134_13492"><rect x="0" y="0" width="32" height="32" rx="0"/></clipPath></defs><g clip-path="url(#master_svg0_134_13492)"><g><path d="M23.000001141357423,10.414099523162843L26.000001141357423,7.414099523162841L24.58590114135742,5.999999523162842L21.292901141357422,9.292999523162841C21.105401141357422,9.480499523162841,20.999901141357423,9.734899523162841,20.999901141357423,9.999999523162842L20.999901141357423,13.999999523162842L13.925701141357422,13.999999523162842L15.069301141357421,29.999999523162842L23.93060114135742,29.999999523162842L25.07420114135742,13.999999523162842L23.000001141357423,13.999999523162842L23.000001141357423,10.414099523162843ZM22.06930114135742,27.999999523162842L16.93060114135742,27.999999523162842L16.07420114135742,15.999999523162842L22.92580114135742,15.999999523162842L22.06930114135742,27.999999523162842Z" fill="#000000" fill-opacity="1"/></g><g><path d="M15,1L10,1C9.4478,1,9,1.4478,9,2L9,9.3706C7.9326,9.9761,6,11.5483,6,15L6,29C6,29.5527,6.4478,30,7,30L12,30L12,28L8,28L8,15Q8,11.2464,11,10.7207L11,3L14,3L14,10L16,10L16,2C16,1.4478,15.5522,1,15,1Z" fill="#000000" fill-opacity="1"/></g><g></g></g></svg>