<svg xmlns="http://www.w3.org/2000/svg" xmlns:xlink="http://www.w3.org/1999/xlink" fill="none" version="1.1" width="32" height="32" viewBox="0 0 32 32"><defs><clipPath id="master_svg0_134_13498"><rect x="0" y="0" width="32" height="32" rx="0"/></clipPath></defs><g clip-path="url(#master_svg0_134_13498)"><g><path d="M23.000001141357423,10.414099523162843L26.000001141357423,7.414099523162841L24.58590114135742,5.999999523162842L21.292901141357422,9.292999523162841C21.105401141357422,9.480499523162841,20.999901141357423,9.734899523162841,20.999901141357423,9.999999523162842L20.999901141357423,13.999999523162842L13.925701141357422,13.999999523162842L15.069301141357421,29.999999523162842L23.93060114135742,29.999999523162842L25.07420114135742,13.999999523162842L23.000001141357423,13.999999523162842L23.000001141357423,10.414099523162843ZM22.06930114135742,27.999999523162842L16.93060114135742,27.999999523162842L16.07420114135742,15.999999523162842L22.92580114135742,15.999999523162842L22.06930114135742,27.999999523162842Z" fill="#000000" fill-opacity="1"/></g><g><path d="M16,7.0513L16,4C16,3.4478,15.5522,3,15,3L9,3C8.4478,3,8,3.4478,8,4L8,7.0513C6.7229,8.1924,6,9.787099999999999,6,11.5L6,29C6,29.5522,6.4478,30,7,30L12,30L12,28L8,28L8,11.5Q8,9.144,10,8.02L10,5L14,5L14,8.02Q16,9.144,16,11.5L16,12L18,12L18,11.5C18,9.787099999999999,17.2771,8.1924,16,7.0513Z" fill="#000000" fill-opacity="1"/></g><g></g></g></svg>