<svg xmlns="http://www.w3.org/2000/svg" xmlns:xlink="http://www.w3.org/1999/xlink" fill="none" version="1.1" width="32" height="32" viewBox="0 0 32 32"><defs><clipPath id="master_svg0_134_13504"><rect x="0" y="0" width="32" height="32" rx="0"/></clipPath></defs><g clip-path="url(#master_svg0_134_13504)"><g><ellipse cx="22" cy="16" rx="2" ry="2" fill="#000000" fill-opacity="1"/></g><g><path d="M30,15.000005384063721L27.91,15.000005384063721C27.4206,12.11643538406372,24.9248,10.004935384063721,22,9.99999538406372L21.978,10.00100538406372C19.5102,6.70393238406372,15.271,5.260620384063721,11.30402,6.366818384063721C7.33702,7.473015384063721,4.45641,10.90167538406372,4.050800000000001,15.000005384063721L2,15.000005384063721L2,17.00000538406372L4.050800000000001,17.00000538406372C4.45641,21.09830538406372,7.33702,24.52700538406372,11.30402,25.63320538406372C15.271,26.73940538406372,19.5102,25.296105384063722,21.978,21.99900538406372L22,22.00000538406372C24.9248,21.99510538406372,27.4206,19.88360538406372,27.91,17.00000538406372L30,17.00000538406372L30,15.000005384063721ZM14,7.999995384063721C16.1655,8.002725384063721,18.2369,8.88576538406372,19.7383,10.44630538406372C17.8178,11.23301538406372,16.438499999999998,12.95420538406372,16.089100000000002,15.000005384063721L6.0693,15.000005384063721C6.576,11.00409538406372,9.972100000000001,8.00653538406372,14,7.999995384063721ZM14,24.00000538406372C9.972100000000001,23.99350538406372,6.576,20.995905384063718,6.0693,17.00000538406372L16.0893,17.00000538406372C16.4387,19.04580538406372,17.817999999999998,20.767005384063722,19.7385,21.55370538406372C18.237,23.11430538406372,16.165599999999998,23.997305384063722,14,24.00000538406372ZM22,20.00000538406372C19.7909,20.00000538406372,18,18.20910538406372,18,16.00000538406372C18,13.790865384063721,19.7909,11.99999538406372,22,11.99999538406372C24.2091,11.99999538406372,26,13.790865384063721,26,16.00000538406372C25.9975,18.20810538406372,24.2081,19.99750538406372,22,20.00000538406372Z" fill="#000000" fill-opacity="1"/></g><g></g></g></svg>