<svg xmlns="http://www.w3.org/2000/svg" xmlns:xlink="http://www.w3.org/1999/xlink" fill="none" version="1.1" width="32" height="32" viewBox="0 0 32 32"><defs><clipPath id="master_svg0_134_13607"><rect x="0" y="0" width="32" height="32" rx="0"/></clipPath></defs><g clip-path="url(#master_svg0_134_13607)"><g><path d="M30.000005616760255,16.000000968933108C30.019305616760253,7.291320968933105,22.183305616760254,0.6687109689331054,13.599605616760254,2.1391159689331056C5.015965616760254,3.609520968933105,-0.16894438323974592,12.462700968933106,2.747808616760254,20.668400968933106C5.6645556167602535,28.874100968933107,15.274005616760254,32.46850096893311,22.860005616760255,28.191400968933106L22.976505616760253,28.216800968933107L23.001405616760255,28.105500968933107C27.326905616760254,25.607900968933105,29.993905616760255,20.994800968933106,30.000005616760255,16.000000968933108ZM3.9999956167602537,16.000000968933108C4.003875616760254,14.987300968933106,4.136605616760254,13.979200968933105,4.394995616760253,13.000000968933106L8.638195616760253,13.000000968933106L13.630005616760254,17.160000968933105L11.720795616760254,19.705900968933104C11.127415616760254,20.503200968933104,11.206275616760253,21.614600968933104,11.906295616760254,22.320100968933104L14.000005616760253,24.414100968933106L14.000005616760253,27.819300968933106C8.233065616760253,26.840600968933106,4.010085616760254,21.849400968933107,3.9999956167602537,16.000000968933108ZM13.320005616760254,20.906200968933106L16.370005616760253,16.840000968933104L9.361795616760254,11.000000968933106L5.105495616760254,11.000000968933106C8.214675616760253,4.179850968933105,16.758405616760253,1.8666162689331054,22.883805616760252,6.186500968933106L22.279305616760254,8.000000968933104L16.585905616760254,8.000000968933104L13.543005616760254,11.043000968933105L22.896505616760255,19.356400968933105L21.248005616760253,26.774900968933107C19.615305616760253,27.579100968933105,17.820005616760255,27.998200968933105,16.000005616760255,28.000000968933104L16.000005616760255,23.585900968933107L13.320005616760254,20.906200968933106ZM23.635005616760253,25.250500968933107L24.848305616760253,19.790500968933106C25.005205616760254,19.082400968933104,24.766705616760255,18.344900968933107,24.224805616760253,17.862800968933108L16.457005616760256,10.957000968933105L17.414105616760253,10.000000968933106L22.279305616760254,10.000000968933106C23.140405616760255,10.000620968933106,23.905105616760252,9.449460968933106,24.176805616760255,8.632300968933105L24.530005616760253,7.572300968933106C29.492605616760255,12.580000968933106,29.078105616760254,20.769500968933105,23.635005616760253,25.250500968933107L23.635005616760253,25.250500968933107Z" fill="#000000" fill-opacity="1"/></g><g></g></g></svg>