<svg xmlns="http://www.w3.org/2000/svg" xmlns:xlink="http://www.w3.org/1999/xlink" fill="none" version="1.1" width="32" height="32" viewBox="0 0 32 32"><defs><clipPath id="master_svg0_134_13646"><rect x="0" y="0" width="32" height="32" rx="0"/></clipPath></defs><g clip-path="url(#master_svg0_134_13646)"><g><rect x="17" y="22" width="2" height="2" rx="0" fill="#000000" fill-opacity="1"/></g><g><rect x="17" y="18" width="2" height="2" rx="0" fill="#000000" fill-opacity="1"/></g><g><rect x="14" y="24" width="3" height="2" rx="0" fill="#000000" fill-opacity="1"/></g><g><path d="M16,2C8.26801,2,2,8.26801,2,16C2,23.732,8.26801,30,16,30C23.732,30,30,23.732,30,16C29.9913,8.27162,23.7284,2.00870943,16,2ZM4.7,20L6,20L10.1772,22.6C10.63555,22.8852,11.2375,22.7551,11.5372,22.3061L12.545,20.7943C12.8093,20.3977,12.757,19.8696,12.42,19.5326L10,17.111800000000002L11,14L16.323,14C16.7319,14,17.099600000000002,13.7512,17.2515,13.3716L18.8333,9.417C18.9395,9.15171,18.9271,8.853670000000001,18.7993,8.598099999999999L16.512900000000002,4.0259C25.5234,4.38621,30.9121,14.2061,26.3762,22L23,22C22.4477,22,22,22.4477,22,23L22,26.3765C15.5104,30.1545,7.18533,27.086,4.7,20Z" fill="#000000" fill-opacity="1"/></g><g></g></g></svg>