<svg xmlns="http://www.w3.org/2000/svg" xmlns:xlink="http://www.w3.org/1999/xlink" fill="none" version="1.1" width="32" height="32" viewBox="0 0 32 32"><defs><clipPath id="master_svg0_134_13654"><rect x="0" y="0" width="32" height="32" rx="0"/></clipPath></defs><g clip-path="url(#master_svg0_134_13654)"><g><path d="M16,7C14.34315,7,13,5.65685,13,4C13,2.34315,14.34315,1,16,1C17.65685,1,19,2.34315,19,4C18.998179999999998,5.6561,17.656100000000002,6.99818,16,7ZM16,3C15.44771,3,15,3.44772,15,4C15,4.55228,15.44771,5,16,5C16.55228,5,17,4.55228,17,4C16.99945,3.44794,16.55206,3.00055,16,3Z" fill="#000000" fill-opacity="1"/></g><g><path d="M11,30C9.34315,30,8,28.65685,8,27C8,25.34315,9.34315,24,11,24C12.65685,24,14,25.34315,14,27C13.99818,28.656100000000002,12.6561,29.998179999999998,11,30ZM11,26C10.44771,26,10,26.44772,10,27C10,27.55228,10.44771,28,11,28C11.55229,28,12,27.55228,12,27C11.99945,26.44794,11.55206,26.00055,11,26Z" fill="#000000" fill-opacity="1"/></g><g><path d="M7,11C5.34315,11,4,9.65685,4,8C4,6.34315,5.34315,5,7,5C8.65685,5,10,6.34315,10,8C9.99818,9.6561,8.6561,10.99818,7,11ZM7,7C6.44771,7,6,7.44772,6,8C6,8.55228,6.44771,9,7,9C7.55229,9,8,8.55228,8,8C7.9994499999999995,7.44794,7.55206,7.0005500000000005,7,7Z" fill="#000000" fill-opacity="1"/></g><g><path d="M21,30C19.34315,30,18,28.65685,18,27C18,25.34315,19.34315,24,21,24C22.65685,24,24,25.34315,24,27C23.998179999999998,28.656100000000002,22.656100000000002,29.998179999999998,21,30ZM21,26C20.44771,26,20,26.44772,20,27C20,27.55228,20.44771,28,21,28C21.55229,28,22,27.55228,22,27C21.99945,26.44794,21.55206,26.00055,21,26Z" fill="#000000" fill-opacity="1"/></g><g><path d="M25,11C23.34315,11,22,9.65685,22,8C22,6.34315,23.34315,5,25,5C26.65685,5,28,6.34315,28,8C27.998179999999998,9.6561,26.656100000000002,10.99818,25,11ZM25,7C24.44771,7,24,7.44772,24,8C24,8.55228,24.44771,9,25,9C25.55228,9,26,8.55228,26,8C25.99945,7.44794,25.55206,7.0005500000000005,25,7Z" fill="#000000" fill-opacity="1"/></g><g><path d="M4,21C2.34315,21,1,19.65685,1,18C1,16.34315,2.34315,15,4,15C5.65685,15,7,16.34315,7,18C6.99818,19.656100000000002,5.6561,20.998179999999998,4,21ZM4,17C3.44771,17,3,17.44772,3,18C3,18.55228,3.44771,19,4,19C4.55229,19,5,18.55228,5,18C4.9994499999999995,17.44794,4.55206,17.00055,4,17Z" fill="#000000" fill-opacity="1"/></g><g><path d="M28,21C26.34315,21,25,19.65685,25,18C25,16.34315,26.34315,15,28,15C29.65685,15,31,16.34315,31,18C30.998179999999998,19.656100000000002,29.656100000000002,20.998179999999998,28,21ZM28,17C27.44771,17,27,17.44772,27,18C27,18.55228,27.44771,19,28,19C28.55229,19,29,18.55228,29,18C28.99945,17.44794,28.55206,17.00055,28,17Z" fill="#000000" fill-opacity="1"/></g><g><path d="M16,22C12.68629,22,10,19.31371,10,16C10,12.68629,12.68629,10,16,10C19.31371,10,22,12.68629,22,16C21.9962,19.31213,19.31213,21.9962,16,22ZM16,12C13.79086,12,12,13.79086,12,16C12,18.209139999999998,13.79086,20,16,20C18.209139999999998,20,20,18.209139999999998,20,16C19.99752,13.79189,18.208109999999998,12.00248,16,12Z" fill="#000000" fill-opacity="1"/></g><g></g></g></svg>