<svg xmlns="http://www.w3.org/2000/svg" xmlns:xlink="http://www.w3.org/1999/xlink" fill="none" version="1.1" width="32" height="32" viewBox="0 0 32 32"><defs><clipPath id="master_svg0_134_24615"><rect x="0" y="0" width="32" height="32" rx="0"/></clipPath></defs><g clip-path="url(#master_svg0_134_24615)"><g><path d="M11.81639980621338,4.76460008392334L11.132799806213379,2.88700008392334C9.607369806213379,3.4510680839233396,8.19209980621338,4.27706008392334,6.950699806213379,5.327800083923339L8.235799806213379,6.8593000839233405C9.298359806213378,5.9580500839233395,10.51007980621338,5.24918008392334,11.81639980621338,4.76460008392334Z" fill="#000000" fill-opacity="1"/></g><g><path d="M5.591299850463868,10L3.8599998504638675,9C3.052694850463867,10.422789999999999,2.498406850463867,11.97488,2.221799850463867,13.5872L4.189499850463867,13.9341C4.4262298504638675,12.55166,4.900499850463867,11.22064,5.591299850463868,10Z" fill="#000000" fill-opacity="1"/></g><g><path d="M16,26C21.52285,26,26,21.5228,26,16C26,10.47715,21.52285,6,16,6L16,26Z" fill="#000000" fill-opacity="1"/></g><g><path d="M30.00000005264282,16C30.00000005264282,8.26801,23.73200005264282,2,16.00000005264282,2L16.00000005264282,4C21.833400052642823,3.99679,26.823100052642822,8.19131,27.822600052642823,13.9385C28.82200005264282,19.6856,25.54130005264282,25.3184,20.049300052642824,27.2847C19.88110005264282,27.3447,19.71530005264282,27.4141,19.544900052642824,27.4668C19.293700052642823,27.5439,19.034900052642822,27.603,18.776600052642824,27.6641C18.650400052642823,27.6941,18.526600052642824,27.7334,18.39940005264282,27.7593C18.10860005264282,27.8184,17.81100005264282,27.8569,17.513200052642823,27.8945C17.41320005264282,27.9067,17.31490005264282,27.9287,17.214400052642823,27.9385C12.371200052642822,28.4307,7.710380052642822,25.9484,5.416000052642822,21.6548C5.349600052642822,21.5278,5.283000052642823,21.4014,5.220700052642822,21.2705C5.166000052642822,21.1582,5.114700052642823,21.0435,5.063500052642823,20.9292C4.659210052642822,19.9902,4.366050052642822,19.0071,4.190000052642822,18L2.2223000526428223,18.4131C2.337333052642822,19.0522,2.496957052642822,19.6825,2.7000000526428223,20.2993L2.674900052642822,20.3076C4.533380052642823,26.0944,9.922080052642823,30.0141,16.00000005264282,30Q16.71340005264282,30,17.415000052642824,29.9287C17.550000052642822,29.915,17.680400052642824,29.8867,17.81450005264282,29.8687C18.143100052642822,29.8263,18.471900052642823,29.7848,18.79590005264282,29.7193C18.97590005264282,29.6827,19.149200052642822,29.6285,19.32670005264282,29.5855C19.595200052642824,29.5196,19.865000052642824,29.4605,20.129400052642822,29.379C20.375700052642824,29.3028,20.612500052642822,29.2066,20.852800052642824,29.1178C21.032800052642823,29.0514,21.216300052642822,28.9967,21.394000052642824,28.9225L21.393100052642822,28.92C26.605700052642824,26.7434,30.00000005264282,21.6482,30.00000005264282,16Z" fill="#000000" fill-opacity="1"/></g><g></g></g></svg>