<svg xmlns="http://www.w3.org/2000/svg" xmlns:xlink="http://www.w3.org/1999/xlink" fill="none" version="1.1" width="32" height="32" viewBox="0 0 32 32"><defs><clipPath id="master_svg0_134_13716"><rect x="0" y="0" width="32" height="32" rx="0"/></clipPath></defs><g clip-path="url(#master_svg0_134_13716)"><g><path d="M23.624953944778444,22.58749942779541C21.926553944778444,22.60509942779541,20.29685394477844,21.91709942779541,19.124953944778444,20.68749942779541L16.024953944778442,17.48749942779541L12.924953944778443,20.68749942779541C10.406763944778442,23.18749942779541,6.343233944778443,23.18749942779541,3.8249939447784422,20.68749942779541C2.6653769447784423,19.39674942779541,2.0242321487784425,17.72264942779541,2.0249989027784423,15.98749942779541C2.0134134447784424,14.231509427795409,2.696358944778442,12.54211942779541,3.9249939447784423,11.28749942779541C6.404163944778443,8.78750142779541,10.445833944778443,8.78750142779541,12.924953944778443,11.28749942779541L16.024953944778442,14.48749942779541L19.124953944778444,11.28749942779541C21.604153944778442,8.78749942779541,25.64585394477844,8.78749942779541,28.124953944778444,11.28749942779541C30.624953944778444,13.92216942779541,30.624953944778444,18.05282942779541,28.124953944778444,20.68749942779541C26.926553944778444,21.878099427795412,25.314053944778443,22.55889942779541,23.624953944778444,22.58749942779541ZM17.424953944778444,15.98749942779541L20.524953944778442,19.28749942779541C22.24205394477844,20.98749942779541,25.007953944778443,20.98749942779541,26.72495394477844,19.28749942779541C28.425153944778444,17.41597942779541,28.425153944778444,14.559019427795409,26.72495394477844,12.68749942779541C25.007953944778443,10.98747942779541,22.24205394477844,10.98747942779541,20.524953944778442,12.68749942779541L17.424953944778444,15.98749942779541ZM8.425003944778442,11.38749942779541C7.254753944778442,11.36521942779541,6.129313944778443,11.83717942779541,5.325003944778443,12.68749942779541C3.5916839447784423,14.54608942779541,3.5916839447784423,17.42890942779541,5.325003944778443,19.28749942779541C7.042063944778443,20.98749942779541,9.807933944778442,20.98749942779541,11.525003944778442,19.28749942779541L14.624953944778442,15.98749942779541L11.525003944778442,12.68749942779541C10.683623944778443,11.89239942779541,9.581833944778442,11.43035942779541,8.425003944778442,11.38749942779541Z" fill="#000000" fill-opacity="1"/></g><g></g></g></svg>