<svg xmlns="http://www.w3.org/2000/svg" xmlns:xlink="http://www.w3.org/1999/xlink" fill="none" version="1.1" width="32" height="32" viewBox="0 0 32 32"><defs><clipPath id="master_svg0_134_13728"><rect x="0" y="0" width="32" height="32" rx="0"/></clipPath></defs><g clip-path="url(#master_svg0_134_13728)"><g><path d="M28,6L4,6C2.895431,6,2,6.895431,2,8L2,24C2,25.1046,2.895431,26,4,26L28,26C29.1046,26,30,25.1046,30,24L30,8C30,6.895431,29.1046,6,28,6ZM25.8,8L16,14.78L6.2,8L25.8,8ZM4,24L4,8.91L15.43,16.82C15.7728,17.0578,16.2272,17.0578,16.57,16.82L28,8.91L28,24L4,24Z" fill="#000000" fill-opacity="1"/></g><g></g></g></svg>