<svg xmlns="http://www.w3.org/2000/svg" xmlns:xlink="http://www.w3.org/1999/xlink" fill="none" version="1.1" width="32" height="32" viewBox="0 0 32 32"><defs><clipPath id="master_svg0_134_13733"><rect x="0" y="0" width="32" height="32" rx="0"/></clipPath></defs><g clip-path="url(#master_svg0_134_13733)"><g><path d="M19,24L4,24L3.9966,8.9062L15.4307,16.8223C15.7733,17.0592,16.2267,17.0592,16.5693,16.8223L28,8.9087L28,18L30,18L30,8C29.9985,6.896047,29.104,6.00148678,28,6L4,6C2.895956,6.00126696,2.00126719,6.895956,2,8L2,24C2.00148749,25.104,2.8960470000000003,25.9985,4,26L19,26L19,24ZM25.7986,8L16,14.7837L6.2014,8L25.7986,8Z" fill="#000000" fill-opacity="1"/></g><g><ellipse cx="26" cy="24" rx="4" ry="4" fill="#000000" fill-opacity="1"/></g><g></g></g></svg>