<svg xmlns="http://www.w3.org/2000/svg" xmlns:xlink="http://www.w3.org/1999/xlink" fill="none" version="1.1" width="32" height="32" viewBox="0 0 32 32"><defs><clipPath id="master_svg0_134_13739"><rect x="0" y="0" width="32" height="32" rx="0"/></clipPath></defs><g clip-path="url(#master_svg0_134_13739)"><g><path d="M29,21.2783L29,19C29,16.79086,27.209139999999998,15,25,15C22.79086,15,21,16.79086,21,19L21,21.2783C20.383417,21.63273,20.00235558,22.288809999999998,20,23L20,28C20.00137711,29.104,20.896,29.9986,22,30L28,30C29.104,29.9986,29.998620000000003,29.104,30,28L30,23C29.99765,22.288809999999998,29.61658,21.63273,29,21.2783ZM25,17C26.104,17.00138,26.99862,17.896,27,19L27,21L23,21L23,19C23.00138,17.896,23.896,17.00138,25,17ZM22,28L22,23L28,23L28,28L22,28Z" fill="#000000" fill-opacity="1"/></g><g><rect x="2" y="2" width="2" height="4" rx="0" fill="#000000" fill-opacity="1"/></g><g><rect x="14" y="2" width="2" height="4" rx="0" fill="#000000" fill-opacity="1"/></g><g><rect x="18" y="2" width="2" height="4" rx="0" fill="#000000" fill-opacity="1"/></g><g><rect x="2" y="8" width="2" height="8" rx="0" fill="#000000" fill-opacity="1"/></g><g><rect x="2" y="18" width="2" height="8" rx="0" fill="#000000" fill-opacity="1"/></g><g><rect x="14" y="18" width="2" height="8" rx="0" fill="#000000" fill-opacity="1"/></g><g><rect x="6" y="8" width="2" height="8" rx="0" fill="#000000" fill-opacity="1"/></g><g><rect x="18" y="8" width="2" height="6" rx="0" fill="#000000" fill-opacity="1"/></g><g><path d="M10,26L8,26C6.895956,25.998730000000002,6.00126648,25.10405,6,24L6,20C6.00126839,18.895955999999998,6.895956,18.00126839,8,18L10,18C11.104040000000001,18.00126839,11.99873,18.895955999999998,12,20L12,24C11.99873,25.10404,11.104040000000001,25.998730000000002,10,26ZM8,20L8,24L10,24L10,20L8,20Z" fill="#000000" fill-opacity="1"/></g><g><path d="M14,16L12,16C10.895956,15.99873,10.00126743,15.104040000000001,10,14L10,10C10.00126743,8.895956,10.895956,8.00126743,12,8L14,8C15.104040000000001,8.00126839,15.99873,8.895956,16,10L16,14C15.99873,15.104040000000001,15.104040000000001,15.99873,14,16ZM12,10L12,14L14,14L14,10L12,10Z" fill="#000000" fill-opacity="1"/></g><g><path d="M10,6L8,6C6.895956,5.99873,6.00126743,5.1040399999999995,6,4L6,2L8,2L8,4L10,4L10,2L12,2L12,4C11.99873,5.1040399999999995,11.104040000000001,5.99873,10,6Z" fill="#000000" fill-opacity="1"/></g><g></g></g></svg>