<svg xmlns="http://www.w3.org/2000/svg" xmlns:xlink="http://www.w3.org/1999/xlink" fill="none" version="1.1" width="32" height="32" viewBox="0 0 32 32"><defs><clipPath id="master_svg0_134_13755"><rect x="0" y="0" width="32" height="32" rx="0"/></clipPath></defs><g clip-path="url(#master_svg0_134_13755)"><g><path d="M29,14L28,14L28,10L26,10L26,14L24,14L24,10L22,10L22,14L21,14C20.4477,14,20,14.4477,20,15L20,19C20.0031,21.3748,21.6738,23.4209,24,23.8989L24,27C23.9996,27.5521,23.5521,27.9996,23,28L5,28C4.44772,28,4,27.5523,4,27C4,26.4477,4.44772,26,5,26L10,26C11.65685,26,13,24.6569,13,23C13,21.3431,11.65685,20,10,20L5,20C4.44772,20,4,19.5523,4,19C4,18.4477,4.44772,18,5,18L10,18C11.6561,17.9982,12.9982,16.656100000000002,13,15L13,11L14,11C16.2081,10.99752,17.997500000000002,9.20811,18,7L18,4L15,4C13.9762,4.00167,12.9924,4.39794,12.2532,5.1064C11.19819,3.19184,9.186,2.00195503,7,2L4,2L4,5C4.00364,8.3122,6.6878,10.99636,10,11L11,11L11,15C10.99956,15.5521,10.5521,15.9996,10,16L5,16C3.34315,16,2,17.3431,2,19C2,20.6569,3.34315,22,5,22L10,22C10.55229,22,11,22.4477,11,23C11,23.5523,10.55229,24,10,24L5,24C3.34315,24,2,25.3431,2,27C2,28.6569,3.34315,30,5,30L23,30C24.6561,29.9982,25.9982,28.6561,26,27L26,23.8989C28.3262,23.4209,29.9969,21.3748,30,19L30,15C30,14.4477,29.5523,14,29,14ZM13,8C13.0011,6.89589,13.8959,6.0011,15,6L16,6L16,7C15.9989,8.10411,15.1041,8.998899999999999,14,9L13,9L13,8ZM10,9C7.79189,8.99752,6.00248,7.20811,6,5L6,4L7,4C9.20811,4.00248,10.99752,5.79189,11,8L11,9L10,9ZM28,19C28,20.6569,26.6569,22,25,22C23.3431,22,22,20.6569,22,19L22,16L28,16L28,19Z" fill="#000000" fill-opacity="1"/></g><g></g></g></svg>