<svg xmlns="http://www.w3.org/2000/svg" xmlns:xlink="http://www.w3.org/1999/xlink" fill="none" version="1.1" width="32" height="32" viewBox="0 0 32 32"><defs><clipPath id="master_svg0_134_13760"><rect x="0" y="0" width="32" height="32" rx="0"/></clipPath></defs><g clip-path="url(#master_svg0_134_13760)"><g><rect x="8" y="8" width="2" height="4" rx="0" fill="#000000" fill-opacity="1"/></g><g><rect x="8" y="14" width="2" height="4" rx="0" fill="#000000" fill-opacity="1"/></g><g><rect x="14" y="8" width="2" height="4" rx="0" fill="#000000" fill-opacity="1"/></g><g><rect x="14" y="14" width="2" height="4" rx="0" fill="#000000" fill-opacity="1"/></g><g><rect x="8" y="20" width="2" height="4" rx="0" fill="#000000" fill-opacity="1"/></g><g><rect x="14" y="20" width="2" height="4" rx="0" fill="#000000" fill-opacity="1"/></g><g><path d="M30,14C30,12.8954,29.1046,12,28,12L22,12L22,4C22,2.895431,21.1046,2,20,2L4,2C2.895431,2,2,2.895431,2,4L2,30L30,30L30,14ZM4,4L20,4L20,28L4,28L4,4ZM22,28L22,14L28,14L28,28L22,28Z" fill="#000000" fill-opacity="1"/></g><g></g></g></svg>