<svg xmlns="http://www.w3.org/2000/svg" xmlns:xlink="http://www.w3.org/1999/xlink" fill="none" version="1.1" width="32" height="32" viewBox="0 0 32 32"><defs><clipPath id="master_svg0_134_13771"><rect x="0" y="0" width="32" height="32" rx="0"/></clipPath></defs><g clip-path="url(#master_svg0_134_13771)"><g><path d="M20.00000029067993,14.999999864196777C18.22290029067993,14.999999864196777,16.76860029067993,14.127399864196779,15.485600290679931,13.357499864196777C14.32200029067993,12.659399864196777,13.222900290679931,11.999999864196777,12.000000290679932,11.999999864196777C10.602300290679931,11.999999864196777,9.551000290679932,12.862899864196777,8.707300290679932,13.706999864196778L7.292700290679932,12.292899864196777C8.36010029067993,11.225399864196778,9.859600290679932,9.999899864196777,12.000000290679932,9.999899864196777C13.777100290679932,9.999899864196777,15.231400290679932,10.872499864196778,16.51440029067993,11.642399864196777C17.678000290679933,12.340499864196778,18.777100290679932,12.999899864196777,20.00000029067993,12.999899864196777C21.39750029067993,12.999899864196777,22.44870029067993,12.136999864196778,23.29300029067993,11.292699864196777L24.707100290679932,12.706999864196778C23.639700290679933,13.774499864196777,22.140000290679932,14.999799864196778,20.00000029067993,14.999999864196777Z" fill="#000000" fill-opacity="1"/></g><g><path d="M20.00000029067993,22.000000817871094C18.22290029067993,22.000000817871094,16.76860029067993,21.127400817871095,15.485600290679931,20.357500817871095C14.32200029067993,19.659400817871095,13.222900290679931,19.000000817871094,12.000000290679932,19.000000817871094C10.602300290679931,19.000000817871094,9.551000290679932,19.862900817871093,8.707300290679932,20.707000817871094L7.292700290679932,19.292900817871093C8.36010029067993,18.225400817871094,9.859600290679932,16.999900817871094,12.000000290679932,16.999900817871094C13.777100290679932,16.999900817871094,15.231400290679932,17.872500817871092,16.51440029067993,18.642400817871092C17.678000290679933,19.340500817871092,18.777100290679932,19.999900817871094,20.00000029067993,19.999900817871094C21.39750029067993,19.999900817871094,22.44870029067993,19.137000817871094,23.29300029067993,18.292700817871093L24.707100290679932,19.707000817871094C23.639700290679933,20.774500817871093,22.140000290679932,21.999800817871094,20.00000029067993,22.000000817871094Z" fill="#000000" fill-opacity="1"/></g><g><path d="M16,30C8.2803,30,2,23.7196,2,16C2,8.2804,8.2802,2,16,2C23.7198,2,30,8.2804,30,16C30,23.7196,23.7197,30,16,30ZM16,4C9.3833,4,4,9.3832,4,16C4,22.6168,9.3833,28,16,28C22.6167,28,28,22.6168,28,16C28,9.3832,22.6167,4,16,4Z" fill="#000000" fill-opacity="1"/></g><g></g></g></svg>