<svg xmlns="http://www.w3.org/2000/svg" xmlns:xlink="http://www.w3.org/1999/xlink" fill="none" version="1.1" width="32" height="32" viewBox="0 0 32 32"><defs><clipPath id="master_svg0_134_13814"><rect x="0" y="0" width="32" height="32" rx="0"/></clipPath></defs><g clip-path="url(#master_svg0_134_13814)"><g transform="matrix(0.7071067690849304,-0.7071067690849304,0.7071067690849304,0.7071067690849304,-4.82774012767527,9.455559676058556)"><rect x="9" y="10.555377960205078" width="2.1995999813079834" height="17.59939956665039" rx="0" fill="#000000" fill-opacity="1"/></g><g><path d="M16.000025341796874,1.999999999796875C8.248145341796874,1.951823641796875,1.951824041796875,8.248145341796874,1.999999999796875,16.000025341796874C1.951823641796875,23.751825341796874,8.248145341796874,30.048225341796876,16.000025341796874,30.000025341796874C23.751825341796874,30.048225341796876,30.048225341796876,23.751825341796874,30.000025341796874,16.000025341796874C30.048225341796876,8.248145341796874,23.751825341796874,1.951823441796875,16.000025341796874,1.999999999796875ZM16.000025341796874,28.000025341796874C9.372585341796874,28.000025341796874,3.999995341796875,22.627425341796876,3.999995341796875,16.000025341796874C3.999995341796875,9.372585341796874,9.372585341796874,3.999995341796875,16.000025341796874,3.999995341796875C22.627425341796876,3.999995341796875,28.000025341796874,9.372585341796874,28.000025341796874,16.000025341796874C27.980625341796873,22.619325341796873,22.619325341796873,27.980625341796873,16.000025341796874,28.000025341796874Z" fill="#000000" fill-opacity="1"/></g><g></g></g></svg>