<svg xmlns="http://www.w3.org/2000/svg" xmlns:xlink="http://www.w3.org/1999/xlink" fill="none" version="1.1" width="16" height="16" viewBox="0 0 16 16"><defs><clipPath id="master_svg0_134_08542"><rect x="0" y="0" width="16" height="16" rx="0"/></clipPath></defs><g clip-path="url(#master_svg0_134_08542)"><g><path d="M8,1C4.1,1,1,4.1,1,8C1,11.9,4.1,15,8,15C11.9,15,15,11.9,15,8C15,4.1,11.9,1,8,1ZM8,14C4.7,14,2,11.3,2,8C2,4.7,4.7,2,8,2C11.3,2,14,4.7,14,8C14,11.3,11.3,14,8,14Z" fill="#000000" fill-opacity="1"/></g><g></g><g transform="matrix(0.707099974155426,-0.707099974155426,0.707099974155426,0.707099974155426,-2.449213645774762,4.712960756013501)"><rect x="4.464399814605713" y="5.3130202293396" width="1.100000023841858" height="8.800000190734863" rx="0" fill="#000000" fill-opacity="1"/></g></g></svg>