<svg xmlns="http://www.w3.org/2000/svg" xmlns:xlink="http://www.w3.org/1999/xlink" fill="none" version="1.1" width="32" height="32" viewBox="0 0 32 32"><defs><clipPath id="master_svg0_134_13826"><rect x="0" y="0" width="32" height="32" rx="0"/></clipPath></defs><g clip-path="url(#master_svg0_134_13826)"><g><rect x="17" y="15" width="2" height="7" rx="0" fill="#000000" fill-opacity="1"/></g><g><ellipse cx="18" cy="25" rx="1.25" ry="1.25" fill="#000000" fill-opacity="1"/></g><g><path d="M28.999962942504883,30L6.999999942504883,30C6.650099942504883,30,6.325699942504883,29.8171,6.144499942504883,29.5177C5.963299742504883,29.2183,5.9519000425048825,28.8459,6.114199942504883,28.536L17.114262942504883,7.536C17.286862942504882,7.2064,17.643462942504883,7,17.999962942504883,7C18.356462942504884,7,18.713062942504884,7.2064,18.885662942504883,7.536L29.885662942504883,28.536C30.04806294250488,28.8459,30.036562942504883,29.2183,29.855362942504883,29.5177C29.674162942504882,29.8171,29.34976294250488,30,28.999962942504883,30ZM8.652602942504883,28L27.347362942504883,28L17.999962942504883,10.1552L8.652602942504883,28Z" fill="#000000" fill-opacity="1"/></g><g><path d="M7.000002847442627,23.000001132202147L3.000002847442627,23.000001132202147C2.653299847442627,23.000001132202147,2.331499847442627,22.82060113220215,2.149399847442627,22.525801132202147C1.967000047442627,22.23100113220215,1.950700047442627,21.862801132202147,2.1054998474426267,21.55280113220215L4.605502847442628,16.55280113220215L6.394602847442627,17.447302132202147L4.618002847442627,21.000001132202147L7.000102847442627,21.000001132202147L7.000002847442627,23.000001132202147Z" fill="#000000" fill-opacity="1"/></g><g transform="matrix(0.44721436500549316,-0.8944268226623535,0.8944268226623535,0.44721436500549316,-9.917695840990518,13.058265758765629)"><rect x="5.605521202087402" y="14.552724838256836" width="5.590199947357178" height="2.000200033187866" rx="0" fill="#000000" fill-opacity="1"/></g><g><path d="M10.894500085449218,8.447300135803221L9.105400085449219,7.552800135803222L11.605400085449219,2.5528001358032224C11.774800085449218,2.2141001358032226,12.137400085449219,2.0001001358032227,12.49990008544922,2.0001001358032227C12.862400085449218,2.0001001358032227,13.225000085449219,2.2141001358032226,13.394400085449218,2.5528001358032224L15.394400085449218,6.552800135803222L13.605300085449219,7.447300135803222L12.49980008544922,5.236100135803223L10.894500085449218,8.447300135803221Z" fill="#000000" fill-opacity="1"/></g><g></g></g></svg>