<svg xmlns="http://www.w3.org/2000/svg" xmlns:xlink="http://www.w3.org/1999/xlink" fill="none" version="1.1" width="32" height="32" viewBox="0 0 32 32"><defs><clipPath id="master_svg0_134_13904"><rect x="0" y="0" width="32" height="32" rx="0"/></clipPath></defs><g clip-path="url(#master_svg0_134_13904)"><g><path d="M12,10L26,10C27.104,9.998619999999999,27.9986,9.104,28,8L28,4C27.9986,2.896002,27.104,2.00137806,26,2L12,2C10.896,2.00137806,10.001380000000001,2.896002,10,4L10,5L6,5L6,2L4,2L4,25C4.00137663,26.104,4.896001,26.9986,6,27L10,27L10,28C10.001380000000001,29.104,10.896,29.9986,12,30L26,30C27.104,29.9986,27.9986,29.104,28,28L28,24C27.9986,22.896,27.104,22.0014,26,22L12,22C10.896,22.0014,10.001380000000001,22.896,10,24L10,25L6,25L6,17L10,17L10,18C10.001380000000001,19.104,10.896,19.9986,12,20L26,20C27.104,19.9986,27.9986,19.104,28,18L28,14C27.9986,12.896,27.104,12.0014,26,12L12,12C10.896,12.0014,10.001380000000001,12.896,10,14L10,15L6,15L6,7L10,7L10,8C10.001380000000001,9.104,10.896,9.998619999999999,12,10ZM12,4L26,4L26.0012,8L12,8L12,4ZM12,24L26,24L26.0012,28L12,28L12,24ZM12,14L26,14L26.0012,18L12,18L12,14Z" fill="#000000" fill-opacity="1"/></g><g></g></g></svg>