<svg xmlns="http://www.w3.org/2000/svg" xmlns:xlink="http://www.w3.org/1999/xlink" fill="none" version="1.1" width="32" height="32" viewBox="0 0 32 32"><defs><clipPath id="master_svg0_134_13918"><rect x="0" y="0" width="32" height="32" rx="0"/></clipPath></defs><g clip-path="url(#master_svg0_134_13918)"><g><path d="M22.706963624572754,9.293100177307128C22.439263624572753,9.025029177307129,22.042963624572756,8.931431777307129,21.683563624572756,9.051400177307128L12.683603624572754,12.051405177307128C12.385173624572754,12.15108517730713,12.150983624572754,12.385275177307129,12.051303624572753,12.683705177307129L9.051301024572753,21.68365517730713C8.931382224572754,22.04305517730713,9.024875624572754,22.43945517730713,9.292783624572754,22.70735517730713C9.560690624572754,22.97525517730713,9.956998624572753,23.06875517730713,10.316403624572754,22.948755177307127L19.31636362457275,19.948755177307127C19.614863624572756,19.84905517730713,19.848963624572754,19.614855177307128,19.948663624572752,19.31635517730713L22.948663624572752,10.316405177307129C23.068463624572754,9.95705317730713,22.974863624572755,9.560899177307128,22.706963624572754,9.293100177307128ZM11.581103624572755,20.41895517730713L13.790503624572754,13.790605177307128L18.210003624572757,18.20999517730713L11.581103624572755,20.41895517730713Z" fill="#000000" fill-opacity="1"/></g><g><path d="M16,30C8.26801,30,2,23.732,2,16C2,8.26801,8.26801,2,16,2C23.732,2,30,8.26801,30,16C29.9913,23.7284,23.7284,29.9913,16,30ZM16,4C9.37258,4,4,9.37258,4,16C4,22.6274,9.37258,28,16,28C22.6274,28,28,22.6274,28,16C27.9925,9.37571,22.6243,4.00755,16,4Z" fill="#000000" fill-opacity="1"/></g><g></g></g></svg>