<svg xmlns="http://www.w3.org/2000/svg" xmlns:xlink="http://www.w3.org/1999/xlink" fill="none" version="1.1" width="32" height="32" viewBox="0 0 32 32"><defs><clipPath id="master_svg0_134_13959"><rect x="0" y="0" width="32" height="32" rx="0"/></clipPath></defs><g clip-path="url(#master_svg0_134_13959)"><g><path d="M16.00000057220459,21.999999923706056C13.89278057220459,21.996789923706054,11.94170057220459,20.888399923706054,10.86000057220459,19.079999923706055L9.15000057220459,20.079999923706055C12.26094057220459,25.236679923706056,19.739100572204592,25.236679923706056,22.85000057220459,20.079999923706055L21.140000572204592,19.079999923706055C20.05830057220459,20.888399923706054,18.10722057220459,21.996789923706054,16.00000057220459,21.999999923706056Z" fill="#000000" fill-opacity="1"/></g><g><path d="M30,4L26,4L26,0L24,0L24,4L20,4L20,6L24,6L24,10L26,10L26,6L30,6L30,4Z" fill="#000000" fill-opacity="1"/></g><g><path d="M11.5,11.000000000034472C10.11929,11.000000000034472,9,12.119287030334473,9,13.499997030334473C9,14.880707030334474,10.11929,15.999997030334473,11.5,15.999997030334473C12.88071,15.999997030334473,14,14.880707030334474,14,13.499997030334473C14.01122,12.114667030334473,12.88533,10.988782930334473,11.5,11.000000000034472Z" fill="#000000" fill-opacity="1"/></g><g><path d="M20.5,11.000000000034472C19.11929,11.000000000034472,18,12.119287030334473,18,13.499997030334473C18,14.880707030334474,19.11929,15.999997030334473,20.5,15.999997030334473C21.88071,15.999997030334473,23,14.880707030334474,23,13.499997030334473C23.01122,12.114667030334473,21.88533,10.988783830334473,20.5,11.000000000034472Z" fill="#000000" fill-opacity="1"/></g><g><path d="M27.609976318359376,12.999999165534973C27.862676318359377,13.980199165534973,27.993676318359373,14.987799165534973,27.999976318359376,15.999999165534973C27.999976318359376,22.627399165534975,22.627376318359374,27.999999165534973,15.999976318359375,27.999999165534973C9.372586318359375,27.999999165534973,3.999996318359375,22.627399165534975,3.999996318359375,15.999999165534973C3.999996318359375,9.372579165534972,9.372586318359375,3.999999165534973,15.999976318359375,3.999999165534973L15.999976318359375,1.9999999999999731C7.870806318359375,1.9972171755349732,1.448398318359375,8.895479165534972,2.031237118359375,17.00379916553497C2.614075318359375,25.11199916553497,9.957076318359375,31.020799165534974,18.002276318359375,29.855399165534973C26.047476318359376,28.689899165534975,31.411976318359375,20.940399165534973,29.669976318359375,12.999999165534973L27.609976318359376,12.999999165534973Z" fill="#000000" fill-opacity="1"/></g><g></g></g></svg>