<svg xmlns="http://www.w3.org/2000/svg" xmlns:xlink="http://www.w3.org/1999/xlink" fill="none" version="1.1" width="32" height="32" viewBox="0 0 32 32"><defs><clipPath id="master_svg0_134_14000"><rect x="0" y="0" width="32" height="32" rx="0"/></clipPath></defs><g clip-path="url(#master_svg0_134_14000)"><g><path d="M14,13.5Q14,13.62282,13.987960000000001,13.74504Q13.97592,13.86727,13.95196,13.987729999999999Q13.928,14.10818,13.89235,14.22571Q13.8567,14.34324,13.8097,14.456710000000001Q13.762699999999999,14.57018,13.704799999999999,14.67849Q13.64691,14.78681,13.578669999999999,14.88893Q13.51044,14.99104,13.43253,15.08598Q13.354610000000001,15.18092,13.267769999999999,15.267769999999999Q13.18092,15.354610000000001,13.08598,15.43253Q12.99104,15.51044,12.88893,15.578669999999999Q12.78681,15.64691,12.67849,15.704799999999999Q12.57018,15.762699999999999,12.456710000000001,15.8097Q12.34324,15.8567,12.22571,15.89235Q12.10818,15.928,11.987729999999999,15.95196Q11.86727,15.97592,11.74504,15.987960000000001Q11.62282,16,11.5,16Q11.37718,16,11.25496,15.987960000000001Q11.13273,15.97592,11.012270000000001,15.95196Q10.89182,15.928,10.77429,15.89235Q10.65676,15.8567,10.54329,15.8097Q10.42982,15.762699999999999,10.32151,15.704799999999999Q10.21319,15.64691,10.11107,15.578669999999999Q10.00896,15.51044,9.914017,15.43253Q9.819078,15.354610000000001,9.732233,15.267769999999999Q9.645388,15.18092,9.567474,15.08598Q9.48956,14.99104,9.421326,14.88893Q9.353092,14.78681,9.295197,14.67849Q9.237301,14.57018,9.190301,14.456710000000001Q9.143301,14.34324,9.107649,14.22571Q9.0719972,14.10818,9.0480368,13.987729999999999Q9.0240764,13.86727,9.0120382,13.74504Q9,13.62282,9,13.5Q9,13.37718,9.0120382,13.25496Q9.0240764,13.13273,9.0480368,13.012270000000001Q9.0719972,12.89182,9.107649,12.77429Q9.143301,12.65676,9.190301,12.54329Q9.237301,12.42982,9.295197,12.32151Q9.353092,12.21319,9.421326,12.11107Q9.48956,12.00896,9.567474,11.914017Q9.645388,11.819078,9.732233,11.732233Q9.819078,11.645388,9.914017,11.567474Q10.00896,11.48956,10.11107,11.421326Q10.21319,11.353092,10.32151,11.295197Q10.42982,11.237301,10.54329,11.190301Q10.65676,11.143301,10.77429,11.107649Q10.89182,11.0719972,11.012270000000001,11.0480368Q11.13273,11.0240764,11.25496,11.0120382Q11.37718,11,11.5,11Q11.62282,11,11.74504,11.0120382Q11.86727,11.0240764,11.987729999999999,11.0480368Q12.10818,11.0719972,12.22571,11.107649Q12.34324,11.143301,12.456710000000001,11.190301Q12.57018,11.237301,12.67849,11.295197Q12.78681,11.353092,12.88893,11.421326Q12.99104,11.48956,13.08598,11.567474Q13.18092,11.645388,13.267769999999999,11.732233Q13.354610000000001,11.819078,13.43253,11.914017Q13.51044,12.00896,13.578669999999999,12.11107Q13.64691,12.21319,13.704799999999999,12.32151Q13.762699999999999,12.42982,13.8097,12.54329Q13.8567,12.65676,13.89235,12.77429Q13.928,12.89182,13.95196,13.012270000000001Q13.97592,13.13273,13.987960000000001,13.25496Q14,13.37718,14,13.5Z" fill="#000000" fill-opacity="1"/></g><g><path d="M23,13.5Q23,13.62282,22.98796,13.74504Q22.975920000000002,13.86727,22.95196,13.987729999999999Q22.928,14.10818,22.89235,14.22571Q22.8567,14.34324,22.8097,14.456710000000001Q22.7627,14.57018,22.7048,14.67849Q22.64691,14.78681,22.57867,14.88893Q22.51044,14.99104,22.43253,15.08598Q22.35461,15.18092,22.26777,15.267769999999999Q22.18092,15.354610000000001,22.08598,15.43253Q21.991039999999998,15.51044,21.888930000000002,15.578669999999999Q21.78681,15.64691,21.67849,15.704799999999999Q21.57018,15.762699999999999,21.45671,15.8097Q21.34324,15.8567,21.22571,15.89235Q21.10818,15.928,20.98773,15.95196Q20.86727,15.97592,20.74504,15.987960000000001Q20.62282,16,20.5,16Q20.37718,16,20.25496,15.987960000000001Q20.13273,15.97592,20.01227,15.95196Q19.89182,15.928,19.77429,15.89235Q19.65676,15.8567,19.54329,15.8097Q19.42982,15.762699999999999,19.32151,15.704799999999999Q19.21319,15.64691,19.11107,15.578669999999999Q19.008960000000002,15.51044,18.914017,15.43253Q18.819078,15.354610000000001,18.732233,15.267769999999999Q18.645388,15.18092,18.567474,15.08598Q18.48956,14.99104,18.421326,14.88893Q18.353092,14.78681,18.295197,14.67849Q18.237301,14.57018,18.190301,14.456710000000001Q18.143301,14.34324,18.107649,14.22571Q18.0719972,14.10818,18.0480368,13.987729999999999Q18.0240764,13.86727,18.0120382,13.74504Q18,13.62282,18,13.5Q18,13.37718,18.0120382,13.25496Q18.0240764,13.13273,18.0480368,13.012270000000001Q18.0719972,12.89182,18.107649,12.77429Q18.143301,12.65676,18.190301,12.54329Q18.237301,12.42982,18.295197,12.32151Q18.353092,12.21319,18.421326,12.11107Q18.48956,12.00896,18.567474,11.914017Q18.645388,11.819078,18.732233,11.732233Q18.819078,11.645388,18.914017,11.567474Q19.008960000000002,11.48956,19.11107,11.421326Q19.21319,11.353092,19.32151,11.295197Q19.42982,11.237301,19.54329,11.190301Q19.65676,11.143301,19.77429,11.107649Q19.89182,11.0719972,20.01227,11.0480368Q20.13273,11.0240764,20.25496,11.0120382Q20.37718,11,20.5,11Q20.62282,11,20.74504,11.0120382Q20.86727,11.0240764,20.98773,11.0480368Q21.10818,11.0719972,21.22571,11.107649Q21.34324,11.143301,21.45671,11.190301Q21.57018,11.237301,21.67849,11.295197Q21.78681,11.353092,21.888930000000002,11.421326Q21.991039999999998,11.48956,22.08598,11.567474Q22.18092,11.645388,22.26777,11.732233Q22.35461,11.819078,22.43253,11.914017Q22.51044,12.00896,22.57867,12.11107Q22.64691,12.21319,22.7048,12.32151Q22.7627,12.42982,22.8097,12.54329Q22.8567,12.65676,22.89235,12.77429Q22.928,12.89182,22.95196,13.012270000000001Q22.975920000000002,13.13273,22.98796,13.25496Q23,13.37718,23,13.5Z" fill="#000000" fill-opacity="1"/></g><g><path d="M30.000014305114746,16.00002635192871C30.018214305114746,5.243416351928711,18.403114305114745,-1.5145436480712893,9.060804305114747,3.817056351928711C-0.28149569488525383,9.148656351928711,-0.3710256948852537,22.58642635192871,8.899404305114746,28.042026351928712L8.915004305114746,28.19822635192871C9.013704305114747,29.22242635192871,9.875864305114746,30.00312635192871,10.904804305114746,30.00002635192871L21.094814305114745,30.00002635192871C22.123514305114746,30.00332635192871,22.985614305114748,29.223126351928713,23.084814305114747,28.19922635192871L23.100414305114747,28.042026351928712C27.372914305114747,25.53542635192871,29.998114305114747,20.953426351928712,30.000014305114746,16.00002635192871ZM16.000014305114746,3.999996351928711C22.389314305114745,4.0028363519287105,27.654014305114746,9.015486351928711,27.970014305114745,15.39702635192871L22.763714305114746,18.00002635192871L9.236304305114746,18.00002635192871L4.030504305114746,15.39702635192871C4.346494305114746,9.01568635192871,9.610864305114745,4.003106351928711,16.000014305114746,3.999996351928711ZM4.120004305114746,17.677726351928712L8.060004305114745,19.64772635192871L8.641294305114746,25.45772635192871C6.179704305114746,23.551126351928712,4.5578843051147455,20.76032635192871,4.120004305114746,17.677726351928712ZM21.094714305114746,28.00002635192871L10.905304305114747,28.00002635192871L10.105304305114746,20.00002635192871L21.895314305114745,20.00002635192871L21.094714305114746,28.00002635192871ZM23.359114305114748,25.458026351928712L23.940214305114747,19.64802635192871L27.880214305114745,17.67802635192871C27.442214305114746,20.76062635192871,25.820514305114745,23.55132635192871,23.359114305114748,25.458026351928712Z" fill="#000000" fill-opacity="1"/></g><g></g></g></svg>