<svg xmlns="http://www.w3.org/2000/svg" xmlns:xlink="http://www.w3.org/1999/xlink" fill="none" version="1.1" width="32" height="32" viewBox="0 0 32 32"><defs><clipPath id="master_svg0_134_14072"><rect x="0" y="0" width="32" height="32" rx="0"/></clipPath></defs><g clip-path="url(#master_svg0_134_14072)"><g><path d="M22.449993949127197,5.99999737739563C23.920793949127198,5.99875737739563,25.330193949127196,6.58988737739563,26.359993949127198,7.6399973773956305C28.5455939491272,9.858827377395631,28.5455939491272,13.42116737739563,26.359993949127198,15.63999737739563L15.999993949127198,26.12999737739563L5.640003949127197,15.63999737739563C3.4543839491271973,13.42116737739563,3.4543839491271973,9.858827377395631,5.640003949127197,7.6399973773956305C7.787843949127197,5.4527573773956295,11.312163949127198,5.4527573773956295,13.459993949127197,7.6399973773956305L15.999993949127198,10.23999737739563L18.529993949127196,7.65999737739563C19.556893949127197,6.5971573773956305,20.972093949127196,5.99787737739563,22.449993949127197,5.99999737739563ZM22.449993949127197,3.9999999999956297C20.441193949127197,3.99829792739563,18.5163939491272,4.8057083773956295,17.109993949127198,6.23999737739563L15.999993949127198,7.359997377395629L14.889993949127197,6.23999737739563C11.955243949127198,3.25612537739563,7.144753949127197,3.25612537739563,4.210003949127197,6.23999737739563C1.2597249491271971,9.24332737739563,1.2597249491271971,14.05669737739563,4.210003949127197,17.059997377395632L15.999993949127198,28.99999737739563L27.789993949127197,17.059997377395632C30.740293949127196,14.05669737739563,30.740293949127196,9.24332737739563,27.789993949127197,6.23999737739563C26.3822939491272,4.80761237739563,24.458293949127196,4.0005531313956295,22.449993949127197,3.9999999999956297Z" fill="#000000" fill-opacity="1"/></g><g></g></g></svg>