<svg xmlns="http://www.w3.org/2000/svg" xmlns:xlink="http://www.w3.org/1999/xlink" fill="none" version="1.1" width="32" height="32" viewBox="0 0 32 32"><defs><clipPath id="master_svg0_134_14165"><rect x="0" y="0" width="32" height="32" rx="0"/></clipPath></defs><g clip-path="url(#master_svg0_134_14165)"><g><ellipse cx="24" cy="6.999800205230713" rx="1" ry="1" fill="#000000" fill-opacity="1"/></g><g><path d="M25.99998358230591,2C17.16758358230591,2.0100818,10.010083582305908,9.16762,10.000003582305908,18L10.000003582305908,20L2.9999995823059082,20C2.595603582305908,20.0001,2.231065582305908,20.2437,2.0763213823059083,20.6173C1.9215773823059081,20.991,2.0070915223059083,21.421,2.2929995823059084,21.707L10.293003582305909,29.707C10.578993582305909,29.9929,11.009033582305909,30.0784,11.382653582305908,29.9237C11.756363582305909,29.7688,12.000003582305908,29.4043,12.000003582305908,29L12.000003582305908,22L13.999983582305909,22C22.83238358230591,21.9899,29.989883582305907,14.8324,29.99998358230591,6L29.99998358230591,2L25.99998358230591,2ZM10.000003582305908,26.5857L5.414103582305908,22L10.000003582305908,22L10.000003582305908,26.5857ZM12.000003582305908,20L12.000003582305908,18C12.000283582305908,14.3897,13.401283582305908,10.9204,15.907983582305908,8.3223L23.67798358230591,16.0918C21.07908358230591,18.599,17.60958358230591,20,13.999983582305909,20L12.000003582305908,20ZM27.99998358230591,6C27.99988358230591,9.12153,26.950383582305907,12.1524,25.01998358230591,14.6055L17.39448358230591,6.98C19.847783582305908,5.04956,22.878683582305907,4,25.99998358230591,4L27.99998358230591,4L27.99998358230591,6Z" fill="#000000" fill-opacity="1"/></g><g></g></g></svg>