<svg xmlns="http://www.w3.org/2000/svg" xmlns:xlink="http://www.w3.org/1999/xlink" fill="none" version="1.1" width="32" height="32" viewBox="0 0 32 32"><defs><clipPath id="master_svg0_134_14187"><rect x="0" y="0" width="32" height="32" rx="0"/></clipPath></defs><g clip-path="url(#master_svg0_134_14187)"><g><path d="M22,16L24,16L24,8L16,8L16,10L22,10L22,16Z" fill="#000000" fill-opacity="1"/></g><g><path d="M8,24L16,24L16,22L10,22L10,16L8,16L8,24Z" fill="#000000" fill-opacity="1"/></g><g><path d="M26,28L6,28C4.895956,27.9987,4.00126743,27.104,4,26L4,6C4.00126696,4.895956,4.895956,4.00126743,6,4L26,4C27.104,4.00126743,27.9987,4.895956,28,6L28,26C27.9987,27.104,27.104,27.9987,26,28ZM6,6L6,26L26.0012,26L26,6L6,6Z" fill="#000000" fill-opacity="1"/></g><g></g></g></svg>