<svg xmlns="http://www.w3.org/2000/svg" xmlns:xlink="http://www.w3.org/1999/xlink" fill="none" version="1.1" width="32" height="32" viewBox="0 0 32 32"><defs><clipPath id="master_svg0_134_14226"><rect x="0" y="0" width="32" height="32" rx="0"/></clipPath></defs><g clip-path="url(#master_svg0_134_14226)"><g><path d="M11.130000038146973,6.889998795852661L11.800000038146973,3.9999987958526613L19.800000038146973,3.9999987958526613L17.800000038146973,13.000038795852662L23.000000038146972,13.000038795852662L20.510000038146973,16.25003879585266L21.940000038146973,17.68003879585266L25.810000038146974,12.610038795852661C26.023900038146973,12.32073879585266,26.06590003814697,11.93884879585266,25.920000038146974,11.609998795852661C25.763500038146972,11.24049879585266,25.40130003814697,11.000328795852662,25.000000038146972,10.999998795852662L20.250000038146972,10.999998795852662L22.000000038146972,3.219998795852661C22.067100038146975,2.920988795852661,21.993400038146973,2.6077217958526613,21.800000038146973,2.369999795852661C21.605000038146972,2.129457795852661,21.309600038146975,1.9928203858526612,21.000000038146972,1.9999999998526612L11.000000038146972,1.9999999998526612C10.526340038146973,1.9873369958526612,10.108811038146973,2.3088327958526613,10.000000038146972,2.769999795852661L9.460000038146973,5.219998795852661L11.130000038146973,6.889998795852661Z" fill="#000000" fill-opacity="1"/></g><g><path d="M30,28.59L20.69,19.28L19.27,17.85L10.6,9.190000000000001L8.93,7.52L3.41,2L2,3.41L8.4,9.82L7,15.77C6.84876,16.4089,7.34373,17.017699999999998,8,17L12.83,17L11,28.85C10.93205,29.3019,11.17903,29.7423,11.6,29.92C11.72711,29.9716,11.86282,29.9987,12,30C12.3095,29.9993,12.6012,29.8552,12.79,29.61L19.47,20.88L28.59,30L30,28.59ZM9.26,15L10.07,11.48L13.59,15L9.26,15ZM13.58,25.28L15,16.369999999999997L18,19.45L13.58,25.28Z" fill="#000000" fill-opacity="1"/></g><g></g></g></svg>