<svg xmlns="http://www.w3.org/2000/svg" xmlns:xlink="http://www.w3.org/1999/xlink" fill="none" version="1.1" width="32" height="32" viewBox="0 0 32 32"><defs><clipPath id="master_svg0_134_14259"><rect x="0" y="0" width="32" height="32" rx="0"/></clipPath></defs><g clip-path="url(#master_svg0_134_14259)"><g><path d="M25.00002036819458,11.000000001086425C22.62522036819458,11.003249171086425,20.57922036819458,12.673838301086425,20.10112036819458,14.999998301086425L11.89890036819458,14.999998301086425C11.18765036819458,11.515595301086426,7.16875036819458,9.866608301086426,4.21513036819458,11.847295301086426C1.26151636819458,13.827978301086425,1.26151536819458,18.172018301086425,4.21513036819458,20.152708301086427C7.16875036819458,22.133438301086425,11.18765036819458,20.484408301086425,11.89890036819458,16.999998301086425L20.10112036819458,16.999998301086425C20.62732036819458,19.578108301086424,23.06172036819458,21.307138301086425,25.66932036819458,20.955008301086426C28.27692036819458,20.602838301086425,30.165320368194582,18.289948301086426,29.98882036819458,15.664598301086425C29.81232036819458,13.039308301086425,27.63132036819458,11.000000951086426,25.00002036819458,11.000000001086425ZM25.00002036819458,18.99999830108643C23.34312036819458,18.99999830108643,22.00002036819458,17.656858301086427,22.00002036819458,15.999998301086425C22.00002036819458,14.343148301086426,23.34312036819458,12.999998301086425,25.00002036819458,12.999998301086425C26.65682036819458,12.999998301086425,28.00002036819458,14.343148301086426,28.00002036819458,15.999998301086425C27.99822036819458,17.656098301086427,26.65612036819458,18.998178301086426,25.00002036819458,18.99999830108643Z" fill="#000000" fill-opacity="1"/></g><g></g></g></svg>