<svg xmlns="http://www.w3.org/2000/svg" xmlns:xlink="http://www.w3.org/1999/xlink" fill="none" version="1.1" width="32" height="32" viewBox="0 0 32 32"><defs><clipPath id="master_svg0_134_14298"><rect x="0" y="0" width="32" height="32" rx="0"/></clipPath></defs><g clip-path="url(#master_svg0_134_14298)"><g><rect x="18" y="19" width="12" height="2" rx="0" fill="#000000" fill-opacity="1"/></g><g><rect x="18" y="23" width="12" height="2" rx="0" fill="#000000" fill-opacity="1"/></g><g><rect x="18" y="27" width="8" height="2" rx="0" fill="#000000" fill-opacity="1"/></g><g><path d="M24.00003358154297,4C22.18113358154297,4.00552559,20.59553358154297,5.23858,20.142133581542968,7L12.000003581542968,7L12.000003581542968,4L3.9999999815429685,4L3.9999999815429685,12L12.000003581542968,12L12.000003581542968,9L20.142133581542968,9C20.235133581542968,9.35792,20.37813358154297,9.700949999999999,20.56693358154297,10.019L10.019003581542968,20.5669C9.409333581542969,20.1996,8.711773581542968,20.0037,8.00000358154297,20C5.919403581542968,19.9922,4.1802125815429685,21.5806,3.9999618815429687,23.6534C3.8197115815429687,25.7262,5.258593581542969,27.5911,7.309313581542969,27.9425C9.360043581542968,28.2939,11.337733581542969,27.0145,11.857903581542969,25L16.00003358154297,25L16.00003358154297,23L11.857903581542969,23C11.76482358154297,22.6421,11.62182358154297,22.299,11.43310358154297,21.981L21.98103358154297,11.4331C22.590633581542967,11.80043,23.28823358154297,11.99629,24.00003358154297,12C26.209133581542968,12,28.00003358154297,10.20914,28.00003358154297,8C28.00003358154297,5.79086,26.209133581542968,4,24.00003358154297,4ZM10.00000358154297,10L6.000003581542969,10L6.000003581542969,6L10.00000358154297,6L10.00000358154297,10ZM8.00000358154297,26C6.895433581542969,26,6.000003581542969,25.1046,6.000003581542969,24C6.000003581542969,22.8954,6.895433581542969,22,8.00000358154297,22C9.104573581542969,22,10.00000358154297,22.8954,10.00000358154297,24C9.998733581542968,25.104,9.104043581542967,25.9987,8.00000358154297,26ZM24.00003358154297,10C22.895433581542967,10,22.00003358154297,9.104569999999999,22.00003358154297,8C22.00003358154297,6.89543,22.895433581542967,6,24.00003358154297,6C25.10453358154297,6,26.00003358154297,6.89543,26.00003358154297,8C25.998733581542968,9.104040000000001,25.104033581542968,9.99873,24.00003358154297,10Z" fill="#000000" fill-opacity="1"/></g><g></g></g></svg>