<svg xmlns="http://www.w3.org/2000/svg" xmlns:xlink="http://www.w3.org/1999/xlink" fill="none" version="1.1" width="32" height="32" viewBox="0 0 32 32"><defs><clipPath id="master_svg0_134_14350"><rect x="0" y="0" width="32" height="32" rx="0"/></clipPath></defs><g clip-path="url(#master_svg0_134_14350)"><g><path d="M11.17,5.999999523162842L14.59,9.409999523162842L15.17,9.999999523162842L28,9.999999523162842L28,25.999999523162842L4,25.999999523162842L4,5.999999523162842L11.17,5.999999523162842ZM11.17,3.999999999999842L4,3.999999999999842C2.895431,3.999999999999842,2,4.895430523162842,2,5.999999523162842L2,25.999999523162842C2,27.104599523162843,2.895431,27.999999523162842,4,27.999999523162842L28,27.999999523162842C29.1046,27.999999523162842,30,27.104599523162843,30,25.999999523162842L30,9.999999523162842C30,8.895429523162843,29.1046,7.999999523162842,28,7.999999523162842L16,7.999999523162842L12.59,4.590000523162842C12.2142,4.211960523162841,11.70304,3.999577522162842,11.17,3.999999999999842Z" fill="#000000" fill-opacity="1"/></g><g></g></g></svg>