<svg xmlns="http://www.w3.org/2000/svg" xmlns:xlink="http://www.w3.org/1999/xlink" fill="none" version="1.1" width="32" height="32" viewBox="0 0 32 32"><defs><clipPath id="master_svg0_134_14395"><rect x="0" y="0" width="32" height="32" rx="0"/></clipPath></defs><g clip-path="url(#master_svg0_134_14395)"><g><path d="M28,8L16,8L12.5857,4.5857C12.2106,4.21068,11.70196,4,11.1716,4L4,4C2.895431,4,2,4.895431,2,6L2,26C2,27.1046,2.895431,28,4,28L16,28C17.104599999999998,28,18,27.1046,18,26L18,16.83L20.59,19.41L22,18L17,13L12,18L13.41,19.41L16,16.83L16,26L4,26L4,6L11.1716,6L15.1716,10L28,10L28,26L22,26L22,28L28,28C29.1046,28,30,27.1046,30,26L30,10C30,8.895430000000001,29.1046,8,28,8Z" fill="#000000" fill-opacity="1"/></g><g></g></g></svg>