<svg xmlns="http://www.w3.org/2000/svg" xmlns:xlink="http://www.w3.org/1999/xlink" fill="none" version="1.1" width="32" height="32" viewBox="0 0 32 32"><defs><clipPath id="master_svg0_134_14448"><rect x="0" y="0" width="32" height="32" rx="0"/></clipPath></defs><g clip-path="url(#master_svg0_134_14448)"><g><path d="M26.00001609096527,18.00003829498291C24.181116090965272,18.005538294982912,22.595516090965273,19.23853829498291,22.14211609096527,21.00003829498291L17.00001609096527,21.00003829498291L17.00001609096527,10.999998294982909L22.14211609096527,10.999998294982909C22.83881609096527,13.69817829498291,26.011816090965272,14.87498829498291,28.29941609096527,13.28356829498291C30.58701609096527,11.69214829498291,30.58701609096527,8.30785829498291,28.29941609096527,6.71643329498291C26.011816090965272,5.12501129498291,22.83881609096527,6.30182029498291,22.14211609096527,8.99999829498291L17.00001609096527,8.99999829498291C15.89591609096527,9.00109829498291,15.00111609096527,9.89588829498291,15.000016090965271,10.999998294982909L15.000016090965271,14.99999829498291L9.857896090965271,14.99999829498291C9.161236090965271,12.30181829498291,5.988136090965271,11.12500829498291,3.7005860909652712,12.71642829498291C1.413028090965271,14.30784829498291,1.413028090965271,17.69213829498291,3.7005760909652707,19.28353829498291C5.988136090965271,20.87503829498291,9.161226090965272,19.69813829498291,9.857896090965271,17.00003829498291L15.000016090965271,17.00003829498291L15.000016090965271,21.00003829498291C15.00111609096527,22.10413829498291,15.89591609096527,22.99893829498291,17.00001609096527,23.00003829498291L22.14211609096527,23.00003829498291C22.66511609096527,25.00803829498291,24.63891609096527,26.28083829498291,26.68381609096527,25.92893829498291C28.72881609096527,25.57703829498291,30.16351609096527,23.71753829498291,29.98521609096527,21.650238294982913C29.80691609096527,19.58293829498291,28.07501609096527,17.99663829498291,26.00001609096527,18.00003829498291ZM26.00001609096527,7.999998294982911C27.104616090965273,7.999998294982911,28.00001609096527,8.89542829498291,28.00001609096527,9.999998294982909C28.00001609096527,11.104568294982911,27.104616090965273,11.999998294982909,26.00001609096527,11.999998294982909C24.89541609096527,11.999998294982909,24.00001609096527,11.104568294982911,24.00001609096527,9.999998294982909C24.001116090965272,8.89588829498291,24.895916090965272,8.00109829498291,26.00001609096527,7.999998294982911ZM5.999996090965271,18.00003829498291C4.895426090965271,18.00003829498291,3.999996090965271,17.10453829498291,3.999996090965271,16.00003829498291C3.999996090965271,14.89542829498291,4.895426090965271,13.99999829498291,5.999996090965271,13.99999829498291C7.104566090965271,13.99999829498291,7.999996090965271,14.89542829498291,7.999996090965271,16.00003829498291C7.998896090965271,17.10413829498291,7.104116090965271,17.99893829498291,5.999996090965271,18.00003829498291ZM26.00001609096527,24.00003829498291C24.89541609096527,24.00003829498291,24.00001609096527,23.10453829498291,24.00001609096527,22.00003829498291C24.00001609096527,20.89543829498291,24.89541609096527,20.00003829498291,26.00001609096527,20.00003829498291C27.104616090965273,20.00003829498291,28.00001609096527,20.89543829498291,28.00001609096527,22.00003829498291C27.99891609096527,23.10413829498291,27.10411609096527,23.99893829498291,26.00001609096527,24.00003829498291Z" fill="#000000" fill-opacity="1"/></g><g></g></g></svg>