<svg xmlns="http://www.w3.org/2000/svg" xmlns:xlink="http://www.w3.org/1999/xlink" fill="none" version="1.1" width="32" height="32" viewBox="0 0 32 32"><defs><clipPath id="master_svg0_134_14472"><rect x="0" y="0" width="32" height="32" rx="0"/></clipPath></defs><g clip-path="url(#master_svg0_134_14472)"><g><path d="M26,18C26,23.5228,21.5228,28,16,28C10.47715,28,6,23.5228,6,18C6,12.4772,10.47715,8,16,8L20,8L20,13L26,7L20,1L20,6L16,6C9.37258,6,4,11.3726,4,18C4,24.6274,9.37258,30,16,30C22.6274,30,28,24.6274,28,18L26,18Z" fill="#000000" fill-opacity="1"/></g><g><path d="M19.64000407043457,22.12999906616211C19.19803407043457,22.14194906616211,18.75948407043457,22.04943906616211,18.35999407043457,21.85999906616211C18.00306407043457,21.682609066162108,17.69688207043457,21.417699066162108,17.46999907043457,21.089999066162108C17.23200007043457,20.708619066162107,17.07223507043457,20.28370906616211,17.00000007043457,19.839999066162108C16.87689397043457,19.28872906616211,16.81982613043457,18.724759066162108,16.82999992043457,18.159999066162108C16.82094383043457,17.59528906616211,16.87799837043457,17.03144906616211,17.00000007043457,16.479999066162108C17.08933107043457,16.03315906616211,17.266045070434572,15.608359066162109,17.52000007043457,15.22999906616211C17.74688307043457,14.90229506616211,18.05307407043457,14.637392066162109,18.41000407043457,14.459999066162109C18.80948407043457,14.270553566162109,19.24803407043457,14.17804717616211,19.69000407043457,14.18999862616211C20.53478407043457,14.125726666162109,21.352444070434572,14.50427106616211,21.850004070434572,15.189999066162109C22.36129407043457,16.07860906616211,22.604414070434572,17.09623906616211,22.55000407043457,18.11999906616211C22.604414070434572,19.14375906616211,22.36129407043457,20.16138906616211,21.850004070434572,21.04999906616211C21.36195407043457,21.78214906616211,20.517514070434572,22.194809066162108,19.64000407043457,22.12999906616211ZM19.64000407043457,20.909999066162108C20.05549407043457,20.95354906616211,20.454274070434572,20.734219066162108,20.64000407043457,20.35999906616211C20.85986407043457,19.88807906616211,20.96276407043457,19.370129066162107,20.939994070434572,18.84999906616211L20.939994070434572,17.46999906616211C20.96394407043457,16.95300906616211,20.86094407043457,16.43800906616211,20.64000407043457,15.96999906616211C20.15943407043457,15.22552906616211,19.07056407043457,15.22552906616211,18.59000407043457,15.96999906616211C18.37287407043457,16.43900906616211,18.273334070434572,16.95385906616211,18.30000407043457,17.46999906616211L18.30000407043457,18.84999906616211C18.27449407043457,19.369279066162107,18.373944070434572,19.88710906616211,18.59000407043457,20.35999906616211C18.78192407043457,20.75335906616211,19.20735407043457,20.97619906616211,19.64000407043457,20.909999066162108Z" fill="#000000" fill-opacity="1"/></g><g><path d="M12.620000000000001,17.420002444458007C12.97513,17.45524244445801,13.33087,17.359192444458007,13.620000000000001,17.150002444458007C13.82403,16.98431244445801,13.93874,16.732682444458007,13.93,16.470002444458007L13.93,16.39000244445801C13.944939999999999,16.11100244445801,13.835,15.839822444458008,13.629999999999999,15.650002444458007C13.39703,15.459002444458008,13.10075,15.362622444458008,12.8,15.380002444458007C12.48656,15.373822444458007,12.17784,15.457072444458008,11.91,15.620002444458008C11.63379,15.791012444458008,11.401019999999999,16.023782444458007,11.23,16.30000244445801L10.299999,15.470002444458007C10.43585,15.290962444458009,10.582806,15.120624444458008,10.739999,14.959999444458008C10.902638,14.804698444458008,11.08404,14.670324444458007,11.28,14.559999444458008C11.49874,14.435977444458008,11.73463,14.344992444458008,11.98,14.289999444458008C12.26416,14.217569344458008,12.55682,14.183930394458008,12.85,14.189998626458008C13.20805,14.188282964458008,13.56467,14.235383044458008,13.91,14.329999444458007C14.20702,14.407991444458007,14.48569,14.543930444458008,14.73,14.729998444458008C14.953990000000001,14.897891444458008,15.13834,15.112965444458007,15.27,15.360002444458008C15.392859999999999,15.619202444458008,15.45445,15.903192444458007,15.45,16.19000244445801C15.451789999999999,16.41797244445801,15.41458,16.644572444458007,15.34,16.860002444458008C15.26338,17.05011244445801,15.155190000000001,17.225922444458007,15.02,17.380002444458007C14.8844,17.52525244445801,14.72556,17.646922444458006,14.55,17.740002444458007C14.36976,17.831762444458008,14.17806,17.89902244445801,13.98,17.94000244445801L13.98,18.00000244445801C14.19891,18.03969244445801,14.41105,18.110402444458007,14.61,18.210002444458006C14.802389999999999,18.30345244445801,14.97542,18.432372444458007,15.120000000000001,18.59000244445801C15.26408,18.75244244445801,15.379100000000001,18.938492444458007,15.46,19.14000244445801C15.543510000000001,19.37415244445801,15.58416,19.62143244445801,15.58,19.869992444458006C15.587489999999999,20.18821244445801,15.518930000000001,20.503612444458007,15.379999999999999,20.789992444458008C15.24555,21.072002444458008,15.04691,21.31859244445801,14.8,21.509992444458007C14.53436,21.714772444458006,14.23238,21.867452444458007,13.91,21.95999244445801C13.53726,22.072552444458008,13.1493,22.126532444458007,12.76,22.119992444458006C12.42341,22.12452244445801,12.08755,22.087572444458008,11.76,22.009992444458007C11.49405,21.940812444458007,11.23847,21.836562444458007,11,21.700002444458008C10.794526,21.575042444458006,10.606265,21.423762444458006,10.44,21.25000244445801C10.278262,21.079252444458007,10.131083,20.89527244445801,10,20.700002444458008L11.07,19.89000244445801C11.15165,20.037452444458008,11.2453,20.17792244445801,11.35,20.310002444458007C11.454979999999999,20.43825244445801,11.57597,20.552512444458007,11.71,20.650002444458007C11.84726,20.746942444458007,11.99919,20.82122244445801,12.16,20.87000244445801C12.34564,20.920632444458008,12.53762,20.944212444458007,12.73,20.94000244445801C13.08902,20.967632444458008,13.44548,20.860702444458006,13.73,20.64000244445801C13.95924,20.418032444458007,14.08292,20.10883244445801,14.07,19.790002444458008L14.07,19.710002444458006C14.07718,19.40043244445801,13.94054,19.10500244445801,13.7,18.91000244445801C13.384920000000001,18.707472444458006,13.01399,18.60948244445801,12.64,18.630002444458007L11.879999999999999,18.630002444458007L11.879999999999999,17.420002444458007L12.620000000000001,17.420002444458007Z" fill="#000000" fill-opacity="1"/></g><g></g></g></svg>