<svg xmlns="http://www.w3.org/2000/svg" xmlns:xlink="http://www.w3.org/1999/xlink" fill="none" version="1.1" width="32" height="32" viewBox="0 0 32 32"><defs><clipPath id="master_svg0_134_14511"><rect x="0" y="0" width="32" height="32" rx="0"/></clipPath></defs><g clip-path="url(#master_svg0_134_14511)"><g><path d="M7.509999857940674,26.000024937438965C7.023699857940674,26.000824937438964,6.539439857940674,25.936924937438963,6.069999857940674,25.810024937438964C3.138929857940674,24.974124937438965,1.4145778579406738,21.947624937438967,2.189999857940674,19.000024937438965L4.5199998579406735,10.159994937438965C4.886579857940674,8.714714937438965,5.820259857940673,7.4782049374389645,7.109999857940674,6.729999937438965C8.365619857940674,6.002739427438965,9.860079857940674,5.808278937438965,11.259999857940674,6.189999937438965C12.749559857940675,6.603640937438965,13.997359857940674,7.622954937438965,14.699959857940673,9.000004937438964L17.299959857940674,9.000004937438964C17.999659857940674,7.620574937438965,19.248659857940673,6.600267937438965,20.739959857940672,6.189999937438965C22.139959857940674,5.808279937438964,23.634359857940673,6.002739907438965,24.889959857940674,6.729999937438965C26.173259857940675,7.476144937438965,27.105559857940673,8.703634937438965,27.479959857940674,10.140004937438965L29.809959857940672,19.000024937438965C30.597259857940674,21.957124937438962,28.864959857940672,24.998524937438965,25.919959857940675,25.830024937438964C24.520059857940673,26.211724937438966,23.025659857940674,26.017224937438964,21.769959857940673,25.290024937438965C20.484559857940674,24.546424937438964,19.551359857940675,23.317824937438964,19.179959857940673,21.880024937438964L18.999959857940674,21.000024937438965L12.999959857940674,21.000024937438965L12.769959857940673,21.860024937438965C12.398559857940674,23.297824937438964,11.465479857940673,24.526424937438964,10.179999857940674,25.270024937438965C9.367479857940673,25.738624937438964,8.447929857940673,25.990024937438964,7.509999857940674,26.000024937438965ZM9.829999857940674,8.000004937438964C9.226539857940674,8.002044937438965,8.633919857940674,8.160544937438965,8.109999857940675,8.460004937438965C7.288849857940674,8.941784937438964,6.691979857940674,9.729214937438964,6.449999857940674,10.649994937438965L4.119999857940674,19.490024937438967C3.6128098579406736,21.384624937438964,4.715509857940674,23.336524937438966,6.599999857940674,23.880024937438964C7.483699857940674,24.121024937438964,8.427099857940675,23.998624937438965,9.219999857940675,23.540024937438965C10.045659857940674,23.063324937438964,10.644139857940674,22.273724937438963,10.879999857940675,21.350024937438967L11.499999857940674,19.000024937438965L20.499959857940674,19.000024937438965L21.109959857940673,21.350024937438967C21.349959857940675,22.271724937438965,21.947359857940675,23.059924937438964,22.769959857940673,23.540024937438965C23.566759857940674,23.998124937438966,24.512959857940675,24.120424937438965,25.399959857940672,23.880024937438964C27.287659857940675,23.341324937438966,28.389459857940675,21.383024937438964,27.869959857940675,19.490024937438967L25.539959857940673,10.650004937438965C25.305459857940672,9.728484937438965,24.711059857940675,8.939554937438965,23.889959857940674,8.460004937438965C23.093259857940673,8.001874937438965,22.147059857940675,7.879544937438965,21.259959857940675,8.120004937438965C20.158059857940675,8.434134937438966,19.275459857940675,9.260864937438965,18.889959857940674,10.340004937438966L18.649959857940672,11.000004937438966L13.349959857940673,11.000004937438966L13.109959857940673,10.340004937438966C12.721159857940673,9.259444937438964,11.834969857940674,8.432814937438964,10.729999857940674,8.120004937438965C10.436529857940673,8.040864937438965,10.133949857940674,8.000524937438964,9.829999857940674,8.000004937438964Z" fill="#000000" fill-opacity="1"/></g><g><path d="M12,14Q12,14.09825,11.99037,14.19603Q11.98074,14.29381,11.96157,14.39018Q11.9424,14.48655,11.913879999999999,14.58057Q11.88536,14.67459,11.847760000000001,14.76537Q11.81016,14.85614,11.76384,14.94279Q11.71753,15.02945,11.662939999999999,15.111139999999999Q11.60835,15.19284,11.54602,15.26879Q11.48369,15.34474,11.41421,15.41421Q11.34474,15.48369,11.26879,15.54602Q11.19284,15.60835,11.111139999999999,15.662939999999999Q11.02945,15.71753,10.94279,15.76384Q10.85614,15.81016,10.76537,15.847760000000001Q10.67459,15.88536,10.58057,15.913879999999999Q10.48655,15.9424,10.39018,15.96157Q10.29381,15.98074,10.19603,15.99037Q10.09825,16,10,16Q9.90175,16,9.80397,15.99037Q9.70619,15.98074,9.60982,15.96157Q9.51345,15.9424,9.41943,15.913879999999999Q9.32541,15.88536,9.23463,15.847760000000001Q9.14386,15.81016,9.05721,15.76384Q8.970554,15.71753,8.888859,15.662939999999999Q8.807164,15.60835,8.731213,15.54602Q8.655262,15.48369,8.585786,15.41421Q8.516311,15.34474,8.453979,15.26879Q8.391648,15.19284,8.337061,15.111139999999999Q8.282474,15.02945,8.236157,14.94279Q8.189841,14.85614,8.152241,14.76537Q8.114641,14.67459,8.0861193,14.58057Q8.0575978,14.48655,8.0384294,14.39018Q8.0192611,14.29381,8.00963055,14.19603Q8,14.09825,8,14Q8,13.90175,8.00963055,13.80397Q8.0192611,13.70619,8.0384294,13.60982Q8.0575978,13.51345,8.0861193,13.41943Q8.114641,13.32541,8.152241,13.23463Q8.189841,13.14386,8.236157,13.05721Q8.282474,12.970554,8.337061,12.888859Q8.391648,12.807164,8.453979,12.731213Q8.516311,12.655262,8.585786,12.585786Q8.655262,12.516311,8.731213,12.453979Q8.807164,12.391648,8.888859,12.337061Q8.970554,12.282474,9.05721,12.236157Q9.14386,12.189841,9.23463,12.152241Q9.32541,12.114641,9.41943,12.0861193Q9.51345,12.0575978,9.60982,12.0384294Q9.70619,12.0192611,9.80397,12.00963055Q9.90175,12,10,12Q10.09825,12,10.19603,12.00963055Q10.29381,12.0192611,10.39018,12.0384294Q10.48655,12.0575978,10.58057,12.0861193Q10.67459,12.114641,10.76537,12.152241Q10.85614,12.189841,10.94279,12.236157Q11.02945,12.282474,11.111139999999999,12.337061Q11.19284,12.391648,11.26879,12.453979Q11.34474,12.516311,11.41421,12.585786Q11.48369,12.655262,11.54602,12.731213Q11.60835,12.807164,11.662939999999999,12.888859Q11.71753,12.970554,11.76384,13.05721Q11.81016,13.14386,11.847760000000001,13.23463Q11.88536,13.32541,11.913879999999999,13.41943Q11.9424,13.51345,11.96157,13.60982Q11.98074,13.70619,11.99037,13.80397Q12,13.90175,12,14Z" fill="#000000" fill-opacity="1"/></g><g><ellipse cx="22" cy="12" rx="1" ry="1" fill="#000000" fill-opacity="1"/></g><g><ellipse cx="22" cy="16" rx="1" ry="1" fill="#000000" fill-opacity="1"/></g><g><ellipse cx="20" cy="14" rx="1" ry="1" fill="#000000" fill-opacity="1"/></g><g><ellipse cx="24" cy="14" rx="1" ry="1" fill="#000000" fill-opacity="1"/></g><g></g></g></svg>