<svg xmlns="http://www.w3.org/2000/svg" xmlns:xlink="http://www.w3.org/1999/xlink" fill="none" version="1.1" width="32" height="32" viewBox="0 0 32 32"><defs><clipPath id="master_svg0_134_14597"><rect x="0" y="0" width="32" height="32" rx="0"/></clipPath></defs><g clip-path="url(#master_svg0_134_14597)"><g><path d="M18.000030173492434,4L18.000030173492434,6L24.585930173492432,6L16.89753017349243,13.6885C12.249180173492432,10.076979999999999,5.423450173492432,12.53032,4.1378511734924315,18.2746C2.8522501734924317,24.019,7.981070173492432,29.1478,13.725380173492432,27.8622C19.46973017349243,26.5765,21.92303017349243,19.750799999999998,18.311530173492432,15.1025L26.00003017349243,7.4140999999999995L26.00003017349243,14L28.00003017349243,14L28.00003017349243,4L18.000030173492434,4ZM12.000000173492431,26C8.68629017349243,26,6.000000173492431,23.3137,6.000000173492431,20C6.000000173492431,16.6863,8.68629017349243,14,12.000000173492431,14C15.313730173492432,14,18.000030173492434,16.6863,18.000030173492434,20C17.99633017349243,23.3122,15.312230173492432,25.9964,12.000000173492431,26Z" fill="#000000" fill-opacity="1"/></g><g></g></g></svg>