<svg xmlns="http://www.w3.org/2000/svg" xmlns:xlink="http://www.w3.org/1999/xlink" fill="none" version="1.1" width="32" height="32" viewBox="0 0 32 32"><defs><clipPath id="master_svg0_134_14623"><rect x="0" y="0" width="32" height="32" rx="0"/></clipPath></defs><g clip-path="url(#master_svg0_134_14623)"><g><path d="M15,22L13.5901,23.4102L16.1699,26L4,26L4,8L2,8L2,26C2,27.1025,2.8971999999999998,28,4,28L16.1699,28L13.5901,30.5898L15,32L20,27L15,22Z" fill="#000000" fill-opacity="1"/></g><g><ellipse cx="11" cy="16" rx="1" ry="1" fill="#000000" fill-opacity="1"/></g><g><path d="M24,20L8,20C6.8972,20,6,19.102800000000002,6,18L6,14C6,12.8972,6.8972,12,8,12L24,12C25.1028,12,26,12.8972,26,14L26,18C26,19.102800000000002,25.1028,20,24,20ZM8,14L8,18L24,18L24,14L8,14Z" fill="#000000" fill-opacity="1"/></g><g><path d="M28,4L15.8301,4L18.4102,1.4102L17,0L12,5L17,10L18.4102,8.5898L15.8301,6L28,6L28,24L30,24L30,6C30,4.8975,29.1028,4,28,4Z" fill="#000000" fill-opacity="1"/></g><g></g></g></svg>