<svg xmlns="http://www.w3.org/2000/svg" xmlns:xlink="http://www.w3.org/1999/xlink" fill="none" version="1.1" width="32" height="32" viewBox="0 0 32 32"><defs><clipPath id="master_svg0_134_14637"><rect x="0" y="0" width="32" height="32" rx="0"/></clipPath></defs><g clip-path="url(#master_svg0_134_14637)"><g><path d="M26,4L6,4C4.895956,4.00126696,4.00126743,4.895956,4,6L4,26C4.00126743,27.104,4.895956,27.9987,6,28L26,28C27.104,27.9987,27.9987,27.104,28,26L28,6C27.9987,4.895956,27.104,4.00126743,26,4ZM22,26L22,22L18,22L18,26L14,26L14,22L10,22L10,18L14,18L14,14L10,14L10,10L14,10L14,6L18,6L18,10L22,10L22,6L26,6L26,26L22,26Z" fill="#000000" fill-opacity="1"/></g><g><rect x="14" y="10" width="4" height="4" rx="0" fill="#000000" fill-opacity="1"/></g><g><rect x="14" y="18" width="4" height="4" rx="0" fill="#000000" fill-opacity="1"/></g><g><rect x="18" y="14" width="4" height="4" rx="0" fill="#000000" fill-opacity="1"/></g><g></g></g></svg>