<svg xmlns="http://www.w3.org/2000/svg" xmlns:xlink="http://www.w3.org/1999/xlink" fill="none" version="1.1" width="32" height="32" viewBox="0 0 32 32"><defs><clipPath id="master_svg0_134_14740"><rect x="0" y="0" width="32" height="32" rx="0"/></clipPath></defs><g clip-path="url(#master_svg0_134_14740)"><g><ellipse cx="20" cy="8" rx="1" ry="1" fill="#000000" fill-opacity="1"/></g><g><ellipse cx="23" cy="8" rx="1" ry="1" fill="#000000" fill-opacity="1"/></g><g><ellipse cx="26" cy="8" rx="1" ry="1" fill="#000000" fill-opacity="1"/></g><g><path d="M28,4L4,4C2.895956,4.00126696,2.00126719,4.895956,2,6L2,26C2.00126767,27.104,2.895956,27.9987,4,28L28,28C29.104,27.9987,29.9987,27.104,30,26L30,6C29.9987,4.895956,29.104,4.00126839,28,4ZM28,6L28,10L4,10L4,6L28,6ZM4,12L10,12L10,26L4,26L4,12ZM12,26L12,12L28,12L28,26L12,26Z" fill="#000000" fill-opacity="1"/></g><g></g></g></svg>