<svg xmlns="http://www.w3.org/2000/svg" xmlns:xlink="http://www.w3.org/1999/xlink" fill="none" version="1.1" width="32" height="32" viewBox="0 0 32 32"><defs><clipPath id="master_svg0_134_14757"><rect x="0" y="0" width="32" height="32" rx="0"/></clipPath></defs><g clip-path="url(#master_svg0_134_14757)"><g><ellipse cx="21.499500274658203" cy="29.5" rx="1.5" ry="1.5" fill="#000000" fill-opacity="1"/></g><g><ellipse cx="24.499500274658203" cy="25.5" rx="1.5" ry="1.5" fill="#000000" fill-opacity="1"/></g><g><ellipse cx="7.5" cy="25.5" rx="1.5" ry="1.5" fill="#000000" fill-opacity="1"/></g><g><ellipse cx="4.499500036239624" cy="29.5" rx="1.5" ry="1.5" fill="#000000" fill-opacity="1"/></g><g><ellipse cx="10.499500274658203" cy="29.5" rx="1.5" ry="1.5" fill="#000000" fill-opacity="1"/></g><g><path d="M15.868000427246095,30.49599971008301L14.132000427246094,29.503999710083008L17.276000427246093,23.99999971008301L11.277000427246094,23.99999971008301L16.132000427246094,15.503999710083008L17.868000427246095,16.496000710083006L14.723000427246093,21.99999971008301L20.724000427246093,21.99999971008301L15.868000427246095,30.49599971008301Z" fill="#000000" fill-opacity="1"/></g><g><path d="M23.499971068382262,22.000000817871094L22.999971068382262,22.000000817871094L22.999971068382262,20.000000817871094L23.499971068382262,20.000000817871094C25.915271068382264,20.001000817871095,27.899971068382264,18.094200817871094,27.995771068382265,15.680800817871093C28.09157106838226,13.267500817871094,26.264071068382265,11.209410817871094,23.856371068382263,11.019000817871094L23.040971068382262,10.955100817871093L22.942371068382265,10.143100817871094C22.512671068382264,6.635650817871094,19.534171068382264,3.9997508178710937,16.00047106838226,3.9997508178710937C12.466871068382263,3.9997508178710937,9.488301068382263,6.635650817871094,9.058601068382263,10.143100817871094L8.959501068382263,10.955100817871093L8.144001068382263,11.019000817871094C5.7363710683822635,11.209410817871094,3.9089510683822635,13.267400817871094,4.004611068382263,15.680600817871094C4.100271068382263,18.093900817871095,6.084851068382263,20.000800817871095,8.500001068382264,20.000000817871094L9.000001068382264,20.000000817871094L9.000001068382264,22.000000817871094L8.500001068382264,22.000000817871094C5.163511068382263,22.001500817871094,2.368240068382263,19.475600817871094,2.032768268382263,16.156000817871096C1.697296068382263,12.836400817871093,3.9306810683822633,9.802310817871094,7.200001068382263,9.136200817871094C8.078221068382263,4.976560817871094,11.748961068382263,1.9999008178710938,16.00027106838226,1.9999008178710938C20.25167106838226,1.9999008178710938,23.92237106838226,4.976560817871094,24.800571068382265,9.136200817871094C28.069571068382263,9.802760817871093,30.302471068382264,12.836800817871094,29.966871068382265,16.156200817871095C29.63127106838226,19.475500817871094,26.836271068382263,22.001300817871094,23.499971068382262,22.000000817871094Z" fill="#000000" fill-opacity="1"/></g><g></g></g></svg>