<svg xmlns="http://www.w3.org/2000/svg" xmlns:xlink="http://www.w3.org/1999/xlink" fill="none" version="1.1" width="32" height="32" viewBox="0 0 32 32"><defs><clipPath id="master_svg0_134_24665"><rect x="0" y="0" width="32" height="32" rx="0"/></clipPath></defs><g clip-path="url(#master_svg0_134_24665)"><g><path d="M26.36998320236206,20.52003547973633L16.99998320236206,15.409995479736327L16.99998320236206,13.859995479736329C19.01428320236206,13.339905479736327,20.29368320236206,11.362635479736328,19.94258320236206,9.312115479736327C19.59158320236206,7.261595479736328,17.727383202362063,5.822439479736328,15.654883202362061,6.001940279736328C13.582253202362061,6.181441479736328,11.99325320236206,7.919665479736328,12.00000320236206,9.999995479736327L13.99998320236206,9.999995479736327C14.093883202362061,8.895435479736328,15.06538320236206,8.076115479736329,16.16998320236206,8.169995479736329C17.27458320236206,8.263885479736327,18.09388320236206,9.235425479736328,17.99998320236206,10.339995479736327C17.79568320236206,11.333925479736328,16.90408320236206,12.035405479736328,15.88998320236206,11.999995479736327C15.39848320236206,11.999995479736327,14.99998320236206,12.398465479736327,14.99998320236206,12.889995479736328L14.99998320236206,15.409995479736327L5.630003202362061,20.52003547973633C5.01740320236206,20.845035479736328,4.53150320236206,21.36623547973633,4.25000020236206,22.00003547973633C3.4022342023620604,23.867035479736327,4.75954820236206,25.98783547973633,6.8100032023620605,26.00003547973633L25.18998320236206,26.00003547973633C27.24048320236206,25.98783547973633,28.59778320236206,23.867035479736327,27.74998320236206,22.00003547973633C27.468483202362062,21.36623547973633,26.98258320236206,20.845035479736328,26.36998320236206,20.52003547973633ZM25.18998320236206,24.00003547973633L6.8100032023620605,24.00003547973633C6.36265320236206,24.00003547973633,6.000003202362061,23.63733547973633,6.000003202362061,23.190035479736327C5.9990032023620605,22.82353547973633,6.198523202362061,22.485935479736327,6.52000320236206,22.310035479736328L15.99998320236206,17.140035479736326L25.47998320236206,22.310035479736328C25.80148320236206,22.485935479736327,26.00098320236206,22.82353547973633,25.99998320236206,23.190035479736327C25.99998320236206,23.63733547973633,25.63738320236206,24.00003547973633,25.18998320236206,24.00003547973633Z" fill="#000000" fill-opacity="1"/></g><g></g></g></svg>