<svg xmlns="http://www.w3.org/2000/svg" xmlns:xlink="http://www.w3.org/1999/xlink" fill="none" version="1.1" width="32" height="32" viewBox="0 0 32 32"><defs><clipPath id="master_svg0_134_14773"><rect x="0" y="0" width="32" height="32" rx="0"/></clipPath></defs><g clip-path="url(#master_svg0_134_14773)"><g><ellipse cx="21.5" cy="7.5" rx="1.5" ry="1.5" fill="#000000" fill-opacity="1"/></g><g><path d="M14.4143,20L9,20L9,14.5857L15.030000000000001,8.5557C15.01037,8.37111,15.00036,8.18563,15,8C15,4.68629,17.68629,2,21,2C24.3137,2,27,4.68629,27,8C27,11.31371,24.3137,14,21,14C20.8143,13.9996,20.6288,13.9896,20.4441,13.97L14.4143,20ZM11,18L13.5857,18L19.7563,11.8291L20.273699999999998,11.9248C20.512900000000002,11.97232,20.7561,11.9975,21,12C23.3461,12.0292,25.2262,10.06518,25.0947,7.72255C24.9632,5.379910000000001,22.8751,3.6387,20.5469,3.93032C18.2188,4.22195,16.62465,6.4244,17.075,8.7271L17.1702,9.2437L11,15.4143L11,18Z" fill="#000000" fill-opacity="1"/></g><g><path d="M28,20L19,20L19,22L28,22L28,28L4,28L4,22L6,22L6,20L4,20C2.895978,20.00132179,2.00132132,20.895979,2,22L2,28C2.00132227,29.10402,2.895979,29.99868,4,30L28,30C29.104,29.99868,29.9987,29.10402,30,28L30,22C29.9987,20.895979,29.104,20.00132179,28,20Z" fill="#000000" fill-opacity="1"/></g><g><ellipse cx="7" cy="25" rx="1" ry="1" fill="#000000" fill-opacity="1"/></g><g></g></g></svg>