<svg xmlns="http://www.w3.org/2000/svg" xmlns:xlink="http://www.w3.org/1999/xlink" fill="none" version="1.1" width="32" height="32" viewBox="0 0 32 32"><defs><clipPath id="master_svg0_134_14805"><rect x="0" y="0" width="32" height="32" rx="0"/></clipPath></defs><g clip-path="url(#master_svg0_134_14805)"><g><path d="M28,6L4,6C2.895431,6,2,6.895431,2,8L2,24C2,25.1046,2.895431,26,4,26L28,26C29.1046,26,30,25.1046,30,24L30,8C30,6.895431,29.1046,6,28,6ZM4,24L4,8L28,8L28,24L4,24Z" fill="#000000" fill-opacity="1"/></g><g><path d="M22,11L18,11L18,21L22,21C23.65685,21,25,19.65685,25,18L25,14C25,12.34315,23.65685,11,22,11ZM23,18C23,18.55228,22.55228,19,22,19L20,19L20,13L22,13C22.55228,13,23,13.44771,23,14L23,18Z" fill="#000000" fill-opacity="1"/></g><g><path d="M13,11L13,15L10,15L10,11L8,11L8,21L10,21L10,17L13,17L13,21L15,21L15,11L13,11Z" fill="#000000" fill-opacity="1"/></g><g></g></g></svg>