<svg xmlns="http://www.w3.org/2000/svg" xmlns:xlink="http://www.w3.org/1999/xlink" fill="none" version="1.1" width="32" height="32" viewBox="0 0 32 32"><defs><clipPath id="master_svg0_134_14818"><rect x="0" y="0" width="32" height="32" rx="0"/></clipPath></defs><g clip-path="url(#master_svg0_134_14818)"><g><path d="M30,15L30,11C30,9.895431,29.10457,9,28,9L22,9L22,23L24,23L24,17L25.48,17L27.82,23L30,23L27.67,17L28,17C29.10457,17,30,16.10457,30,15ZM24,11L28,11L28,15L24,15L24,11Z" fill="#000000" fill-opacity="1"/></g><g><path d="M16,23L12,23L12,9L16,9C18.209139999999998,9,20,10.79086,20,13L20,19C20,21.2091,18.209139999999998,23,16,23ZM14,21L16,21C17.10457,21,18,20.104599999999998,18,19L18,13C18,11.895430000000001,17.10457,11,16,11L14,11L14,21Z" fill="#000000" fill-opacity="1"/></g><g><path d="M8,9L8,15L4,15L4,9L2,9L2,23L4,23L4,17L8,17L8,23L10,23L10,9L8,9Z" fill="#000000" fill-opacity="1"/></g><g></g></g></svg>