<svg xmlns="http://www.w3.org/2000/svg" xmlns:xlink="http://www.w3.org/1999/xlink" fill="none" version="1.1" width="32" height="32" viewBox="0 0 32 32"><defs><clipPath id="master_svg0_134_14830"><rect x="0" y="0" width="32" height="32" rx="0"/></clipPath></defs><g clip-path="url(#master_svg0_134_14830)"><g><path d="M25,9.999999652633667L24.94,9.999999652633667C24.4133,5.461279652633667,20.5692,2.037489652633667,16,2.037489652633667C11.43082,2.037489414214667,7.58672,5.461269652633667,7.06,9.999999652633667L7,9.999999652633667C4.23858,9.999999652633667,2,12.238589652633667,2,14.999989652633667C2,17.761389652633667,4.23858,19.999989652633666,7,19.999989652633666L9,19.999989652633666L9,10.999999652633667C9,7.134009652633667,12.134,3.999999652633667,16,3.999999652633667C19.866,3.999999652633667,23,7.134009652633667,23,10.999999652633667L23,20.999989652633666C22.9986,22.888189652633667,21.6771,24.518189652633666,19.83,24.909989652633666C19.0659,22.230189652633666,15.8645,21.133289652633668,13.6175,22.781389652633667C11.37059,24.429489652633666,11.45516,27.812589652633665,13.7817,29.34638965263367C16.1082,30.880089652633668,19.2508,29.624589652633667,19.88,26.909989652633666C22.8123,26.475289652633666,24.9876,23.964289652633667,25,20.999989652633666L25,19.999989652633666C27.7614,19.999989652633666,30,17.761389652633667,30,14.999989652633667C30,12.238589652633667,27.7614,9.999999652633667,25,9.999999652633667ZM4,14.999989652633667C4,13.343189652633667,5.34315,11.999999652633667,7,11.999999652633667L7,17.999989652633666C5.34315,17.999989652633666,4,16.656889652633666,4,14.999989652633667ZM16,27.999989652633666C14.8954,27.999989652633666,14,27.104589652633667,14,25.999989652633666C14,24.895389652633668,14.8954,23.999989652633666,16,23.999989652633666C17.104599999999998,23.999989652633666,18,24.895389652633668,18,25.999989652633666C18,27.104589652633667,17.104599999999998,27.999989652633666,16,27.999989652633666ZM25,17.999989652633666L25,11.999999652633667C26.6569,11.999999652633667,28,13.343189652633667,28,14.999989652633667C28,16.656889652633666,26.6569,17.999989652633666,25,17.999989652633666Z" fill="#000000" fill-opacity="1"/></g><g></g></g></svg>