<svg xmlns="http://www.w3.org/2000/svg" xmlns:xlink="http://www.w3.org/1999/xlink" fill="none" version="1.1" width="32" height="32" viewBox="0 0 32 32"><defs><clipPath id="master_svg0_134_14849"><rect x="0" y="0" width="32" height="32" rx="0"/></clipPath></defs><g clip-path="url(#master_svg0_134_14849)"><g><rect x="20" y="18" width="2" height="2" rx="0" fill="#000000" fill-opacity="1"/></g><g><rect x="28" y="16" width="2" height="2" rx="0" fill="#000000" fill-opacity="1"/></g><g><rect x="14" y="6" width="2" height="2" rx="0" fill="#000000" fill-opacity="1"/></g><g><path d="M16,22L12,22L12,16C11.99873,14.895956,11.10404,14.00126743,10,14L4,14C2.895956,14.00126743,2.00126696,14.895956,2,16L2,22C2.00126648,23.104039999999998,2.895955,23.998730000000002,4,24L10,24L10,28C10.00127,29.104,10.89596,29.9987,12,30L16,30C17.104,29.9987,17.9987,29.104,18,28L18,24C17.9987,22.895960000000002,17.104,22.001269999999998,16,22ZM4,22L4,16L10,16L10,22L4,22ZM12,28L12,24L16,24L16,28L12,28Z" fill="#000000" fill-opacity="1"/></g><g><path d="M28,30L24,30C22.89591,29.99884,22.00115776,29.10409,22,28L22,24C22.00115585,22.89591,22.89591,22.00115776,24,22L28,22C29.10409,22.00115776,29.99884,22.89591,30,24L30,28C29.99884,29.10409,29.10409,29.99884,28,30ZM24,24L24,28L28,28L28,24L24,24Z" fill="#000000" fill-opacity="1"/></g><g><path d="M28,2L22,2C20.89596,2.00126767,20.001269999999998,2.895956,20,4L20,10L18,10C16.895955999999998,10.00127,16.00126648,10.89596,16,12L16,14C16.00126648,15.104,16.895955999999998,15.9987,18,16L20,16C21.10404,15.9987,21.998730000000002,15.104,22,14L22,12L28,12C29.104,11.99873,29.9987,11.10404,30,10L30,4C29.9987,2.895956,29.104,2.00126863,28,2ZM18,14L18,12L20,12L20,14L18,14ZM22,10L22,4L28,4L28,10L22,10Z" fill="#000000" fill-opacity="1"/></g><g><path d="M8,10L4,10C2.8959099999999998,9.998840000000001,2.00115776,9.10409,2,8L2,4C2.00115776,2.8959099999999998,2.895911,2.00115776,4,2L8,2C9.10409,2.00115776,9.998840000000001,2.8959099999999998,10,4L10,8C9.998840000000001,9.10409,9.10409,9.998840000000001,8,10ZM4,4L4,8L8,8L8,4L4,4Z" fill="#000000" fill-opacity="1"/></g><g></g></g></svg>