<svg xmlns="http://www.w3.org/2000/svg" xmlns:xlink="http://www.w3.org/1999/xlink" fill="none" version="1.1" width="32" height="32" viewBox="0 0 32 32"><defs><clipPath id="master_svg0_134_14886"><rect x="0" y="0" width="32" height="32" rx="0"/></clipPath></defs><g clip-path="url(#master_svg0_134_14886)"><g><path d="M16,2C8.26801,2,2,8.26801,2,16C2,23.732,8.26801,30,16,30C23.732,30,30,23.732,30,16C30,8.26801,23.732,2,16,2ZM16,28C9.37258,28,4,22.6274,4,16C4,9.37258,9.37258,4,16,4C22.6274,4,28,9.37258,28,16C28,22.6274,22.6274,28,16,28Z" fill="#000000" fill-opacity="1"/></g><g><ellipse cx="16" cy="23.5" rx="1.5" ry="1.5" fill="#000000" fill-opacity="1"/></g><g><path d="M16.99999950958252,8.000000000008203L15.49999950958252,8.000000000008203C13.01241950958252,7.994453905908203,10.99445247958252,10.012428555908203,10.999999999982519,12.499998555908203L10.999999999982519,12.999998555908203L12.99999950958252,12.999998555908203L12.99999950958252,12.499998555908203C12.99999950958252,11.119288555908202,14.119289509582519,9.999998555908203,15.49999950958252,9.999998555908203L16.99999950958252,9.999998555908203C18.38070950958252,9.999998555908203,19.49999950958252,11.119288555908202,19.49999950958252,12.499998555908203C19.49999950958252,13.880708555908203,18.38070950958252,14.999998555908203,16.99999950958252,14.999998555908203L14.99999950958252,14.999998555908203L14.99999950958252,19.499988555908203L16.99999950958252,19.499988555908203L16.99999950958252,16.999998555908203C19.48527950958252,16.999998555908203,21.49998950958252,14.985278555908202,21.49998950958252,12.499998555908203C21.49998950958252,10.014718555908203,19.48527950958252,8.000000953708204,16.99999950958252,8.000000000008203Z" fill="#000000" fill-opacity="1"/></g><g></g></g></svg>