<svg xmlns="http://www.w3.org/2000/svg" xmlns:xlink="http://www.w3.org/1999/xlink" fill="none" version="1.1" width="32" height="32" viewBox="0 0 32 32"><defs><clipPath id="master_svg0_134_14922"><rect x="0" y="0" width="32" height="32" rx="0"/></clipPath></defs><g clip-path="url(#master_svg0_134_14922)"><g><path d="M16.551299999999998,30.85074993209839L28.4678,23.88664993209839C28.7979,23.694049932098388,29,23.34304993209839,29,22.96424993209839L29,9.035599932098389C29,8.656899932098389,28.7979,8.305899932098388,28.4678,8.11319993209839L16.551299999999998,1.1491999320983886C16.211,0.9501999320983887,15.7891,0.9501999320983887,15.4488,1.1491999320983886L3.5322,8.11329993209839C3.2021,8.305899932098388,3,8.656999932098389,3,9.035699932098389L3,22.96444993209839C3,23.343149932098388,3.2021,23.694149932098387,3.5322,23.88684993209839L15.4487,30.850949932098388C15.789,31.04984993209839,16.210900000000002,31.04984993209839,16.551299999999998,30.85074993209839Z" fill="#000000" fill-opacity="1"/></g><g transform="matrix(-1,1.2246468525851679e-16,-1.2246468525851679e-16,-1,64,64)"></g></g></svg>