<svg xmlns="http://www.w3.org/2000/svg" xmlns:xlink="http://www.w3.org/1999/xlink" fill="none" version="1.1" width="32" height="32" viewBox="0 0 32 32"><defs><clipPath id="master_svg0_134_14907"><rect x="0" y="0" width="32" height="32" rx="0"/></clipPath></defs><g clip-path="url(#master_svg0_134_14907)"><g><path d="M23,29L9,29C8.6445,29,8.3154,28.811,8.136199999999999,28.5039L1.1362,16.5039C0.9546,16.1926,0.9546,15.8074,1.1362,15.4961L8.136199999999999,3.4961C8.3154,3.189,8.6445,3,9,3L23,3C23.3555,3,23.6846,3.189,23.8638,3.4961L30.8638,15.4961C31.0454,15.8074,31.0454,16.1926,30.8638,16.5039L23.8638,28.5039C23.6846,28.811,23.3555,29,23,29ZM9.5742,27L22.4258,27L28.8423,16L22.4258,5L9.5742,5L3.1577,16L9.5742,27Z" fill="#000000" fill-opacity="1"/></g><g transform="matrix(0,1,-1,0,32,-32)"></g></g></svg>