<svg xmlns="http://www.w3.org/2000/svg" xmlns:xlink="http://www.w3.org/1999/xlink" fill="none" version="1.1" width="32" height="32" viewBox="0 0 32 32"><defs><clipPath id="master_svg0_134_24670"><rect x="0" y="0" width="32" height="32" rx="0"/></clipPath></defs><g clip-path="url(#master_svg0_134_24670)"><g><path d="M29,9L21,9L21,13L23,13L23,11L26.847,11L22,23L24.157,23L29,11L29,9Z" fill="#000000" fill-opacity="1"/></g><g><path d="M14,21L14,9L12,9L12,23L20,23L20,21L14,21Z" fill="#000000" fill-opacity="1"/></g><g><path d="M8,9L8,15L4,15L4,9L2,9L2,23L4,23L4,17L8,17L8,23L10,23L10,9L8,9Z" fill="#000000" fill-opacity="1"/></g><g></g></g></svg>