<svg xmlns="http://www.w3.org/2000/svg" xmlns:xlink="http://www.w3.org/1999/xlink" fill="none" version="1.1" width="32" height="32" viewBox="0 0 32 32"><defs><clipPath id="master_svg0_134_14938"><rect x="0" y="0" width="32" height="32" rx="0"/></clipPath></defs><g clip-path="url(#master_svg0_134_14938)"><g><path d="M21,10L17,10L17,6L15,6L15,10L11,10L11,12L15,12L15,16L17,16L17,12L21,12L21,10Z" fill="#000000" fill-opacity="1"/></g><g><path d="M28,10L26,10L26,4C25.9987,2.895955,25.104,2.00126648,24,2L8,2C6.89596,2.00126719,6.00127,2.895956,6,4L6,10L4,10C2.895956,10.00127,2.00126696,10.89596,2,12L2,30L30,30L30,12C29.9987,10.89596,29.104,10.00127,28,10ZM14,28L14,22L18,22L18,28L14,28ZM20,28L20,21C20,20.4477,19.5523,20,19,20L13,20C12.4477,20,12,20.4477,12,21L12,28L4,28L4,12L8,12L8,4L24,4L24,12L28,12L28,28L20,28Z" fill="#000000" fill-opacity="1"/></g><g></g></g></svg>