<svg xmlns="http://www.w3.org/2000/svg" xmlns:xlink="http://www.w3.org/1999/xlink" fill="none" version="1.1" width="32" height="32" viewBox="0 0 32 32"><defs><clipPath id="master_svg0_134_14957"><rect x="0" y="0" width="32" height="32" rx="0"/></clipPath></defs><g clip-path="url(#master_svg0_134_14957)"><g><rect x="15" y="19" width="2" height="2" rx="0" fill="#000000" fill-opacity="1"/></g><g><rect x="15" y="23" width="2" height="2" rx="0" fill="#000000" fill-opacity="1"/></g><g><path d="M23,11.67L23,4L26,4L26,2L6,2L6,4L9,4L9,11.67C9,12.1027,9.14036,12.5238,9.4,12.87L11.75,16L9.4,19.13C9.14036,19.4762,9,19.8973,9,20.33L9,28L6,28L6,30L26,30L26,28L23,28L23,20.33C23,19.8973,22.8596,19.4762,22.6,19.13L20.25,16L22.6,12.87C22.8596,12.5238,23,12.1027,23,11.67ZM21,4L21,11L11,11L11,4L21,4ZM21,20.33L21,28L11,28L11,20.33L14.25,16L12,13L20,13L17.75,16L21,20.33Z" fill="#000000" fill-opacity="1"/></g><g></g></g></svg>