<svg xmlns="http://www.w3.org/2000/svg" xmlns:xlink="http://www.w3.org/1999/xlink" fill="none" version="1.1" width="32" height="32" viewBox="0 0 32 32"><defs><clipPath id="master_svg0_134_14972"><rect x="0" y="0" width="32" height="32" rx="0"/></clipPath></defs><g clip-path="url(#master_svg0_134_14972)"><g><path d="M4,20L4,22L8.586,22L2,28.586L3.4139999999999997,30L10,23.414L10,28L12,28L12,20L4,20Z" fill="#000000" fill-opacity="1"/></g><g><path d="M28,14L28,6L26,6L26,16L32,16L32,14L28,14Z" fill="#000000" fill-opacity="1"/></g><g><path d="M24,6L22,6L20.5,10L19,6L17,6L17,16L19,16L19,9L20.5,13L22,9L22,16L24,16L24,6Z" fill="#000000" fill-opacity="1"/></g><g><path d="M9,8L11,8L11,16L13,16L13,8L15,8L15,6L9,6L9,8Z" fill="#000000" fill-opacity="1"/></g><g><path d="M5,6L5,10L2,10L2,6L0,6L0,16L2,16L2,12L5,12L5,16L7,16L7,6L5,6Z" fill="#000000" fill-opacity="1"/></g><g></g></g></svg>