<svg xmlns="http://www.w3.org/2000/svg" xmlns:xlink="http://www.w3.org/1999/xlink" fill="none" version="1.1" width="32" height="32" viewBox="0 0 32 32"><defs><clipPath id="master_svg0_134_14964"><rect x="0" y="0" width="32" height="32" rx="0"/></clipPath></defs><g clip-path="url(#master_svg0_134_14964)"><g><path d="M28,19L28,11L26,11L26,21L32,21L32,19L28,19Z" fill="#000000" fill-opacity="1"/></g><g><path d="M24,11L22,11L20.5,15L19,11L17,11L17,21L19,21L19,14L20.5,18L22,14L22,21L24,21L24,11Z" fill="#000000" fill-opacity="1"/></g><g><path d="M9,13L11,13L11,21L13,21L13,13L15,13L15,11L9,11L9,13Z" fill="#000000" fill-opacity="1"/></g><g><path d="M5,11L5,15L2,15L2,11L0,11L0,21L2,21L2,17L5,17L5,21L7,21L7,11L5,11Z" fill="#000000" fill-opacity="1"/></g><g></g></g></svg>