<svg xmlns="http://www.w3.org/2000/svg" xmlns:xlink="http://www.w3.org/1999/xlink" fill="none" version="1.1" width="32" height="32" viewBox="0 0 32 32"><defs><clipPath id="master_svg0_134_14981"><rect x="0" y="0" width="32" height="32" rx="0"/></clipPath></defs><g clip-path="url(#master_svg0_134_14981)"><g><path d="M30,11L25,11L25,21L27,21L27,18L30,18C31.10395,17.99851,31.99851,17.10395,32,16L32,13C31.998730000000002,11.895955,31.10404,11.00126553,30,11ZM27,16L27,13L30,13L30.001,16L27,16Z" fill="#000000" fill-opacity="1"/></g><g><path d="M10,13L12,13L12,21L14,21L14,13L16,13L16,11L10,11L10,13Z" fill="#000000" fill-opacity="1"/></g><g><path d="M23,11L17,11L17,13L19,13L19,21L21,21L21,13L23,13L23,11Z" fill="#000000" fill-opacity="1"/></g><g><path d="M6,11L6,15L3,15L3,11L1,11L1,21L3,21L3,17L6,17L6,21L8,21L8,11L6,11Z" fill="#000000" fill-opacity="1"/></g><g></g></g></svg>