<svg xmlns="http://www.w3.org/2000/svg" xmlns:xlink="http://www.w3.org/1999/xlink" fill="none" version="1.1" width="32" height="32" viewBox="0 0 32 32"><defs><clipPath id="master_svg0_134_15012"><rect x="0" y="0" width="32" height="32" rx="0"/></clipPath></defs><g clip-path="url(#master_svg0_134_15012)"><g><path d="M26,22C25.288,22.0035,24.5902,22.199,23.98,22.5659L17.414099999999998,16L23.981,9.4331C24.5907,9.80043,25.2882,9.99629,26,10C28.2091,10,30,8.20914,30,6C30,3.79086,28.2091,2,26,2C23.7909,2,22,3.79086,22,6C22.0037,6.71178,22.1995,7.40935,22.5669,8.019L16,14.5859L9.4343,8.02C9.80113,7.40981,9.996559999999999,6.71196,10,6C10,3.79086,8.20914,2,6,2C3.79086,2,2,3.79086,2,6C2,8.20914,3.79086,10,6,10C6.71197,9.99647,7.40982,9.80097,8.02,9.4341L14.5859,16L8.019,22.5669C7.40933,22.1996,6.71177,22.0037,6,22C3.79086,22,2,23.7909,2,26C2,28.2091,3.79086,30,6,30C8.20914,30,10,28.2091,10,26C9.99635,25.2882,9.80048,24.5906,9.4331,23.981L16,17.414099999999998L22.5657,23.98C22.1989,24.5902,22.0034,25.288,22,26C22,28.2091,23.7909,30,26,30C28.2091,30,30,28.2091,30,26C30,23.7909,28.2091,22,26,22ZM26,4C27.1046,4,28,4.89543,28,6C28,7.10457,27.1046,8,26,8C24.8954,8,24,7.10457,24,6C24.0013,4.8959600000000005,24.896,4.00127,26,4ZM6,28C4.89543,28,4,27.1046,4,26C4,24.8954,4.89543,24,6,24C7.10457,24,8,24.8954,8,26C7.99873,27.104,7.10404,27.9987,6,28Z" fill="#000000" fill-opacity="1"/></g><g></g></g></svg>