<svg xmlns="http://www.w3.org/2000/svg" xmlns:xlink="http://www.w3.org/1999/xlink" fill="none" version="1.1" width="32" height="32" viewBox="0 0 32 32"><defs><clipPath id="master_svg0_134_15367"><rect x="0" y="0" width="32" height="32" rx="0"/></clipPath></defs><g clip-path="url(#master_svg0_134_15367)"><g><path d="M30,18L20,18L20,24.4678C20,26.390700000000002,21.1231,28.165100000000002,22.8613,28.987299999999998L25,30L27.1387,28.987299999999998C28.877000000000002,28.165,30,26.3906,30,24.4678L30,18ZM25,27.786099999999998L23.7168,27.1787C22.6738,26.685499999999998,22,25.6211,22,24.4678L22,20L28,20L28,24.4678C28,25.6211,27.3262,26.6856,26.2832,27.1787L25,27.786099999999998Z" fill="#000000" fill-opacity="1"/></g><g><path d="M17,18L5,18C3.8955,18,3,18.895399,3,20L3,25C3,26.1045,3.8955,27,5,27L17,27L17,25L5,25L5,20L17,20L17,18Z" fill="#000000" fill-opacity="1"/></g><g><path d="M27,4L22,4C20.8955,4,20,4.8954,20,6L20,15L22,15L22,6L27,6L27,15L29,15L29,6C29,4.8954,28.1045,4,27,4Z" fill="#000000" fill-opacity="1"/></g><g><path d="M15,4L5,4C3.8955,4,3,4.8954,3,6L3,13C3,14.1045,3.8955,15,5,15L15,15C16.1045,15,17,14.1045,17,13L17,6C17,4.8954,16.1045,4,15,4ZM5,13L5,6L15,6L15,13L5,13Z" fill="#000000" fill-opacity="1"/></g><g></g></g></svg>