<svg xmlns="http://www.w3.org/2000/svg" xmlns:xlink="http://www.w3.org/1999/xlink" fill="none" version="1.1" width="32" height="32" viewBox="0 0 32 32"><defs><clipPath id="master_svg0_134_15654"><rect x="0" y="0" width="32" height="32" rx="0"/></clipPath></defs><g clip-path="url(#master_svg0_134_15654)"><g><rect x="23" y="26" width="2" height="4" rx="0" fill="#000000" fill-opacity="1"/></g><g><path d="M28,21.585900817871092L24.707,18.292899817871096C24.5117,18.097600917871095,24.2558,17.999900817871094,24,17.999900817871094C23.7442,17.999900817871094,23.4883,18.097600917871095,23.293,18.292899817871096L18.292999000000002,23.292900817871093C18.105499,23.480400817871093,18,23.734300817871095,18,23.999900817871094L18,29.999900817871094L20,29.999900817871094L20,24.414000817871095L24,20.414000817871095L28,24.414000817871095L28,29.999900817871094L30,29.999900817871094L30,19.999900817871094L28,19.999900817871094L28,21.585900817871092Z" fill="#000000" fill-opacity="1"/></g><g><ellipse cx="9" cy="20" rx="1" ry="1" fill="#000000" fill-opacity="1"/></g><g><ellipse cx="23" cy="12" rx="1" ry="1" fill="#000000" fill-opacity="1"/></g><g><ellipse cx="9" cy="5" rx="1" ry="1" fill="#000000" fill-opacity="1"/></g><g><ellipse cx="16" cy="16" rx="2" ry="2" fill="#000000" fill-opacity="1"/></g><g><path d="M8.999999182128906,15.999999523162842C8.999999182128906,12.140199523162842,12.140199182128907,8.999999523162842,15.999999182128906,8.999999523162842C17.702299182128904,8.999999523162842,19.263499182128907,9.612099523162842,20.478299182128907,10.626099523162843L21.760499182128907,9.087499523162842C20.199499182128907,7.7851995231628415,18.191999182128907,6.999999523162842,16.000099182128906,6.999999523162842C11.029499182128905,6.999999523162842,7.000099182128906,11.02939952316284,7.000099182128906,15.999999523162842C7.000099182128906,16.52309952316284,7.054199182128906,17.03269952316284,7.139899182128906,17.531299523162843L9.109199182128906,17.19089952316284C9.042299182128906,16.802999523162843,9.000099182128906,16.406699523162843,8.999999182128906,15.999999523162842Z" fill="#000000" fill-opacity="1"/></g><g><path d="M3.9999998641967776,15.999999629974365C3.9999998641967776,12.691599629974366,5.345699864196778,9.691599629974366,7.518599864196777,7.518699629974365L6.100399864196778,6.100499629974365C3.5668998641967775,8.633999629974365,1.9998998641967773,12.133899629974366,1.9998998641967773,15.999899629974365C1.9998998641967773,23.731899629974365,8.267899864196778,29.999899629974365,15.999899864196777,29.999899629974365L15.999899864196777,27.999899629974365C9.383099864196778,27.999899629974365,3.9998998641967773,22.616699629974367,3.9999998641967776,15.999999629974365Z" fill="#000000" fill-opacity="1"/></g><g><path d="M15.999999992370604,4C22.616799992370606,4,27.999999992370604,9.3832,27.999999992370604,16L29.999999992370604,16C29.999999992370604,8.268,23.731999992370604,2,15.999999992370604,2C14.318699992370606,2,12.713899992370605,2.3116,11.220499992370605,2.855L11.904199992370605,4.7353000000000005C13.184599992370606,4.2681000000000004,14.559999992370606,4,15.999999992370604,4Z" fill="#000000" fill-opacity="1"/></g><g><g></g></g></g></svg>