<svg xmlns="http://www.w3.org/2000/svg" xmlns:xlink="http://www.w3.org/1999/xlink" fill="none" version="1.1" width="32" height="32" viewBox="0 0 32 32"><defs><clipPath id="master_svg0_134_15728"><rect x="0" y="0" width="32" height="32" rx="0"/></clipPath></defs><g clip-path="url(#master_svg0_134_15728)"><g><path d="M26.000025651550295,20.000004169921873C25.324525651550292,20.002854169921875,24.670125651550293,20.235904169921874,24.144925651550295,20.660704169921875L21.999995651550293,19.422404169921876L21.999995651550293,17.815704169921876C23.90122565155029,17.143504169921876,24.611125651550292,14.824454169921875,23.411825651550295,13.203204169921875C22.212625651550294,11.581961169921875,19.787365651550292,11.581962169921875,18.588125651550293,13.203214169921875C17.388885651550293,14.824454169921875,18.098745651550292,17.143504169921876,19.999995651550293,17.815704169921876L19.999995651550293,19.422404169921876L17.855095651550293,20.660704169921875C17.329865651550293,20.235904169921874,16.675505651550292,20.002854169921875,15.999995651550293,20.000004169921873C14.241205651550294,19.988394169921875,12.844634651550294,21.476274169921876,12.967448231550293,23.230774169921872C13.090261651550293,24.985374169921876,14.680495651550293,26.264174169921873,16.420515651550293,26.007674169921877C18.160545651550294,25.751174169921875,19.314105651550292,24.067874169921875,18.925395651550293,22.352474169921877L20.999995651550293,21.154804169921874L23.074625651550292,22.352474169921877C22.699785651550293,24.052874169921875,23.847625651550295,25.713874169921873,25.57072565155029,25.964374169921875C27.293825651550293,26.214974169921874,28.867225651550292,24.949774169921874,28.992225651550292,23.212974169921875C29.117225651550292,21.476254169921873,27.741225651550295,19.998764169921877,26.000025651550295,20.000004169921873ZM15.999995651550293,23.999974169921877C15.447715651550293,23.999974169921877,14.999995651550293,23.552274169921873,14.999995651550293,22.999974169921877C14.999995651550293,22.447674169921875,15.447715651550293,21.999974169921877,15.999995651550293,21.999974169921877C16.552285651550292,21.999974169921877,16.999995651550293,22.447674169921875,16.999995651550293,22.999974169921877C16.999665651550295,23.552174169921877,16.552145651550294,23.999674169921875,15.999995651550293,23.999974169921877ZM20.999995651550293,14.000004169921874C21.552285651550292,14.000004169921874,21.999995651550293,14.447714169921875,21.999995651550293,15.000004169921874C21.999995651550293,15.552284169921876,21.552285651550292,16.000004169921876,20.999995651550293,16.000004169921876C20.447715651550293,16.000004169921876,19.999995651550293,15.552284169921876,19.999995651550293,15.000004169921874C20.000495651550292,14.447924169921874,20.447915651550293,14.000494169921875,20.999995651550293,14.000004169921874ZM26.000025651550295,23.999974169921877C25.447725651550293,23.999974169921877,25.000025651550295,23.552274169921873,25.000025651550295,22.999974169921877C25.000025651550295,22.447674169921875,25.447725651550293,21.999974169921877,26.000025651550295,21.999974169921877C26.55232565155029,21.999974169921877,27.000025651550295,22.447674169921875,27.000025651550295,22.999974169921877C26.999625651550293,23.552174169921877,26.55212565155029,23.999674169921875,26.000025651550295,23.999974169921877Z" fill="#000000" fill-opacity="1"/></g><g><path d="M16,31.00000002231598C9.92772,30.99310002231598,5.00688934,26.07230002231598,5,20.00000002231598L5,6.382300022315979L15.9873,0.881600022315979L26.4478,6.118700022315979L25.5522,7.907200022315979L15.9873,3.118400022315979L7,7.617700022315979L7,20.00000002231598C7.00032,23.40870002231598,8.92616,26.52470002231598,11.97485,28.04940002231598C15.0235,29.57400002231598,18.6719,29.24570002231598,21.3994,27.20120002231598L22.6006,28.800000022315977C20.6995,30.234200022315978,18.3814,31.00680002231598,16,31.00000002231598Z" fill="#000000" fill-opacity="1"/></g><g></g></g></svg>