<svg xmlns="http://www.w3.org/2000/svg" xmlns:xlink="http://www.w3.org/1999/xlink" fill="none" version="1.1" width="32" height="32" viewBox="0 0 32 32"><defs><clipPath id="master_svg0_134_15162"><rect x="0" y="0" width="32" height="32" rx="0"/></clipPath></defs><g clip-path="url(#master_svg0_134_15162)"><g><path d="M19,27L5,27L5,13L9,13L9,11L5,11C3.9,11,3,11.9,3,13L3,19L0,19L0,21L3,21L3,27C3,28.1,3.9,29,5,29L19,29C20.1,29,21,28.1,21,27L21,23L19,23L19,27Z" fill="#000000" fill-opacity="1"/></g><g><rect x="11" y="19" width="10" height="2" rx="0" fill="#000000" fill-opacity="1"/></g><g><rect x="11" y="15" width="10" height="2" rx="0" fill="#000000" fill-opacity="1"/></g><g><rect x="11" y="11" width="10" height="2" rx="0" fill="#000000" fill-opacity="1"/></g><g><path d="M29,11L29,5C29,3.9,28.1,3,27,3L13,3C11.9,3,11,3.9,11,5L11,9L13,9L13,5L27,5L27,19L23,19L23,21L27,21C28.1,21,29,20.1,29,19L29,13L32,13L32,11L29,11Z" fill="#000000" fill-opacity="1"/></g><g></g></g></svg>