<svg xmlns="http://www.w3.org/2000/svg" xmlns:xlink="http://www.w3.org/1999/xlink" fill="none" version="1.1" width="32" height="32" viewBox="0 0 32 32"><defs><clipPath id="master_svg0_134_15052"><rect x="0" y="0" width="32" height="32" rx="0"/></clipPath></defs><g clip-path="url(#master_svg0_134_15052)"><g><path d="M16,26L21,26C24.86,26,28,22.86,28,19L28,17L26,17L26,19C26,21.759999999999998,23.759999999999998,24,21,24L16,24L16,26Z" fill="#000000" fill-opacity="1"/></g><g><path d="M20.25,14.000000238418579C17.91,14.000000238418579,16,12.090000238418579,16,9.750000238418579C16,7.960000238418579,17.14,6.370000238418579,18.78,5.760000238418579C19.52,3.550000238418579,21.62,2.000000238418579,24,2.000000238418579C26.380000000000003,2.000000238418579,28.48,3.550000238418579,29.22,5.760000238418579C30.869999999999997,6.370000238418579,32,7.950000238418579,32,9.750000238418579C32,12.040000238418578,30.14,13.940000238418579,27.86,14.000000238418579L20.25,14.000000238418579ZM24,4.000000238418579C22.36,4.000000238418579,20.92,5.170000238418579,20.58,6.770000238418579L20.44,7.410000238418579L19.8,7.540000238418579C18.759999999999998,7.750000238418579,18,8.680000238418579,18,9.74000023841858C18,10.98000023841858,19.009999999999998,12.000000238418579,20.25,12.000000238418579L27.83,12.000000238418579C29.009999999999998,11.97000023841858,30,10.950000238418578,30,9.74000023841858C30,8.680000238418579,29.240000000000002,7.750000238418579,28.2,7.540000238418579L27.560000000000002,7.410000238418579L27.42,6.770000238418579C27.08,5.170000238418579,25.64,4.000000238418579,24,4.000000238418579Z" fill="#000000" fill-opacity="1"/></g><g><path d="M4,14L6,14L6,12C6,9.24,8.24,7,11,7L15,7L15,5L11,5C7.140000000000001,5,4,8.14,4,12L4,14Z" fill="#000000" fill-opacity="1"/></g><g><path d="M10,17L4,17C2.9,17,2,17.9,2,19L2,29C2,30.1,2.9,31,4,31L10,31C11.1,31,12,30.1,12,29L12,19C12,17.9,11.1,17,10,17ZM10,19L10,21L4,21L4,19L10,19ZM10,23L10,25L4,25L4,23L10,23ZM4,29L4,27L10,27L10,29L4,29Z" fill="#000000" fill-opacity="1"/></g><g><g></g></g></g></svg>