<svg xmlns="http://www.w3.org/2000/svg" xmlns:xlink="http://www.w3.org/1999/xlink" fill="none" version="1.1" width="32" height="32" viewBox="0 0 32 32"><defs><clipPath id="master_svg0_134_15308"><rect x="0" y="0" width="32" height="32" rx="0"/></clipPath></defs><g clip-path="url(#master_svg0_134_15308)"><g><path d="M30,11L30,5L24,5L24,7L14,7L14,4C13.9986,2.896001,13.104,2.00137711,12,2L4,2C2.896001,2.00137734,2.00137711,2.896001,2,4L2,12C2.00137711,13.104,2.896001,13.9986,4,14L12,14C13.104,13.9986,13.9986,13.104,14,12L14,9C15.6561,9.00182,16.9982,10.3439,17,12L17,21L11,21L11,19L5,19L5,25L11,25L11,23L17,23L17,25C17.0014,26.104,17.896,26.9986,19,27L24,27L24,29L30,29L30,23L24,23L24,25L19,25L19,18L24,18L24,20L30,20L30,14L24,14L24,16L19,16L19,12C18.9962,10.91465,18.6359,9.860610000000001,17.974600000000002,9L24,9L24,11L30,11ZM4,12L4,4L12,4L12,12L4,12ZM9,23L7,23L7,21L9,21L9,23ZM26,25L28,25L28,27L26,27L26,25ZM26,16L28,16L28,18L26,18L26,16ZM26,7L28,7L28,9L26,9L26,7Z" fill="#000000" fill-opacity="1"/></g><g></g></g></svg>