<svg xmlns="http://www.w3.org/2000/svg" xmlns:xlink="http://www.w3.org/1999/xlink" fill="none" version="1.1" width="32" height="32" viewBox="0 0 32 32"><defs><clipPath id="master_svg0_134_15702"><rect x="0" y="0" width="32" height="32" rx="0"/></clipPath></defs><g clip-path="url(#master_svg0_134_15702)"><g><path d="M9,21L3,21C1.8972,21,1,20.102800000000002,1,19L1,13C1,11.8972,1.8972,11,3,11L9,11C10.1028,11,11,11.8972,11,13L11,19C11,20.102800000000002,10.1028,21,9,21ZM3,13L3,19L9,19L9,13L3,13Z" fill="#000000" fill-opacity="1"/></g><g><path d="M11.692600279998778,29.32450017089844C8.61370027999878,28.330000170898437,5.953300279998779,26.275400170898436,4.201400279998779,23.539200170898436L5.886000279998779,22.460800170898438C7.388200279998779,24.807400170898436,9.66870027999878,26.569000170898438,12.30740027999878,27.421400170898437L11.692600279998778,29.32450017089844Z" fill="#000000" fill-opacity="1"/></g><g><ellipse cx="19" cy="27" rx="1" ry="1" fill="#000000" fill-opacity="1"/></g><g><path d="M29,31L16,31C14.8972,31,14,30.102800000000002,14,29L14,25C14,23.8972,14.8972,23,16,23L29,23C30.1028,23,31,23.8972,31,25L31,29C31,30.102800000000002,30.1028,31,29,31ZM16,25L16,29L29,29L29,25L16,25Z" fill="#000000" fill-opacity="1"/></g><g><path d="M26.88960075378418,21L29.07440075378418,21C29.68010075378418,19.4111,29.99990075378418,17.71,29.99990075378418,16C29.99990075378418,15.3281,29.93570075378418,14.6616,29.84070075378418,14L27.81380075378418,14C27.92440075378418,14.6592,27.99980075378418,15.3262,27.99980075378418,16C27.99980075378418,17.7549,27.61310175378418,19.4297,26.88960075378418,21Z" fill="#000000" fill-opacity="1"/></g><g><path d="M25.5,12L19,12C18.4478,12,18,11.5522,18,11L18,4C18,3.4478,18.4478,3,19,3L31,3C31.3828,3,31.7319,3.2185,31.8994,3.5629C31.966900000000003,3.7018,32,3.8513,32,4C32,4.22,31.927500000000002,4.4382,31.7864,4.6178L26.2864,11.6178C26.0967,11.8591,25.8069,12,25.5,12ZM20,10L25.0139,10L28.9426,5L20,5L20,10Z" fill="#000000" fill-opacity="1"/></g><g><path d="M5.886000279998779,9.539200000000001L4.201400279998779,8.460799999999999C6.791500279998779,4.4153,11.20210027999878,2,16.00000027999878,2L16.00000027999878,4C11.887500279998779,4,8.106400279998779,6.0707,5.886000279998779,9.539200000000001Z" fill="#000000" fill-opacity="1"/></g><g></g></g></svg>