<svg xmlns="http://www.w3.org/2000/svg" xmlns:xlink="http://www.w3.org/1999/xlink" fill="none" version="1.1" width="32" height="32" viewBox="0 0 32 32"><defs><clipPath id="master_svg0_134_15534"><rect x="0" y="0" width="32" height="32" rx="0"/></clipPath></defs><g clip-path="url(#master_svg0_134_15534)"><g><rect x="19" y="24" width="2" height="2" rx="0" fill="#000000" fill-opacity="1"/></g><g><path d="M17,21L29,21C30.104599999999998,21,31,21.895399,31,23L31,27C31,28.104599999999998,30.104599999999998,29,29,29L17,29C15.8954,29,15,28.104599999999998,15,27L15,23C15,21.895401,15.8954,21,17,21ZM29,27L29,23L17,23L17,27L29,27Z" fill="#000000" fill-opacity="1"/></g><g><path d="M12,27L10,27C6.1401,27,3,23.8599,3,20L3,18L5,18L5,20C5,22.7568,7.2432,25,10,25L12,25L12,27Z" fill="#000000" fill-opacity="1"/></g><g><path d="M27,18L27,11C27,7.1401,23.8599,4,20,4L13,4L13,6L20,6C22.7568,6,25,8.2432,25,11L25,18L27,18Z" fill="#000000" fill-opacity="1"/></g><g><path d="M10,8L10,4C10,2.8954,9.1046,2,8,2L2,2L2,15L4,15L4,10L5.48,10L7.82,15L10,15L7.67,10L8,10C9.1046,10,10,9.1046,10,8ZM4,4L8,4L8,8L4,8L4,4Z" fill="#000000" fill-opacity="1"/></g><g></g></g></svg>