<svg xmlns="http://www.w3.org/2000/svg" xmlns:xlink="http://www.w3.org/1999/xlink" fill="none" version="1.1" width="32" height="32" viewBox="0 0 32 32"><defs><clipPath id="master_svg0_134_15622"><rect x="0" y="0" width="32" height="32" rx="0"/></clipPath></defs><g clip-path="url(#master_svg0_134_15622)"><g><path d="M23.58600044378906,21.414L27.165999633789063,25L23.583999633789062,28.587L24.999999633789063,30L29.999999633789063,25L24.999999633789063,20L23.58600044378906,21.414Z" fill="#000000" fill-opacity="1"/></g><g><path d="M20.414,21.414L16.834,25L20.416,28.587L19,30L14,25L19,20L20.414,21.414Z" fill="#000000" fill-opacity="1"/></g><g><rect x="22" y="6" width="2" height="8" rx="0" fill="#000000" fill-opacity="1"/></g><g><rect x="18" y="6" width="2" height="8" rx="0" fill="#000000" fill-opacity="1"/></g><g><path d="M14,14L12,14C10.897,14,10,13.103,10,12L10,8C10,6.897,10.897,6,12,6L14,6C15.103,6,16,6.897,16,8L16,12C16,13.103,15.103,14,14,14ZM12,8L12,12L14,12L14,8L12,8Z" fill="#000000" fill-opacity="1"/></g><g><rect x="6" y="6" width="2" height="8" rx="0" fill="#000000" fill-opacity="1"/></g><g><path d="M10,28L4,28C2.8970000000000002,28,2,27.103,2,26L2,4C2,2.8970000000000002,2.8970000000000002,2,4,2L26,2C27.103,2,28,2.8970000000000002,28,4L28,16L26,16L26,4L4,4L4,26L10,26L10,28Z" fill="#000000" fill-opacity="1"/></g><g></g></g></svg>