<svg xmlns="http://www.w3.org/2000/svg" xmlns:xlink="http://www.w3.org/1999/xlink" fill="none" version="1.1" width="32" height="32" viewBox="0 0 32 32"><defs><clipPath id="master_svg0_134_15415"><rect x="0" y="0" width="32" height="32" rx="0"/></clipPath></defs><g clip-path="url(#master_svg0_134_15415)"><g><path d="M12.500000381469727,7.5L11.100000381469727,6.1L14.600000381469727,2.6C15.400000381469727,1.8,16.700000381469728,1.8,17.400000381469727,2.6L20.900000381469727,6.1L19.500000381469725,7.5L16.000000381469725,4L12.500000381469727,7.5Z" fill="#000000" fill-opacity="1"/></g><g><path d="M19.49999942779541,24.5L20.89999942779541,25.9L17.39999942779541,29.4C16.59999942779541,30.2,15.29999942779541,30.2,14.59999942779541,29.4L11.09999942779541,25.9L12.49999942779541,24.5L15.99999942779541,28L19.49999942779541,24.5Z" fill="#000000" fill-opacity="1"/></g><g><path d="M24.5,12.500000381469727L25.9,11.100000381469727L29.4,14.600000381469727C30.2,15.400000381469727,30.2,16.700000381469728,29.4,17.400000381469727L25.9,20.900000381469727L24.5,19.500000381469725L28,16.000000381469725L24.5,12.500000381469727Z" fill="#000000" fill-opacity="1"/></g><g><path d="M7.5,19.49999942779541L6.1,20.89999942779541L2.6,17.39999942779541C1.8,16.59999942779541,1.8,15.29999942779541,2.6,14.59999942779541L6.1,11.09999942779541L7.5,12.49999942779541L4,15.99999942779541L7.5,19.49999942779541Z" fill="#000000" fill-opacity="1"/></g><g><path d="M26,24C25.8,24,25.7,24,25.5,24.1L19.4,18C20.2,16.8,20.2,15.2,19.4,14L25.5,7.9C25.7,8,25.8,8,26,8C27.1,8,28,7.1,28,6C28,4.9,27.1,4,26,4C24.9,4,24,4.9,24,6C24,6.2,24,6.3,24.1,6.5L18,12.6C16.8,11.8,15.2,11.8,14,12.6L7.9,6.5C8,6.3,8,6.2,8,6C8,4.900001,7.1,4.000000476837,6,4.000000476837C4.9,4.000000476837,4,4.900001,4,6C4,7.1,4.9,8,6,8C6.2,8,6.3,8,6.5,7.9L12.6,14C11.8,15.2,11.8,16.8,12.6,18L6.5,24.1C6.3,24,6.2,24,6,24C4.900001,24,4.000000476837,24.9,4.000000476837,26C4.000000476837,27.1,4.900001,28,6,28C7.1,28,8,27.1,8,26C8,25.8,8,25.7,7.9,25.5L14,19.4C15.2,20.2,16.8,20.2,18,19.4L24.1,25.5C24.1,25.7,24,25.8,24,26C24,27.1,24.9,28,26,28C27.1,28,28,27.1,28,26C28,24.9,27.1,24,26,24ZM16,18C14.9,18,14,17.1,14,16C14,14.9,14.9,14,16,14C17.1,14,18,14.9,18,16C18,17.1,17.1,18,16,18Z" fill="#000000" fill-opacity="1"/></g><g></g></g></svg>