<svg xmlns="http://www.w3.org/2000/svg" xmlns:xlink="http://www.w3.org/1999/xlink" fill="none" version="1.1" width="32" height="32" viewBox="0 0 32 32"><defs><clipPath id="master_svg0_134_15679"><rect x="0" y="0" width="32" height="32" rx="0"/></clipPath></defs><g clip-path="url(#master_svg0_134_15679)"><g><path d="M23.999999046325684,16C22.698099046325684,16,21.59839904632568,16.838501,21.184299046325684,18L11.999999046325684,18L11.999999046325684,16L5.999999046325684,16L5.999999046325684,22L11.999999046325684,22L11.999999046325684,20L21.184299046325684,20C21.59839904632568,21.1615,22.697999046325684,22,23.999999046325684,22C25.654299046325683,22,26.999999046325684,20.6543,26.999999046325684,19C26.999999046325684,17.3457,25.654299046325683,16,23.999999046325684,16ZM9.999999046325684,20L7.999999046325684,20L7.999999046325684,18L9.999999046325684,18L9.999999046325684,20ZM23.999999046325684,20C23.448199046325684,20,22.999999046325684,19.5518,22.999999046325684,19C22.999999046325684,18.4482,23.448199046325684,18,23.999999046325684,18C24.551799046325684,18,24.999999046325684,18.4482,24.999999046325684,19C24.999999046325684,19.5518,24.551799046325684,20,23.999999046325684,20Z" fill="#000000" fill-opacity="1"/></g><g><path d="M25.8321,11.22C24.9889,6.5535,20.9054,3,16,3C11.0946,3,7.0109,6.5535,6.1678,11.22C2.6382,12.0517,0,15.2201,0,19C0,23.4111,3.5889,27,8,27L12,27L12,25L8,25C4.6914,25,2,22.3086,2,19C2,15.6914,4.6914,13,8,13C8,8.588899999999999,11.5889,5,16,5C20.4111,5,24,8.588899999999999,24,13C27.3086,13,30,15.6914,30,19C30,22.3086,27.3086,25,24,25L16,25L16,27L24,27C28.4111,27,32,23.4111,32,19C32,15.2201,29.3618,12.0516,25.8321,11.22Z" fill="#000000" fill-opacity="1"/></g><g></g></g></svg>