<svg xmlns="http://www.w3.org/2000/svg" xmlns:xlink="http://www.w3.org/1999/xlink" fill="none" version="1.1" width="32" height="32" viewBox="0 0 32 32"><defs><clipPath id="master_svg0_134_15102"><rect x="0" y="0" width="32" height="32" rx="0"/></clipPath></defs><g clip-path="url(#master_svg0_134_15102)"><g><path d="M23,1L17,7L18.4146,8.4023L22,4.8183L22,21L10,21L10,10L8,10L8,21C8,22.1025,8.8972,23,10,23L22,23C23.102800000000002,23,24,22.1025,24,21L24,4.8154L27.5859,8.4023L29,7L23,1Z" fill="#000000" fill-opacity="1"/></g><g><path d="M18.5,19L13.5,19C12.6729,19,12,18.3271,12,17.5L12,12.5C12,11.6729,12.6729,11,13.5,11L18.5,11C19.3271,11,20,11.6729,20,12.5L20,17.5C20,18.3271,19.3271,19,18.5,19ZM14,17L18,17L18,13L14,13L14,17Z" fill="#000000" fill-opacity="1"/></g><g><path d="M16,31.00000069885254L16,29.00000069885254C23.1682,29.00000069885254,29,23.168200698852537,29,16.00000069885254C29,14.73520069885254,28.8188,13.485500698852539,28.4617,12.28530069885254L30.378700000000002,11.714700698852539C30.7911,13.10020069885254,31,14.54200069885254,31,16.00000069885254C31,24.27100069885254,24.271,31.00000069885254,16,31.00000069885254Z" fill="#000000" fill-opacity="1"/></g><g><path d="M1.6213,20.2853C1.2089,18.8998,1,17.458,1,16C1,7.729,7.729,1,16,1L16,3C8.831800000000001,3,3,8.831800000000001,3,16C3,17.2648,3.1812,18.5145,3.5383,19.7147L1.6213,20.2853Z" fill="#000000" fill-opacity="1"/></g><g></g></g></svg>