<svg xmlns="http://www.w3.org/2000/svg" xmlns:xlink="http://www.w3.org/1999/xlink" fill="none" version="1.1" width="32" height="32" viewBox="0 0 32 32"><defs><clipPath id="master_svg0_134_15212"><rect x="0" y="0" width="32" height="32" rx="0"/></clipPath></defs><g clip-path="url(#master_svg0_134_15212)"><g><path d="M25,30L22.9,29C21.2,28.2,20,26.4,20,24.5L20,18L30,18L30,24.5C30,26.4,28.9,28.2,27.1,29L25,30ZM22,20L22,24.5C22,25.7,22.7,26.7,23.7,27.2L25,27.8L26.3,27.2C27.3,26.7,28,25.6,28,24.5L28,20L22,20Z" fill="#000000" fill-opacity="1"/></g><g><ellipse cx="22" cy="10" rx="2" ry="2" fill="#000000" fill-opacity="1"/></g><g><path d="M21,2C16,2,12,6,12,11C12,11.9,12.1,12.8,12.4,13.6L2,24L2,30L8,30L18,20L16.6,18.6L13.8,21.4L12.4,20L11,21.4L12.4,22.8L10.8,24.4L9.4,23L8,24.4L9.4,25.8L7.2,28L4,28L4,24.8L13.8,15L14.6,14.2L14.3,13C14.1,12.3,14,11.7,14,11C14,7.1,17.1,4,21,4C24.9,4,28,7.1,28,11C28,12.5,27.5,13.9,26.7,15L29,15C29.6,13.8,29.9,12.4,29.9,11C30,6,26,2,21,2Z" fill="#000000" fill-opacity="1"/></g><g></g></g></svg>