<svg xmlns="http://www.w3.org/2000/svg" xmlns:xlink="http://www.w3.org/1999/xlink" fill="none" version="1.1" width="32" height="32" viewBox="0 0 32 32"><defs><clipPath id="master_svg0_134_15440"><rect x="0" y="0" width="32" height="32" rx="0"/></clipPath></defs><g clip-path="url(#master_svg0_134_15440)"><g><path d="M23.4141,22L10,8.585899999999999L10,2L2,2L2,10L8.585899999999999,10L22,23.4141L22,30L30,30L30,22L23.4141,22ZM8,8L4,8L4,4L8,4L8,8ZM28,28L24,28L24,24L28,24L28,28Z" fill="#000000" fill-opacity="1"/></g><g><path d="M29.999999046325684,6C29.999999046325684,3.7944,28.205599046325684,2,25.999999046325684,2C24.141599046325684,2,22.58939904632568,3.2798,22.142099046325683,5L12.999999046325684,5L12.999999046325684,7L22.142099046325683,7C22.505899046325684,8.398900000000001,23.601299046325686,9.4941,24.999999046325684,9.8579L24.999999046325684,19L26.999999046325684,19L26.999999046325684,9.8579C28.720199046325682,9.410599999999999,29.999999046325684,7.8584,29.999999046325684,6ZM25.999999046325684,8C24.896999046325682,8,23.999999046325684,7.1025,23.999999046325684,6C23.999999046325684,4.8975,24.896999046325682,4,25.999999046325684,4C27.102999046325685,4,27.999999046325684,4.8975,27.999999046325684,6C27.999999046325684,7.1025,27.102999046325685,8,25.999999046325684,8Z" fill="#000000" fill-opacity="1"/></g><g><path d="M19,24.999999046325684L9.8579,24.999999046325684C9.4941,23.601099046325686,8.3987,22.505899046325684,7,22.142099046325683L7,12.999999046325684L5,12.999999046325684L5,22.142099046325683C3.2798,22.58939904632568,2,24.141599046325684,2,25.999999046325684C2,28.205599046325684,3.7944,29.999999046325684,6,29.999999046325684C7.8584,29.999999046325684,9.410599999999999,28.720199046325682,9.8579,26.999999046325684L19,26.999999046325684L19,24.999999046325684ZM6,27.999999046325684C4.897,27.999999046325684,4,27.102499046325683,4,25.999999046325684C4,24.897499046325684,4.897,23.999999046325684,6,23.999999046325684C7.103,23.999999046325684,8,24.897499046325684,8,25.999999046325684C8,27.102499046325683,7.103,27.999999046325684,6,27.999999046325684Z" fill="#000000" fill-opacity="1"/></g><g></g></g></svg>