<svg xmlns="http://www.w3.org/2000/svg" xmlns:xlink="http://www.w3.org/1999/xlink" fill="none" version="1.1" width="32" height="32" viewBox="0 0 32 32"><defs><clipPath id="master_svg0_134_15254"><rect x="0" y="0" width="32" height="32" rx="0"/></clipPath></defs><g clip-path="url(#master_svg0_134_15254)"><g><path d="M16,23C15.8,23,15.6,23,15.5,22.9L10.5,19.9C10.2,19.7,10,19.4,10,19L10,13C10,12.6,10.2,12.3,10.5,12.1L15.5,9.1C15.6,9,15.8,9,16,9C16.2,9,16.4,9,16.5,9.1L21.5,12.1C21.8,12.3,22,12.6,22,13L22,19C22,19.4,21.8,19.7,21.5,19.9L16.5,22.9C16.4,23,16.2,23,16,23ZM12,18.4L16,20.8L20,18.4L20,13.5L16,11.1L12,13.5L12,18.4Z" fill="#000000" fill-opacity="1"/></g><g><path d="M16,31C15.8,31,15.7,31,15.5,30.9L3.5,23.9C3.2,23.7,3,23.4,3,23L3,9C3,8.6,3.2,8.3,3.5,8.1L15.5,1.1C15.7,1,15.8,1,16,1C16.2,1,16.3,1,16.5,1.1L28.5,8.1L27.5,9.8L16,3.2L5,9.6L5,22.5L16,28.9L27,22.5L27,15L29,15L29,23C29,23.4,28.8,23.7,28.5,23.9L16.5,30.9C16.3,31,16.2,31,16,31Z" fill="#000000" fill-opacity="1"/></g><g></g></g></svg>