<svg xmlns="http://www.w3.org/2000/svg" xmlns:xlink="http://www.w3.org/1999/xlink" fill="none" version="1.1" width="32" height="32" viewBox="0 0 32 32"><defs><clipPath id="master_svg0_134_15880"><rect x="0" y="0" width="32" height="32" rx="0"/></clipPath></defs><g clip-path="url(#master_svg0_134_15880)"><g><path d="M28,13L26,13L26,11C26,8.2,23.8,6,21,6L18,6L18,4L21,4C24.9,4,28,7.1,28,11L28,13Z" fill="#000000" fill-opacity="1"/></g><g><rect x="22" y="20" width="3" height="2" rx="0" fill="#000000" fill-opacity="1"/></g><g><rect x="22" y="24" width="3" height="2" rx="0" fill="#000000" fill-opacity="1"/></g><g><path d="M27,30L22,30L22,28L27,28L27,18L20,18L20,27C20,28.7,18.7,30,17,30C15.3,30,14,28.7,14,27L14,24L16,24L16,27C16,27.6,16.4,28,17,28C17.6,28,18,27.6,18,27L18,16L29,16L29,28C29,29.1,28.1,30,27,30Z" fill="#000000" fill-opacity="1"/></g><g><path d="M12,28L11,28C7.1,28,4,24.9,4,21L4,17L6,17L6,21C6,23.8,8.2,26,11,26L12,26L12,28Z" fill="#000000" fill-opacity="1"/></g><g><path d="M11,10L11,12L14,12C15.1,12,16,11.1,16,10L16,4C16,2.9,15.1,2,14,2L4,2C2.9,2,2,2.9,2,4L2,10C2,11.1,2.9,12,4,12L6.4,12L8.1,15L9.8,14L7.5,10L4,10L4,4L14,4L14,10L11,10Z" fill="#000000" fill-opacity="1"/></g><g></g></g></svg>