<svg xmlns="http://www.w3.org/2000/svg" xmlns:xlink="http://www.w3.org/1999/xlink" fill="none" version="1.1" width="32" height="32" viewBox="0 0 32 32"><defs><clipPath id="master_svg0_134_15798"><rect x="0" y="0" width="32" height="32" rx="0"/></clipPath></defs><g clip-path="url(#master_svg0_134_15798)"><g><rect x="6" y="17" width="8" height="2" rx="0" fill="#000000" fill-opacity="1"/></g><g><ellipse cx="3" cy="18" rx="1" ry="1" fill="#000000" fill-opacity="1"/></g><g><ellipse cx="13" cy="14" rx="1" ry="1" fill="#000000" fill-opacity="1"/></g><g><rect x="2" y="13" width="8" height="2" rx="0" fill="#000000" fill-opacity="1"/></g><g><rect x="6" y="9" width="8" height="2" rx="0" fill="#000000" fill-opacity="1"/></g><g><ellipse cx="3" cy="10" rx="1" ry="1" fill="#000000" fill-opacity="1"/></g><g><path d="M30.000000190734863,28.600000953674318L22.600000190734864,21.200000953674316C24.100000190734864,19.200000953674316,25.000000190734863,16.700000953674316,25.000000190734863,14.000000953674316C25.000000190734863,7.400000953674317,19.600000190734864,2.0000009536743164,13.000000190734863,2.0000009536743164C9.700000190734864,2.000000000000316,6.600000190734863,3.3000009536743162,4.300000190734863,5.800000953674316L5.800000190734863,7.200000953674317C7.600000190734863,5.100000953674316,10.200000190734864,4.000000953674316,13.000000190734863,4.000000953674316C18.500000190734863,4.000000953674316,23.000000190734863,8.500000953674316,23.000000190734863,14.000000953674316C23.000000190734863,19.500000953674316,18.500000190734863,24.000000953674316,13.000000190734863,24.000000953674316C10.000000190734863,24.000000953674316,7.200000190734864,22.700000953674316,5.300000190734863,20.400000953674315L3.8000001907348633,21.700000953674316C6.0000001907348635,24.400000953674315,9.400000190734863,26.000000953674316,13.000000190734863,26.000000953674316C16.200000190734862,26.000000953674316,19.100000190734864,24.700000953674316,21.300000190734863,22.700000953674316L28.600000190734864,30.000000953674316L30.000000190734863,28.600000953674318Z" fill="#000000" fill-opacity="1"/></g><g></g></g></svg>