<svg xmlns="http://www.w3.org/2000/svg" xmlns:xlink="http://www.w3.org/1999/xlink" fill="none" version="1.1" width="32" height="32" viewBox="0 0 32 32"><defs><clipPath id="master_svg0_134_15742"><rect x="0" y="0" width="32" height="32" rx="0"/></clipPath></defs><g clip-path="url(#master_svg0_134_15742)"><g><path d="M20,13L12,13C11.4478,13,11,13.4478,11,14C11,14.1973,11.0508003,14.3833,11.168,14.5547L15.168,20.5547C15.3535,20.833,15.6658,21,16,21C16.3342,21,16.6465,20.833,16.832,20.5547L20.832,14.5547C20.949199999999998,14.3833,21,14.1973,21,13.999999C21,13.447799,20.5522,12.999999046326,20,13ZM16,18.1973L13.8684,15L18.1316,15L16,18.1973Z" fill="#000000" fill-opacity="1"/></g><g><path d="M16.000000665283203,23.000001907348633C14.388500665283203,23.000001907348633,12.823700665283203,22.43680190734863,11.579500665283202,21.420401907348634L10.159900665283203,22.840101907348632C10.190500265283204,22.866201907348632,10.216900865283202,22.896001907348634,10.248001065283203,22.921901907348634C11.858400665283202,24.262201907348633,13.900300665283204,25.000001907348633,16.000000665283203,25.000001907348633C20.962900665283204,25.000001907348633,25.000000665283203,20.96240190734863,25.000000665283203,16.000001907348633L23.000000665283203,16.000001907348633C23.000000665283203,19.859901907348632,19.859400665283204,23.000001907348633,16.000000665283203,23.000001907348633Z" fill="#000000" fill-opacity="1"/></g><g><ellipse cx="23" cy="12" rx="1" ry="1" fill="#000000" fill-opacity="1"/></g><g><ellipse cx="9" cy="20" rx="1" ry="1" fill="#000000" fill-opacity="1"/></g><g><path d="M16,9.000000953674316C17.6097,9.000000953674316,19.1772,9.561900953674316,20.4224,10.577600953674317L21.8395,9.160500953674315C21.801000000000002,9.127700953674317,21.767699999999998,9.090300953674316,21.7285,9.058100953674316C20.1211,7.731000953674316,18.0869,7.000000953674316,16,7.000000953674316C11.037099999999999,7.000000953674316,7,11.037600953674318,7,16.000000953674316L9,16.000000953674316C9,12.140100953674317,12.1406,9.000000953674316,16,9.000000953674316Z" fill="#000000" fill-opacity="1"/></g><g><path d="M16,30C8.2803,30,2,23.7196,2,16C2,8.2804,8.2803,2,16,2C23.7197,2,30,8.2804,30,16C30,23.7196,23.7197,30,16,30ZM16,4C9.3833,4,4,9.3832,4,16C4,22.6168,9.3833,28,16,28C22.6167,28,28,22.6168,28,16C28,9.3832,22.6167,4,16,4Z" fill="#000000" fill-opacity="1"/></g><g></g></g></svg>