<svg xmlns="http://www.w3.org/2000/svg" xmlns:xlink="http://www.w3.org/1999/xlink" fill="none" version="1.1" width="32" height="32" viewBox="0 0 32 32"><defs><clipPath id="master_svg0_134_15503"><rect x="0" y="0" width="32" height="32" rx="0"/></clipPath></defs><g clip-path="url(#master_svg0_134_15503)"><g><ellipse cx="29" cy="5" rx="2" ry="2" fill="#000000" fill-opacity="1"/></g><g><ellipse cx="29" cy="27" rx="2" ry="2" fill="#000000" fill-opacity="1"/></g><g><path d="M7,13L1,13L1,19L7,19L7,13ZM5,17L3,17L3,15L5,15L5,17Z" fill="#000000" fill-opacity="1"/></g><g><path d="M17.49990058746338,6.677400205230713C16.183900587463377,5.007400205230713,14.15620058746338,4.000000000230713,12.00000058746338,4.000000000230713C9.509300587463379,4.000000000230713,7.186500587463379,5.340300205230713,5.937000587463379,7.499000205230713L4.771500587463379,9.517600205230714L6.503900587463379,10.517600205230714L7.668900587463379,8.500000205230712C8.56100058746338,6.958000205230713,10.22070058746338,6.000000205230712,12.00000058746338,6.000000205230712C13.779300587463378,6.000000205230712,15.43900058746338,6.958000205230713,16.33110058746338,8.499500205230714C16.335900587463378,8.507700205230712,16.342100587463378,8.514900205230713,16.34690058746338,8.523100205230712L14.414100587463379,11.871100205230713C13.301300587463379,13.799300205230713,11.226100587463378,14.998500205230712,8.999100587463378,15.000000205230712L9.000100587463379,16.000000205230712L8.999100587463378,17.000000205230712C11.226200587463378,17.002000205230715,13.301300587463379,18.200200205230715,14.414100587463379,20.128900205230714L16.34670058746338,23.47590020523071C16.34180058746338,23.484300205230713,16.33550058746338,23.491500205230714,16.33060058746338,23.499900205230713C15.43900058746338,25.041900205230714,13.779300587463378,25.999900205230713,12.00000058746338,25.999900205230713C10.22070058746338,25.999900205230713,8.56100058746338,25.041900205230714,7.669400587463379,23.500900205230714L6.504400587463379,21.482300205230715L4.772001266463379,22.482300205230715L5.937500587463379,24.501800205230712C7.186500587463379,26.65900020523071,9.509300587463379,27.999800205230713,12.00000058746338,27.999800205230713C14.15550058746338,27.999800205230713,16.18290058746338,26.992300205230713,17.50040058746338,25.322600205230714C18.81580058746338,26.992500205230712,20.84310058746338,27.999800205230713,23.00000058746338,27.999800205230713L25.00000058746338,27.999800205230713L25.00000058746338,25.999800205230713L23.00000058746338,25.999800205230713C21.261300587463378,25.999800205230713,19.64340058746338,25.081800205230714,18.73880058746338,23.60260020523071C19.67370058746338,22.59960020523071,20.99280058746338,22.000800205230714,22.39350058746338,22.000800205230714L24.99990058746338,22.000800205230714L24.99990058746338,20.000800205230714L22.39350058746338,20.000800205230714C20.63710058746338,20.000800205230714,18.97360058746338,20.676900205230712,17.70290058746338,21.824800205230712L16.14640058746338,19.128700205230714C15.36880058746338,17.782000205230712,14.23000058746338,16.715800205230714,12.899900587463378,15.999800205230713C14.23000058746338,15.283800205230714,15.36870058746338,14.217600205230713,16.14640058746338,12.870900205230713L17.70290058746338,10.174700205230714C18.973500587463377,11.323000205230713,20.63700058746338,11.999300205230714,22.39350058746338,11.999300205230714L24.99990058746338,11.999300205230714L24.99990058746338,9.999300205230714L22.39350058746338,9.999300205230714C20.993000587463378,9.999300205230714,19.67410058746338,9.400700205230713,18.738300587463378,8.397600205230713C19.64270058746338,6.918100205230713,21.26090058746338,5.999800205230713,22.99990058746338,5.999800205230713L24.99990058746338,5.999800205230713L24.99990058746338,3.999800205230713L22.99990058746338,3.999800205230713C20.84290058746338,3.999800205230713,18.81550058746338,5.007200205230713,17.49990058746338,6.677400205230713Z" fill="#000000" fill-opacity="1"/></g><g></g></g></svg>