<svg xmlns="http://www.w3.org/2000/svg" xmlns:xlink="http://www.w3.org/1999/xlink" fill="none" version="1.1" width="32" height="32" viewBox="0 0 32 32"><defs><clipPath id="master_svg0_134_15119"><rect x="0" y="0" width="32" height="32" rx="0"/></clipPath></defs><g clip-path="url(#master_svg0_134_15119)"><g><path d="M27,29L13,29C11.9,29,11,28.1,11,27L11,23L13,23L13,27L27,27L27,13L23,13L23,11L27,11C28.1,11,29,11.9,29,13L29,27C29,28.1,28.1,29,27,29Z" fill="#000000" fill-opacity="1"/></g><g><path d="M20.000000953674316,16.999999046325684C19.500000953674316,16.999999046325684,19.100000953674318,17.099999046325685,18.700000953674316,17.299999046325684L14.700000953674316,13.299999046325684C14.900000953674317,12.899999046325684,15.000000953674316,12.499999046325684,15.000000953674316,11.999999046325684C15.000000953674316,10.299999046325684,13.700000953674316,8.999999046325684,12.000000953674316,8.999999046325684C10.300000953674317,8.999999046325684,9.000000953674316,10.299999046325684,9.000000953674316,11.999999046325684C9.000000953674316,13.699999046325683,10.300000953674317,14.999999046325684,12.000000953674316,14.999999046325684C12.500000953674316,14.999999046325684,12.900000953674317,14.899999046325684,13.300000953674317,14.699999046325683L17.300000953674317,18.699999046325683C17.100000953674318,19.099999046325685,17.000000953674316,19.499999046325684,17.000000953674316,19.999999046325684C17.000000953674316,21.699999046325683,18.300000953674317,22.999999046325684,20.000000953674316,22.999999046325684C21.700000953674316,22.999999046325684,23.000000953674316,21.699999046325683,23.000000953674316,19.999999046325684C23.000000953674316,18.299999046325684,21.700000953674316,16.999999046325684,20.000000953674316,16.999999046325684ZM11.000000953674316,11.999999046325684C11.000000953674316,11.399999046325684,11.400000953674317,10.999999046325684,12.000000953674316,10.999999046325684C12.600000953674316,10.999999046325684,13.000000953674316,11.399999046325684,13.000000953674316,11.999999046325684C13.000000953674316,12.599999046325683,12.600000953674316,12.999999046325684,12.000000953674316,12.999999046325684C11.400000953674317,12.999999046325684,11.000000953674316,12.599999046325683,11.000000953674316,11.999999046325684ZM20.000000953674316,20.999999046325684C19.400000953674315,20.999999046325684,19.000000953674316,20.599999046325685,19.000000953674316,19.999999046325684C19.000000953674316,19.399999046325682,19.400000953674315,18.999999046325684,20.000000953674316,18.999999046325684C20.600000953674318,18.999999046325684,21.000000953674316,19.399999046325682,21.000000953674316,19.999999046325684C21.000000953674316,20.599999046325685,20.600000953674318,20.999999046325684,20.000000953674316,20.999999046325684Z" fill="#000000" fill-opacity="1"/></g><g><path d="M5,3L19,3C20.1,3,21,3.9,21,5L21,9L19,9L19,5L5,5L5,19L9,19L9,21L5,21C3.9,21,3,20.1,3,19L3,5C3,3.9,3.9,3,5,3Z" fill="#000000" fill-opacity="1"/></g><g></g></g></svg>