<svg xmlns="http://www.w3.org/2000/svg" xmlns:xlink="http://www.w3.org/1999/xlink" fill="none" version="1.1" width="32" height="32" viewBox="0 0 32 32"><defs><clipPath id="master_svg0_134_15723"><rect x="0" y="0" width="32" height="32" rx="0"/></clipPath></defs><g clip-path="url(#master_svg0_134_15723)"><g><path d="M16,0.0005000000237487257L4,5.978400000023749L4,20.04430000002375C4.000000476837,26.671700000023748,9.37258,32.044300000023746,16,32.044300000023746C22.6274,32.044300000023746,28,26.671700000023748,28,20.04430000002375L28,5.978400000023749L16,0.0005000000237487257ZM22.83,27.31430000002375L16,23.91190000002375L16,26.14000000002375L21.0361,28.648800000023748C14.3829,32.52340000002375,6.0301100000000005,27.743400000023748,6,20.04430000002375L6,7.210000000023749L16,2.2284000000237487L26,7.210000000023749L26,10.960000000023749L16,5.978300000023749L16,8.206200000023749L26,13.18780000002375L26,16.93780000002375L16,11.956200000023749L16,14.184100000023749L26,19.165600000023748L26,20.04430000002375C26.0005,20.95270000002375,25.876,21.85690000002375,25.63,22.731400000023747L16,17.934000000023747L16,20.16190000002375L24.8952,24.59320000002375C24.3675,25.61170000002375,23.669,26.53210000002375,22.83,27.31430000002375Z" fill="#000000" fill-opacity="1"/></g><g></g></g></svg>