<svg xmlns="http://www.w3.org/2000/svg" xmlns:xlink="http://www.w3.org/1999/xlink" fill="none" version="1.1" width="32" height="32" viewBox="0 0 32 32"><defs><clipPath id="master_svg0_134_15171"><rect x="0" y="0" width="32" height="32" rx="0"/></clipPath></defs><g clip-path="url(#master_svg0_134_15171)"><g><path d="M26,19C25.3,19,24.6,19.3,24.1,19.7L19.8,17.1C19.9,16.7,20,16.4,20,16C20,15.6,19.9,15.2,19.8,14.9L24.1,12.3C24.6,12.7,25.3,13,26,13C27.7,13,29,11.7,29,10C29,8.3,27.7,7,26,7C24.3,7,23,8.3,23,10C23,10.2,23,10.4,23.1,10.6L18.8,13.2C18.1,12.4,17.1,12,16,12C15.4,12,14.9,12.1,14.4,12.4L10.6,7.6C10.8,7.1,11,6.6,11,6C11,4.3,9.7,3,8,3C6.3,3,5,4.3,5,6C5,7.7,6.3,9,8,9C8.3,9,8.7,8.9,9,8.8L12.8,13.6C12.5,14,12.3,14.5,12.1,15L7.8,15C7.4,13.8,6.3,13,5,13C3.3,13,2,14.3,2,16C2,17.7,3.3,19,5,19C6.3,19,7.4,18.2,7.8,17L12.1,17C12.2,17.5,12.5,18,12.8,18.4L9,23.2C8.7,23.1,8.3,23,8,23C6.3,23,5,24.3,5,26C5,27.7,6.3,29,8,29C9.7,29,11,27.7,11,26C11,25.4,10.8,24.9,10.5,24.4L14.3,19.6C14.8,19.8,15.4,20,15.9,20C17,20,18,19.6,18.7,18.8L23,21.4C23,21.6,22.9,21.8,22.9,22C22.9,23.7,24.2,25,25.9,25C27.6,25,28.9,23.7,28.9,22C28.9,20.3,27.7,19,26,19ZM26,9C26.6,9,27,9.4,27,10C27,10.6,26.6,11,26,11C25.4,11,25,10.6,25,10C25,9.4,25.4,9,26,9ZM7,6C7,5.4,7.4,5,8,5C8.6,5,9,5.4,9,6C9,6.6,8.6,7,8,7C7.4,7,7,6.6,7,6ZM5,17C4.4,17,4,16.6,4,16C4,15.4,4.4,15,5,15C5.6,15,6,15.4,6,16C6,16.6,5.6,17,5,17ZM8,27C7.4,27,7,26.6,7,26C7,25.4,7.4,25,8,25C8.6,25,9,25.4,9,26C9,26.6,8.6,27,8,27ZM16,18C14.9,18,14,17.1,14,16C14,14.9,14.9,14,16,14C17.1,14,18,14.9,18,16C18,17.1,17.1,18,16,18ZM26,23C25.4,23,25,22.6,25,22C25,21.4,25.4,21,26,21C26.6,21,27,21.4,27,22C27,22.6,26.6,23,26,23Z" fill="#000000" fill-opacity="1"/></g><g></g></g></svg>