<svg xmlns="http://www.w3.org/2000/svg" xmlns:xlink="http://www.w3.org/1999/xlink" fill="none" version="1.1" width="32" height="32" viewBox="0 0 32 32"><defs><clipPath id="master_svg0_134_15760"><rect x="0" y="0" width="32" height="32" rx="0"/></clipPath></defs><g clip-path="url(#master_svg0_134_15760)"><g><path d="M28.799999046325684,23.39999923706055C27.799999046325684,25.699999237060545,22.799999046325684,27.999999237060546,15.999999046325684,27.999999237060546C8.299999046325684,27.999999237060546,2.9999990463256836,25.099999237060548,2.9999990463256836,22.499999237060546C2.9999990463256836,20.39999923706055,6.599999046325683,17.999999237060546,12.099999046325683,17.299999237060547L11.799999046325684,15.299999237060547C5.499999046325684,16.199999237060545,0.9999990463256836,18.999999237060546,0.9999990463256836,22.499999237060546C0.9999990463256836,26.699999237060545,7.599999046325683,29.999999237060546,15.999999046325684,29.999999237060546C23.099999046325685,29.999999237060546,28.899999046325682,27.599999237060548,30.499999046325684,24.39999923706055L28.799999046325684,23.39999923706055Z" fill="#000000" fill-opacity="1"/></g><g><path d="M24.499999809265137,20.899999618530273C23.299999809265138,21.899999618530273,20.299999809265138,22.999999618530275,15.999999809265137,22.999999618530275C11.699999809265137,22.999999618530275,8.699999809265137,21.899999618530273,7.4999998092651365,20.899999618530273L5.699999809265137,21.899999618530273C7.399999809265137,23.899999618530273,11.799999809265136,24.999999618530275,15.899999809265136,24.999999618530275C20.099999809265135,24.999999618530275,24.399999809265136,23.899999618530273,26.099999809265135,21.899999618530273L24.499999809265137,20.899999618530273Z" fill="#000000" fill-opacity="1"/></g><g><ellipse cx="16" cy="16" rx="2" ry="2" fill="#000000" fill-opacity="1"/></g><g><path d="M16.000000190734863,7C11.800000190734863,7,7.5000001907348635,8.1,5.800000190734863,10.1L7.600000190734863,11.1C8.700000190734864,10.1,11.800000190734863,9,16.000000190734863,9C20.200000190734862,9,23.300000190734863,10.1,24.500000190734863,11.1L26.300000190734863,10.1C24.500000190734863,8.1,20.200000190734862,7.000000476837,16.000000190734863,7Z" fill="#000000" fill-opacity="1"/></g><g><path d="M31,9.5C31,5.3,24.4,2,16,2C8.9,2,3.1,4.4,1.5,7.6L3.2,8.6C4.2,6.3,9.2,4,16,4C23.7,4,29,6.9,29,9.5C29,11.6,25.4,14,19.9,14.7L20.2,16.7C26.5,15.8,31,13,31,9.5Z" fill="#000000" fill-opacity="1"/></g><g></g></g></svg>