<svg xmlns="http://www.w3.org/2000/svg" xmlns:xlink="http://www.w3.org/1999/xlink" fill="none" version="1.1" width="32" height="32" viewBox="0 0 32 32"><defs><clipPath id="master_svg0_134_15375"><rect x="0" y="0" width="32" height="32" rx="0"/></clipPath></defs><g clip-path="url(#master_svg0_134_15375)"><g><path d="M24,24L24,30L30,30L30,24L24,24ZM28,28L26,28L26,26L28,26L28,28Z" fill="#000000" fill-opacity="1"/></g><g><path d="M2,30L8,30L8,24L2,24L2,30ZM4,26L6,26L6,28L4,28L4,26Z" fill="#000000" fill-opacity="1"/></g><g><path d="M26,15.000000953674316L17,15.000000953674316L17,8.836900953674316C18.4407,8.403300953674316,19.5,7.079800953674316,19.5,5.500000953674316C19.5,3.5703009536743164,17.9297,2.0000009536743164,16,2.0000009536743164C14.0703,2.0000009536743164,12.5,3.5703009536743164,12.5,5.500000953674316C12.5,7.079800953674316,13.5593,8.403300953674316,15,8.836900953674316L15,15.000000953674316L6,15.000000953674316C4.8975,15.000000953674316,4,15.897200953674316,4,17.000000953674316L4,22.000000953674316L6,22.000000953674316L6,17.000000953674316L15,17.000000953674316L15,24.000000953674316L13,24.000000953674316L13,30.000000953674316L19,30.000000953674316L19,24.000000953674316L17,24.000000953674316L17,17.000000953674316L26,17.000000953674316L26,22.000000953674316L28,22.000000953674316L28,17.000000953674316C28,15.897200953674316,27.1025,15.000000953674316,26,15.000000953674316ZM14.5,5.500000953674316C14.5,4.672900953674317,15.1729,4.000000953674316,16,4.000000953674316C16.8271,4.000000953674316,17.5,4.672900953674317,17.5,5.500000953674316C17.5,6.327100953674316,16.8271,7.000000953674316,16,7.000000953674316C15.1729,7.000000953674316,14.5,6.327100953674316,14.5,5.500000953674316ZM17,28.000000953674316L15,28.000000953674316L15,26.000000953674316L17,26.000000953674316L17,28.000000953674316Z" fill="#000000" fill-opacity="1"/></g><g><path d="M26.5,9C28.4297,9,30,7.4297,30,5.5C30,3.5703,28.4297,2,26.5,2C24.5703,2,23,3.5703,23,5.5C23,7.4297,24.5703,9,26.5,9ZM26.5,4C27.3271,4,28,4.6729,28,5.5C28,6.3271,27.3271,7,26.5,7C25.6729,7,25,6.3271,25,5.5C25,4.6729,25.6729,4,26.5,4Z" fill="#000000" fill-opacity="1"/></g><g><path d="M5.5,9C7.4297,9,9,7.4297,9,5.5C9,3.5703,7.4297,2,5.5,2C3.5703,2,2,3.5703,2,5.5C2,7.4297,3.5703,9,5.5,9ZM5.5,4C6.3271,4,7,4.6729,7,5.5C7,6.3271,6.3271,7,5.5,7C4.6729,7,4,6.3271,4,5.5C4,4.6729,4.6729,4,5.5,4Z" fill="#000000" fill-opacity="1"/></g><g></g></g></svg>