<svg xmlns="http://www.w3.org/2000/svg" xmlns:xlink="http://www.w3.org/1999/xlink" fill="none" version="1.1" width="32" height="32" viewBox="0 0 32 32"><defs><clipPath id="master_svg0_134_15190"><rect x="0" y="0" width="32" height="32" rx="0"/></clipPath></defs><g clip-path="url(#master_svg0_134_15190)"><g><rect x="22" y="13" width="2" height="2" rx="0" fill="#000000" fill-opacity="1"/></g><g><rect x="26" y="13" width="2" height="2" rx="0" fill="#000000" fill-opacity="1"/></g><g><rect x="30" y="13" width="2" height="2" rx="0" fill="#000000" fill-opacity="1"/></g><g><rect x="30" y="17" width="2" height="2" rx="0" fill="#000000" fill-opacity="1"/></g><g><rect x="15" y="20" width="2" height="2" rx="0" fill="#000000" fill-opacity="1"/></g><g><rect x="20" y="28" width="2" height="2" rx="0" fill="#000000" fill-opacity="1"/></g><g><rect x="24" y="28" width="2" height="2" rx="0" fill="#000000" fill-opacity="1"/></g><g><path d="M19,26L28,26L28,17L19,17L19,26ZM21,19L26,19L26,24L21,24L21,19Z" fill="#000000" fill-opacity="1"/></g><g><path d="M16,3L16,3C15.998,3.000499964,15.996,3.000200033,15.994,3.000200033C11.2933,3.00340009,7.09072,6.3308,6.16982,11.1154C2.60372,11.7607,0.00781767,14.8598,0.000017672,18.4815C-0.00888233,22.6249,3.34502,25.9911,7.49112,26L17,26L17,24L7.49542,24C4.45872,23.9935,1.99342,21.5198,2.00002,18.485799999999998C2.00572,15.8289,3.90922,13.5569,6.52592,13.0835L7.87472,12.8394L8.13382,11.4935C8.85792,7.7312,12.1724,5.0001999999999995,16,5C19.7363,5,22.9395,7.5367,23.79,11.169L25.7373,10.712900000000001C24.6738,6.1719,20.6699,3,16,3Z" fill="#000000" fill-opacity="1"/></g><g><g></g></g></g></svg>