<svg xmlns="http://www.w3.org/2000/svg" xmlns:xlink="http://www.w3.org/1999/xlink" fill="none" version="1.1" width="32" height="32" viewBox="0 0 32 32"><defs><clipPath id="master_svg0_134_15896"><rect x="0" y="0" width="32" height="32" rx="0"/></clipPath></defs><g clip-path="url(#master_svg0_134_15896)"><g><path d="M14,18L4,18C2.9,18,2,18.9,2,20L2,26C2,27.1,2.9,28,4,28L6.4,28L8.1,31L9.8,30L7.5,26L4,26L4,20L14,20L14,26L11,26L11,28L14,28C15.1,28,16,27.1,16,26L16,20C16,18.9,15.1,18,14,18Z" fill="#000000" fill-opacity="1"/></g><g><path d="M19,26L21,26C24.9,26,28,22.9,28,19L28,17L26,17L26,19C26,21.8,23.8,24,21,24L19,24L19,26Z" fill="#000000" fill-opacity="1"/></g><g><rect x="18" y="11" width="6" height="2" rx="0" fill="#000000" fill-opacity="1"/></g><g><rect x="18" y="7" width="12" height="2" rx="0" fill="#000000" fill-opacity="1"/></g><g><rect x="18" y="3" width="12" height="2" rx="0" fill="#000000" fill-opacity="1"/></g><g><path d="M4,14L6,14L6,12C6,9.2,8.2,7,11,7L15,7L15,5L11,5C7.1,5,4,8.1,4,12L4,14Z" fill="#000000" fill-opacity="1"/></g><g></g></g></svg>