<svg xmlns="http://www.w3.org/2000/svg" xmlns:xlink="http://www.w3.org/1999/xlink" fill="none" version="1.1" width="32" height="32" viewBox="0 0 32 32"><defs><clipPath id="master_svg0_134_15590"><rect x="0" y="0" width="32" height="32" rx="0"/></clipPath></defs><g clip-path="url(#master_svg0_134_15590)"><g><rect x="9" y="13" width="2" height="6" rx="0" fill="#000000" fill-opacity="1"/></g><g><rect x="21" y="13" width="2" height="6" rx="0" fill="#000000" fill-opacity="1"/></g><g><rect x="13" y="11" width="2" height="13" rx="0" fill="#000000" fill-opacity="1"/></g><g><rect x="17" y="9" width="2" height="13" rx="0" fill="#000000" fill-opacity="1"/></g><g><ellipse cx="22" cy="5" rx="2" ry="2" fill="#000000" fill-opacity="1"/></g><g><ellipse cx="10" cy="27" rx="2" ry="2" fill="#000000" fill-opacity="1"/></g><g><path d="M22.0916,28.00000023651123L14,28.00000023651123L14,26.00000023651123L22.0916,26.00000023651123L27.9998,16.00000023651123L25.3006,11.43210023651123L27.0233,10.41450023651123L29.7225,14.98240023651123C30.0926,15.60980023651123,30.0926,16.39010023651123,29.7225,17.01760023651123L23.813299999999998,27.01760023651123C23.4559,27.62310023651123,22.7957,28.00000023651123,22.0916,28.00000023651123Z" fill="#000000" fill-opacity="1"/></g><g><path d="M4.976795033950806,21.585899864196776L2.277600033950806,17.01749986419678C1.9075000339508057,16.390099864196777,1.9075000339508057,15.609799864196777,2.277600033950806,14.982299864196778L8.186805033950804,4.9822998641967775C8.545205033950806,4.376299864196778,9.204405033950806,3.9998998641967773,9.908495033950807,3.9998998641967773L18.000125033950805,3.9998998641967773L18.000125033950805,5.999899864196777L9.908495033950807,5.999899864196777L4.000295033950806,15.999899864196777L6.6994950339508055,20.568299864196778L4.976795033950806,21.585899864196776Z" fill="#000000" fill-opacity="1"/></g><g></g></g></svg>