<svg xmlns="http://www.w3.org/2000/svg" xmlns:xlink="http://www.w3.org/1999/xlink" fill="none" version="1.1" width="32" height="32" viewBox="0 0 32 32"><defs><clipPath id="master_svg0_134_15858"><rect x="0" y="0" width="32" height="32" rx="0"/></clipPath></defs><g clip-path="url(#master_svg0_134_15858)"><g><rect x="6" y="23" width="5" height="2" rx="0" fill="#000000" fill-opacity="1"/></g><g><rect x="6" y="19" width="5" height="2" rx="0" fill="#000000" fill-opacity="1"/></g><g><path d="M13,30L4,30C2.9,30,2,29.1,2,28L2,17C2,15.9,2.9,15,4,15L13,15C14.1,15,15,15.9,15,17L15,28C15,29.1,14.1,30,13,30ZM4,17L4,28L13,28L13,17L4,17Z" fill="#000000" fill-opacity="1"/></g><g><rect x="19" y="2" width="8" height="2" rx="0" fill="#000000" fill-opacity="1"/></g><g><rect x="22" y="6" width="8" height="2" rx="0" fill="#000000" fill-opacity="1"/></g><g><rect x="22" y="10" width="8" height="2" rx="0" fill="#000000" fill-opacity="1"/></g><g><rect x="19" y="14" width="8" height="2" rx="0" fill="#000000" fill-opacity="1"/></g><g><rect x="22" y="18" width="8" height="2" rx="0" fill="#000000" fill-opacity="1"/></g><g><path d="M12,1L10.6,2.4L13.2,5L4,5C2.9,5,2,5.9,2,7L2,12L4,12L4,7L13.2,7L10.6,9.6L12,11L17,6L12,1Z" fill="#000000" fill-opacity="1"/></g><g></g></g></svg>