<svg xmlns="http://www.w3.org/2000/svg" xmlns:xlink="http://www.w3.org/1999/xlink" fill="none" version="1.1" width="32" height="32" viewBox="0 0 32 32"><defs><clipPath id="master_svg0_134_15325"><rect x="0" y="0" width="32" height="32" rx="0"/></clipPath></defs><g clip-path="url(#master_svg0_134_15325)"><g><path d="M22.36380076293945,21.36399967956543L20.950000762939453,19.94999967956543C23.683730762939454,17.216549679565432,23.683730762939454,12.78444967956543,20.950000762939453,10.050999679565429L22.36380076293945,8.63599967956543C25.878570762939454,12.15072967956543,25.878570762939454,17.84926967956543,22.36380076293945,21.36399967956543Z" fill="#000000" fill-opacity="1"/></g><g><path d="M19.53560110473633,18.535400563049315L18.121601104736328,17.121300563049317C19.291001104736328,15.948840563049316,19.291001104736328,14.051160563049317,18.121601104736328,12.878700563049316L19.53560110473633,11.464600563049316C21.48540110473633,13.418290563049316,21.48540110473633,16.581710563049317,19.53560110473633,18.535400563049315Z" fill="#000000" fill-opacity="1"/></g><g><path d="M17,26L15,26L15,15C15,14.447715,15.447715,14,16,14C16.55228,14,17,14.447715,17,15L17,26Z" fill="#000000" fill-opacity="1"/></g><g><path d="M12.464403260803223,18.535400563049315C10.514604260803223,16.581710563049317,10.514604260803223,13.418290563049316,12.464403260803223,11.464600563049316L13.878403260803223,12.878700563049316C12.709003260803222,14.051160563049317,12.709003260803222,15.948840563049316,13.878403260803223,17.121300563049317L12.464403260803223,18.535400563049315Z" fill="#000000" fill-opacity="1"/></g><g><path d="M9.636201116638183,21.364000633239748C6.121428116638183,17.849270633239747,6.121428116638183,12.150730633239746,9.636201116638183,8.636000633239746L11.050001116638184,10.050500633239746C8.316271116638184,12.783950633239746,8.316271116638184,17.216050633239746,11.050001116638184,19.949500633239744L9.636201116638183,21.364000633239748Z" fill="#000000" fill-opacity="1"/></g><g><path d="M16,30.999962210655212C15.823,31.00026221065521,15.6491,30.95336221065521,15.4961,30.864262210655212L3.4961,23.864262210655212C3.188881,23.68496221065521,3,23.35586221065521,3,22.999962210655212L3,9.000002210655213C2.999863863,8.644302210655212,3.188797,8.315332210655212,3.4961,8.136202210655213L15.4961,1.1362002106552125C15.8075,0.9545497106552124,16.192500000000003,0.9545497106552124,16.5039,1.1362002106552125L28.5039,8.136202210655213L27.4961,9.863802210655212L16,3.1577022106552124L5,9.574202210655212L5,22.42576221065521L16,28.842762210655213L27,22.42576221065521L27,14.999962210655212L29,14.999962210655212L29,22.999962210655212C29,23.35576221065521,28.8111,23.68486221065521,28.5039,23.864262210655212L16.5039,30.864262210655212C16.3509,30.95336221065521,16.177,31.00026221065521,16,30.999962210655212Z" fill="#000000" fill-opacity="1"/></g><g></g></g></svg>