<svg xmlns="http://www.w3.org/2000/svg" xmlns:xlink="http://www.w3.org/1999/xlink" fill="none" version="1.1" width="32" height="32" viewBox="0 0 32 32"><defs><clipPath id="master_svg0_134_15176"><rect x="0" y="0" width="32" height="32" rx="0"/></clipPath></defs><g clip-path="url(#master_svg0_134_15176)"><g><path d="M23.499999809265137,9.199999809265137L22.499999809265137,10.899999809265136C24.699999809265137,12.099999809265137,25.999999809265137,14.499999809265137,25.999999809265137,16.999999809265137C25.999999809265137,22.199999809265137,22.199999809265137,25.699999809265137,19.999999809265137,27.199999809265137L19.999999809265137,23.999999809265137L18.999999809265137,23.999999809265137C16.499999809265137,23.999999809265137,14.099999809265137,22.599999809265135,12.899999809265136,20.399999809265136L11.199999809265137,21.399999809265136C12.599999809265137,23.999999809265137,15.199999809265137,25.599999809265135,18.099999809265135,25.999999809265137L18.099999809265135,28.999999809265137C18.099999809265135,29.299999809265138,18.299999809265138,29.699999809265137,18.599999809265135,29.899999809265136C18.599999809265135,29.999999809265137,18.799999809265138,29.999999809265137,18.999999809265137,29.999999809265137C19.199999809265137,29.999999809265137,19.299999809265138,29.999999809265137,19.399999809265136,29.899999809265136C19.799999809265138,29.699999809265137,27.999999809265137,25.499999809265137,27.999999809265137,16.999999809265137C27.999999809265137,13.799999809265136,26.299999809265138,10.799999809265136,23.499999809265137,9.199999809265137Z" fill="#000000" fill-opacity="1"/></g><g><path d="M20,13.1L20,7.8C21.2,7.4,22,6.3,22,5C22,3.3,20.7,2,19,2C17.3,2,16,3.3,16,5C16,6.3,16.8,7.4,18,7.8L18,13.1C17.6,13.2,17.3,13.3,17,13.5L11.7,8.2C11.9,7.9,12,7.5,12,7C12,5.3,10.7,4,9,4C7.3,4,6,5.3,6,7C6,8.7,7.3,10,9,10C9.5,10,9.9,9.9,10.3,9.7L15.6,15C15.4,15.3,15.3,15.7,15.2,16L9.8,16C9.4,14.8,8.3,14,7,14C5.3,14,4,15.3,4,17C4,18.7,5.3,20,7,20C8.3,20,9.4,19.2,9.8,18L15.1,18C15.5,19.7,17.1,21,19,21C21.2,21,23,19.2,23,17C23,15.1,21.7,13.6,20,13.1ZM19,4C19.6,4,20,4.4,20,5C20,5.6,19.6,6,19,6C18.4,6,18,5.6,18,5C18,4.4,18.4,4,19,4ZM9,8C8.4,8,8,7.6,8,7C8,6.4,8.4,6,9,6C9.6,6,10,6.4,10,7C10,7.6,9.6,8,9,8ZM7,18C6.4,18,6,17.6,6,17C6,16.4,6.4,16,7,16C7.6,16,8,16.4,8,17C8,17.6,7.6,18,7,18ZM19,19C17.9,19,17,18.1,17,17C17,15.9,17.9,15,19,15C20.1,15,21,15.9,21,17C21,18.1,20.1,19,19,19Z" fill="#000000" fill-opacity="1"/></g><g></g></g></svg>