<svg xmlns="http://www.w3.org/2000/svg" xmlns:xlink="http://www.w3.org/1999/xlink" fill="none" version="1.1" width="32" height="32" viewBox="0 0 32 32"><defs><clipPath id="master_svg0_134_15949"><rect x="0" y="0" width="32" height="32" rx="0"/></clipPath></defs><g clip-path="url(#master_svg0_134_15949)"><g><path d="M11,28L9,28C5.1401,28,2,24.8599,2,21L2,19L4,19L4,21C4,23.7568,6.2432,26,9,26L11,26L11,28Z" fill="#000000" fill-opacity="1"/></g><g><path d="M28.169999923706055,26L25.590000123706055,28.58L26.999999923706056,30L30.999999923706056,26L26.999999923706056,22L25.579999923706055,23.41L28.169999923706055,26Z" fill="#000000" fill-opacity="1"/></g><g><path d="M21.999999084472655,31L20.084999084472656,30.4229L22.999999084472655,21L24.91489908447266,21.577101L21.999999084472655,31Z" fill="#000000" fill-opacity="1"/></g><g><path d="M16.83,26L19.41,23.42L18,22L14,26L18,30L19.42,28.59L16.83,26Z" fill="#000000" fill-opacity="1"/></g><g><path d="M30,19L28,19L28,12C28,9.2386,25.761400000000002,7,23,7L19,7L19,5L23,5C26.866,5,30,8.134,30,12L30,19Z" fill="#000000" fill-opacity="1"/></g><g><ellipse cx="3" cy="4" rx="1" ry="1" fill="#000000" fill-opacity="1"/></g><g><rect x="6" y="3" width="10" height="2" rx="0" fill="#000000" fill-opacity="1"/></g><g><ellipse cx="3" cy="12" rx="1" ry="1" fill="#000000" fill-opacity="1"/></g><g><rect x="6" y="11" width="10" height="2" rx="0" fill="#000000" fill-opacity="1"/></g><g><rect x="2" y="15" width="10" height="2" rx="0" fill="#000000" fill-opacity="1"/></g><g><ellipse cx="15" cy="8" rx="1" ry="1" fill="#000000" fill-opacity="1"/></g><g><rect x="2" y="7" width="10" height="2" rx="0" fill="#000000" fill-opacity="1"/></g><g><ellipse cx="15" cy="16" rx="1" ry="1" fill="#000000" fill-opacity="1"/></g><g></g></g></svg>