<svg xmlns="http://www.w3.org/2000/svg" xmlns:xlink="http://www.w3.org/1999/xlink" fill="none" version="1.1" width="32" height="32" viewBox="0 0 32 32"><defs><clipPath id="master_svg0_134_15384"><rect x="0" y="0" width="32" height="32" rx="0"/></clipPath></defs><g clip-path="url(#master_svg0_134_15384)"><g><path d="M20.000000190734863,16.000000190734863C20.000000190734863,15.300000190734863,19.800000190734863,14.600000190734864,19.400000190734865,14.000000190734863L22.700000190734862,10.700000190734864L21.300000190734863,9.300000190734863L18.000000190734863,12.600000190734864C17.400000190734865,12.200000190734864,16.700000190734862,12.000000190734863,16.000000190734863,12.000000190734863C15.300000190734863,12.000000190734863,14.600000190734864,12.200000190734864,14.000000190734863,12.600000190734864L10.700000190734864,9.300000190734863L9.300000190734863,10.700000190734864L12.600000190734864,14.000000190734863C12.200000190734864,14.600000190734864,12.000000190734863,15.300000190734863,12.000000190734863,16.000000190734863C12.000000190734863,16.700000190734862,12.200000190734864,17.400000190734865,12.600000190734864,18.000000190734863L9.300000190734863,21.300000190734863L10.700000190734864,22.700000190734862L14.000000190734863,19.400000190734865C14.600000190734864,19.800000190734863,15.300000190734863,20.000000190734863,16.000000190734863,20.000000190734863C16.700000190734862,20.000000190734863,17.400000190734865,19.800000190734863,18.000000190734863,19.400000190734865L21.300000190734863,22.700000190734862L22.700000190734862,21.300000190734863L19.400000190734865,18.000000190734863C19.800000190734863,17.400000190734865,20.000000190734863,16.700000190734862,20.000000190734863,16.000000190734863ZM16.000000190734863,18.000000190734863C14.900000190734863,18.000000190734863,14.000000190734863,17.100000190734864,14.000000190734863,16.000000190734863C14.000000190734863,14.900000190734863,14.900000190734863,14.000000190734863,16.000000190734863,14.000000190734863C17.100000190734864,14.000000190734863,18.000000190734863,14.900000190734863,18.000000190734863,16.000000190734863C18.000000190734863,17.100000190734864,17.100000190734864,18.000000190734863,16.000000190734863,18.000000190734863Z" fill="#000000" fill-opacity="1"/></g><g><path d="M26,17L32,17L32,15L29.9,15C29.4,7.7,23.4,2,16,2C8.3,2,2,8.3,2,16C2,23.7,8.3,30,16,30C21.2,30,25.7,27.2,28.1,23L26.4,22C24.3,25.6,20.5,28,16,28C9.4,28,4,22.6,4,16C4,9.4,9.4,4,16,4C22.3,4,27.4,8.9,27.9,15L26,15L26,17Z" fill="#000000" fill-opacity="1"/></g><g></g></g></svg>