<svg xmlns="http://www.w3.org/2000/svg" xmlns:xlink="http://www.w3.org/1999/xlink" fill="none" version="1.1" width="32" height="32" viewBox="0 0 32 32"><defs><clipPath id="master_svg0_134_15282"><rect x="0" y="0" width="32" height="32" rx="0"/></clipPath></defs><g clip-path="url(#master_svg0_134_15282)"><g><g><path d="M25,16C25,14.5,23.8,13.2,22.3,13C21.2,10.6,18.8,9,16,9C15.8,9,15.5,9,15.3,9.1C14.7,8.4,13.9,8,13,8C11.3,8,10,9.3,10,11C10,11.4,10.1,11.7,10.2,12.1C9.4,13.2,9,14.5,9,16C9,17.5,9.4,18.8,10.2,19.9C10.1,20.3,10,20.6,10,21C10,22.7,11.3,24,13,24C13.9,24,14.7,23.6,15.3,22.9C15.5,22.9,15.8,23,16,23C18.8,23,21.2,21.3,22.3,19C23.8,18.8,25,17.5,25,16ZM13,10C13.6,10,14,10.4,14,11C14,11.6,13.6,12,13,12C12.4,12,12,11.6,12,11C12,10.4,12.4,10,13,10ZM13,22C12.4,22,12,21.6,12,21C12,20.4,12.4,20,13,20C13.6,20,14,20.4,14,21C14,21.6,13.6,22,13,22ZM16,21C16,19.3,14.7,18,13,18C12.5,18,12,18.1,11.6,18.4C11.2,17.7,11,16.9,11,16C11,15.1,11.2,14.3,11.6,13.6C12,13.9,12.5,14,13,14C14.7,14,16,12.7,16,11C17.9,11,19.4,12,20.3,13.5C19.5,14.1,19,15,19,16C19,17,19.5,17.9,20.3,18.5C19.4,20,17.9,21,16,21ZM22,17C21.4,17,21,16.6,21,16C21,15.4,21.4,15,22,15C22.6,15,23,15.4,23,16C23,16.6,22.6,17,22,17Z" fill="#000000" fill-opacity="1"/></g><g><path d="M16,31.000000405311585C15.8,31.000000405311585,15.7,31.000000405311585,15.5,30.900000405311584L3.5,23.900000405311584C3.2,23.700000405311584,3,23.400000405311584,3,23.000000405311585L3,9.000000405311585C3,8.600000405311585,3.2,8.300000405311584,3.5,8.100000405311585L15.5,1.1000004053115844C15.8,0.9000004053115844,16.2,0.9000004053115844,16.5,1.1000004053115844L28.5,8.100000405311585L27.5,9.800000405311584L16,3.2000004053115845L5,9.600000405311585L5,22.500000405311585L16,28.900000405311584L27,22.500000405311585L27,15.000000405311585L29,15.000000405311585L29,23.000000405311585C29,23.400000405311584,28.8,23.700000405311584,28.5,23.900000405311584L16.5,30.900000405311584C16.3,31.000000405311585,16.2,31.000000405311585,16,31.000000405311585Z" fill="#000000" fill-opacity="1"/></g><g></g></g></g></svg>