<svg xmlns="http://www.w3.org/2000/svg" xmlns:xlink="http://www.w3.org/1999/xlink" fill="none" version="1.1" width="32" height="32" viewBox="0 0 32 32"><defs><clipPath id="master_svg0_134_24699"><rect x="0" y="0" width="32" height="32" rx="0"/></clipPath></defs><g clip-path="url(#master_svg0_134_24699)"><g><path d="M16,18C13.2,18,11,15.8,11,13C11,10.2,13.2,8,16,8C18.8,8,21,10.2,21,13C21,15.8,18.8,18,16,18Z" fill="#000000" fill-opacity="1"/></g><g><path d="M16,30L7.6,20.1Q7.6,20,7.3,19.6C5.8,17.7,5,15.4,5,13C5,6.9,9.9,2,16,2C22.1,2,27,6.9,27,13C27,15.4,26.2,17.7,24.8,19.6L24.5,20L16,30ZM8.8,18.4Q9,18.7,9.1,18.8L16,26.9L22.9,18.8Q22.9,18.7,23.2,18.4C24.4,16.8,25,15,25,13C25,8,21,4,16,4C11,4,7,8,7,13C7,15,7.6,16.8,8.8,18.4Z" fill="#000000" fill-opacity="1"/></g><g></g></g></svg>