<svg xmlns="http://www.w3.org/2000/svg" xmlns:xlink="http://www.w3.org/1999/xlink" fill="none" version="1.1" width="32" height="32" viewBox="0 0 32 32"><defs><clipPath id="master_svg0_134_16209"><rect x="0" y="0" width="32" height="32" rx="0"/></clipPath></defs><g clip-path="url(#master_svg0_134_16209)"><g><path d="M14,26C7.37258,26,2,20.6274,2,14C2,7.37258,7.37258,2,14,2L14,26Z" fill="#000000" fill-opacity="1"/></g><g><path d="M17.825700759887695,4.7642005321502685C19.037890759887695,5.267700532150268,20.139450759887694,6.004260532150269,21.067900759887696,6.932100532150269L22.481200759887695,5.518600532150268C21.367240759887697,4.405240532150269,20.045590759887695,3.5213355321502684,18.591201759887696,2.9170005321502686L17.825700759887695,4.7642005321502685Z" fill="#000000" fill-opacity="1"/></g><g><path d="M25.999999243164062,14.00000066833496C26.000619243164063,12.424210668334961,25.689059243164063,10.863910668334961,25.083299243164063,9.409200668334961L23.236099243164062,10.174300668334961C23.740869243164063,11.386580668334961,24.00049924316406,12.686830668334961,24.000000243164063,14.00000066833496L25.999999243164062,14.00000066833496Z" fill="#000000" fill-opacity="1"/></g><g><path d="M27.379996817626953,28L20.617796817626953,28L23.999996817626954,21.2358L27.379996817626953,28ZM23.999996817626954,18C23.621146817626954,17.999879837,23.27475681762695,18.213861,23.105296817626954,18.5527L18.105300817626954,28.5527C17.773391817626955,29.2177,18.256772817626953,29.9996,18.999996817626954,30L29.000006817626954,30C29.715806817626955,30.0002,30.200006817626953,29.270200000000003,29.921406817626952,28.610799999999998L24.894596817626955,18.5527C24.72528681762695,18.213976,24.378946817626954,18,23.999996817626954,18Z" fill="#000000" fill-opacity="1"/></g><g></g></g></svg>