<svg xmlns="http://www.w3.org/2000/svg" xmlns:xlink="http://www.w3.org/1999/xlink" fill="none" version="1.1" width="32" height="32" viewBox="0 0 32 32"><defs><clipPath id="master_svg0_134_16246"><rect x="0" y="0" width="32" height="32" rx="0"/></clipPath></defs><g clip-path="url(#master_svg0_134_16246)"><g></g><g><path d="M16,2C8.26801,2,2,8.26801,2,16C2,23.732,8.26801,30,16,30C23.732,30,30,23.732,30,16C30,8.26801,23.732,2,16,2ZM16,8C16.828400000000002,8,17.5,8.67157,17.5,9.5C17.5,10.32843,16.828400000000002,11,16,11C15.1716,11,14.5,10.32843,14.5,9.5C14.5,8.67157,15.1716,8,16,8ZM20,24.125L12,24.125L12,21.875L14.875,21.875L14.875,16.125L13,16.125L13,13.875L17.125,13.875L17.125,21.875L20,21.875L20,24.125Z" fill="#000000" fill-opacity="1"/></g><g></g></g></svg>