<svg xmlns="http://www.w3.org/2000/svg" xmlns:xlink="http://www.w3.org/1999/xlink" fill="none" version="1.1" width="32" height="32" viewBox="0 0 32 32"><defs><clipPath id="master_svg0_134_16265"><rect x="0" y="0" width="32" height="32" rx="0"/></clipPath></defs><g clip-path="url(#master_svg0_134_16265)"><g><rect x="18" y="26" width="12" height="2" rx="0" fill="#000000" fill-opacity="1"/></g><g><rect x="18" y="21" width="12" height="2" rx="0" fill="#000000" fill-opacity="1"/></g><g><rect x="18" y="16" width="12" height="2" rx="0" fill="#000000" fill-opacity="1"/></g><g><path d="M13.999975018882752,25.000003938293457L9.499995018882752,25.000003938293457C5.615575018882751,25.001903938293456,2.3731500188827512,22.036303938293457,2.0293553188827516,18.167103938293458C1.6855610188827514,14.297903938293457,4.354295018882752,10.807023938293456,8.17819501888275,10.124003938293457C9.147335018882751,5.0593639382934565,13.808675018882752,1.562057938293457,18.94217501888275,2.0479173382934572C24.07577501888275,2.533776938293457,27.99827501888275,6.843473938293457,27.99997501888275,12.000003938293457L25.99997501888275,12.000003938293457C26.000775018882752,7.750993938293457,22.67937501888275,4.242873938293457,18.436675018882752,4.011463938293457C14.193975018882751,3.780053938293457,10.510685018882752,6.906123938293457,10.049305018882752,11.130003938293457L9.959295018882752,11.963503938293456L9.12300501888275,12.020003938293456C6.164495018882752,12.219003938293458,3.8972050188827514,14.729003938293458,3.9989550188827514,17.69240393829346C4.100705018882751,20.655803938293456,6.534815018882751,23.004403938293457,9.499995018882752,23.000003938293457L13.999975018882752,23.000003938293457L13.999975018882752,25.000003938293457Z" fill="#000000" fill-opacity="1"/></g><g></g></g></svg>