<svg xmlns="http://www.w3.org/2000/svg" xmlns:xlink="http://www.w3.org/1999/xlink" fill="none" version="1.1" width="32" height="32" viewBox="0 0 32 32"><defs><clipPath id="master_svg0_134_16364"><rect x="0" y="0" width="32" height="32" rx="0"/></clipPath></defs><g clip-path="url(#master_svg0_134_16364)"><g><ellipse cx="7" cy="23" rx="1" ry="1" fill="#000000" fill-opacity="1"/></g><g><rect x="2" y="6" width="4" height="2" rx="0" fill="#000000" fill-opacity="1"/></g><g><rect x="8" y="6" width="4" height="2" rx="0" fill="#000000" fill-opacity="1"/></g><g><rect x="14" y="6" width="4" height="2" rx="0" fill="#000000" fill-opacity="1"/></g><g><rect x="20" y="6" width="4" height="2" rx="0" fill="#000000" fill-opacity="1"/></g><g><rect x="26" y="6" width="4" height="2" rx="0" fill="#000000" fill-opacity="1"/></g><g><path d="M28,28L4,28C2.895911,27.99884,2.00115824,27.10409,2,26L2,20C2.00115728,18.89591,2.8959099999999998,18.00115776,4,18L28,18C29.1041,18.00115776,29.9988,18.89591,30,20L30,26C29.9988,27.10409,29.1041,27.99884,28,28ZM4,20L4,26L28,26L28,20L4,20Z" fill="#000000" fill-opacity="1"/></g><g><rect x="2" y="12" width="28" height="2" rx="0" fill="#000000" fill-opacity="1"/></g><g></g></g></svg>