<svg xmlns="http://www.w3.org/2000/svg" xmlns:xlink="http://www.w3.org/1999/xlink" fill="none" version="1.1" width="32" height="32" viewBox="0 0 32 32"><defs><clipPath id="master_svg0_134_16407"><rect x="0" y="0" width="32" height="32" rx="0"/></clipPath></defs><g clip-path="url(#master_svg0_134_16407)"><g><path d="M28.6,30L30,28.6L22.4,21L29,21L29,19L19,19L19,29L21,29L21,22.4L28.6,30Z" fill="#000000" fill-opacity="1"/></g><g><path d="M2,28.6L3.4,30L11,22.4L11,29L13,29L13,19L3,19L3,21L9.6,21L2,28.6Z" fill="#000000" fill-opacity="1"/></g><g><path d="M17,2L15,2L15,12.2L10.4,7.6L9,9L16,16L23,9L21.6,7.6L17,12.2L17,2Z" fill="#000000" fill-opacity="1"/></g><g></g></g></svg>