<svg xmlns="http://www.w3.org/2000/svg" xmlns:xlink="http://www.w3.org/1999/xlink" fill="none" version="1.1" width="32" height="32" viewBox="0 0 32 32"><defs><clipPath id="master_svg0_134_16376"><rect x="0" y="0" width="32" height="32" rx="0"/></clipPath></defs><g clip-path="url(#master_svg0_134_16376)"><g><path d="M29.88002533340454,15.519996185302734L23.88002533340454,4.5200001853027345C23.70412533340454,4.198520185302734,23.366425333404543,3.9990005493027345,23.00002533340454,4.000000000002735L8.999995333404541,4.000000000002735C8.633545333404541,3.9989998343027344,8.295895333404541,4.198520185302734,8.11999533340454,4.5200001853027345L2.120000333404541,15.519996185302734C1.941367133404541,15.829396185302734,1.941367133404541,16.210596185302734,2.120000333404541,16.519996185302734L8.11999533340454,27.519996185302734C8.306175333404541,27.826096185302735,8.641865333404542,28.009196185302734,8.999995333404541,27.999996185302734L23.00002533340454,27.999996185302734C23.366425333404543,28.000996185302736,23.70412533340454,27.801496185302735,23.88002533340454,27.479996185302735L29.88002533340454,16.479996185302735C30.043625333404542,16.180896185302736,30.043625333404542,15.819096185302735,29.88002533340454,15.519996185302734ZM22.93002533340454,6.999996185302734L27.32002533340454,14.999996185302734L17.82002533340454,14.999996185302734L22.93002533340454,6.999996185302734ZM16.00002533340454,14.139996185302735L10.819995333404542,5.999996185302734L21.18002533340454,5.999996185302734L16.00002533340454,14.139996185302735ZM9.069995333404542,6.999996185302734L14.180025333404542,14.999996185302734L4.679995333404541,14.999996185302734L9.069995333404542,6.999996185302734ZM4.679995333404541,16.999996185302734L14.180025333404542,16.999996185302734L9.069995333404542,24.999996185302734L4.679995333404541,16.999996185302734ZM16.00002533340454,17.859996185302734L21.18002533340454,25.999996185302734L10.819995333404542,25.999996185302734L16.00002533340454,17.859996185302734ZM22.93002533340454,24.999996185302734L17.82002533340454,16.999996185302734L27.32002533340454,16.999996185302734L22.93002533340454,24.999996185302734Z" fill="#000000" fill-opacity="1"/></g><g></g></g></svg>