<svg xmlns="http://www.w3.org/2000/svg" xmlns:xlink="http://www.w3.org/1999/xlink" fill="none" version="1.1" width="16" height="16" viewBox="0 0 16 16"><defs><clipPath id="master_svg0_134_08577"><rect x="0" y="0" width="16" height="16" rx="0"/></clipPath></defs><g clip-path="url(#master_svg0_134_08577)"><g><g><path d="M11,7L11,9L13,9C13.5523,9,14,9.44771,14,10L14,13C14,13.5523,13.5523,14,13,14L10,14L10,7L11,7ZM5,9C5.55228,9,6,9.44771,6,10L6,14L3,14C2.447715,14,2,13.5523,2,13L2,12C2,11.44772,2.447715,11,3,11L5,11L5,10L2.5,10L2.5,9L5,9ZM13,10L11,10L11,13L13,13L13,10ZM5,12L3,12L3,13L5,13L5,12ZM7.912,2L7.834,3.911L9.628,3.248L9.914,4.119L8.068,4.6259999999999994L9.251000000000001,6.134L8.523,6.667L7.457,5.068L6.391,6.667L5.663,6.134L6.846,4.6259999999999994L5,4.119L5.286,3.248L7.08,3.911L7.002,2L7.912,2Z" fill-rule="evenodd" fill="#000000" fill-opacity="1"/></g></g></g></svg>