<svg xmlns="http://www.w3.org/2000/svg" xmlns:xlink="http://www.w3.org/1999/xlink" fill="none" version="1.1" width="32" height="32" viewBox="0 0 32 32"><defs><clipPath id="master_svg0_134_16447"><rect x="0" y="0" width="32" height="32" rx="0"/></clipPath></defs><g clip-path="url(#master_svg0_134_16447)"><g><ellipse cx="22" cy="23.88719940185547" rx="2" ry="2" fill="#000000" fill-opacity="1"/></g><g><path d="M29.776899999999998,23.4785C28.5138,20.26117,25.4548,18.106216,22,18C18.54523,18.106216,15.48621,20.26117,14.223101,23.4785L14,24L14.2231,24.5215C15.48621,27.73883,18.54523,29.8938,22,30C25.4548,29.8938,28.5138,27.73883,29.776899999999998,24.5215L30,24L29.776899999999998,23.4785ZM22,28C19.790860000000002,28,18,26.209139999999998,18,24C18,21.79086,19.790860000000002,20,22,20C24.2091,20,26,21.79086,26,24C25.997500000000002,26.208109999999998,24.2081,27.99752,22,28Z" fill="#000000" fill-opacity="1"/></g><g><path d="M25,10L4,10C2.8959099999999998,9.998840000000001,2.00115776,9.10409,2,8L2,4C2.00115776,2.8959099999999998,2.895911,2.00115776,4,2L25,2C26.1041,2.00115848,26.9988,2.895911,27,4L27,8C26.9988,9.10409,26.1041,9.998840000000001,25,10ZM4,4L4,8L25,8L25,4L4,4Z" fill="#000000" fill-opacity="1"/></g><g><path d="M12,28L4,28L4,24L12,24L12,22L4,22C2.895956,22.00126648,2.00126648,22.895954,2,24L2,28C2.00126863,29.10404,2.895956,29.998730000000002,4,30L12,30L12,28Z" fill="#000000" fill-opacity="1"/></g><g><path d="M28,12L7,12C5.895956,12.00126743,5.00126743,12.895956,5,14L5,18C5.00126743,19.10404,5.895956,19.998730000000002,7,20L12,20L12,18L7,18L7,14L28,14L28.0007,16L30,16L30,14C29.9987,12.895956,29.104,12.00126839,28,12Z" fill="#000000" fill-opacity="1"/></g><g></g></g></svg>