<svg xmlns="http://www.w3.org/2000/svg" xmlns:xlink="http://www.w3.org/1999/xlink" fill="none" version="1.1" width="32" height="32" viewBox="0 0 32 32"><defs><clipPath id="master_svg0_134_16479"><rect x="0" y="0" width="32" height="32" rx="0"/></clipPath></defs><g clip-path="url(#master_svg0_134_16479)"><g><path d="M19,23L17,23L17,9L23,9C24.103,9,25,9.897,25,11L25,16C25,17.103,24.103,18,23,18L19,18L19,23ZM19,16L23,16L23,10.9985L19,10.9985L19,16Z" fill="#000000" fill-opacity="1"/></g><g><path d="M7,11L10,11L10,21L7,21L7,23L15,23L15,21L12,21L12,11L15,11L15,9L7,9L7,11Z" fill="#000000" fill-opacity="1"/></g><g></g></g></svg>