<svg xmlns="http://www.w3.org/2000/svg" xmlns:xlink="http://www.w3.org/1999/xlink" fill="none" version="1.1" width="32" height="32" viewBox="0 0 32 32"><defs><clipPath id="master_svg0_134_16533"><rect x="0" y="0" width="32" height="32" rx="0"/></clipPath></defs><g clip-path="url(#master_svg0_134_16533)"><g><path d="M19.99999946899414,5.999999999999842C18.62186946899414,5.9995470051628415,17.258669468994142,6.285385523162842,15.99679946899414,6.839399523162842C19.642409468994142,8.42635952316284,22.000029468994143,12.023949523162841,22.000029468994143,15.999999523162842C22.000029468994143,19.97599952316284,19.642409468994142,23.57359952316284,15.99679946899414,25.16059952316284C21.810939468994142,27.701999523162844,28.49119946899414,24.25489952316284,29.78889946899414,18.043699523162843C31.087399468994143,11.833429523162842,26.34609946899414,5.999999523162842,19.99999946899414,5.999999999999842Z" fill="#000000" fill-opacity="1"/></g><g></g><g><path d="M9.999999999999684,16.000000630187987C9.998546596325683,19.035600630187986,11.379389046325684,21.906800630187988,13.751699046325683,23.800800630187986C17.403649046325683,22.983600630187986,19.999899046325684,19.74230063018799,19.999899046325684,16.000000630187987C19.999899046325684,12.257750630187989,17.403649046325683,9.016358630187987,13.751699046325683,8.199200630187988C11.379379046325683,10.093210630187988,9.998543736325683,12.964350630187989,9.999999999999684,16.000000630187987Z" fill="#000000" fill-opacity="1"/></g><g><path d="M11.99998677597046,24.000040444183348C7.223796775970459,24.01334044418335,3.500146775970459,19.86564044418335,4.026426775970458,15.118540444183349C4.552696775970459,10.37140044418335,9.09439677597046,7.14008044418335,13.751686775970459,8.199200444183349C14.436886775970459,7.648960444183349,15.191786775970458,7.19167044418335,15.99678677597046,6.8391994441833495C9.389666775970458,3.9466604441833497,1.986386775970459,8.78724044418335,1.986386775970459,15.99984044418335C1.986386179924459,23.21234044418335,9.389666775970458,28.05294044418335,15.99678677597046,25.16044044418335C15.191786775970458,24.807940444183348,14.436886775970459,24.350640444183348,13.751686775970459,23.800440444183348C13.176986775970459,23.931440444183348,12.589486775970459,23.99844044418335,11.99998677597046,24.000040444183348Z" fill="#000000" fill-opacity="1"/></g><g></g></g></svg>