<svg xmlns="http://www.w3.org/2000/svg" xmlns:xlink="http://www.w3.org/1999/xlink" fill="none" version="1.1" width="32" height="32" viewBox="0 0 32 32"><defs><clipPath id="master_svg0_134_16585"><rect x="0" y="0" width="32" height="32" rx="0"/></clipPath></defs><g clip-path="url(#master_svg0_134_16585)"><g><path d="M28,26L4,26C2.895431,26,2,25.1046,2,24L2,10C2,8.895431,2.895431,8,4,8L28,8C29.1046,8,30,8.895431,30,10L30,24C30,25.1046,29.1046,26,28,26ZM4,10L4,24L28,24L28,10L4,10Z" fill="#000000" fill-opacity="1"/></g><g><rect x="10" y="20" width="11" height="2" rx="0" fill="#000000" fill-opacity="1"/></g><g><rect x="6" y="12" width="2" height="2" rx="0" fill="#000000" fill-opacity="1"/></g><g><rect x="10" y="12" width="2" height="2" rx="0" fill="#000000" fill-opacity="1"/></g><g><rect x="14" y="12" width="2" height="2" rx="0" fill="#000000" fill-opacity="1"/></g><g><rect x="18" y="12" width="2" height="2" rx="0" fill="#000000" fill-opacity="1"/></g><g><rect x="6" y="20" width="2" height="2" rx="0" fill="#000000" fill-opacity="1"/></g><g><rect x="6" y="16" width="2" height="2" rx="0" fill="#000000" fill-opacity="1"/></g><g><rect x="10" y="16" width="2" height="2" rx="0" fill="#000000" fill-opacity="1"/></g><g><rect x="14" y="16" width="2" height="2" rx="0" fill="#000000" fill-opacity="1"/></g><g><rect x="22" y="12" width="4" height="2" rx="0" fill="#000000" fill-opacity="1"/></g><g><rect x="22" y="16" width="4" height="2" rx="0" fill="#000000" fill-opacity="1"/></g><g><rect x="18" y="16" width="2" height="2" rx="0" fill="#000000" fill-opacity="1"/></g><g><rect x="23" y="20" width="3" height="2" rx="0" fill="#000000" fill-opacity="1"/></g><g></g></g></svg>