<svg xmlns="http://www.w3.org/2000/svg" xmlns:xlink="http://www.w3.org/1999/xlink" fill="none" version="1.1" width="32" height="32" viewBox="0 0 32 32"><defs><clipPath id="master_svg0_134_16634"><rect x="0" y="0" width="32" height="32" rx="0"/></clipPath></defs><g clip-path="url(#master_svg0_134_16634)"><g><path d="M23,13L18,13L18,15L23,15L23,17L19,17C17.895431,17,17,17.89543,17,19L17,21C17,22.104570000000002,17.895431,23,19,23L25,23L25,15C24.998730000000002,13.895955,24.10404,13.00126648,23,13ZM23,21L19,21L19,19L23,19L23,21Z" fill="#000000" fill-opacity="1"/></g><g><path d="M13,9L9,9C7.895887,9.00110149,7.00110149,9.895887,7,11L7,23L9,23L9,18L13,18L13,23L15,23L15,11C14.998899999999999,9.895887,14.10411,9.00110245,13,9ZM9,16L9,11L13,11L13,16L9,16Z" fill="#000000" fill-opacity="1"/></g><g><path d="M28,28L4,28C2.895911,27.9988,2.00115824,27.1041,2,26L2,6C2.00115776,4.89591,2.8959099999999998,4.00115776,4,4L28,4C29.1041,4.00115824,29.9988,4.89591,30,6L30,26C29.9988,27.1041,29.1041,27.9988,28,28ZM4,6L4,26L28,26L28,6L4,6Z" fill="#000000" fill-opacity="1"/></g><g></g></g></svg>