<svg xmlns="http://www.w3.org/2000/svg" xmlns:xlink="http://www.w3.org/1999/xlink" fill="none" version="1.1" width="32" height="32" viewBox="0 0 32 32"><defs><clipPath id="master_svg0_134_16656"><rect x="0" y="0" width="32" height="32" rx="0"/></clipPath></defs><g clip-path="url(#master_svg0_134_16656)"><g><path d="M20.000033348464967,2.000000000024597L12.000033348464965,2.000000000024597C7.469003348464966,1.9928510230245973,3.5012733484649656,5.037717483024597,2.335923348464966,9.416287483024597C1.1705693484649657,13.794887483024597,3.099803348464966,18.409187483024596,7.034903348464966,20.655287483024598C7.0249033484649654,20.770487483024596,7.000003348464966,20.881787483024596,7.000003348464966,20.999987483024597C7.0059933484649655,22.783387483024597,8.193943348464966,24.346587483024596,9.910603348464965,24.829987483024595C9.517073348464965,26.6762874830246,7.887723348464966,27.996987483024597,6.000003348464966,27.999987483024597L4.000003348464966,27.999987483024597L4.000003348464966,29.999987483024597L6.000003348464966,29.999987483024597C8.970433348464965,29.994587483024596,11.490483348464966,27.8180874830246,11.928003348464966,24.879987483024596C13.361133348464966,24.533887483024596,14.487333348464967,23.426987483024597,14.858033348464966,21.999987483024597L20.000033348464967,21.999987483024597C25.522833348464967,21.999987483024597,30.000033348464967,17.522887483024597,30.000033348464967,11.999987483024597C30.000033348464967,6.477147483024597,25.522833348464967,2.000000000024597,20.000033348464967,2.000000000024597ZM11.000003348464967,22.999987483024597C9.895433348464966,22.999987483024597,9.000003348464965,22.1045874830246,9.000003348464965,20.999987483024597C9.000003348464965,19.895387483024596,9.895433348464966,18.999987483024597,11.000003348464967,18.999987483024597C12.104533348464965,18.999987483024597,13.000033348464965,19.895387483024596,13.000033348464965,20.999987483024597C12.998633348464965,22.103987483024596,12.104033348464966,22.998587483024597,11.000003348464967,22.999987483024597ZM20.000033348464967,19.999987483024597L14.857933348464966,19.999987483024597C14.471233348464965,18.483187483024597,13.232133348464966,17.333387483024595,11.690683348464965,17.060887483024597C10.149243348464966,16.788487483024596,8.591093348464966,17.443887483024596,7.707903348464966,18.736287483024597C4.705153348464966,16.830787483024597,3.323233348464966,13.170087483024597,4.317713348464966,9.755667483024597C5.312203348464966,6.341227483024597,8.443693348464965,3.9950774830245974,12.000033348464965,3.9999974830245972L20.000033348464967,3.9999974830245972C24.418233348464966,3.9999974830245972,28.000033348464967,7.5817174830245975,28.000033348464967,11.999987483024597C28.000033348464967,16.4182874830246,24.418233348464966,19.999987483024597,20.000033348464967,19.999987483024597Z" fill="#000000" fill-opacity="1"/></g><g></g></g></svg>