<svg xmlns="http://www.w3.org/2000/svg" xmlns:xlink="http://www.w3.org/1999/xlink" fill="none" version="1.1" width="32" height="32" viewBox="0 0 32 32"><defs><clipPath id="master_svg0_134_16661"><rect x="0" y="0" width="32" height="32" rx="0"/></clipPath></defs><g clip-path="url(#master_svg0_134_16661)"><g><path d="M29.62446812133789,2.2193000482940675C29.31186812133789,1.9692673482940675,28.880268121337892,1.9296937482940675,28.52726812133789,2.1187000482940674L17.93526812133789,7.800000048294067L3.3659981213378907,2.0694000482940673C2.9882681213378905,1.9206987482940674,2.558122121337891,2.0151057482940673,2.2773811213378905,2.3083260482940675C1.9966411613378907,2.6015460482940673,1.9210205213378906,3.0353900482940674,2.0859999213378906,3.4063000482940673L8.52129812133789,17.885260048294068C7.341918121337891,18.808260048294066,6.783218121337891,20.317060048294067,7.0769981213378905,21.785560048294066C7.3707781213378905,23.25406004829407,8.466908121337891,24.431760048294066,9.910598121337891,24.82996004829407C9.517068121337891,26.67626004829407,7.88771812133789,27.997060048294067,5.999998121337891,27.999960048294067L3.9999981213378906,27.999960048294067L3.9999981213378906,29.999960048294067L5.999998121337891,29.999960048294067C8.970428121337891,29.99456004829407,11.49047812133789,27.81806004829407,11.927998121337891,24.879960048294066C13.36046812133789,24.53276004829407,14.48616812133789,23.426360048294068,14.85796812133789,21.999960048294067L23.239968121337892,21.999960048294067C24.13856812133789,22.000060048294067,24.92686812133789,21.400860048294067,25.16726812133789,20.535060048294067L29.96336812133789,3.2676000482940672C30.07046812133789,2.8818320482940676,29.93716812133789,2.4693910482940673,29.62446812133789,2.2193000482940675ZM10.99999812133789,22.999960048294067C9.89542812133789,22.999960048294067,8.99999812133789,22.10456004829407,8.99999812133789,20.999960048294067C8.99999812133789,19.89546004829407,9.89542812133789,18.999960048294067,10.99999812133789,18.999960048294067C12.104568121337891,18.999960048294067,12.99996812133789,19.89546004829407,12.99996812133789,20.999960048294067C12.998668121337891,22.103960048294066,12.103968121337891,22.998660048294067,10.99999812133789,22.999960048294067ZM23.239968121337892,19.999960048294067L14.85786812133789,19.999960048294067C14.378968121337891,17.973960048294067,12.39226812133789,16.682160048294065,10.34619812133789,17.066360048294065L4.904998121337891,4.823800048294068L18.064668121337892,10.000000048294067L27.40996812133789,4.987800048294067L23.239968121337892,19.999960048294067Z" fill="#000000" fill-opacity="1"/></g><g></g></g></svg>