<svg xmlns="http://www.w3.org/2000/svg" xmlns:xlink="http://www.w3.org/1999/xlink" fill="none" version="1.1" width="16" height="16" viewBox="0 0 16 16"><defs><clipPath id="master_svg0_134_08582"><rect x="0" y="0" width="16" height="16" rx="0"/></clipPath></defs><g clip-path="url(#master_svg0_134_08582)"><g><path d="M13,14L3,14C2.4,14,2,13.6,2,13L2,3C2,2.4,2.4,2,3,2L8,2L8,3L3,3L3,13L13,13L13,8L14,8L14,13C14,13.6,13.6,14,13,14Z" fill="#000000" fill-opacity="1"/></g><g><path d="M10,1L10,2L13.3,2L9,6.3L9.7,7L14,2.7L14,6L15,6L15,1L10,1Z" fill="#000000" fill-opacity="1"/></g><g></g></g></svg>