<svg xmlns="http://www.w3.org/2000/svg" xmlns:xlink="http://www.w3.org/1999/xlink" fill="none" version="1.1" width="32" height="32" viewBox="0 0 32 32"><defs><clipPath id="master_svg0_134_16693"><rect x="0" y="0" width="32" height="32" rx="0"/></clipPath></defs><g clip-path="url(#master_svg0_134_16693)"><g><path d="M23,13L19,13L19,9L17,9L17,23L23,23C24.10457,23,25,22.104599999999998,25,21L25,15C25,13.895430000000001,24.10457,13,23,13ZM19,21L19,15L23,15L23,21L19,21Z" fill="#000000" fill-opacity="1"/></g><g><path d="M15,12C15,10.34315,13.65685,9,12,9L7,9L7,23L12,23C13.65685,23,15,21.6569,15,20L15,18C14.99559,17.25994,14.71779,16.54764,14.219999999999999,16C14.71779,15.452359999999999,14.99559,14.74006,15,14L15,12ZM9,11L12,11C12.55229,11,13,11.44771,13,12L13,14C13,14.55229,12.55229,15,12,15L9,15L9,11ZM13,20C13,20.552300000000002,12.55229,21,12,21L9,21L9,17L12,17C12.55229,17,13,17.44772,13,18L13,20Z" fill="#000000" fill-opacity="1"/></g><g></g></g></svg>