<svg xmlns="http://www.w3.org/2000/svg" xmlns:xlink="http://www.w3.org/1999/xlink" fill="none" version="1.1" width="32" height="32" viewBox="0 0 32 32"><defs><clipPath id="master_svg0_134_16810"><rect x="0" y="0" width="32" height="32" rx="0"/></clipPath></defs><g clip-path="url(#master_svg0_134_16810)"><g><path d="M23,23L19,23C17.89543,23,17,22.104570000000002,17,21L17,13L19,13L19,21L23,21L23,13L25,13L25,21C25,22.104570000000002,24.10457,23,23,23Z" fill="#000000" fill-opacity="1"/></g><g><path d="M13,23L9,23C7.895431,23,7,22.104599999999998,7,21L7,9L9,9L9,21L13,21L13,9L15,9L15,21C15,22.104599999999998,14.104569999999999,23,13,23Z" fill="#000000" fill-opacity="1"/></g><g></g></g></svg>