<svg xmlns="http://www.w3.org/2000/svg" xmlns:xlink="http://www.w3.org/1999/xlink" fill="none" version="1.1" width="32" height="32" viewBox="0 0 32 32"><defs><clipPath id="master_svg0_134_16786"><rect x="0" y="0" width="32" height="32" rx="0"/></clipPath></defs><g clip-path="url(#master_svg0_134_16786)"><g><path d="M19,13C17.89543,13,17,13.895431,17,15L17,21C17,22.104570000000002,17.89543,23,19,23L23,23L23,27L25,27L25,13L19,13ZM23,21L19,21L19,15L23,15L23,21Z" fill="#000000" fill-opacity="1"/></g><g><path d="M13,9L9,9C7.895431,9,7,9.895431,7,11L7,21C7,22.104599999999998,7.895431,23,9,23L10,23L10,25C10,26.1046,10.895430000000001,27,12,27L14,27L14,25L12,25L12,23L13,23C14.104569999999999,23,15,22.104599999999998,15,21L15,11C15,9.895431,14.104569999999999,9,13,9ZM9,21L9,11L13,11L13,21L9,21Z" fill="#000000" fill-opacity="1"/></g><g></g></g></svg>