<svg xmlns="http://www.w3.org/2000/svg" xmlns:xlink="http://www.w3.org/1999/xlink" fill="none" version="1.1" width="32" height="32" viewBox="0 0 32 32"><defs><clipPath id="master_svg0_134_16792"><rect x="0" y="0" width="32" height="32" rx="0"/></clipPath></defs><g clip-path="url(#master_svg0_134_16792)"><g><path d="M16,15L16,11C16,9.895431,15.104569999999999,9,14,9L8,9L8,23L10,23L10,17L11.48,17L13.82,23L16,23L13.67,17L14,17C15.104569999999999,17,16,16.10457,16,15ZM10,11L14,11L14,15L10,15L10,11Z" fill="#000000" fill-opacity="1"/></g><g><path d="M24,13L18,13L18,23L20,23L20,15L24,15L24,13Z" fill="#000000" fill-opacity="1"/></g><g></g></g></svg>