<svg xmlns="http://www.w3.org/2000/svg" xmlns:xlink="http://www.w3.org/1999/xlink" fill="none" version="1.1" width="32" height="32" viewBox="0 0 32 32"><defs><clipPath id="master_svg0_134_16822"><rect x="0" y="0" width="32" height="32" rx="0"/></clipPath></defs><g clip-path="url(#master_svg0_134_16822)"><g><path d="M24.3,13L23.39,21.61L22,13L20,13L18.61,21.61L17.7,13L16,13L17.36,23L19.64,23L21,14.629999999999999L22.36,23L24.64,23L26,13L24.3,13Z" fill="#000000" fill-opacity="1"/></g><g><path d="M12.210000228881835,9L11.870000228881835,17L11.610000228881836,21.54L11.200000228881837,18L10.520000228881836,12.54L8.500000228881836,12.54L7.820000228881836,18L7.410000228881836,21.54L7.160000228881836,17L6.810000228881836,9L5.010000228881836,9L6.010000228881836,23L8.280000228881836,23L9.040000228881837,18.07L9.500000228881836,14L9.510000228881836,13.969999999999999L9.520000228881836,14L9.980000228881835,18.07L10.740000228881836,23L13.010000228881836,23L14.010000228881836,9L12.210000228881835,9Z" fill="#000000" fill-opacity="1"/></g><g></g></g></svg>