<svg xmlns="http://www.w3.org/2000/svg" xmlns:xlink="http://www.w3.org/1999/xlink" fill="none" version="1.1" width="32" height="32" viewBox="0 0 32 32"><defs><clipPath id="master_svg0_134_16846"><rect x="0" y="0" width="32" height="32" rx="0"/></clipPath></defs><g clip-path="url(#master_svg0_134_16846)"><g><rect x="10" y="6" width="12" height="2" rx="0" fill="#000000" fill-opacity="1"/></g><g><rect x="10" y="10" width="12" height="2" rx="0" fill="#000000" fill-opacity="1"/></g><g><rect x="10" y="24" width="6" height="2" rx="0" fill="#000000" fill-opacity="1"/></g><g><rect x="10" y="14" width="6" height="2" rx="0" fill="#000000" fill-opacity="1"/></g><g><path d="M24,30L8,30C6.895956,29.9987,6.00126839,29.104,6,28L6,4C6.00126696,2.895956,6.895956,2.00126719,8,2L24,2C25.104,2.00126648,25.9987,2.895955,26,4L26,28C25.9987,29.104,25.104,29.9987,24,30ZM8,4L8,28L24,28L24,4L8,4Z" fill="#000000" fill-opacity="1"/></g><g></g></g></svg>