<svg xmlns="http://www.w3.org/2000/svg" xmlns:xlink="http://www.w3.org/1999/xlink" fill="none" version="1.1" width="32" height="32" viewBox="0 0 32 32"><defs><clipPath id="master_svg0_134_16911"><rect x="0" y="0" width="32" height="32" rx="0"/></clipPath></defs><g clip-path="url(#master_svg0_134_16911)"><g><path d="M28.226142915344237,22.812047514724732C30.59134291534424,18.578647514724732,30.59134291534424,13.421347514724731,28.226142915344237,9.187997514724731L28.41414291534424,8.999997514724733C29.193742915344238,8.218507514724731,29.193742915344238,6.9533875147247315,28.41414291534424,6.171897514724732L25.828442915344237,3.5858975147247314C25.04674291534424,2.806412514724731,23.78164291534424,2.806412514724731,23.00004291534424,3.5858975147247314L22.81234291534424,3.7733975147247314C18.57874291534424,1.4085295147247314,13.421542915344238,1.4085295147247314,9.188002915344239,3.7733975147247314L9.000002915344238,3.5858975147247314C8.218402915344239,2.8061925147247315,6.953192915344238,2.8061925147247315,6.171602915344239,3.5858975147247314L3.5859029153442386,6.171897514724732C2.8062269153442383,6.9533875147247315,2.8062269153442383,8.218507514724731,3.5859029153442386,8.999997514724733L3.7737029153442383,9.187497514724733C1.4088239153442381,13.421347514724731,1.4088239153442381,18.578647514724732,3.7737029153442383,22.81254751472473L3.5859029153442386,23.00004751472473C2.806225915344238,23.781447514724732,2.806225915344238,25.046647514724732,3.5859029153442386,25.82814751472473L6.171602915344239,28.414147514724732C6.953122915344238,29.19394751472473,8.218472915344238,29.19394751472473,9.000002915344238,28.414147514724732L9.188002915344239,28.226147514724733C13.421442915344239,30.59114751472473,18.57864291534424,30.59134751472473,22.81234291534424,28.226647514724732L23.00004291534424,28.414147514724732C23.78154291534424,29.19394751472473,25.04684291534424,29.19394751472473,25.828442915344237,28.414147514724732L28.41414291534424,25.82814751472473C29.193742915344238,25.046647514724732,29.193742915344238,23.781447514724732,28.41414291534424,23.00004751472473L28.226142915344237,22.812047514724732ZM28.00004291534424,16.00004751472473C27.99934291534424,17.85024751472473,27.56994291534424,19.67514751472473,26.74544291534424,21.331547514724733L22.85064291534424,17.43654751472473C23.04984291534424,16.48914751472473,23.04984291534424,15.510847514724732,22.85064291534424,14.563547514724732L26.74544291534424,10.66849751472473C27.56994291534424,12.324847514724732,27.99934291534424,14.149747514724732,28.00004291534424,16.00004751472473ZM27.00004291534424,7.585897514724731L22.06544291534424,12.520547514724731C21.44624291534424,11.445957514724732,20.55444291534424,10.553927514724732,19.48004291534424,9.934597514724732L24.41434291534424,4.999997514724731L27.00004291534424,7.585897514724731ZM16.00004291534424,21.00004751472473C13.238542915344238,21.00004751472473,11.000002915344238,18.761447514724733,11.000002915344238,16.00004751472473C11.000002915344238,13.238547514724731,13.238542915344238,10.99999751472473,16.00004291534424,10.99999751472473C18.761442915344237,10.99999751472473,21.00004291534424,13.238547514724731,21.00004291534424,16.00004751472473C20.99684291534424,18.760147514724732,18.76014291534424,20.99684751472473,16.00004291534424,21.00004751472473ZM21.31544291534424,5.270497514724731L17.43654291534424,9.149397514724733C16.48914291534424,8.950197514724731,15.510842915344238,8.950197514724731,14.563542915344238,9.149397514724733L10.684602915344238,5.270497514724731C14.043542915344238,3.6525475147247315,17.95644291534424,3.6525475147247315,21.31544291534424,5.270497514724731ZM7.5859029153442386,4.999997514724731L12.520542915344238,9.934597514724732C11.445932915344239,10.55391751472473,10.553912915344238,11.445937514724731,9.93460291534424,12.520547514724731L5.000002915344238,7.585897514724731L7.5859029153442386,4.999997514724731ZM4.000002915344238,16.00004751472473C4.000642915344239,14.149847514724732,4.430082915344238,12.325147514724732,5.254602915344238,10.668897514724732L9.149402915344238,14.563547514724732C8.950202915344239,15.510847514724732,8.950202915344239,16.48914751472473,9.149402915344238,17.43654751472473L5.254602915344238,21.33114751472473C4.430082915344238,19.674847514724732,4.000642915344239,17.850147514724732,4.000002915344238,16.00004751472473ZM7.585702915344238,27.00004751472473L5.000002915344238,24.414147514724732L9.93460291534424,19.48004751472473C10.553852915344239,20.55464751472473,11.445892915344238,21.44664751472473,12.520542915344238,22.06594751472473L7.585702915344238,27.00004751472473ZM10.684602915344238,26.73004751472473L14.563542915344238,22.851147514724733C15.510842915344238,23.05024751472473,16.48914291534424,23.05024751472473,17.43654291534424,22.851147514724733L21.31544291534424,26.73004751472473C17.95644291534424,28.34794751472473,14.043542915344238,28.34794751472473,10.684602915344238,26.73004751472473ZM24.41464291534424,27.00004751472473L19.48004291534424,22.06544751472473C20.55434291534424,21.446147514724732,21.44614291534424,20.554347514724732,22.06544291534424,19.48004751472473L27.00004291534424,24.414147514724732L24.41464291534424,27.00004751472473Z" fill="#000000" fill-opacity="1"/></g><g></g></g></svg>