<svg xmlns="http://www.w3.org/2000/svg" xmlns:xlink="http://www.w3.org/1999/xlink" fill="none" version="1.1" width="16" height="16" viewBox="0 0 16 16"><defs><clipPath id="master_svg0_134_08588"><rect x="0" y="0" width="16" height="16" rx="0"/></clipPath></defs><g clip-path="url(#master_svg0_134_08588)"><g><rect x="7.5" y="1" width="1" height="2.5" rx="0" fill="#000000" fill-opacity="1"/></g><g transform="matrix(0.707099974155426,-0.707099974155426,0.707099974155426,0.707099974155426,0.028190653022193146,8.929884429340404)"><rect x="10.79341983795166" y="4.431059837341309" width="2.5" height="1" rx="0" fill="#000000" fill-opacity="1"/></g><g><rect x="12.5" y="7.5" width="2.5" height="1" rx="0" fill="#000000" fill-opacity="1"/></g><g transform="matrix(0.707099974155426,-0.707099974155426,0.707099974155426,0.707099974155426,-4.9498842021062615,11.048599893743301)"><rect x="10.86181640625" y="11.499520301818848" width="1" height="2.5" rx="0" fill="#000000" fill-opacity="1"/></g><g><rect x="7.5" y="12.5" width="1" height="2.5" rx="0" fill="#000000" fill-opacity="1"/></g><g transform="matrix(0.707099974155426,-0.707099974155426,0.707099974155426,0.707099974155426,-8.131276382154525,5.630157839266431)"><rect x="2.7304298877716064" y="12.63049030303955" width="2.5" height="1" rx="0" fill="#000000" fill-opacity="1"/></g><g><rect x="1" y="7.5" width="2.5" height="1" rx="0" fill="#000000" fill-opacity="1"/></g><g transform="matrix(0.707099974155426,-0.707099974155426,0.707099974155426,0.707099974155426,-1.6531372409255454,2.890138579962624)"><rect x="2.6621100902557373" y="3.4406299591064453" width="1" height="2.5" rx="0" fill="#000000" fill-opacity="1"/></g><g><path d="M8,6C9.1,6,10,6.9,10,8C10,9.1,9.1,10,8,10C6.9,10,6,9.1,6,8C6,6.9,6.9,6,8,6ZM8,5C6.3,5,5,6.3,5,8C5,9.7,6.3,11,8,11C9.7,11,11,9.7,11,8C11,6.3,9.7,5,8,5Z" fill="#000000" fill-opacity="1"/></g><g></g></g></svg>