<svg xmlns="http://www.w3.org/2000/svg" xmlns:xlink="http://www.w3.org/1999/xlink" fill="none" version="1.1" width="32" height="32" viewBox="0 0 32 32"><defs><clipPath id="master_svg0_134_16953"><rect x="0" y="0" width="32" height="32" rx="0"/></clipPath></defs><g clip-path="url(#master_svg0_134_16953)"><g><path d="M29.894509043312073,23.542L28.170709043312073,20.0947C27.832109043312073,19.4173,27.139709043312074,18.9893,26.382109043312074,18.9893L25.913809043312074,18.9893C25.567909043312074,17.366,24.953009043312072,15.812,24.094509043312073,14.3916C23.064709043312074,12.4429,22.000009043312073,10.4277,22.000009043312073,8C22.000009043312073,4.68629,19.313709043312073,2,16.000009043312073,2C12.686309043312074,2,9.999999043312073,4.68629,9.999999043312073,8C9.858119043312072,10.21253,9.152929043312072,12.352,7.9513990433120725,14.2153C7.052769043312073,15.6853,6.4195390433120725,17.3019,6.0805990433120725,18.9912L5.618399043312072,18.9912C4.860649043312073,18.9913,4.167959043312073,19.4194,3.829099043312073,20.0972L2.1055000433120727,23.5439C1.9353755433120727,23.8841,1.9730110433120727,24.2914,2.202600043312073,24.5947L6.2318990433120725,29.92C7.178519043312073,31.0563,8.812059043312072,31.333,10.080099043312073,30.5719L11.953599043312073,29.4478C13.267609043312072,29.8312,14.631309043312072,30.0173,16.000009043312073,30C17.36950904331207,30.0177,18.734109043312074,29.8314,20.048809043312072,29.4473L21.920009043312074,30.57C22.384209043312072,30.8506,22.916109043312073,30.9993,23.458509043312073,31C24.366109043312072,30.9951,25.224009043312073,30.5848,25.797409043312072,29.8813L29.797409043312072,24.5928C30.026809043312074,24.2894,30.06440904331207,23.8823,29.894509043312073,23.542ZM22.326209043312073,15.3262C23.00820904331207,16.471600000000002,23.53260904331207,17.703699999999998,23.885309043312073,18.9893L21.738009043312072,18.9893C21.48670904331207,18.0813,21.15890904331207,17.1963,20.75800904331207,16.3438C20.382209043312074,15.5608,20.087709043312074,14.7414,19.879109043312074,13.8984C20.260009043312074,13.4569,20.596109043312072,12.9787,20.882509043312073,12.4707L20.920909043312072,12.3989C21.33740904331207,13.3987,21.806509043312072,14.3759,22.326209043312073,15.3262ZM12.000009043312073,21C12.077109043312072,19.654,12.443009043312072,18.3404,13.072809043312073,17.148400000000002C13.329109043312073,16.5659,13.588609043312072,15.9727,13.798809043312072,15.3491C15.137909043312073,16.217,16.86200904331207,16.217,18.201209043312073,15.3491C18.411209043312073,15.9727,18.67120904331207,16.5659,18.92720904331207,17.148400000000002C19.55700904331207,18.3404,19.92290904331207,19.654,20.000009043312073,21C20.000009043312073,22.2881,19.585409043312072,24,16.000009043312073,24C12.414609043312073,24,12.000009043312073,22.2881,12.000009043312073,21ZM18.510509043312073,12.4248C17.936209043312072,13.2835,17.023009043312072,13.8565,16.000009043312073,14C14.976909043312073,13.8563,14.063609043312074,13.2831,13.489309043312073,12.4243C15.115209043312072,11.85824,16.884609043312075,11.85824,18.510509043312073,12.4248L18.510509043312073,12.4248ZM12.000009043312073,8C12.000009043312073,5.79086,13.790909043312073,4,16.000009043312073,4C18.209109043312072,4,20.000009043312073,5.79086,20.000009043312073,8C20.004309043312073,9.055530000000001,20.161709043312072,10.10485,20.467309043312074,11.1152C20.00050904331207,10.85657,19.508909043312073,10.64542,19.000009043312073,10.4849L19.000009043312073,8L17.000009043312073,8L17.000009043312073,10.0542C16.335309043312073,9.98193,15.664709043312072,9.98193,15.000009043312073,10.0542L15.000009043312073,8L13.000009043312073,8L13.000009043312073,10.4849C12.486709043312073,10.64641,11.991349043312074,10.85992,11.521499043312073,11.1221C11.834439043312074,10.11077,11.995689043312073,9.05863,12.000009043312073,8ZM9.714599043312074,15.1592C10.213949043312073,14.2569,10.666129043312072,13.3292,11.069299043312073,12.38L11.117699043312072,12.47C11.404059043312072,12.978,11.740179043312073,13.4562,12.121109043312073,13.8977C11.912459043312072,14.7407,11.617949043312073,15.5601,11.242199043312073,16.3431C10.840869043312074,17.196199999999997,10.512689043312072,18.0819,10.261199043312073,18.9905L8.104699043312074,18.9905C8.448539043312072,17.640700000000002,8.991099043312072,16.3495,9.714599043312074,15.1592ZM11.085399043312073,27.6367L9.050799043312072,28.8574C8.644499043312074,29.1084,8.116779043312071,29.0323,7.797899043312073,28.6768L4.172399043312073,23.8833L5.618199043312073,20.9912L9.324199043312074,20.9912L11.489999043312073,26.3853C11.685319043312072,26.845,11.512879043312072,27.3784,11.085399043312073,27.6367ZM13.401409043312073,27.7544C13.642909043312073,27.0681,13.622809043312072,26.3169,13.345209043312073,25.6444C14.207509043312072,25.8943,15.102309043312072,26.0141,16.000009043312073,26C16.89820904331207,26.0141,17.79350904331207,25.894,18.656209043312074,25.6436C18.382009043312074,26.3169,18.362609043312073,27.067,18.601609043312074,27.7536C16.883809043312073,28.0814,15.119409043312073,28.0814,13.401409043312073,27.7544L13.401409043312073,27.7544ZM24.231409043312073,28.6377C23.916909043312074,29.0181,23.371209043312074,29.1108,22.94870904331207,28.8555L20.914509043312073,27.6348C20.481409043312073,27.3702,20.311909043312074,26.8254,20.518509043312072,26.3618L22.675509043312072,20.9893L26.381309043312072,20.9893L27.827409043312073,23.8813L24.231409043312073,28.6377Z" fill="#000000" fill-opacity="1"/></g><g></g></g></svg>