<svg xmlns="http://www.w3.org/2000/svg" xmlns:xlink="http://www.w3.org/1999/xlink" fill="none" version="1.1" width="32" height="32" viewBox="0 0 32 32"><defs><clipPath id="master_svg0_134_17017"><rect x="0" y="0" width="32" height="32" rx="0"/></clipPath></defs><g clip-path="url(#master_svg0_134_17017)"><g><rect x="16" y="22" width="14" height="2" rx="0" fill="#000000" fill-opacity="1"/></g><g><rect x="16" y="8" width="14" height="2" rx="0" fill="#000000" fill-opacity="1"/></g><g><path d="M8,12L8,4L6,4L6,5L4,5L4,7L6,7L6,12L4,12L4,14L6,14L8,14L10,14L10,12L8,12Z" fill="#000000" fill-opacity="1"/></g><g><path d="M10,28L4,28L4,24C4,22.89543,4.895431,22,6,22L8,22L8,20L4,20L4,18L8,18C9.104569999999999,18,10,18.89543,10,20L10,22C10,23.10457,9.104569999999999,24,8,24L6,24L6,26L10,26L10,28Z" fill="#000000" fill-opacity="1"/></g><g></g></g></svg>