<svg xmlns="http://www.w3.org/2000/svg" xmlns:xlink="http://www.w3.org/1999/xlink" fill="none" version="1.1" width="32" height="32" viewBox="0 0 32 32"><defs><clipPath id="master_svg0_134_16974"><rect x="0" y="0" width="32" height="32" rx="0"/></clipPath></defs><g clip-path="url(#master_svg0_134_16974)"><g><rect x="16" y="8" width="14" height="2" rx="0" fill="#000000" fill-opacity="1"/></g><g><rect x="16" y="22" width="14" height="2" rx="0" fill="#000000" fill-opacity="1"/></g><g><path d="M10,14L4,14C2.895956,13.99873,2.00126696,13.10404,2,12L2,6C2.00126719,4.895956,2.895956,4.00126743,4,4L10,4C11.10404,4.00126743,11.99873,4.895956,12,6L12,12C11.99873,13.10404,11.10404,13.99873,10,14ZM4,6L4,12L10.0012,12L10,6L4,6Z" fill="#000000" fill-opacity="1"/></g><g><path d="M10,28L4,28C2.895956,27.998730000000002,2.00126743,27.104039999999998,2,26L2,20C2.00126863,18.895955999999998,2.895956,18.00126839,4,18L10,18C11.10404,18.00126839,11.99873,18.895955999999998,12,20L12,26C11.99873,27.104039999999998,11.10404,27.998730000000002,10,28ZM4,20L4,26L10.0012,26L10,20L4,20Z" fill="#000000" fill-opacity="1"/></g><g></g></g></svg>