<svg xmlns="http://www.w3.org/2000/svg" xmlns:xlink="http://www.w3.org/1999/xlink" fill="none" version="1.1" width="32" height="32" viewBox="0 0 32 32"><defs><clipPath id="master_svg0_134_17099"><rect x="0" y="0" width="32" height="32" rx="0"/></clipPath></defs><g clip-path="url(#master_svg0_134_17099)"><g><path d="M8,30L2,30L2,24L8,24L8,30ZM4,28L6,28L6,26L4,26L4,28Z" fill="#000000" fill-opacity="1"/></g><g><path d="M19,30L13,30L13,24L19,24L19,30ZM15,28L17,28L17,26L15,26L15,28Z" fill="#000000" fill-opacity="1"/></g><g><path d="M30,30L24,30L24,24L30,24L30,30ZM26,28L28,28L28,26L26,26L26,28Z" fill="#000000" fill-opacity="1"/></g><g><path d="M16,10C13.79086,10,12,8.20914,12,6C12,3.79086,13.79086,2,16,2C18.209139999999998,2,20,3.79086,20,6C19.99752,8.20811,18.208109999999998,9.99752,16,10ZM16,4C14.895430000000001,4,14,4.89543,14,6C14,7.10457,14.895430000000001,8,16,8C17.10457,8,18,7.10457,18,6C17.99884,4.895910000000001,17.10409,4.0011600000000005,16,4Z" fill="#000000" fill-opacity="1"/></g><g><path d="M26,16L21,16C18.7919,15.99752,17.002499999999998,14.20811,17,12L15,12C14.9975,14.20811,13.20811,15.99752,11,16L6,16C4.895955,16.001269999999998,4.00126648,16.89596,4,18L4,22L6,22L6,18L11,18C12.47801,17.99956,13.9033,17.45082,15,16.46L15,22L17,22L17,16.46C18.0967,17.45082,19.522,17.99956,21,18L26,18L26,22L28,22L28,18C27.9987,16.89596,27.104,16.001269999999998,26,16Z" fill="#000000" fill-opacity="1"/></g><g></g></g></svg>