<svg xmlns="http://www.w3.org/2000/svg" xmlns:xlink="http://www.w3.org/1999/xlink" fill="none" version="1.1" width="32" height="32" viewBox="0 0 32 32"><defs><clipPath id="master_svg0_134_17042"><rect x="0" y="0" width="32" height="32" rx="0"/></clipPath></defs><g clip-path="url(#master_svg0_134_17042)"><g><rect x="4" y="26" width="4" height="4" rx="0" fill="#000000" fill-opacity="1"/></g><g><rect x="14" y="26" width="4" height="4" rx="0" fill="#000000" fill-opacity="1"/></g><g><rect x="24" y="26" width="4" height="4" rx="0" fill="#000000" fill-opacity="1"/></g><g><path d="M25,16L17,16L17,12L15,12L15,16L7,16C5.895955,16.001269999999998,5.00126648,16.89596,5,18L5,24L7,24L7,18L15,18L15,24L17,24L17,18L25,18L25,24L27,24L27,18C26.9987,16.89596,26.104,16.001269999999998,25,16Z" fill="#000000" fill-opacity="1"/></g><g><path d="M20,10L20,2L12,2L12,10L20,10ZM14,8L14,4L18,4L18,8L14,8Z" fill="#000000" fill-opacity="1"/></g><g></g></g></svg>