<svg xmlns="http://www.w3.org/2000/svg" xmlns:xlink="http://www.w3.org/1999/xlink" fill="none" version="1.1" width="32" height="32" viewBox="0 0 32 32"><defs><clipPath id="master_svg0_134_17081"><rect x="0" y="0" width="32" height="32" rx="0"/></clipPath></defs><g clip-path="url(#master_svg0_134_17081)"><g><path d="M25,16L17,16L17,12L15,12L15,16L7,16C5.895955,16.001269999999998,5.00126648,16.89596,5,18L5,22L7,22L7,18L15,18L15,22L17,22L17,18L25,18L25,22L27,22L27,18C26.9987,16.89596,26.104,16.001269999999998,25,16Z" fill="#000000" fill-opacity="1"/></g><g><path d="M20,10L20,2L12,2L12,10L20,10ZM14,8L14,4L18,4L18,8L14,8Z" fill="#000000" fill-opacity="1"/></g><g><path d="M25.999973216247557,23.999999999213866C24.732873216247558,24.003829959213867,23.605173216247557,24.80477331921387,23.184273216247558,25.999995319213866L18.81567321624756,25.999995319213866C18.39807321624756,24.802313319213866,17.26837321624756,23.999914169213866,15.99997321624756,23.999914169213866C14.73157321624756,23.999914169213866,13.601973216247558,24.802313319213866,13.184273216247558,25.999995319213866L8.81570321624756,25.999995319213866C8.14350321624756,24.09874531921387,5.824453216247559,23.388889319213867,4.203213216247558,24.588129319213866C2.5819612162475587,25.78736531921387,2.5819612162475587,28.212625319213867,4.203203216247559,29.411865319213867C5.824453216247559,30.611105319213866,8.14350321624756,29.901255319213867,8.81570321624756,27.999995319213866L13.184273216247558,27.999995319213866C13.601973216247558,29.197685319213868,14.73157321624756,30.000085319213866,15.99997321624756,30.000085319213866C17.26837321624756,30.000085319213866,18.39807321624756,29.197685319213868,18.81567321624756,27.999995319213866L23.184273216247558,27.999995319213866C23.69547321624756,29.434295319213867,25.20147321624756,30.256705319213868,26.684473216247557,29.911345319213865C28.167473216247558,29.565975319213866,29.155173216247558,28.162785319213867,28.980073216247558,26.650235319213866C28.804873216247557,25.137685319213865,27.522673216247558,23.997344969213867,25.999973216247557,23.999999999213866ZM6.000003216247558,27.999995319213866C5.447713216247559,27.999995319213866,5.000003216247558,27.552285319213865,5.000003216247558,26.999995319213866C5.000003216247558,26.447715319213867,5.447713216247559,25.999995319213866,6.000003216247558,25.999995319213866C6.552283216247559,25.999995319213866,7.000003216247559,26.447715319213867,7.000003216247559,26.999995319213866C6.999503216247558,27.552075319213866,6.552083216247558,27.999505319213867,6.000003216247558,27.999995319213866ZM15.99997321624756,27.999995319213866C15.447673216247559,27.999995319213866,14.99997321624756,27.552285319213865,14.99997321624756,26.999995319213866C14.99997321624756,26.447715319213867,15.447673216247559,25.999995319213866,15.99997321624756,25.999995319213866C16.552273216247556,25.999995319213866,16.99997321624756,26.447715319213867,16.99997321624756,26.999995319213866C16.99947321624756,27.552075319213866,16.552073216247557,27.999505319213867,15.99997321624756,27.999995319213866ZM25.999973216247557,27.999995319213866C25.44767321624756,27.999995319213866,24.999973216247557,27.552285319213865,24.999973216247557,26.999995319213866C24.999973216247557,26.447715319213867,25.44767321624756,25.999995319213866,25.999973216247557,25.999995319213866C26.55227321624756,25.999995319213866,26.999973216247557,26.447715319213867,26.999973216247557,26.999995319213866C26.99947321624756,27.552075319213866,26.55207321624756,27.999505319213867,25.999973216247557,27.999995319213866Z" fill="#000000" fill-opacity="1"/></g><g></g></g></svg>