<svg xmlns="http://www.w3.org/2000/svg" xmlns:xlink="http://www.w3.org/1999/xlink" fill="none" version="1.1" width="32" height="32" viewBox="0 0 32 32"><defs><clipPath id="master_svg0_134_17171"><rect x="0" y="0" width="32" height="32" rx="0"/></clipPath></defs><g clip-path="url(#master_svg0_134_17171)"><g></g><g><ellipse cx="16" cy="11" rx="1" ry="1" fill="#000000" fill-opacity="1"/></g><g><path d="M15.999988555908203,2C9.927928555908203,2.00738335,5.007383825908203,6.92793,5.000000000008203,13C4.996555805908203,15.3833,5.775139555908203,17.7018,7.216298555908203,19.6Q7.516298555908203,19.9945,7.564498555908203,20.0517L15.999988555908203,30L24.438988555908203,20.0474Q24.483388555908203,19.9941,24.783688555908203,19.5996L24.785188555908203,19.5972C26.225488555908203,17.6997,27.003588555908202,15.3822,26.999988555908203,13C26.992588555908203,6.92793,22.072088555908202,2.00738311,15.999988555908203,2ZM15.999988555908203,8C17.656888555908203,8,18.999988555908203,9.34315,18.999988555908203,11C18.999988555908203,12.6569,17.656888555908203,14,15.999988555908203,14C14.343148555908202,14,12.999998555908203,12.6569,12.999998555908203,11C13.001818555908203,9.3439,14.343898555908202,8.00182,15.999988555908203,8ZM19.999988555908203,19L17.999988555908203,19L17.999988555908203,17L13.999998555908203,17L13.999998555908203,19L11.999998555908203,19L11.999998555908203,17C12.001268555908204,15.896,12.895958555908203,15.0013,13.999998555908203,15L17.999988555908203,15C19.104088555908206,15.0013,19.998688555908203,15.896,19.999988555908203,17L19.999988555908203,19Z" fill="#000000" fill-opacity="1"/></g><g></g></g></svg>