<svg xmlns="http://www.w3.org/2000/svg" xmlns:xlink="http://www.w3.org/1999/xlink" fill="none" version="1.1" width="32" height="32" viewBox="0 0 32 32"><defs><clipPath id="master_svg0_134_17108"><rect x="0" y="0" width="32" height="32" rx="0"/></clipPath></defs><g clip-path="url(#master_svg0_134_17108)"><g><path d="M16,18C13.238579999999999,18,11,15.761420000000001,11,13C11,10.238579999999999,13.238579999999999,8,16,8C18.76142,8,21,10.238579999999999,21,13C20.996859999999998,15.76012,18.76012,17.996859999999998,16,18ZM16,10C14.34315,10,13,11.34315,13,13C13,14.65685,14.34315,16,16,16C17.65685,16,19,14.65685,19,13C18.998179999999998,11.3439,17.656100000000002,10.00182,16,10Z" fill="#000000" fill-opacity="1"/></g><g><path d="M15.999989032745361,30L7.564499032745362,20.0513Q7.516599032745361,19.9942,7.216299032745361,19.5998C5.775202032745361,17.701700000000002,4.996622562745362,15.3832,5.000000000045361,13C5.000000000045361,6.92487,9.924869032745361,2,15.999989032745361,2C22.07508903274536,2,26.99998903274536,6.92487,26.99998903274536,13C27.00358903274536,15.3822,26.22548903274536,17.6998,24.78518903274536,19.5973L24.78368903274536,19.5998Q24.48368903274536,19.9942,24.43898903274536,20.0472L15.999989032745361,30ZM8.812499032745361,18.395C8.813499032745362,18.3957,9.04589903274536,18.7032,9.099099032745361,18.7694L15.999989032745361,26.9079L22.90998903274536,18.7579C22.953889032745362,18.7027,23.188289032745363,18.393,23.188789032745362,18.3922C24.36608903274536,16.8413,25.002289032745363,14.9471,24.99998903274536,13C24.99998903274536,8.029440000000001,20.97058903274536,4,15.999989032745361,4C11.029439032745362,4,6.999999032745361,8.029440000000001,6.999999032745361,13C6.997789032745361,14.9482,7.634479032745361,16.8433,8.812499032745361,18.395Z" fill="#000000" fill-opacity="1"/></g><g transform="matrix(0,-1,1,0,-32,32)"></g></g></svg>