<svg xmlns="http://www.w3.org/2000/svg" xmlns:xlink="http://www.w3.org/1999/xlink" fill="none" version="1.1" width="32" height="32" viewBox="0 0 32 32"><defs><clipPath id="master_svg0_134_17357"><rect x="0" y="0" width="32" height="32" rx="0"/></clipPath></defs><g clip-path="url(#master_svg0_134_17357)"><g><path d="M16.00000224685669,2C9.306102246856689,2.0455856,3.5810622468566895,6.82345,2.3385982468566895,13.4012C1.0961392468566893,19.9789,4.68394224685669,26.5159,10.900002246856689,29C10.697432246856689,27.6744,10.697432246856689,26.3256,10.900002246856689,25L12.550002246856689,18C12.28890224685669,17.366,12.15960224685669,16.6856,12.17000224685669,16C12.17000224685669,14.06,13.300002246856689,12.6,14.70000224685669,12.6C15.77810224685669,12.5838,16.61710224685669,13.5319,16.470002246856687,14.6C16.470002246856687,15.8,15.71000224685669,17.6,15.310002246856689,19.26C14.93830224685669,20.5965,16.00690224685669,21.8962,17.39000224685669,21.79C19.87000224685669,21.79,21.79000224685669,19.16,21.79000224685669,15.38C21.89550224685669,12.1294,19.18670224685669,9.49009,15.94000224685669,9.68C12.48420224685669,9.531559999999999,9.605392246856688,12.3011,9.62000224685669,15.76C9.60888224685669,16.9021,9.95886224685669,18.0186,10.62000224685669,18.95C10.71760224685669,19.0585,10.75506224685669,19.2083,10.720002246856689,19.35C10.61000224685669,19.79,10.37000224685669,20.75,10.33000224685669,20.94C10.29000224685669,21.13,10.12000224685669,21.25,9.86000224685669,21.13C8.11000224685669,20.31,7.02000224685669,17.759999999999998,7.02000224685669,15.7C7.02000224685669,11.29,10.230002246856689,7.23,16.27000224685669,7.23C21.12000224685669,7.23,24.90000224685669,10.69,24.90000224685669,15.32C24.90000224685669,20.14,21.90000224685669,24.02,17.63000224685669,24.02C16.358202246856692,24.0643,15.15030224685669,23.4622,14.42000224685669,22.42L13.550002246856689,25.75C13.13290224685669,27.0441,12.54800224685669,28.278,11.810002246856689,29.42C13.169802246856689,29.8219,14.58220224685669,30.0174,16.00000224685669,30C23.73200224685669,30,30.00000224685669,23.732,30.00000224685669,16C30.00000224685669,8.26801,23.73200224685669,2,16.00000224685669,2Z" fill="#000000" fill-opacity="1"/></g><g></g></g></svg>