<svg xmlns="http://www.w3.org/2000/svg" xmlns:xlink="http://www.w3.org/1999/xlink" fill="none" version="1.1" width="32" height="32" viewBox="0 0 32 32"><defs><clipPath id="master_svg0_134_17324"><rect x="0" y="0" width="32" height="32" rx="0"/></clipPath></defs><g clip-path="url(#master_svg0_134_17324)"><g><path d="M26.2,4L5.8,4C4.8,4,4,4.8,4,5.7L4,26.2C4,27.1,4.8,27.9,5.8,27.9L26.2,27.9C27.2,27.9,28,27.1,28,26.2L28,5.7C28,4.8,27.2,4,26.2,4ZM11.1,24.4L7.6,24.4L7.6,13L11.1,13L11.1,24.4ZM9.4,11.4C8.3,11.4,7.3,10.5,7.3,9.3C7.3,8.1,8.2,7.2,9.4,7.2C10.5,7.2,11.5,8.1,11.5,9.3C11.5,10.5,10.5,11.4,9.4,11.4ZM24.5,24.3L21,24.3L21,18.7C21,17.4,21,15.6,19.1,15.6C17.2,15.6,17,17.1,17,18.5L17,24.2L13.5,24.2L13.5,13L16.8,13L16.8,14.5L16.9,14.5C17.4,13.6,18.6,12.6,20.3,12.6C23.9,12.6,24.6,15,24.6,18.1L24.6,24.3L24.5,24.3Z" fill="#000000" fill-opacity="1"/></g><g></g></g></svg>