<svg xmlns="http://www.w3.org/2000/svg" xmlns:xlink="http://www.w3.org/1999/xlink" fill="none" version="1.1" width="32" height="32" viewBox="0 0 32 32"><defs><clipPath id="master_svg0_134_17420"><rect x="0" y="0" width="32" height="32" rx="0"/></clipPath></defs><g clip-path="url(#master_svg0_134_17420)"><g><path d="M26.100048610687256,5.700001831893921C23.500048610687255,1.9999999998939209,18.400048610687257,0.9000018318939209,14.700048610687256,3.200001831893921L8.199998610687256,7.4000018318939205C6.3999986106872555,8.500001831893922,5.1999996106872555,10.30000183189392,4.799999610687256,12.400021831893921C4.499999610687256,14.10002183189392,4.799999610687256,15.900021831893921,5.599998610687256,17.50002183189392C4.999999610687256,18.300021831893922,4.6999996106872555,19.300021831893922,4.499999610687256,20.300021831893922C4.099999610687256,22.40002183189392,4.599999610687256,24.600021831893923,5.8999986106872555,26.300021831893922C8.499998610687257,30.00002183189392,13.599998610687257,31.100021831893923,17.300048610687256,28.800021831893922L23.800048610687256,24.600021831893923C25.599948610687257,23.50002183189392,26.800048610687256,21.70002183189392,27.199948610687255,19.600021831893923C27.499948610687255,17.900021831893923,27.199948610687255,16.10002183189392,26.400048610687257,14.500021831893921C27.000048610687255,13.70002183189392,27.300048610687256,12.70002183189392,27.500048610687255,11.700001831893921C27.900048610687257,9.60000183189392,27.400048610687257,7.4000018318939205,26.100048610687256,5.700001831893921ZM24.300048610687256,11.00000183189392C24.300048610687256,11.200001831893921,24.199948610687255,11.40000183189392,24.099948610687257,11.600001831893922L24.000048610687255,12.00000183189392L23.700048610687254,11.80000183189392C22.900048610687257,11.200001831893921,22.100048610687256,10.80000183189392,21.100048610687256,10.50000183189392L20.900048610687257,10.40000183189392L20.900048610687257,10.200001831893921C20.900048610687257,9.90000183189392,20.800048610687256,9.500001831893922,20.600048610687256,9.200001831893921C20.200048610687254,8.700001831893921,19.600048610687256,8.40000183189392,18.900048610687257,8.60000183189392C18.800048610687256,8.60000183189392,18.600048610687256,8.700001831893921,18.500048610687255,8.80000183189392L11.999998610687257,12.900021831893921C11.699998610687256,13.10002183189392,11.499998610687257,13.400021831893921,11.399998610687256,13.80002183189392C11.299998610687256,14.20002183189392,11.399998610687256,14.60002183189392,11.599998610687255,14.900021831893921C11.999998610687257,15.400021831893921,12.599998610687257,15.70002183189392,13.299998610687256,15.500021831893921C13.399998610687256,15.500021831893921,13.599998610687257,15.400021831893921,13.699998610687256,15.30002183189392L16.199948610687258,13.70002183189392C16.599948610687257,13.400021831893921,17.099948610687257,13.20002183189392,17.499948610687255,13.10002183189392C19.599948610687257,12.60002183189392,21.800048610687256,13.400021831893921,23.099948610687257,15.20002183189392C23.800048610687256,16.20002183189392,24.099948610687257,17.60002183189392,23.899948610687257,18.800021831893922C23.699948610687255,20.00002183189392,22.899948610687257,21.100021831893923,21.899948610687257,21.800021831893922L15.399948610687256,26.00002183189392C14.999948610687255,26.300021831893922,14.499948610687255,26.50002183189392,14.099998610687257,26.600021831893923C11.999998610687257,27.100021831893923,9.799998610687256,26.300021831893922,8.499998610687257,24.50002183189392C7.799998610687256,23.50002183189392,7.499998610687256,22.100021831893923,7.699998610687256,20.90002183189392C7.699998610687256,20.70002183189392,7.799998610687256,20.50002183189392,7.8999986106872555,20.300021831893922L7.999998610687256,20.00002183189392L8.299998610687256,20.20002183189392C9.099998610687255,20.800021831893922,9.899998610687256,21.20002183189392,10.899998610687256,21.50002183189392L11.099998610687255,21.600021831893923L11.099998610687255,21.800021831893922C11.099998610687255,22.100021831893923,11.199998610687256,22.50002183189392,11.399998610687256,22.800021831893922C11.799998610687256,23.300021831893922,12.399998610687256,23.600021831893923,13.099998610687257,23.40002183189392C13.199998610687256,23.40002183189392,13.399998610687256,23.300021831893922,13.499998610687255,23.20002183189392L20.000048610687255,19.00002183189392C20.300048610687256,18.800021831893922,20.500048610687255,18.50002183189392,20.600048610687256,18.100021831893923C20.700048610687254,17.70002183189392,20.600048610687256,17.300021831893922,20.400048610687257,17.00002183189392C20.000048610687255,16.50002183189392,19.400048610687257,16.20002183189392,18.699948610687258,16.400021831893923C18.599948610687257,16.400021831893923,18.400048610687257,16.50002183189392,18.300048610687256,16.60002183189392L15.800048610687256,18.20002183189392C15.400048610687255,18.50002183189392,14.900048610687255,18.70002183189392,14.500048610687255,18.800021831893922C12.399998610687256,19.300021831893922,10.199998610687256,18.50002183189392,8.899998610687256,16.70002183189392C8.099998610687255,15.70002183189392,7.8999986106872555,14.30002183189392,8.099998610687255,13.10002183189392C8.299998610687256,11.90000183189392,9.099998610687255,10.80000183189392,10.099998610687255,10.100001831893922L16.599948610687257,5.9000018318939205C16.999948610687255,5.6000018318939215,17.499948610687255,5.4000018318939205,17.899948610687254,5.300001831893921C19.999948610687255,4.800001831893921,22.199948610687255,5.6000018318939215,23.499948610687255,7.4000018318939205C24.200048610687254,8.500001831893922,24.500048610687255,9.80000183189392,24.300048610687256,11.00000183189392Z" fill="#000000" fill-opacity="1"/></g><g></g></g></svg>