<svg xmlns="http://www.w3.org/2000/svg" xmlns:xlink="http://www.w3.org/1999/xlink" fill="none" version="1.1" width="32" height="32" viewBox="0 0 32 32"><defs><clipPath id="master_svg0_134_17370"><rect x="0" y="0" width="32" height="32" rx="0"/></clipPath></defs><g clip-path="url(#master_svg0_134_17370)"><g><path d="M29,23.859999198913574L27,23.859999198913574C27,24.813899198913575,26.2238,25.585499198913574,25.27,25.579999198913573C24.12,25.579999198913573,23.45,24.719999198913573,22.69,23.579999198913573C25.6936,21.525699198913575,27.4868,18.118899198913574,27.48,14.479999198913575C27.57,7.289999198913574,21.63,2.589999198913574,15.31,2.589999198913574C8.99,2.589999198913574,3,7.3699991989135745,3,14.369999198913574C3,21.369999198913575,9,26.159999198913575,15.17,26.159999198913575C16.211199999999998,26.150099198913573,17.2454,25.988399198913573,18.240000000000002,25.679999198913574C19.39,27.789999198913574,20.83,29.419999198913573,23.7,29.419999198913573C26.8151,29.627799198913575,29.3566,26.961499198913575,29,23.859999198913574ZM20.86,20.409999198913575C19.7172,18.425899198913577,17.589399999999998,17.216599198913574,15.3,17.249999198913574C13.9599,17.204599198913574,12.64314,17.609499198913575,11.56,18.399999198913576L12.2,19.999999198913574C12.47891,19.918099198913573,12.76974,19.884299198913574,13.06,19.899999198913573C14.88,19.899999198913573,16.060000000000002,21.429999198913574,17.18,23.539999198913574C16.554000000000002,23.683999198913575,15.9121,23.747899198913576,15.27,23.729999198913575C10.86,23.759999198913576,9,20.599999198913576,9,14.469999198913575C9,8.339999198913574,10.91,5.169999198913574,15.23,5.169999198913574C19.55,5.169999198913574,21.55,8.329999198913574,21.55,14.469999198913575C21.5992,16.474399198913574,21.3567,18.475399198913575,20.83,20.409999198913575L20.86,20.409999198913575Z" fill="#000000" fill-opacity="1"/></g><g></g></g></svg>