<svg xmlns="http://www.w3.org/2000/svg" xmlns:xlink="http://www.w3.org/1999/xlink" fill="none" version="1.1" width="32" height="32" viewBox="0 0 32 32"><defs><clipPath id="master_svg0_134_17446"><rect x="0" y="0" width="32" height="32" rx="0"/></clipPath></defs><g clip-path="url(#master_svg0_134_17446)"><g><path d="M22.41309990234375,19.109899182128906L20.49769990234375,13.574399182128907C20.45759960234375,13.443999182128906,20.39739990234375,13.223399182128906,20.39739990234375,13.032899182128906C20.39739990234375,12.521499182128906,20.80859990234375,12.020099682128906,21.47039990234375,12.020099682128906C22.02189990234375,12.020099682128906,22.39299990234375,12.371099182128907,22.55339990234375,12.882500182128906L23.75679990234375,16.863699182128904L24.99029990234375,12.892599182128906C25.15069990234375,12.361099182128907,25.56189990234375,12.000099182128906,26.13349990234375,12.000099182128906L26.263899902343752,12.000099182128906C26.83549990234375,12.000099182128906,27.24669990234375,12.371099182128907,27.40709990234375,12.892599182128906L28.65059990234375,16.873799182128906L29.88409990234375,12.862498182128906C30.03449990234375,12.391198182128907,30.36549990234375,12.010098462128907,30.95709990234375,12.010098462128907C31.56879990234375,12.010098462128907,31.999999902343752,12.481398182128906,31.999999902343752,13.032999182128906C31.999999902343752,13.183399182128905,31.95989990234375,13.383999182128907,31.929799902343753,13.484299182128906L29.92419990234375,19.110099182128906C29.69359990234375,19.801999182128906,29.232299902343748,20.10289918212891,28.690699902343752,20.10289918212891L28.620499902343752,20.10289918212891C28.07899990234375,20.10289918212891,27.62769990234375,19.791999182128905,27.41709990234375,19.150199182128908L26.17359990234375,15.199099182128906L24.91009990234375,19.150199182128908C24.70949990234375,19.791999182128905,24.24819990234375,20.10289918212891,23.70669990234375,20.10289918212891L23.63649990234375,20.10289918212891C23.10499990234375,20.10289918212891,22.64369990234375,19.791999182128905,22.41309990234375,19.109899182128906Z" fill="#000000" fill-opacity="1"/></g><g><path d="M2.09391,12.64500066772461C1.84701,12.091800667724609,1.22471,11.84489966772461,0.641906,12.101700667724609C0.0591063,12.35850066772461,-0.148294,13.00060566772461,0.108506,13.55369566772461L2.53841,18.838305667724608C2.92361,19.66800566772461,3.32861,20.10270566772461,4.07931,20.10270566772461C4.88931,20.10270566772461,5.24491,19.62860566772461,5.62021,18.838305667724608Q7.74391,14.21550566772461,7.76371,14.166095667724608C7.78351,14.11669566772461,7.85261,13.968495667724609,8.06991,13.968495667724609C8.25761,13.968495667724609,8.40571,14.11669566772461,8.40571,14.31419566772461L8.40571,18.83819566772461C8.40571,19.52959566772461,8.79091,20.102595667724607,9.53181,20.102595667724607C10.2727,20.102595667724607,10.6776,19.52969566772461,10.6776,18.83819566772461L10.6776,15.14389566772461C10.6776,14.432695667724609,11.1912,13.968395667724609,11.8827,13.968395667724609C12.5742,13.968395667724609,13.0384,14.442495667724609,13.0384,15.14389566772461L13.0384,18.83819566772461C13.0384,19.52959566772461,13.4236,20.102595667724607,14.1645,20.102595667724607C14.9054,20.102595667724607,15.3103,19.52969566772461,15.3103,18.83819566772461L15.3103,15.14389566772461C15.3103,14.432695667724609,15.8239,13.968395667724609,16.5154,13.968395667724609C17.2069,13.968395667724609,17.6711,14.442495667724609,17.6711,15.14389566772461L17.6711,18.83819566772461C17.6711,19.52959566772461,18.0563,20.102595667724607,18.7972,20.102595667724607C19.5381,20.102595667724607,19.943,19.52969566772461,19.943,18.83819566772461L19.943,14.63029566772461C19.943,13.07949566772461,18.6984,12.00279998772461,17.2069,12.00279998772461Q15.7154,12.00279998772461,14.777,13.03999566772461C14.2831,12.397899667724609,13.5917,12.00279998772461,12.436,12.00279998772461Q11.2112,12.00279998772461,10.1345,13.03999566772461C9.63071,12.397899667724609,8.79111,12.00279998772461,8.08981,12.00279998772461C7.00321,12.00279998772461,6.14391,12.47689966772461,5.62041,13.681995667724609L4.06961,17.34670566772461L2.09391,12.64500066772461Z" fill="#000000" fill-opacity="1"/></g><g></g></g></svg>