<svg xmlns="http://www.w3.org/2000/svg" xmlns:xlink="http://www.w3.org/1999/xlink" fill="none" version="1.1" width="32" height="32" viewBox="0 0 32 32"><defs><clipPath id="master_svg0_134_17272"><rect x="0" y="0" width="32" height="32" rx="0"/></clipPath></defs><g clip-path="url(#master_svg0_134_17272)"><g><ellipse cx="22.405599117279053" cy="9.59439992904663" rx="1.440000057220459" ry="1.440000057220459" fill="#000000" fill-opacity="1"/></g><g><path d="M16.000001933288573,9.837800025939941C12.596711933288574,9.837800025939941,9.837801933288574,12.596710025939942,9.837801933288574,16.00000002593994C9.837801933288574,19.403290025939942,12.596711933288574,22.162200025939942,16.000001933288573,22.162200025939942C19.403291933288575,22.162200025939942,22.162201933288575,19.403290025939942,22.162201933288575,16.00000002593994C22.162201933288575,12.596710025939942,19.403291933288575,9.837800025939941,16.000001933288573,9.837800025939941ZM16.000001933288573,20.00000002593994C13.790861933288575,20.00000002593994,12.000001933288575,18.20914002593994,12.000001933288575,16.00000002593994C12.000001933288575,13.790860025939942,13.790861933288575,12.000000025939942,16.000001933288573,12.000000025939942C18.209141933288574,12.000000025939942,20.000001933288573,13.790860025939942,20.000001933288573,16.00000002593994C20.000001933288573,18.20914002593994,18.209141933288574,20.00000002593994,16.000001933288573,20.00000002593994Z" fill="#000000" fill-opacity="1"/></g><g><path d="M16,6.1622C19.2041,6.1622,19.5837,6.1744,20.849,6.232200000000001C21.61,6.2412600000000005,22.3637,6.38103,23.0773,6.6454C24.1238,7.049189999999999,24.9509,7.87634,25.3547,8.922799999999999C25.6191,9.63641,25.7588,10.39015,25.7679,11.1511C25.8256,12.4164,25.8379,12.796,25.8379,16.0001C25.8379,19.2042,25.8257,19.5838,25.7679,20.8491C25.7588,21.6101,25.6191,22.3638,25.3547,23.0774C24.9509,24.1239,24.1238,24.951,23.0773,25.3548C22.3637,25.6192,21.61,25.7589,20.849,25.768C19.5838,25.8257,19.2044,25.838,16,25.838C12.7956,25.838,12.4162,25.8258,11.151,25.768C10.390039999999999,25.7589,9.63631,25.6192,8.922699999999999,25.3548C7.87623,24.951,7.04909,24.1239,6.645300000000001,23.0774C6.38092,22.3638,6.24116,21.6101,6.2321,20.8491C6.1744,19.5838,6.162100000000001,19.2042,6.162100000000001,16.0001C6.162100000000001,12.79599,6.174300000000001,12.4164,6.2321,11.1511C6.24116,10.390139999999999,6.38092,9.63641,6.645300000000001,8.922799999999999C7.04907,7.8763000000000005,7.87622,7.049110000000001,8.922699999999999,6.645300000000001C9.63631,6.38093,10.390049999999999,6.24116,11.151,6.2321C12.4163,6.1744,12.7959,6.162100000000001,16,6.1622ZM16,4C12.741,4,12.3323,4.0138001,11.052399999999999,4.0721998C10.05705,4.0921831,9.0723,4.280789,8.14,4.63C6.52787,5.25343,5.25343,6.52787,4.63,8.14C4.280734,9.07245,4.0921268,10.05738,4.0722003,11.052900000000001C4.0138001,12.3323,4,12.741,4,16C4,19.259,4.0138001,19.6677,4.0721998,20.9476C4.0921378,21.9431,4.280745,22.928,4.63,23.8605C5.25343,25.4726,6.52787,26.7471,8.14,27.3705C9.07245,27.7198,10.05738,27.9084,11.052900000000001,27.9283C12.3323,27.9862,12.741,28,16,28C19.259,28,19.6677,27.9862,20.9476,27.9278C21.9431,27.9079,22.928,27.7193,23.8605,27.37C25.4726,26.7466,26.7471,25.4721,27.3705,23.86C27.7198,22.9275,27.9084,21.9426,27.9283,20.9471C27.9862,19.6677,28,19.259,28,16C28,12.741,27.9862,12.3323,27.9278,11.052399999999999C27.9078,10.05705,27.7192,9.0723,27.37,8.14C26.7465,6.52806,25.472,5.25382,23.86,4.6305C22.9275,4.281246,21.9426,4.0926394,20.9471,4.0727005C19.6677,4.0138001,19.259,4,16,4Z" fill="#000000" fill-opacity="1"/></g><g></g></g></svg>