<svg xmlns="http://www.w3.org/2000/svg" xmlns:xlink="http://www.w3.org/1999/xlink" fill="none" version="1.1" width="32" height="32" viewBox="0 0 32 32"><defs><clipPath id="master_svg0_134_17387"><rect x="0" y="0" width="32" height="32" rx="0"/></clipPath></defs><g clip-path="url(#master_svg0_134_17387)"><g><path d="M30,14.784199310302734C30,9.605999310302735,23.7319,5.408199310302734,16,5.408199310302734C8.2681,5.408199310302734,2,9.605999310302735,2,14.784199310302734C2,19.398899310302735,6.9814,23.226099310302736,13.5361,24.006799310302736L13.5361,26.998499310302734L18.3123,26.996599310302734L18.3123,24.022499310302734C19.4436,23.899499310302733,20.5618,23.677099310302733,21.6541,23.357899310302734L23.593,26.999999310302734L28.9905,26.997599310302736L25.7375,21.512699310302736C28.3625,19.808599310302732,30,17.426299310302735,30,14.784199310302734ZM7.5017,15.484199310302735C7.5017,11.944199310302734,12.2661,9.074199310302735,18.1431,9.074199310302735C24.0201,9.074199310302735,28.3569,11.037099310302734,28.3569,15.484199310302735C28.383,17.728099310302735,27.0357,19.760299310302734,24.9587,20.609999310302733C24.8626,20.546399310302732,24.7632,20.487999310302733,24.6609,20.435099310302732C24.2263,20.236499310302733,23.7786,20.067799310302732,23.3209,19.930299310302736Q27.4952,19.620299310302734,27.4952,15.464399310302735Q27.4952,11.308499310302734,23.1268,11.230099310302734L13.5361,11.230099310302734L13.5361,21.255399310302735C9.969999999999999,20.219999310302732,7.5017,18.028299310302735,7.5017,15.484199310302735L7.5017,15.484199310302735ZM21.2439,17.329399310302733L18.3511,17.330399310302735L18.3525,14.649199310302734L21.2439,14.650699310302734C21.9963,14.593599310302734,22.6268,15.212259310302734,22.5839,15.965599310302734C22.6069,16.718699310302732,21.9973,17.338999310302732,21.2439,17.329399310302733L21.2439,17.329399310302733ZM18.3113,20.823999310302735L19.5938,20.823999310302735C19.8385,20.827499310302734,20.0707,20.932999310302733,20.2344,21.114999310302736C20.4297,21.303199310302734,20.601,21.514799310302735,20.7444,21.744999310302735C19.9368,21.837599310302735,19.1247,21.886199310302736,18.3118,21.890499310302733L18.3113,20.823999310302735Z" fill-rule="evenodd" fill="#000000" fill-opacity="1"/></g><g></g></g></svg>