<svg xmlns="http://www.w3.org/2000/svg" xmlns:xlink="http://www.w3.org/1999/xlink" fill="none" version="1.1" width="32" height="32" viewBox="0 0 32 32"><defs><clipPath id="master_svg0_134_17402"><rect x="0" y="0" width="32" height="32" rx="0"/></clipPath></defs><g clip-path="url(#master_svg0_134_17402)"><g><path d="M9.042301056289674,19.166100457763672C9.042341056289672,20.558560457763672,7.913551056289673,21.687400457763673,6.521101056289673,21.687400457763673C5.128691056289673,21.68744045776367,3.999901056289673,20.558650457763672,3.999901056289673,19.166200457763672C3.999863862989673,17.77379045776367,5.128701056289673,16.645000457763672,6.521201056289673,16.645000457763672L9.042301056289674,16.645000457763672L9.042301056289674,19.166100457763672Z" fill="#000000" fill-opacity="1"/></g><g><path d="M10.312700271593359,19.166100879516602C10.321420673193359,17.779900879516603,11.447618773193359,16.6607608795166,12.83384877319336,16.6607608795166C14.220078773193359,16.6607608795166,15.346278773193358,17.779900879516603,15.354998773193358,19.166100879516602L15.354998773193358,25.4788008795166C15.36379877319336,26.8773608795166,14.232468773193359,28.0158608795166,12.83384877319336,28.0158608795166C11.435228773193359,28.0158608795166,10.30390072319336,26.8773608795166,10.312700271593359,25.4788008795166L10.312700271593359,19.166100879516602Z" fill="#000000" fill-opacity="1"/></g><g><path d="M12.833900135803223,9.042301056289674C11.441440135803223,9.042341056289672,10.312600135803223,7.913551056289673,10.312600135803223,6.521101056289673C10.312562942503222,5.128691056289673,11.441350135803223,3.999901056289673,12.833800135803223,3.999901056289673C14.226210135803223,3.999863862989673,15.355000135803223,5.128701056289673,15.355000135803223,6.521201056289673L15.355000135803223,9.042301056289674L12.833900135803223,9.042301056289674Z" fill="#000000" fill-opacity="1"/></g><g><path d="M12.833900157699585,10.312700271567676C14.220140157699586,10.321420666867676,15.339240157699585,11.447619726867675,15.339240157699585,12.833849726867676C15.339240157699585,14.220079726867676,14.220140157699586,15.346279726867674,12.833900157699585,15.354999726867675L6.521200157699585,15.354999726867675C5.122610157699585,15.363799726867676,3.984140157699585,14.232469726867675,3.984140157699585,12.833849726867676C3.984140634536585,11.435229726867675,5.122610157699585,10.303901676867676,6.521200157699585,10.312700271567676L12.833900157699585,10.312700271567676Z" fill="#000000" fill-opacity="1"/></g><g><path d="M22.957700729370117,12.833900135803223C22.957664489770117,11.441430135803223,24.086460729370117,10.312600135803223,25.478900729370118,10.312600135803223C26.871310729370116,10.312562942503222,28.000100729370118,11.441350135803223,28.000100729370118,12.833800135803223C28.000140729370116,14.226210135803223,26.871300729370116,15.355000135803223,25.478800729370118,15.355000135803223L22.957700729370117,15.355000135803223L22.957700729370117,12.833900135803223Z" fill="#000000" fill-opacity="1"/></g><g><path d="M21.687300866699218,12.833895763549805C21.67853086669922,14.220035763549804,20.55234086669922,15.339135763549805,19.16615086669922,15.339135763549805C17.77996086669922,15.339135763549805,16.65377425669922,14.220035763549804,16.64500045779922,12.833895763549805L16.64500045779922,6.521195763549805C16.63625526669922,5.122645763549805,17.76757086669922,3.9842357635498047,19.16615086669922,3.9842357635498047C20.564730866699218,3.9842355251308046,21.696050866699217,5.122645763549805,21.687300866699218,6.521195763549805L21.687300866699218,12.833895763549805Z" fill="#000000" fill-opacity="1"/></g><g><path d="M19.166100457763672,22.957700729370117C20.558560457763672,22.957664489770117,21.687400457763673,24.086460729370117,21.687400457763673,25.478900729370118C21.68744045776367,26.871310729370116,20.558650457763672,28.000100729370118,19.166200457763672,28.000100729370118C17.77379045776367,28.000140729370116,16.645000457763672,26.871300729370116,16.645000457763672,25.478800729370118L16.645000457763672,22.957700729370117L19.166100457763672,22.957700729370117Z" fill="#000000" fill-opacity="1"/></g><g><path d="M19.166096246948243,21.687300866699218C17.779936246948242,21.67853086669922,16.660856246948242,20.55234086669922,16.660856246948242,19.16615086669922C16.660856246948242,17.77996086669922,17.779936246948242,16.65377425669922,19.166096246948243,16.64500045779922L25.478796246948242,16.64500045779922C26.877356246948242,16.63625526669922,28.015756246948243,17.76757086669922,28.015756246948243,19.16615086669922C28.015756246948243,20.564730866699218,26.877356246948242,21.696050866699217,25.478796246948242,21.687300866699218L19.166096246948243,21.687300866699218Z" fill="#000000" fill-opacity="1"/></g><g></g></g></svg>