<svg xmlns="http://www.w3.org/2000/svg" xmlns:xlink="http://www.w3.org/1999/xlink" fill="none" version="1.1" width="32" height="32" viewBox="0 0 32 32"><defs><clipPath id="master_svg0_134_17311"><rect x="0" y="0" width="32" height="32" rx="0"/></clipPath></defs><g clip-path="url(#master_svg0_134_17311)"><g><path d="M15.133999671936035,17.18900008392334L15.998999671936035,17.60500008392334L16.861999671936037,17.19000008392334L17.075999671936035,16.25900108392334L16.478999671936034,15.51200008392334L15.517999671936035,15.51200008392334L14.918999671936035,16.25700008392334L15.133999671936035,17.18900008392334Z" fill="#000000" fill-opacity="1"/></g><g><path d="M14.21659967956543,13.879999923706055L14.21899967956543,13.881899923706055C14.37511967956543,13.995729923706055,14.581219679565429,14.014399923706055,14.75523967956543,13.930469923706054C14.92926967956543,13.846539923706054,15.04297967956543,13.673639923706055,15.051099679565429,13.480599923706055L15.051099679565429,13.477599923706055L15.06379967956543,13.471299923706056L15.24199967956543,10.329999923706055C15.02469967956543,10.356800123706055,14.81199967956543,10.393500323706055,14.60869967956543,10.439399923706056C13.48695967956543,10.692488923706055,12.457714679565429,11.252555923706055,11.63599967956543,12.056999923706055L14.21119967956543,13.882699923706054L14.21659967956543,13.879999923706055Z" fill="#000000" fill-opacity="1"/></g><g><path d="M12.834699453735352,16.26220085144043L12.837699453735352,16.261200851440428C13.024099453735351,16.210250851440428,13.167349453735351,16.06086085144043,13.210429453735351,15.872480851440429C13.25350945373535,15.68410085144043,13.189429453735352,15.48730085144043,13.043699453735352,15.36040085144043L13.041299453735352,15.358400851440429L13.044199453735352,15.34570085144043L10.69269945373535,13.24220085144043C9.977047453735352,14.40937085144043,9.66940545373535,15.78120085144043,9.818099053735352,17.14220085144043L12.832299453735352,16.27220085144043L12.834699453735352,16.26220085144043Z" fill="#000000" fill-opacity="1"/></g><g><path d="M13.864500122070313,18.50099962927246C13.802600122070313,18.22677962927246,13.534960122070313,18.050579029272463,13.258600122070312,18.10210036927246L13.255200122070313,18.10210036927246L13.250300122070312,18.09580039927246L10.159500122070312,18.62070062927246C10.623985122070312,19.902630629272462,11.497770122070312,20.99589062927246,12.645800122070312,21.73150062927246L13.843000122070313,18.838001629272462L13.834300122070312,18.82630162927246L13.835200122070312,18.82330162927246C13.879110122070312,18.72174862927246,13.889380122070312,18.60880862927246,13.864500122070313,18.50099962927246Z" fill="#000000" fill-opacity="1"/></g><g><path d="M16.46220048828125,19.64310032373047L16.46070048828125,19.640600323730467C16.36527048828125,19.465732323730467,16.17984048828125,19.35914802373047,15.98070048828125,19.36470031773047C15.79431048828125,19.37200355373047,15.62567048828125,19.477317323730468,15.53730048828125,19.641599323730468L15.53580048828125,19.644499323730468L15.53300048828125,19.644499323730468L14.01300048828125,22.392594323730467C15.10216048828125,22.760934323730467,16.27203048828125,22.82057432373047,17.39300048828125,22.56490432373047C17.60000048828125,22.51809432373047,17.80300048828125,22.460904323730468,17.99740048828125,22.39650432373047L16.47400048828125,19.643099323730468L16.46220048828125,19.64310032373047Z" fill="#000000" fill-opacity="1"/></g><g><path d="M18.737100355957033,18.09000015633301L18.733699355957032,18.09000015633301C18.69399035595703,18.082294466333007,18.653507355957032,18.079339976333006,18.61310035595703,18.08119964633301C18.24885535595703,18.101667366333007,18.015409355957033,18.477511866333007,18.15850065595703,18.813098866333007L18.15950015595703,18.815497866333008L18.155500455957032,18.82089786633301L19.36550235595703,21.74429986633301C20.52167235595703,21.00517986633301,21.399222355957033,19.902559866333007,21.860002355957032,18.610000866333007L18.742401355957032,18.083101276333007L18.737100355957033,18.09000015633301Z" fill="#000000" fill-opacity="1"/></g><g><path d="M21.28929702331543,13.24370002746582L18.95100002331543,15.336400027465821L18.95240002331543,15.34280002746582L18.95000102331543,15.34470002746582C18.804470023315428,15.47174002746582,18.74048232331543,15.66845002746582,18.78342242331543,15.85680002746582C18.82636262331543,16.04515002746582,18.96928602331543,16.19469002746582,19.15550002331543,16.246100027465822L19.15900002331543,16.24660002746582L19.16140002331543,16.259800027465822L22.19069702331543,17.13180002746582C22.32018702331543,15.77229002746582,22.00378702331543,14.40755002746582,21.28929702331543,13.24370002746582Z" fill="#000000" fill-opacity="1"/></g><g><path d="M16.938298966430665,13.467300059509277L16.938298966430665,13.470200059509278C16.942754966430662,13.581090059509277,16.982835966430663,13.687590059509278,17.052598966430665,13.773900059509277C17.227504966430665,13.993970059509277,17.544974966430665,14.036660059509277,17.771799966430663,13.870600059509277L17.774299966430664,13.868700059509278L17.783099966430665,13.872600059509278L20.341699966430664,12.058600059509278C19.368059966430664,11.106198059509277,18.109179966430663,10.499059059509277,16.757699966430664,10.330100059509277L16.935399966430666,13.465800059509277L16.938298966430665,13.467300059509277Z" fill="#000000" fill-opacity="1"/></g><g><path d="M30.38056760482788,19.037621798706056L27.901567604827882,8.270501798706054C27.770467604827882,7.704421798706055,27.38836760482788,7.229081798706055,26.86356760482788,6.979501798706055L16.82996760482788,2.188499798706055C16.30326760482788,1.9370624987060547,15.69116760482788,1.9370624987060547,15.16436760482788,2.188499798706055L5.132597604827881,6.981901798706055C4.60797760482788,7.231641798706055,4.225817604827881,7.706901798706054,4.094497604827881,8.272901798706055L1.619400004827881,19.040021798706054C1.504006004827881,19.541521798706054,1.5981183048278809,20.068421798706055,1.8799996048278809,20.499021798706053C1.9136796048278808,20.551321798706056,1.9499936048278808,20.601821798706055,1.9887996048278809,20.650421798706056L8.932697604827881,29.284221798706056C9.29857760482788,29.737521798706055,9.85012760482788,30.000721798706056,10.432697604827881,30.000021798706054L21.56836760482788,29.997621798706053C22.15076760482788,29.998421798706055,22.70226760482788,29.735621798706056,23.06836760482788,29.282721798706056L30.00996760482788,20.647921798706054C30.373867604827883,20.196321798706055,30.51046760482788,19.602821798706056,30.38056760482788,19.037621798706056ZM26.569067604827882,18.907621798706053C26.47186760482788,19.242621798706054,26.12536760482788,19.439121798706054,25.78786760482788,19.350521798706055L25.783967604827883,19.350521798706055L25.77906760482788,19.349521798706053L25.77216760482788,19.347621798706054L25.767367604827882,19.345621798706055L25.71016760482788,19.333921798706054C25.67556760482788,19.327121798706056,25.64016760482788,19.319721798706055,25.61206760482788,19.312421798706055C25.48916760482788,19.277521798706054,25.36916760482788,19.233121798706055,25.25316760482788,19.179621798706055C25.195567604827882,19.154721798706056,25.13596760482788,19.128321798706054,25.07246760482788,19.104421798706056L25.05496760482788,19.098121798706053C24.72276760482788,18.964521798706055,24.37836760482788,18.863621798706056,24.026567604827882,18.796821798706056C23.91906760482788,18.789621798706055,23.813067604827882,18.824821798706054,23.73116760482788,18.894921798706054L23.694067604827882,18.920321798706055L23.69216760482788,18.921821798706056L23.69016760482788,18.921821798706056C23.64626760482788,18.913021798706055,23.51536760482788,18.889621798706056,23.43826760482788,18.877421798706056C22.857367604827882,20.702521798706055,21.62646760482788,22.250821798706056,19.979267604827882,23.228421798706055C19.98856760482788,23.250421798706054,19.99926760482788,23.278421798706056,20.00996760482788,23.309021798706056C20.02746760482788,23.363121798706054,20.04986760482788,23.415621798706056,20.076867604827882,23.465721798706056L20.07886760482788,23.467721798706055L20.07786760482788,23.470621798706055L20.06126760482788,23.512621798706054C20.01166760482788,23.607821798706055,20.00086760482788,23.718721798706056,20.03126760482788,23.821721798706054C20.17786760482788,24.155221798706055,20.35606760482788,24.473921798706055,20.56346760482788,24.773421798706053C20.601067604827882,24.829521798706054,20.639167604827882,24.881821798706056,20.67626760482788,24.932521798706055C20.75456760482788,25.033421798706055,20.82456760482788,25.140421798706054,20.88576760482788,25.252521798706056C20.90236760482788,25.283721798706054,20.922867604827882,25.327721798706055,20.940967604827883,25.366221798706054L20.963867604827882,25.414621798706055C21.14806760482788,25.722921798706054,21.026467604827882,26.122921798706056,20.701667604827882,26.276521798706053C20.376967604827882,26.430021798706054,19.99066760482788,26.270221798706054,19.86916760482788,25.932221798706056L19.846767604827882,25.886721798706056C19.828167604827883,25.848721798706055,19.808667604827882,25.809121798706055,19.79496760482788,25.777921798706053C19.74526760482788,25.659221798706056,19.704767604827882,25.536921798706054,19.67386760482788,25.412121798706053C19.65726760482788,25.352621798706053,19.64016760482788,25.290621798706056,19.62016760482788,25.227121798706055L19.61426760482788,25.210521798706054C19.51156760482788,24.867421798706054,19.37586760482788,24.535221798706054,19.20906760482788,24.218321798706054C19.147067604827882,24.129421798706055,19.05286760482788,24.068121798706056,18.94636760482788,24.047421798706054L18.90486760482788,24.034721798706055L18.90336760482788,24.034721798706055L18.90186760482788,24.032821798706056C18.89186760482788,24.015721798706053,18.86816760482788,23.971721798706056,18.84236760482788,23.925321798706054C18.81886760482788,23.883321798706056,18.79396760482788,23.837921798706056,18.77596760482788,23.805321798706053C18.441067604827882,23.931521798706054,18.098067604827882,24.034821798706055,17.749067604827882,24.114421798706054C16.24696760482788,24.456821798706056,14.676967604827881,24.344221798706055,13.23906760482788,23.791121798706055L13.103867604827881,24.035321798706054L13.10186760482788,24.036321798706055C13.00586760482788,24.050821798706053,12.91656760482788,24.094021798706056,12.845567604827881,24.160321798706054C12.692267604827881,24.379021798706056,12.578567604827882,24.622921798706056,12.50956760482788,24.881021798706055C12.469567604827882,24.998221798706055,12.42956760482788,25.119321798706054,12.38166760482788,25.237921798706054C12.36116760482788,25.301921798706054,12.344067604827881,25.364921798706053,12.327967604827881,25.425921798706053C12.297367604827881,25.549621798706056,12.25726760482788,25.670721798706055,12.20796760482788,25.788221798706054C12.195267604827881,25.818221798706055,12.17666760482788,25.855121798706055,12.158667604827881,25.890721798706053L12.134167604827882,25.940121798706056L12.133667604827881,25.942521798706053L12.13176760482788,25.944521798706056C12.024467604827882,26.178421798706054,11.79386760482788,26.331221798706054,11.53659760482788,26.339021798706053C11.453527604827881,26.339321798706056,11.371467604827881,26.320821798706056,11.29659760482788,26.284821798706055C10.99145760482788,26.115621798706055,10.87702760482788,25.733921798706056,11.03880760482788,25.424821798706056C11.047597604827882,25.407721798706056,11.05639760482788,25.387721798706053,11.066197604827881,25.367221798706055C11.083307604827882,25.330121798706056,11.100807604827882,25.291521798706054,11.116207604827881,25.262721798706053C11.17792760482788,25.150121798706056,11.24812760482788,25.042421798706055,11.32619760482788,24.940521798706055C11.36290760482788,24.890521798706054,11.40090760482788,24.837921798706056,11.438007604827881,24.782721798706056C11.64986760482788,24.475521798706055,11.831667604827881,24.148721798706056,11.980967604827882,23.806721798706054C11.99666760482788,23.691921798706055,11.978167604827881,23.575021798706054,11.927767604827881,23.470721798706055L11.927767604827881,23.468821798706056L11.927767604827881,23.466821798706054L12.035167604827882,23.209521798706053C10.393947604827881,22.239321798706055,9.16352760482788,20.703021798706054,8.575207604827881,18.889521798706056L8.315907604827881,18.933921798706056L8.314397604827882,18.932921798706055L8.28800760482788,18.917821798706054C8.19491760482788,18.853121798706056,8.085337604827881,18.816421798706056,7.9721076048278805,18.811821798706056C7.620417604827881,18.878821798706056,7.276037604827881,18.979721798706056,6.943807604827881,19.113121798706054L6.926707604827881,19.119521798706053C6.864707604827881,19.143421798706054,6.805607604827881,19.168321798706053,6.748507604827881,19.192721798706053C6.6316876048278806,19.246421798706056,6.5108876048278805,19.290921798706055,6.387207604827881,19.326021798706055C6.356407604827881,19.334321798706053,6.316407604827881,19.343121798706054,6.277807604827881,19.350921798706054L6.231907604827881,19.360921798706055L6.227007604827881,19.362821798706054L6.2202076048278805,19.364821798706053L6.215307604827881,19.365821798706055L6.211407604827881,19.365821798706055C5.8713676048278804,19.477421798706054,5.50896760482788,19.272521798706055,5.429287604827881,18.923621798706055C5.349597604827881,18.574721798706054,5.587117604827881,18.232821798706055,5.941907604827881,18.185821798706055L5.9458076048278805,18.184821798706054L5.951107604827881,18.183321798706054L5.953107604827881,18.183321798706054L5.95650760482788,18.182421798706056L6.003407604827881,18.171121798706054C6.04340760482788,18.161121798706056,6.084397604827881,18.151121798706054,6.1166976048278805,18.145321798706053C6.242487604827881,18.123321798706055,6.369827604827881,18.111421798706054,6.497497604827881,18.109621798706055C6.560497604827881,18.107221798706053,6.625897604827881,18.104221798706053,6.6932976048278805,18.098921798706055L6.707497604827881,18.097421798706055C7.066577604827881,18.072821798706055,7.4224176048278805,18.013421798706055,7.769997604827881,17.920021798706053C7.863237604827881,17.862821798706054,7.942237604827881,17.785221798706054,8.00099760482788,17.693021798706056L8.02539760482788,17.661221798706055L8.026397604827881,17.659821798706055L8.027797604827882,17.659821798706055L8.274897604827881,17.588021798706055C8.003557604827881,15.694621798706054,8.43953760482788,13.767621798706054,9.49949760482788,12.175421798706054L9.30949760482788,12.005421798706054L9.30949760482788,12.003421798706055L9.305097604827882,11.975601798706055C9.297657604827881,11.861441798706055,9.25764760482788,11.751811798706054,9.18979760482788,11.659701798706054C8.913607604827881,11.422461798706054,8.614997604827881,11.212641798706054,8.29819760482788,11.033201798706054C8.239697604827882,10.999001798706054,8.18249760482788,10.968301798706054,8.126897604827882,10.939001798706055C8.013077604827881,10.881751798706055,7.903857604827881,10.815781798706055,7.800197604827881,10.741701798706055C7.773797604827881,10.722201798706054,7.741597604827881,10.695801798706055,7.710797604827881,10.670401798706054L7.675197604827881,10.641601798706054L7.669997604827881,10.638701798706055L7.6650976048278805,10.634801798706055C7.5271476048278805,10.527291798706054,7.434107604827881,10.372311798706054,7.404097604827881,10.200001798706055C7.374287604827881,10.038381798706055,7.4153776048278806,9.871741798706054,7.516897604827881,9.742501798706055C7.634617604827881,9.598281798706054,7.8140976048278805,9.518891798706054,7.999997604827881,9.528801798706056C8.153837604827881,9.535611798706054,8.30148760482788,9.591381798706054,8.421397604827881,9.688001798706054L8.457497604827882,9.716301798706056C8.490697604827881,9.742201798706056,8.52749760482788,9.771501798706055,8.554697604827881,9.794401798706055C8.650607604827881,9.879451798706054,8.739897604827881,9.971691798706054,8.821797604827882,10.070301798706055C8.861797604827881,10.117201798706054,8.904297604827882,10.165501798706055,8.950197604827881,10.214401798706055L8.960197604827881,10.224401798706054C9.202437604827882,10.489821798706055,9.470007604827881,10.730961798706055,9.75909760482788,10.944401798706055C9.853217604827881,10.997741798706056,9.964417604827881,11.012301798706055,10.069097604827881,10.985001798706055L10.11209760482788,10.978101798706055L10.113997604827881,10.978101798706055L10.115497604827882,10.979101798706054C10.15119760482788,11.005501798706055,10.26389760482788,11.086501798706054,10.328897604827882,11.130501798706055C11.384327604827881,10.009681798706055,12.75046760482788,9.229671798706054,14.25216760482788,8.890501798706055C14.608467604827881,8.810271798706054,14.969867604827881,8.754641798706054,15.33376760482788,8.724001798706055L15.347867604827881,8.472501798706055L15.34886760482788,8.471101798706055C15.441567604827881,8.389151798706056,15.50886760482788,8.282421798706054,15.542767604827882,8.163501798706054C15.555767604827881,7.802511798706055,15.533667604827881,7.441111798706054,15.47676760482788,7.084401798706055L15.475867604827881,7.075601798706055C15.466567604827882,7.009201798706055,15.45486760482788,6.945601798706055,15.443067604827881,6.884201798706055C15.417167604827881,6.758941798706054,15.40076760482788,6.631921798706054,15.39376760482788,6.504201798706054C15.392867604827881,6.474201798706055,15.39326760482788,6.4363017987060545,15.39376760482788,6.3997017987060545L15.394267604827881,6.349701798706055L15.39376760482788,6.342401798706055L15.39376760482788,6.333101798706054C15.356267604827881,5.973781798706055,15.638067604827881,5.660991798706055,15.999267604827882,5.660991798706055C16.36056760482788,5.660991798706055,16.642367604827882,5.973781798706055,16.60476760482788,6.333101798706054L16.60566760482788,6.3936017987060545C16.60666760482788,6.432201798706055,16.60716760482788,6.472701798706055,16.60616760482788,6.503601798706055C16.599367604827883,6.6313317987060545,16.582867604827882,6.758361798706055,16.55686760482788,6.883601798706055C16.54516760482788,6.945101798706054,16.53346760482788,7.008601798706055,16.52416760482788,7.0750017987060545L16.52026760482788,7.106701798706054C16.46466760482788,7.456021798706055,16.44326760482788,7.809921798706054,16.45626760482788,8.163401798706055C16.473267604827882,8.269961798706055,16.53126760482788,8.365641798706054,16.61786760482788,8.430001798706055L16.65066760482788,8.460001798706054L16.65256760482788,8.461501798706054L16.65256760482788,8.463401798706055C16.65406760482788,8.506901798706055,16.66086760482788,8.647001798706054,16.66626760482788,8.727101798706055C17.61056760482788,8.811631798706054,18.53136760482788,9.067791798706054,19.38356760482788,9.483001798706056C20.23046760482788,9.893461798706054,20.99696760482788,10.452291798706055,21.646767604827883,11.133001798706054L21.87276760482788,10.971801798706055L21.87476760482788,10.971801798706055L21.905967604827882,10.973801798706054C22.01766760482788,10.991981798706055,22.13216760482788,10.977751798706056,22.23596760482788,10.932801798706056C22.52066760482788,10.722081798706055,22.784267604827882,10.484311798706054,23.02306760482788,10.222801798706055L23.04456760482788,10.200801798706054C23.08996760482788,10.153001798706054,23.13146760482788,10.105601798706054,23.17196760482788,10.059201798706054C23.25486760482788,9.959771798706054,23.345167604827882,9.866731798706056,23.44196760482788,9.780901798706054C23.46826760482788,9.758001798706054,23.50396760482788,9.730901798706054,23.538667604827882,9.703301798706054L23.575267604827882,9.674501798706054C23.832867604827882,9.420961798706054,24.25336760482788,9.446381798706055,24.47856760482788,9.729111798706054C24.70376760482788,10.011841798706055,24.63446760482788,10.427351798706054,24.329667604827883,10.621701798706054L24.28616760482788,10.657401798706054C24.25546760482788,10.682801798706056,24.223167604827882,10.709101798706055,24.19776760482788,10.728201798706055C24.09416760482788,10.802111798706054,23.98496760482788,10.867901798706054,23.871167604827882,10.925001798706054C23.81496760482788,10.954301798706055,23.75686760482788,10.985001798706055,23.69776760482788,11.019701798706055C23.38106760482788,11.199621798706055,23.08226760482788,11.409551798706055,22.80566760482788,11.646601798706055C22.73296760482788,11.726511798706055,22.694267604827882,11.831611798706055,22.69776760482788,11.939601798706054L22.69436760482788,11.983601798706054L22.69436760482788,11.985501798706055L22.69296760482788,11.986501798706055C22.67676760482788,12.001121798706055,22.642167604827883,12.032421798706055,22.60156760482788,12.068521798706055C22.56096760482788,12.104621798706054,22.51516760482788,12.145721798706054,22.48296760482788,12.175021798706055C23.54676760482788,13.761021798706055,23.991567604827882,15.682221798706054,23.73296760482788,17.574421798706055L23.972967604827883,17.644421798706055L23.972967604827883,17.644421798706055L23.99106760482788,17.670821798706054C24.04736760482788,17.769721798706055,24.13066760482788,17.850721798706054,24.23106760482788,17.904221798706054C24.57896760482788,17.996821798706055,24.934967604827882,18.055621798706056,25.29406760482788,18.079921798706053L25.30626760482788,18.080921798706054C25.37366760482788,18.086821798706055,25.43906760482788,18.089221798706056,25.50256760482788,18.091721798706054C25.629967604827883,18.093721798706056,25.75706760482788,18.105621798706053,25.88256760482788,18.127321798706056C25.913767604827882,18.133221798706053,25.95386760482788,18.142921798706055,25.99256760482788,18.152721798706054L26.056967604827882,18.168321798706053C26.40036760482788,18.234521798706055,26.62786760482788,18.563021798706053,26.569067604827882,18.907621798706053Z" fill="#000000" fill-opacity="1"/></g><g></g></g></svg>