<svg xmlns="http://www.w3.org/2000/svg" xmlns:xlink="http://www.w3.org/1999/xlink" fill="none" version="1.1" width="32" height="32" viewBox="0 0 32 32"><defs><clipPath id="master_svg0_134_17506"><rect x="0" y="0" width="32" height="32" rx="0"/></clipPath></defs><g clip-path="url(#master_svg0_134_17506)"><g><path d="M15.999999816894531,25.000000756835938C13.653849816894532,25.001970756835938,11.46313981689453,23.82692075683594,10.166999816894531,21.871300756835936L11.832999816894532,20.763900756835938C13.811049816894531,23.745340756835937,18.18894981689453,23.745340756835937,20.16699981689453,20.763900756835938L21.83299981689453,21.871300756835936C20.536899816894532,23.82692075683594,18.34615981689453,25.001970756835938,15.999999816894531,25.000000756835938Z" fill="#000000" fill-opacity="1"/></g><g><path d="M20,14.000000000019726C18.895431,14.000000000019726,18,14.895430725219727,18,16.000002725219726C18,17.104572725219725,18.895431,18.000002725219726,20,18.000002725219726C21.10457,18.000002725219726,22,17.104572725219725,22,16.000002725219726C22.01092,14.890940725219727,21.10906,13.989084225219727,20,14.000000000019726Z" fill="#000000" fill-opacity="1"/></g><g><path d="M12,14.00000000004541C10.895431,14.00000000004541,10,14.89543077154541,10,16.00000177154541C10,17.10457177154541,10.895431,18.00000177154541,12,18.00000177154541C13.104569999999999,18.00000177154541,14,17.10457177154541,14,16.00000177154541C14.010919999999999,14.89093977154541,13.10906,13.98908237154541,12,14.00000000004541Z" fill="#000000" fill-opacity="1"/></g><g><path d="M30,16L30,14L28,14L28,10C27.9975,7.79189,26.2081,6.00248,24,6L22,6L22,2L20,2L20,6L12,6L12,2L10,2L10,6L8,6C5.79189,6.00248,4.00248,7.79189,4,10L4,14L2,14L2,16L4,16L4,21L2,21L2,23L4,23L4,26C4.00248,28.2081,5.79189,29.9975,8,30L24,30C26.2081,29.9975,27.9975,28.2081,28,26L28,23L30,23L30,21L28,21L28,16L30,16ZM26,26C25.9987,27.104,25.104,27.9987,24,28L8,28C6.89596,27.9987,6.00127,27.104,6,26L6,10C6.00127,8.895959999999999,6.89596,8.00127,8,8L24,8C25.104,8.00127,25.9987,8.895959999999999,26,10L26,26Z" fill="#000000" fill-opacity="1"/></g><g></g></g></svg>