<svg xmlns="http://www.w3.org/2000/svg" xmlns:xlink="http://www.w3.org/1999/xlink" fill="none" version="1.1" width="32" height="32" viewBox="0 0 32 32"><defs><clipPath id="master_svg0_134_17514"><rect x="0" y="0" width="32" height="32" rx="0"/></clipPath></defs><g clip-path="url(#master_svg0_134_17514)"><g><path d="M27,24C26.554360000000003,24.00226,26.11497,24.10508,25.7146,24.3008L21.4141,20L18,20L18,22L20.5859,22L24.3005,25.7148C24.10509,26.1152,24.00238,26.554470000000002,24,27C24,28.65685,25.34315,30,27,30C28.6569,30,30,28.65685,30,27C30,25.34315,28.6569,24,27,24ZM27,28C26.44772,28,26,27.55228,26,27C26,26.44772,26.44772,26,27,26C27.55228,26,28,26.44772,28,27C27.99951,27.55208,27.55208,27.99951,27,28Z" fill="#000000" fill-opacity="1"/></g><g><path d="M27,13.000000000002734C25.73283,13.003829955302734,24.60522,13.804773185302734,24.1843,14.999996185302734L18,14.999996185302734L18,16.999996185302734L24.1843,16.999996185302734C24.69545,18.434296185302735,26.2015,19.256716185302736,27.684469999999997,18.911346185302733C29.1674,18.565976185302734,30.1552,17.162796185302735,29.98,15.650246185302734C29.8049,14.137686185302734,28.5227,12.997345925302735,27,13.000000000002734ZM27,16.999996185302734C26.44772,16.999996185302734,26,16.552286185302734,26,15.999996185302734C26,15.447716185302735,26.44772,14.999996185302734,27,14.999996185302734C27.55228,14.999996185302734,28,15.447716185302735,28,15.999996185302734C27.99951,16.552076185302735,27.55208,16.999506185302735,27,16.999996185302734Z" fill="#000000" fill-opacity="1"/></g><g><path d="M27,2C25.343899999999998,2.00181794,24.001820000000002,3.3439,24,5C24.00344,5.47907,24.12287,5.95017,24.3481,6.373L20.5957,10L18,10L18,12L21.4043,12L25.8032,7.7476C27.54728,8.50783,29.549300000000002,7.47262,29.9372,5.609999999999999C30.325,3.7473799999999997,28.9026,1.999096632,27,2ZM27,6C26.44772,6,26,5.55228,26,5C26,4.44772,26.44772,4,27,4C27.55228,4,28,4.44772,28,5C27.999499999999998,5.55208,27.55208,5.99951,27,6Z" fill="#000000" fill-opacity="1"/></g><g><path d="M18,6L20,6L20,4L18,4C16.846899999999998,4.00387335,15.7522,4.508252,15,5.3823C14.2478,4.508253,13.1531,4.00387478,12,4L11,4C6.03172,4.00550938,2.00550938,8.03172,2,13L2,19C2.00551081,23.9683,6.03172,27.9945,11,28L12,28C13.1531,27.9961,14.2478,27.4918,15,26.6177C15.7522,27.4918,16.846899999999998,27.9961,18,28L20,28L20,26L18,26C16.896,25.9987,16.0013,25.104,16,24L16,8C16.0013,6.8959600000000005,16.896,6.00127,18,6ZM12,26L11,26C7.52417,25.9939,4.57854,23.4399,4.08,20L6,20L6,18L4,18L4,14L7,14C8.6561,13.99818,9.99818,12.6561,10,11L10,9L8,9L8,11C7.9995,11.55208,7.55208,11.999500000000001,7,12L4.08,12C4.57854,8.5601,7.52417,6.00609,11,6L12,6C13.104,6.00127,13.9987,6.8959600000000005,14,8L14,12L12,12L12,14L14,14L14,18L12,18C10.3439,18.0018,9.00182,19.343899999999998,9,21L9,23L11,23L11,21C11.0005,20.4479,11.44792,20.0005,12,20L14,20L14,24C13.9987,25.104,13.104,25.9987,12,26Z" fill="#000000" fill-opacity="1"/></g><g></g></g></svg>