<svg xmlns="http://www.w3.org/2000/svg" xmlns:xlink="http://www.w3.org/1999/xlink" fill="none" version="1.1" width="32" height="32" viewBox="0 0 32 32"><defs><clipPath id="master_svg0_134_17549"><rect x="0" y="0" width="32" height="32" rx="0"/></clipPath></defs><g clip-path="url(#master_svg0_134_17549)"><g><path d="M16.590000123706055,20.41L20.169999923706055,24L16.579999923706055,27.59L17.999999923706056,29L22.999999923706056,24L17.999999923706056,19L16.590000123706055,20.41Z" fill="#000000" fill-opacity="1"/></g><g><path d="M23.590000123706055,20.41L27.169999923706055,24L23.579999923706055,27.59L24.999999923706056,29L29.999999923706056,24L24.999999923706056,19L23.590000123706055,20.41Z" fill="#000000" fill-opacity="1"/></g><g><path d="M14,23L4,23L4,7.91L15.43,15.82C15.7728,16.0578,16.2272,16.0578,16.57,15.82L28,7.91L28,17L30,17L30,7C30,5.895431,29.1046,5,28,5L4,5C2.895431,5,2,5.895431,2,7L2,23C2,24.1046,2.895431,25,4,25L14,25L14,23ZM25.8,7L16,13.78L6.2,7L25.8,7Z" fill="#000000" fill-opacity="1"/></g><g></g></g></svg>