<svg xmlns="http://www.w3.org/2000/svg" xmlns:xlink="http://www.w3.org/1999/xlink" fill="none" version="1.1" width="32" height="32" viewBox="0 0 32 32"><defs><clipPath id="master_svg0_134_24758"><rect x="0" y="0" width="32" height="32" rx="0"/></clipPath></defs><g clip-path="url(#master_svg0_134_24758)"><g><path d="M25,32L32,32L32,25L30,25L30,30L25,30L25,32Z" fill="#000000" fill-opacity="1"/></g><g><path d="M25,27L22,27L22,17L25,17C26.656100000000002,17.0018177,27.998179999999998,18.3439,28,20L28,24C27.998179999999998,25.656100000000002,26.656100000000002,26.998179999999998,25,27ZM24,25L25,25C25.55215,24.999670000000002,25.999670000000002,24.55215,26,24L26,20C25.999670000000002,19.44785,25.55215,19.000329999999998,25,19L24,19L24,25Z" fill="#000000" fill-opacity="1"/></g><g><path d="M20,27L14,27L14,23C14.00110149,21.89589,14.895887,21.0011,16,21L18,21L18,19L14,19L14,17L18,17C19.10404,17.00126839,19.998730000000002,17.895955999999998,20,19L20,21C19.998730000000002,22.10404,19.10404,22.998730000000002,18,23L16,23L16,25L20,25L20,27Z" fill="#000000" fill-opacity="1"/></g><g><path d="M25,15L22,15L22,5L25,5C26.656100000000002,5.0018177,27.998179999999998,6.3439,28,8L28,12C27.998179999999998,13.6561,26.656100000000002,14.99818,25,15ZM24,13L25,13C25.55208,12.999500000000001,25.9995,12.55208,26,12L26,8C25.9995,7.44792,25.55208,7.000500000000001,25,7L24,7L24,13Z" fill="#000000" fill-opacity="1"/></g><g><path d="M18,5L14,5L14,7L18,7L18,9L15,9L15,11L18,11L18,13L14,13L14,15L18,15C19.10395,14.99851,19.99851,14.10395,20,13L20,7C19.998730000000002,5.895956,19.10404,5.00126743,18,5Z" fill="#000000" fill-opacity="1"/></g><g><path d="M10,27L8,27L8,23.9541C3.2847,23.5117,2,19.9443,2,18C2,14.9854,4.082,13.4985,5.9189,12.186C7.5723,11.0054,9,9.9854,9,8L9,5L11,5L11,8C11,11.0146,8.918,12.5015,7.0811,13.814C5.4277,14.9946,4,16.0146,4,18C4.0054,18.4033,4.1914,22,9,22C9.55229,22,10,22.4477,10,23L10,27Z" fill="#000000" fill-opacity="1"/></g><g><path d="M7,0L0,0L0,7L2,7L2,2L7,2L7,0Z" fill="#000000" fill-opacity="1"/></g><g></g></g></svg>