<svg xmlns="http://www.w3.org/2000/svg" xmlns:xlink="http://www.w3.org/1999/xlink" fill="none" version="1.1" width="32" height="32" viewBox="0 0 32 32"><defs><clipPath id="master_svg0_134_17608"><rect x="0" y="0" width="32" height="32" rx="0"/></clipPath></defs><g clip-path="url(#master_svg0_134_17608)"><g><rect x="15" y="8" width="2" height="6" rx="0" fill="#000000" fill-opacity="1"/></g><g><rect x="15" y="18" width="2" height="6" rx="0" fill="#000000" fill-opacity="1"/></g><g><rect x="18" y="15" width="6" height="2" rx="0" fill="#000000" fill-opacity="1"/></g><g><rect x="8" y="15" width="6" height="2" rx="0" fill="#000000" fill-opacity="1"/></g><g><path d="M4,10L2,10L2,4C2.00115776,2.8959099999999998,2.895911,2.00115776,4,2L10,2L10,4L4,4L4,10Z" fill="#000000" fill-opacity="1"/></g><g><path d="M10,30L4,30C2.895911,29.99884,2.00115824,29.10409,2,28L2,22L4,22L4,28L10,28L10,30Z" fill="#000000" fill-opacity="1"/></g><g><path d="M28,30L22,30L22,28L28,28L28,22L30,22L30,28C29.99884,29.10409,29.10409,29.99884,28,30Z" fill="#000000" fill-opacity="1"/></g><g><path d="M30,10L28,10L28,4L22,4L22,2L28,2C29.10409,2.00115848,29.99884,2.895911,30,4L30,10Z" fill="#000000" fill-opacity="1"/></g><g></g></g></svg>