<svg xmlns="http://www.w3.org/2000/svg" xmlns:xlink="http://www.w3.org/1999/xlink" fill="none" version="1.1" width="32" height="32" viewBox="0 0 32 32"><defs><clipPath id="master_svg0_134_17581"><rect x="0" y="0" width="32" height="32" rx="0"/></clipPath></defs><g clip-path="url(#master_svg0_134_17581)"><g><rect x="12" y="10" width="2" height="4" rx="0" fill="#000000" fill-opacity="1"/></g><g><rect x="18" y="18" width="4" height="2" rx="0" fill="#000000" fill-opacity="1"/></g><g><path d="M14,18L14,16L12,16L12,20L16,20L16,18L14,18Z" fill="#000000" fill-opacity="1"/></g><g><rect x="16" y="4" width="12" height="12" rx="0" fill="#000000" fill-opacity="1"/></g><g><path d="M17.884999999999998,29.997L11.818999999999999,26.142L4,27.989L4,4L14,4L14,8L12,8L12,6L6,6L6,25.461L12.181,24.001L18.115000000000002,27.773L22.818,26L26,26L26,20L24,20L24,18L28,18L28,28L23.182,28L17.884999999999998,29.997Z" fill="#000000" fill-opacity="1"/></g><g></g></g></svg>