<svg xmlns="http://www.w3.org/2000/svg" xmlns:xlink="http://www.w3.org/1999/xlink" fill="none" version="1.1" width="32" height="32" viewBox="0 0 32 32"><defs><clipPath id="master_svg0_134_17590"><rect x="0" y="0" width="32" height="32" rx="0"/></clipPath></defs><g clip-path="url(#master_svg0_134_17590)"><g><path d="M28.00004073638916,16.00004073638916L18.00000073638916,16.00004073638916L18.00000073638916,14.00004073638916L23.00000073638916,14.00004073638916L23.00000073638916,10.00004073638916C23.00000073638916,8.89543073638916,23.89543073638916,8.00000073638916,25.00000073638916,8.00000073638916L26.50004073638916,8.00000073638916C27.27414073638916,8.00128073638916,27.92214073638916,7.41316073638916,27.99574073638916,6.64247073638916C28.069240736389162,5.87179073638916,27.54414073638916,5.17174073638916,26.78374073638916,5.0266007363891605L26.07284073638916,4.89110073638916L25.99820073638916,4.32000073638916C25.89378073638916,3.3342607363891603,25.24444073638916,2.4907707363891602,24.31820073638916,2.13770073638916C23.10809073638916,1.72088073638916,21.77838073638916,2.2832707363891602,21.23460073638916,3.4419007363891603L20.93140073638916,4.0891007363891605L20.22140073638916,4.01200073638916C18.86012073638916,3.87861073638916,17.763120736389162,5.10922073638916,18.05140073638916,6.44630073638916C18.30197073638916,7.38064073638916,19.15901073638916,8.02245073638916,20.126100736389162,8.00000073638916L21.00000073638916,8.00000073638916L21.00000073638916,10.00004073638916L20.21830073638916,10.00004073638916C18.074210736389162,10.042940736389161,16.25072073638916,8.44479073638916,16.01199913638916,6.31360073638916C15.83948373638916,4.08585073638916,17.52339073638916,2.1478407363891603,19.75340073638916,2.0076007363891604C20.72510073638916,0.5470817363891601,22.45688073638916,-0.21574226361083984,24.19038073638916,0.053172536389160155C25.923880736389158,0.32208773638916016,27.34314073638916,1.5737307363891602,27.826740736389162,3.26000073638916C29.301140736389158,3.86556073638916,30.18134073638916,5.389680736389161,29.968940736389158,6.969400736389161C29.67254073638916,8.74592073638916,28.11794073638916,10.03614073638916,26.31724073638916,10.00004073638916L25.00000073638916,10.00004073638916L25.00000073638916,14.00004073638916L28.00004073638916,14.00004073638916L28.00004073638916,16.00004073638916Z" fill="#000000" fill-opacity="1"/></g><g><rect x="18" y="18" width="4" height="2" rx="0" fill="#000000" fill-opacity="1"/></g><g><path d="M14,18L14,16L12,16L12,20L16,20L16,18L14,18Z" fill="#000000" fill-opacity="1"/></g><g><rect x="12" y="10" width="2" height="4" rx="0" fill="#000000" fill-opacity="1"/></g><g><path d="M17.884999999999998,30L11.818999999999999,26.142L4,27.989L4,4L14,4L14,8L12,8L12,6L6,6L6,25.461L12.181,24.001L18.115000000000002,27.776L22.818,26L26,26L26,20L24,20L24,18L28,18L28,28L23.182,28L17.884999999999998,30Z" fill="#000000" fill-opacity="1"/></g><g></g></g></svg>