<svg xmlns="http://www.w3.org/2000/svg" xmlns:xlink="http://www.w3.org/1999/xlink" fill="none" version="1.1" width="32" height="32" viewBox="0 0 32 32"><defs><clipPath id="master_svg0_134_17620"><rect x="0" y="0" width="32" height="32" rx="0"/></clipPath></defs><g clip-path="url(#master_svg0_134_17620)"><g><path d="M11.999995720520019,19.999967780303955L6.99999572052002,19.999967780303955C6.3496657205200195,20.000167780303954,5.87248572052002,20.611267780303955,6.029995720520019,21.242167780303955L6.96919572052002,24.999967780303955L9.030795720520018,24.999967780303955L8.280795720520018,21.999967780303955L23.71915572052002,21.999967780303955L22.96915572052002,24.999967780303955L25.03075572052002,24.999967780303955L25.97015572052002,21.242167780303955C26.12775572052002,20.611167780303955,25.650355720520018,19.999967780303955,24.99995572052002,19.999967780303955L13.999955720520019,19.999967780303955L13.999955720520019,2.9999977803039553C14.00005572052002,2.569752780303955,13.72495572052002,2.187687780303955,13.316855720520019,2.051359680303955C12.90875572052002,1.915031480303955,12.45925572052002,2.055003680303955,12.20065572052002,2.398899780303955L2.2074997205200195,15.390567780303956C1.9754201205200195,15.692567780303955,1.9349931205200195,16.100067780303956,2.1032317205200197,16.441767780303955C2.2714707205200195,16.783467780303955,2.6191667205200195,16.999867780303955,2.9999997205200195,16.999967780303955L11.999995720520019,16.999967780303955L11.999995720520019,19.999967780303955ZM5.03079572052002,14.999967780303955L11.999995720520019,5.939997780303955L11.999995720520019,14.999967780303955L5.03079572052002,14.999967780303955Z" fill="#000000" fill-opacity="1"/></g><g><path d="M26.905800061798097,25.75099993286133C26.563900061798094,27.07595493286133,25.368300061798095,28.001314932861327,24.000000061798097,28.00000493286133C22.607000061798097,27.91868493286133,21.401400061798096,27.003434932861328,20.948700061798096,25.683599932861327C20.810700061798094,25.27666093286133,20.429700061798094,25.002117152861327,20.000000061798097,24.999999999861327C19.570500061798096,24.99677086286133,19.188100061798096,25.270955932861327,19.053200061798094,25.678699932861328C18.601300061798096,27.00067493286133,17.394700061798098,27.91802493286133,16.000000061798097,28.00000493286133C14.607000061798095,27.91868493286133,13.401400061798096,27.003434932861328,12.948700061798096,25.683599932861327C12.810710061798096,25.27666093286133,12.429690061798096,25.002117152861327,12.000000061798096,24.999999999861327C11.568670061798096,24.99077224286133,11.182980061798096,25.26724993286133,11.053200061798096,25.678699932861328C10.601270061798097,27.00067493286133,9.394680061798095,27.91802493286133,8.000000061798096,28.00000493286133C6.631660061798096,28.001314932861327,5.436060061798096,27.07595493286133,5.094200061798096,25.75099993286133L3.1577000617980957,26.24899493286133C3.7263190617980957,28.45809493286133,5.718900061798095,30.00161493286133,8.000000061798096,30.00000493286133C9.574090061798096,30.01392493286133,11.060250061798095,29.27556493286133,12.000000061798096,28.01269493286133C14.008400061798095,30.662444932861327,17.991600061798096,30.662444932861327,20.000000061798097,28.01269493286133C20.939700061798096,29.27556493286133,22.425900061798096,30.01392493286133,24.000000061798097,30.00000493286133C26.281100061798096,30.00161493286133,28.273700061798095,28.45809493286133,28.842300061798095,26.24900493286133L26.905800061798097,25.75099993286133Z" fill="#000000" fill-opacity="1"/></g><g></g><g><path d="M29.911519619750976,13.935536239624023L23.628399619750976,2.3706002396240233C23.501949619750977,2.1419542396240234,23.261279619750976,2.0000362396240234,22.999999619750977,2.0000362396240234C22.738719619750977,2.0000362396240234,22.498049619750976,2.1419542396240234,22.371599619750977,2.3706002396240233L16.088499019750977,13.935536239624023C15.827223619750976,14.415036239624023,16.173938619750977,14.999436239624023,16.719999619750975,15.000036239624023L29.280019619750977,15.000036239624023C29.826019619750976,14.999436239624023,30.172819619750975,14.415036239624023,29.911519619750976,13.935536239624023ZM22.249999619750977,5.999996239624023L23.749999619750977,5.999996239624023L23.749999619750977,9.999996239624023L22.249999619750977,9.999996239624023L22.249999619750977,5.999996239624023ZM22.999999619750977,13.000036239624023C22.447719619750977,13.000036239624023,21.999999619750977,12.552236239624023,21.999999619750977,11.999996239624023C21.999999619750977,11.447716239624024,22.447719619750977,10.999996239624023,22.999999619750977,10.999996239624023C23.552279619750976,10.999996239624023,23.999999619750977,11.447716239624024,23.999999619750977,11.999996239624023C23.999999619750977,12.552236239624023,23.552279619750976,13.000036239624023,22.999999619750977,13.000036239624023Z" fill="#000000" fill-opacity="1"/></g><g></g></g></svg>