<svg xmlns="http://www.w3.org/2000/svg" xmlns:xlink="http://www.w3.org/1999/xlink" fill="none" version="1.1" width="32" height="32" viewBox="0 0 32 32"><defs><clipPath id="master_svg0_134_24166"><rect x="0" y="0" width="32" height="32" rx="0"/></clipPath></defs><g clip-path="url(#master_svg0_134_24166)"><g><path d="M18,13L18,4L16,4L16,6L13,6L13,8L16,8L16,13L13,13L13,15L21,15L21,13L18,13Z" fill="#000000" fill-opacity="1"/></g><g><path d="M16.5,20C18.433,20,20,21.567,20,23.5C20,25.433,18.433,27,16.5,27C14.567,27,13,25.433,13,23.5C13,21.567,14.567,20,16.5,20ZM16.5,18C13.46243,18.00000190735,11,20.46243,11,23.5C11,26.537570000000002,13.46243,29,16.5,29C19.537570000000002,29,22,26.537570000000002,22,23.5C22,20.46243,19.537570000000002,18.00000190735,16.5,18Z" fill="#000000" fill-opacity="1"/></g><g><path d="M8,30L2,30L2,2L8,2L8,4L4,4L4,28L8,28L8,30Z" fill="#000000" fill-opacity="1"/></g><g><path d="M30,30L24,30L24,28L28,28L28,4L24,4L24,2L30,2L30,30Z" fill="#000000" fill-opacity="1"/></g><g></g></g></svg>