<svg xmlns="http://www.w3.org/2000/svg" xmlns:xlink="http://www.w3.org/1999/xlink" fill="none" version="1.1" width="32" height="32" viewBox="0 0 32 32"><defs><clipPath id="master_svg0_134_17668"><rect x="0" y="0" width="32" height="32" rx="0"/></clipPath></defs><g clip-path="url(#master_svg0_134_17668)"><g><rect x="22" y="19" width="2" height="5" rx="0" fill="#000000" fill-opacity="1"/></g><g><path d="M23,31C18.58172,31,15,27.418300000000002,15,23C15,18.58172,18.58172,15,23,15C27.418300000000002,15,31,18.58172,31,23C31,27.418300000000002,27.418300000000002,31,23,31ZM23,17C19.68629,17,17,19.68629,17,23C17,26.3137,19.68629,29,23,29C26.3137,29,29,26.3137,29,23C29,19.68629,26.3137,17,23,17Z" fill="#000000" fill-opacity="1"/></g><g><ellipse cx="23" cy="26" rx="1" ry="1" fill="#000000" fill-opacity="1"/></g><g><path d="M20,2L4,2C2.895431,2,2,2.895431,2,4L2,8C2,9.104569999999999,2.895431,10,4,10L4,28C4,29.1046,4.89543,30,6,30L14,30L14,28L6,28L6,26L11,26L11,12L6,12L6,10L18,10L18,13L20,13L20,10C21.1046,10,22,9.104569999999999,22,8L22,4C22,2.895431,21.1046,2,20,2ZM9,14L9,24L6,24L6,14L9,14ZM4,8L4,4L20,4L20,8L4,8Z" fill="#000000" fill-opacity="1"/></g><g></g></g></svg>