<svg xmlns="http://www.w3.org/2000/svg" xmlns:xlink="http://www.w3.org/1999/xlink" fill="none" version="1.1" width="32" height="32" viewBox="0 0 32 32"><defs><clipPath id="master_svg0_134_17676"><rect x="0" y="0" width="32" height="32" rx="0"/></clipPath></defs><g clip-path="url(#master_svg0_134_17676)"><g><path d="M20,2L4,2C2.895431,2,2,2.895431,2,4L2,8C2,9.104569999999999,2.895431,10,4,10L4,28C4,29.1046,4.89543,30,6,30L18,30C19.1046,30,20,29.1046,20,28L20,10C21.1046,10,22,9.104569999999999,22,8L22,4C22,2.895431,21.1046,2,20,2ZM6,14L9,14L9,24L6,24L6,14ZM18,28L6,28L6,26L11,26L11,12L6,12L6,10L18,10L18,28ZM4,8L4,4L20,4L20,8L4,8Z" fill="#000000" fill-opacity="1"/></g><g><ellipse cx="26" cy="16" rx="4" ry="4" fill="#000000" fill-opacity="1"/></g><g></g></g></svg>