<svg xmlns="http://www.w3.org/2000/svg" xmlns:xlink="http://www.w3.org/1999/xlink" fill="none" version="1.1" width="32" height="32" viewBox="0 0 32 32"><defs><clipPath id="master_svg0_134_17757"><rect x="0" y="0" width="32" height="32" rx="0"/></clipPath></defs><g clip-path="url(#master_svg0_134_17757)"><g><path d="M26,2L6,2C4.895431,2,4,2.895431,4,4L4,8C4,9.104569999999999,4.895431,10,6,10L15,10L15,16.17L12.41,13.59L11,15L16,20L21,15L19.59,13.59L17,16.17L17,10L26,10C27.1046,10,28,9.104569999999999,28,8L28,4C28,2.895431,27.1046,2,26,2ZM6,4L10,4L10,8L6,8L6,4ZM26,8L12,8L12,4L26,4L26,8Z" fill="#000000" fill-opacity="1"/></g><g><path d="M26,22L6,22C4.895431,22,4,22.89543,4,24L4,28C4,29.10457,4.895431,30,6,30L26,30C27.1046,30,28,29.10457,28,28L28,24C28,22.89543,27.1046,22,26,22ZM6,24L20,24L20,28L6,28L6,24ZM26,28L22,28L22,24L26,24L26,28Z" fill="#000000" fill-opacity="1"/></g><g></g></g></svg>