<svg xmlns="http://www.w3.org/2000/svg" xmlns:xlink="http://www.w3.org/1999/xlink" fill="none" version="1.1" width="32" height="32" viewBox="0 0 32 32"><defs><clipPath id="master_svg0_134_17768"><rect x="0" y="0" width="32" height="32" rx="0"/></clipPath></defs><g clip-path="url(#master_svg0_134_17768)"><g><path d="M24.5857,6.5859C24.2115,6.2095,23.7022,5.99851,23.1714,6L16,6L16,2L14,2L14,6L6,6C4.896001,6.00138,4.00137711,6.896,4,8L4,14C4.00137663,15.104,4.896001,15.9986,6,16L14,16L14,30L16,30L16,16L23.1714,16C23.7022,16.0015,24.2115,15.7905,24.5857,15.4141L29,11L24.5857,6.5859ZM23.1714,14L6,14L6,8L23.1716,8L26.1716,11L23.1714,14Z" fill="#000000" fill-opacity="1"/></g><g></g></g></svg>