<svg xmlns="http://www.w3.org/2000/svg" xmlns:xlink="http://www.w3.org/1999/xlink" fill="none" version="1.1" width="24" height="24" viewBox="0 0 24 24"><defs><clipPath id="master_svg0_134_08925"><rect x="0" y="0" width="24" height="24" rx="0"/></clipPath></defs><g clip-path="url(#master_svg0_134_08925)"><g></g><g><path d="M12,1C6,1,1,6,1,12C1,18,6,23,12,23C18,23,23,18.1,23,12C23,5.9,18.1,1,12,1ZM16.2,17.5L12,13.3L7.8,17.5L6.5,16.2L10.7,12L6.5,7.8L7.8,6.5L12,10.7L16.2,6.5L17.5,7.8L13.3,12L17.5,16.2L16.2,17.5Z" fill="#000000" fill-opacity="1"/></g><g style="opacity:0;"><path d="M16.2,17.5L12,13.3L7.8,17.5L6.5,16.2L10.7,12L6.5,7.8L7.8,6.5L12,10.7L16.2,6.5L17.5,7.8L13.3,12L17.5,16.2L16.2,17.5Z" fill="#000000" fill-opacity="1"/></g></g></svg>