<svg xmlns="http://www.w3.org/2000/svg" xmlns:xlink="http://www.w3.org/1999/xlink" fill="none" version="1.1" width="32" height="32" viewBox="0 0 32 32"><defs><clipPath id="master_svg0_134_17816"><rect x="0" y="0" width="32" height="32" rx="0"/></clipPath></defs><g clip-path="url(#master_svg0_134_17816)"><g><rect x="28" y="12" width="2" height="3" rx="0" fill="#000000" fill-opacity="1"/></g><g><rect x="24" y="7" width="2" height="13" rx="0" fill="#000000" fill-opacity="1"/></g><g><rect x="20" y="11" width="2" height="5" rx="0" fill="#000000" fill-opacity="1"/></g><g><rect x="16" y="9" width="2" height="9" rx="0" fill="#000000" fill-opacity="1"/></g><g><rect x="12" y="12" width="2" height="3" rx="0" fill="#000000" fill-opacity="1"/></g><g><ellipse cx="13.5" cy="24.5" rx="1.5" ry="1.5" fill="#000000" fill-opacity="1"/></g><g><path d="M20,30L7,30C5.895956,29.9987,5.00126839,29.104,5,28L5,4C5.00126696,2.895956,5.895956,2.00126719,7,2L20,2L20,4L7,4L7,28L20,28L20,24L22,24L22,28C21.9987,29.104,21.104,29.9987,20,30Z" fill="#000000" fill-opacity="1"/></g><g></g></g></svg>