<svg xmlns="http://www.w3.org/2000/svg" xmlns:xlink="http://www.w3.org/1999/xlink" fill="none" version="1.1" width="32" height="32" viewBox="0 0 32 32"><defs><clipPath id="master_svg0_134_17827"><rect x="0" y="0" width="32" height="32" rx="0"/></clipPath></defs><g clip-path="url(#master_svg0_134_17827)"><g><path d="M20,27.18000015258789L17.41,24.59000015258789L16,26.00000015258789L20,30.00000015258789L28,22.00000015258789L26.59,20.59000015258789L20,27.18000015258789Z" fill="#000000" fill-opacity="1"/></g><g><path d="M10,28L10,10L22,10L22,19L24,19L24,6C23.9987,4.895955,23.104,4.00126648,22,4L10,4C8.895887,4.00110292,8.00110245,4.895887,8,6L8,28C8.00126839,29.104,8.895956,29.9987,10,30L14,30L14,28L10,28ZM10,6L22,6L22,8L10,8L10,6Z" fill="#000000" fill-opacity="1"/></g><g></g></g></svg>