<svg xmlns="http://www.w3.org/2000/svg" xmlns:xlink="http://www.w3.org/1999/xlink" fill="none" version="1.1" width="32" height="32" viewBox="0 0 32 32"><defs><clipPath id="master_svg0_134_17883"><rect x="0" y="0" width="32" height="32" rx="0"/></clipPath></defs><g clip-path="url(#master_svg0_134_17883)"><g><path d="M29.337898688697816,19.933604277954103L21.605498688697814,17.1553042779541L18.373998688697814,13.096704277954101C17.804798688697815,12.400910277954102,16.952698688697815,11.9981670379541,16.053698688697814,12.000000000004102L8.057598688697816,12.000000000004102C7.064778688697815,11.999588965954102,6.136128688697815,12.490684277954102,5.577598688697815,13.311504277954102L2.866199688697815,17.294904277954103C2.301208688697815,18.1239642779541,1.999336361697815,19.1041242779541,1.9999999999978149,20.107404277954103L1.9999999999978149,25.9999942779541C1.9999999999978149,26.552294277954104,2.447715688697815,26.9999942779541,2.999998688697815,26.9999942779541L5.142098688697815,26.9999942779541C5.590668688697814,28.764594277954103,7.1792986886978145,29.999894277954102,8.999998688697815,29.999894277954102C10.820698688697815,29.999894277954102,12.409298688697815,28.764594277954103,12.857898688697816,26.9999942779541L19.142098688697814,26.9999942779541C19.590698688697813,28.764594277954103,21.179298688697816,29.999894277954102,22.999998688697815,29.999894277954102C24.820698688697814,29.999894277954102,26.409298688697817,28.764594277954103,26.857898688697816,26.9999942779541L28.999998688697815,26.9999942779541C29.552298688697814,26.9999942779541,29.999998688697815,26.552294277954104,29.999998688697815,25.9999942779541L29.999998688697815,20.8750042779541C30.000098688697815,20.4529142779541,29.735198688697814,20.076224277954104,29.337898688697816,19.933604277954103ZM8.999998688697815,27.9999942779541C7.895428688697815,27.9999942779541,6.999998688697815,27.1045942779541,6.999998688697815,25.9999942779541C6.999998688697815,24.895394277954104,7.895428688697815,23.9999942779541,8.999998688697815,23.9999942779541C10.104568688697816,23.9999942779541,10.999998688697815,24.895394277954104,10.999998688697815,25.9999942779541C10.998508688697815,27.1039942779541,10.103948688697814,27.9984942779541,8.999998688697815,27.9999942779541ZM22.999998688697815,27.9999942779541C21.895398688697814,27.9999942779541,20.999998688697815,27.1045942779541,20.999998688697815,25.9999942779541C20.999998688697815,24.895394277954104,21.895398688697814,23.9999942779541,22.999998688697815,23.9999942779541C24.104598688697816,23.9999942779541,24.999998688697815,24.895394277954104,24.999998688697815,25.9999942779541C24.998598688697815,27.1039942779541,24.103998688697814,27.9985942779541,22.999998688697815,27.9999942779541ZM27.999998688697815,24.9999942779541L26.857898688697816,24.9999942779541C26.409298688697817,23.2353942779541,24.820698688697814,22.0000942779541,22.999998688697815,22.0000942779541C21.179298688697816,22.0000942779541,19.590698688697813,23.2353942779541,19.142098688697814,24.9999942779541L12.857898688697816,24.9999942779541C12.409298688697815,23.2353942779541,10.820698688697815,22.0000942779541,8.999998688697815,22.0000942779541C7.1792986886978145,22.0000942779541,5.590668688697814,23.2353942779541,5.142098688697815,24.9999942779541L3.999998688697815,24.9999942779541L3.999998688697815,20.107404277954103C3.9997686886978148,19.505104277954104,4.180978688697815,18.9167142779541,4.5199986886978145,18.418904277954102L7.230998688697815,14.437504277954101C7.416918688697815,14.163834277954102,7.726468688697815,13.999994277954102,8.057598688697816,14.000004277954101L16.053698688697814,14.000004277954101C16.348598688697813,13.998724277954102,16.628798688697813,14.128624277954101,16.818398688697815,14.354504277954101L20.217798688697815,18.622994277954103C20.333498688697816,18.7683042779541,20.487298688697816,18.878554277954102,20.662098688697814,18.941394277954103L27.999998688697815,21.578104277954104L27.999998688697815,24.9999942779541Z" fill="#000000" fill-opacity="1"/></g><g><path d="M28,2L24,2C22.895955999999998,2.00126648,22.00126648,2.895955,22,4L22,12C22.00126648,13.104,22.895955999999998,13.9987,24,14L28,14C29.10404,13.9987,29.998730000000002,13.104,30,12L30,4C29.998730000000002,2.895956,29.10404,2.00126863,28,2ZM28,4L28,6L24,6L24,4L28,4ZM24,12L24,8L28,8L28,12L24,12Z" fill="#000000" fill-opacity="1"/></g><g></g></g></svg>