<svg xmlns="http://www.w3.org/2000/svg" xmlns:xlink="http://www.w3.org/1999/xlink" fill="none" version="1.1" width="32" height="32" viewBox="0 0 32 32"><defs><clipPath id="master_svg0_134_17833"><rect x="0" y="0" width="32" height="32" rx="0"/></clipPath></defs><g clip-path="url(#master_svg0_134_17833)"><g><path d="M30.00000007019043,20L26.00000007019043,16L24.58589907019043,17.4141L27.17140007019043,20L24.17140007019043,23L27.17140007019043,26L24.58589907019043,28.585900000000002L26.00000007019043,30L30.00000007019043,26L27.00000007019043,23L30.00000007019043,20Z" fill="#000000" fill-opacity="1"/></g><g><path d="M23.00000007019043,20L19.00000007019043,16L17.58589907019043,17.4141L20.17140007019043,20L17.17140007019043,23L20.17140007019043,26L17.58589907019043,28.585900000000002L19.00000007019043,30L23.00000007019043,26L20.00000007019043,23L23.00000007019043,20Z" fill="#000000" fill-opacity="1"/></g><g><path d="M15,28L9,28L9,8L23,8L23,14L25,14L25,4C25,2.8970000000000002,24.1025,2,23,2L9,2C7.897,2,7,2.8970000000000002,7,4L7,28C7,29.1025,7.897,30,9,30L15,30L15,28ZM9,4L23,4L23,6L9,6L9,4Z" fill="#000000" fill-opacity="1"/></g><g></g></g></svg>