<svg xmlns="http://www.w3.org/2000/svg" xmlns:xlink="http://www.w3.org/1999/xlink" fill="none" version="1.1" width="32" height="32" viewBox="0 0 32 32"><defs><clipPath id="master_svg0_134_17894"><rect x="0" y="0" width="32" height="32" rx="0"/></clipPath></defs><g clip-path="url(#master_svg0_134_17894)"><g><path d="M28.4473,16.10547878074646L23,13.38177878074646L23,6.99999878074646C23,6.62121878074646,22.7861,6.27492878074646,22.4473,6.10549878074646L16.4473,3.10549978074646C16.1657,2.9648048807464598,15.8343,2.9648048807464598,15.5527,3.10549978074646L9.5527,6.10549878074646C9.21397,6.2748587807464595,9,6.62114878074646,9,6.99999878074646L9,13.38177878074646L3.5526999999999997,16.10547878074646C3.2139699999999998,16.274878780746462,3,16.62117878074646,3,16.99997878074646L3,23.99997878074646C2.9999558926,24.378778780746458,3.213926,24.72507878074646,3.5526999999999997,24.89447878074646L9.5527,27.89447878074646C9.83431,28.03517878074646,10.16569,28.03517878074646,10.4473,27.89447878074646L16,25.11817878074646L21.5527,27.89447878074646C21.8343,28.03517878074646,22.1657,28.03517878074646,22.4473,27.89447878074646L28.4473,24.89447878074646C28.786,24.72517878074646,29,24.37887878074646,29,23.99997878074646L29,16.99997878074646C29,16.62117878074646,28.7861,16.274878780746462,28.4473,16.10547878074646ZM21,13.38177878074646L17,15.38177878074646L17,10.61819878074646L21,8.61819878074646L21,13.38177878074646ZM16,5.11819878074646L19.7637,6.99999878074646L16,8.881798780746461L12.2363,6.99999878074646L16,5.11819878074646ZM11,8.61819878074646L15,10.61819878074646L15,15.38177878074646L11,13.38177878074646L11,8.61819878074646ZM9,25.38177878074646L5,23.38177878074646L5,18.61817878074646L9,20.61817878074646L9,25.38177878074646ZM10,18.88177878074646L6.2363,16.99997878074646L10,15.11817878074646L13.7637,16.99997878074646L10,18.88177878074646ZM11,20.61817878074646L15,18.61817878074646L15,23.38177878074646L11,25.38177878074646L11,20.61817878074646ZM21,25.38177878074646L17,23.38177878074646L17,18.61817878074646L21,20.61817878074646L21,25.38177878074646ZM22,18.88177878074646L18.2363,16.99997878074646L22,15.11817878074646L25.7637,16.99997878074646L22,18.88177878074646ZM27,23.38177878074646L23,25.38177878074646L23,20.61817878074646L27,18.61817878074646L27,23.38177878074646Z" fill="#000000" fill-opacity="1"/></g><g></g></g></svg>