<svg xmlns="http://www.w3.org/2000/svg" xmlns:xlink="http://www.w3.org/1999/xlink" fill="none" version="1.1" width="32" height="32" viewBox="0 0 32 32"><defs><clipPath id="master_svg0_134_17968"><rect x="0" y="0" width="32" height="32" rx="0"/></clipPath></defs><g clip-path="url(#master_svg0_134_17968)"><g><path d="M21.743028884887696,18.692130921936034C22.139528884887696,18.375630921936036,22.494628884887696,18.010630921936034,22.800028884887695,17.605500921936034C25.154028884887694,14.472490921936036,23.920228884887695,9.960520921936036,20.299528884887696,8.461298921936034C16.678828884887693,6.962080921936035,12.616528884887696,9.281070921936035,12.066628884887695,13.161100921936036C9.379988884887695,13.695740921936036,7.193078884887695,15.642420921936036,6.350798884887696,18.249030921936033C3.474478884887695,19.068430921936034,1.6426338848876954,21.883030921936033,2.0581302848876954,24.844830921936037C2.4736258848876953,27.806630921936033,5.009238884887695,30.008630921936035,7.999998884887695,30.004930921936037L19.000028884887694,30.004930921936037C21.767828884887695,30.011730921936035,24.179328884887695,28.119830921936035,24.831528884887696,25.429930921936034C25.483728884887697,22.740030921936036,24.206528884887696,19.953730921936035,21.743028884887696,18.692130921936034ZM18.000028884887694,10.004900921936034C20.208228884887696,10.007220921936035,21.997728884887696,11.796720921936036,22.000028884887694,14.004900921936034C22.002728884887695,14.870630921936035,21.721728884887696,15.713410921936035,21.200028884887697,16.404300921936034C20.937028884887695,16.750500921936037,20.619528884887696,17.051660921936033,20.260028884887696,17.296000921936034C19.105828884887696,14.900210921936036,16.775228884887696,13.289370921936035,14.126128884887695,13.056500921936035C14.561728884887696,11.269300921936034,16.160528884887697,10.009900921936035,18.000028884887694,10.004900921936034ZM19.000028884887694,28.004930921936037L7.999998884887695,28.004930921936037C5.922278884887696,28.009530921936037,4.188218884887695,26.420030921936036,4.012548884887695,24.349730921936036C3.8368688848876955,22.279430921936033,5.278298884887695,20.420430921936035,7.327098884887695,20.074930921936037L7.9899988848876955,19.962930921936035L8.135598884887695,19.306730921936037C8.695128884887694,16.793090921936034,10.924968884887695,15.005030921936035,13.500128884887696,15.005030921936035C16.075228884887693,15.005030921936035,18.305028884887694,16.793090921936034,18.864628884887697,19.306730921936037L19.011028884887697,19.962930921936035L19.673228884887696,20.075230921936033C21.721228884887694,20.421530921936036,23.161628884887694,22.280230921936035,22.985928884887695,24.349830921936036C22.810228884887696,26.419530921936037,21.077128884887696,28.008730921936035,19.000028884887694,28.004930921936037Z" fill="#000000" fill-opacity="1"/></g><g><rect x="26" y="13.004899978637695" width="4" height="2" rx="0" fill="#000000" fill-opacity="1"/></g><g transform="matrix(0.7071067690849304,-0.7071067690849304,0.7071067690849304,0.7071067690849304,1.3188739306933712,18.46626881402335)"><rect x="22.9501953125" y="7.64111328125" width="3.9999001026153564" height="1.9997999668121338" rx="0" fill="#000000" fill-opacity="1"/></g><g><rect x="17" y="2.0048999786376953" width="2" height="4" rx="0" fill="#000000" fill-opacity="1"/></g><g transform="matrix(0.7071067690849304,-0.7071067690849304,0.7071067690849304,0.7071067690849304,-1.8231455714005733,8.051644598734697)"><rect x="8.807621955871582" y="6.226553916931152" width="1.9997999668121338" height="4.00029993057251" rx="0" fill="#000000" fill-opacity="1"/></g><g></g></g></svg>