<svg xmlns="http://www.w3.org/2000/svg" xmlns:xlink="http://www.w3.org/1999/xlink" fill="none" version="1.1" width="32" height="32" viewBox="0 0 32 32"><defs><clipPath id="master_svg0_134_18004"><rect x="0" y="0" width="32" height="32" rx="0"/></clipPath></defs><g clip-path="url(#master_svg0_134_18004)"><g><path d="M28,9L22,9L22,11L28,11L28,15L24,15L24,17L28,17L28,21L22,21L22,23L28,23C29.10457,23,30,22.104599999999998,30,21L30,11C30,9.895431,29.10457,9,28,9Z" fill="#000000" fill-opacity="1"/></g><g><path d="M14,23L12,23L12,9L18,9C19.10457,9,20,9.895431,20,11L20,16C20,17.104570000000002,19.10457,18,18,18L14,18L14,23ZM14,16L18,16L18,11L14,11L14,16Z" fill="#000000" fill-opacity="1"/></g><g><path d="M8,9L6.49,14L6,15.98L5.54,14L4,9L2,9L2,23L4,23L4,15L3.84,13L4.42,15L6,19.630000000000003L7.58,15L8.16,13L8,15L8,23L10,23L10,9L8,9Z" fill="#000000" fill-opacity="1"/></g><g></g></g></svg>