<svg xmlns="http://www.w3.org/2000/svg" xmlns:xlink="http://www.w3.org/1999/xlink" fill="none" version="1.1" width="32" height="32" viewBox="0 0 32 32"><defs><clipPath id="master_svg0_134_18059"><rect x="0" y="0" width="32" height="32" rx="0"/></clipPath></defs><g clip-path="url(#master_svg0_134_18059)"><g><path d="M7,12L4,12C2.895956,11.99873,2.00126743,11.104040000000001,2,10L2,6C2.00126719,4.895956,2.895956,4.00126743,4,4L7,4L7,6L4,6L4,10L7,10L7,12Z" fill="#000000" fill-opacity="1"/></g><g><rect x="9" y="10" width="6" height="2" rx="0" fill="#000000" fill-opacity="1"/></g><g><rect x="17" y="10" width="6" height="2" rx="0" fill="#000000" fill-opacity="1"/></g><g><path d="M28,12L25,12L25,10L28,10L28,6L25,6L25,4L28,4C29.10404,4.00126839,29.998730000000002,4.895956,30,6L30,10C29.998730000000002,11.104040000000001,29.10404,11.99873,28,12Z" fill="#000000" fill-opacity="1"/></g><g><rect x="17" y="4" width="6" height="2" rx="0" fill="#000000" fill-opacity="1"/></g><g><rect x="9" y="4" width="6" height="2" rx="0" fill="#000000" fill-opacity="1"/></g><g><path d="M28,28L4,28C2.895956,27.998730000000002,2.00126743,27.10404,2,26L2,22C2.00126767,20.895955999999998,2.895956,20.00126648,4,20L28,20C29.104,20.00126839,29.9987,20.895955999999998,30,22L30,26C29.9987,27.10404,29.104,27.998730000000002,28,28ZM4,22L4,26L28,26L28,22L4,22Z" fill="#000000" fill-opacity="1"/></g><g><rect x="2" y="15" width="28" height="2" rx="0" fill="#000000" fill-opacity="1"/></g><g></g></g></svg>