<svg xmlns="http://www.w3.org/2000/svg" xmlns:xlink="http://www.w3.org/1999/xlink" fill="none" version="1.1" width="32" height="32" viewBox="0 0 32 32"><defs><clipPath id="master_svg0_134_18076"><rect x="0" y="0" width="32" height="32" rx="0"/></clipPath></defs><g clip-path="url(#master_svg0_134_18076)"><g><path d="M16,20C13.79086,20,12,18.209139999999998,12,16C12,13.79086,13.79086,12,16,12C18.209139999999998,12,20,13.79086,20,16C19.99752,18.208109999999998,18.208109999999998,19.99752,16,20ZM16,14C14.895430000000001,14,14,14.895430000000001,14,16C14,17.10457,14.895430000000001,18,16,18C17.10457,18,18,17.10457,18,16C17.99884,14.89591,17.10409,14.00116,16,14Z" fill="#171717" fill-opacity="1"/></g><g><path d="M24,24L8,24C6.895909,23.9988,6.00115585,23.104100000000003,6,22L6,10C6.00115776,8.89591,6.89591,8.00115776,8,8L24,8C25.1041,8.00115871,25.9988,8.89591,26,10L26,22C25.9988,23.104100000000003,25.1041,23.9988,24,24ZM8,10L8,22L24,22L24,10L8,10Z" fill="#171717" fill-opacity="1"/></g><g><path d="M28,28L4,28C2.895911,27.9988,2.00115824,27.1041,2,26L2,6C2.00115776,4.89591,2.8959099999999998,4.00115776,4,4L28,4C29.1041,4.00115824,29.9988,4.89591,30,6L30,26C29.9988,27.1041,29.1041,27.9988,28,28ZM4,6L4,26L28,26L28,6L4,6Z" fill="#171717" fill-opacity="1"/></g><g transform="matrix(-1,-1.2246468525851679e-16,1.2246468525851679e-16,-1,64,64)"></g></g></svg>