<svg xmlns="http://www.w3.org/2000/svg" xmlns:xlink="http://www.w3.org/1999/xlink" fill="none" version="1.1" width="32" height="32" viewBox="0 0 32 32"><defs><clipPath id="master_svg0_134_18162"><rect x="0" y="0" width="32" height="32" rx="0"/></clipPath></defs><g clip-path="url(#master_svg0_134_18162)"><g><path d="M22.00004622001648,28L9.99999622001648,28C9.65805622001648,28.0001,9.33978622001648,27.8254,9.15619622001648,27.5369L2.1562002200164794,16.5369C1.9477281200164795,16.2093,1.9477281200164795,15.7907,2.1562002200164794,15.4631L9.15619622001648,4.463099C9.33969622001648,4.174672,9.65795622001648,4,9.99999622001648,4L22.00004622001648,4C22.341946220016478,3.9999470711,22.66024622001648,4.17462,22.84384622001648,4.4631L29.84384622001648,15.4631C30.052246220016478,15.7907,30.052246220016478,16.2093,29.84384622001648,16.5369L22.84384622001648,27.5369C22.66034622001648,27.8253,22.342046220016478,28,22.00004622001648,28ZM10.548796220016479,26L21.45124622001648,26L27.814546220016478,16L21.45124622001648,6L10.548796220016479,6L4.185496220016479,16L10.548796220016479,26Z" fill="#171717" fill-opacity="1"/></g><g><path d="M19.499952587890625,24L12.500002587890625,24C12.159722587890625,24,11.842802587890624,23.826999999999998,11.658702587890625,23.5408L7.158699587890625,16.5408C6.947303287890625,16.21125,6.947303287890625,15.78875,7.158699587890625,15.4592L11.658702587890625,8.4592C11.842872587890625,8.172985,12.159802587890624,8,12.500002587890625,8L19.499952587890625,8C19.840252587890625,8.0000419617,20.157152587890625,8.173027,20.341252587890626,8.4592L24.841252587890626,15.4592C25.052652587890623,15.78875,25.052652587890623,16.21125,24.841252587890626,16.5408L20.341252587890626,23.5408C20.157152587890625,23.826999999999998,19.840152587890625,24,19.499952587890625,24ZM13.045902587890625,22L18.954052587890626,22L22.810952587890625,16L18.954052587890626,10L13.045902587890625,10L9.189002587890625,16L13.045902587890625,22Z" fill="#171717" fill-opacity="1"/></g><g transform="matrix(-1,-1.2246468525851679e-16,1.2246468525851679e-16,-1,64,64)"></g></g></svg>