<svg xmlns="http://www.w3.org/2000/svg" xmlns:xlink="http://www.w3.org/1999/xlink" fill="none" version="1.1" width="32" height="32" viewBox="0 0 32 32"><defs><clipPath id="master_svg0_134_18271"><rect x="0" y="0" width="32" height="32" rx="0"/></clipPath></defs><g clip-path="url(#master_svg0_134_18271)"><g><path d="M22,23L13.83,23L16.41,20.41L15,19L10,24L15,29L16.41,27.59L13.83,25L22,25L22,23Z" fill="#000000" fill-opacity="1"/></g><g><path d="M11,13L19.17,13L16.59,10.41L18,9L23,14L18,19L16.59,17.59L19.17,15L11,15L11,13Z" fill="#000000" fill-opacity="1"/></g><g><path d="M24.49997532249391,24.999960899353027L23.99997532249391,24.999960899353027L23.99997532249391,22.999960899353027L24.49997532249391,22.999960899353027C27.46337532249391,23.001960899353026,29.89477532249391,20.654160899353027,29.99647532249391,17.69246089935303C30.098175322493912,14.730860899353027,27.83357532249391,12.221860899353027,24.876975322493912,12.020460899353028L24.04047532249391,11.963900899353026L23.95047532249391,11.129900899353027C23.50777532249391,7.072670899353027,20.08107532249391,3.9996308993530274,15.99977532249391,3.9996308993530274C11.918475322493912,3.9996308993530274,8.49185532249391,7.072670899353027,8.049105322493912,11.129900899353027L7.959105322493911,11.963900899353026L7.122605322493911,12.020460899353028C4.165965322493911,12.221860899353027,1.9013153224939108,14.730960899353027,2.003115322493911,17.69266089935303C2.104925322493911,20.654460899353026,4.536515322493911,23.002160899353026,7.499995322493911,22.999960899353027L7.999995322493911,22.999960899353027L7.999995322493911,24.999960899353027L7.499995322493911,24.999960899353027C3.615575322493911,25.001860899353026,0.3731503224939108,22.036260899353028,0.02935562249391079,18.16706089935303C-0.3144386775060892,14.297860899353028,2.3542953224939107,10.807020899353027,6.17819532249391,10.124000899353028C7.0782253224939105,5.409810899353028,11.200675322493911,1.9999608993530273,15.99997532249391,1.9999608993530273C20.799375322493912,1.9999616146090273,24.92177532249391,5.409810899353028,25.82177532249391,10.124000899353028C29.64567532249391,10.807020899353027,32.31447532249391,14.297860899353028,31.97067532249391,18.16706089935303C31.626875322493913,22.036260899353028,28.38447532249391,25.001860899353026,24.49997532249391,24.999960899353027Z" fill="#000000" fill-opacity="1"/></g><g></g></g></svg>