<svg xmlns="http://www.w3.org/2000/svg" xmlns:xlink="http://www.w3.org/1999/xlink" fill="none" version="1.1" width="16" height="16" viewBox="0 0 16 16"><defs><clipPath id="master_svg0_134_08640"><rect x="0" y="0" width="16" height="16" rx="0"/></clipPath></defs><g clip-path="url(#master_svg0_134_08640)"><g><path d="M13,13L3,13L3,3L8,3L8,2L3,2C2.4,2,2,2.4,2,3L2,13C2,13.6,2.4,14,3,14L13,14C13.6,14,14,13.6,14,13L14,8L13,8L13,13Z" fill="#000000" fill-opacity="1"/></g><g><path d="M13,3L13,1L12,1L12,3L10,3L10,4L12,4L12,6L13,6L13,4L15,4L15,3L13,3Z" fill="#000000" fill-opacity="1"/></g><g></g></g></svg>