<svg xmlns="http://www.w3.org/2000/svg" xmlns:xlink="http://www.w3.org/1999/xlink" fill="none" version="1.1" width="32" height="32" viewBox="0 0 32 32"><defs><clipPath id="master_svg0_134_18284"><rect x="0" y="0" width="32" height="32" rx="0"/></clipPath></defs><g clip-path="url(#master_svg0_134_18284)"><g><g><path d="M26,26L6,26L6,6L16,6L16,4L6,4C4.895887,4.00110245,4.00110245,4.895887,4,6L4,26C4.00110245,27.1041,4.895887,27.9989,6,28L26,28C27.1041,27.9989,27.9989,27.1041,28,26L28,16L26,16L26,26Z" fill="#000000" fill-opacity="1"/></g><g><path d="M26,26L6,26L6,6L16,6L16,4L6,4C4.895887,4.00110245,4.00110245,4.895887,4,6L4,26C4.00110245,27.1041,4.895887,27.9989,6,28L26,28C27.1041,27.9989,27.9989,27.1041,28,26L28,16L26,16L26,26Z" fill="#000000" fill-opacity="1"/></g></g><g><path d="M26,6L26,2L24,2L24,6L20,6L20,8L24,8L24,12L26,12L26,8L30,8L30,6L26,6Z" fill="#000000" fill-opacity="1"/></g><g></g></g></svg>