<svg xmlns="http://www.w3.org/2000/svg" xmlns:xlink="http://www.w3.org/1999/xlink" fill="none" version="1.1" width="32" height="32" viewBox="0 0 32 32"><defs><clipPath id="master_svg0_134_18382"><rect x="0" y="0" width="32" height="32" rx="0"/></clipPath></defs><g clip-path="url(#master_svg0_134_18382)"><g><path d="M26,16.585900000000002L26,13C25.9989,11.43544,25.6264,9.89349,24.9131,8.501000000000001L30,3.4141L28.5859,2L2,28.5859L3.4141,30L9.414100000000001,24L11,24L11,25C11,27.7614,13.2386,30,16,30C18.7614,30,21,27.7614,21,25L21,24L28,24C28.5523,24,29,23.5523,29,23L29,20C29,19.7348,28.8946,19.4804,28.707,19.293L26,16.585900000000002ZM19,25C19,26.6569,17.6569,28,16,28C14.3431,28,13,26.6569,13,25L13,24L19,24L19,25Z" fill="#000000" fill-opacity="1"/></g><g><path d="M21.61,4.738300000000001C20.2389,3.79867,18.6537,3.21842,17,3.0508L17,1L15,1L15,3.0508C9.89344,3.57036,6.0066500000000005,7.86708,6,13L6,16.585900000000002L3.293,19.293C3.105406,19.4804,3,19.7347,3,20L3,23C3.00461698,23.0991,3.0243447,23.1969,3.0585001,23.29L21.61,4.738300000000001Z" fill="#000000" fill-opacity="1"/></g><g></g></g></svg>