<svg xmlns="http://www.w3.org/2000/svg" xmlns:xlink="http://www.w3.org/1999/xlink" fill="none" version="1.1" width="32" height="32" viewBox="0 0 32 32"><defs><clipPath id="master_svg0_134_18376"><rect x="0" y="0" width="32" height="32" rx="0"/></clipPath></defs><g clip-path="url(#master_svg0_134_18376)"><g><path d="M26,16.585900000000002L26,13C25.9991,11.43476,25.6279,9.89194,24.9167,8.4976L30,3.4141L28.5859,2L2,28.5859L3.4141,30L9.414100000000001,24L11,24L11,25C11,27.7614,13.2386,30,16,30C18.7614,30,21,27.7614,21,25L21,24L28,24C28.5523,24,29,23.5523,29,23L29,20C28.9999,19.7348,28.8946,19.4805,28.707,19.293L26,16.585900000000002ZM19,25C19,26.6569,17.6569,28,16,28C14.3431,28,13,26.6569,13,25L13,24L19,24L19,25ZM27,22L11.4141,22L23.4119,10.0024C23.7999,10.95418,23.9996,11.97218,24,13L24,17C24.0001,17.2652,24.1054,17.5195,24.293,17.707L27,20.4141L27,22Z" fill="#000000" fill-opacity="1"/></g><g><path d="M7.707,17.707C7.89461,17.5194,8,17.2651,8,17L8,13C8.00507,8.58382,11.58382,5.00507,16,5C17.8154,5.00097,19.5753,5.62512,20.9857,6.7681L22.4121,5.3418C20.8804,4.04976,18.9938,3.25113,17,3.0508L17,1L15,1L15,3.0508C9.89344,3.57036,6.0066500000000005,7.86708,6,13L6,16.585900000000002L3,19.5859L4.4140999999999995,21L7.707,17.707Z" fill="#000000" fill-opacity="1"/></g><g></g></g></svg>