<svg xmlns="http://www.w3.org/2000/svg" xmlns:xlink="http://www.w3.org/1999/xlink" fill="none" version="1.1" width="32" height="32" viewBox="0 0 32 32"><defs><clipPath id="master_svg0_134_18491"><rect x="0" y="0" width="32" height="32" rx="0"/></clipPath></defs><g clip-path="url(#master_svg0_134_18491)"><g><path d="M17,11L15,11C13.895431,11,13,11.895431,13,13L13,19C13,20.104570000000002,13.895431,21,15,21L17,21C18.10457,21,19,20.104570000000002,19,19L19,13C19,11.895431,18.10457,11,17,11ZM17,13L17,15L15,15L15,13L17,13ZM15,19L15,17L17,17L17,19L15,19Z" fill="#000000" fill-opacity="1"/></g><g></g></g></svg>