<svg xmlns="http://www.w3.org/2000/svg" xmlns:xlink="http://www.w3.org/1999/xlink" fill="none" version="1.1" width="32" height="32" viewBox="0 0 32 32"><defs><clipPath id="master_svg0_134_18532"><rect x="0" y="0" width="32" height="32" rx="0"/></clipPath></defs><g clip-path="url(#master_svg0_134_18532)"><g><path d="M22.7373,25C25.4183,22.3572,26.9499,18.7643,27,15C27,8.42,22.58,4,16,4C9.42,4,5,8.42,5,15C5.05013,18.7643,6.58167,22.3572,9.262699999999999,25L4,25L4,27L12,27L12,24.7617C8.9266,22.445,7.08411,18.8478,7,15C7,9.5327,10.5327,6,16,6C21.4673,6,25,9.5327,25,15C24.9159,18.8478,23.0734,22.445,20,24.7617L20,27L28,27L28,25L22.7373,25Z" fill="#000000" fill-opacity="1"/></g><g></g></g></svg>