<svg xmlns="http://www.w3.org/2000/svg" xmlns:xlink="http://www.w3.org/1999/xlink" fill="none" version="1.1" width="32" height="32" viewBox="0 0 32 32"><defs><clipPath id="master_svg0_134_24174"><rect x="0" y="0" width="32" height="32" rx="0"/></clipPath></defs><g clip-path="url(#master_svg0_134_24174)"><g><path d="M23,26L21,26L26,16L21,6L23,6L28,16L23,26Z" fill="#000000" fill-opacity="1"/></g><g><rect x="4" y="6" width="2" height="20" rx="0" fill="#000000" fill-opacity="1"/></g><g><path d="M16,9L12,9C10.895431,9,10,9.895431,10,11L10,21C10,22.104599999999998,10.895431,23,12,23L16,23C17.10457,23,18,22.104599999999998,18,21L18,11C18,9.895431,17.10457,9,16,9ZM16,21L12,21L12,11L16,11L16,21Z" fill="#000000" fill-opacity="1"/></g><g><rect x="13" y="15" width="2" height="2" rx="0" fill="#000000" fill-opacity="1"/></g><g></g></g></svg>