<svg xmlns="http://www.w3.org/2000/svg" xmlns:xlink="http://www.w3.org/1999/xlink" fill="none" version="1.1" width="16" height="16" viewBox="0 0 16 16"><defs><clipPath id="master_svg0_134_08662"><rect x="0" y="0" width="16" height="16" rx="0"/></clipPath></defs><g clip-path="url(#master_svg0_134_08662)"><g><g><path d="M1,13L1,12L3,12L3,9L5.999,9L6,6L9,6L9,3L13,3L13,12L15,12L15,13L1,13ZM5.999,10L4,10L4,12L5.999,12L5.999,10ZM8.998999999999999,7L6.999,7L6.999,9L6.999,9L7,12L8.998999999999999,12L8.998999999999999,7ZM12,4L10,4L10,12L12,12L12,4Z" fill="#000000" fill-opacity="1"/></g></g></g></svg>