<svg xmlns="http://www.w3.org/2000/svg" xmlns:xlink="http://www.w3.org/1999/xlink" fill="none" version="1.1" width="32" height="32" viewBox="0 0 32 32"><defs><clipPath id="master_svg0_134_18717"><rect x="0" y="0" width="32" height="32" rx="0"/></clipPath></defs><g clip-path="url(#master_svg0_134_18717)"><g><path d="M12,6L6,6C4.895431,6,4,6.895431,4,8L4,14C4,15.10457,4.895431,16,6,16L12,16C13.10457,16,14,15.10457,14,14L14,8C14,6.895431,13.10457,6,12,6ZM6,14L6,8L12,8L12,14L6,14Z" fill="#000000" fill-opacity="1"/></g><g><path d="M26,6L20,6C18.89543,6,18,6.895431,18,8L18,24C18,25.1046,18.89543,26,20,26L26,26C27.104570000000002,26,28,25.1046,28,24L28,8C28,6.895431,27.104570000000002,6,26,6ZM20,24L20,8L26,8L26,24L20,24Z" fill="#000000" fill-opacity="1"/></g><g></g></g></svg>