<svg xmlns="http://www.w3.org/2000/svg" xmlns:xlink="http://www.w3.org/1999/xlink" fill="none" version="1.1" width="32" height="32" viewBox="0 0 32 32"><defs><clipPath id="master_svg0_134_18750"><rect x="0" y="0" width="32" height="32" rx="0"/></clipPath></defs><g clip-path="url(#master_svg0_134_18750)"><g><path d="M25.999999046325684,19C23.794399046325683,19,21.999999046325684,20.7944,21.999999046325684,23C21.999999046325684,23.6836,22.188199046325682,24.3174,22.491699046325685,24.8809C20.615499046325684,26.253500000000003,18.345699046325684,27,15.999999046325684,27C9.934599046325683,27,4.999999046325684,22.0654,4.999999046325684,16L2.9999990463256836,16C2.9999990463256836,23.168,8.831799046325685,29,15.999999046325684,29C18.845499046325685,29,21.592299046325685,28.064,23.843299046325683,26.3584C24.466799046325683,26.7603,25.204599046325683,27,25.999999046325684,27C28.205599046325684,27,29.999999046325684,25.2056,29.999999046325684,23C29.999999046325684,20.7944,28.205599046325684,19,25.999999046325684,19ZM25.999999046325684,25C24.897199046325685,25,23.999999046325684,24.1025,23.999999046325684,23C23.999999046325684,21.8975,24.897199046325685,21,25.999999046325684,21C27.102799046325682,21,27.999999046325684,21.8975,27.999999046325684,23C27.999999046325684,24.1025,27.102799046325682,25,25.999999046325684,25Z" fill="#000000" fill-opacity="1"/></g><g><path d="M16,3C13.1545,3,10.4077,3.936,8.1567,5.6416C7.5332,5.2397,6.7954,5,6,5C3.7944,5,2,6.7943999999999996,2,9C2,11.2056,3.7944,13,6,13C8.2056,13,10,11.2056,10,9C10,8.3164,9.8118,7.6826,9.5083,7.1191C11.3845,5.7465,13.6543,5,16,5C22.0654,5,27,9.9346,27,16L29,16C29,8.832,23.1682,3,16,3ZM6,11C4.8972,11,4,10.1025,4,9C4,7.8975,4.8972,7,6,7C7.1028,7,8,7.8975,8,9C8,10.1025,7.1028,11,6,11Z" fill="#000000" fill-opacity="1"/></g><g></g></g></svg>