<svg xmlns="http://www.w3.org/2000/svg" xmlns:xlink="http://www.w3.org/1999/xlink" fill="none" version="1.1" width="32" height="32" viewBox="0 0 32 32"><defs><clipPath id="master_svg0_134_18820"><rect x="0" y="0" width="32" height="32" rx="0"/></clipPath></defs><g clip-path="url(#master_svg0_134_18820)"><g><path d="M21,2.0000000000013674C14.9593,1.9984517126513672,10.6331,7.831688092651367,12.3881,13.611798092651368L2,23.999998092651367L2,29.999998092651367L8,29.999998092651367L18.3881,19.611798092651366C23.6484,21.208998092651367,29.099,17.758298092651366,29.9055,12.320298092651367C30.7119,6.882328092651367,26.4974,1.9982607326513673,21,2.0000000000013674ZM21,17.999998092651367C20.3114,17.999598092651368,19.6267,17.897798092651367,18.9678,17.697798092651368L17.820999999999998,17.34999809265137L16.9738,18.197198092651366L13.7927,21.378398092651366L12.4141,19.999998092651367L11,21.41409809265137L12.3787,22.792698092651367L10.7928,24.378698092651366L9.414100000000001,22.999998092651367L8,24.41409809265137L9.3787,25.792698092651367L7.1716,27.999998092651367L4,27.999998092651367L4,24.828398092651366L13.8023,15.026098092651367L14.6495,14.178698092651366L14.3022,13.031998092651367C13.1012,9.072868092651367,15.5776,4.941448092651367,19.6354,4.134458092651367C23.6932,3.3274580926513675,27.5619,6.197008092651367,27.9671,10.314398092651366C28.3728,14.431298092651367,25.1377,17.999998092651367,21,17.999998092651367Z" fill="#000000" fill-opacity="1"/></g><g><ellipse cx="22" cy="10" rx="2" ry="2" fill="#000000" fill-opacity="1"/></g><g></g></g></svg>