<svg xmlns="http://www.w3.org/2000/svg" xmlns:xlink="http://www.w3.org/1999/xlink" fill="none" version="1.1" width="32" height="32" viewBox="0 0 32 32"><defs><clipPath id="master_svg0_134_18863"><rect x="0" y="0" width="32" height="32" rx="0"/></clipPath></defs><g clip-path="url(#master_svg0_134_18863)"><g><path d="M14,11L12,11L12,22L14,22L14,11Z" fill="#000000" fill-opacity="1"/></g><g><path d="M20,11L18,11L18,22L20,22L20,11Z" fill="#000000" fill-opacity="1"/></g><g><path d="M16,1.9999999999995521C12.2308,1.9988911139535523,8.62232,3.526819403953552,6,6.234299403953552L6,1.9999999999995521L4,1.9999999999995521L4,9.999999403953552L12,9.999999403953552L12,7.999999403953552L7.0783,7.999999403953552C12.4102,2.0794163039535523,21.9282,2.915284403953552,26.1465,9.674569403953551C30.3649,16.433899403953554,26.9336,25.35109940395355,19.2724,27.539299403953553C11.61119,29.72749940395355,3.9879,23.967599403953553,4,15.999999403953552L2,15.999999403953552C2,23.73199940395355,8.26801,29.999999403953552,16,29.999999403953552C23.732,29.999999403953552,30,23.73199940395355,30,15.999999403953552C30,8.268009403953553,23.732,1.9999999999995521,16,1.9999999999995521Z" fill="#000000" fill-opacity="1"/></g><g></g></g></svg>