<svg xmlns="http://www.w3.org/2000/svg" xmlns:xlink="http://www.w3.org/1999/xlink" fill="none" version="1.1" width="16" height="16" viewBox="0 0 16 16"><defs><clipPath id="master_svg0_134_08667"><rect x="0" y="0" width="16" height="16" rx="0"/></clipPath></defs><g clip-path="url(#master_svg0_134_08667)"><g><path d="M6,4L6,12L4,12L4,4L6,4ZM6,3L4,3C3.4,3,3,3.4,3,4L3,12C3,12.6,3.4,13,4,13L6,13C6.6,13,7,12.6,7,12L7,4C7,3.4,6.6,3,6,3Z" fill="#000000" fill-opacity="1"/></g><g><path d="M12,4L12,12L10,12L10,4L12,4ZM12,3L10,3C9.4,3,9,3.4,9,4L9,12C9,12.6,9.4,13,10,13L12,13C12.6,13,13,12.6,13,12L13,4C13,3.4,12.6,3,12,3Z" fill="#000000" fill-opacity="1"/></g><g></g></g></svg>