<svg xmlns="http://www.w3.org/2000/svg" xmlns:xlink="http://www.w3.org/1999/xlink" fill="none" version="1.1" width="32" height="32" viewBox="0 0 32 32"><defs><clipPath id="master_svg0_134_18890"><rect x="0" y="0" width="32" height="32" rx="0"/></clipPath></defs><g clip-path="url(#master_svg0_134_18890)"><g><path d="M20,9L12,9L12,11L18,11L12,21L12,23L20,23L20,21L14,21L20,11L20,9Z" fill="#000000" fill-opacity="1"/></g><g><path d="M30.414119788742067,17.414120027160646C31.195319788742065,16.633220027160647,31.195319788742065,15.366820027160644,30.414119788742067,14.585920027160645L24.627219788742064,8.799300027160644L27.527819788742065,5.936500027160645C28.736019788742066,6.235900027160644,29.921719788742067,5.371680027160645,30.006419788742065,4.129780027160645C30.091219788742066,2.8878900271606445,29.034019788742064,1.8705800271606445,27.796319788742064,2.0030300271606443C26.558519788742064,2.1354800271606447,25.740519788742066,3.3534600271606445,26.086219788742067,4.549300027160644L23.212919788742067,7.384800027160645L17.414119788742067,1.5859000271606445C16.633219788742068,0.8047270271606446,15.366819788742065,0.8047270271606446,14.585919788742066,1.5859000271606445L8.799299788742065,7.372600027160645L5.936799788742065,4.471700027160645C6.236039788742065,3.2632400271606445,5.371459788742065,2.0776200271606444,4.129379788742066,1.9931200271606446C2.8872897887420654,1.9086190271606447,1.8701067887420655,2.9662200271606443,2.0029097887420653,4.204070027160645C2.1357197887420654,5.441920027160645,3.3541097887420652,6.259670027160644,4.549999788742065,5.913600027160644L7.384999788742065,8.787100027160644L1.5858997887420654,14.585920027160645C0.8047267887420655,15.366820027160644,0.8047267887420655,16.633220027160647,1.5858997887420654,17.414120027160646L7.3847997887420656,23.212920027160646L4.549999788742065,26.086420027160646C3.3568797887420656,25.742920027160643,2.1427097887420654,26.559420027160645,2.0108797887420655,27.794020027160645C1.8790457887420655,29.028520027160646,2.893419788742065,30.083120027160646,4.132169788742066,29.999220027160643C5.370919788742065,29.915420027160646,6.2339697887420655,28.733820027160643,5.936999788742066,27.528320027160646L8.799499788742065,24.627420027160646L14.586119788742065,30.414120027160646C15.367019788742066,31.195320027160644,16.633419788742067,31.195320027160644,17.414319788742066,30.414120027160646L23.213119788742066,24.615220027160646L26.086419788742067,27.450720027160646C25.742919788742064,28.644120027160646,26.559719788742065,29.858420027160644,27.794519788742065,29.990120027160646C29.029419788742064,30.121820027160645,30.083919788742065,29.107020027160644,29.999819788742066,27.868020027160643C29.915719788742066,26.629020027160646,28.733719788742064,25.766120027160646,27.528019788742064,26.063520027160646L24.627419788742067,23.200720027160646L30.414119788742067,17.414120027160646ZM16.000019788742065,29.000020027160645L2.9999997887420653,16.000020027160645L16.000019788742065,3.0000000271606444L29.000019788742065,16.000020027160645L16.000019788742065,29.000020027160645Z" fill="#000000" fill-opacity="1"/></g><g></g></g></svg>