<svg xmlns="http://www.w3.org/2000/svg" xmlns:xlink="http://www.w3.org/1999/xlink" fill="none" version="1.1" width="32" height="32" viewBox="0 0 32 32"><defs><clipPath id="master_svg0_134_18918"><rect x="0" y="0" width="32" height="32" rx="0"/></clipPath></defs><g clip-path="url(#master_svg0_134_18918)"><g><path d="M26,16L17.4683,16L12.4683,10L5,10C3.3439,10.00181866,2.00181866,11.3439,2,13L2,19C2.00126648,20.104,2.895955,20.9987,4,21L4,28C4.00127,29.104,4.8959600000000005,29.9987,6,30L10,30C11.10404,29.9987,11.99873,29.104,12,28L12,21L10,21L10,28L6,28L6,19L4,19L4,13C4.000500000000001,12.44792,4.44792,12.0005,5,12L11.5317,12L16.5317,18L26,18C26.5521,18.000500000000002,26.9995,18.44792,27,19L27,22L25,22L25,28L22,28L22,22L20,22L20,28C20.0013,29.104,20.896,29.9987,22,30L25,30C26.104,29.9987,26.9987,29.104,27,28L27,24C28.104,23.9987,28.9987,23.104,29,22L29,19C28.9982,17.343899999999998,27.6561,16.001820000000002,26,16Z" fill="#000000" fill-opacity="1"/></g><g><path d="M23.5,15.000000953674316C21.567,15.000000953674316,20,13.433000953674316,20,11.500000953674316C20,9.567000953674317,21.567,8.000000953674316,23.5,8.000000953674316C25.433,8.000000953674316,27,9.567000953674317,27,11.500000953674316C26.99768,13.432040953674317,25.43204,14.997680953674315,23.5,15.000000953674316ZM23.5,10.000000953674316C22.67157,10.000000953674316,22,10.671570953674316,22,11.500000953674316C22,12.328430953674317,22.67158,13.000000953674316,23.5,13.000000953674316C24.32843,13.000000953674316,25,12.328430953674317,25,11.500000953674316C24.99906,10.671960953674317,24.32804,10.000940953674316,23.5,10.000000953674316Z" fill="#000000" fill-opacity="1"/></g><g><path d="M8,9C5.79086,9,4,7.20914,4,5C4,2.79086,5.79086,1,8,1C10.20914,1,12,2.79086,12,5C11.99769,7.20818,10.208179999999999,8.99769,8,9ZM8,3C6.89543,3,6,3.89543,6,5C6,6.10457,6.89543,7,8,7C9.104569999999999,7,10,6.10457,10,5C9.99873,3.89596,9.104040000000001,3.00127,8,3Z" fill="#000000" fill-opacity="1"/></g><g></g></g></svg>