<svg xmlns="http://www.w3.org/2000/svg" xmlns:xlink="http://www.w3.org/1999/xlink" fill="none" version="1.1" width="32" height="32" viewBox="0 0 32 32"><defs><clipPath id="master_svg0_134_18948"><rect x="0" y="0" width="32" height="32" rx="0"/></clipPath></defs><g clip-path="url(#master_svg0_134_18948)"><g><path d="M16,2C8.26801,2,2,8.26801,2,16C2,23.732,8.26801,30,16,30C23.732,30,30,23.732,30,16C30,8.26801,23.732,2,16,2ZM8,18C6.89543,18,6,17.104599999999998,6,16C6,14.8954,6.89543,14,8,14C9.104569999999999,14,10,14.8954,10,16C10,17.104599999999998,9.104569999999999,18,8,18ZM16,18C14.8954,18,14,17.104599999999998,14,16C14,14.8954,14.8954,14,16,14C17.104599999999998,14,18,14.8954,18,16C18,17.104599999999998,17.104599999999998,18,16,18ZM24,18C22.8954,18,22,17.104599999999998,22,16C22,14.8954,22.8954,14,24,14C25.1046,14,26,14.8954,26,16C26,17.104599999999998,25.1046,18,24,18Z" fill="#000000" fill-opacity="1"/></g><g></g><g></g></g></svg>