<svg xmlns="http://www.w3.org/2000/svg" xmlns:xlink="http://www.w3.org/1999/xlink" fill="none" version="1.1" width="32" height="32" viewBox="0 0 32 32"><defs><clipPath id="master_svg0_134_18989"><rect x="0" y="0" width="32" height="32" rx="0"/></clipPath></defs><g clip-path="url(#master_svg0_134_18989)"><g><path d="M30,15.999988317489624C30,15.792188317489623,29.9355,15.584188317489623,29.8062,15.408188317489625L20.2617,2.408200317489624C20.071,2.148300317489624,19.7713,2.001600027489624,19.4608,1.999999999989624C19.3572,1.999500036489624,19.2523,2.015100017489624,19.1499,2.0481000174896242L3.6938,7.017798317489624C3.2802,7.150898317489624,3,7.535398317489624,3,7.969698317489624L3,24.030188317489625C3,24.464488317489625,3.2803,24.848988317489624,3.6938,24.982088317489623L19.1499,29.951788317489623C19.252,29.984688317489624,19.3566,30.000288317489623,19.4599,29.999888317489624C19.7707,29.998588317489624,20.0708,29.851788317489625,20.2617,29.591688317489623L29.8061,16.591688317489623C29.9355,16.415688317489625,29.9999,16.207688317489627,30,15.999988317489624Z" fill="#000000" fill-opacity="1"/></g><g></g></g></svg>