<svg xmlns="http://www.w3.org/2000/svg" xmlns:xlink="http://www.w3.org/1999/xlink" fill="none" version="1.1" width="32" height="32" viewBox="0 0 32 32"><defs><clipPath id="master_svg0_134_18974"><rect x="0" y="0" width="32" height="32" rx="0"/></clipPath></defs><g clip-path="url(#master_svg0_134_18974)"><g><path d="M2,15.999992489814758C2,16.207792489814757,2.0645001,16.41579248981476,2.1938,16.591792489814758L11.7382,29.591792489814758C11.9289,29.85169248981476,12.2286,29.99839248981476,12.5391,29.99999248981476C12.6427,30.000492489814757,12.7476,29.984892489814758,12.85,29.951892489814757L28.3061,24.982192489814757C28.7197,24.84909248981476,28.9999,24.46459248981476,28.9999,24.03029248981476L28.9999,7.969702489814758C28.9999,7.535402489814758,28.7196,7.150902489814758,28.3061,7.017802489814758L12.8501,2.0480999898147583C12.748,2.0151998898147583,12.6434,1.9995999338147583,12.5401,2.0000000000047584C12.2293,2.0013000998147583,11.9292,2.1480994898147583,11.7383,2.4082004898147584L2.1938,15.408192489814759C2.0644,15.584192489814757,2,15.792192489814758,2,15.999992489814758Z" fill="#000000" fill-opacity="1"/></g><g transform="matrix(-1,1.2246468525851679e-16,-1.2246468525851679e-16,-1,64,64)"></g></g></svg>