<svg xmlns="http://www.w3.org/2000/svg" xmlns:xlink="http://www.w3.org/1999/xlink" fill="none" version="1.1" width="32" height="32" viewBox="0 0 32 32"><defs><clipPath id="master_svg0_134_18964"><rect x="0" y="0" width="32" height="32" rx="0"/></clipPath></defs><g clip-path="url(#master_svg0_134_18964)"><g><path d="M15.999992489814758,29.999999182128906C16.207792489814757,29.999999182128906,16.41579248981476,29.935499182128908,16.591792489814758,29.806199182128907L29.591792489814758,20.261799182128907C29.85169248981476,20.071099182128908,29.99839248981476,19.771399182128906,29.99999248981476,19.460899182128905C30.000492489814757,19.357299182128905,29.984892489814758,19.252399182128908,29.951892489814757,19.149999182128905L24.982192489814757,3.6938991821289062C24.84909248981476,3.280299182128906,24.46459248981476,3.0000991821289062,24.03029248981476,3.0000991821289062L7.969702489814758,3.0000991821289062C7.535402489814758,3.0000991821289062,7.150902489814758,3.2803991821289062,7.017802489814758,3.6938991821289062L2.0480999898147583,19.149999182128905C2.0151998898147583,19.252099182128905,1.9995999338147583,19.356699182128907,2.0000000000047584,19.459999182128907C2.0013000998147583,19.770799182128908,2.1480994898147583,20.070899182128905,2.4082004898147584,20.261799182128907L15.408192489814759,29.806199182128907C15.584192489814757,29.935599182128907,15.792192489814758,29.999999182128906,15.999992489814758,29.999999182128906Z" fill="#000000" fill-opacity="1"/></g><g transform="matrix(0,1,-1,0,32,-32)"></g></g></svg>