<svg xmlns="http://www.w3.org/2000/svg" xmlns:xlink="http://www.w3.org/1999/xlink" fill="none" version="1.1" width="32" height="32" viewBox="0 0 32 32"><defs><clipPath id="master_svg0_134_19137"><rect x="0" y="0" width="32" height="32" rx="0"/></clipPath></defs><g clip-path="url(#master_svg0_134_19137)"><g><path d="M24,13L22,13C21.99818,11.3439,20.6561,10.00182,19,10L19,8C21.76012,8.0031414,23.996859999999998,10.23988,24,13Z" fill="#000000" fill-opacity="1"/></g><g><path d="M28,13L26,13C25.9957,9.13579,22.86421,6.004300000000001,19,6L19,4C23.96828,4.00551081,27.99449,8.03172,28,13Z" fill="#000000" fill-opacity="1"/></g><g><path d="M20.33329635429382,21.482288317489623L22.573296354293824,19.242288317489624C23.186096354293824,18.629288317489625,24.105296354293824,18.440488317489624,24.910096354293824,18.762288317489624L27.63819635429382,19.853588317489624C28.460896354293823,20.182788317489624,29.000296354293823,20.979788317489625,28.999996354293824,21.865888317489624L28.999996354293824,26.827188317489625C29.002896354293824,28.071988317489623,27.958696354293824,29.063288317489626,26.715696354293822,28.995788317489623C7.593796354293823,27.805388317489623,3.732100354293823,11.611398317489623,3.0146000542938234,5.407898317489624C2.8674053542938234,4.122188317489624,3.8750933542938233,2.996031047489624,5.169196354293823,2.999999999989624L10.041996354293822,2.999999999989624C10.927966354293822,2.999983787539624,11.724686354293823,3.539389317489624,12.053696354293823,4.361998317489624L13.144996354293824,7.089998317489624C13.466796354293823,7.894788317489624,13.277996354293823,8.813928317489623,12.664996354293823,9.426698317489624L10.424996354293823,11.666698317489624Q11.666696354293823,20.398988317489625,20.33329635429382,21.482288317489623Z" fill="#000000" fill-opacity="1"/></g><g></g></g></svg>