<svg xmlns="http://www.w3.org/2000/svg" xmlns:xlink="http://www.w3.org/1999/xlink" fill="none" version="1.1" width="32" height="32" viewBox="0 0 32 32"><defs><clipPath id="master_svg0_134_19173"><rect x="0" y="0" width="32" height="32" rx="0"/></clipPath></defs><g clip-path="url(#master_svg0_134_19173)"><g><path d="M21.999985456466675,14C20.594385456466675,14.0004,19.213985456466673,14.374,17.999985456466675,15.0825L17.999985456466675,9C17.999985456466675,5.13401,14.865985456466674,2,10.999995456466674,2C7.134005456466674,2,3.9999999999666747,5.13401,3.9999999999666747,9L3.9999999999666747,23C3.9940373864666747,25.922,5.807345456466675,28.539,8.545255456466675,29.5598C11.283175456466676,30.5806,14.367185456466675,29.7895,16.275585456466676,27.5768C20.268585456466674,31.6754,27.148685456466676,30.376,29.371785456466675,25.1034C31.594885456466674,19.8307,27.722085456466676,13.9976,21.999985456466675,14ZM10.999995456466674,4C13.760075456466675,4.0032499999999995,15.996785456466675,6.23992,15.999985456466675,9L15.999985456466675,15L5.999995456466674,15L5.999995456466674,9C6.003255456466675,6.23992,8.239925456466676,4.0032499999999995,10.999995456466674,4ZM10.999995456466674,28C8.239925456466676,27.9967,6.003245456466675,25.7601,5.999995456466674,23L5.999995456466674,17L15.764985456466675,17C13.710585456466674,19.5454,13.423405456466675,23.0889,15.041085456466675,25.9319C14.101085456466675,27.2264,12.599805456466674,27.9947,10.999995456466674,28ZM21.999985456466675,28C18.686285456466674,28,15.999985456466675,25.3137,15.999985456466675,22C15.999985456466675,18.6863,18.686285456466674,16,21.999985456466675,16C25.313685456466676,16,27.999985456466675,18.6863,27.999985456466675,22C27.996385456466676,25.3122,25.312185456466676,27.9964,21.999985456466675,28Z" fill="#000000" fill-opacity="1"/></g><g><path d="M25,21L23,21L23,19L21,19L21,21L19,21L19,23L21,23L21,25L23,25L23,23L25,23L25,21Z" fill="#000000" fill-opacity="1"/></g><g></g></g></svg>