<svg xmlns="http://www.w3.org/2000/svg" xmlns:xlink="http://www.w3.org/1999/xlink" fill="none" version="1.1" width="32" height="32" viewBox="0 0 32 32"><defs><clipPath id="master_svg0_134_19211"><rect x="0" y="0" width="32" height="32" rx="0"/></clipPath></defs><g clip-path="url(#master_svg0_134_19211)"><g><path d="M30,29.99999684020996L28,29.99999684020996C26.4259,30.01392684020996,24.9397,29.27556684020996,24,28.012696840209962C21.9916,30.66244684020996,18.0084,30.66244684020996,16,28.012696840209962C13.9916,30.66244684020996,10.00843,30.66244684020996,8,28.012696840209962C7.06025,29.27556684020996,5.57409,30.01392684020996,4,29.99999684020996L2,29.99999684020996L2,27.99999684020996L4,27.99999684020996C5.3947400000000005,27.917986840209963,6.60133,27.00055684020996,7.0532,25.67849884020996C7.1831,25.26716984020996,7.56874,24.99081230020996,8,25.000000000209962C8.42976,25.00211525020996,8.8108,25.27676184020996,8.948699999999999,25.68379984020996C9.40161,27.00347684020996,10.60715,27.91858684020996,12,27.99999684020996C13.3947,27.917986840209963,14.6013,27.00055684020996,15.0532,25.67849884020996C15.1883,25.27095184020996,15.5707,24.99692917020996,16,25.000000000209962C16.4298,25.00211525020996,16.8108,25.27676184020996,16.948700000000002,25.68379984020996C17.401600000000002,27.00347684020996,18.6071,27.91858684020996,20,27.99999684020996C21.3947,27.917986840209963,22.6013,27.00055684020996,23.0532,25.67849884020996C23.1913,25.271962840209962,23.5735,24.99895477320996,24.0029,25.000154495209962C24.4322,25.00135422020996,24.8129,25.276496840209962,24.9487,25.68379984020996C25.4016,27.00347684020996,26.6071,27.91858684020996,28,27.99999684020996L30,27.99999684020996L30,29.99999684020996Z" fill="#000000" fill-opacity="1"/></g><g><path d="M28,6L28,10L25.5,10L23.4,7.2C22.8321,6.446176,21.9438,6.00201893,21,6L15,6C13.3439,6.00181818,12.0018,7.3439,12,9L12,10L8.6182,10L7.8945,8.5527L6.8945,6.5527C6.72514,6.21397,6.37885,6,6,6L3,6C2.447715,6,2,6.447715,2,7L2,13C2.00181866,14.6561,3.3439,15.99818,5,16L11.82,16L11.1534,20L7,20C6.44772,20,6,20.447699999999998,6,21C6,21.552300000000002,6.44772,22,7,22L27,22C27.5523,22,28,21.552300000000002,28,21C28,20.447699999999998,27.5523,20,27,20L22.847,20L22.18,16L22.3429,16C23.6696,16.003500000000003,24.9426,15.47607,25.878,14.5352L28,12.414100000000001L28,16L30,16L30,6L28,6ZM14,9C14.0005,8.44792,14.4479,8.0005,15,8L21,8C21.3146,8.0007,21.6107,8.14875,21.8,8.4L23,10L14,10L14,9ZM20.82,20L13.18,20L13.8466,16L20.1526,16L20.82,20ZM22.3437,14L5,14C4.44792,13.99951,4.000500000000001,13.55208,4,13L4,8L5.3818,8L6.1055,9.4473L7.3818,12L25.5858,12L24.4644,13.1211C23.9032,13.68572,23.1394,14.00222,22.3437,14L22.3437,14Z" fill="#000000" fill-opacity="1"/></g><g></g></g></svg>