<svg xmlns="http://www.w3.org/2000/svg" xmlns:xlink="http://www.w3.org/1999/xlink" fill="none" version="1.1" width="32" height="32" viewBox="0 0 32 32"><defs><clipPath id="master_svg0_134_19217"><rect x="0" y="0" width="32" height="32" rx="0"/></clipPath></defs><g clip-path="url(#master_svg0_134_19217)"><g><path d="M28,28L4,28C2.8971999999999998,28,2,27.102800000000002,2,26L2,20L4,20L4,26L28,26L28,20L30,20L30,26C30,27.102800000000002,29.1028,28,28,28Z" fill="#000000" fill-opacity="1"/></g><g><path d="M17,17L17,21C17,21.5522,17.447701,22,18,22L22,22C22.5523,22,23,21.5522,23,21L23,17C23,16.447701,22.5523,16,22,16L18,16C17.447701,16,17,16.447701,17,17ZM19,18L21,18L21,20L19,20L19,18Z" fill="#000000" fill-opacity="1"/></g><g><path d="M9,17L9,21C9,21.5522,9.4477,22,10,22L14,22C14.552299999999999,22,15,21.5522,15,21L15,17C15,16.447701,14.552299999999999,16,14,16L10,16C9.447701,16,9,16.447701,9,17ZM11,18L13,18L13,20L11,20L11,18Z" fill="#000000" fill-opacity="1"/></g><g><path d="M17,9L17,13C17,13.5522,17.447701,14,18,14L22,14C22.5523,14,23,13.5522,23,13L23,9C23,8.447701,22.5523,8,22,8L18,8C17.447701,8,17,8.4477,17,9ZM19,10L21,10L21,12L19,12L19,10Z" fill="#000000" fill-opacity="1"/></g><g><path d="M5,5L5,13C5,13.5522,5.4477,14,6,14L14,14C14.5523,14,15,13.5522,15,13L15,5C15,4.4477,14.5523,4,14,4L6,4C5.4477,4,5,4.4477,5,5ZM7,6L13,6L13,12L7,12L7,6Z" fill="#000000" fill-opacity="1"/></g><g></g></g></svg>