<svg xmlns="http://www.w3.org/2000/svg" xmlns:xlink="http://www.w3.org/1999/xlink" fill="none" version="1.1" width="32" height="32" viewBox="0 0 32 32"><defs><clipPath id="master_svg0_134_19280"><rect x="0" y="0" width="32" height="32" rx="0"/></clipPath></defs><g clip-path="url(#master_svg0_134_19280)"><g><path d="M28,30L18,30C16.89591,29.9988,16.00115776,29.104100000000003,16,28L16,18C16.00115585,16.89591,16.89591,16.00115585,18,16L20,16L20,18L18,18L18,28L28,28L28,18L26,18L26,16L28,16C29.104100000000003,16.00115776,29.9988,16.89591,30,18L30,28C29.9988,29.104100000000003,29.104100000000003,29.9988,28,30Z" fill="#000000" fill-opacity="1"/></g><g><path d="M14,16L4,16C2.8959099999999998,15.9988,2.00115776,15.1041,2,14L2,4C2.00115776,2.8959099999999998,2.895911,2.00115776,4,2L14,2C15.1041,2.00115776,15.9988,2.8959099999999998,16,4L16,6L14,6L14,4L4,4L4,14L14,14L14,12L16,12L16,14C15.9988,15.1041,15.1041,15.9988,14,16Z" fill="#000000" fill-opacity="1"/></g><g><path d="M26,8.99999707107544C26.0035,7.540207071075439,24.953200000000002,6.290893071075439,23.514499999999998,6.043512871075439C22.0758,5.796133071075439,20.668599999999998,6.62287707107544,20.1843,7.999997071075439L9,7.999997071075439L9,9.99999707107544L20.1843,9.99999707107544C20.4862,10.84711707107544,21.1528,11.513677071075438,22,11.81539707107544L22,23.00004707107544L24,23.00004707107544L24,11.81589707107544C25.1951,11.39470707107544,25.996,10.267147071075438,26,8.99999707107544ZM23,9.99999707107544C22.447699999999998,9.99999707107544,22,9.55228707107544,22,8.99999707107544C22,8.44771707107544,22.447699999999998,7.999997071075439,23,7.999997071075439C23.552300000000002,7.999997071075439,24,8.44771707107544,24,8.99999707107544C23.999499999999998,9.55207707107544,23.5521,9.999507071075438,23,9.99999707107544Z" fill="#000000" fill-opacity="1"/></g><g></g></g></svg>