<svg xmlns="http://www.w3.org/2000/svg" xmlns:xlink="http://www.w3.org/1999/xlink" fill="none" version="1.1" width="32" height="32" viewBox="0 0 32 32"><defs><clipPath id="master_svg0_134_19369"><rect x="0" y="0" width="32" height="32" rx="0"/></clipPath></defs><g clip-path="url(#master_svg0_134_19369)"><g><path d="M28,9L25,9L25,3L7,3L7,9L4,9C2.895431,9,2,9.895430000000001,2,11L2,21C2,22.1046,2.895431,23,4,23L7,23L7,29L25,29L25,23L28,23C29.1046,23,30,22.1046,30,21L30,11C30,9.895430000000001,29.1046,9,28,9ZM9,5L23,5L23,9L9,9L9,5ZM23,27L9,27L9,17L23,17L23,27ZM28,21L25,21L25,15L7,15L7,21L4,21L4,11L28,11L28,21Z" fill="#000000" fill-opacity="1"/></g><g></g></g></svg>