<svg xmlns="http://www.w3.org/2000/svg" xmlns:xlink="http://www.w3.org/1999/xlink" fill="none" version="1.1" width="32" height="32" viewBox="0 0 32 32"><defs><clipPath id="master_svg0_134_19381"><rect x="0" y="0" width="32" height="32" rx="0"/></clipPath></defs><g clip-path="url(#master_svg0_134_19381)"><g><path d="M31,16.999999940395355C31,15.345699940395356,29.6543,13.999999940395355,28,13.999999940395355C26.3457,13.999999940395355,25,15.345699940395356,25,16.999999940395355C25,18.301799940395355,25.8384,19.401399940395354,27,19.815399940395356L27,22.425799940395354L16,28.842299940395357L5.9846,22.999999940395355L28.5039,9.863799940395355C28.811,9.684599940395355,29,9.355499940395354,29,8.999999940395355C29,8.644499940395356,28.811,8.315399940395356,28.5039,8.136199940395354L16.5039,1.1361999403953553C16.348100000000002,1.0453999403953553,16.1741,0.9999999403953552,16,0.9999999403953552C15.8259,0.9999999403953552,15.6519,1.0453999403953553,15.4961,1.1361999403953553L3.4961,8.136199940395354C3.189,8.315399940395356,3,8.644499940395356,3,8.999999940395355L3,12.184599940395355C1.8384,12.598699940395354,1,13.698299940395355,1,14.999999940395355C1,16.654299940395354,2.3457,17.999999940395355,4,17.999999940395355C5.6543,17.999999940395355,7,16.654299940395354,7,14.999999940395355C7,13.698199940395355,6.1616,12.598599940395355,5,12.184099940395356L5,9.574199940395355L16,3.1576999403953554L26.0154,8.999999940395355L3.4961,22.136199940395354C3.189,22.315399940395356,3,22.644499940395356,3,22.999999940395355C3,23.355499940395354,3.189,23.684599940395355,3.4961,23.863799940395356L15.4961,30.863799940395356C15.6519,30.954599940395354,15.8259,30.999999940395355,16,30.999999940395355C16.1741,30.999999940395355,16.348100000000002,30.954599940395354,16.5039,30.863799940395356L28.5039,23.863799940395356C28.811,23.684599940395355,29,23.355499940395354,29,22.999999940395355L29,19.815899940395354C30.1616,19.401299940395354,31,18.301699940395356,31,16.999999940395355ZM4,15.999999940395355C3.4485,15.999999940395355,3,15.551299940395355,3,14.999999940395355C3,14.448699940395356,3.4485,13.999999940395355,4,13.999999940395355C4.5515,13.999999940395355,5,14.448699940395356,5,14.999999940395355C5,15.551299940395355,4.5515,15.999999940395355,4,15.999999940395355ZM28,17.999999940395355C27.4485,17.999999940395355,27,17.551299940395356,27,16.999999940395355C27,16.448699940395358,27.4485,15.999999940395355,28,15.999999940395355C28.5515,15.999999940395355,29,16.448699940395358,29,16.999999940395355C29,17.551299940395356,28.5515,17.999999940395355,28,17.999999940395355Z" fill="#000000" fill-opacity="1"/></g><g></g></g></svg>