<svg xmlns="http://www.w3.org/2000/svg" xmlns:xlink="http://www.w3.org/1999/xlink" fill="none" version="1.1" width="32" height="32" viewBox="0 0 32 32"><defs><clipPath id="master_svg0_134_19442"><rect x="0" y="0" width="32" height="32" rx="0"/></clipPath></defs><g clip-path="url(#master_svg0_134_19442)"><g><path d="M28,6L4,6C2.895431,6,2,6.895431,2,8L2,24C2,25.1046,2.895431,26,4,26L28,26C29.1046,26,30,25.1046,30,24L30,8C30,6.895431,29.1046,6,28,6ZM28,8L28,11L4,11L4,8L28,8ZM4,24L4,13L28,13L28,24L4,24Z" fill="#000000" fill-opacity="1"/></g><g><rect x="6" y="20" width="10" height="2" rx="0" fill="#000000" fill-opacity="1"/></g><g></g></g></svg>