<svg xmlns="http://www.w3.org/2000/svg" xmlns:xlink="http://www.w3.org/1999/xlink" fill="none" version="1.1" width="32" height="32" viewBox="0 0 32 32"><defs><clipPath id="master_svg0_134_19458"><rect x="0" y="0" width="32" height="32" rx="0"/></clipPath></defs><g clip-path="url(#master_svg0_134_19458)"><g transform="matrix(0,-1,1,0,-4,52)"><rect x="24" y="28" width="2" height="2" rx="0" fill="#000000" fill-opacity="1"/></g><g transform="matrix(0,-1,1,0,-6,42)"><rect x="18" y="24" width="2" height="2" rx="0" fill="#000000" fill-opacity="1"/></g><g><path d="M18,30L22,30L22,28L20,28L20,26L18,26L18,30Z" fill="#000000" fill-opacity="1"/></g><g transform="matrix(0,-1,1,0,-0.00009918212890625,51.999900817871094)"><rect x="25.999900817871094" y="26" width="4" height="2" rx="0" fill="#000000" fill-opacity="1"/></g><g><path d="M28,26L30,26L30,30L26,30L26,28L28,28L28,26Z" fill="#000000" fill-opacity="1"/></g><g><path d="M26,20L26,18L30,18L30,22L28,22L28,20L26,20Z" fill="#000000" fill-opacity="1"/></g><g><path d="M24,20L22,20L22,24L20,24L20,26L24,26L24,20Z" fill="#000000" fill-opacity="1"/></g><g transform="matrix(0,-1,1,0,-2,38)"><rect x="18" y="20" width="2" height="4" rx="0" fill="#000000" fill-opacity="1"/></g><g><rect x="6" y="22" width="4" height="4" rx="0" fill="#000000" fill-opacity="1"/></g><g><path d="M14,30L2,30L2,18L14,18L14,30ZM4,28L12,28L12,20L4,20L4,28Z" fill="#000000" fill-opacity="1"/></g><g><rect x="22" y="6" width="4" height="4" rx="0" fill="#000000" fill-opacity="1"/></g><g><path d="M30,14L18,14L18,2L30,2L30,14ZM20,12L28,12L28,4L20,4L20,12Z" fill="#000000" fill-opacity="1"/></g><g><rect x="6" y="6" width="4" height="4" rx="0" fill="#000000" fill-opacity="1"/></g><g><path d="M14,14L2,14L2,2L14,2L14,14ZM4,12L12,12L12,4L4,4L4,12Z" fill="#000000" fill-opacity="1"/></g><g></g></g></svg>