<svg xmlns="http://www.w3.org/2000/svg" xmlns:xlink="http://www.w3.org/1999/xlink" fill="none" version="1.1" width="32" height="32" viewBox="0 0 32 32"><defs><clipPath id="master_svg0_134_19507"><rect x="0" y="0" width="32" height="32" rx="0"/></clipPath></defs><g clip-path="url(#master_svg0_134_19507)"><g><rect x="22" y="20" width="8" height="2" rx="0" fill="#090909" fill-opacity="1"/></g><g><rect x="22" y="24" width="8" height="2" rx="0" fill="#090909" fill-opacity="1"/></g><g><rect x="22" y="28" width="8" height="2" rx="0" fill="#090909" fill-opacity="1"/></g><g><rect x="18" y="24" width="2" height="2" rx="0" fill="#090909" fill-opacity="1"/></g><g><rect x="18" y="20" width="2" height="2" rx="0" fill="#090909" fill-opacity="1"/></g><g><rect x="18" y="28" width="2" height="2" rx="0" fill="#090909" fill-opacity="1"/></g><g><path d="M6.81490005569458,8.293000104904173C7.71612005569458,7.2239501049041746,8.79613005569458,6.319520104904175,10.00680005569458,5.620000104904175L9.00790005569458,3.890000104904175C7.59542005569458,4.705953104904175,6.33543005569458,5.761070104904174,5.28410005569458,7.008300104904174L6.81490005569458,8.293000104904173Z" fill="#090909" fill-opacity="1"/></g><g><path d="M25.185100302124024,8.293000104904173L26.715900302124023,7.008300104904174C25.664570302124023,5.761070104904174,24.404580302124025,4.705953104904175,22.992099302124025,3.890000104904175L21.993200302124023,5.620000104904175C23.203870302124024,6.319520104904175,24.283880302124025,7.2239501049041746,25.185100302124024,8.293000104904173Z" fill="#090909" fill-opacity="1"/></g><g><path d="M4.7366,11.899999871826171L2.8594,11.216899871826172C2.294322,12.748439871826172,2.00341177,14.367539871826171,2,15.999999871826173L4,15.999999871826173C4.00291,14.600689871826171,4.25225,13.212819871826172,4.7366,11.899999871826171Z" fill="#090909" fill-opacity="1"/></g><g><path d="M6.814899795532226,23.707000381469726C5.917239795532227,22.634960381469725,5.213889795532227,21.414250381469728,4.736599795532227,20.100000381469727L2.8593997955322266,20.783100381469726C3.4160187955322265,22.316750381469728,4.236619795532227,23.741220381469727,5.284099795532226,24.992100381469726L6.814899795532226,23.707000381469726Z" fill="#090909" fill-opacity="1"/></g><g><path d="M27.263399124145508,11.899999415039062C27.747742124145507,13.212820415039062,27.99708412414551,14.600680415039061,28.000000124145508,16.00000041503906L29.999999124145507,16.00000041503906C29.996639124145506,14.367670415039063,29.705729124145506,12.748690415039063,29.140599124145506,11.217300415039062L27.263399124145508,11.899999415039062Z" fill="#090909" fill-opacity="1"/></g><g><path d="M13.918199284362792,27.806599160766602C12.540639284362793,27.564829160766603,11.216539284362792,27.081894160766602,10.006799284362794,26.3799991607666L9.007899284362793,28.109999160766602C10.419259284362793,28.9288091607666,11.964049284362794,29.492119160766602,13.571199284362793,29.7739991607666L13.918199284362792,27.806599160766602Z" fill="#090909" fill-opacity="1"/></g><g><path d="M13.918199463439942,4.1934000000000005C15.294088463439941,3.93553,16.70590846343994,3.93553,18.08179846343994,4.1934000000000005L18.42879846343994,2.2256C16.82356846343994,1.9248,15.176428463439942,1.9248,13.571198463439941,2.2256L13.918199463439942,4.1934000000000005Z" fill="#090909" fill-opacity="1"/></g><g></g></g></svg>