<svg xmlns="http://www.w3.org/2000/svg" xmlns:xlink="http://www.w3.org/1999/xlink" fill="none" version="1.1" width="32" height="32" viewBox="0 0 32 32"><defs><clipPath id="master_svg0_134_19540"><rect x="0" y="0" width="32" height="32" rx="0"/></clipPath></defs><g clip-path="url(#master_svg0_134_19540)"><g><path d="M29.999964137649535,3.4146040123748778L28.585364137649535,1.9999999999748779L17.293164137649534,13.292474012374878C16.892564137649536,13.681174012374878,16.887664137649537,14.322674012374877,17.282464137649534,14.717374012374878C17.677164137649534,15.112074012374878,18.318664137649534,15.107174012374879,18.707264137649535,14.706474012374878L22.161564137649535,11.252404012374878C23.156164137649537,12.738874012374877,23.274364137649535,14.645374012374878,22.470964137649535,16.243274012374876C21.667564137649535,17.84117401237488,20.066764137649535,18.88337401237488,18.280464137649535,18.971674012374876C17.290264137649537,16.927174012374877,15.375264137649536,15.485274012374878,13.136664137649536,15.098574012374877C12.383464137649536,11.966724012374877,14.779064137649536,8.962704012374878,17.999964137649535,9.000004012374877L17.999964137649535,7.000004012374878C13.691964137649537,6.972094012374878,10.394974137649536,10.827574012374878,11.091304137649535,15.079074012374878C10.073674137649537,15.216774012374877,9.099354137649536,15.578774012374877,8.238804137649536,16.139074012374877C6.847834137649536,9.898974012374879,11.606754137649537,3.9807440123748776,17.999964137649535,4.000004012374879L17.999964137649535,1.9999999999748779C9.871814137649537,1.9834137123748778,4.088754137649536,9.896434012374879,6.573004137649536,17.635674012374878C5.923024137649536,18.425774012374877,5.4560441376495366,19.34987401237488,5.205604137649536,20.341774012374877C2.956714137649536,21.204574012374877,1.643903137649536,23.549374012374876,2.083887137649536,25.917574012374878C2.5238701376495363,28.285774012374876,4.591304137649536,30.00257401237488,7.000004137649536,29.999974012374878L16.999964137649535,29.999974012374878C19.630264137649537,29.992374012374878,21.803364137649535,27.945174012374878,21.967764137649535,25.319974012374878C26.769864137649535,23.625174012374877,29.986164137649535,19.09237401237488,29.999964137649535,13.999974012374878C30.010564137649535,11.161384012374878,29.003364137649537,8.412984012374878,27.161064137649536,6.253404012374878L29.999964137649535,3.4146040123748778ZM16.999964137649535,27.999974012374878L7.000004137649536,27.999974012374878C5.479704137649536,28.00277401237488,4.198634137649536,26.865874012374878,4.020694137649536,25.35597401237488C3.8427541376495364,23.846174012374878,4.824424137649537,22.442574012374877,6.303704137649536,22.091774012374877L6.9624041376495365,21.934574012374878L7.061004137649536,21.26457401237488C7.4218641376495365,18.81487401237488,9.523844137649537,16.999874012374878,11.999964137649537,16.999874012374878C14.476164137649537,16.999874012374878,16.578164137649537,18.81487401237488,16.938964137649535,21.26457401237488L17.037564137649536,21.93407401237488L17.696264137649536,22.09127401237488C19.176664137649535,22.441174012374876,20.159464137649536,23.84527401237488,19.981464137649535,25.35597401237488C19.803464137649534,26.86667401237488,18.521064137649535,28.003774012374876,16.999964137649535,27.999974012374878ZM27.999964137649535,13.999974012374878C27.988764137649536,18.094774012374877,25.490764137649535,21.771874012374877,21.688164137649537,23.29097401237488C21.310964137649535,22.256374012374877,20.600064137649536,21.376774012374877,19.667464137649535,20.79097401237488C24.538064137649535,19.600874012374877,26.609964137649538,13.822474012374878,23.605464137649538,9.808604012374879L25.737464137649535,7.676804012374878C27.206264137649537,9.456004012374878,28.006664137649537,11.692854012374879,27.999964137649535,13.999974012374878Z" fill="#000000" fill-opacity="1"/></g><g></g></g></svg>