<svg xmlns="http://www.w3.org/2000/svg" xmlns:xlink="http://www.w3.org/1999/xlink" fill="none" version="1.1" width="32" height="32" viewBox="0 0 32 32"><defs><clipPath id="master_svg0_134_19574"><rect x="0" y="0" width="32" height="32" rx="0"/></clipPath></defs><g clip-path="url(#master_svg0_134_19574)"><g><rect x="13" y="11" width="6" height="2" rx="0" fill="#000000" fill-opacity="1"/></g><g><rect x="13" y="15" width="6" height="2" rx="0" fill="#000000" fill-opacity="1"/></g><g><ellipse cx="16" cy="23" rx="2" ry="2" fill="#000000" fill-opacity="1"/></g><g><path d="M22,7L21,7L21,2L19,2L19,7L10,7C8.89596,7.00127,8.00127,7.89596,8,9L8,11L6,11L6,13L8,13L8,15L6,15L6,17L8,17L8,28C8.00127,29.104,8.89596,29.9987,10,30L22,30C23.104,29.9987,23.9987,29.104,24,28L24,9C23.9987,7.89596,23.104,7.00127,22,7ZM10,28L10,9L22,9L22,28L10,28Z" fill="#000000" fill-opacity="1"/></g><g></g></g></svg>