<svg xmlns="http://www.w3.org/2000/svg" xmlns:xlink="http://www.w3.org/1999/xlink" fill="none" version="1.1" width="32" height="32" viewBox="0 0 32 32"><defs><clipPath id="master_svg0_134_19596"><rect x="0" y="0" width="32" height="32" rx="0"/></clipPath></defs><g clip-path="url(#master_svg0_134_19596)"><g><path d="M16,24L16,22C17.59614,21.86187,18.86186,20.59614,19,19L21,19C20.86616,21.70405,18.70405,23.86616,16,24Z" fill="#000000" fill-opacity="1"/></g><g><path d="M16,28.000000579452514C11.03204,27.993700579452515,7.00627899,23.968000579452514,7,19.000000579452514C7.0537953,17.245600579452514,7.569144,15.536400579452515,8.4941,14.044600579452515L15.1528,3.4367005794525145C15.56746,2.8543005794525147,16.43254,2.8543005794525147,16.8472,3.4367005794525145L23.4761,13.993100579452515C24.4168,15.498500579452514,24.9425,17.225800579452514,25,19.000000579452514C24.9937,23.968000579452514,20.968,27.993700579452515,16,28.000000579452514ZM16,5.8483005794525145L10.2183,15.056200579452515C9.473230000000001,16.241100579452514,9.05306,17.601300579452513,9,19.000000579452514C9,22.866000579452514,12.13401,26.000000579452514,16,26.000000579452514C19.866,26.000000579452514,23,22.866000579452514,23,19.000000579452514C22.942999999999998,17.581600579452513,22.5125,16.203400579452513,21.752000000000002,15.004700579452514L16,5.8483005794525145Z" fill="#000000" fill-opacity="1"/></g><g></g></g></svg>