<svg xmlns="http://www.w3.org/2000/svg" xmlns:xlink="http://www.w3.org/1999/xlink" fill="none" version="1.1" width="32" height="32" viewBox="0 0 32 32"><defs><clipPath id="master_svg0_134_19602"><rect x="0" y="0" width="32" height="32" rx="0"/></clipPath></defs><g clip-path="url(#master_svg0_134_19602)"><g><path d="M17.000002921447752,29.999996408691405C16.256497921447753,30.000046408691407,15.772956921447754,29.217536408691405,16.105599921447755,28.552596408691407L18.105602921447755,24.552101408691406C18.352502921447755,24.057846108691407,18.953432921447753,23.857463408691405,19.447562921447755,24.104612408691406C19.941702921447753,24.351762408691407,20.141792921447752,24.952785408691405,19.894402921447753,25.446796408691405L17.894402921447753,29.446796408691405C17.725472921447754,29.786046408691405,17.378982921447754,30.000356408691406,17.000002921447752,29.999996408691405Z" fill="#000000" fill-opacity="1"/></g><g><path d="M8.000002921447754,29.999996408691405C7.256498921447754,30.000046408691407,6.7729579214477535,29.217536408691405,7.105599921447754,28.552596408691407L9.105602921447755,24.552101408691406C9.352512921447754,24.057846108691407,9.953432921447753,23.857463408691405,10.447572921447755,24.104612408691406C10.941702921447753,24.351762408691407,11.141792921447754,24.952785408691405,10.894402921447753,25.446796408691405L8.894402921447753,29.446796408691405C8.725472921447754,29.786046408691405,8.378982921447754,30.000356408691406,8.000002921447754,29.999996408691405Z" fill="#000000" fill-opacity="1"/></g><g><path d="M29.999963011932373,15.499995453453064C29.985363011932375,12.417795453453063,27.818163011932374,9.765185453453064,24.80076301193237,9.136195453453064C23.922563011932372,4.976555453453064,20.25186301193237,1.999895453453064,16.000463011932375,1.999895453453064C11.749163011932373,1.9998952150340639,8.078423011932372,4.976555453453064,7.200203011932373,9.136195453453064C4.4629630119323735,9.691435453453064,2.387868011932373,11.935515453453064,2.048180311932373,14.707795453453064C1.708492011932373,17.479995453453064,3.180393011932373,20.158695453453063,5.702603011932373,21.358395453453063L4.106003011932373,24.552695453453065C3.848523011932373,25.048095453453065,4.046613011932373,25.658395453453064,4.545973011932373,25.908195453453065C5.045323011932373,26.157995453453065,5.6524830119323735,25.950495453453065,5.894503011932374,25.447295453453062L7.617403011932373,21.999995453453064L14.381763011932373,21.999995453453064L13.105963011932372,24.552695453453065C12.848563011932374,25.048095453453065,13.046563011932372,25.658395453453064,13.545963011932374,25.908195453453065C14.045363011932373,26.157995453453065,14.652463011932372,25.950495453453065,14.894463011932373,25.447295453453062L16.617663011932372,21.999995453453064L23.381763011932374,21.999995453453064L22.105963011932374,24.552695453453065C21.848563011932374,25.048095453453065,22.046663011932374,25.658395453453064,22.545963011932372,25.908195453453065C23.045363011932373,26.157995453453065,23.652463011932372,25.950495453453065,23.894463011932373,25.447295453453062L25.83886301193237,21.557295453453065C28.342663011932373,20.589895453453064,29.995363011932373,18.184195453453064,29.999963011932373,15.499995453453064ZM23.499963011932373,19.999995453453064L8.500003011932373,19.999995453453064C6.084853011932373,20.000795453453065,4.100273011932373,18.093895453453065,4.004613011932372,15.680595453453064C3.9089530119323728,13.267395453453064,5.736373011932374,11.209415453453063,8.144003011932373,11.018995453453064L8.959503011932373,10.955095453453064L9.058603011932373,10.143095453453064C9.488303011932373,6.635655453453064,12.466863011932373,3.999755453453064,16.000463011932375,3.999755453453064C19.534163011932375,3.999755453453064,22.51266301193237,6.635655453453064,22.942363011932372,10.143095453453064L23.040963011932373,10.955095453453064L23.856363011932373,11.018995453453064C26.26406301193237,11.209415453453063,28.091563011932372,13.267495453453064,27.99576301193237,15.680795453453063C27.899963011932375,18.094195453453064,25.915263011932375,20.000995453453065,23.499963011932373,19.999995453453064Z" fill="#000000" fill-opacity="1"/></g><g></g></g></svg>