<svg xmlns="http://www.w3.org/2000/svg" xmlns:xlink="http://www.w3.org/1999/xlink" fill="none" version="1.1" width="32" height="32" viewBox="0 0 32 32"><defs><clipPath id="master_svg0_134_19654"><rect x="0" y="0" width="32" height="32" rx="0"/></clipPath></defs><g clip-path="url(#master_svg0_134_19654)"><g><path d="M16,4C22.6274,4,28,9.37258,28,16C28,22.6274,22.6274,28,16,28C9.37258,28,4,22.6274,4,16C4,9.37258,9.37258,4,16,4ZM16,2C8.26801,2,2,8.26801,2,16C2,23.732,8.26801,30,16,30C23.732,30,30,23.732,30,16C30,8.26801,23.732,2,16,2Z" fill="#000000" fill-opacity="1"/></g><g><path d="M16,12C18.209139999999998,12,20,13.79086,20,16C20,18.209139999999998,18.209139999999998,20,16,20C13.79086,20,12,18.209139999999998,12,16C12,13.79086,13.79086,12,16,12ZM16,10C12.68629,10,10,12.68629,10,16C10,19.31371,12.68629,22,16,22C19.31371,22,22,19.31371,22,16C22,12.68629,19.31371,10,16,10Z" fill="#000000" fill-opacity="1"/></g><g></g></g></svg>