<svg xmlns="http://www.w3.org/2000/svg" xmlns:xlink="http://www.w3.org/1999/xlink" fill="none" version="1.1" width="32" height="32" viewBox="0 0 32 32"><defs><clipPath id="master_svg0_134_24842"><rect x="0" y="0" width="32" height="32" rx="0"/></clipPath></defs><g clip-path="url(#master_svg0_134_24842)"><g><path d="M28,25L20,25C18.896048,24.9985,18.00148773,24.104,18,23L18,20L20,20L20,23L28,23L28,9L20,9L20,12L18,12L18,9C18.00126839,7.895957,18.895955999999998,7.00126839,20,7L28,7C29.104,7.00126839,29.9987,7.895956,30,9L30,23C29.9985,24.104,29.104,24.9985,28,25Z" fill="#000000" fill-opacity="1"/></g><g><rect x="8" y="15" width="4" height="2" rx="0" fill="#000000" fill-opacity="1"/></g><g><rect x="20" y="15" width="4" height="2" rx="0" fill="#000000" fill-opacity="1"/></g><g><rect x="14" y="15" width="4" height="2" rx="0" fill="#000000" fill-opacity="1"/></g><g><path d="M12,25L4,25C2.895956,24.9987,2.00126648,24.104,2,23L2,9C2.00110245,7.895887,2.895887,7.00110245,4,7L12,7C13.1041,7.00110197,13.9989,7.895887,14,9L14,12L12,12L12,9L4,9L4,23L12,23L12,20L14,20L14,23C13.9987,24.104,13.104,24.9987,12,25Z" fill="#000000" fill-opacity="1"/></g><g></g></g></svg>