<svg xmlns="http://www.w3.org/2000/svg" xmlns:xlink="http://www.w3.org/1999/xlink" fill="none" version="1.1" width="32" height="32" viewBox="0 0 32 32"><defs><clipPath id="master_svg0_134_19725"><rect x="0" y="0" width="32" height="32" rx="0"/></clipPath></defs><g clip-path="url(#master_svg0_134_19725)"><g><path d="M12,10.00000069480896L6.779999999999999,10.00000069480896C9.43613,5.91793069480896,14.4603,4.06835069480896,19.1292,5.45379069480896C23.7979,6.838810694808959,27,11.12944069480896,27,16.00004069480896L29,16.00004069480896C29.0056,10.52052069480896,25.5749,5.6258006948089605,20.4222,3.76186769480896C15.2695,1.89793069480896,9.50122,3.46501069480896,6,7.68000069480896L6,4.00000069480896L4,4.00000069480896L4,12.00000069480896L12,12.00000069480896L12,10.00000069480896Z" fill="#000000" fill-opacity="1"/></g><g><path d="M19.999993085861206,22L25.219993085861205,22C22.563893085861206,26.0821,17.539693085861206,27.9317,12.870763085861206,26.5462C8.202153085861205,25.161189999999998,5.000003085861206,20.87056,5.000003085861206,16L3.000000000001206,16C2.994356865861206,21.47948,6.425113085861206,26.374200000000002,11.577823085861207,28.2381C16.730493085861205,30.1021,22.498793085861205,28.535,25.999993085861206,24.32L25.999993085861206,28L27.999993085861206,28L27.999993085861206,20L19.999993085861206,20L19.999993085861206,22Z" fill="#000000" fill-opacity="1"/></g><g><g></g></g></g></svg>