<svg xmlns="http://www.w3.org/2000/svg" xmlns:xlink="http://www.w3.org/1999/xlink" fill="none" version="1.1" width="32" height="32" viewBox="0 0 32 32"><defs><clipPath id="master_svg0_134_19732"><rect x="0" y="0" width="32" height="32" rx="0"/></clipPath></defs><g clip-path="url(#master_svg0_134_19732)"><g><path d="M6,6L26.1719,6L22.5859,2.4141L24,1L30,7L24,13L22.5859,11.5859L26.1719,8L6,8L6,15L4,15L4,8C4.00132179,6.89598,4.895978,6.00132,6,6Z" fill="#000000" fill-opacity="1"/></g><g><path d="M9.414100000000001,20.4141L5.8281,24L26,24L26,17L28,17L28,24C27.9987,25.10402,27.104,25.99868,26,26L5.8281,26L9.414,29.585900000000002L8,31L2,25L8,19L9.414100000000001,20.4141Z" fill="#000000" fill-opacity="1"/></g><g></g></g></svg>