<svg xmlns="http://www.w3.org/2000/svg" xmlns:xlink="http://www.w3.org/1999/xlink" fill="none" version="1.1" width="32" height="32" viewBox="0 0 32 32"><defs><clipPath id="master_svg0_134_19745"><rect x="0" y="0" width="32" height="32" rx="0"/></clipPath></defs><g clip-path="url(#master_svg0_134_19745)"><g><path d="M28,8L30,8L30,4C29.99884,2.895911,29.10409,2.00115824,28,2L24,2L24,4L28,4L28,8Z" fill="#000000" fill-opacity="1"/></g><g><rect x="17" y="2" width="4" height="2" rx="0" fill="#000000" fill-opacity="1"/></g><g><rect x="28" y="11" width="2" height="4" rx="0" fill="#000000" fill-opacity="1"/></g><g><path d="M28,18L28,22L24,22L24,10C23.9987,8.895959999999999,23.104,8.00127,22,8L10,8L10,4L14,4L14,2L10,2C8.895959999999999,2.00126767,8.00127,2.895956,8,4L8,8L4,8C2.895956,8.00127,2.00126743,8.895959999999999,2,10L2,28C2.00126863,29.104,2.895956,29.9987,4,30L22,30C23.104,29.9987,23.9987,29.104,24,28L24,24L28,24C29.104,23.9987,29.9987,23.104,30,22L30,18L28,18ZM22,28L4,28L4,10L22,10L22,28Z" fill="#000000" fill-opacity="1"/></g><g></g></g></svg>