<svg xmlns="http://www.w3.org/2000/svg" xmlns:xlink="http://www.w3.org/1999/xlink" fill="none" version="1.1" width="32" height="32" viewBox="0 0 32 32"><defs><clipPath id="master_svg0_134_19884"><rect x="0" y="0" width="32" height="32" rx="0"/></clipPath></defs><g clip-path="url(#master_svg0_134_19884)"><g><path d="M16,8L17.912,11.703L22,12.297L19,15L20,19L16,16.75L12,19L13,15L10,12.297L14.2,11.703L16,8Z" fill="#000000" fill-opacity="1"/></g><g><path d="M17.73579976158142,29.99999976158142L15.999999761581421,28.99999976158142L19.99999976158142,21.99999976158142L25.99999976158142,21.99999976158142C27.10529976158142,22.00189976158142,28.00189976158142,21.10529976158142,27.99999976158142,19.99999976158142L27.99999976158142,7.999999761581421C28.00189976158142,6.894649761581421,27.10539976158142,5.998119761581421,25.99999976158142,5.999999761581421L5.999999761581421,5.999999761581421C4.894649761581421,5.998119761581421,3.998119761581421,6.894649761581421,3.999999761581421,7.999999761581421L3.999999761581421,19.99999976158142C3.998119761581421,21.10529976158142,4.894649761581421,22.00189976158142,5.999999761581421,21.99999976158142L14.999999761581421,21.99999976158142L14.999999761581421,23.99999976158142L5.999999761581421,23.99999976158142C3.791089761581421,24.000799761581423,1.999999880790421,22.209699761581422,2.000000000000421,19.99999976158142L2.000000000000421,7.999999761581421C1.999337077581421,5.790589761581421,3.790589761581421,3.999336004581421,5.999999761581421,4.000000000000421L25.99999976158142,4.000000000000421C28.20939976158142,3.9993374345814208,30.00069976158142,5.790589761581421,29.99999976158142,7.999999761581421L29.99999976158142,19.99999976158142C30.000799761581423,22.20889976158142,28.209699761581422,23.99999976158142,25.99999976158142,23.99999976158142L21.16459976158142,23.99999976158142L17.73579976158142,29.99999976158142Z" fill="#000000" fill-opacity="1"/></g><g></g></g></svg>