<svg xmlns="http://www.w3.org/2000/svg" xmlns:xlink="http://www.w3.org/1999/xlink" fill="none" version="1.1" width="32" height="32" viewBox="0 0 32 32"><defs><clipPath id="master_svg0_134_19930"><rect x="0" y="0" width="32" height="32" rx="0"/></clipPath></defs><g clip-path="url(#master_svg0_134_19930)"><g><rect x="13" y="13" width="6" height="2" rx="0" fill="#000000" fill-opacity="1"/></g><g><path d="M25.4409,8L24.1687,3.45C23.9206,2.593399,23.1374,2.00291562,22.2456,2L9.7544,2C8.86238,2.00297189,8.07916,2.593801,7.831300000000001,3.4507000000000003L6.531499999999999,8L4,8L4,10L6,10L6,17C6.00138,18.104,6.896,18.9986,8,19L8,22L10,22L10,19L22,19L22,22L24,22L24,19C25.104,18.9986,25.9986,18.104,26,17L26,10L28,10L28,8L25.4409,8ZM9.7544,4L22.2458,4L23.6743,9L8.325700000000001,9L9.7544,4ZM24,13L22,13L22,15L24,15L24,17L8,17L8,15L10,15L10,13L8,13L8,11L24,11L24,13Z" fill="#000000" fill-opacity="1"/></g><g><rect x="2" y="16" width="2" height="14" rx="0" fill="#000000" fill-opacity="1"/></g><g><rect x="28" y="16" width="2" height="14" rx="0" fill="#000000" fill-opacity="1"/></g><g><rect x="15" y="21" width="2" height="3" rx="0" fill="#000000" fill-opacity="1"/></g><g><rect x="15" y="26" width="2" height="4" rx="0" fill="#000000" fill-opacity="1"/></g><g></g></g></svg>