<svg xmlns="http://www.w3.org/2000/svg" xmlns:xlink="http://www.w3.org/1999/xlink" fill="none" version="1.1" width="32" height="32" viewBox="0 0 32 32"><defs><clipPath id="master_svg0_134_19961"><rect x="0" y="0" width="32" height="32" rx="0"/></clipPath></defs><g clip-path="url(#master_svg0_134_19961)"><g><path d="M17.90999984741211,26.819999237060546L18.25999984741211,28.819999237060546C19.75280984741211,28.559679237060546,21.188089847412108,28.038379237060546,22.49999984741211,27.279999237060547L21.49999984741211,25.549999237060547C20.38729984741211,26.181087237060545,19.17201984741211,26.610999237060547,17.90999984741211,26.819999237060546Z" fill="#000000" fill-opacity="1"/></g><g><path d="M24.420000076293945,23.070000228881835L26.000000076293944,24.350000228881836C26.968580076293946,23.187000228881836,27.726630076293944,21.863790228881836,28.240000076293946,20.440000228881836L26.370000076293945,19.760000228881836C25.919190076293944,20.969180228881836,25.259125076293945,22.089590228881836,24.420000076293945,23.070000228881835Z" fill="#000000" fill-opacity="1"/></g><g><path d="M9.5,27.2500016784668C10.81191,28.008381678466797,12.24719,28.529681678466797,13.74,28.790001678466798L14.09,26.790001678466798C12.82606,26.571671678466796,11.61068,26.131563678466797,10.5,25.490001678466797L9.5,27.2500016784668Z" fill="#000000" fill-opacity="1"/></g><g><path d="M5.670000190734863,19.760000228881836L3.8000001907348633,20.440000228881836C4.301194190734863,21.860980228881836,5.045610190734863,23.184010228881835,6.0000001907348635,24.350000228881836L6.320000190734863,24.090000228881834L7.5400001907348635,23.090000228881834C6.715080190734863,22.106560228881836,6.0686701907348635,20.986320228881837,5.630000190734863,19.780000728881834L5.670000190734863,19.760000228881836Z" fill="#000000" fill-opacity="1"/></g><g><path d="M28.999999923706056,15.999999465942384C28.997259923706054,14.484399465942383,28.726419923706054,12.981239465942384,28.199999923706056,11.559999465942383L26.329999923706055,12.239999465942383C26.767341923706056,13.445629465942382,26.993979923706053,14.717519465942383,26.999999923706056,15.999999465942384L28.999999923706056,15.999999465942384Z" fill="#000000" fill-opacity="1"/></g><g><path d="M26,7.650004507904053C20.8018,1.3921645079040528,11.19815,1.3921645079040528,6,7.650004507904053L6,4.000004507904053L4,4.000004507904053L4,12.000004507904054L12,12.000004507904054L12,10.000004507904052L6.8100000000000005,10.000004507904052C10.84253,3.8395375079040526,19.671300000000002,3.303095507904053,24.42,8.930004507904052L26,7.650004507904053Z" fill="#000000" fill-opacity="1"/></g><g></g></g></svg>