<svg xmlns="http://www.w3.org/2000/svg" xmlns:xlink="http://www.w3.org/1999/xlink" fill="none" version="1.1" width="32" height="32" viewBox="0 0 32 32"><defs><clipPath id="master_svg0_134_24851"><rect x="0" y="0" width="32" height="32" rx="0"/></clipPath></defs><g clip-path="url(#master_svg0_134_24851)"><g><path d="M14.091300524902344,26.82350100708008L13.744600524902344,28.79150100708008C12.251650524902344,28.53071100708008,10.816350524902344,28.008791007080077,9.504600524902344,27.249701007080077L10.504600524902344,25.519001007080078C11.614220524902343,26.161226007080078,12.828360524902344,26.602821007080077,14.091300524902344,26.82350100708008Z" fill="#000000" fill-opacity="1"/></g><g><path d="M7.576699940490723,23.06820132446289L6.044899940490723,24.35330132446289C5.072319940490723,23.190911324462892,4.310823940490723,21.86718132446289,3.7948999404907227,20.442100324462892L5.672399940490722,19.75870132446289C6.109029940490723,20.96461132446289,6.753539940490723,22.08471132446289,7.576699940490723,23.06820132446289Z" fill="#000000" fill-opacity="1"/></g><g><path d="M22.49509958190918,27.249998553466796C21.18334958190918,28.009098553466796,19.74804958190918,28.531008553466798,18.25510058190918,28.791798553466798L17.90839958190918,26.823798553466798C19.171399581909178,26.603138553466795,20.38561958190918,26.161544553466797,21.49529958190918,25.519298553466797L22.49509958190918,27.249998553466796Z" fill="#000000" fill-opacity="1"/></g><g><path d="M26.327101150512696,19.758699417114258L28.204601150512694,20.44209841711426C27.688831150512694,21.86714941711426,26.927501150512697,23.190869417114257,25.955101150512697,24.353299417114258L25.643601150512694,24.091899417114256L24.423601150512695,23.068199417114258C25.246544150512694,22.084709417114258,25.890881150512694,20.964689417114258,26.327101150512696,19.758699417114258L26.327101150512696,19.758699417114258Z" fill="#000000" fill-opacity="1"/></g><g><path d="M13.661598092651367,5.255902978744507C13.502398092651367,5.290502978744507,13.347198092651368,5.335902978744507,13.190398092651368,5.377402978744507C12.977298092651367,5.433602978744506,12.764598092651367,5.491202978744507,12.556898092651368,5.559602978744507C12.392598092651367,5.614302978744506,12.231898092651367,5.676302978744507,12.070998092651367,5.737802978744506C11.878398092651366,5.812002978744507,11.687498092651367,5.888702978744506,11.500998092651367,5.972702978744507C11.339898092651367,6.045402978744507,11.181698092651366,6.122702978744506,11.024698092651366,6.202702978744506Q10.756998092651367,6.339002978744507,10.498498092651367,6.489402978744507C10.345498092651368,6.5787029787445075,10.193898092651366,6.6694029787445075,10.045398092651368,6.765202978744506C9.877498092651368,6.8741029787445065,9.714598092651368,6.989402978744507,9.553198092651368,7.106502978744507C9.412598092651368,7.2091029787445065,9.271498092651367,7.310202978744507,9.136198092651366,7.419002978744507C8.974598092651366,7.548402978744507,8.820598092651366,7.6866029787445065,8.666198092651367,7.8253029787445065C8.543698092651368,7.935302978744507,8.418398092651367,8.042102978744506,8.300998092651367,8.157302978744507C8.134198092651367,8.320902978744506,7.978698092651367,8.495202978744507,7.822498092651367,8.669002978744507C6.006818092651367,10.679152978744508,5.001138092651367,13.291262978744507,4.999998092651367,15.999962978744508L3.0000000000013674,15.999962978744508C2.998393772651367,12.943762978744507,4.078898092651367,9.985662978744507,6.049998092651367,7.6500029787445065L6.045298092651367,7.646102978744507C6.137098092651367,7.536702978744507,6.242298092651367,7.440002978744507,6.337798092651367,7.333602978744507C6.521898092651368,7.128502978744507,6.704998092651367,6.923602978744507,6.901298092651367,6.730602978744507C7.0394980926513675,6.594802978744507,7.186898092651367,6.469302978744507,7.331298092651367,6.339902978744506C7.514398092651367,6.175402978744507,7.696998092651367,6.0113029787445065,7.889398092651367,5.857502978744507C8.048598092651368,5.729602978744507,8.213798092651366,5.610902978744507,8.378898092651367,5.490802978744506C8.570998092651367,5.3508029787445075,8.764398092651367,5.214002978744507,8.964298092651367,5.084602978744506C9.138598092651367,4.971802978744507,9.316598092651368,4.865802978744506,9.496498092651368,4.760802978744507Q9.804598092651368,4.582202978744506,10.121798092651368,4.420002978744507C10.306398092651367,4.325802978744507,10.491798092651367,4.235402978744506,10.681798092651366,4.1500029787445065C10.904198092651367,4.050002978744507,11.130798092651368,3.9585999787445068,11.359798092651367,3.870699978744507C11.549198092651368,3.7983999787445066,11.737498092651368,3.7251999787445067,11.931098092651368,3.661699978744507C12.177398092651368,3.5801999787445067,12.429098092651367,3.512299978744507,12.681798092651368,3.445399978744507C12.866598092651367,3.3960999787445068,13.049198092651368,3.342899978744507,13.237198092651367,3.302299978744507C13.527198092651368,3.2388999787445067,13.823698092651368,3.1948999787445067,14.120498092651367,3.151499978744507C14.279498092651368,3.128499978744507,14.434998092651368,3.0962998787445066,14.595898092651368,3.078700078744507C18.934098092651368,2.597005978744507,23.222498092651367,4.335992978744507,25.999998092651367,7.703102978744507L25.999998092651367,4.000002978744507L27.999998092651367,4.000002978744507L27.999998092651367,12.000002978744506L19.999998092651367,12.000002978744506L19.999998092651367,10.000002978744508L25.18849809265137,10.000002978744508C23.169798092651366,6.885032978744507,19.711898092651367,5.003342978744507,15.999998092651367,5.000002978744507C15.602798092651367,5.001032978744506,15.205898092651367,5.023362978744506,14.810998092651367,5.066902978744507C14.674798092651367,5.081502978744506,14.542998092651366,5.108902978744506,14.408398092651368,5.128402978744507C14.157498092651368,5.165002978744507,13.906998092651367,5.2026029787445065,13.661598092651367,5.255902978744507Z" fill="#000000" fill-opacity="1"/></g><g></g></g></svg>