<svg xmlns="http://www.w3.org/2000/svg" xmlns:xlink="http://www.w3.org/1999/xlink" fill="none" version="1.1" width="32" height="32" viewBox="0 0 32 32"><defs><clipPath id="master_svg0_134_20035"><rect x="0" y="0" width="32" height="32" rx="0"/></clipPath></defs><g clip-path="url(#master_svg0_134_20035)"><g><ellipse cx="16" cy="13.5" rx="1.5" ry="1.5" fill="#000000" fill-opacity="1"/></g><g><path d="M19.53560019073486,10.464803760375977C17.582910190734864,8.511753760375976,14.416600190734863,8.511753760375976,12.463900190734863,10.464803760375977L11.050000190734863,9.050803760375977C13.783550190734864,6.3163517603759765,18.216460190734864,6.3163517603759765,20.950000190734862,9.050803760375977L19.53560019073486,10.464803760375977Z" fill="#000000" fill-opacity="1"/></g><g><path d="M23.071299800109863,6.928997642974854C19.165999800109866,3.023447642974854,12.833999800109863,3.023447642974854,8.928699800109863,6.928997642974854L7.514599800109863,5.514397642974854C12.201169800109863,0.8285576429748536,19.79879980010986,0.8285576429748536,24.485399800109864,5.514397642974854L23.071299800109863,6.928997642974854Z" fill="#000000" fill-opacity="1"/></g><g><path d="M21,25L16,30L11,25L12.409,23.581L15,26.153L15,19L17,19L17,26.206L19.591,23.581L21,25Z" fill="#000000" fill-opacity="1"/></g><g><path d="M24,11L19,16L24,21L25.419,19.591L22.847,17L30,17L30,15L22.794,15L25.419,12.409L24,11Z" fill="#000000" fill-opacity="1"/></g><g><path d="M8,11L13,16L8,21L6.581,19.591L9.152999999999999,17L2,17L2,15L9.206,15L6.581,12.409L8,11Z" fill="#000000" fill-opacity="1"/></g><g></g></g></svg>