<svg xmlns="http://www.w3.org/2000/svg" xmlns:xlink="http://www.w3.org/1999/xlink" fill="none" version="1.1" width="32" height="32" viewBox="0 0 32 32"><defs><clipPath id="master_svg0_134_20045"><rect x="0" y="0" width="32" height="32" rx="0"/></clipPath></defs><g clip-path="url(#master_svg0_134_20045)"><g><rect x="4" y="24" width="24" height="2" rx="0" fill="#000000" fill-opacity="1"/></g><g><path d="M26,18L6,18L6,14L26,14L26,18ZM28,18L28,14C28,12.895431,27.1046,12,26,12L6,12C4.895431,12,4,12.895431,4,14L4,18C4,19.10457,4.895431,20,6,20L26,20C27.1046,20,28,19.10457,28,18Z" fill="#000000" fill-opacity="1"/></g><g><rect x="4" y="6" width="24" height="2" rx="0" fill="#000000" fill-opacity="1"/></g><g transform="matrix(0,1,-1,0,32,-32)"></g></g></svg>