<svg xmlns="http://www.w3.org/2000/svg" xmlns:xlink="http://www.w3.org/1999/xlink" fill="none" version="1.1" width="32" height="32" viewBox="0 0 32 32"><defs><clipPath id="master_svg0_134_20078"><rect x="0" y="0" width="32" height="32" rx="0"/></clipPath></defs><g clip-path="url(#master_svg0_134_20078)"><g><path d="M8,18C4.7,18,2,20.7,2,24C2,27.3,4.7,30,8,30C11.3,30,14,27.3,14,24C14,20.7,11.3,18,8,18ZM8,28C5.8,28,4,26.2,4,24C4,21.8,5.8,20,8,20C10.2,20,12,21.8,12,24C12,26.2,10.2,28,8,28Z" fill="#000000" fill-opacity="1"/></g><g><path d="M30,24L28,24C28,13,19,4,8,4L8,2C20.1,2,30,11.9,30,24Z" fill="#000000" fill-opacity="1"/></g><g><path d="M22,24L20,24C20,17.4,14.6,12,8,12L8,10C15.7,10,22,16.3,22,24Z" fill="#000000" fill-opacity="1"/></g><g></g></g></svg>