<svg xmlns="http://www.w3.org/2000/svg" xmlns:xlink="http://www.w3.org/1999/xlink" fill="none" version="1.1" width="32" height="32" viewBox="0 0 32 32"><defs><clipPath id="master_svg0_134_20216"><rect x="0" y="0" width="32" height="32" rx="0"/></clipPath></defs><g clip-path="url(#master_svg0_134_20216)"><g><path d="M30,14L28,14C27.993769999999998,8.47973,23.52027,4.00623,18,4L18,2C24.624290000000002,2.00755024,29.9924,7.37571,30,14Z" fill="#000000" fill-opacity="1"/></g><g><path d="M26,14L24,14C23.99631,10.68782,21.31218,8.00369,18,8L18,6C22.41618,6.00506973,25.99493,9.58382,26,14Z" fill="#000000" fill-opacity="1"/></g><g><path d="M16,27.999969062805175L16,24.959969062805175C18.6364,25.231969062805177,21.2719,24.436769062805176,23.3179,22.751969062805173C23.7218,22.422669062805177,23.968,21.938069062805177,23.9956,21.41756906280518C24.0205,20.910669062805177,23.8303,20.416769062805177,23.4717,20.057569062805175L18.4141,14.999999062805177L21,12.414099062805175L19.5859,10.999999062805175L17,13.585899062805176L11.9419,8.527300062805176C11.58153,8.170646062805176,11.08838,7.9810356628051755,10.5819,8.004400252805176C10.06143,8.031912762805176,9.57688,8.278274062805176,9.248000000000001,8.682600062805175C6.43695,12.108039062805176,6.22797,16.978979062805173,8.735299999999999,20.632569062805175L6.2793,27.999969062805175L2,27.999969062805175L2,29.999969062805175L30,29.999969062805175L30,27.999969062805175L16,27.999969062805175ZM10.68,10.093799062805175L21.9058,21.31996906280518C18.7205,23.790569062805176,14.1948,23.505669062805175,11.34443,20.655169062805175C8.49408,17.804749062805175,8.20936,13.278989062805175,10.68,10.093799062805175ZM14,27.999969062805175L8.3875,27.999969062805175L10.2632,22.372969062805176C11.33551,23.360469062805176,12.611,24.101369062805176,14,24.543469062805176L14,27.999969062805175Z" fill="#000000" fill-opacity="1"/></g><g></g></g></svg>