<svg xmlns="http://www.w3.org/2000/svg" xmlns:xlink="http://www.w3.org/1999/xlink" fill="none" version="1.1" width="32" height="32" viewBox="0 0 32 32"><defs><clipPath id="master_svg0_134_24873"><rect x="0" y="0" width="32" height="32" rx="0"/></clipPath></defs><g clip-path="url(#master_svg0_134_24873)"><g><path d="M21.56,15.1L18.08,10.75C17.700699999999998,10.276274,17.1269,10.000379562,16.52,10L4,10C2.895431,10,2,10.895431,2,12L2,28C2,29.1046,2.895431,30,4,30L20,30C21.1046,30,22,29.1046,22,28L22,16.35C21.9996,15.89544,21.8445,15.45456,21.56,15.1ZM9,12L15,12L15,15L9,15L9,12ZM15,28L9,28L9,22L15,22L15,28ZM17,28L17,22C17,20.895400000000002,16.104599999999998,20,15,20L9,20C7.89543,20,7,20.895400000000002,7,22L7,28L4,28L4,12L7,12L7,15C7,16.10457,7.89543,17,9,17L15,17C16.104599999999998,17,17,16.10457,17,15L17,12.6L20,16.35L20,28L17,28Z" fill="#000000" fill-opacity="1"/></g><g><path d="M28,20L25,20L25,18L28,18L28,4L14,4L14,7L12,7L12,4C12,2.895431,12.895431,2,14,2L28,2C29.1046,2,30,2.895431,30,4L30,18C30,19.1046,29.1046,20,28,20Z" fill="#000000" fill-opacity="1"/></g><g></g></g></svg>