<svg xmlns="http://www.w3.org/2000/svg" xmlns:xlink="http://www.w3.org/1999/xlink" fill="none" version="1.1" width="32" height="32" viewBox="0 0 32 32"><defs><clipPath id="master_svg0_134_20246"><rect x="0" y="0" width="32" height="32" rx="0"/></clipPath></defs><g clip-path="url(#master_svg0_134_20246)"><g><path d="M20,16C20,18.7614,22.2386,21,25,21C27.7614,21,30,18.7614,30,16C30,15.8447,29.9639,15.6916,29.8945,15.5527L25.896,7.5562C25.8823,7.52823,25.8671,7.50099,25.8506,7.4746C25.6685,7.17967,25.3466,7.00009,25,7L18.8218,7C18.5161,6.15307,17.8479,5.48705,17,5.1841L17,2L15,2L15,5.1841C14.1521,5.48705,13.4839,6.15307,13.1782,7L7,7C6.62122,6.99996,6.27493,7.21393,6.1055,7.5527L2.1055,15.5527C2.0361204,15.6914,2,15.8446,2,16C2,18.7614,4.23858,21,7,21C9.761420000000001,21,12,18.7614,12,16C12,15.8447,11.96392,15.6916,11.8945,15.5527L8.6182,9L13.1782,9C13.4839,9.84681,14.1521,10.51265,15,10.8154L15,28L6,28L6,30L26,30L26,28L17,28L17,10.8159C17.8479,10.51295,18.5161,9.84693,18.8218,9L23.3818,9L20.1055,15.5527C20.0361,15.6914,20,15.8446,20,16ZM7,19C5.73311,18.9957,4.60591,18.1949,4.1848,17L9.8148,17C9.39379,18.1948,8.266770000000001,18.9956,7,19ZM9.382100000000001,15L4.617900000000001,15L7,10.2363L9.382100000000001,15ZM16,9C15.4477,9,15,8.55229,15,8C15,7.44772,15.4477,7,16,7C16.552300000000002,7,17,7.44772,17,8C16.999499999999998,8.55208,16.5521,8.99951,16,9ZM25,19C23.7331,18.9957,22.6059,18.1949,22.1848,17L27.8148,17C27.3938,18.1948,26.2668,18.9956,25,19ZM25,10.2363L27.3821,15L22.6179,15L25,10.2363Z" fill="#000000" fill-opacity="1"/></g><g></g></g></svg>