<svg xmlns="http://www.w3.org/2000/svg" xmlns:xlink="http://www.w3.org/1999/xlink" fill="none" version="1.1" width="32" height="32" viewBox="0 0 32 32"><defs><clipPath id="master_svg0_134_20290"><rect x="0" y="0" width="32" height="32" rx="0"/></clipPath></defs><g clip-path="url(#master_svg0_134_20290)"><g><ellipse cx="9.5" cy="9.5" rx="2.5" ry="2.5" fill="#000000" fill-opacity="1"/></g><g><ellipse cx="9.5" cy="22.5" rx="2.5" ry="2.5" fill="#000000" fill-opacity="1"/></g><g><ellipse cx="22.5" cy="22.5" rx="2.5" ry="2.5" fill="#000000" fill-opacity="1"/></g><g><path d="M28,2L4,2C2.895956,2.00126719,2.00126719,2.895956,2,4L2,28C2.00126863,29.104,2.895956,29.9987,4,30L28,30C29.104,29.9987,29.9987,29.104,30,28L30,4C29.9987,2.895956,29.104,2.00126863,28,2ZM28,15L17,15L17,4L28,4L28,15ZM15,4L15,15L4,15L4,4L15,4ZM4,17L15,17L15,28L4,28L4,17ZM17,28L17,17L28,17L28,28L17,28Z" fill="#000000" fill-opacity="1"/></g><g></g></g></svg>