<svg xmlns="http://www.w3.org/2000/svg" xmlns:xlink="http://www.w3.org/1999/xlink" fill="none" version="1.1" width="32" height="32" viewBox="0 0 32 32"><defs><clipPath id="master_svg0_134_20316"><rect x="0" y="0" width="32" height="32" rx="0"/></clipPath></defs><g clip-path="url(#master_svg0_134_20316)"><g><path d="M26,28C23.79086,28,22,26.209139999999998,22,24C22,21.79086,23.79086,20,26,20C28.209139999999998,20,30,21.79086,30,24C29.99752,26.208109999999998,28.208109999999998,27.99752,26,28ZM26,22C24.89543,22,24,22.89543,24,24C24,25.10457,24.89543,26,26,26C27.10457,26,28,25.10457,28,24C27.998730000000002,22.89596,27.10404,22.001269999999998,26,22Z" fill="#000000" fill-opacity="1"/></g><g><path d="M24,8L18,8L18,10L24,10C24.5523,10,25,10.44771,25,11C25,11.55229,24.5523,12,24,12L21,12C20.3691,12.00034,19.8962,12.577670000000001,20.02,13.1963L20.9441,17.8174L18.4338,22L15.7438,22L13.1715,13.424800000000001C12.921,12.57665,12.1403,11.99598,11.2559,12L6,12L6,14L11.2561,14L11.8561,16L7,16C4.239879999999999,16.003140000000002,2.00314116,18.2399,2,21L2,23C2,23.552300000000002,2.447715,24,3,24L4,24C4,26.2091,5.79086,28,8,28C10.20914,28,12,26.2091,12,24L19,24C19.3512,24,19.6767,23.8157,19.8574,23.5146L22.8574,18.5146C22.9855,18.3012,23.0294,18.0477,22.9805,17.8037L22.22,14L24,14C25.6569,14,27,12.65685,27,11C27,9.34315,25.6569,8,24,8ZM8,26C6.896,25.9986,6.00138,25.104,6,24L10,24C9.998619999999999,25.104,9.104,25.9986,8,26ZM4,22L4,21C4.00182,19.343899999999998,5.3439,18.0018,7,18L12.4561,18L13.6561,22L4,22Z" fill="#000000" fill-opacity="1"/></g><g></g></g></svg>