<svg xmlns="http://www.w3.org/2000/svg" xmlns:xlink="http://www.w3.org/1999/xlink" fill="none" version="1.1" width="32" height="32" viewBox="0 0 32 32"><defs><clipPath id="master_svg0_134_20434"><rect x="0" y="0" width="32" height="32" rx="0"/></clipPath></defs><g clip-path="url(#master_svg0_134_20434)"><g><path d="M8,26L4,26C2.895911,25.99884,2.00115824,25.10409,2,24L2,20L4,20L4,24L8,24L8,26Z" fill="#000000" fill-opacity="1"/></g><g><rect x="2" y="12" width="2" height="4" rx="0" fill="#000000" fill-opacity="1"/></g><g><path d="M26,8L24,8L24,4L20,4L20,2L24,2C25.10409,2.00115848,25.99884,2.895911,26,4L26,8Z" fill="#000000" fill-opacity="1"/></g><g><rect x="12" y="2" width="4" height="2" rx="0" fill="#000000" fill-opacity="1"/></g><g><path d="M4,8L2,8L2,4C2.00115776,2.8959099999999998,2.895911,2.00115776,4,2L8,2L8,4L4,4L4,8Z" fill="#000000" fill-opacity="1"/></g><g><path d="M27.00003310699463,32.00003310699463C26.73473310699463,32.00033310699463,26.48023310699463,31.89483310699463,26.293033106994628,31.70703310699463L20.15533310699463,25.56933310699463L16.832003106994627,30.55473310699463C16.61709310699463,30.87713310699463,16.23527310699463,31.04633310699463,15.852063106994628,30.98903310699463C15.46885310699463,30.931733106994628,15.153223106994629,30.65823310699463,15.042003106994628,30.287133106994627L9.04200080699463,10.287103106994628C8.936340306994628,9.934761106994628,9.032647106994629,9.552856106994629,9.29275110699463,9.292752106994628C9.552854106994628,9.032648106994628,9.934758106994629,8.936340306994628,10.287103106994628,9.041999806994628L30.287133106994627,15.042003106994628C30.65823310699463,15.153223106994629,30.931733106994628,15.46885310699463,30.98903310699463,15.852063106994628C31.04633310699463,16.23527310699463,30.87713310699463,16.61709310699463,30.55473310699463,16.832003106994627L25.56933310699463,20.15533310699463L31.70703310699463,26.293033106994628C32.097733106994625,26.683333106994628,32.097733106994625,27.31663310699463,31.70703310699463,27.70703310699463L27.70703310699463,31.70703310699463C27.51973310699463,31.89483310699463,27.26523310699463,32.00033310699463,27.00003310699463,32.00003310699463ZM27.00003310699463,29.585933106994627L29.585933106994627,27.00003310699463L22.43103310699463,19.845033106994627L27.67683310699463,16.347203106994627L11.49170310699463,11.49170310699463L16.347203106994627,27.67683310699463L19.845033106994627,22.43103310699463L27.00003310699463,29.585933106994627Z" fill="#000000" fill-opacity="1"/></g><g></g></g></svg>