<svg xmlns="http://www.w3.org/2000/svg" xmlns:xlink="http://www.w3.org/1999/xlink" fill="none" version="1.1" width="32" height="32" viewBox="0 0 32 32"><defs><clipPath id="master_svg0_134_20449"><rect x="0" y="0" width="32" height="32" rx="0"/></clipPath></defs><g clip-path="url(#master_svg0_134_20449)"><g><path d="M27.71004796066284,4.290000050460815C27.43444796066284,4.015753250460816,27.024947960662843,3.9260516504608156,26.66004796066284,4.059999950460815L4.659999960662842,12.059998050460816C4.271538960662841,12.207348050460816,4.014647960662842,12.579528050460816,4.014647960662842,12.994998050460815C4.014648437499842,13.410468050460816,4.271538960662841,13.782658050460816,4.659999960662842,13.929998050460815L14.260047960662842,17.770038050460816L18.10004796066284,27.370038050460817C18.24744796066284,27.740738050460816,18.601147960662843,27.988338050460815,19.00004796066284,28.000038050460816C19.413647960662843,27.991538050460814,19.779447960662843,27.729138050460815,19.920047960662842,27.340038050460816L27.920047960662842,5.3399980504608155C28.05904796066284,4.978851050460816,27.97724796066284,4.569879050460815,27.71004796066284,4.290000050460815ZM19.00004796066284,24.200038050460815L16.21004796066284,17.200038050460815L21.00004796066284,12.409998050460816L19.590047960662844,10.999998050460816L14.760047960662842,15.830038050460816L7.799997960662842,12.999998050460816L25.330047960662842,6.669998050460816L19.00004796066284,24.200038050460815Z" fill="#000000" fill-opacity="1"/></g><g></g></g></svg>