<svg xmlns="http://www.w3.org/2000/svg" xmlns:xlink="http://www.w3.org/1999/xlink" fill="none" version="1.1" width="32" height="32" viewBox="0 0 32 32"><defs><clipPath id="master_svg0_134_20486"><rect x="0" y="0" width="32" height="32" rx="0"/></clipPath></defs><g clip-path="url(#master_svg0_134_20486)"><g><path d="M6,30L26,30C27.1046,30,28,29.104570000000002,28,28L28,22C28,20.89543,27.1046,20,26,20L6,20C4.895431,20,4,20.89543,4,22L4,28C4,29.104570000000002,4.895431,30,6,30ZM6,22L26,22L26,28L6,28L6,22Z" fill="#000000" fill-opacity="1"/></g><g><ellipse cx="9" cy="25" rx="1" ry="1" fill="#000000" fill-opacity="1"/></g><g><path d="M26,1.9999999831359863L24.59,3.4099956831359863L27.17,5.999995683135986L22.315,5.999995683135986C20.8488,2.8496276831359864,17.2895,1.2564756831359865,13.9632,2.261763683135986C10.63699,3.267055683135986,8.55586,6.564915683135986,9.08,9.999995683135987L4.83,9.999995683135987L7.41,7.409995683135986L6,5.999995683135986L1,10.999995683135987L6,15.999955683135987L7.41,14.589955683135987L4.83,11.999955683135987L9.685,11.999955683135987C11.1512,15.150355683135986,14.7105,16.743555683135988,18.0368,15.738255683135986C21.363,14.732955683135986,23.4441,11.435085683135986,22.92,7.999995683135986L27.17,7.999995683135986L24.59,10.589995683135987L26,11.999955683135987L31,6.999995683135986L26,1.9999999831359863ZM21,8.999995683135985C21.0074,11.149535683135987,19.6355,13.061555683135987,17.5968,13.742955683135987C15.5582,14.424455683135987,13.3123,13.721855683135987,12.0255,11.999955683135987L16,11.999955683135987L16,9.999995683135987L11.1011,9.999995683135987C10.62542,7.712085683135986,11.8028,5.4007956831359865,13.9332,4.440455683135987C16.0636,3.480105683135986,18.5752,4.128455683135986,19.9745,5.999995683135986L16,5.999995683135986L16,7.999995683135986L20.8989,7.999995683135986C20.9661,8.329475683135986,21,8.664505683135985,21,8.999995683135985Z" fill="#000000" fill-opacity="1"/></g><g></g></g></svg>