<svg xmlns="http://www.w3.org/2000/svg" xmlns:xlink="http://www.w3.org/1999/xlink" fill="none" version="1.1" width="32" height="32" viewBox="0 0 32 32"><defs><clipPath id="master_svg0_134_20529"><rect x="0" y="0" width="32" height="32" rx="0"/></clipPath></defs><g clip-path="url(#master_svg0_134_20529)"><g><path d="M27.000048098373412,16.760028028869627C27.000048098373412,16.510028028869627,27.000048098373412,16.260028028869627,27.000048098373412,16.00002802886963C27.000048098373412,15.740028028869629,27.000048098373412,15.490028028869629,27.000048098373412,15.23002802886963L28.920048098373414,13.55002802886963C29.650748098373413,12.90592802886963,29.811148098373412,11.82912802886963,29.300048098373413,10.999998028869628L26.940048098373413,6.999998028869629C26.583148098373414,6.381828028869629,25.923848098373412,6.000728028869629,25.210048098373413,5.999998028869629C24.99264809837341,5.998338028869629,24.776448098373415,6.032108028869629,24.570048098373412,6.099998028869629L22.140048098373413,6.919998028869629C21.720448098373414,6.641208028869629,21.282848098373414,6.390658028869629,20.830048098373414,6.169998028869629L20.320048098373412,3.649998028869629C20.131248098373412,2.6997690288696288,19.288648098373415,2.021437628869629,18.320048098373412,2.0399999618696287L13.640048098373413,2.0399999618696287C12.671348098373413,2.021437628869629,11.828738098373414,2.6997690288696288,11.639998098373413,3.649998028869629L11.129998098373413,6.169998028869629C10.673928098373413,6.390598028869629,10.232968098373412,6.641148028869629,9.809998098373413,6.919998028869629L7.429998098373413,6.059998028869629C7.221298098373413,6.005628028869629,7.005168098373413,5.985358028869629,6.789998098373413,5.999998028869629C6.076198098373413,6.000728028869629,5.416898098373413,6.381828028869629,5.059998098373413,6.999998028869629L2.700000098373413,10.999998028869628C2.218600098373413,11.82701802886963,2.3904642983734132,12.879128028869628,3.110000098373413,13.510028028869629L4.999998098373413,15.240028028869629C4.999998098373413,15.490028028869629,4.999998098373413,15.740028028869629,4.999998098373413,16.00002802886963C4.999998098373413,16.260028028869627,4.999998098373413,16.510028028869627,4.999998098373413,16.77002802886963L3.110000098373413,18.450028028869628C2.369250998373413,19.086028028869627,2.195946098373413,20.163828028869627,2.700000098373413,21.00002802886963L5.059998098373413,25.00002802886963C5.416898098373413,25.618128028869627,6.076198098373413,25.999228028869627,6.789998098373413,26.00002802886963C7.007348098373413,26.00162802886963,7.223518098373413,25.96792802886963,7.429998098373413,25.900028028869627L9.859998098373413,25.08002802886963C10.279538098373413,25.358828028869628,10.717178098373413,25.60932802886963,11.169998098373414,25.83002802886963L11.679998098373414,28.35002802886963C11.868738098373413,29.30022802886963,12.711348098373414,29.97852802886963,13.680048098373414,29.96002802886963L18.40004809837341,29.96002802886963C19.368648098373413,29.97852802886963,20.211248098373414,29.30022802886963,20.400048098373414,28.35002802886963L20.910048098373412,25.83002802886963C21.366048098373412,25.60942802886963,21.807048098373414,25.358828028869628,22.230048098373413,25.08002802886963L24.650048098373414,25.900028028869627C24.856448098373413,25.96792802886963,25.072648098373413,26.00162802886963,25.290048098373415,26.00002802886963C26.003748098373414,25.999228028869627,26.663148098373412,25.618128028869627,27.02004809837341,25.00002802886963L29.300048098373413,21.00002802886963C29.781448098373414,20.17302802886963,29.609548098373413,19.120828028869628,28.890048098373413,18.490028028869627L27.000048098373412,16.760028028869627ZM25.210048098373413,24.00002802886963L21.780048098373413,22.84002802886963C20.977048098373412,23.520128028869628,20.059348098373412,24.05172802886963,19.070048098373412,24.41002802886963L18.36004809837341,28.00002802886963L13.640048098373413,28.00002802886963L12.930048098373414,24.450028028869628C11.948418098373413,24.08162802886963,11.035718098373414,23.550828028869628,10.229998098373413,22.880028028869628L6.789998098373413,24.00002802886963L4.429998098373414,20.00002802886963L7.1499980983734135,17.60002802886963C6.965098098373413,16.564828028869627,6.965098098373413,15.50512802886963,7.1499980983734135,14.47002802886963L4.429998098373414,11.999998028869628L6.789998098373413,7.999998028869629L10.219998098373413,9.15999802886963C11.022938098373412,8.47988802886963,11.940598098373414,7.9482580288696285,12.930048098373414,7.589998028869629L13.640048098373413,3.999998028869629L18.36004809837341,3.999998028869629L19.070048098373412,7.549998028869629C20.051548098373413,7.918418028869629,20.964248098373414,8.44913802886963,21.77004809837341,9.11999802886963L25.210048098373413,7.999998028869629L27.570048098373412,11.999998028869628L24.850048098373414,14.40002802886963C25.034948098373413,15.435128028869629,25.034948098373413,16.494828028869627,24.850048098373414,17.53002802886963L27.570048098373412,20.00002802886963L25.210048098373413,24.00002802886963Z" fill="#000000" fill-opacity="1"/></g><g><path d="M16,22C12.68629,22,10,19.31371,10,16C10,12.68629,12.68629,10,16,10C19.31371,10,22,12.68629,22,16C22.0338,19.3276,19.3276,22.0338,16,22ZM16,12C13.76969,11.94804,11.94804,13.76969,12,16C11.94804,18.23031,13.7697,20.052,16,20C18.2303,20.052,20.052,18.2303,20,16C20.052,13.76969,18.23031,11.94804,16,12Z" fill="#000000" fill-opacity="1"/></g><g></g></g></svg>