<svg xmlns="http://www.w3.org/2000/svg" xmlns:xlink="http://www.w3.org/1999/xlink" fill="none" version="1.1" width="32" height="32" viewBox="0 0 32 32"><defs><clipPath id="master_svg0_134_20548"><rect x="0" y="0" width="32" height="32" rx="0"/></clipPath></defs><g clip-path="url(#master_svg0_134_20548)"><g><path d="M31.707000817871094,19.292900408935548L28.707000817871094,16.292900408935548C28.31640081787109,15.902299908935547,27.683600817871096,15.902299908935547,27.292900817871093,16.292900408935548L17.999900817871094,25.585900408935547L17.999900817871094,29.999950408935547L22.414000817871095,29.999950408935547L31.707000817871094,20.707000408935546C32.0976008178711,20.316400408935547,32.0976008178711,19.683600408935547,31.707000817871094,19.292900408935548ZM21.585900817871092,27.999950408935547L20.000000817871094,27.999950408935547L20.000000817871094,26.414050408935545L25.000000817871094,21.414000408935546L26.585900817871092,22.999900408935545L21.585900817871092,27.999950408935547ZM28.000000817871094,21.585800408935548L26.414100817871095,19.999900408935545L28.000000817871094,18.414000408935546L29.585900817871092,19.999900408935545L28.000000817871094,21.585800408935548Z" fill="#000000" fill-opacity="1"/></g><g><path d="M16,22C12.6357,22,10,19.3643,10,16C10,12.6357,12.6357,10,16,10C19.3643,10,22,12.6357,22,16C22,19.3643,19.3643,22,16,22ZM16,12C13.7197,12,12,13.7197,12,16C12,18.2803,13.7197,20,16,20C18.2803,20,20,18.2803,20,16C20,13.7197,18.2803,12,16,12Z" fill="#000000" fill-opacity="1"/></g><g><path d="M27.54738567123413,12.0005L29.27958567123413,11.0005L26.94418567123413,6.9561C26.578985671234133,6.3233,25.91078567123413,5.9556000000000004,25.21198567123413,5.9556000000000004C24.99858567123413,5.9556000000000004,24.78258567123413,5.9898,24.571385671234133,6.0616L22.13728567123413,6.8848C21.719285671234132,6.6036,21.28128567123413,6.3496,20.82528567123413,6.1265L20.321585671234132,3.6079C20.13458567123413,2.6728,19.313785671234132,2,18.36038567123413,2L13.639685671234131,2C12.686285671234131,2,11.86549567123413,2.6729000000000003,11.678495671234131,3.6079L11.174795671234131,6.1265C10.715805671234131,6.3511,10.26859567123413,6.5957,9.84809567123413,6.8799L7.428695671234131,6.0615C7.217495671234131,5.9897,7.001495671234131,5.9555,6.788095671234131,5.9555C6.089395671234131,5.9555,5.4211956712341305,6.3232,5.055895671234131,6.956L2.6952986712341307,11.0439C2.218699671234131,11.8696,2.391099171234131,12.9169,3.107199671234131,13.5463L5.038095671234131,15.2431C5.020995671234131,15.4946,4.999995671234131,15.7446,4.999995671234131,15.9999C4.999995671234131,16.2577,5.010295671234131,16.5126,5.027795671234131,16.7655L3.1070996712341308,18.4535C2.390999571234131,19.0829,2.218699671234131,20.1303,2.695199671234131,20.9559L5.055795671234131,25.0438C5.420995671234131,25.6766,6.0891956712341315,26.0443,6.787995671234131,26.0443C7.001395671234131,26.0443,7.2176956712341305,26.0101,7.428595671234131,25.9383L9.862695671234132,25.1151C10.280695671234131,25.3968,10.718695671234132,25.6503,11.174695671234131,25.8734L11.678395671234131,28.392C11.86539567123413,29.3271,12.686185671234131,29.9999,13.639585671234132,29.9999L15.99998567123413,29.9999L15.99998567123413,27.9999L13.639585671234132,27.9999L12.929385671234131,24.4491C11.95409567123413,24.0931,11.026795671234131,23.5429,10.234595671234132,22.8778L6.7877956712341305,24.0438L4.42739567123413,19.9559L7.152695671234131,17.5609C6.968895671234131,16.517899999999997,6.961295671234131,15.4779,7.145595671234131,14.433L4.4272956712341305,12.0438L6.788395671234131,7.9559L10.215195671234131,9.1151C11.018395671234131,8.4388,11.94469567123413,7.91,12.929285671234132,7.5506L13.63948567123413,3.9998L18.36018567123413,3.9998L19.07038567123413,7.5506C20.045685671234132,7.9066,20.97268567123413,8.456800000000001,21.765185671234132,9.1219L25.21198567123413,7.9559L27.54738567123413,12.0005Z" fill="#000000" fill-opacity="1"/></g><g></g></g></svg>