<svg xmlns="http://www.w3.org/2000/svg" xmlns:xlink="http://www.w3.org/1999/xlink" fill="none" version="1.1" width="32" height="32" viewBox="0 0 32 32"><defs><clipPath id="master_svg0_134_20555"><rect x="0" y="0" width="32" height="32" rx="0"/></clipPath></defs><g clip-path="url(#master_svg0_134_20555)"><g><path d="M29,25L27,25L27,23L28,23L28,19L24,19L24,20L22,20L22,18C22,17.447716,22.447716,17,23,17L29,17C29.55228,17,30,17.447716,30,18L30,24C30,24.55228,29.55228,25,29,25Z" fill="#000000" fill-opacity="1"/></g><g><path d="M24,30L18,30C17.447716,30,17,29.55228,17,29L17,23C17,22.447716,17.447716,22,18,22L24,22C24.55228,22,25,22.447716,25,23L25,29C25,29.55228,24.55228,30,24,30ZM19,28L23,28L23,24L19,24L19,28Z" fill="#000000" fill-opacity="1"/></g><g><path d="M15.000004143676758,19.857903460388183C12.991994143676758,19.334863460388185,11.719134143676758,17.361113460388182,12.071054143676758,15.316163460388184C12.422984143676757,13.271223460388184,14.282414143676757,11.836523460388184,16.34974414367676,12.014823460388182C18.417074143676757,12.193113460388183,20.00344414367676,13.924993460388183,20.00004414367676,16.000003460388186L22.00004414367676,16.000003460388186C22.00324414367676,12.815553460388184,19.518144143676757,10.183291460388183,16.33877414367676,10.003492350388184C13.159404143676758,9.823693460388183,10.393395143676758,12.158993460388183,10.037576643676758,15.323503460388183C9.681759143676757,18.48801346038818,11.860094143676758,21.379273460388184,15.000004143676758,21.909973460388183L15.000004143676758,19.857903460388183Z" fill="#000000" fill-opacity="1"/></g><g><path d="M28.890003854370118,13.55L26.580003854370116,15.58L25.160003854370117,14.16L27.570003854370118,12.04L25.210003854370118,7.96L21.770003854370117,9.120000000000001C20.964203854370115,8.44927,20.051503854370118,7.91857,19.070003854370118,7.55L18.360003854370117,4L13.640003854370118,4L12.930003854370117,7.55C11.940613854370117,7.90827,11.022943854370117,8.439910000000001,10.220003854370116,9.120000000000001L6.790003854370117,7.96L4.430003854370117,12.04L7.150003854370117,14.43C6.964983854370117,15.4651,6.964983854370117,16.524900000000002,7.150003854370117,17.560000000000002L4.430003854370117,19.96L6.790003854370117,24.04L10.230003854370118,22.88C11.035803854370117,23.5507,11.948483854370117,24.0814,12.930003854370117,24.45L13.640003854370118,28L15.000003854370117,28L15.000003854370117,30L13.640003854370118,30C12.686503854370118,29.999,11.866203854370116,29.3252,11.680003854370117,28.39L11.170003854370117,25.87C10.717263854370117,25.6492,10.279633854370118,25.3986,9.860003854370117,25.12L7.430003854370117,25.94C7.223363854370117,26.0072,7.007303854370117,26.041,6.790003854370117,26.04C6.074693854370118,26.0449,5.412753854370117,25.6623,5.060003854370118,25.04L2.6999998543701174,20.96C2.2186008543701172,20.133,2.3904643543701174,19.0808,3.109999854370117,18.45L5.030003854370117,16.77C5.010003854370117,16.509999999999998,5.000003854370117,16.259999999999998,5.000003854370117,16C5.000003854370117,15.74,5.020003854370117,15.49,5.040003854370117,15.24L3.109999854370117,13.55C2.3904638543701173,12.9192,2.218599854370117,11.86701,2.6999998543701174,11.04L5.060003854370118,6.96C5.412753854370117,6.3377,6.074693854370118,5.955080000000001,6.790003854370117,5.96C7.007303854370117,5.959,7.223363854370117,5.9927600000000005,7.430003854370117,6.06L9.850003854370117,6.88C10.273063854370118,6.6013,10.714013854370117,6.35076,11.170003854370117,6.13L11.680003854370117,3.6100000000000003C11.866203854370116,2.674841,12.686503854370118,2.00103927,13.640003854370118,2L18.360003854370117,2C19.31350385437012,2.00104022,20.133803854370118,2.674842,20.320003854370118,3.6100000000000003L20.830003854370116,6.13C21.282703854370116,6.35081,21.72040385437012,6.60136,22.140003854370118,6.88L24.570003854370118,6.06C24.776603854370116,5.9927600000000005,24.992703854370117,5.959,25.210003854370118,5.96C25.925303854370117,5.955080000000001,26.587203854370117,6.3377,26.94000385437012,6.96L29.300003854370118,11.04C29.78140385437012,11.86701,29.609503854370118,12.9192,28.890003854370118,13.55Z" fill="#000000" fill-opacity="1"/></g><g></g></g></svg>