<svg xmlns="http://www.w3.org/2000/svg" xmlns:xlink="http://www.w3.org/1999/xlink" fill="none" version="1.1" width="32" height="32" viewBox="0 0 32 32"><defs><clipPath id="master_svg0_134_20563"><rect x="0" y="0" width="32" height="32" rx="0"/></clipPath></defs><g clip-path="url(#master_svg0_134_20563)"><g><ellipse cx="23" cy="23.999900817871094" rx="2" ry="2" fill="#000000" fill-opacity="1"/></g><g><path d="M30.776899999999998,23.4785C29.5138,20.26117,26.4548,18.106215,23,18C19.54523,18.106216,16.48621,20.26117,15.223101,23.4785L15,24L15.2231,24.5215C16.48621,27.73883,19.54523,29.8938,23,30C26.4548,29.8938,29.5138,27.73883,30.776899999999998,24.5215L31,24L30.776899999999998,23.4785ZM23,28C20.790860000000002,28,19,26.209139999999998,19,24C19,21.79086,20.790860000000002,20,23,20C25.2091,20,27,21.79086,27,24C26.997500000000002,26.208109999999998,25.2081,27.99752,23,28Z" fill="#000000" fill-opacity="1"/></g><g><path d="M12.398901309814454,20.799982318115234C8.831661309814454,18.123292318115233,9.327898309814453,12.628442318115233,13.316971309814454,10.634138318115234C17.306651309814452,8.640212318115234,21.999961309814452,11.540572318115235,21.999961309814452,16.000002318115236L19.999961309814452,16.000002318115236C19.999961309814452,13.026472318115234,16.87075130981445,11.092492318115234,14.211141309814453,12.422292318115234C11.551541309814453,13.752092318115235,11.221171309814453,17.415882318115234,13.600001309814452,19.200002318115235L12.398901309814454,20.799982318115234Z" fill="#000000" fill-opacity="1"/></g><g><path d="M29.304691767501833,11.0439L26.94409176750183,6.9561C26.468091767501832,6.12978,25.47439176750183,5.755129999999999,24.57129176750183,6.0615L22.137191767501832,6.8848C21.717791767501833,6.60229,21.27939176750183,6.34892,20.82519176750183,6.1265L20.321491767501833,3.6079C20.13469176750183,2.673023,19.31369176750183,2,18.359991767501832,2L13.639991767501831,2C12.686591767501831,2.0000422001,11.865811767501832,2.673022,11.67890176750183,3.6079L11.17520176750183,6.1265C10.715871767501831,6.34655,10.272431767501832,6.59832,9.84810176750183,6.88L7.428701767501831,6.0615C6.525621767501831,5.755129999999999,5.5319217675018315,6.12978,5.055901767501831,6.9561L2.695299767501831,11.0439C2.218778767501831,11.86965,2.3911571675018313,12.9169,3.107199767501831,13.5464L5.038101767501831,15.2432C5.021001767501831,15.4946,5.000001767501831,15.7446,5.000001767501831,16C5.000001767501831,16.2578,5.010001767501831,16.512700000000002,5.027801767501831,16.7656L3.107199767501831,18.4536C2.391156667501831,19.0831,2.218778767501831,20.1303,2.695299767501831,20.9561L5.055901767501831,25.0439C5.5319217675018315,25.8702,6.525621767501831,26.2449,7.428701767501831,25.9385L9.862801767501832,25.1152C10.28214176750183,25.3979,10.720511767501831,25.6513,11.174801767501831,25.8735L11.678501767501832,28.3921C11.865261767501831,29.327,12.686291767501832,30,13.639991767501831,30L14.99999176750183,30L14.99999176750183,28L13.639991767501831,28L12.92999176750183,24.4492C11.94795176750183,24.0845,11.03627176750183,23.5529,10.235201767501831,22.8779L6.788401767501831,24.0439L4.428401767501831,19.9561L7.152801767501831,17.561C6.966381767501831,16.526899999999998,6.964011767501831,15.468,7.1458017675018315,14.4331L4.42750176750183,12.0439L6.788601767501831,7.9561L10.215301767501831,9.1152C11.02195176750183,8.4396,11.940471767501831,7.91017,12.929391767501832,7.5508L13.639991767501831,4L18.359991767501832,4L19.069991767501833,7.5508C20.051991767501832,7.91551,20.96369176750183,8.44709,21.76479176750183,9.1221L25.21159176750183,7.9561L27.571591767501832,12.0439L24.77379176750183,14.4961L26.09229176750183,16L28.89229176750183,13.5464C29.60849176750183,12.9171,29.78109176750183,11.86977,29.304691767501833,11.0439Z" fill="#000000" fill-opacity="1"/></g><g></g></g></svg>