<svg xmlns="http://www.w3.org/2000/svg" xmlns:xlink="http://www.w3.org/1999/xlink" fill="none" version="1.1" width="32" height="32" viewBox="0 0 32 32"><defs><clipPath id="master_svg0_134_20576"><rect x="0" y="0" width="32" height="32" rx="0"/></clipPath></defs><g clip-path="url(#master_svg0_134_20576)"><g><path d="M12,10L22,10L22,4C22,2.895431,21.1046,2,20,2L4,2C2.895431,2,2,2.895431,2,4L2,20C2,21.1046,2.895431,22,4,22L10,22L10,12C10,10.89543,10.89543,10,12,10Z" fill="#000000" fill-opacity="1"/></g><g><path d="M28,10L22,10L22,20C22,21.104599999999998,21.104599999999998,22,20,22L10,22L10,28C10,29.1046,10.895431,30,12,30L28,30C29.1046,30,30,29.1046,30,28L30,12C30,10.895431,29.1046,10,28,10Z" fill="#000000" fill-opacity="1"/></g><g></g></g></svg>