<svg xmlns="http://www.w3.org/2000/svg" xmlns:xlink="http://www.w3.org/1999/xlink" fill="none" version="1.1" width="32" height="32" viewBox="0 0 32 32"><defs><clipPath id="master_svg0_134_20626"><rect x="0" y="0" width="32" height="32" rx="0"/></clipPath></defs><g clip-path="url(#master_svg0_134_20626)"><g><ellipse cx="10" cy="28" rx="2" ry="2" fill="#000000" fill-opacity="1"/></g><g><ellipse cx="24" cy="28" rx="2" ry="2" fill="#000000" fill-opacity="1"/></g><g><path d="M4.9806,2.8039C4.88713,2.33647,4.4767,2,4,2L0,2L0,4L3.18,4L7.0194,23.1961C7.11287,23.6635,7.5233,24,8,24L26,24L26,22L8.82,22L8.02,18L26,18C26.4687,18,26.8745,17.674500000000002,26.9762,17.217L29.2445,7L27.1971,7L25.1982,16L7.62,16L4.9806,2.8039Z" fill="#000000" fill-opacity="1"/></g><g><path d="M21.586,6.586L18,10.172L18,2L16,2L16,10.172L12.414,6.586L11,8L17,14L23,8L21.586,6.586Z" fill="#000000" fill-opacity="1"/></g><g></g></g></svg>