<svg xmlns="http://www.w3.org/2000/svg" xmlns:xlink="http://www.w3.org/1999/xlink" fill="none" version="1.1" width="32" height="32" viewBox="0 0 32 32"><defs><clipPath id="master_svg0_134_20697"><rect x="0" y="0" width="32" height="32" rx="0"/></clipPath></defs><g clip-path="url(#master_svg0_134_20697)"><g><rect x="15" y="18" width="15" height="10" rx="2" fill="#000000" fill-opacity="1"/></g><g><path d="M12.000000221252442,10.000000221252442L12.000000221252442,13.58600022125244L7.707000221252441,9.293000221252441L6.293000221252441,10.707000221252441L10.58600022125244,15.000000221252442L7.000000221252441,15.000000221252442L7.000000221252441,17.000000221252442L14.000000221252442,17.000000221252442L14.000000221252442,10.000000221252442L12.000000221252442,10.000000221252442Z" fill="#000000" fill-opacity="1"/></g><g><path d="M13,22L4,22C2.895956,21.9987,2.00126839,21.104,2,20L2,7C2.00110245,5.895887,2.895887,5.00110245,4,5L26,5C27.104,5.00126743,27.9987,5.895956,28,7L28,16L26,16L26,7L4,7L4,20L13,20L13,22Z" fill="#000000" fill-opacity="1"/></g><g></g></g></svg>