<svg xmlns="http://www.w3.org/2000/svg" xmlns:xlink="http://www.w3.org/1999/xlink" fill="none" version="1.1" width="32" height="32" viewBox="0 0 32 32"><defs><clipPath id="master_svg0_134_20704"><rect x="0" y="0" width="32" height="32" rx="0"/></clipPath></defs><g clip-path="url(#master_svg0_134_20704)"><g><path d="M22.59,19.41L26.17,23L19.55,23L15.18,16L19.55,9L26.17,9L22.59,12.59L24,14L30,8L24,2L22.59,3.41L26.17,7L19.55,7C18.8626,7.00206,18.2243,7.35704,17.86,7.94L14,14.11L10.14,7.94C9.775649999999999,7.35704,9.137450000000001,7.00206,8.45,7L2,7L2,9L8.45,9L12.82,16L8.45,23L2,23L2,25L8.45,25C9.137450000000001,24.9979,9.775649999999999,24.643,10.14,24.06L14,17.89L17.86,24.06C18.2243,24.643,18.8626,24.9979,19.55,25L26.17,25L22.59,28.59L24,30L30,24L24,18L22.59,19.41Z" fill="#000000" fill-opacity="1"/></g><g></g></g></svg>