<svg xmlns="http://www.w3.org/2000/svg" xmlns:xlink="http://www.w3.org/1999/xlink" fill="none" version="1.1" width="32" height="32" viewBox="0 0 32 32"><defs><clipPath id="master_svg0_134_20714"><rect x="0" y="0" width="32" height="32" rx="0"/></clipPath></defs><g clip-path="url(#master_svg0_134_20714)"><g><path d="M28,4L4,4C2.9,4,2,4.9,2,6L2,26C2,27.1,2.9,28,4,28L28,28C29.1,28,30,27.1,30,26L30,6C30,4.9,29.1,4,28,4ZM10,26L4,26L4,6L10,6L10,26ZM28,15L17.8,15L21.4,11.4L20,10L14,16L20,22L21.4,20.6L17.8,17L28,17L28,26L12,26L12,6L28,6L28,15Z" fill="#000000" fill-opacity="1"/></g><g></g></g></svg>