<svg xmlns="http://www.w3.org/2000/svg" xmlns:xlink="http://www.w3.org/1999/xlink" fill="none" version="1.1" width="32" height="32" viewBox="0 0 32 32"><defs><clipPath id="master_svg0_134_20831"><rect x="0" y="0" width="32" height="32" rx="0"/></clipPath></defs><g clip-path="url(#master_svg0_134_20831)"><g><path d="M5.000002132186889,28.00002556228638C4.4477151321868895,28.00002556228638,3.9999999999968896,27.552325562286377,3.9999999999968896,27.00002556228638L3.9999999999968896,4.999995562286377C3.9985761621868896,4.641315562286377,4.18936613218689,4.309340562286377,4.50000013218689,4.130000562286377C4.80940113218689,3.9513673622863767,5.190602132186889,3.9513673622863767,5.500002132186889,4.130000562286377L24.49999213218689,15.130025562286377C24.81329213218689,15.307525562286378,25.00699213218689,15.639825562286378,25.00699213218689,16.000025562286375C25.00699213218689,16.360125562286377,24.81329213218689,16.692425562286378,24.49999213218689,16.87002556228638L5.500002132186889,27.870025562286376C5.34759213218689,27.956425562286377,5.17517213218689,28.001225562286375,5.000002132186889,28.00002556228638ZM6.000002132186889,6.729995562286376L6.000002132186889,25.270025562286378L21.99999213218689,16.000025562286375L6.000002132186889,6.729995562286376Z" fill="#000000" fill-opacity="1"/></g><g><rect x="28" y="4" width="2" height="24" rx="0" fill="#000000" fill-opacity="1"/></g><g></g></g></svg>