<svg xmlns="http://www.w3.org/2000/svg" xmlns:xlink="http://www.w3.org/1999/xlink" fill="none" version="1.1" width="32" height="32" viewBox="0 0 32 32"><defs><clipPath id="master_svg0_134_20912"><rect x="0" y="0" width="32" height="32" rx="0"/></clipPath></defs><g clip-path="url(#master_svg0_134_20912)"><g><path d="M20,14L20,12L12,12L12,14L17.5,14L12,20L12,22L20,22L20,20L14.507,20L20,14Z" fill="#000000" fill-opacity="1"/></g><g transform="matrix(0.7077901363372803,-0.706422746181488,0.706422746181488,0.7077901363372803,2.8977323775179684,17.829539837752236)"><rect x="23.00048828125" y="5.412109375" width="1.9993000030517578" height="5.071800231933594" rx="0" fill="#000000" fill-opacity="1"/></g><g><path d="M16,28C9.92487,28,5,23.0751,5,17C5,10.92487,9.92487,6,16,6C22.0751,6,27,10.92487,27,17C26.9931,23.0723,22.0723,27.9931,16,28ZM16,8C11.029440000000001,8,7,12.029440000000001,7,17C7,21.970599999999997,11.029440000000001,26,16,26C20.970599999999997,26,25,21.970599999999997,25,17C24.9945,12.03172,20.9683,8.005510000000001,16,8Z" fill="#000000" fill-opacity="1"/></g><g transform="matrix(0.706422746181488,-0.7077901363372803,0.7077901363372803,0.706422746181488,-4.1969106036006,5.060310784171634)"><rect x="4.001537322998047" y="7.58935546875" width="5.071800231933594" height="1.9993000030517578" rx="0" fill="#000000" fill-opacity="1"/></g><g></g></g></svg>