<svg xmlns="http://www.w3.org/2000/svg" xmlns:xlink="http://www.w3.org/1999/xlink" fill="none" version="1.1" width="32" height="32" viewBox="0 0 32 32"><defs><clipPath id="master_svg0_134_21024"><rect x="0" y="0" width="32" height="32" rx="0"/></clipPath></defs><g clip-path="url(#master_svg0_134_21024)"><g><rect x="2" y="26" width="2" height="2" rx="0" fill="#000000" fill-opacity="1"/></g><g><rect x="4" y="28" width="2" height="2" rx="0" fill="#000000" fill-opacity="1"/></g><g><rect x="6" y="30" width="2" height="2" rx="0" fill="#000000" fill-opacity="1"/></g><g><rect x="6" y="26" width="2" height="2" rx="0" fill="#000000" fill-opacity="1"/></g><g><rect x="2" y="30" width="2" height="2" rx="0" fill="#000000" fill-opacity="1"/></g><g><rect x="20" y="26" width="2" height="2" rx="0" fill="#000000" fill-opacity="1"/></g><g><rect x="22" y="28" width="2" height="2" rx="0" fill="#000000" fill-opacity="1"/></g><g><rect x="24" y="30" width="2" height="2" rx="0" fill="#000000" fill-opacity="1"/></g><g><rect x="24" y="26" width="2" height="2" rx="0" fill="#000000" fill-opacity="1"/></g><g><rect x="20" y="30" width="2" height="2" rx="0" fill="#000000" fill-opacity="1"/></g><g><rect x="11" y="26" width="2" height="2" rx="0" fill="#000000" fill-opacity="1"/></g><g><rect x="13" y="28" width="2" height="2" rx="0" fill="#000000" fill-opacity="1"/></g><g><rect x="15" y="30" width="2" height="2" rx="0" fill="#000000" fill-opacity="1"/></g><g><rect x="15" y="26" width="2" height="2" rx="0" fill="#000000" fill-opacity="1"/></g><g><rect x="11" y="30" width="2" height="2" rx="0" fill="#000000" fill-opacity="1"/></g><g><path d="M29.843940534210205,13.034729769134522C29.615940534210203,12.548829769134521,29.148140534210206,12.21962976913452,28.613940534210204,12.168929769134522C27.305240534210206,12.035129769134521,26.091540534210203,11.424379769134521,25.204440534210207,10.453099769134521C23.653940534210204,8.71024976913452,23.162440534210205,6.2673297691345216,23.918440534210205,4.0604997691345215C24.096240534210207,3.5284097691345213,23.982840534210204,2.9420517691345216,23.619540534210206,2.5146007691345216C23.285840534210205,2.1204277691345217,22.768240534210204,1.9327453691345216,22.259540534210206,2.0215003691345217L22.240440534210205,2.0254003691345215C19.388240534210205,2.6316687691345217,17.115740534210204,4.784039769134521,16.355740534210206,7.599099769134521C15.453240534210206,7.211089769134522,14.482340534210206,7.007399769134522,13.500040534210205,6.999999769134521C10.233430534210205,7.017599769134521,7.348560534210205,9.133659769134521,6.350600534210205,12.244129769134522C3.474240534210205,13.063529769134522,1.642405534210205,15.87822976913452,2.0579557342102053,18.84002976913452C2.473506534210205,21.80182976913452,5.0092105342102045,24.003729769134523,8.000000534210205,24.00002976913452L19.000040534210203,24.00002976913452C22.312240534210204,23.996329769134523,24.996340534210205,21.31222976913452,25.000040534210203,18.00002976913452C25.000040534210203,17.942929769134523,24.987740534210204,17.88872976913452,24.986140534210204,17.83152976913452C26.946840534210207,17.418329769134523,28.661040534210205,16.238529769134523,29.747240534210206,14.554729769134521C30.045840534210207,14.10072976913452,30.082640534210206,13.522829769134521,29.843940534210205,13.034729769134522ZM19.000040534210203,22.00002976913452L8.000000534210205,22.00002976913452C5.923230534210205,22.00362976913452,4.190460534210205,20.41452976913452,4.014750534210205,18.345229769134523C3.839030534210205,16.27592976913452,5.279050534210205,14.417429769134522,7.326700534210205,14.070829769134521L7.989700534210205,13.958029769134521L8.135300534210206,13.301829769134521C8.694840534210204,10.78808976913452,10.924760534210206,8.999959769134522,13.500040534210205,8.999959769134522C16.075240534210206,8.999959769134522,18.305140534210206,10.78808976913452,18.864740534210206,13.301829769134521L19.010340534210204,13.958029769134521L19.672940534210205,14.070829769134521C21.720940534210204,14.416829769134521,23.161640534210203,16.275429769134522,22.985940534210204,18.345129769134523C22.810340534210205,20.41472976913452,21.077140534210205,22.004029769134522,19.000040534210203,22.00002976913452ZM24.597440534210204,15.871129769134521C23.929340534210205,14.105629769134522,22.465040534210203,12.760429769134522,20.649440534210203,12.244129769134522C20.193140534210205,10.830339769134522,19.326740534210206,9.584189769134522,18.160440534210206,8.664099769134522C18.520940534210204,6.651569769134522,19.897340534210205,4.968979769134521,21.798540534210204,4.216799769134521C21.161540534210204,6.9139397691345215,21.886240534210206,9.752039769134521,23.738540534210205,11.813499769134522C24.776740534210205,12.942329769134522,26.140140534210204,13.720729769134522,27.640040534210204,14.041029769134521C26.858540534210206,14.973629769134522,25.787440534210205,15.617929769134522,24.597440534210204,15.871129769134521Z" fill="#000000" fill-opacity="1"/></g><g></g></g></svg>