<svg xmlns="http://www.w3.org/2000/svg" xmlns:xlink="http://www.w3.org/1999/xlink" fill="none" version="1.1" width="32" height="32" viewBox="0 0 32 32"><defs><clipPath id="master_svg0_134_20920"><rect x="0" y="0" width="32" height="32" rx="0"/></clipPath></defs><g clip-path="url(#master_svg0_134_20920)"><g><path d="M23.500009154510497,21.999998248291014L8.499999154510498,21.999998248291014C5.179109154510498,21.978998248291017,2.408140154510498,19.457998248291016,2.074131954510498,16.153898248291014C1.740124154510498,12.849798248291016,3.950509154510498,9.825228248291015,7.199999154510498,9.139998248291015C8.089609154510498,4.9908582482910155,11.756559154510498,2.0267982482910156,16.000009154510497,2.0267982482910156C20.2434091545105,2.0267987251280157,23.910409154510496,4.9908582482910155,24.800009154510498,9.139998248291015C28.0495091545105,9.825228248291015,30.2599091545105,12.849798248291016,29.9259091545105,16.153898248291014C29.5919091545105,19.457998248291016,26.8209091545105,21.978998248291017,23.500009154510497,21.999998248291014ZM16.000009154510497,3.999998248291016C12.469209154510498,4.003518248291016,9.493779154510499,6.635978248291016,9.059999154510498,10.139998248291016L8.999999154510498,10.999998248291016L8.139999154510498,10.999998248291016C5.654719154510499,11.099408248291015,3.720589154510498,13.194698248291015,3.819999154510498,15.679998248291016C3.919409154510498,18.165298248291016,6.014719154510498,20.099398248291017,8.499999154510498,19.999998248291014L23.500009154510497,19.999998248291014C25.9853091545105,20.099398248291017,28.080609154510498,18.165298248291016,28.180009154510497,15.679998248291016C28.2794091545105,13.194698248291015,26.3453091545105,11.099408248291015,23.860009154510497,10.999998248291016L23.000009154510497,10.999998248291016L22.9000091545105,10.179998248291016C22.4867091545105,6.675178248291016,19.529009154510497,4.026128248291016,16.000009154510497,3.999998248291016Z" fill="#000000" fill-opacity="1"/></g><g><path d="M12,25.05L10.95,24L9.5,25.45L8.05,24L7,25.05L8.45,26.5L7,27.95L8.05,29L9.5,27.55L10.95,29L12,27.95L10.55,26.5L12,25.05Z" fill="#000000" fill-opacity="1"/></g><g><path d="M26,25.05L24.95,24L23.5,25.45L22.05,24L21,25.05L22.45,26.5L21,27.95L22.05,29L23.5,27.55L24.95,29L26,27.95L24.55,26.5L26,25.05Z" fill="#000000" fill-opacity="1"/></g><g><path d="M19,27.05L17.95,26L16.5,27.45L15.05,26L14,27.05L15.45,28.5L14,29.95L15.05,31L16.5,29.55L17.95,31L19,29.95L17.55,28.5L19,27.05Z" fill="#000000" fill-opacity="1"/></g><g></g></g></svg>