<svg xmlns="http://www.w3.org/2000/svg" xmlns:xlink="http://www.w3.org/1999/xlink" fill="none" version="1.1" width="32" height="32" viewBox="0 0 32 32"><defs><clipPath id="master_svg0_134_21185"><rect x="0" y="0" width="32" height="32" rx="0"/></clipPath></defs><g clip-path="url(#master_svg0_134_21185)"><g><rect x="15" y="4" width="2" height="24" rx="0" fill="#000000" fill-opacity="1"/></g><g><path d="M10,7L10,25L4,25L4,7L10,7ZM10,5L4,5C2.895431,5,2,5.895431,2,7L2,25C2,26.1046,2.895431,27,4,27L10,27C11.10457,27,12,26.1046,12,25L12,7C12,5.895431,11.10457,5,10,5Z" fill="#000000" fill-opacity="1"/></g><g><path d="M28,7L28,25L22,25L22,7L28,7ZM28,5L22,5C20.895431,5,20,5.895431,20,7L20,25C20,26.1046,20.895431,27,22,27L28,27C29.104570000000002,27,30,26.1046,30,25L30,7C30,5.895431,29.104570000000002,5,28,5Z" fill="#000000" fill-opacity="1"/></g><g></g></g></svg>