<svg xmlns="http://www.w3.org/2000/svg" xmlns:xlink="http://www.w3.org/1999/xlink" fill="none" version="1.1" width="32" height="32" viewBox="0 0 32 32"><defs><clipPath id="master_svg0_134_21209"><rect x="0" y="0" width="32" height="32" rx="0"/></clipPath></defs><g clip-path="url(#master_svg0_134_21209)"><g><path d="M24,21L24,9L22,9L22,23L30,23L30,21L24,21Z" fill="#000000" fill-opacity="1"/></g><g><path d="M18,9L14,9C12.895431,9,12,9.895431,12,11L12,21C12,22.104599999999998,12.895431,23,14,23L15,23L15,25C15,26.1046,15.895430000000001,27,17,27L19,27L19,25L17,25L17,23L18,23C19.10457,23,20,22.104599999999998,20,21L20,11C20,9.895431,19.10457,9,18,9ZM14,21L14,11L18,11L18,21L14,21Z" fill="#000000" fill-opacity="1"/></g><g><path d="M8,23L2,23L2,21L8,21L8,17L4,17C2.895431,17,2,16.10457,2,15L2,11C2,9.895431,2.895431,9,4,9L10,9L10,11L4,11L4,15L8,15C9.104569999999999,15,10,15.895430000000001,10,17L10,21C10,22.104599999999998,9.104569999999999,23,8,23Z" fill="#000000" fill-opacity="1"/></g><g></g></g></svg>