<svg xmlns="http://www.w3.org/2000/svg" xmlns:xlink="http://www.w3.org/1999/xlink" fill="none" version="1.1" width="32" height="32" viewBox="0 0 32 32"><defs><clipPath id="master_svg0_134_24953"><rect x="0" y="0" width="32" height="32" rx="0"/></clipPath></defs><g clip-path="url(#master_svg0_134_24953)"><g><path d="M18,30L4,30C2.895431,30,2,29.1046,2,28L2,14C2,12.895431,2.895431,12,4,12L18,12C19.1046,12,20,12.895431,20,14L20,28C20,29.1046,19.1046,30,18,30ZM4,14L4,28L18,28L18,14L4,14Z" fill="#000000" fill-opacity="1"/></g><g><path d="M25,23L23,23L23,9L9,9L9,7L23,7C24.104599999999998,7,25,7.895431,25,9L25,23Z" fill="#000000" fill-opacity="1"/></g><g><path d="M30,16L28,16L28,4L16,4L16,2L28,2C29.104599999999998,2,30,2.89543,30,4L30,16Z" fill="#000000" fill-opacity="1"/></g><g></g></g></svg>