<svg xmlns="http://www.w3.org/2000/svg" xmlns:xlink="http://www.w3.org/1999/xlink" fill="none" version="1.1" width="32" height="32" viewBox="0 0 32 32"><defs><clipPath id="master_svg0_134_21226"><rect x="0" y="0" width="32" height="32" rx="0"/></clipPath></defs><g clip-path="url(#master_svg0_134_21226)"><g><rect x="8" y="22" width="8" height="8" rx="0" fill="#000000" fill-opacity="1"/></g><g><path d="M24,12L20,12L20,14L24,14L24,16L21,16L21,18L24,18L24,20L20,20L20,22L24,22C25.10395,21.99851,25.99851,21.103949999999998,26,20L26,14C25.998730000000002,12.895955,25.10404,12.00126648,24,12Z" fill="#000000" fill-opacity="1"/></g><g><path d="M16,20L8,20L8,12L16,12L16,20ZM10,18L14,18L14,14L10,14L10,18Z" fill="#000000" fill-opacity="1"/></g><g><path d="M16,3.41L14.59,2L12,4.59L9.41,2L8,3.41L10.59,6L8,8.59L9.41,10L12,7.41L14.59,10L16,8.59L13.41,6L16,3.41Z" fill="#000000" fill-opacity="1"/></g><g></g></g></svg>