<svg xmlns="http://www.w3.org/2000/svg" xmlns:xlink="http://www.w3.org/1999/xlink" fill="none" version="1.1" width="32" height="32" viewBox="0 0 32 32"><defs><clipPath id="master_svg0_134_21239"><rect x="0" y="0" width="32" height="32" rx="0"/></clipPath></defs><g clip-path="url(#master_svg0_134_21239)"><g><path d="M15.999999971389771,6.52L18.75999997138977,12.1L19.219999971389772,13.1L20.219999971389772,13.25L26.379999971389772,14.14L21.99999997138977,18.44L21.24999997138977,19.17L21.42999997138977,20.17L22.47999997138977,26.3L16.96999997138977,23.41L15.999999971389771,23L15.06999997138977,23.49L9.55999997138977,26.34L10.55999997138977,20.21L10.739999971389771,19.21L9.999999971389771,18.44L5.57999997138977,14.09L11.739999971389771,13.2L12.739999971389771,13.05L13.19999997138977,12.05L15.999999971389771,6.52ZM15.999999971389771,2L11.44999997138977,11.22L1.2799999713897705,12.69L8.63999997138977,19.87L6.899999971389771,30L15.999999971389771,25.22L25.09999997138977,30L23.35999997138977,19.87L30.719999971389772,12.7L20.54999997138977,11.22L15.999999971389771,2Z" fill="#000000" fill-opacity="1"/></g><g></g></g></svg>