<svg xmlns="http://www.w3.org/2000/svg" xmlns:xlink="http://www.w3.org/1999/xlink" fill="none" version="1.1" width="16" height="16" viewBox="0 0 16 16"><defs><clipPath id="master_svg0_134_08734"><rect x="0" y="0" width="16" height="16" rx="0"/></clipPath></defs><g clip-path="url(#master_svg0_134_08734)"><g><path d="M8.000000023841858,3.3L9.400000023841859,6.1L9.600000023841858,6.6L10.100000023841858,6.7L13.200000023841858,7.1L11.000000023841858,9.2L10.600000023841858,9.6L10.700000023841858,10.1L11.200000023841858,13.2L8.400000023841859,11.8L8.000000023841858,11.5L7.500000023841858,11.7L4.7000000238418576,13.1L5.2000000238418576,10L5.300000023841858,9.5L5.000000023841858,9.2L2.800000023841858,7L5.900000023841858,6.6L6.400000023841858,6.5L6.600000023841858,6L8.000000023841858,3.3ZM8.000000023841858,1L5.7000000238418576,5.6L0.6000000238418579,6.3L4.300000023841858,9.9L3.500000023841858,15L8.000000023841858,12.6L12.600000023841858,15L11.700000023841858,9.9L15.400000023841859,6.3L10.300000023841857,5.6L8.000000023841858,1Z" fill="#000000" fill-opacity="1"/></g><g></g></g></svg>