<svg xmlns="http://www.w3.org/2000/svg" xmlns:xlink="http://www.w3.org/1999/xlink" fill="none" version="1.1" width="32" height="32" viewBox="0 0 32 32"><defs><clipPath id="master_svg0_134_21318"><rect x="0" y="0" width="32" height="32" rx="0"/></clipPath></defs><g clip-path="url(#master_svg0_134_21318)"><g><path d="M20.58569213218689,28.99999213218689L11.41430213218689,28.99999213218689C10.88352213218689,29.00149213218689,10.37423213218689,28.79049213218689,10.00000213218689,28.41409213218689L3.5859001321868895,21.99999213218689C3.20949813218689,21.62579213218689,2.9985117921868896,21.116492132186888,2.9999999999968896,20.58569213218689L2.9999999999968896,11.41430213218689C2.9985125021868897,10.88352213218689,3.20949813218689,10.37423213218689,3.5859001321868895,10.00000213218689L10.00000213218689,3.5859001321868895C10.37423213218689,3.20949813218689,10.88352213218689,2.9985127421868896,11.41430213218689,2.9999999999968896L20.58569213218689,2.9999999999968896C21.116492132186888,2.9985132221868898,21.62579213218689,3.2094991321868895,21.99999213218689,3.5859001321868895L28.41409213218689,10.00000213218689C28.79049213218689,10.37423213218689,29.00149213218689,10.88352213218689,28.99999213218689,11.41430213218689L28.99999213218689,20.58569213218689C29.00149213218689,21.116492132186888,28.79049213218689,21.62579213218689,28.41409213218689,21.99999213218689L21.99999213218689,28.41409213218689C21.62579213218689,28.79049213218689,21.116492132186888,29.00149213218689,20.58569213218689,28.99999213218689Z" fill="#000000" fill-opacity="1"/></g><g></g></g></svg>