<svg xmlns="http://www.w3.org/2000/svg" xmlns:xlink="http://www.w3.org/1999/xlink" fill="none" version="1.1" width="32" height="32" viewBox="0 0 32 32"><defs><clipPath id="master_svg0_134_21291"><rect x="0" y="0" width="32" height="32" rx="0"/></clipPath></defs><g clip-path="url(#master_svg0_134_21291)"><g><path d="M16,2C8.26801,2,2,8.26801,2,16C2,23.732,8.26801,30,16,30C23.732,30,30,23.732,30,16C30,8.26801,23.732,2,16,2ZM22,20C22,21.1046,21.1046,22,20,22L12,22C10.89543,22,10,21.1046,10,20L10,12C10,10.89543,10.89543,10,12,10L20,10C21.1046,10,22,10.89543,22,12L22,20Z" fill="#000000" fill-opacity="1"/></g><g></g></g></svg>