<svg xmlns="http://www.w3.org/2000/svg" xmlns:xlink="http://www.w3.org/1999/xlink" fill="none" version="1.1" width="16" height="16" viewBox="0 0 16 16"><defs><clipPath id="master_svg0_134_08759"><rect x="0" y="0" width="16" height="16" rx="0"/></clipPath></defs><g clip-path="url(#master_svg0_134_08759)"><g><path d="M8,2C11.3,2,14,4.7,14,8C14,11.3,11.3,14,8,14C4.7,14,2,11.3,2,8C2,4.7,4.7,2,8,2ZM8,1C4.1,1,1,4.1,1,8C1,11.9,4.1,15,8,15C11.9,15,15,11.9,15,8C15,4.1,11.9,1,8,1Z" fill="#000000" fill-opacity="1"/></g><g><path d="M10,6L10,10L6,10L6,6L10,6ZM10,5L6,5C5.4,5,5,5.4,5,6L5,10C5,10.6,5.4,11,6,11L10,11C10.6,11,11,10.6,11,10L11,6C11,5.4,10.6,5,10,5Z" fill="#000000" fill-opacity="1"/></g><g></g></g></svg>