<svg xmlns="http://www.w3.org/2000/svg" xmlns:xlink="http://www.w3.org/1999/xlink" fill="none" version="1.1" width="32" height="32" viewBox="0 0 32 32"><defs><clipPath id="master_svg0_134_25000"><rect x="0" y="0" width="32" height="32" rx="0"/></clipPath></defs><g clip-path="url(#master_svg0_134_25000)"><g><path d="M20,4C22.76142,4,25,6.23858,25,9C25,11.76142,22.76142,14,20,14C17.23858,14,15,11.76142,15,9C15,6.23858,17.23858,4,20,4ZM20,2C16.13401,2,13,5.13401,13,9C13,12.866,16.13401,16,20,16C23.866,16,27,12.866,27,9C27,5.13401,23.866,2,20,2Z" fill="#000000" fill-opacity="1"/></g><g><path d="M30,30L28,30L28,25C28,22.23858,25.761400000000002,20,23,20L17,20C14.238579999999999,20,12,22.23858,12,25L12,30L10,30L10,25C10,21.13401,13.13401,18,17,18L23,18C26.866,18,30,21.13401,30,25L30,30Z" fill="#000000" fill-opacity="1"/></g><g><path d="M11,8L5,8C3.34315,8,2,6.65685,2,5L2,3L4,3L4,5C4,5.55228,4.44772,6,5,6L11,6L11,8Z" fill="#000000" fill-opacity="1"/></g><g><path d="M4,15L2,15L2,13C2,11.34315,3.34315,10,5,10L11,10L11,12L5,12C4.44772,12,4,12.44771,4,13L4,15Z" fill="#000000" fill-opacity="1"/></g><g></g></g></svg>