<svg xmlns="http://www.w3.org/2000/svg" xmlns:xlink="http://www.w3.org/1999/xlink" fill="none" version="1.1" width="32" height="32" viewBox="0 0 32 32"><defs><clipPath id="master_svg0_134_25036"><rect x="0" y="0" width="32" height="32" rx="0"/></clipPath></defs><g clip-path="url(#master_svg0_134_25036)"><g><path d="M8.586000442504883,19.414L13.165000442504883,24L8.586000442504883,28.586L10.000000442504883,30L16.000000442504884,24L10.000000442504883,18L8.586000442504883,19.414Z" fill="#000000" fill-opacity="1"/></g><g><path d="M2.5859999656677246,19.414L7.164999965667724,24L2.5859999656677246,28.586L3.9999999656677243,30L9.999999965667724,24L3.9999999656677243,18L2.5859999656677246,19.414Z" fill="#000000" fill-opacity="1"/></g><g><path d="M12,14L12,12L17,12L17,10L14,10L14,8L17,8L17,6L19,6L19,8L22,8L22,10L19,10L19,12L24,12L24,14L19,14L19,16L24,16L24,18L19,18L19,20L22,20L22,22L17,22L17,18L14,18L14,16L17,16L17,14L12,14Z" fill="#000000" fill-opacity="1"/></g><g><path d="M19,24L28,24L28,4L8,4L8,16L6,16L6,4C6,2.895431,6.895431,2,8,2L28,2C29.1046,2,30,2.895431,30,4L30,24C30,25.1046,29.1046,26,28,26L19,26L19,24Z" fill="#000000" fill-opacity="1"/></g><g></g></g></svg>