<svg xmlns="http://www.w3.org/2000/svg" xmlns:xlink="http://www.w3.org/1999/xlink" fill="none" version="1.1" width="32" height="32" viewBox="0 0 32 32"><defs><clipPath id="master_svg0_134_25051"><rect x="0" y="0" width="32" height="32" rx="0"/></clipPath></defs><g clip-path="url(#master_svg0_134_25051)"><g><path d="M28,20L25,20L25,18L28,18L28,4L14,4L14,7L12,7L12,4C12.00110245,2.895887,12.895887,2.00110221,14,2L28,2C29.104,2.00126863,29.9987,2.895956,30,4L30,18C29.9985,19.104,29.104,19.9985,28,20Z" fill="#000000" fill-opacity="1"/></g><g><path d="M17,22L17,20L13,20L13,18L16,18L16,16L13,16L13,14L11,14L11,16L8,16L8,18L11,18L11,20L7,20L7,22L11,22L11,24L8,24L8,26L16,26L16,24L13,24L13,22L17,22Z" fill="#000000" fill-opacity="1"/></g><g><path d="M20,30L4,30C2.895911,29.9988,2.00115824,29.1041,2,28L2,12C2.00115728,10.89591,2.8959099999999998,10.00115776,4,10L20,10C21.1041,10.00115681,21.9988,10.895909,22,12L22,28C21.9988,29.1041,21.1041,29.9988,20,30ZM4,12L4,28L20,28L20,12L4,12Z" fill="#000000" fill-opacity="1"/></g><g></g></g></svg>