<svg xmlns="http://www.w3.org/2000/svg" xmlns:xlink="http://www.w3.org/1999/xlink" fill="none" version="1.1" width="32" height="32" viewBox="0 0 32 32"><defs><clipPath id="master_svg0_134_21385"><rect x="0" y="0" width="32" height="32" rx="0"/></clipPath></defs><g clip-path="url(#master_svg0_134_21385)"><g><path d="M16,30C8.27162,29.991300000000003,2.00871015,23.72838,2,16L4,16C4.0009,20.38334,6.39124,24.41759,10.23543,26.523699999999998C14.0796,28.6299,18.7662,28.4729,22.4609,26.1143L23.5391,27.798299999999998C21.2888,29.239,18.672,30.0032,16,30Z" fill="#000000" fill-opacity="1"/></g><g><path d="M26,16.999999892883302L24.5859,18.4140698928833L26.1719,19.9999698928833L15.8157,19.9999698928833C15.7451,19.7986698928833,15.6532,19.605569892883302,15.5415,19.4237698928833L20.0225,13.8227998928833C20.3361,13.9363698928833,20.6665,13.996279892883301,21,13.9999998928833C22.5272,14.006479892883302,23.8156,12.8645498928833,23.9925,11.3475698928833C24.1694,9.830589892883301,23.1785,8.4228218928833,21.6907,8.077650092883301C20.203,7.732478892883301,18.6934,8.560091892883301,18.1843,9.9999998928833L13.8157,9.9999998928833C13.398,8.8023148928833,12.2684,7.999916553883301,11,7.999916553883301C9.731580000000001,7.9999160768833,8.60197,8.8023148928833,8.1843,9.9999998928833L2,9.9999998928833L2,11.9999998928833L8.1843,11.9999998928833C8.60197,13.1976898928833,9.731580000000001,14.000079892883301,11,14.000079892883301C12.2684,14.000079892883301,13.398,13.1976898928833,13.8157,11.9999998928833L18.1843,11.9999998928833C18.2549,12.201309892883302,18.3468,12.3944698928833,18.4585,12.5761998928833L13.9775,18.1771698928833C13.6639,18.0636698928833,13.3335,18.0037698928833,13,17.9999698928833C11.47275,17.993529892883302,10.18441,19.1354698928833,10.00748,20.652469892883303C9.830549999999999,22.169369892883303,10.82152,23.5771698928833,12.3093,23.922369892883303C13.797,24.2675698928833,15.3066,23.4398698928833,15.8157,21.9999698928833L26.1719,21.9999698928833L24.5859,23.585869892883302L26,24.9999698928833L30,20.9999698928833L26,16.999999892883302ZM21,9.9999998928833C21.5523,9.9999998928833,22,10.447709892883301,22,10.9999998928833C22,11.552289892883302,21.5523,11.9999998928833,21,11.9999998928833C20.4477,11.9999998928833,20,11.552289892883302,20,10.9999998928833C20.0005,10.4479198928833,20.4479,10.000499892883301,21,9.9999998928833ZM11,11.9999998928833C10.44771,11.9999998928833,10,11.552289892883302,10,10.9999998928833C10,10.447709892883301,10.44771,9.9999998928833,11,9.9999998928833C11.55229,9.9999998928833,12,10.447709892883301,12,10.9999998928833C11.9995,11.5520798928833,11.55208,11.999509892883301,11,11.9999998928833ZM13,21.9999698928833C12.4477,21.9999698928833,12,21.552269892883302,12,20.9999698928833C12,20.4476698928833,12.4477,19.9999698928833,13,19.9999698928833C13.5523,19.9999698928833,14,20.4476698928833,14,20.9999698928833C13.9995,21.552069892883303,13.5521,21.9994698928833,13,21.9999698928833Z" fill="#000000" fill-opacity="1"/></g><g><path d="M30.00000030670166,15.99995231628418L28.00000030670166,15.99995231628418C27.99910030670166,11.61666231628418,25.60880030670166,7.58241231628418,21.76460030670166,5.4762623162841795C17.92038030670166,3.3701223162841796,13.233770306701661,3.52708231628418,9.53910030670166,5.8857023162841795L8.46090030670166,4.20170231628418C12.771030306701661,1.4486643162841797,18.23928030670166,1.2646073162841796,22.72480030670166,3.7215923162841795C27.21090030670166,6.17972231628418,30.00000030670166,10.88681231628418,30.00000030670166,15.99995231628418Z" fill="#000000" fill-opacity="1"/></g><g></g></g></svg>