<svg xmlns="http://www.w3.org/2000/svg" xmlns:xlink="http://www.w3.org/1999/xlink" fill="none" version="1.1" width="32" height="32" viewBox="0 0 32 32"><defs><clipPath id="master_svg0_134_21471"><rect x="0" y="0" width="32" height="32" rx="0"/></clipPath></defs><g clip-path="url(#master_svg0_134_21471)"><g><rect x="2" y="27.004899978637695" width="27.99850082397461" height="2" rx="0" fill="#000000" fill-opacity="1"/></g><g><path d="M16,20.004899978637695C18.208109999999998,20.007379978637694,19.99752,21.796789978637694,20,24.004899978637695L22,24.004899978637695C22,20.691189978637695,19.31371,18.004899978637695,16,18.004899978637695C12.68629,18.004899978637695,10,20.691189978637695,10,24.004899978637695L12,24.004899978637695C12.00248,21.796789978637694,13.79189,20.007379978637694,16,20.004899978637695Z" fill="#000000" fill-opacity="1"/></g><g><rect x="25" y="22.004899978637695" width="5" height="2" rx="0" fill="#000000" fill-opacity="1"/></g><g transform="matrix(0.7071067690849304,-0.7071067690849304,0.7071067690849304,0.7071067690849304,-5.6013085059574905,20.28583760254412)"><rect x="21.6865177154541" y="16.904296875" width="4.958000183105469" height="1.9997999668121338" rx="0" fill="#000000" fill-opacity="1"/></g><g><path d="M19.59,9.595000114440918L17,12.175000114440918L17,4.005000114440918L15,4.005000114440918L15,12.175000114440918L12.41,9.595000114440918L11,11.005000114440918L16,16.005000114440918L21,11.005000114440918L19.59,9.595000114440918Z" fill="#000000" fill-opacity="1"/></g><g transform="matrix(0.7071067690849304,-0.7071067690849304,0.7071067690849304,0.7071067690849304,-8.894291598611716,8.152280118578318)"><rect x="5.393526554107666" y="14.8125" width="1.9997999668121338" height="4.958000183105469" rx="0" fill="#000000" fill-opacity="1"/></g><g><rect x="2" y="22.004899978637695" width="5" height="2" rx="0" fill="#000000" fill-opacity="1"/></g><g></g></g></svg>