<svg xmlns="http://www.w3.org/2000/svg" xmlns:xlink="http://www.w3.org/1999/xlink" fill="none" version="1.1" width="32" height="32" viewBox="0 0 32 32"><defs><clipPath id="master_svg0_134_21491"><rect x="0" y="0" width="32" height="32" rx="0"/></clipPath></defs><g clip-path="url(#master_svg0_134_21491)"><g><path d="M21.5708,27.7495C19.824,28.5791,17.9497,29,16,29C8.831800000000001,29,3,23.168,3,16C3,12.9248,4.0571,10.021,6,7.6924L6,10L8,10L8,4L2,4L2,6L4.8416,6C2.3663,8.7539,1,12.2622,1,16C1,24.271,7.729,31,16,31C18.249,31,20.4119,30.5142,22.4292,29.5562L21.5708,27.7495Z" fill="#000000" fill-opacity="1"/></g><g><path d="M21,9C17.8398,9,15.2485,11.457,15.0222,14.560500000000001C13.956800000000001,13.5947,12.548300000000001,13,11,13L7,13L7,17C7,20.3086,9.6917,23,13,23L15,23L15,27L17,27L17,18.999499999999998L19,19C22.3083,19,25,16.3086,25,13L25,9L21,9ZM13,21C10.7944,21,9,19.2056,9,17L9,15L11,15C13.2056,15,15,16.7944,15,19L15,19.585900000000002L12.707,17.2929L11.2929,18.707L13.585899999999999,21L13,21ZM23,13C23,15.2056,21.2056,17,19,17L18.414099999999998,17L20.7071,14.707L19.293,13.2929L17,15.585899999999999L17,15C17,12.7944,18.7944,11,21,11L23,11L23,13Z" fill="#000000" fill-opacity="1"/></g><g><path d="M30.999999827575685,16C30.999999827575685,7.729,24.270999827575686,1,15.999999827575683,1C13.750999827575683,1,11.588099827575684,1.4858,9.570799827575684,2.4438L10.429199827575683,4.2504C12.175999827575684,3.4208,14.050299827575683,2.9999000000000002,15.999999827575683,2.9999000000000002C23.168199827575684,2.9999000000000002,28.999999827575685,8.831900000000001,28.999999827575685,15.9999C28.999999827575685,19.0751,27.942899827575683,21.9789,25.999999827575685,24.3075L25.999999827575685,21.9999L23.999999827575685,21.9999L23.999999827575685,27.9999L29.999999827575685,27.9999L29.999999827575685,25.9999L27.158399827575682,25.9999C29.633699827575683,23.246,30.999999827575685,19.7377,30.999999827575685,16Z" fill="#000000" fill-opacity="1"/></g><g><g></g></g></g></svg>