<svg xmlns="http://www.w3.org/2000/svg" xmlns:xlink="http://www.w3.org/1999/xlink" fill="none" version="1.1" width="32" height="32" viewBox="0 0 32 32"><defs><clipPath id="master_svg0_134_21546"><rect x="0" y="0" width="32" height="32" rx="0"/></clipPath></defs><g clip-path="url(#master_svg0_134_21546)"><g><path d="M15,24L15,22L11.4,22L22,11.4L22,15L24,15L24,8L17,8L17,10L20.6,10L10,20.6L10,17L8,17L8,24L15,24Z" fill="#000000" fill-opacity="1"/></g><g><path d="M25,20L25,22L28,22C29.1,22,30,21.1,30,20L30,17L28,17L28,20L25,20Z" fill="#000000" fill-opacity="1"/></g><g><rect x="28" y="10" width="2" height="4" rx="0" fill="#000000" fill-opacity="1"/></g><g><path d="M25,2L25,4L28,4L28,7L30,7L30,4C30,2.9,29.1,2,28,2L25,2Z" fill="#000000" fill-opacity="1"/></g><g><rect x="18" y="2" width="4" height="2" rx="0" fill="#000000" fill-opacity="1"/></g><g><path d="M10,4L10,7L12,7L12,4L15,4L15,2L12,2C10.9,2,10,2.9,10,4Z" fill="#000000" fill-opacity="1"/></g><g><path d="M12,10L4,10C2.9,10,2,10.9,2,12L2,28C2,29.1,2.9,30,4,30L20,30C21.1,30,22,29.1,22,28L22,20L20,20L20,28L4,28L4,12L12,12L12,10Z" fill="#000000" fill-opacity="1"/></g><g transform="matrix(-1,1.2246468525851679e-16,-1.2246468525851679e-16,-1,64,64)"></g></g></svg>