<svg xmlns="http://www.w3.org/2000/svg" xmlns:xlink="http://www.w3.org/1999/xlink" fill="none" version="1.1" width="32" height="32" viewBox="0 0 32 32"><defs><clipPath id="master_svg0_134_21599"><rect x="0" y="0" width="32" height="32" rx="0"/></clipPath></defs><g clip-path="url(#master_svg0_134_21599)"><g><path d="M27,3L5,3C3.895431,3,3,3.895431,3,5L3,27C3,28.1046,3.895431,29,5,29L27,29C28.1046,29,29,28.1046,29,27L29,5C29,3.895431,28.1046,3,27,3ZM27,5L27,9L5,9L5,5L27,5ZM17,11L27,11L27,18L17,18L17,11ZM15,18L5,18L5,11L15,11L15,18ZM5,20L15,20L15,27L5,27L5,20ZM17,27L17,20L27,20L27,27L17,27Z" fill="#000000" fill-opacity="1"/></g><g></g></g></svg>