<svg xmlns="http://www.w3.org/2000/svg" xmlns:xlink="http://www.w3.org/1999/xlink" fill="none" version="1.1" width="32" height="32" viewBox="0 0 32 32"><defs><clipPath id="master_svg0_134_21604"><rect x="0" y="0" width="32" height="32" rx="0"/></clipPath></defs><g clip-path="url(#master_svg0_134_21604)"><g transform="matrix(0,1,-1,0,43,5)"><rect x="19" y="24" width="2" height="6" rx="0" fill="#000000" fill-opacity="1"/></g><g><path d="M25,30L7,30C5.895956,29.9987,5.00126839,29.104,5,28L5,4C5.00110245,2.895887,5.895887,2.00110221,7,2L25,2C26.104,2.00126767,26.9987,2.895956,27,4L27,28C26.9985,29.104,26.104,29.9985,25,30ZM7,4L7,28L25,28L25,4L7,4Z" fill="#000000" fill-opacity="1"/></g><g></g></g></svg>