<svg xmlns="http://www.w3.org/2000/svg" xmlns:xlink="http://www.w3.org/1999/xlink" fill="none" version="1.1" width="32" height="32" viewBox="0 0 32 32"><defs><clipPath id="master_svg0_134_21657"><rect x="0" y="0" width="32" height="32" rx="0"/></clipPath></defs><g clip-path="url(#master_svg0_134_21657)"><g><path d="M30,13L30,11L18.6182,11L17.8945,9.5527C17.725099999999998,9.21397,17.3789,9,17,9L9,9C8.44771,9,8,9.447715,8,10L8,15L4,15L4,17L22.6379,17L26.2379,20L3,20C2.447715,20,2,20.447699999999998,2,21L2,23C2.00314116,25.7601,4.239879999999999,27.9969,7,28L25,28C27.7601,27.9969,29.9969,25.7601,30,23L30,21C29.9999,20.7031,29.868,20.4215,29.64,20.2314L23.64,15.2314C23.4602,15.08193,23.2338,15.000060000000001,23,15L20.6182,15L19.6182,13L30,13ZM28,23C27.9982,24.656100000000002,26.6561,25.9982,25,26L7,26C5.3439,25.9982,4.00182,24.656100000000002,4,23L4,22L28,22L28,23ZM10,15L10,11L16.3821,11L18.3821,15L10,15Z" fill="#000000" fill-opacity="1"/></g><g></g></g></svg>