<svg xmlns="http://www.w3.org/2000/svg" xmlns:xlink="http://www.w3.org/1999/xlink" fill="none" version="1.1" width="32" height="32" viewBox="0 0 32 32"><defs><clipPath id="master_svg0_134_21674"><rect x="0" y="0" width="32" height="32" rx="0"/></clipPath></defs><g clip-path="url(#master_svg0_134_21674)"><g><path d="M29.999961312866212,19.999998583984375C30.008761312866213,15.649458583984375,25.52935131286621,12.736088583984374,21.556071312866212,14.508174583984374C17.58278231286621,16.280258583984374,16.75730131286621,21.559628583984374,20.00000131286621,24.460048583984374L20.00000131286621,32.00004858398437L24.00000131286621,30.106448583984374L27.999961312866212,32.00004858398437L27.999961312866212,24.460048583984374C29.27156131286621,23.326108583984375,29.99906131286621,21.703688583984373,29.999961312866212,19.999998583984375ZM26.00000131286621,28.840048583984377L24.00000131286621,27.893348583984377L22.00000131286621,28.840048583984377L22.00000131286621,25.650048583984375C23.29248131286621,26.116848583984375,24.707521312866213,26.116848583984375,26.00000131286621,25.650048583984375L26.00000131286621,28.840048583984377ZM24.00000131286621,24.000048583984373C21.790861312866213,24.000048583984373,20.00000131286621,22.209138583984377,20.00000131286621,19.999998583984375C20.00000131286621,17.790858583984374,21.790861312866213,15.999998583984375,24.00000131286621,15.999998583984375C26.20914131286621,15.999998583984375,27.999961312866212,17.790858583984374,27.999961312866212,19.999998583984375C27.997521312866212,22.208108583984377,26.20811131286621,23.997548583984376,24.00000131286621,24.000048583984373Z" fill="#000000" fill-opacity="1"/></g><g><path d="M25,5L22,5L22,4C21.9968,2.896752,21.1032,2.00318575,20,2L12,2C10.89675,2.00318527,10.00319,2.896752,10,4L10,5L7,5C5.896753,5.00319,5.00318575,5.89675,5,7L5,28C5.00318575,29.1032,5.896753,29.9968,7,30L16,30L16,28L7,28L7,7L10,7L10,10L22,10L22,7L25,7L25,12L27,12L27,7C26.9968,5.89675,26.1032,5.00319,25,5ZM20,8L12,8L12,4L20,4L20,8Z" fill="#000000" fill-opacity="1"/></g><g></g></g></svg>