<svg xmlns="http://www.w3.org/2000/svg" xmlns:xlink="http://www.w3.org/1999/xlink" fill="none" version="1.1" width="32" height="32" viewBox="0 0 32 32"><defs><clipPath id="master_svg0_134_21662"><rect x="0" y="0" width="32" height="32" rx="0"/></clipPath></defs><g clip-path="url(#master_svg0_134_21662)"><g><path d="M14,20.179999923706056L10.41,16.589999923706053L9,17.999999923706056L14,22.999999923706056L23,13.999999923706055L21.59,12.579999923706055L14,20.179999923706056Z" fill="#000000" fill-opacity="1"/></g><g><path d="M25,5L22,5L22,4C22,2.895431,21.1046,2,20,2L12,2C10.895430000000001,2,10,2.895431,10,4L10,5L7,5C5.895431,5,5,5.89543,5,7L5,28C5,29.1046,5.895431,30,7,30L25,30C26.1046,30,27,29.1046,27,28L27,7C27,5.89543,26.1046,5,25,5ZM12,4L20,4L20,8L12,8L12,4ZM25,28L7,28L7,7L10,7L10,10L22,10L22,7L25,7L25,28Z" fill="#000000" fill-opacity="1"/></g><g></g></g></svg>