<svg xmlns="http://www.w3.org/2000/svg" xmlns:xlink="http://www.w3.org/1999/xlink" fill="none" version="1.1" width="32" height="32" viewBox="0 0 32 32"><defs><clipPath id="master_svg0_134_21668"><rect x="0" y="0" width="32" height="32" rx="0"/></clipPath></defs><g clip-path="url(#master_svg0_134_21668)"><g><path d="M31,24L27,24L27,20L25,20L25,24L21,24L21,26L25,26L25,30L27,30L27,26L31,26L31,24Z" fill="#000000" fill-opacity="1"/></g><g><path d="M25,5L22,5L22,4C21.9968,2.896752,21.1032,2.00318575,20,2L12,2C10.89675,2.00318527,10.00319,2.896752,10,4L10,5L7,5C5.896753,5.00319,5.00318575,5.89675,5,7L5,28C5.00318575,29.1032,5.896753,29.9968,7,30L17,30L17,28L7,28L7,7L10,7L10,10L22,10L22,7L25,7L25,16L27,16L27,7C26.9968,5.89675,26.1032,5.00319,25,5ZM20,8L12,8L12,4L20,4L20,8Z" fill="#000000" fill-opacity="1"/></g><g></g></g></svg>