<svg xmlns="http://www.w3.org/2000/svg" xmlns:xlink="http://www.w3.org/1999/xlink" fill="none" version="1.1" width="32" height="32" viewBox="0 0 32 32"><defs><clipPath id="master_svg0_134_21732"><rect x="0" y="0" width="32" height="32" rx="0"/></clipPath></defs><g clip-path="url(#master_svg0_134_21732)"><g><path d="M4,4L4,6L8,6L8,14C8,18.418300000000002,11.58172,22,16,22C20.4183,22,24,18.418300000000002,24,14L24,6L28,6L28,4L4,4ZM22,14C22,17.3137,19.3137,20,16,20C12.68629,20,10,17.3137,10,14L10,6L15,6L15,14L17,14L17,6L22,6L22,14Z" fill="#000000" fill-opacity="1"/></g><g><rect x="11" y="26" width="2" height="2" rx="0" fill="#000000" fill-opacity="1"/></g><g><rect x="7" y="24" width="2" height="2" rx="0" fill="#000000" fill-opacity="1"/></g><g><rect x="15" y="24" width="2" height="2" rx="0" fill="#000000" fill-opacity="1"/></g><g><rect x="19" y="26" width="2" height="2" rx="0" fill="#000000" fill-opacity="1"/></g><g><rect x="23" y="24" width="2" height="2" rx="0" fill="#000000" fill-opacity="1"/></g><g></g></g></svg>