<svg xmlns="http://www.w3.org/2000/svg" xmlns:xlink="http://www.w3.org/1999/xlink" fill="none" version="1.1" width="32" height="32" viewBox="0 0 32 32"><defs><clipPath id="master_svg0_134_21793"><rect x="0" y="0" width="32" height="32" rx="0"/></clipPath></defs><g clip-path="url(#master_svg0_134_21793)"><g><path d="M26.000004552612303,29.999994552612304L22.000004552612303,29.999994552612304C20.896774552612303,29.996794552612304,20.003244552612305,29.103194552612305,20.000004552612303,27.999994552612304L20.000004552612303,20.999994552612307C18.896774552612303,20.996794552612304,18.003238682612306,20.103194552612305,17.999999999612303,19.000004552612303L17.999999999612303,13.000004552612305C17.969404252612303,11.330634552612304,19.330634552612306,9.969404252612305,21.000004552612303,9.999999999612305L27.000004552612303,9.999999999612305C28.669394552612303,9.969403252612304,30.030594552612307,11.330634552612304,29.999994552612307,13.000004552612305L29.999994552612307,19.000004552612303C29.996794552612304,20.103194552612305,29.103194552612305,20.996794552612304,27.999994552612307,20.999994552612307L27.999994552612307,27.999994552612304C27.996754552612305,29.103194552612305,27.103224552612303,29.996794552612304,26.000004552612303,29.999994552612304ZM21.000004552612303,12.000004552612305C20.434174552612305,11.965854552612305,19.965854552612306,12.434174552612305,20.000004552612303,13.000004552612305L20.000004552612303,19.000004552612303L22.000004552612303,19.000004552612303L22.000004552612303,27.999994552612304L26.000004552612303,27.999994552612304L26.000004552612303,19.000004552612303L27.999994552612307,19.000004552612303L27.999994552612307,13.000004552612305C28.034194552612306,12.434174552612305,27.565824552612305,11.965854552612305,27.000004552612303,12.000004552612305L21.000004552612303,12.000004552612305Z" fill="#000000" fill-opacity="1"/></g><g><path d="M24,9C21.79086,9,20,7.20914,20,5C20,2.79086,21.79086,1,24,1C26.209139999999998,1,28,2.79086,28,5C27.99352,7.20645,26.20645,8.99352,24,9ZM24,3C22.89543,3,22,3.89543,22,5C22,6.10457,22.89543,7,24,7C25.10457,7,26,6.10457,26,5C25.996760000000002,3.89678,25.10323,3.00324,24,3Z" fill="#000000" fill-opacity="1"/></g><g><path d="M9.999996272888183,20.1839L9.999996272888183,12L7.9999962728881835,12L7.9999962728881835,20.1839C6.098744272888184,20.856090000000002,5.388890272888183,23.1751,6.588130272888184,24.7964C7.787376272888183,26.4176,10.212626272888183,26.4176,11.411866272888183,24.7964C12.611106272888183,23.1751,11.901256272888183,20.856090000000002,9.999996272888183,20.1839Z" fill="#000000" fill-opacity="1"/></g><g><path d="M8.999998988990784,30C6.1827989889907835,30.0028,3.6390389889907837,28.3148,2.5469119889907836,25.7179C1.4547849889907836,23.121,2.0275821889907837,20.1223,3.9999989889907837,18.1108L3.9999989889907837,7C3.9999989889907837,4.23858,6.238578988990784,2,8.999998988990784,2C11.761418988990783,2,13.999968988990783,4.23858,13.999968988990783,7L13.999968988990783,18.1108C15.972368988990784,20.1223,16.54516898899078,23.121,15.453068988990784,25.7179C14.360968988990784,28.3148,11.817198988990784,30.0028,8.999998988990784,30ZM8.999998988990784,4C7.343898988990784,4.00182,6.001818988990784,5.3439,5.999998988990784,7L5.999998988990784,18.9834L5.667998988990783,19.2817C3.5545089889907837,21.1707,3.432438988990784,24.4371,5.399058988990784,26.4786C7.365678988990783,28.52,10.634328988990784,28.52,12.600968988990784,26.4786C14.567568988990784,24.4371,14.445468988990784,21.1707,12.331968988990784,19.2817L11.999968988990783,18.9834L11.999968988990783,7C11.998178988990784,5.3439,10.656098988990784,4.00182,8.999998988990784,4Z" fill="#000000" fill-opacity="1"/></g><g></g></g></svg>