<svg xmlns="http://www.w3.org/2000/svg" xmlns:xlink="http://www.w3.org/1999/xlink" fill="none" version="1.1" width="32" height="32" viewBox="0 0 32 32"><defs><clipPath id="master_svg0_134_21787"><rect x="0" y="0" width="32" height="32" rx="0"/></clipPath></defs><g clip-path="url(#master_svg0_134_21787)"><g><path d="M26,11L26,9L15,9L15,27L17,27L17,19L25,19L25,17L17,17L17,11L26,11Z" fill="#000000" fill-opacity="1"/></g><g><path d="M8,13C5.79086,13,4,11.20914,4,9C4,6.79086,5.79086,5,8,5C10.20914,5,12,6.79086,12,9C11.99352,11.20645,10.20645,12.99352,8,13ZM8,7C6.89543,7,6,7.89543,6,9C6,10.104569999999999,6.89543,11,8,11C9.104569999999999,11,10,10.104569999999999,10,9C9.99676,7.89678,9.10323,7.00324,8,7Z" fill="#000000" fill-opacity="1"/></g><g></g></g></svg>