<svg xmlns="http://www.w3.org/2000/svg" xmlns:xlink="http://www.w3.org/1999/xlink" fill="none" version="1.1" width="32" height="32" viewBox="0 0 32 32"><defs><clipPath id="master_svg0_134_21808"><rect x="0" y="0" width="32" height="32" rx="0"/></clipPath></defs><g clip-path="url(#master_svg0_134_21808)"><g><rect x="26" y="13" width="4" height="2" rx="0" fill="#000000" fill-opacity="1"/></g><g transform="matrix(0.7071067690849304,-0.7071067690849304,0.7071067690849304,0.7071067690849304,1.3725480620778399,18.48549806633673)"><rect x="23.000244140625" y="7.5859375" width="3.9999001026153564" height="1.9997999668121338" rx="0" fill="#000000" fill-opacity="1"/></g><g transform="matrix(0.7071067690849304,-0.7071067690849304,0.7071067690849304,0.7071067690849304,-7.698377467226237,22.242596410680562)"><rect x="23" y="20.4140625" width="1.9997999668121338" height="3.9999001026153564" rx="0" fill="#000000" fill-opacity="1"/></g><g><rect x="17" y="2" width="2" height="4" rx="0" fill="#000000" fill-opacity="1"/></g><g><path d="M18,8C17.664745,8.00217819,17.330256,8.0322828,17,8.0900002L17,10.1418C17.325909,10.05201,17.661978,10.00435,18,10C20.20914,10,22,11.79086,22,14C22,16.209139999999998,20.20914,18,18,18L18,20C21.31371,20,24,17.31371,24,14C24,10.68629,21.31371,8,18,8Z" fill="#000000" fill-opacity="1"/></g><g><path d="M9.999995319213866,20.1839L9.999995319213866,7L7.999995319213867,7L7.999995319213867,20.1839C6.098743319213868,20.856099999999998,5.388889319213867,23.1751,6.588130319213867,24.7964C7.787375319213867,26.4176,10.212625319213867,26.4176,11.411865319213867,24.7964C12.611105319213866,23.1751,11.901255319213867,20.856099999999998,9.999995319213866,20.1839Z" fill="#000000" fill-opacity="1"/></g><g><path d="M8.999998988990784,30C6.1827989889907835,30.0028,3.6390389889907837,28.3148,2.5469119889907836,25.7179C1.4547849889907836,23.121,2.0275821889907837,20.1223,3.9999989889907837,18.1108L3.9999989889907837,7C3.9999989889907837,4.23858,6.238578988990784,2,8.999998988990784,2C11.761418988990783,2,13.999968988990783,4.23858,13.999968988990783,7L13.999968988990783,18.1108C15.972368988990784,20.1223,16.54516898899078,23.121,15.453068988990784,25.7179C14.360968988990784,28.3148,11.817198988990784,30.0028,8.999998988990784,30ZM8.999998988990784,4C7.343898988990784,4.00182,6.001818988990784,5.3439,5.999998988990784,7L5.999998988990784,18.9834L5.667998988990783,19.2817C3.5545089889907837,21.1707,3.432438988990784,24.4371,5.399058988990784,26.4786C7.365678988990783,28.52,10.634328988990784,28.52,12.600968988990784,26.4786C14.567568988990784,24.4371,14.445468988990784,21.1707,12.331968988990784,19.2817L11.999968988990783,18.9834L11.999968988990783,7C11.998178988990784,5.3439,10.656098988990784,4.00182,8.999998988990784,4Z" fill="#000000" fill-opacity="1"/></g><g></g></g></svg>