<svg xmlns="http://www.w3.org/2000/svg" xmlns:xlink="http://www.w3.org/1999/xlink" fill="none" version="1.1" width="32" height="32" viewBox="0 0 32 32"><defs><clipPath id="master_svg0_134_21882"><rect x="0" y="0" width="32" height="32" rx="0"/></clipPath></defs><g clip-path="url(#master_svg0_134_21882)"><g><rect x="10" y="21" width="6" height="2" rx="0" fill="#000000" fill-opacity="1"/></g><g><path d="M26,4L6,4C4.895431,4,4,4.895431,4,6L4,26C4,27.1046,4.895431,28,6,28L26,28C27.1046,28,28,27.1046,28,26L28,6C28,4.895431,27.1046,4,26,4ZM26,6L26,10L6,10L6,6L26,6ZM6,26L6,12L26,12L26,26L6,26Z" fill="#000000" fill-opacity="1"/></g><g></g></g></svg>