<svg xmlns="http://www.w3.org/2000/svg" xmlns:xlink="http://www.w3.org/1999/xlink" fill="none" version="1.1" width="32" height="32" viewBox="0 0 32 32"><defs><clipPath id="master_svg0_134_22103"><rect x="0" y="0" width="32" height="32" rx="0"/></clipPath></defs><g clip-path="url(#master_svg0_134_22103)"><g><path d="M28,27L21,27C19.34315,27,18,25.6569,18,24L18,22C18,20.34315,19.34315,19,21,19L26,19L26,17C26,16.44772,25.55229,16,25,16L19,16L19,14L25,14C26.65685,14,28,15.34315,28,17L28,27ZM21,21C20.44772,21,20,21.44771,20,22L20,24C20,24.552300000000002,20.44772,25,21,25L26,25L26,21L21,21Z" fill="#000000" fill-opacity="1"/></g><g><path d="M13,7L16,7L16,5L13,5C11.84793,5.00650167,10.7546,5.509432,10,6.38C9.2454,5.509432,8.15207,5.00650167,7,5L4,5L4,7L7,7C8.104569999999999,7,9,7.89543,9,9L9,14L5,14L5,16L9,16L9,23C9,24.1046,8.104569999999999,25,7,25L4,25L4,27L7,27C8.15207,26.9935,9.2454,26.4906,10,25.62C10.7546,26.4906,11.84793,26.9935,13,27L16,27L16,25L13,25C11.895430000000001,25,11,24.1046,11,23L11,16L15,16L15,14L11,14L11,9C11,7.89543,11.895430000000001,7,13,7Z" fill="#000000" fill-opacity="1"/></g><g></g></g></svg>