<svg xmlns="http://www.w3.org/2000/svg" xmlns:xlink="http://www.w3.org/1999/xlink" fill="none" version="1.1" width="32" height="32" viewBox="0 0 32 32"><defs><clipPath id="master_svg0_134_22233"><rect x="0" y="0" width="32" height="32" rx="0"/></clipPath></defs><g clip-path="url(#master_svg0_134_22233)"><g><path d="M13.338000000000001,30L11.602,29L13.889,25L10,25L13.993,18L15.73,19L13.446,23L17.337,23L13.338000000000001,30Z" fill="#000000" fill-opacity="1"/></g><g><path d="M27.000041282653807,10.999995221099853C27.00214128265381,8.215005221099855,25.08624128265381,5.795227221099854,22.375041282653807,5.158614221099853C19.66374128265381,4.5220012210998535,16.871041282653806,5.8361982210998535,15.633541282653809,8.331105221099854C14.942541282653808,8.116305221099854,14.223541282653809,8.004735221099853,13.50004128265381,7.999995221099853C10.233481282653809,8.017625221099854,7.348691282653808,10.133695221099853,6.3508012826538085,13.244105221099854C3.4744812826538087,14.063495221099853,1.6426472826538085,16.878185221099855,2.0581423826538088,19.83998522109985C2.4736382826538086,22.801685221099852,5.009251282653809,25.003685221099854,8.000001282653809,24.999985221099852L8.000001282653809,22.999985221099852C5.9228512826538084,23.004185221099853,4.189521282653809,21.414885221099855,4.0138312826538085,19.345185221099854C3.8381412826538086,17.275485221099853,5.278781282653808,15.416885221099854,7.326901282653808,15.070785221099854L7.990001282653808,14.958005221099853L8.135801282653809,14.301805221099853C8.695341282653809,11.788085221099854,10.925261282653809,9.999955221099853,13.500541282653808,9.999955221099853C16.07574128265381,9.999955221099853,18.30564128265381,11.788085221099854,18.86524128265381,14.301805221099853L19.01104128265381,14.958005221099853L19.673641282653808,15.070785221099854C21.72184128265381,15.416885221099854,23.16244128265381,17.275685221099856,22.98664128265381,19.345485221099853C22.810841282653808,21.415285221099854,21.07724128265381,23.004385221099852,19.000041282653807,22.999985221099852L19.000041282653807,24.999985221099852C23.597841282653807,25.011285221099854,26.490941282653807,20.049485221099854,24.216341282653808,16.053685221099855C25.94724128265381,14.955885221099853,26.997241282653807,13.049715221099854,27.000041282653807,10.999995221099853ZM22.926841282653807,14.489305221099853C22.268341282653807,13.911935221099853,21.490641282653808,13.486785221099854,20.649241282653808,13.244095221099853C20.10174128265381,11.553985221099854,18.97324128265381,10.112465221099853,17.463941282653806,9.175295221099853C18.686041282653807,6.7874552210998536,21.870141282653808,6.263575221099853,23.792941282653807,8.133955221099853C25.71564128265381,10.004335221099854,25.27994128265381,13.201635221099853,22.926841282653807,14.489305221099853Z" fill="#000000" fill-opacity="1"/></g><g transform="matrix(-0.7071067690849304,-0.7071067690849304,0.7071067690849304,-0.7071067690849304,35.36352826032089,52.650005615956616)"><rect x="28.5859375" y="19.0009765625" width="3" height="2" rx="0" fill="#000000" fill-opacity="1"/></g><g><rect x="29" y="10" width="3" height="2" rx="0" fill="#000000" fill-opacity="1"/></g><g transform="matrix(0.7071067690849304,-0.7071067690849304,0.7071067690849304,0.7071067690849304,4.129387250072909,20.213362147313887)"><rect x="26.464380264282227" y="5.1220703125" width="3" height="2" rx="0" fill="#000000" fill-opacity="1"/></g><g><rect x="20" y="0" width="2" height="3" rx="0" fill="#000000" fill-opacity="1"/></g><g transform="matrix(-0.7071067690849304,-0.7071067690849304,0.7071067690849304,-0.7071067690849304,19.48447097215103,21.14299754536478)"><rect x="14.12109375" y="6.5361328125" width="3" height="2" rx="0" fill="#000000" fill-opacity="1"/></g><g></g></g></svg>