<svg xmlns="http://www.w3.org/2000/svg" xmlns:xlink="http://www.w3.org/1999/xlink" fill="none" version="1.1" width="32" height="32" viewBox="0 0 32 32"><defs><clipPath id="master_svg0_134_22261"><rect x="0" y="0" width="32" height="32" rx="0"/></clipPath></defs><g clip-path="url(#master_svg0_134_22261)"><g><path d="M21.000001967773436,29.999996408691405C20.256497967773438,30.000046408691407,19.77295696777344,29.217536408691405,20.105599967773436,28.552596408691407L22.10560196777344,24.552101408691406C22.35250196777344,24.057846108691407,22.953431967773437,23.857463408691405,23.447571967773438,24.104612408691406C23.941701967773437,24.351762408691407,24.141791967773436,24.952785408691405,23.894401967773437,25.446796408691405L21.894401967773437,29.446796408691405C21.725471967773437,29.786046408691405,21.378981967773438,30.000356408691406,21.000001967773436,29.999996408691405Z" fill="#000000" fill-opacity="1"/></g><g><path d="M9.00000387512207,31.99999831604004C8.25649787512207,32.000048316040036,7.77295887512207,31.217538316040038,8.10559987512207,30.55259831604004L10.105603875122071,26.55210131604004C10.352503875122071,26.05784611604004,10.95343387512207,25.85746431604004,11.447563875122071,26.10461431604004C11.94170387512207,26.351762316040038,12.14179387512207,26.95278531604004,11.89440387512207,27.446798316040038L9.89440387512207,31.446798316040038C9.72547387512207,31.786048316040038,9.37898387512207,32.000358316040035,9.00000387512207,31.99999831604004Z" fill="#000000" fill-opacity="1"/></g><g><path d="M15.9010004196167,30.49599971008301L14.1650004196167,29.503999710083008L17.3100004196167,23.99999971008301L11.3100004196167,23.99999971008301L16.1650004196167,15.503999710083008L17.9010004196167,16.496000710083006L14.756000419616699,21.99999971008301L20.7570004196167,21.99999971008301L15.9010004196167,30.49599971008301Z" fill="#000000" fill-opacity="1"/></g><g><path d="M24.80081151046753,9.136195453453064C23.92261151046753,4.976555453453064,20.25181151046753,1.999895453453064,16.00051151046753,1.999895453453064C11.749161510467529,1.9998952150340639,8.078421510467528,4.976555453453064,7.200201510467529,9.136195453453064C4.13145151046753,9.759865453453063,1.9450767104675293,12.484995453453063,2.0014774804675293,15.615995453453063C2.0578787104675293,18.746895453453064,4.340981510467529,21.391595453453064,7.430201510467529,21.904295453453063L6.10600151046753,24.552695453453065C5.848521510467529,25.048095453453065,6.046611510467529,25.658395453453064,6.545971510467529,25.908195453453065C7.045321510467529,26.157995453453065,7.6524815104675294,25.950495453453065,7.89450151046753,25.447295453453062L9.89450151046753,21.447295453453062C10.14163151046753,20.953295453453062,9.941491510467529,20.352595453453063,9.447501510467529,20.105495453453063C9.307971510467528,20.038795453453066,9.154621510467528,20.005995453453064,9.00000151046753,20.009995453453065L9.00000151046753,19.999995453453064L8.50000151046753,19.999995453453064C6.084851510467529,20.000795453453065,4.100271510467529,18.093895453453065,4.004611510467529,15.680595453453064C3.908951510467529,13.267395453453064,5.73637151046753,11.209415453453063,8.144001510467529,11.018995453453064L8.959501510467529,10.955095453453064L9.058601510467529,10.143095453453064C9.48830151046753,6.635655453453064,12.46681151046753,3.999755453453064,16.00051151046753,3.999755453453064C19.53421151046753,3.999755453453064,22.51271151046753,6.635655453453064,22.94241151046753,10.143095453453064L23.04101151046753,10.955095453453064L23.85641151046753,11.018995453453064C26.26411151046753,11.209415453453063,28.09151151046753,13.267495453453064,27.99581151046753,15.680795453453063C27.90001151046753,18.094195453453064,25.91521151046753,20.000995453453065,23.50001151046753,19.999995453453064L23.00001151046753,19.999995453453064L23.00001151046753,21.999995453453064L23.50001151046753,21.999995453453064C26.836311510467528,22.001395453453064,29.63141151046753,19.475695453453064,29.96711151046753,16.156295453453062C30.302711510467528,12.836895453453064,28.06981151046753,9.802775453453064,24.80081151046753,9.136195453453064Z" fill="#000000" fill-opacity="1"/></g><g></g></g></svg>