<svg xmlns="http://www.w3.org/2000/svg" xmlns:xlink="http://www.w3.org/1999/xlink" fill="none" version="1.1" width="32" height="32" viewBox="0 0 32 32"><defs><clipPath id="master_svg0_134_22283"><rect x="0" y="0" width="32" height="32" rx="0"/></clipPath></defs><g clip-path="url(#master_svg0_134_22283)"><g><path d="M30,11L30,9L22,9L22,23L24,23L24,17L29,17L29,15L24,15L24,11L30,11Z" fill="#000000" fill-opacity="1"/></g><g><path d="M12,11L15,11L15,21L12,21L12,23L20,23L20,21L17,21L17,11L20,11L20,9L12,9L12,11Z" fill="#000000" fill-opacity="1"/></g><g><path d="M2,11L5,11L5,23L7,23L7,11L10,11L10,9L2,9L2,11Z" fill="#000000" fill-opacity="1"/></g><g></g></g></svg>