<svg xmlns="http://www.w3.org/2000/svg" xmlns:xlink="http://www.w3.org/1999/xlink" fill="none" version="1.1" width="32" height="32" viewBox="0 0 32 32"><defs><clipPath id="master_svg0_134_22309"><rect x="0" y="0" width="32" height="32" rx="0"/></clipPath></defs><g clip-path="url(#master_svg0_134_22309)"><g><rect x="15" y="11" width="2" height="9" rx="0" fill="#000000" fill-opacity="1"/></g><g><rect x="13" y="2" width="6" height="2" rx="0" fill="#000000" fill-opacity="1"/></g><g><path d="M27.999957508087157,9.000003884277344L26.57995750808716,7.590003884277344L24.32995750808716,9.840003884277344C19.012357508087156,3.6990638842773436,9.093047508087158,5.290892884277344,5.963943508087159,12.787343884277345C2.8348375080871584,20.283743884277342,8.678787508087158,28.455443884277344,16.78425750808716,27.917443884277343C24.889757508087158,27.379443884277343,29.60245750808716,18.507143884277344,25.509957508087158,11.490003884277343L27.999957508087157,9.000003884277344ZM15.999957508087158,26.000043884277343C11.029437508087158,26.000043884277343,6.999997508087159,21.970543884277344,6.999997508087159,17.000043884277346C6.999997508087159,12.029433884277344,11.029437508087158,8.000003884277344,15.999957508087158,8.000003884277344C20.970557508087158,8.000003884277344,24.999957508087157,12.029433884277344,24.999957508087157,17.000043884277346C24.999957508087157,21.970543884277344,20.970557508087158,26.000043884277343,15.999957508087158,26.000043884277343Z" fill="#000000" fill-opacity="1"/></g><g></g></g></svg>