<svg xmlns="http://www.w3.org/2000/svg" xmlns:xlink="http://www.w3.org/1999/xlink" fill="none" version="1.1" width="32" height="32" viewBox="0 0 32 32"><defs><clipPath id="master_svg0_134_22333"><rect x="0" y="0" width="32" height="32" rx="0"/></clipPath></defs><g clip-path="url(#master_svg0_134_22333)"><g><path d="M23.1,16L29.4,9.7C30.2,8.9,30.2,7.7,29.4,6.9L25.2,2.7C24.4,1.9,23.2,1.9,22.4,2.7L16,8.9L9.7,2.6C8.9,1.8,7.7,1.8,6.9,2.6L2.6,6.8C1.8,7.6,1.8,8.8,2.6,9.6L8.9,16L2,22.9L2,30L9.1,30L16,23.1L22.3,29.4C23.1,30.2,24.3,30.2,25.1,29.4L29.3,25.2C30.1,24.4,30.1,23.2,29.3,22.4L23.1,16ZM23.8,4L28,8.2L21.7,14.5L17.5,10.3L23.8,4ZM8.2,28L4,28L4,23.8L10.3,17.5L14.5,21.7L8.2,28ZM23.8,28L4,8.2L8.2,4L11.7,7.5L9.6,9.6L11,11L13.1,8.9L17.3,13.1L15.2,15.2L16.6,16.6L18.7,14.5L22.9,18.7L21,20.9L22.4,22.3L24.5,20.2L28,23.7L23.8,28Z" fill="#000000" fill-opacity="1"/></g><g></g></g></svg>