<svg xmlns="http://www.w3.org/2000/svg" xmlns:xlink="http://www.w3.org/1999/xlink" fill="none" version="1.1" width="32" height="32" viewBox="0 0 32 32"><defs><clipPath id="master_svg0_134_22385"><rect x="0" y="0" width="32" height="32" rx="0"/></clipPath></defs><g clip-path="url(#master_svg0_134_22385)"><g><path d="M29,15L27,15C27,8.92487,22.0751,4,16,4C9.92487,4,5,8.92487,5,15L3,15C3,7.8203,8.8203,2,16,2C23.1797,2,29,7.8203,29,15Z" fill="#000000" fill-opacity="1"/></g><g><path d="M25,28L23,28L23,15C23,11.13401,19.866,8,16,8C12.13401,8,9,11.13401,9,15L9,28L7,28L7,15C7,10.029440000000001,11.029440000000001,6,16,6C20.970599999999997,6,25,10.029440000000001,25,15L25,28Z" fill="#000000" fill-opacity="1"/></g><g><path d="M21,20L11,20L11,15C11,12.238579999999999,13.238579999999999,10,16,10C18.76142,10,21,12.238579999999999,21,15L21,20ZM13,18L19,18L19,15C19,13.34315,17.65685,12,16,12C14.34315,12,13,13.34315,13,15L13,18Z" fill="#000000" fill-opacity="1"/></g><g></g></g></svg>