<svg xmlns="http://www.w3.org/2000/svg" xmlns:xlink="http://www.w3.org/1999/xlink" fill="none" version="1.1" width="32" height="32" viewBox="0 0 32 32"><defs><clipPath id="master_svg0_134_22447"><rect x="0" y="0" width="32" height="32" rx="0"/></clipPath></defs><g clip-path="url(#master_svg0_134_22447)"><g><rect x="2" y="28" width="28" height="2" rx="0" fill="#000000" fill-opacity="1"/></g><g transform="matrix(0.7071067690849304,-0.7071067690849304,0.7071067690849304,0.7071067690849304,-6.4851095484385155,12.20093405304641)"><rect x="11.485275268554688" y="13.92868709564209" width="6" height="2" rx="0" fill="#000000" fill-opacity="1"/></g><g><path d="M12.081500077819824,23.4328999420166L16.198300077819823,25.750499942016603C16.979500077819825,26.1808999420166,17.950900077819824,26.044699942016603,18.583600077819824,25.4160999420166L27.416200077819823,16.5834999420166C28.044900077819825,15.950699942016602,28.180900077819825,14.979099942016601,27.750200077819823,14.197899942016601L25.452500077819824,10.061899942016602L27.242500077819823,8.271899942016603L25.828300077819826,6.857699942016602L24.414100077819825,8.271899942016603L19.464100077819825,3.3218999420166018C18.682400077819825,2.5422299420166015,17.417200077819825,2.5422299420166015,16.635600077819824,3.3218999420166018L14.514600077819825,1.2007999420166016L13.100000077819825,2.6149999420166017L15.221300077819825,4.736399942016602L6.736400077819824,13.221599942016601L4.615100077819824,11.099999942016602L3.200900077819824,12.514499942016602L5.322200077819824,14.635799942016602C4.542480077819825,15.417399942016601,4.542480077819825,16.6826999420166,5.322200077819824,17.464299942016602L10.272200077819825,22.4142999420166L8.857700077819825,23.828199942016603L10.272000077819825,25.2423999420166L12.081500077819824,23.4328999420166ZM26.001500077819824,15.169299942016602L17.168700077819825,24.002099942016603L12.623100077819824,21.476599942016602L23.476700077819824,10.623499942016602L26.001500077819824,15.169299942016602ZM9.564900077819825,18.878499942016603L10.979100077819824,17.464299942016602L9.564900077819825,16.0499999420166L8.150600077819824,17.464299942016602L6.736400077819824,16.0499999420166L18.050000077819824,4.736399942016602L19.464300077819825,6.150599942016601L18.050000077819824,7.564799942016601L19.464400077819825,8.978999942016602L20.878600077819826,7.564799942016601L22.292800077819823,8.978999942016602L10.979100077819824,20.2926999420166L9.564900077819825,18.878499942016603Z" fill="#000000" fill-opacity="1"/></g><g></g></g></svg>