<svg xmlns="http://www.w3.org/2000/svg" xmlns:xlink="http://www.w3.org/1999/xlink" fill="none" version="1.1" width="32" height="32" viewBox="0 0 32 32"><defs><clipPath id="master_svg0_134_22467"><rect x="0" y="0" width="32" height="32" rx="0"/></clipPath></defs><g clip-path="url(#master_svg0_134_22467)"><g><path d="M21,3L11,3C8.23988,3.00314093,6.0031414,5.239879999999999,6,8L6,20C6.00762701,22.2072,7.46445,24.1472,9.582,24.77L7.7693,29L9.9451,29L11.6594,25L20.340600000000002,25L22.0549,29L24.2307,29L22.418,24.77C24.5356,24.1472,25.9924,22.2072,26,20L26,8C25.9969,5.239879999999999,23.7601,3.0031414,21,3ZM11,5L21,5C22.2672,5.00383,23.3948,5.8047699999999995,23.8157,7L8.1843,7C8.60522,5.8047699999999995,9.73283,5.00383,11,5ZM24,19L21,19L21,21L23.8157,21C23.3948,22.1952,22.2672,22.9962,21,23L11,23C9.73283,22.9962,8.60522,22.1952,8.1843,21L11,21L11,19L8,19L8,17L24,17L24,19ZM24,15L8,15L8,9L24,9L24,15Z" fill="#000000" fill-opacity="1"/></g><g></g></g></svg>