<svg xmlns="http://www.w3.org/2000/svg" xmlns:xlink="http://www.w3.org/1999/xlink" fill="none" version="1.1" width="32" height="32" viewBox="0 0 32 32"><defs><clipPath id="master_svg0_134_22521"><rect x="0" y="0" width="32" height="32" rx="0"/></clipPath></defs><g clip-path="url(#master_svg0_134_22521)"><g><path d="M23,17L23,15L20.9,15C20.8,14.4,20.5,13.8,20.2,13.2L21.7,11.7L20.3,10.3L18.8,11.8C18.3,11.5,17.7,11.2,17,11.1L17,9L15,9L15,11.1C14.4,11.2,13.8,11.5,13.2,11.8L11.7,10.3L10.3,11.7L11.8,13.2C11.5,13.7,11.2,14.3,11.1,15L9,15L9,17L11.1,17C11.2,17.6,11.5,18.2,11.8,18.8L10.3,20.3L11.7,21.7L13.2,20.2C13.7,20.5,14.3,20.8,15,20.9L15,23L17,23L17,20.9C17.6,20.8,18.2,20.5,18.8,20.2L20.3,21.7L21.7,20.3L20.2,18.8C20.5,18.3,20.8,17.7,20.9,17L23,17ZM16,19C14.3,19,13,17.7,13,16C13,14.3,14.3,13,16,13C17.7,13,19,14.3,19,16C19,17.7,17.7,19,16,19Z" fill="#000000" fill-opacity="1"/></g><g><path d="M16,2L16,4C22.6,4,28,9.4,28,16C28,22.6,22.6,28,16,28L16,30C23.7,30,30,23.7,30,16C30,8.3,23.7,2,16,2Z" fill="#000000" fill-opacity="1"/></g><g><path d="M8.2,25.100000381469727L7,26.700000381469728C8.2,27.700000381469728,9.6,28.600000381469727,11.2,29.100000381469727L11.9,27.200000381469728C10.5,26.700000381469728,9.3,26.000000381469725,8.2,25.100000381469727Z" fill="#000000" fill-opacity="1"/></g><g><path d="M4.199999809265137,18L2.1999998092651367,18.4C2.4999998092651365,20,3.0999998092651366,21.6,3.899999809265137,23L5.599999809265137,22C4.899999809265137,20.8,4.399999809265137,19.4,4.199999809265137,18Z" fill="#000000" fill-opacity="1"/></g><g><path d="M5.600000190734863,10L3.9000001907348634,9C3.100000190734863,10.4,2.5000001907348635,12,2.3000001907348633,13.6L4.300000190734863,13.9C4.400000190734863,12.5,4.900000190734863,11.2,5.600000190734863,10Z" fill="#000000" fill-opacity="1"/></g><g><path d="M11.8,4.800000095367432L11.1,2.9000000953674316C9.6,3.5000000953674317,8.2,4.300000095367432,7,5.300000095367432L8.3,6.800000095367432C9.3,6.000000095367431,10.5,5.300000095367432,11.8,4.800000095367432Z" fill="#000000" fill-opacity="1"/></g><g></g></g></svg>