<svg xmlns="http://www.w3.org/2000/svg" xmlns:xlink="http://www.w3.org/1999/xlink" fill="none" version="1.1" width="32" height="32" viewBox="0 0 32 32"><defs><clipPath id="master_svg0_134_22509"><rect x="0" y="0" width="32" height="32" rx="0"/></clipPath></defs><g clip-path="url(#master_svg0_134_22509)"><g><path d="M23,20L21,20C19.9,20,19,19.1,19,18L19,14C19,12.9,19.9,12,21,12L23,12C24.1,12,25,12.9,25,14L25,18C25,19.1,24.1,20,23,20ZM21,14L21,18L23,18L23,14L21,14Z" fill="#000000" fill-opacity="1"/></g><g><rect x="15" y="12" width="2" height="8" rx="0" fill="#000000" fill-opacity="1"/></g><g><path d="M11,20L9,20C7.9,20,7,19.1,7,18L7,14C7,12.9,7.9,12,9,12L11,12C12.1,12,13,12.9,13,14L13,18C13,19.1,12.1,20,11,20ZM9,14L9,18L11,18L11,14L9,14Z" fill="#000000" fill-opacity="1"/></g><g><path d="M16,2L16,4C22.6,4,28,9.4,28,16C28,22.6,22.6,28,16,28L16,30C23.7,30,30,23.7,30,16C30,8.3,23.7,2,16,2Z" fill="#000000" fill-opacity="1"/></g><g><path d="M8.2,25.100000381469727L7,26.700000381469728C8.2,27.700000381469728,9.6,28.600000381469727,11.2,29.100000381469727L11.9,27.200000381469728C10.5,26.700000381469728,9.3,26.000000381469725,8.2,25.100000381469727Z" fill="#000000" fill-opacity="1"/></g><g><path d="M4.199999809265137,18L2.1999998092651367,18.4C2.4999998092651365,20,3.0999998092651366,21.6,3.899999809265137,23L5.599999809265137,22C4.899999809265137,20.8,4.399999809265137,19.4,4.199999809265137,18Z" fill="#000000" fill-opacity="1"/></g><g><path d="M5.600000190734863,10L3.9000001907348634,9C3.100000190734863,10.4,2.5000001907348635,12,2.3000001907348633,13.6L4.300000190734863,13.9C4.400000190734863,12.5,4.900000190734863,11.2,5.600000190734863,10Z" fill="#000000" fill-opacity="1"/></g><g><path d="M11.8,4.800000095367432L11.1,2.9000000953674316C9.6,3.5000000953674317,8.2,4.300000095367432,7,5.300000095367432L8.3,6.800000095367432C9.3,6.000000095367431,10.5,5.300000095367432,11.8,4.800000095367432Z" fill="#000000" fill-opacity="1"/></g><g></g></g></svg>