<svg xmlns="http://www.w3.org/2000/svg" xmlns:xlink="http://www.w3.org/1999/xlink" fill="none" version="1.1" width="32" height="32" viewBox="0 0 32 32"><defs><clipPath id="master_svg0_134_22554"><rect x="0" y="0" width="32" height="32" rx="0"/></clipPath></defs><g clip-path="url(#master_svg0_134_22554)"><g><path d="M10.570000051879884,30L11.503300051879883,28L20.496100051879882,28L21.42940005187988,30L23.63660005187988,30L17.000000051879884,15.7778L17.000000051879884,11L15.000000051879884,11L15.000000051879884,15.7778L8.363100051879883,30L10.570000051879884,30ZM16.000000051879884,18.3647L17.69650005187988,22L14.303500051879883,22L16.000000051879884,18.3647ZM13.370000051879883,24L18.630000051879883,24L19.563300051879885,26L12.436900051879883,26L13.370000051879883,24Z" fill="#000000" fill-opacity="1"/></g><g><path d="M10.78320026397705,9.33250049041748C13.56601026397705,6.22251449041748,18.43449026397705,6.22251449041748,21.21730026397705,9.33250049041748L19.72730026397705,10.66650049041748C17.73968026397705,8.44417049041748,14.261230263977051,8.44417049041748,12.27360026397705,10.66650049041748L10.78320026397705,9.33250049041748Z" fill="#000000" fill-opacity="1"/></g><g><path d="M7.19920015335083,6.399397028808594C11.60003015335083,0.5338870288085937,20.39900015335083,0.5338870288085937,24.79980015335083,6.399397028808594L23.20000015335083,7.599997028808594C19.599600153350828,2.7995560288085937,12.398960153350831,2.7995560288085937,8.79860015335083,7.599997028808594L7.19920015335083,6.399397028808594Z" fill="#000000" fill-opacity="1"/></g><g></g></g></svg>