<svg xmlns="http://www.w3.org/2000/svg" xmlns:xlink="http://www.w3.org/1999/xlink" fill="none" version="1.1" width="32" height="32" viewBox="0 0 32 32"><defs><clipPath id="master_svg0_134_22657"><rect x="0" y="0" width="32" height="32" rx="0"/></clipPath></defs><g clip-path="url(#master_svg0_134_22657)"><g><path d="M10,17C7.79086,17,6,15.20914,6,13C6,10.79086,7.79086,9,10,9C12.20914,9,14,10.79086,14,13C13.99752,15.20811,12.20811,16.99752,10,17ZM10,11C8.895430000000001,11,8,11.895430000000001,8,13C8,14.104569999999999,8.895430000000001,15,10,15C11.104569999999999,15,12,14.104569999999999,12,13C11.998840000000001,11.89591,11.10409,11.00116,10,11Z" fill="#000000" fill-opacity="1"/></g><g><path d="M14.818781045722961,6.65C14.935081045722962,6.5289,16.68308104572296,4.731,17.706981045722962,3.7066C17.99258104572296,3.42057,18.07798104572296,2.9907120000000003,17.92328104572296,2.617269C17.76858104572296,2.243825,17.40418104572296,2.000247478,16.99998104572296,2C11.812001045722962,2,2.0000000000229616,4.2988,2.0000000000229616,13C1.9945325857229614,15.5011,3.1746910457229616,17.8568,5.181201045722961,19.35C5.020001045722962,19.5175,3.2305010457229617,21.3554,2.2930000457229616,22.2929C2.0070207157229616,22.5789,1.9214613457229615,23.009,2.0762143457229616,23.3826C2.2310360457229614,23.7563,2.595629045722961,24,3.0000010457229616,24C8.188001045722961,24,17.99998104572296,21.7012,17.99998104572296,13C18.005681045722962,10.49885,16.82548104572296,8.143049999999999,14.818781045722961,6.65ZM9.706501045722963,20.793C8.37866104572296,21.2581,7.007341045722962,21.5882,5.613301045722961,21.7783Q5.775401045722962,21.6123,8.381801045722963,18.873L7.207501045722961,18.2656C5.234361045722961,17.252000000000002,3.9955410457229616,15.2183,4.000001045722962,13C4.000001045722962,9.333,6.117701045722962,6.7114,10.29350104572296,5.207C11.62134104572296,4.74189,12.99268104572296,4.41179,14.38668104572296,4.2217Q14.159681045722962,4.4541,11.617701045722962,7.1274L12.792481045722962,7.7344C14.76548104572296,8.74821,16.004181045722962,10.78181,15.999981045722961,13C15.999981045722961,16.667,13.882281045722962,19.2886,9.706501045722963,20.793Z" fill="#000000" fill-opacity="1"/></g><g><path d="M30,17L25,12L20,17L21.412599999999998,18.4155L24,15.8325L24,19C23.994500000000002,23.9683,19.96828,27.994500000000002,15,28L12,28L12,30L15,30C21.07228,29.9931,25.9931,25.0723,26,19L26,15.8325L28.5859,18.4141L30,17Z" fill="#000000" fill-opacity="1"/></g><g></g></g></svg>