<svg xmlns="http://www.w3.org/2000/svg" xmlns:xlink="http://www.w3.org/1999/xlink" fill="none" version="1.1" width="32" height="32" viewBox="0 0 32 32"><defs><clipPath id="master_svg0_134_22688"><rect x="0" y="0" width="32" height="32" rx="0"/></clipPath></defs><g clip-path="url(#master_svg0_134_22688)"><g><path d="M30,26.00004250793457L24,26.00004250793457C19.9134,25.98584250793457,16.2436,23.49484250793457,14.7218,19.70224250793457C13.1999,15.90956250793457,14.1299,11.57285250793457,17.0732,8.737802507934571C15.7667,8.25632250793457,14.3861,8.00664250793457,12.9937,8.000002507934571C10.51521,7.97454250793457,8.213339999999999,9.27991250793457,6.9629,11.42000250793457C4.9966,14.43480250793457,4,19.34004250793457,4,26.00004250793457L2,26.00004250793457C2,18.94584250793457,3.106,13.67260250793457,5.287100000000001,10.32740250793457C6.90848,7.62208250793457,9.8398,5.97608990793457,12.9937,5.999999999934571L13.0005,5.999999999934571C15.2476,6.031884207934571,17.457700000000003,6.57638650793457,19.4624,7.59200250793457C20.1389,7.94489250793457,20.1869,8.894992507934571,19.5493,9.31420250793457C16.6223,11.280882507934571,15.3222,14.927882507934571,16.344900000000003,18.30264250793457C17.3677,21.677442507934572,20.4737,23.98904250793457,24,24.00004250793457L30,24.00004250793457L30,26.00004250793457Z" fill="#000000" fill-opacity="1"/></g><g></g></g></svg>