<svg xmlns="http://www.w3.org/2000/svg" xmlns:xlink="http://www.w3.org/1999/xlink" fill="none" version="1.1" width="32" height="32" viewBox="0 0 32 32"><defs><clipPath id="master_svg0_134_24223"><rect x="0" y="0" width="32" height="32" rx="0"/></clipPath></defs><g clip-path="url(#master_svg0_134_24223)"><g><path d="M13,23L9,23C7.895431,23,7,22.104599999999998,7,21L7,9L9,9L9,21L13,21L13,9L15,9L15,21C15,22.104599999999998,14.104569999999999,23,13,23Z" fill="#000000" fill-opacity="1"/></g><g><path d="M25,23L17,23L17,17C17,15.895430000000001,17.895431,15,19,15L23,15L23,11L17,11L17,9L23,9C24.10457,9,25,9.895431,25,11L25,15C25,16.10457,24.10457,17,23,17L19,17L19,21L25,21L25,23Z" fill="#000000" fill-opacity="1"/></g><g></g></g></svg>