<svg xmlns="http://www.w3.org/2000/svg" xmlns:xlink="http://www.w3.org/1999/xlink" fill="none" version="1.1" width="32" height="32" viewBox="0 0 32 32"><defs><clipPath id="master_svg0_134_22754"><rect x="0" y="0" width="32" height="32" rx="0"/></clipPath></defs><g clip-path="url(#master_svg0_134_22754)"><g><path d="M29.985348875808715,15.83C28.829248875808716,9.4123,23.499448875808717,4.5758399999999995,17.000048875808716,4.0464L17.000048875808716,2L15.000048875808716,2L15.000048875808716,4.0464C8.500518875808716,4.57583,3.1707788758087156,9.4123,2.014600075808716,15.83C1.9483868758087157,16.2143,2.111654875808716,16.6021,2.4328388758087156,16.8233C2.754021875808716,17.044600000000003,3.1745188758087157,17.0589,3.5099988758087157,16.86C4.244878875808716,16.3493,5.106608875808716,16.0517,5.999998875808716,16C7.7282388758087155,16.041800000000002,9.304468875808716,16.9976,10.140598875808715,18.5107C10.553038875808715,19.1172,11.446958875808717,19.1172,11.859398875808715,18.5107C12.537048875808717,17.3205,13.671548875808716,16.4589,15.000048875808716,16.125500000000002L15.000048875808716,25.5C15.000048875808716,26.8807,13.880748875808715,28,12.500048875808716,28C11.119288875808715,28,9.999998875808716,26.8807,9.999998875808716,25.5L9.999998875808716,25L7.999998875808716,25L7.999998875808716,25.5C7.999998875808716,27.9853,10.014718875808716,30,12.500048875808716,30C14.985248875808717,30,17.000048875808716,27.9853,17.000048875808716,25.5L17.000048875808716,16.125500000000002C18.328448875808714,16.4589,19.462948875808717,17.3205,20.140648875808715,18.5107C20.527848875808715,19.1631,21.472148875808717,19.1631,21.859448875808717,18.5107C22.695548875808715,16.9976,24.271748875808715,16.041800000000002,26.000048875808716,16C26.893348875808716,16.0517,27.755148875808715,16.3493,28.490048875808714,16.86C28.825548875808717,17.0591,29.246148875808714,17.044800000000002,29.567448875808715,16.8236C29.888748875808716,16.6023,30.052048875808715,16.214399999999998,29.985348875808715,15.83L29.985348875808715,15.83ZM5.999998875808716,14C5.4913288758087155,14.0001,4.985198875808716,14.0719,4.496598875808716,14.2134C5.874088875808716,10.3748,9.045458875808716,7.45507,12.984648875808716,6.3989C11.002468875808717,8.95449,9.930568875808715,12.0988,9.938998875808716,15.333C8.805858875808717,14.4722,7.423008875808716,14.0042,5.999998875808716,14ZM16.000048875808716,14C14.525448875808715,14.0069,13.096248875808715,14.511,11.943598875808716,15.4307C11.981398875808717,13.2107,12.552548875808716,8.9407,15.999948875808716,6.2544C19.430748875808717,8.9312,20.008948875808716,13.2031,20.052348875808715,15.4272C18.900348875808717,14.5096,17.472848875808715,14.0068,16.000048875808716,14ZM26.000048875808716,14C24.576948875808714,14.0042,23.194148875808715,14.4722,22.061048875808716,15.333C22.069348875808714,12.0988,20.997448875808715,8.954509999999999,19.015448875808715,6.3989C22.954548875808715,7.45507,26.125948875808717,10.3748,27.503348875808715,14.2134C27.014248875808715,14.0718,26.508148875808715,14,26.000048875808716,14Z" fill="#000000" fill-opacity="1"/></g><g></g></g></svg>