<svg xmlns="http://www.w3.org/2000/svg" xmlns:xlink="http://www.w3.org/1999/xlink" fill="none" version="1.1" width="32" height="32" viewBox="0 0 32 32"><defs><clipPath id="master_svg0_134_22806"><rect x="0" y="0" width="32" height="32" rx="0"/></clipPath></defs><g clip-path="url(#master_svg0_134_22806)"><g><path d="M24,14L12,14L12,8C12,5.79086,13.79086,4,16,4C18.2091,4,20,5.79086,20,8L22,8C22,4.68629,19.3137,2,16,2C12.68629,2,10,4.68629,10,8L10,14L8,14C6.895431,14,6,14.8954,6,16L6,28C6,29.1046,6.895431,30,8,30L24,30C25.1046,30,26,29.1046,26,28L26,16C26,14.8954,25.1046,14,24,14ZM24,28L8,28L8,16L24,16L24,28Z" fill="#000000" fill-opacity="1"/></g><g></g></g></svg>