<svg xmlns="http://www.w3.org/2000/svg" xmlns:xlink="http://www.w3.org/1999/xlink" fill="none" version="1.1" width="32" height="32" viewBox="0 0 32 32"><defs><clipPath id="master_svg0_134_23057"><rect x="0" y="0" width="32" height="32" rx="0"/></clipPath></defs><g clip-path="url(#master_svg0_134_23057)"><g></g><g><path d="M31,3L17,3C16.447716,3,16,3.447715,16,4L16,17C16,17.552300000000002,16.447716,18,17,18L31,18C31.552300000000002,18,32,17.552300000000002,32,17L32,4C32,3.447715,31.552300000000002,3,31,3ZM28,9L25,9L25,12L28,12L28,14L25,14L25,16L23,16L23,14L20,14L20,12L23,12L23,9L20,9L20,7L23,7L23,5L25,5L25,7L28,7L28,9Z" fill="#000000" fill-opacity="1"/></g><g><path d="M14.999953773212432,30.00000395202637L12.999953773212432,30.00000395202637L12.999953773212432,26.00000395202637C13.030553773212432,24.330633952026368,11.669353773212434,22.96940395202637,10.000003773212432,23.00000395202637L6.000003773212433,23.00000395202637C4.330633773212433,22.96940395202637,2.9694037732124325,24.330633952026368,3.0000037732124327,26.00000395202637L3.0000037732124327,30.00000395202637L1.000000000212433,30.00000395202637L1.000000000212433,26.00000395202637C0.9726495732124328,23.227323952026367,3.227323773212433,20.97264865202637,6.000003773212433,21.00000000002637L10.000003773212432,21.00000000002637C12.772653773212433,20.972650552026366,15.027353773212432,23.227323952026367,14.999953773212432,26.00000395202637L14.999953773212432,30.00000395202637Z" fill="#000000" fill-opacity="1"/></g><g><path d="M7.999996150512695,11C9.656856150512695,11,10.999996150512695,12.34315,10.999996150512695,14C10.999996150512695,15.65685,9.656856150512695,17,7.999996150512695,17C6.343146150512695,17,4.999996150512695,15.65685,4.999996150512695,14C4.999996150512695,12.34315,6.343146150512695,11,7.999996150512695,11ZM7.999996150512695,9C5.239246150512695,9.000952721,3.0017261505126953,11.23925,3.0017261505126953,14C3.001725912093695,16.76075,5.239246150512695,18.99905,7.999996150512695,19C10.760746150512695,18.99905,12.998276150512694,16.76075,12.998276150512694,14C12.998276150512694,11.23925,10.760746150512695,9.000952721,7.999996150512695,9Z" fill="#000000" fill-opacity="1"/></g><g></g></g></svg>