<svg xmlns="http://www.w3.org/2000/svg" xmlns:xlink="http://www.w3.org/1999/xlink" fill="none" version="1.1" width="32" height="32" viewBox="0 0 32 32"><defs><clipPath id="master_svg0_134_22898"><rect x="0" y="0" width="32" height="32" rx="0"/></clipPath></defs><g clip-path="url(#master_svg0_134_22898)"><g></g><g><path d="M26.748892370605468,24.930040361213685C32.94669237060547,17.471140361213685,29.85949237060547,6.122150361213684,20.73739237060547,2.830671361213684C11.615232370605469,-0.460799638786316,1.9927669806054686,6.302240361213684,1.9999999999954687,16.000040361213685C2.000782251605469,19.266240361213683,3.1518123706054686,22.427840361213683,5.251102370605469,24.930040361213685L5.231102370605469,24.946640361213685C5.301102370605468,25.031140361213684,5.381102370605468,25.103340361213686,5.453302370605469,25.185840361213685C5.543302370605469,25.289440361213686,5.639702370605469,25.385840361213685,5.733302370605468,25.486640361213684C6.0133023706054685,25.789940361213684,6.300702370605468,26.081840361213683,6.603302370605468,26.356640361213685C6.694802370605469,26.439740361213683,6.789702370605469,26.517840361213683,6.883302370605469,26.598340361213683C7.203302370605469,26.874240361213683,7.531702370605469,27.135540361213685,7.873302370605469,27.379640361213685C7.917402370605469,27.410840361213683,7.9565023706054685,27.448940361213683,8.00090237060547,27.480240361213685L8.00090237060547,27.467540361213683C12.799692370605468,30.844440361213685,19.20209237060547,30.844440361213685,24.00089237060547,27.467540361213683L24.00089237060547,27.480040361213685C24.04529237060547,27.448740361213684,24.084392370605467,27.410640361213684,24.128492370605468,27.379440361213685C24.46969237060547,27.135340361213682,24.79849237060547,26.874040361213684,25.11849237060547,26.598140361213684C25.21209237060547,26.518140361213685,25.306992370605467,26.439540361213684,25.398492370605467,26.356440361213686C25.70099237060547,26.081540361213683,25.988492370605467,25.789640361213685,26.26849237060547,25.486440361213685C26.361792370605468,25.385840361213685,26.457892370605467,25.289240361213682,26.54849237060547,25.185640361213682C26.62039237060547,25.103140361213683,26.70069237060547,25.030940361213684,26.77069237060547,24.946440361213686L26.748892370605468,24.930040361213685ZM15.999992370605469,8.000000361213683C18.485292370605467,8.000000361213683,20.49999237060547,10.014720361213683,20.49999237060547,12.500040361213683C20.49999237060547,14.985240361213684,18.485292370605467,17.000040361213685,15.999992370605469,17.000040361213685C13.514692370605468,17.000040361213685,11.500002370605468,14.985240361213684,11.500002370605468,12.500040361213683C11.500002370605468,10.014720361213683,13.514692370605468,8.000000361213683,15.999992370605469,8.000000361213683ZM8.00710237060547,24.930040361213685C8.04303237060547,22.197740361213683,10.267492370605469,20.001340361213686,12.999992370605469,20.000040361213685L18.99999237060547,20.000040361213685C21.73249237060547,20.001340361213686,23.95689237060547,22.197740361213683,23.992892370605468,24.930040361213685C19.450392370605467,29.023340361213684,12.549592370605469,29.023340361213684,8.00710237060547,24.930040361213685Z" fill="#000000" fill-opacity="1"/></g><g></g></g></svg>