<svg xmlns="http://www.w3.org/2000/svg" xmlns:xlink="http://www.w3.org/1999/xlink" fill="none" version="1.1" width="32" height="32" viewBox="0 0 32 32"><defs><clipPath id="master_svg0_134_22865"><rect x="0" y="0" width="32" height="32" rx="0"/></clipPath></defs><g clip-path="url(#master_svg0_134_22865)"><g><path d="M16,4C18.76142,4,21,6.23858,21,9C21,11.76142,18.76142,14,16,14C13.238579999999999,14,11,11.76142,11,9C11,6.23858,13.238579999999999,4,16,4ZM16,2C12.13401,2,9,5.13401,9,9C9,12.866,12.13401,16,16,16C19.866,16,23,12.866,23,9C23,5.13401,19.866,2,16,2Z" fill="#000000" fill-opacity="1"/></g><g><path d="M26,30L24,30L24,25C24,22.23858,21.761400000000002,20,19,20L13,20C10.238579999999999,20,8,22.23858,8,25L8,30L6,30L6,25C6,21.13401,9.13401,18,13,18L19,18C22.866,18,26,21.13401,26,25L26,30Z" fill="#000000" fill-opacity="1"/></g><g></g></g></svg>