<svg xmlns="http://www.w3.org/2000/svg" xmlns:xlink="http://www.w3.org/1999/xlink" fill="none" version="1.1" width="32" height="32" viewBox="0 0 32 32"><defs><clipPath id="master_svg0_134_22933"><rect x="0" y="0" width="32" height="32" rx="0"/></clipPath></defs><g clip-path="url(#master_svg0_134_22933)"><g><path d="M28.76631335144043,4.255803979263305C27.20511335144043,2.6695129792633057,24.67933335144043,2.5715249792633057,23.00000335144043,4.032103979263306C21.32066335144043,2.571525979263306,18.79483335144043,2.669513979263306,17.23370335144043,4.255803979263305C15.58878435144043,5.934983979263306,15.58878435144043,8.621313979263306,17.23370335144043,10.300503979263306L22.99800335144043,16.139993979263306L23.00000335144043,16.137593979263308L23.00200335144043,16.139493979263307L28.76631335144043,10.300503979263306C30.41121335144043,8.621313979263306,30.41121335144043,5.934983979263306,28.76631335144043,4.255803979263305ZM27.34201335144043,8.894803979263305L23.00200335144043,13.292093979263306L23.00000335144043,13.289993979263306L22.99800335144043,13.291993979263305L18.658003351440428,8.894703979263305C17.77688335144043,7.996823979263306,17.77688335144043,6.5587739792633055,18.658003351440428,5.660903979263306C19.536653351440428,4.806723979263306,20.93544335144043,4.806723979263306,21.81410335144043,5.660903979263306L22.99509335144043,6.868303979263306L23.00000335144043,6.863403979263305L23.00490335144043,6.868403979263306L24.18590335144043,5.661003979263306C25.06455335144043,4.806823979263306,26.46331335144043,4.806823979263306,27.34201335144043,5.661003979263306C28.223113351440432,6.558873979263305,28.223113351440432,7.996923979263306,27.34201335144043,8.894803979263305Z" fill="#000000" fill-opacity="1"/></g><g><path d="M16,30L14,30L14,25C13.9982,23.3439,12.6561,22.00182,11,22L7,22C5.3439,22.00182,4.00182,23.3439,4,25L4,30L2,30L2,25C2.00325084,22.23993,4.23992,20.00325203,7,20L11,20C13.7601,20.00325012,15.9967,22.23992,16,25L16,30Z" fill="#000000" fill-opacity="1"/></g><g><path d="M9,10C10.65685,10,12,11.34315,12,13C12,14.65685,10.65685,16,9,16C7.34315,16,6,14.65685,6,13C6,11.34315,7.34315,10,9,10ZM9,8C6.23858,8,4,10.238579999999999,4,13C4,15.761420000000001,6.23858,18,9,18C11.761420000000001,18,14,15.761420000000001,14,13C14,10.238579999999999,11.761420000000001,8,9,8Z" fill="#000000" fill-opacity="1"/></g><g></g></g></svg>