<svg xmlns="http://www.w3.org/2000/svg" xmlns:xlink="http://www.w3.org/1999/xlink" fill="none" version="1.1" width="32" height="32" viewBox="0 0 32 32"><defs><clipPath id="master_svg0_134_22892"><rect x="0" y="0" width="32" height="32" rx="0"/></clipPath></defs><g clip-path="url(#master_svg0_134_22892)"><g><path d="M16,8C13.238579999999999,8,11,10.238579999999999,11,13C11,15.761420000000001,13.238579999999999,18,16,18C18.76142,18,21,15.761420000000001,21,13C21,10.238579999999999,18.76142,8,16,8ZM16,16C14.34315,16,13,14.65685,13,13C13,11.34315,14.34315,10,16,10C17.65685,10,19,11.34315,19,13C18.99813,14.65608,17.65608,15.99813,16,16Z" fill="#000000" fill-opacity="1"/></g><g><path d="M16,2C8.26801,2,2,8.26801,2,16C2,23.732,8.26801,30,16,30C23.732,30,30,23.732,30,16C29.9913,8.27162,23.7284,2.00870943,16,2ZM10,26.3765L10,25C10.00182,23.3439,11.3439,22.0018,13,22L19,22C20.6561,22.0018,21.9982,23.3439,22,25L22,26.3765C18.2929,28.5412,13.7071,28.5412,10,26.3765ZM23.9925,24.9258C23.9511,22.1967,21.7294,20.0047,19,20L13,20C10.27057,20.0047,8.048860000000001,22.1967,8.0075,24.9258C2.931807,20.3936,2.636265,12.5523,7.3564,7.65087C12.0765,2.749479,19.9235,2.749478,24.6436,7.65087C29.3637,12.5523,29.0682,20.3936,23.9925,24.9258Z" fill="#000000" fill-opacity="1"/></g><g></g></g></svg>