<svg xmlns="http://www.w3.org/2000/svg" xmlns:xlink="http://www.w3.org/1999/xlink" fill="none" version="1.1" width="32" height="32" viewBox="0 0 32 32"><defs><clipPath id="master_svg0_134_23065"><rect x="0" y="0" width="32" height="32" rx="0"/></clipPath></defs><g clip-path="url(#master_svg0_134_23065)"><g><path d="M16,5.912100000000001L17.7444,8.8447L18.5266,10.1597L20.0005,9.748999999999999L23.1211,8.879L22.2512,12L21.84,13.4731L23.155,14.2554L26.0876,16L23.1553,17.7441L21.8403,18.5259L22.2512,20L23.1212,23.1211L20.0004,22.2511L18.5266,21.84L17.7444,23.155L16,26.0879L14.2556,23.1553L13.4734,21.8403L12,22.251L8.8792,23.121L9.7488,20L10.1597,18.5259L8.8447,17.7441L5.9124,16L8.8447,14.2554L10.1597,13.4731L9.7488,12L8.8788,8.8794L12,9.748999999999999L13.4739,10.1597L14.2561,8.8447L16,5.912100000000001ZM16,2L12.5366,7.8223L6,6L7.8223,12.5366L2,16L7.8223,19.4629L6,26L12.5366,24.1777L16,30L19.4634,24.1777L26,26L24.1777,19.4629L30,16L24.1777,12.5366L26,6L19.4634,7.8223L16,2Z" fill="#000000" fill-opacity="1"/></g><g></g></g></svg>