<svg xmlns="http://www.w3.org/2000/svg" xmlns:xlink="http://www.w3.org/1999/xlink" fill="none" version="1.1" width="32" height="32" viewBox="0 0 32 32"><defs><clipPath id="master_svg0_134_23143"><rect x="0" y="0" width="32" height="32" rx="0"/></clipPath></defs><g clip-path="url(#master_svg0_134_23143)"><g><path d="M29.337898807907106,17.933604277954103L21.605498807907104,15.155294277954102L18.373998807907103,11.096704277954101C17.804798807907105,10.400910277954102,16.952698807907105,9.9981670379541,16.053698807907104,10.000000000004102L8.057598807907105,10.000000000004102C7.064778807907104,9.9995899199541,6.136128807907104,10.490684277954102,5.577598807907105,11.311504277954102L2.8661998079071047,15.294904277954101C2.3012088079071047,16.1239642779541,1.9993362429071044,17.1041242779541,1.9999999999971045,18.107404277954103L1.9999999999971045,25.9999942779541C1.9999999999971045,26.5522942779541,2.4477148079071043,26.9999942779541,2.9999988079071045,26.9999942779541L5.142098807907105,26.9999942779541C5.590668807907104,28.764594277954103,7.179298807907104,29.999894277954102,8.999998807907104,29.999894277954102C10.820698807907105,29.999894277954102,12.409298807907104,28.764594277954103,12.857898807907105,26.9999942779541L19.142098807907104,26.9999942779541C19.590698807907103,28.764594277954103,21.179298807907106,29.999894277954102,22.999998807907104,29.999894277954102C24.820698807907103,29.999894277954102,26.409298807907106,28.764594277954103,26.857898807907105,26.9999942779541L28.999998807907104,26.9999942779541C29.552298807907103,26.9999942779541,29.999998807907104,26.5522942779541,29.999998807907104,25.9999942779541L29.999998807907104,18.8750042779541C30.000098807907104,18.4529142779541,29.735198807907103,18.076224277954104,29.337898807907106,17.933604277954103ZM8.999998807907104,27.9999942779541C7.895428807907105,27.9999942779541,6.9999988079071045,27.104594277954103,6.9999988079071045,25.9999942779541C6.9999988079071045,24.895394277954104,7.895428807907105,23.9999942779541,8.999998807907104,23.9999942779541C10.104568807907105,23.9999942779541,10.999998807907104,24.895394277954104,10.999998807907104,25.9999942779541C10.998508807907104,27.1039942779541,10.103948807907104,27.9984942779541,8.999998807907104,27.9999942779541ZM22.999998807907104,27.9999942779541C21.895398807907103,27.9999942779541,20.999998807907104,27.104594277954103,20.999998807907104,25.9999942779541C20.999998807907104,24.895394277954104,21.895398807907103,23.9999942779541,22.999998807907104,23.9999942779541C24.104598807907106,23.9999942779541,24.999998807907104,24.895394277954104,24.999998807907104,25.9999942779541C24.998598807907104,27.1039942779541,24.103998807907104,27.9985942779541,22.999998807907104,27.9999942779541ZM27.999998807907104,24.9999942779541L26.857898807907105,24.9999942779541C26.409298807907106,23.2353942779541,24.820698807907103,22.0000942779541,22.999998807907104,22.0000942779541C21.179298807907106,22.0000942779541,19.590698807907103,23.2353942779541,19.142098807907104,24.9999942779541L12.857898807907105,24.9999942779541C12.409298807907104,23.2353942779541,10.820698807907105,22.0000942779541,8.999998807907104,22.0000942779541C7.179298807907104,22.0000942779541,5.590668807907104,23.2353942779541,5.142098807907105,24.9999942779541L3.9999988079071045,24.9999942779541L3.9999988079071045,18.107404277954103C3.9997688079071043,17.505104277954104,4.180978807907104,16.9167142779541,4.519998807907104,16.418904277954102L7.230998807907104,12.437504277954101C7.416918807907105,12.163834277954102,7.726468807907104,11.999994277954102,8.057598807907105,12.000004277954101L16.053698807907104,12.000004277954101C16.348598807907102,11.998724277954102,16.628798807907103,12.128624277954101,16.818398807907105,12.354504277954101L20.217798807907105,16.622994277954103C20.333498807907105,16.7683042779541,20.487298807907106,16.878554277954102,20.662098807907103,16.941394277954103L27.999998807907104,19.578104277954104L27.999998807907104,24.9999942779541Z" fill="#000000" fill-opacity="1"/></g><g><path d="M24.5547,5.999995095825195C24.5547,4.895435095825196,25.45013,3.9999950958251955,26.5547,3.9999950958251955L30,3.9999950958251955C29.194699999999997,2.5936860958251953,27.6164,1.8169460958251953,26.0108,2.036770295825195C24.405160000000002,2.2565940958251955,23.09369,3.428975095825195,22.695999999999998,4.999995095825195L16,4.999995095825195L16,6.999995095825195L22.695999999999998,6.999995095825195C23.09369,8.571025095825195,24.405160000000002,9.743405095825196,26.0108,9.963235095825194C27.6164,10.183055095825196,29.194699999999997,9.406315095825196,30,7.999995095825195L26.5547,7.999995095825195C25.45013,7.999995095825195,24.5547,7.104565095825195,24.5547,5.999995095825195Z" fill="#000000" fill-opacity="1"/></g><g></g></g></svg>