<svg xmlns="http://www.w3.org/2000/svg" xmlns:xlink="http://www.w3.org/1999/xlink" fill="none" version="1.1" width="32" height="32" viewBox="0 0 32 32"><defs><clipPath id="master_svg0_134_23212"><rect x="0" y="0" width="32" height="32" rx="0"/></clipPath></defs><g clip-path="url(#master_svg0_134_23212)"><g><path d="M20.31000904197693,6L3.999999041976929,6C2.895431041976929,6,2.000000001976929,6.895431,2.000000001976929,8L2.000000001976929,24C1.9950786819769286,24.0966,1.9950786819769286,24.1934,2.000000001976929,24.29L20.31000904197693,6Z" fill="#000000" fill-opacity="1"/></g><g><path d="M29.46,8.11C29.1364,7.95544,28.7549,7.98597,28.46,8.190000000000001L23,12.06L23,10.44L30,3.44L28.56,2L2,28.56L3.44,30L7.44,26L21,26C22.1046,26,23,25.1046,23,24L23,19.94L28.42,23.81C28.7242,24.0266,29.1239,24.0557,29.4562,23.8853C29.7886,23.7149,29.9983,23.3735,30,23L30,9C30.0008,8.62564,29.7924,8.2822,29.46,8.11Z" fill="#000000" fill-opacity="1"/></g><g></g></g></svg>