<svg xmlns="http://www.w3.org/2000/svg" xmlns:xlink="http://www.w3.org/1999/xlink" fill="none" version="1.1" width="32" height="32" viewBox="0 0 32 32"><defs><clipPath id="master_svg0_134_23264"><rect x="0" y="0" width="32" height="32" rx="0"/></clipPath></defs><g clip-path="url(#master_svg0_134_23264)"><g><path d="M30.94,15.66C29.7977,12.6708,27.8059,10.08113,25.21,8.21L30,3.41L28.59,2L2,28.59L3.41,30L8.51,24.91C10.78643,26.2367,13.3655,26.9564,16,27C22.6621,26.7495,28.536,22.5583,30.94,16.34C31.0194,16.1203,31.0194,15.8797,30.94,15.66ZM16,22.5C14.6216,22.4994,13.2795,22.0579,12.17,21.24L14,19.43C15.5586,20.284,17.4938,20.0072,18.7505,18.7505C20.0072,17.4938,20.284,15.5586,19.43,14L21.24,12.19C22.6765,14.1629,22.8847,16.774900000000002,21.7789,18.9505C20.6732,21.1261,18.4405,22.4975,16,22.5Z" fill="#000000" fill-opacity="1"/></g><g><path d="M4.529995219535827,21.81L9.530005219535827,16.810000000000002C9.503995219535827,16.5408,9.493975219535828,16.270400000000002,9.499995219535828,16C9.505505219535827,12.41243,12.412425219535828,9.505510000000001,16.00002521953583,9.5C16.264125219535828,9.5014,16.527825219535828,9.5181,16.790025219535828,9.55L20.57002521953583,5.78C19.09882521953583,5.274707,17.555525219535827,5.0112886,16.00002521953583,5C9.337905219535827,5.250529,3.4639652195358277,9.4417,1.0599999195358276,15.66C0.9805670195358276,15.8797,0.9805670195358276,16.1203,1.0599999195358276,16.34C1.8280272195358276,18.3826,3.0093252195358278,20.244799999999998,4.529995219535827,21.81Z" fill="#000000" fill-opacity="1"/></g><g></g></g></svg>