<svg xmlns="http://www.w3.org/2000/svg" xmlns:xlink="http://www.w3.org/1999/xlink" fill="none" version="1.1" width="32" height="32" viewBox="0 0 32 32"><defs><clipPath id="master_svg0_134_23236"><rect x="0" y="0" width="32" height="32" rx="0"/></clipPath></defs><g clip-path="url(#master_svg0_134_23236)"><g><rect x="4" y="26" width="24" height="2" rx="0" fill="#000000" fill-opacity="1"/></g><g><rect x="4" y="19" width="24" height="2" rx="0" fill="#000000" fill-opacity="1"/></g><g><path d="M26,6L26,12L6,12L6,6L26,6ZM26,4L6,4C4.895431,4,4,4.895431,4,6L4,12C4,13.10457,4.895431,14,6,14L26,14C27.1046,14,28,13.10457,28,12L28,6C28,4.895431,27.1046,4,26,4Z" fill="#000000" fill-opacity="1"/></g><g></g></g></svg>