<svg xmlns="http://www.w3.org/2000/svg" xmlns:xlink="http://www.w3.org/1999/xlink" fill="none" version="1.1" width="32" height="32" viewBox="0 0 32 32"><defs><clipPath id="master_svg0_134_23230"><rect x="0" y="0" width="32" height="32" rx="0"/></clipPath></defs><g clip-path="url(#master_svg0_134_23230)"><g><ellipse cx="16" cy="16" rx="4" ry="4" fill="#000000" fill-opacity="1"/></g><g><path d="M30.940025219535826,15.66C28.536025219535826,9.4417,22.662125219535827,5.250527,16.00002521953583,5C9.337905219535827,5.250529,3.4639652195358277,9.4417,1.0599999195358276,15.66C0.9805670195358276,15.8797,0.9805670195358276,16.1203,1.0599999195358276,16.34C3.4639652195358277,22.5583,9.337905219535827,26.7495,16.00002521953583,27C22.662125219535827,26.7495,28.536025219535826,22.5583,30.940025219535826,16.34C31.019425219535826,16.1203,31.019425219535826,15.8797,30.940025219535826,15.66ZM16.00002521953583,22.5C12.410125219535828,22.5,9.500005219535828,19.5899,9.500005219535828,16C9.500005219535828,12.41015,12.410125219535828,9.5,16.00002521953583,9.5C19.58982521953583,9.5,22.50002521953583,12.41015,22.50002521953583,16C22.494525219535827,19.587600000000002,19.587525219535827,22.4945,16.00002521953583,22.5Z" fill="#000000" fill-opacity="1"/></g><g></g></g></svg>