<svg xmlns="http://www.w3.org/2000/svg" xmlns:xlink="http://www.w3.org/1999/xlink" fill="none" version="1.1" width="32" height="32" viewBox="0 0 32 32"><defs><clipPath id="master_svg0_134_23278"><rect x="0" y="0" width="32" height="32" rx="0"/></clipPath></defs><g clip-path="url(#master_svg0_134_23278)"><g><ellipse cx="24.5" cy="9.5" rx="1.5" ry="1.5" fill="#000000" fill-opacity="1"/></g><g><path d="M17.4143,22L12,22L12,16.5857L18.03,10.5557C18.01037,10.37111,18.00036,10.18563,18,10C18,6.68629,20.68629,4,24,4C27.3137,4,30,6.68629,30,10C30,13.31371,27.3137,16,24,16C23.8143,15.9996,23.6288,15.9896,23.4441,15.97L17.4143,22ZM14,20L16.5857,20L22.7563,13.8291L23.273699999999998,13.9248C23.512900000000002,13.97232,23.7561,13.9975,24,14C26.3461,14.0292,28.2262,12.06518,28.0947,9.72255C27.9632,7.379910000000001,25.8751,5.6387,23.5469,5.93032C21.2188,6.22195,19.62465,8.4244,20.075,10.7271L20.1702,11.2437L14,17.4143L14,20Z" fill="#000000" fill-opacity="1"/></g><g><path d="M28,18L28,26L10,26L10,6L14,6L14,4L4,4C2.896001,4.00137711,2.00137711,4.896001,2,6L2,26C2.00137806,27.104,2.896002,27.9986,4,28L28,28C29.104,27.9986,29.9986,27.104,30,26L30,18L28,18ZM4,6L8,6L8,26L4,26L4,6Z" fill="#000000" fill-opacity="1"/></g><g></g></g></svg>