<svg xmlns="http://www.w3.org/2000/svg" xmlns:xlink="http://www.w3.org/1999/xlink" fill="none" version="1.1" width="32" height="32" viewBox="0 0 32 32"><defs><clipPath id="master_svg0_134_23270"><rect x="0" y="0" width="32" height="32" rx="0"/></clipPath></defs><g clip-path="url(#master_svg0_134_23270)"><g><path d="M25,11L26.414,12.414L23.828,15L30,15L30,17L23.828,17L26.414,19.586L25,21L20,16L25,11Z" fill="#000000" fill-opacity="1"/></g><g><path d="M30,28L20,28C18.895955999999998,27.9987,18.00126839,27.104,18,26L18,6C18.00126839,4.895956,18.895955999999998,4.00126839,20,4L30,4L30,6L20,6L20,26L30,26L30,28Z" fill="#000000" fill-opacity="1"/></g><g><path d="M12,28L2,28L2,26L12,26L12,6L2,6L2,4L12,4C13.104,4.00126696,13.9987,4.895956,14,6L14,26C13.9987,27.104,13.104,27.9987,12,28Z" fill="#000000" fill-opacity="1"/></g><g><path d="M7,11L5.586,12.414L8.172,15L2,15L2,17L8.172,17L5.586,19.586L7,21L12,16L7,11Z" fill="#000000" fill-opacity="1"/></g><g></g></g></svg>