<svg xmlns="http://www.w3.org/2000/svg" xmlns:xlink="http://www.w3.org/1999/xlink" fill="none" version="1.1" width="32" height="32" viewBox="0 0 32 32"><defs><clipPath id="master_svg0_134_23337"><rect x="0" y="0" width="32" height="32" rx="0"/></clipPath></defs><g clip-path="url(#master_svg0_134_23337)"><g><path d="M25.99995763092041,30L23.99995763092041,30L23.99995763092041,27L19.99999763092041,27C17.23982763092041,26.997,15.00302763092041,24.7602,14.99999763092041,22L14.99999763092041,20.7207L12.68379963092041,19.9487C12.07696153092041,19.7464,11.81351563092041,19.0341,12.14259963092041,18.4856L14.99999763092041,13.7229L14.99999763092041,11C15.00550763092041,6.03172,19.03171763092041,2.00550938,23.99995763092041,2L28.99995763092041,2L28.99995763092041,4L23.99995763092041,4C20.13578763092041,4.004300000000001,17.004297630920412,7.13579,16.99999763092041,11L16.99999763092041,14C16.99999763092041,14.1812,16.950707630920412,14.359,16.85739763092041,14.5144L14.49879763092041,18.4456L16.31619763092041,19.0513C16.72455763092041,19.1874,16.99999763092041,19.5696,16.99999763092041,20L16.99999763092041,22C17.00181763092041,23.6561,18.34389763092041,24.9982,19.99999763092041,25L24.99995763092041,25C25.55225763092041,25,25.99995763092041,25.4477,25.99995763092041,26L25.99995763092041,30Z" fill="#000000" fill-opacity="1"/></g><g><rect x="19" y="12" width="4" height="2" rx="0" fill="#000000" fill-opacity="1"/></g><g><path d="M9.33250049041748,25.216800538635255C6.22251449041748,22.433990538635253,6.22251449041748,17.565510538635255,9.33250049041748,14.782700538635254L10.66650049041748,16.272700538635252C8.44417049041748,18.260330538635255,8.44417049041748,21.738780538635254,10.66650049041748,23.726400538635254L9.33250049041748,25.216800538635255Z" fill="#000000" fill-opacity="1"/></g><g><path d="M6.399396551971436,28.8008010345459C0.5338865519714355,24.400001034545898,0.5338865519714355,15.601031034545898,6.399396551971436,11.200201034545898L7.599996551971436,12.800001034545899C2.7995535519714356,16.4003610345459,2.7995535519714356,23.6010010345459,7.599996551971436,27.2014010345459L6.399396551971436,28.8008010345459Z" fill="#000000" fill-opacity="1"/></g><g></g></g></svg>