<svg xmlns="http://www.w3.org/2000/svg" xmlns:xlink="http://www.w3.org/1999/xlink" fill="none" version="1.1" width="32" height="32" viewBox="0 0 32 32"><defs><clipPath id="master_svg0_134_23420"><rect x="0" y="0" width="32" height="32" rx="0"/></clipPath></defs><g clip-path="url(#master_svg0_134_23420)"><g><path d="M27.159998245239258,8.079999923706055L25.629999245239258,9.369999923706054C28.88228824523926,13.222539923706055,28.757978245239258,18.893699923706055,25.339998245239258,22.599999923706054L26.809998245239257,23.999999923706056C30.91449824523926,19.552299923706055,31.064558245239258,12.744219923706055,27.159998245239258,8.119999923706054L27.159998245239258,8.079999923706055Z" fill="#000000" fill-opacity="1"/></g><g><path d="M21.579999618530273,12.000000991821288C23.530889618530274,14.313350991821288,23.453719618530272,17.71743099182129,21.399999618530273,19.94000099182129L22.869999618530272,21.30000099182129C25.607309618530273,18.33352099182129,25.705929618530273,13.79253099182129,23.099999618530273,10.710000991821289L21.579999618530273,12.000000991821288Z" fill="#000000" fill-opacity="1"/></g><g><path d="M18,30.000007725524902C17.732799999999997,29.9989077255249,17.4771,29.8908077255249,17.29,29.7000077255249L9.67,22.000007725524902L3,22.000007725524902C2.447715,22.000007725524902,2,21.5523077255249,2,21.000007725524902L2,10.999997725524903C2,10.447717725524903,2.447715,9.999997725524903,3,9.999997725524903L9.67,9.999997725524903L17.29,2.2999997255249025C17.68,1.9122767255249022,18.31,1.9122767255249022,18.7,2.2999997255249025C18.8884,2.4846307255249025,18.9962,2.7362307255249023,19,2.9999997255249022L19,29.000007725524902C19,29.5523077255249,18.5523,30.000007725524902,18,30.000007725524902Z" fill="#000000" fill-opacity="1"/></g><g></g></g></svg>