<svg xmlns="http://www.w3.org/2000/svg" xmlns:xlink="http://www.w3.org/1999/xlink" fill="none" version="1.1" width="32" height="32" viewBox="0 0 32 32"><defs><clipPath id="master_svg0_134_23383"><rect x="0" y="0" width="32" height="32" rx="0"/></clipPath></defs><g clip-path="url(#master_svg0_134_23383)"><g><path d="M25.707,17.293L20.707,12.292999C20.519370000000002,12.105393,20.26506,12,20,12L14,12C12.895431,12,12,12.895431,12,14L12,28C12,29.1046,12.895431,30,14,30L24,30C25.104599999999998,30,26,29.1046,26,28L26,18C25.9999,17.73481,25.8946,17.48049,25.707,17.293ZM23.5857,18L20,18L20,14.4141L23.5857,18ZM14,28L14,14L18,14L18,18C18,19.10457,18.89543,20,20,20L24,20L24,28L14,28Z" fill="#000000" fill-opacity="1"/></g><g><path d="M8,26.99999213218689L4,26.99999213218689C2.895956,26.99869213218689,2.00126743,26.10409213218689,2,24.99999213218689L2,5.000002132186889C2.00126719,3.89595613218689,2.895956,3.00126719218689,4,2.9999999999968896L11.5857,2.9999999999968896C12.1165,2.9985125021868897,12.6258,3.20949813218689,13,3.5859001321868895L16.4143,7.000002132186889L28,7.000002132186889C29.104,7.00127213218689,29.9987,7.895952132186889,30,9.00000213218689L30,16.99999213218689L28,16.99999213218689L28,9.00000213218689L15.5857,9.00000213218689L11.5857,5.000002132186889L4,5.000002132186889L4,24.99999213218689L8,24.99999213218689L8,26.99999213218689Z" fill="#000000" fill-opacity="1"/></g><g></g></g></svg>