<svg xmlns="http://www.w3.org/2000/svg" xmlns:xlink="http://www.w3.org/1999/xlink" fill="none" version="1.1" width="32" height="32" viewBox="0 0 32 32"><defs><clipPath id="master_svg0_134_23350"><rect x="0" y="0" width="32" height="32" rx="0"/></clipPath></defs><g clip-path="url(#master_svg0_134_23350)"><g><path d="M17,21L10,21L10,14L17,14L17,21ZM12,19L15,19L15,16L12,16L12,19Z" fill="#000000" fill-opacity="1"/></g><g><path d="M17,30L10,30L10,23L17,23L17,30ZM12,28L15,28L15,25L12,25L12,28Z" fill="#000000" fill-opacity="1"/></g><g><path d="M26,21L19,21L19,14L26,14L26,21ZM21,19L24,19L24,16L21,16L21,19Z" fill="#000000" fill-opacity="1"/></g><g><path d="M26,30L19,30L19,23L26,23L26,30ZM21,28L24,28L24,25L21,25L21,28Z" fill="#000000" fill-opacity="1"/></g><g><path d="M8,27.99999213218689L4,27.99999213218689C2.895956,27.99869213218689,2.00126743,27.10409213218689,2,25.99999213218689L2,6.000002132186889C2.00126719,4.89595613218689,2.895956,4.001267432186889,4,3.9999999999968896L11.5857,3.9999999999968896C12.1165,3.9985127421868896,12.6258,4.20949813218689,13,4.5859001321868895L16.4143,8.00000213218689L28,8.00000213218689C29.104,8.001272132186891,29.9987,8.895952132186888,30,10.00000213218689L30,17.99999213218689L28,17.99999213218689L28,10.00000213218689L15.5857,10.00000213218689L11.5857,6.000002132186889L4,6.000002132186889L4,25.99999213218689L8,25.99999213218689L8,27.99999213218689Z" fill="#000000" fill-opacity="1"/></g><g></g></g></svg>