<svg xmlns="http://www.w3.org/2000/svg" xmlns:xlink="http://www.w3.org/1999/xlink" fill="none" version="1.1" width="32" height="32" viewBox="0 0 32 32"><defs><clipPath id="master_svg0_134_23395"><rect x="0" y="0" width="32" height="32" rx="0"/></clipPath></defs><g clip-path="url(#master_svg0_134_23395)"><g><path d="M31,12.41L29.59,11L26,14.59L22.41,11L21,12.41L24.59,16L21,19.59L22.41,21L26,17.41L29.59,21L31,19.59L27.41,16L31,12.41Z" fill="#000000" fill-opacity="1"/></g><g><path d="M18,30.000007725524902C17.732799999999997,29.9989077255249,17.4771,29.8908077255249,17.29,29.7000077255249L9.67,22.000007725524902L3,22.000007725524902C2.447715,22.000007725524902,2,21.5523077255249,2,21.000007725524902L2,10.999997725524903C2,10.447717725524903,2.447715,9.999997725524903,3,9.999997725524903L9.67,9.999997725524903L17.29,2.2999997255249025C17.68,1.9122767255249022,18.31,1.9122767255249022,18.7,2.2999997255249025C18.8884,2.4846307255249025,18.9962,2.7362307255249023,19,2.9999997255249022L19,29.000007725524902C19,29.5523077255249,18.5523,30.000007725524902,18,30.000007725524902Z" fill="#000000" fill-opacity="1"/></g><g></g></g></svg>