<svg xmlns="http://www.w3.org/2000/svg" xmlns:xlink="http://www.w3.org/1999/xlink" fill="none" version="1.1" width="32" height="32" viewBox="0 0 32 32"><defs><clipPath id="master_svg0_134_23445"><rect x="0" y="0" width="32" height="32" rx="0"/></clipPath></defs><g clip-path="url(#master_svg0_134_23445)"><g><path d="M29.999961312866212,14.999996676635742C30.008761312866213,10.649456676635742,25.52935131286621,7.736086676635742,21.556071312866212,9.508172676635741C17.58278231286621,11.280256676635743,16.75730131286621,16.55962667663574,20.00000131286621,19.46004667663574L20.00000131286621,29.00004667663574L24.00000131286621,27.116246676635743L27.999961312866212,29.00004667663574L27.999961312866212,19.46004667663574C29.27156131286621,18.326106676635742,29.99906131286621,16.70368667663574,29.999961312866212,14.999996676635742ZM26.00000131286621,25.847746676635744L24.00000131286621,24.906246676635742L22.00000131286621,25.847746676635744L22.00000131286621,20.650046676635743C23.29248131286621,21.116846676635742,24.707521312866213,21.116846676635742,26.00000131286621,20.650046676635743L26.00000131286621,25.847746676635744ZM24.00000131286621,19.00004667663574C21.790861312866213,19.00004667663574,20.00000131286621,17.209136676635744,20.00000131286621,14.999996676635742C20.00000131286621,12.790856676635743,21.790861312866213,10.999996676635742,24.00000131286621,10.999996676635742C26.20914131286621,10.999996676635742,27.999961312866212,12.790856676635743,27.999961312866212,14.999996676635742C27.997521312866212,17.208106676635744,26.20811131286621,18.997546676635743,24.00000131286621,19.00004667663574Z" fill="#000000" fill-opacity="1"/></g><g><path d="M14,2C10.6878,2.00363755,8.00364,4.6878,8,8L8,14L6,14C4.895956,14.0013,4.00126696,14.896,4,16L4,28C4.00126839,29.104,4.895956,29.9987,6,30L17,30L17,28L6,28L6,16L15,16L15,14L10,14L10,8C9.99752,5.94483,11.552859999999999,4.2222100000000005,13.5976,4.0154700000000005C15.6423,3.80872,17.511,5.18513,17.92,7.1992L19.880000000000003,6.8008C19.3041,4.01003,16.849600000000002,2.00594926,14,2Z" fill="#000000" fill-opacity="1"/></g><g></g></g></svg>