<svg xmlns="http://www.w3.org/2000/svg" xmlns:xlink="http://www.w3.org/1999/xlink" fill="none" version="1.1" width="32" height="32" viewBox="0 0 32 32"><defs><clipPath id="master_svg0_134_23440"><rect x="0" y="0" width="32" height="32" rx="0"/></clipPath></defs><g clip-path="url(#master_svg0_134_23440)"><g><path d="M27.999949223327636,7C27.288349223327636,7.00167,26.631649223327635,7.38287,26.277349223327636,8L21.999949223327636,8C21.999949223327636,4.68629,19.313749223327637,2,16.000049223327636,2C12.686249223327637,2,9.999999223327636,4.68629,9.999999223327636,8L5.722699223327637,8C5.100959223327637,6.92311,3.657639223327637,6.66861,2.7050742233276366,7.46791C1.7525072233276366,8.26721,1.7525072233276366,9.73279,2.7050742233276366,10.53209C3.657639223327637,11.33139,5.100959223327637,11.07689,5.722699223327637,10L9.999999223327636,10L9.999999223327636,14L7.999999223327637,14C6.895429223327636,14,5.999999223327637,14.8954,5.999999223327637,16L5.999999223327637,28C5.999999223327637,29.1046,6.895429223327636,30,7.999999223327637,30L23.999949223327636,30C25.104549223327638,30,25.999949223327636,29.1046,25.999949223327636,28L25.999949223327636,16C25.999949223327636,14.8954,25.104549223327638,14,23.999949223327636,14L21.999949223327636,14L21.999949223327636,10L26.277349223327636,10C27.04944922332764,11.32832,28.969749223327636,11.32324,29.734849223327636,9.99085C30.499949223327636,8.65846,29.536449223327637,6.99735,27.999949223327636,7ZM12.000049223327636,8C12.000049223327636,5.79086,13.790849223327637,4,16.000049223327636,4C18.209149223327636,4,19.999949223327636,5.79086,19.999949223327636,8L19.999949223327636,14L12.000049223327636,14L12.000049223327636,10L17.000049223327636,10L17.000049223327636,8L12.000049223327636,8ZM23.999949223327636,16L23.999949223327636,28L7.999999223327637,28L7.999999223327637,16L23.999949223327636,16Z" fill="#000000" fill-opacity="1"/></g><g></g></g></svg>