<svg xmlns="http://www.w3.org/2000/svg" xmlns:xlink="http://www.w3.org/1999/xlink" fill="none" version="1.1" width="32" height="32" viewBox="0 0 32 32"><defs><clipPath id="master_svg0_134_23451"><rect x="0" y="0" width="32" height="32" rx="0"/></clipPath></defs><g clip-path="url(#master_svg0_134_23451)"><g></g><g><rect x="22" y="17" width="2" height="2" rx="0" fill="#000000" fill-opacity="1"/></g><g><path d="M28,8L4,8L4,5L26,5L26,3L4,3C2.895431,3,2,3.895431,2,5L2,26C2,27.1046,2.895431,28,4,28L28,28C29.1046,28,30,27.1046,30,26L30,10C30,8.895430000000001,29.1046,8,28,8ZM4,26L4,10L28,10L28,13L20,13C18.8954,13,18,13.8954,18,15L18,21C18,22.1046,18.8954,23,20,23L28,23L28,26L4,26ZM28,15L28,21L20,21L20,15L28,15Z" fill="#000000" fill-opacity="1"/></g></g></svg>