<svg xmlns="http://www.w3.org/2000/svg" xmlns:xlink="http://www.w3.org/1999/xlink" fill="none" version="1.1" width="32" height="32" viewBox="0 0 32 32"><defs><clipPath id="master_svg0_134_23457"><rect x="0" y="0" width="32" height="32" rx="0"/></clipPath></defs><g clip-path="url(#master_svg0_134_23457)"><g><path d="M16,2C8.26801,2,2,8.26801,2,16C2,23.732,8.26801,30,16,30C23.732,30,30,23.732,30,16C30,8.26801,23.732,2,16,2ZM16,28C9.37258,28,4,22.6274,4,16C4,9.37258,9.37258,4,16,4C22.6274,4,28,9.37258,28,16C28,22.6274,22.6274,28,16,28Z" fill="#000000" fill-opacity="1"/></g><g><rect x="15" y="8" width="2" height="11" rx="0" fill="#000000" fill-opacity="1"/></g><g><path d="M17.5,23.5Q17.5,23.57369,17.49278,23.64703Q17.48555,23.72036,17.47118,23.79264Q17.4568,23.864910000000002,17.43541,23.93543Q17.41402,24.00594,17.38582,24.07402Q17.35762,24.14211,17.32288,24.2071Q17.28814,24.27208,17.2472,24.33336Q17.20626,24.39463,17.15952,24.45159Q17.11277,24.50855,17.06066,24.56066Q17.00855,24.61277,16.95159,24.65952Q16.89463,24.70626,16.83335,24.7472Q16.77208,24.78814,16.7071,24.82288Q16.64211,24.85762,16.57402,24.88582Q16.50594,24.91402,16.43543,24.93541Q16.364910000000002,24.9568,16.29264,24.97118Q16.22036,24.98555,16.14703,24.99278Q16.07369,25,16,25Q15.92631,25,15.85297,24.99278Q15.77964,24.98555,15.70736,24.97118Q15.63509,24.9568,15.56457,24.93541Q15.494056,24.91402,15.425975,24.88582Q15.357894,24.85762,15.292905,24.82288Q15.227916,24.78814,15.166645,24.7472Q15.105373,24.70626,15.04841,24.65952Q14.991447,24.61277,14.93934,24.56066Q14.887233,24.50855,14.840484,24.45159Q14.793735999999999,24.39463,14.752796,24.33335Q14.711855,24.27208,14.677118,24.2071Q14.642381,24.14211,14.614181,24.07402Q14.5859806,24.00594,14.5645895,23.93543Q14.5431983,23.864910000000002,14.5288221,23.79264Q14.5144458,23.72036,14.50722291,23.64703Q14.5,23.57369,14.5,23.5Q14.5,23.42631,14.50722291,23.35297Q14.5144458,23.27964,14.5288221,23.20736Q14.5431983,23.135089999999998,14.5645895,23.06457Q14.5859806,22.994056,14.614181,22.925975Q14.642381,22.857894,14.677118,22.792905Q14.711855,22.727916,14.752796,22.666645Q14.793735999999999,22.605373,14.840484,22.54841Q14.887233,22.491447,14.93934,22.43934Q14.991447,22.387233,15.04841,22.340484Q15.105373,22.293736,15.166645,22.252796Q15.227916,22.211855,15.292905,22.177118Q15.357894,22.142381,15.425975,22.114181Q15.494056,22.0859806,15.56457,22.0645895Q15.63509,22.0431983,15.70736,22.0288221Q15.77964,22.0144458,15.85297,22.00722291Q15.92631,22,16,22Q16.07369,22,16.14703,22.00722291Q16.22036,22.0144458,16.29264,22.0288221Q16.364910000000002,22.0431983,16.43543,22.0645895Q16.50594,22.0859806,16.57402,22.114181Q16.64211,22.142381,16.7071,22.177118Q16.77208,22.211855,16.83336,22.252796Q16.89463,22.293736,16.95159,22.340484Q17.00855,22.387233,17.06066,22.43934Q17.11277,22.491447,17.15952,22.54841Q17.20626,22.605373,17.2472,22.666645Q17.28814,22.727916,17.32288,22.792905Q17.35762,22.857894,17.38582,22.925975Q17.41402,22.994056,17.43541,23.06457Q17.4568,23.135089999999998,17.47118,23.20736Q17.48555,23.27964,17.49278,23.35297Q17.5,23.42631,17.5,23.5Z" fill="#000000" fill-opacity="1"/></g><g></g></g></svg>