<svg xmlns="http://www.w3.org/2000/svg" xmlns:xlink="http://www.w3.org/1999/xlink" fill="none" version="1.1" width="32" height="32" viewBox="0 0 32 32"><defs><clipPath id="master_svg0_134_23464"><rect x="0" y="0" width="32" height="32" rx="0"/></clipPath></defs><g clip-path="url(#master_svg0_134_23464)"><g><path d="M17.5,24.5Q17.5,24.57369,17.49278,24.64703Q17.48555,24.72036,17.47118,24.79264Q17.4568,24.864910000000002,17.43541,24.93543Q17.41402,25.00594,17.38582,25.07402Q17.35762,25.14211,17.32288,25.2071Q17.28814,25.27208,17.2472,25.33336Q17.20626,25.39463,17.15952,25.45159Q17.11277,25.50855,17.06066,25.56066Q17.00855,25.61277,16.95159,25.65952Q16.89463,25.70626,16.83335,25.7472Q16.77208,25.78814,16.7071,25.82288Q16.64211,25.85762,16.57402,25.88582Q16.50594,25.91402,16.43543,25.93541Q16.364910000000002,25.9568,16.29264,25.97118Q16.22036,25.98555,16.14703,25.99278Q16.07369,26,16,26Q15.92631,26,15.85297,25.99278Q15.77964,25.98555,15.70736,25.97118Q15.63509,25.9568,15.56457,25.93541Q15.494056,25.91402,15.425975,25.88582Q15.357894,25.85762,15.292905,25.82288Q15.227916,25.78814,15.166645,25.7472Q15.105373,25.70626,15.04841,25.65952Q14.991447,25.61277,14.93934,25.56066Q14.887233,25.50855,14.840484,25.45159Q14.793735999999999,25.39463,14.752796,25.33335Q14.711855,25.27208,14.677118,25.2071Q14.642381,25.14211,14.614181,25.07402Q14.5859806,25.00594,14.5645895,24.93543Q14.5431983,24.864910000000002,14.5288221,24.79264Q14.5144458,24.72036,14.50722291,24.64703Q14.5,24.57369,14.5,24.5Q14.5,24.42631,14.50722291,24.35297Q14.5144458,24.27964,14.5288221,24.20736Q14.5431983,24.135089999999998,14.5645895,24.06457Q14.5859806,23.994056,14.614181,23.925975Q14.642381,23.857894,14.677118,23.792905Q14.711855,23.727916,14.752796,23.666645Q14.793735999999999,23.605373,14.840484,23.54841Q14.887233,23.491447,14.93934,23.43934Q14.991447,23.387233,15.04841,23.340484Q15.105373,23.293736,15.166645,23.252796Q15.227916,23.211855,15.292905,23.177118Q15.357894,23.142381,15.425975,23.114181Q15.494056,23.0859806,15.56457,23.0645895Q15.63509,23.0431983,15.70736,23.0288221Q15.77964,23.0144458,15.85297,23.00722291Q15.92631,23,16,23Q16.07369,23,16.14703,23.00722291Q16.22036,23.0144458,16.29264,23.0288221Q16.364910000000002,23.0431983,16.43543,23.0645895Q16.50594,23.0859806,16.57402,23.114181Q16.64211,23.142381,16.7071,23.177118Q16.77208,23.211855,16.83336,23.252796Q16.89463,23.293736,16.95159,23.340484Q17.00855,23.387233,17.06066,23.43934Q17.11277,23.491447,17.15952,23.54841Q17.20626,23.605373,17.2472,23.666645Q17.28814,23.727916,17.32288,23.792905Q17.35762,23.857894,17.38582,23.925975Q17.41402,23.994056,17.43541,24.06457Q17.4568,24.135089999999998,17.47118,24.20736Q17.48555,24.27964,17.49278,24.35297Q17.5,24.42631,17.5,24.5Z" fill="#000000" fill-opacity="1"/></g><g><rect x="15" y="12" width="2" height="9" rx="0" fill="#000000" fill-opacity="1"/></g><g><path d="M29.00004709377289,29.999985218048096L2.999997093772888,29.999985218048096C2.249641093772888,29.999985218048096,1.7665850937728882,29.204285218048096,2.112800093772888,28.538585218048095L15.112847093772888,3.538601218048096C15.284947093772889,3.207632218048096,15.626947093772888,2.9999852180480957,16.00004709377289,2.9999852180480957C16.37304709377289,2.999985456467096,16.71504709377289,3.2076332180480955,16.88724709377289,3.538601218048096L29.88724709377289,28.538585218048095C30.233447093772888,29.204285218048096,29.750347093772888,29.999985218048096,29.00004709377289,29.999985218048096ZM4.650697093772888,27.999985218048096L27.349347093772888,27.999985218048096L27.351347093772887,27.996685218048096L16.002047093772887,6.1713952180480955L15.998047093772888,6.1713952180480955L4.648697093772888,27.996685218048096L4.650697093772888,27.999985218048096Z" fill="#000000" fill-opacity="1"/></g><g></g></g></svg>