<svg xmlns="http://www.w3.org/2000/svg" xmlns:xlink="http://www.w3.org/1999/xlink" fill="none" version="1.1" width="32" height="32" viewBox="0 0 32 32"><defs><clipPath id="master_svg0_134_23471"><rect x="0" y="0" width="32" height="32" rx="0"/></clipPath></defs><g clip-path="url(#master_svg0_134_23471)"><g></g><g><path d="M16.00200023727417,6.17140007019043L15.99800023727417,6.17140007019043L4.64870023727417,27.99660007019043L4.65059995727417,28.00000007019043L27.34940023727417,28.00000007019043L27.35130023727417,27.99660007019043L16.00200023727417,6.17140007019043ZM14.87500023727417,12.00000007019043L17.125000237274172,12.00000007019043L17.125000237274172,21.00000007019043L14.87500023727417,21.00000007019043L14.87500023727417,12.00000007019043ZM16.000000237274172,26.00000007019043C15.17160023727417,26.00000007019043,14.50000023727417,25.32840007019043,14.50000023727417,24.50000007019043C14.50000023727417,23.67160007019043,15.17160023727417,23.00000007019043,16.000000237274172,23.00000007019043C16.82840023727417,23.00000007019043,17.500000237274172,23.67160007019043,17.500000237274172,24.50000007019043C17.500000237274172,25.32840007019043,16.82840023727417,26.00000007019043,16.000000237274172,26.00000007019043Z" fill="#000000" fill-opacity="1"/></g><g><path d="M29.00004709377289,29.999985218048096L2.999997093772888,29.999985218048096C2.249641093772888,29.999985218048096,1.7665850937728882,29.204285218048096,2.112800093772888,28.538585218048095L15.112847093772888,3.538601218048096C15.284947093772889,3.207632218048096,15.626947093772888,2.9999852180480957,16.00004709377289,2.9999852180480957C16.37304709377289,2.999985456467096,16.71504709377289,3.2076332180480955,16.88724709377289,3.538601218048096L29.88724709377289,28.538585218048095C30.233447093772888,29.204285218048096,29.750347093772888,29.999985218048096,29.00004709377289,29.999985218048096ZM4.650697093772888,27.999985218048096L27.349347093772888,27.999985218048096L27.351347093772887,27.996685218048096L16.002047093772887,6.1713952180480955L15.998047093772888,6.1713952180480955L4.648697093772888,27.996685218048096L4.650697093772888,27.999985218048096Z" fill="#000000" fill-opacity="1"/></g><g></g></g></svg>