<svg xmlns="http://www.w3.org/2000/svg" xmlns:xlink="http://www.w3.org/1999/xlink" fill="none" version="1.1" width="32" height="32" viewBox="0 0 32 32"><defs><clipPath id="master_svg0_134_23505"><rect x="0" y="0" width="32" height="32" rx="0"/></clipPath></defs><g clip-path="url(#master_svg0_134_23505)"><g><path d="M17.5,22.5Q17.5,22.57369,17.49278,22.64703Q17.48555,22.72036,17.47118,22.79264Q17.4568,22.864910000000002,17.43541,22.93543Q17.41402,23.00594,17.38582,23.07402Q17.35762,23.14211,17.32288,23.2071Q17.28814,23.27208,17.2472,23.33336Q17.20626,23.39463,17.15952,23.45159Q17.11277,23.50855,17.06066,23.56066Q17.00855,23.61277,16.95159,23.65952Q16.89463,23.70626,16.83335,23.7472Q16.77208,23.78814,16.7071,23.82288Q16.64211,23.85762,16.57402,23.88582Q16.50594,23.91402,16.43543,23.93541Q16.364910000000002,23.9568,16.29264,23.97118Q16.22036,23.98555,16.14703,23.99278Q16.07369,24,16,24Q15.92631,24,15.85297,23.99278Q15.77964,23.98555,15.70736,23.97118Q15.63509,23.9568,15.56457,23.93541Q15.494056,23.91402,15.425975,23.88582Q15.357894,23.85762,15.292905,23.82288Q15.227916,23.78814,15.166645,23.7472Q15.105373,23.70626,15.04841,23.65952Q14.991447,23.61277,14.93934,23.56066Q14.887233,23.50855,14.840484,23.45159Q14.793735999999999,23.39463,14.752796,23.33335Q14.711855,23.27208,14.677118,23.2071Q14.642381,23.14211,14.614181,23.07402Q14.5859806,23.00594,14.5645895,22.93543Q14.5431983,22.864910000000002,14.5288221,22.79264Q14.5144458,22.72036,14.50722291,22.64703Q14.5,22.57369,14.5,22.5Q14.5,22.42631,14.50722291,22.35297Q14.5144458,22.27964,14.5288221,22.20736Q14.5431983,22.135089999999998,14.5645895,22.06457Q14.5859806,21.994056,14.614181,21.925975Q14.642381,21.857894,14.677118,21.792905Q14.711855,21.727916,14.752796,21.666645Q14.793735999999999,21.605373,14.840484,21.54841Q14.887233,21.491447,14.93934,21.43934Q14.991447,21.387233,15.04841,21.340484Q15.105373,21.293736,15.166645,21.252796Q15.227916,21.211855,15.292905,21.177118Q15.357894,21.142381,15.425975,21.114181Q15.494056,21.0859806,15.56457,21.0645895Q15.63509,21.0431983,15.70736,21.0288221Q15.77964,21.0144458,15.85297,21.00722291Q15.92631,21,16,21Q16.07369,21,16.14703,21.00722291Q16.22036,21.0144458,16.29264,21.0288221Q16.364910000000002,21.0431983,16.43543,21.0645895Q16.50594,21.0859806,16.57402,21.114181Q16.64211,21.142381,16.7071,21.177118Q16.77208,21.211855,16.83336,21.252796Q16.89463,21.293736,16.95159,21.340484Q17.00855,21.387233,17.06066,21.43934Q17.11277,21.491447,17.15952,21.54841Q17.20626,21.605373,17.2472,21.666645Q17.28814,21.727916,17.32288,21.792905Q17.35762,21.857894,17.38582,21.925975Q17.41402,21.994056,17.43541,22.06457Q17.4568,22.135089999999998,17.47118,22.20736Q17.48555,22.27964,17.49278,22.35297Q17.5,22.42631,17.5,22.5Z" fill="#000000" fill-opacity="1"/></g><g><rect x="15" y="8" width="2" height="10" rx="0" fill="#000000" fill-opacity="1"/></g><g><path d="M22.999961853027344,29L9.000001853027344,29C8.644331853027344,29,8.315421853027344,28.8111,8.136201853027345,28.5039L1.1361998530273438,16.5039C0.9545491530273438,16.192500000000003,0.9545491530273438,15.8075,1.1361998530273438,15.4961L8.136201853027345,3.4961C8.315401853027343,3.1889,8.644311853027343,3,9.000001853027344,3L22.999961853027344,3C23.355661853027343,2.9999864101,23.684561853027343,3.188887,23.863761853027345,3.4961L30.863761853027345,15.4961C31.045461853027344,15.8075,31.045461853027344,16.192500000000003,30.863761853027345,16.5039L23.863761853027345,28.5039C23.684561853027343,28.8111,23.355661853027343,29,22.999961853027344,29ZM9.574201853027343,27L22.425761853027343,27L28.842261853027345,16L22.425761853027343,5L9.574201853027343,5L3.1577018530273437,16L9.574201853027343,27Z" fill="#000000" fill-opacity="1"/></g><g></g></g></svg>