<svg xmlns="http://www.w3.org/2000/svg" xmlns:xlink="http://www.w3.org/1999/xlink" fill="none" version="1.1" width="32" height="32" viewBox="0 0 32 32"><defs><clipPath id="master_svg0_134_23580"><rect x="0" y="0" width="32" height="32" rx="0"/></clipPath></defs><g clip-path="url(#master_svg0_134_23580)"><g><path d="M25.99999976158142,24.00000073852539C24.89539976158142,24.00000073852539,23.99999976158142,24.89540073852539,23.99999976158142,26.00000073852539C23.99999976158142,26.07640073852539,24.01419976158142,26.14880073852539,24.02249976158142,26.22290073852539C21.741699761581422,28.01920073852539,18.94329976158142,29.00000073852539,15.999999761581421,29.00000073852539C11.738299761581422,29.00000073852539,7.999999761581421,25.027800738525393,7.999999761581421,20.50000073852539C7.999999761581421,15.81300073852539,11.812999761581422,12.00000073852539,16.49999976158142,12.00000073852539L16.99999976158142,12.00000073852539L16.99999976158142,9.999999738525391L16.49999976158142,9.999999738525391C10.71039976158142,9.999999738525391,5.999999761581421,14.71040073852539,5.999999761581421,20.50000073852539C5.999999761581421,22.38390073852539,6.530399761581421,24.189600738525392,7.437099761581421,25.75650073852539C4.723799761581422,23.372200738525393,2.999999761581421,19.88750073852539,2.999999761581421,16.00000073852539C2.999999761581421,13.88480073852539,3.4916997615814207,11.86720073852539,4.461899761581421,10.00440073852539L2.687499761581421,9.08060073852539C1.5834997615814208,11.20170073852539,0.9999997615814209,13.59430073852539,0.9999997615814209,16.00000073852539C0.9999997615814209,24.27100073852539,7.728999761581421,31.00000073852539,15.999999761581421,31.00000073852539C19.374399761581422,31.00000073852539,22.581799761581422,29.88070073852539,25.20479976158142,27.83380073852539C25.44879976158142,27.939800738525392,25.71709976158142,28.00000073852539,25.99999976158142,28.00000073852539C27.104599761581422,28.00000073852539,27.99999976158142,27.10460073852539,27.99999976158142,26.00000073852539C27.99999976158142,24.89540073852539,27.104599761581422,24.00000073852539,25.99999976158142,24.00000073852539Z" fill="#000000" fill-opacity="1"/></g><g transform="matrix(0,1,-1,0,33,7)"><rect x="13" y="20" width="2" height="2" rx="0" fill="#000000" fill-opacity="1"/></g><g transform="matrix(0,1,-1,0,31,-11)"><rect x="21" y="10" width="2" height="2" rx="0" fill="#000000" fill-opacity="1"/></g><g><path d="M16.000000476837158,1C12.625600476837159,1,9.418200476837157,2.1193,6.795200476837158,4.1662C6.551200476837158,4.0602,6.282900476837158,4,6.000000476837158,4C4.895400476837159,4,4.000000476837158,4.8954,4.000000476837158,6C4.000000476837158,7.1046,4.895400476837159,8,6.000000476837158,8C7.104600476837158,8,8.000000476837158,7.1046,8.000000476837158,6C8.000000476837158,5.9236,7.9858004768371575,5.8512,7.977500476837158,5.7771C10.258300476837158,3.9808,13.056700476837158,3,16.000000476837158,3C20.26170047683716,3,24.000000476837158,6.9722,24.000000476837158,11.5C24.000000476837158,16.186999999999998,20.18700047683716,20,15.500000476837158,20L15.000000476837158,20L15.000000476837158,22L15.500000476837158,22C21.28960047683716,22,26.000000476837158,17.2896,26.000000476837158,11.5C26.000000476837158,9.6147,25.46780047683716,7.8083,24.559900476837157,6.2407C27.274900476837157,8.625,29.000000476837158,12.1111,29.000000476837158,16C29.000000476837158,18.1152,28.508300476837157,20.1328,27.53810047683716,21.9956L29.312500476837158,22.9194C30.416500476837157,20.7983,31.000000476837158,18.4057,31.000000476837158,16C31.000000476837158,7.729,24.27100047683716,1,16.000000476837158,1Z" fill="#000000" fill-opacity="1"/></g><g></g></g></svg>