<svg xmlns="http://www.w3.org/2000/svg" xmlns:xlink="http://www.w3.org/1999/xlink" fill="none" version="1.1" width="32" height="32" viewBox="0 0 32 32"><defs><clipPath id="master_svg0_134_23565"><rect x="0" y="0" width="32" height="32" rx="0"/></clipPath></defs><g clip-path="url(#master_svg0_134_23565)"><g><path d="M22,26.000022616577148L20,26.000022616577148L20,17.760002616577147L16.77,21.64000261657715C16.3701,22.122602616577147,15.6299,22.122602616577147,15.23,21.64000261657715L12,17.760002616577147L12,26.000022616577148L10,26.000022616577148L10,15.000002616577149C10.000179291,14.57896961657715,10.264052,14.20315061657715,10.66,14.060000416577148C11.05625,13.91601751657715,11.50023,14.036013616577149,11.77,14.360000616577148L16,19.440002616577146L20.23,14.360000616577148C20.4998,14.036012616577148,20.9438,13.91601661657715,21.34,14.060000416577148C21.7359,14.20315061657715,21.9998,14.57896961657715,22,15.000002616577149L22,26.000022616577148Z" fill="#000000" fill-opacity="1"/></g><g><path d="M4.160004796347618,14.649995021057128L1.160004796347618,12.90000002105713C0.7954917963476181,12.69013202105713,0.3298687963476181,12.815492621057128,0.1199997963476181,13.180000021057129C-0.08986820365238189,13.54450802105713,0.035492196347618105,14.01013502105713,0.3999997963476181,14.219995021057128L3.400004796347618,15.99999502105713C3.7647247963476183,16.255355021057127,4.269844796347618,16.14391502105713,4.4932747963476185,15.758805021057128C4.7166947963476185,15.373695021057129,4.562714796347618,14.87987502105713,4.160004796347618,14.690005021057129L4.160004796347618,14.649995021057128Z" fill="#000000" fill-opacity="1"/></g><g><path d="M8.289998711242676,10.52000233581543C8.490688711242676,10.871862335815429,8.939488711242676,10.99303233581543,9.289998711242676,10.79000233581543C9.636328711242676,10.58563233581543,9.759848711242675,10.14449233581543,9.569998711242675,9.79000233581543L7.829998711242676,6.79000133581543C7.620238711242676,6.42526433581543,7.154448711242676,6.29973733581543,6.789814711242676,6.50967833581543C6.425180411242676,6.719618335815429,6.299880711242675,7.18546933581543,6.509999711242676,7.55000233581543L8.289998711242676,10.52000233581543Z" fill="#000000" fill-opacity="1"/></g><g><path d="M15.999999771118164,9C16.419739771118163,9,16.759999771118164,8.65974,16.759999771118164,8.24L16.759999771118164,4.76C16.759999771118164,4.340264,16.419739771118163,4,15.999999771118164,4C15.580263771118164,4,15.240000724792164,4.340263,15.239999771118164,4.76L15.239999771118164,8.25C15.245435711118164,8.665790000000001,15.584101771118164,9,15.999999771118164,9Z" fill="#000000" fill-opacity="1"/></g><g><path d="M22.680000731933593,10.789999151763915C22.791623731933594,10.858319151763915,22.919183731933593,10.896239151763915,23.050000731933594,10.899999151763916C23.322172731933595,10.900649151763915,23.573912731933593,10.755709151763917,23.710002731933592,10.519999151763916L25.460002731933592,7.5199991517639155C25.669372731933592,7.155538151763916,25.543882731933593,6.690367151763916,25.179632731933594,6.480644151763916C24.815372731933593,6.270921151763916,24.350082731933593,6.395947951763916,24.140002731933592,6.759999151763916L22.400001731933592,9.759999151763916C22.190044731933593,10.121379151763916,22.315982831933592,10.584659151763915,22.680000731933593,10.789999151763915Z" fill="#000000" fill-opacity="1"/></g><g><path d="M31.900000045776366,13.179999888549805C31.69234004577637,12.837980288549804,31.255070045776367,12.715542788549804,30.900000045776366,12.900000588549805L27.900000045776366,14.650003888549804C27.527210245776367,14.843303888549805,27.381704045776367,15.302213888549804,27.57500264577637,15.675003888549805C27.76830104577637,16.047793888549805,28.227209045776366,16.193293888549803,28.60000004577637,16.000003888549806L31.60000004577637,14.260003888549804C31.992230045776367,14.053463888549805,32.12952004577637,13.559240888549805,31.900000045776366,13.179999888549805Z" fill="#000000" fill-opacity="1"/></g><g></g></g></svg>