<svg xmlns="http://www.w3.org/2000/svg" xmlns:xlink="http://www.w3.org/1999/xlink" fill="none" version="1.1" width="32" height="32" viewBox="0 0 32 32"><defs><clipPath id="master_svg0_134_23597"><rect x="0" y="0" width="32" height="32" rx="0"/></clipPath></defs><g clip-path="url(#master_svg0_134_23597)"><g><path d="M25.999998807907104,24.00000073852539C24.895398807907103,24.00000073852539,23.999998807907104,24.89540073852539,23.999998807907104,26.00000073852539C23.999998807907104,26.07640073852539,24.014198807907103,26.14880073852539,24.022498807907105,26.22290073852539C21.741698807907106,28.01920073852539,18.943298807907105,29.00000073852539,15.999998807907104,29.00000073852539C8.831498807907105,29.00000073852539,2.9999988079071045,23.16850073852539,2.9999988079071045,16.00000073852539C2.9999988079071045,13.88480073852539,3.4916988079071043,11.86720073852539,4.4618988079071045,10.00440073852539L2.6874988079071045,9.08060073852539C1.5834988079071044,11.20170073852539,0.9999988079071045,13.59430073852539,0.9999988079071045,16.00000073852539C0.9999988079071045,24.27100073852539,7.728998807907105,31.00000073852539,15.999998807907104,31.00000073852539C19.374398807907106,31.00000073852539,22.581798807907106,29.88070073852539,25.204798807907103,27.83380073852539C25.448798807907103,27.939800738525392,25.717098807907103,28.00000073852539,25.999998807907104,28.00000073852539C27.104598807907106,28.00000073852539,27.999998807907104,27.10460073852539,27.999998807907104,26.00000073852539C27.999998807907104,24.89540073852539,27.104598807907106,24.00000073852539,25.999998807907104,24.00000073852539Z" fill="#000000" fill-opacity="1"/></g><g transform="matrix(0,1,-1,0,36,10)"><rect x="13" y="23" width="2" height="2" rx="0" fill="#000000" fill-opacity="1"/></g><g transform="matrix(0,1,-1,0,22,-4)"><rect x="13" y="9" width="2" height="2" rx="0" fill="#000000" fill-opacity="1"/></g><g transform="matrix(0,1,-1,0,29,3)"><rect x="13" y="16" width="2" height="2" rx="0" fill="#000000" fill-opacity="1"/></g><g><path d="M16.000000476837158,1C12.625600476837159,1,9.418200476837157,2.1193,6.795200476837158,4.1662C6.551200476837158,4.0602,6.282900476837158,4,6.000000476837158,4C4.895400476837159,4,4.000000476837158,4.8954,4.000000476837158,6C4.000000476837158,7.1046,4.895400476837159,8,6.000000476837158,8C7.104600476837158,8,8.000000476837158,7.1046,8.000000476837158,6C8.000000476837158,5.9236,7.9858004768371575,5.8512,7.977500476837158,5.7771C10.258300476837158,3.9808,13.056700476837158,3,16.000000476837158,3C17.654300476837157,3,19.000000476837158,4.3457,19.000000476837158,6C19.000000476837158,7.6543,17.654300476837157,9,16.000000476837158,9L15.000000476837158,9L15.000000476837158,11L16.000000476837158,11C18.756800476837157,11,21.000000476837158,8.7568,21.000000476837158,6C21.000000476837158,5.7601,20.97970047683716,5.5252,20.946900476837158,5.2943C21.913200476837158,6.4291,22.500000476837158,7.8964,22.500000476837158,9.5C22.500000476837158,13.084,19.584000476837158,16,16.000000476837158,16L15.000000476837158,16L15.000000476837158,18L16.000000476837158,18C20.68700047683716,18,24.500000476837158,14.187,24.500000476837158,9.5C24.500000476837158,8.7346,24.388900476837158,7.9964,24.198300476837158,7.2904C25.33040047683716,8.911,26.000000476837158,10.8774,26.000000476837158,13C26.000000476837158,18.5142,21.514200476837157,23,16.000000476837158,23L15.000000476837158,23L15.000000476837158,25L16.000000476837158,25C22.61670047683716,25,28.000000476837158,19.6167,28.000000476837158,13C28.000000476837158,12.1005,27.89420047683716,11.226,27.70560047683716,10.3824C28.526300476837157,12.0855,29.000000476837158,13.9862,29.000000476837158,16C29.000000476837158,18.1152,28.508300476837157,20.1328,27.53810047683716,21.9956L29.312500476837158,22.9194C30.416500476837157,20.7983,31.000000476837158,18.4057,31.000000476837158,16C31.000000476837158,7.729,24.27100047683716,1,16.000000476837158,1Z" fill="#000000" fill-opacity="1"/></g><g></g></g></svg>