<svg xmlns="http://www.w3.org/2000/svg" xmlns:xlink="http://www.w3.org/1999/xlink" fill="none" version="1.1" width="32" height="32" viewBox="0 0 32 32"><defs><clipPath id="master_svg0_134_23636"><rect x="0" y="0" width="32" height="32" rx="0"/></clipPath></defs><g clip-path="url(#master_svg0_134_23636)"><g><path d="M28.1655,2C25.0832,2.00479603,22.103,3.10594,19.7581,5.1065000000000005C17.9331,3.35802,14.9635,3.72247,13.6155,5.86037C12.2674,7.99827,13.2186,10.83494,15.583,11.728L14.4468,15.8945C14.3743,16.1602,14.2889,16.4199,14.1979,16.676299999999998C12.5213,15.5584,10.274,15.8675,8.961490000000001,17.3966C7.64898,18.9257,7.68404,21.1939,9.043199999999999,22.6817C7.44251,23.5469,5.65243,24,3.8345000000000002,24L2,24L2,26L3.8345000000000002,26C4.132,26,4.4262999999999995,25.9829,4.7198,25.9629L12.6489,28.9365C13.3026,29.1817,14,28.6983,14,28L14,21.0923C14.3308,20.6739,14.6354,20.2354,14.9121,19.7793L21.2749,17.961399999999998C21.9618,17.7651,22.2272,16.9327,21.7808,16.375L17.7843,11.38C18.0728,10.55433,18.4595,9.76629,18.9359,9.0328L24.6836,10.9488C25.3311,11.1649,26,10.68279,26,10L26,4.225099999999999C26.7125,4.07796,27.438,4.002549999999999,28.1655,4L30,4L30,2L28.1655,2ZM17,6C17.4917,6.00615,17.9636,6.19508,18.3237,6.53C17.4648,7.5239,16.7621,8.64279,16.240000000000002,9.8482C15.3561,9.48582,14.8522,8.54869,15.0373,7.61153C15.2224,6.67436,16.0447,5.99916,17,6ZM10,20C9.995190000000001,19.2079,10.46104,18.4886,11.18578,18.169C11.91051,17.8494,12.7558,17.9906,13.3374,18.5283C12.6622,19.6824,11.78259,20.704,10.7415,21.543C10.27529,21.166,10.00307,20.5996,10,20ZM8.3354,25.1826C9.66211,24.6899,10.89981,23.9845,12,23.0943L12,26.5567L8.3354,25.1826ZM16.075400000000002,17.3672C16.1861,17.0567,16.289,16.7422,16.3767,16.4209L17.1087,13.7363L19.28,16.4512L16.075400000000002,17.3672ZM24,8.612300000000001L20.2589,7.3653C21.3184,6.27218,22.592,5.40931,24,4.8306000000000004L24,8.612300000000001Z" fill="#000000" fill-opacity="1"/></g><g><path d="M22,22L22,24L26.586,24L22,28.586L23.414,30L28,25.414L28,30L30,30L30,22L22,22Z" fill="#000000" fill-opacity="1"/></g><g><path d="M2,2L2,4L6.586,4L2,8.586L3.4139999999999997,10L8,5.414L8,10L10,10L10,2L2,2Z" fill="#000000" fill-opacity="1"/></g><g></g></g></svg>