<svg xmlns="http://www.w3.org/2000/svg" xmlns:xlink="http://www.w3.org/1999/xlink" fill="none" version="1.1" width="32" height="32" viewBox="0 0 32 32"><defs><clipPath id="master_svg0_134_23674"><rect x="0" y="0" width="32" height="32" rx="0"/></clipPath></defs><g clip-path="url(#master_svg0_134_23674)"><g><path d="M22.504599864196777,11.636704673309326L16.516299864196778,8.136699673309327C16.356899864196777,8.043399773309327,16.178199864196777,7.997999663309326,15.999899864196777,7.999999523209326C15.829999864196777,8.001999853309327,15.660499864196776,8.047399473309326,15.508399864196777,8.135699673309325L9.496699864196778,11.635694673309326C9.189099864196777,11.814894673309325,8.999899864196777,12.143994673309326,8.999899864196777,12.499994673309327L8.999899864196777,19.500034673309326C8.999899864196777,19.856034673309324,9.189099864196777,20.185134673309328,9.496699864196778,20.364334673309326L15.508399864196777,23.864334673309326C15.663899864196777,23.95463467330933,15.825999864196778,24.000034673309326,15.999899864196777,24.000034673309326C16.174199864196776,24.000034673309326,16.360299864196776,23.95463467330933,16.516299864196778,23.863334673309325L22.504599864196777,20.363334673309325C22.811499864196776,20.184134673309327,22.999999864196777,19.85553467330933,22.999999864196777,19.500034673309326L22.999999864196777,12.500004673309327C22.999999864196777,12.144504673309326,22.811499864196776,11.815904673309326,22.504599864196777,11.636704673309326ZM16.010699864196777,10.157694673309326L20.018299864196777,12.500004673309327L16.010699864196777,14.842304673309325L11.987499864196778,12.500004673309327L16.010699864196777,10.157694673309326ZM10.999999864196777,14.239194673309326L14.999999864196777,16.568304673309328L14.999999864196777,21.253834673309328L10.999999864196777,18.924734673309324L10.999999864196777,14.239194673309326ZM16.999999864196777,21.26413467330933L16.999999864196777,16.580494673309325L20.999999864196777,14.242594673309327L20.999999864196777,18.926234673309324L16.999999864196777,21.26413467330933Z" fill="#000000" fill-opacity="1"/></g><g><path d="M16,1C15.8259,1,15.6519,1.0454,15.4961,1.1362L3.4961,8.136199999999999C3.189,8.3154,3,8.644300000000001,3,9L3,23C3,23.3557,3.189,23.6846,3.4961,23.8638L15.4961,30.8638C15.6519,30.9546,15.8259,31,16,31C16.1741,31,16.348100000000002,30.9546,16.5039,30.8638L27.5039,24.4472L26.4961,22.7197L16,28.8424L5,22.4258L5,9.5745L16,3.1577L27,9.5743L27,17L29,17L29,9C29,8.644300000000001,28.811,8.3154,28.5039,8.136199999999999L16.5039,1.1362C16.348100000000002,1.0453999,16.1741,0.9999999403954,16,1Z" fill="#000000" fill-opacity="1"/></g><g></g></g></svg>