<svg xmlns="http://www.w3.org/2000/svg" xmlns:xlink="http://www.w3.org/1999/xlink" fill="none" version="1.1" width="32" height="32" viewBox="0 0 32 32"><defs><clipPath id="master_svg0_134_23665"><rect x="0" y="0" width="32" height="32" rx="0"/></clipPath></defs><g clip-path="url(#master_svg0_134_23665)"><g><path d="M16,25.999999182128906C15.7441,25.999999182128906,15.488,25.902299182128907,15.293,25.707199182128907L12.293,22.707199182128907C12.0977001,22.511899182128907,12,22.255999182128907,12,22.000099182128906C12,21.744199182128906,12.0977001,21.488299182128905,12.293,21.292899182128906L15.293,18.292900182128907C15.4881,18.097700082128906,15.744,18.000099182128906,16,18.000099182128906C16.256,18.000099182128906,16.512,18.097799282128907,16.707,18.292900182128907L19.707,21.292899182128906C19.9023,21.488199182128906,20,21.744099182128906,20,21.999999182128906C20,22.255899182128907,19.9023,22.511799182128907,19.707,22.707199182128907L16.707,25.707199182128907C16.5119,25.902399182128907,16.2558,25.999999182128906,16,25.999999182128906ZM14.4143,21.999999182128906L16,23.585799182128905L17.5857,21.999999182128906L16,20.414199182128907L14.4143,21.999999182128906Z" fill="#000000" fill-opacity="1"/></g><g><path d="M22,19.999999182128906C21.7441,19.999999182128906,21.488,19.902299182128907,21.293,19.707199182128907L18.292999000000002,16.707199182128907C18.0977001,16.511899182128907,18,16.255999182128907,18,16.000099182128906C18,15.744199182128906,18.0977001,15.488299182128905,18.292999000000002,15.292899182128906L21.293,12.292899182128906C21.4881,12.097699182128906,21.744,12.000099182128906,22,12.000099182128906C22.256,12.000099182128906,22.512,12.097799282128907,22.707,12.292899182128906L25.707,15.292899182128906C25.9023,15.488199182128906,26,15.744099182128906,26,15.999999182128906C26,16.255899182128907,25.9023,16.511799182128907,25.707,16.707199182128907L22.707,19.707199182128907C22.5119,19.902399182128907,22.2558,19.999999182128906,22,19.999999182128906ZM20.4143,15.999999182128906L22,17.585799182128905L23.5857,15.999999182128906L22,14.414199182128906L20.4143,15.999999182128906Z" fill="#000000" fill-opacity="1"/></g><g><path d="M16,14.000000135803223C15.7441,14.000000135803223,15.488,13.902300135803223,15.293,13.707200135803223L12.292999,10.707200135803223C12.0977001,10.511900135803224,12,10.256000135803223,12,10.000100135803223C12,9.744200135803222,12.0977001,9.488300135803222,12.292999,9.292900135803222L15.293,6.292900135803222C15.4881,6.097700135803223,15.744,6.000100135803223,16,6.000100135803223C16.256,6.000100135803223,16.512,6.097800235803223,16.707,6.292900135803222L19.707,9.292900135803222C19.9023,9.488200135803222,20,9.744100135803222,20,10.000000135803223C20,10.255900135803223,19.9023,10.511800135803224,19.707,10.707200135803223L16.707,13.707200135803223C16.5119,13.902400135803223,16.2558,14.000000135803223,16,14.000000135803223ZM14.4143,10.000000135803223L16,11.585800135803222L17.5857,10.000000135803223L16,8.414200135803222L14.4143,10.000000135803223Z" fill="#000000" fill-opacity="1"/></g><g><path d="M10,19.999999182128906C9.7441,19.999999182128906,9.488,19.902299182128907,9.293,19.707199182128907L6.292999,16.707199182128907C6.0977001,16.511899182128907,6,16.255999182128907,6,16.000099182128906C6,15.744199182128906,6.0977001,15.488299182128905,6.292999,15.292899182128906L9.293,12.292899182128906C9.4881,12.097699182128906,9.744,12.000099182128906,10,12.000099182128906C10.256,12.000099182128906,10.512,12.097799282128907,10.707,12.292899182128906L13.707,15.292899182128906C13.9023,15.488199182128906,14,15.744099182128906,14,15.999999182128906C14,16.255899182128907,13.9023,16.511799182128907,13.707,16.707199182128907L10.707,19.707199182128907C10.5119,19.902399182128907,10.2558,19.999999182128906,10,19.999999182128906ZM8.4143,15.999999182128906L10,17.585799182128905L11.5857,15.999999182128906L10,14.414199182128906L8.4143,15.999999182128906Z" fill="#000000" fill-opacity="1"/></g><g><path d="M16,1C15.8259,1,15.6519,1.0454,15.4961,1.1362L3.4961,8.136199999999999C3.189,8.3154,3,8.644300000000001,3,9L3,23C3,23.3557,3.189,23.6846,3.4961,23.8638L15.4961,30.8638C15.6519,30.9546,15.8259,31,16,31C16.1741,31,16.348100000000002,30.9546,16.5039,30.8638L27.5039,24.4472L26.4961,22.7197L16,28.8424L5,22.4258L5,9.5745L16,3.1577L27,9.5743L27,17L29,17L29,9C29,8.644300000000001,28.811,8.3154,28.5039,8.136199999999999L16.5039,1.1362C16.348100000000002,1.0453999,16.1741,0.9999999403954,16,1Z" fill="#000000" fill-opacity="1"/></g><g></g></g></svg>