<svg xmlns="http://www.w3.org/2000/svg" xmlns:xlink="http://www.w3.org/1999/xlink" fill="none" version="1.1" width="32" height="32" viewBox="0 0 32 32"><defs><clipPath id="master_svg0_134_23709"><rect x="0" y="0" width="32" height="32" rx="0"/></clipPath></defs><g clip-path="url(#master_svg0_134_23709)"><g><ellipse cx="24" cy="24" rx="2" ry="2" fill="#000000" fill-opacity="1"/></g><g><path d="M24,30C20.68629,30,18,27.31371,18,24C18,20.68629,20.68629,18,24,18C27.31371,18,30,20.68629,30,24C29.9962,27.31213,27.31213,29.9962,24,30ZM24,20C21.79086,20,20,21.79086,20,24C20,26.209139999999998,21.79086,28,24,28C26.209139999999998,28,28,26.209139999999998,28,24C27.99752,21.79189,26.208109999999998,20.00248,24,20Z" fill="#000000" fill-opacity="1"/></g><g><path d="M16,27.999955723571777L8,27.999955723571777L8,3.9999957235717774L16,3.9999957235717774L16,9.999995723571777C16.0032,11.103245723571778,16.8968,11.996815723571777,18,11.999955723571777L24,11.999955723571777L24,14.999955723571777L26,14.999955723571777L26,9.999995723571777C26.0073,9.734005723571777,25.8976,9.478195723571776,25.7,9.299995723571778L18.7,2.2999997235717773C18.5218,2.102328723571777,18.266,1.9926815035717773,18,1.9999999995717774L8,1.9999999995717774C6.896753,2.0031855135717773,6.00318575,2.8967527235717774,6,3.9999957235717774L6,27.999955723571777C6.00318575,29.103255723571777,6.896753,29.996855723571777,8,29.999955723571777L16,29.999955723571777L16,27.999955723571777ZM18,4.399995723571777L23.6,9.999995723571777L18,9.999995723571777L18,4.399995723571777Z" fill="#000000" fill-opacity="1"/></g><g></g></g></svg>