<svg xmlns="http://www.w3.org/2000/svg" xmlns:xlink="http://www.w3.org/1999/xlink" fill="none" version="1.1" width="32" height="32" viewBox="0 0 32 32"><defs><clipPath id="master_svg0_134_23721"><rect x="0" y="0" width="32" height="32" rx="0"/></clipPath></defs><g clip-path="url(#master_svg0_134_23721)"><g><path d="M22,27.17980015258789L19.41,24.58990015258789L18,26.00000015258789L22,30.00000015258789L30,22.00000015258789L28.5899,20.59000015258789L22,27.17980015258789Z" fill="#000000" fill-opacity="1"/></g><g><rect x="9" y="17" width="7" height="2" rx="0" fill="#000000" fill-opacity="1"/></g><g><rect x="9" y="12" width="12" height="2" rx="0" fill="#000000" fill-opacity="1"/></g><g><rect x="9" y="7" width="12" height="2" rx="0" fill="#000000" fill-opacity="1"/></g><g><path d="M16,30L6,30C4.897,30,4,29.1028,4,28L4,4C4,2.8971999999999998,4.897,2,6,2L24,2C25.103,2,26,2.8971999999999998,26,4L26,19L24,19L24,4L6,4L6,28L16,28L16,30Z" fill="#000000" fill-opacity="1"/></g><g></g></g></svg>