<svg xmlns="http://www.w3.org/2000/svg" xmlns:xlink="http://www.w3.org/1999/xlink" fill="none" version="1.1" width="32" height="32" viewBox="0 0 32 32"><defs><clipPath id="master_svg0_134_23730"><rect x="0" y="0" width="32" height="32" rx="0"/></clipPath></defs><g clip-path="url(#master_svg0_134_23730)"><g><ellipse cx="16" cy="25" rx="2" ry="2" fill="#000000" fill-opacity="1"/></g><g><path d="M10.470000267028809,19.23339757507324L11.88360026702881,20.64649757507324C14.184990267028809,18.45476757507324,17.80015026702881,18.450677575073243,20.106500267028807,20.63719757507324L21.52000026702881,19.223597575073242C18.43327026702881,16.254917575073243,13.551350267028809,16.25933657507324,10.470000267028809,19.23339757507324Z" fill="#000000" fill-opacity="1"/></g><g><path d="M6.229000091552734,14.992698691711425L7.642600091552734,16.406198691711424C12.284470091552734,11.868315691711425,19.699400091552732,11.863876691711425,24.346700091552734,16.396198691711426L25.760000091552733,14.982898691711426C20.332400091552735,9.668628691711426,11.650810091552735,9.673078691711426,6.229000091552734,14.992698691711425L6.229000091552734,14.992698691711425Z" fill="#000000" fill-opacity="1"/></g><g><path d="M30,10.741197984008789C22.2363,3.086157984008789,9.7637,3.086157984008789,2,10.741197984008789L2,10.76369798400879L3.4043,12.167997984008789C10.38389,5.2814249840087895,21.6003,5.2769709840087895,28.5854,12.157997984008789L30,10.74319798400879L30,10.741197984008789Z" fill="#000000" fill-opacity="1"/></g><g></g></g></svg>