<svg xmlns="http://www.w3.org/2000/svg" xmlns:xlink="http://www.w3.org/1999/xlink" fill="none" version="1.1" width="32" height="32" viewBox="0 0 32 32"><defs><clipPath id="master_svg0_134_23738"><rect x="0" y="0" width="32" height="32" rx="0"/></clipPath></defs><g clip-path="url(#master_svg0_134_23738)"><g><path d="M6.949200119018554,20.950000190734862L5.535200119018555,19.535900190734864C7.488110119018555,17.583230190734863,7.488110119018555,14.417070190734863,5.535200119018555,12.464400190734864L6.949200119018554,11.050000190734863C9.683210119018554,13.783730190734863,9.683210119018554,18.216270190734864,6.949200119018554,20.950000190734862Z" fill="#000000" fill-opacity="1"/></g><g><path d="M10.48539955291748,24.485400276947022L9.07129955291748,23.07130027694702C12.97624955291748,19.16580027694702,12.97624955291748,12.83425027694702,9.07129955291748,8.928700276947021L10.48539955291748,7.5146002769470215C15.17151955291748,12.201060276947022,15.17151955291748,19.798900276947023,10.48539955291748,24.485400276947022Z" fill="#000000" fill-opacity="1"/></g><g><path d="M25.050795639038085,20.95000114440918C22.316793639038085,18.21627114440918,22.316793639038085,13.78373114440918,25.050795639038085,11.05000114440918L26.464795639038087,12.46460114440918C24.511885639038084,14.41727114440918,24.511885639038084,17.58343114440918,26.464795639038087,19.53610114440918L25.050795639038085,20.95000114440918Z" fill="#000000" fill-opacity="1"/></g><g><path d="M21.514601444091795,24.485398846435547C16.828481444091796,19.79889884643555,16.828481444091796,12.201058846435547,21.514601444091795,7.514598846435547L22.928701444091796,8.928698846435546C19.023751444091797,12.834248846435546,19.023751444091797,19.165798846435546,22.928701444091796,23.071298846435546L21.514601444091795,24.485398846435547Z" fill="#000000" fill-opacity="1"/></g><g><path d="M3,15L2,15L2,4L0,4L0,28L2,28L2,17L3,17C3.55228,17,4,16.552300000000002,4,16C4,15.4477,3.55228,15,3,15Z" fill="#000000" fill-opacity="1"/></g><g><path d="M30,4L30,15L29,15C28.447716,15,28,15.4477,28,16C28,16.552300000000002,28.447716,17,29,17L30,17L30,28L32,28L32,4L30,4Z" fill="#000000" fill-opacity="1"/></g><g></g></g></svg>