<svg xmlns="http://www.w3.org/2000/svg" xmlns:xlink="http://www.w3.org/1999/xlink" fill="none" version="1.1" width="32" height="32" viewBox="0 0 32 32"><defs><clipPath id="master_svg0_134_23851"><rect x="0" y="0" width="32" height="32" rx="0"/></clipPath></defs><g clip-path="url(#master_svg0_134_23851)"><g><path d="M13,30C10.23988,29.996859999999998,8.00314,27.76012,8,25L10,25C10,26.65685,11.34315,28,13,28C14.6569,28,16,26.65685,16,25C16,23.34315,14.6569,22,13,22L4,22L4,20L13,20C15.7614,20,18,22.23858,18,25C18,27.76142,15.7614,30,13,30Z" fill="#000000" fill-opacity="1"/></g><g><path d="M25,25C22.2399,24.996859999999998,20.0031,22.76012,20,20L22,20C22,21.65685,23.3431,23,25,23C26.6569,23,28,21.65685,28,20C28,18.34315,26.6569,17,25,17L2,17L2,15L25,15C27.7614,15,30,17.23858,30,20C30,22.76142,27.7614,25,25,25Z" fill="#000000" fill-opacity="1"/></g><g><path d="M21,12L6,12L6,10L21,10C22.6569,10,24,8.65685,24,7C24,5.34315,22.6569,4,21,4C19.3431,4,18,5.34315,18,7L16,7C16,4.23858,18.238599999999998,2,21,2C23.7614,2,26,4.23858,26,7C26,9.761420000000001,23.7614,12,21,12Z" fill="#000000" fill-opacity="1"/></g><g></g></g></svg>