<svg xmlns="http://www.w3.org/2000/svg" xmlns:xlink="http://www.w3.org/1999/xlink" fill="none" version="1.1" width="32" height="32" viewBox="0 0 32 32"><defs><clipPath id="master_svg0_134_23813"><rect x="0" y="0" width="32" height="32" rx="0"/></clipPath></defs><g clip-path="url(#master_svg0_134_23813)"><g><path d="M21,15L8,15L8,13L21,13C22.6569,13,24,11.65685,24,10C24,8.34315,22.6569,7,21,7C19.3431,7,18,8.34315,18,10L16,10C16,7.23858,18.238599999999998,5,21,5C23.761400000000002,5,26,7.23858,26,10C26,12.761420000000001,23.761400000000002,15,21,15Z" fill="#000000" fill-opacity="1"/></g><g><path d="M23,28C20.2399,27.996859999999998,18.0031,25.76012,18,23L20,23C20,24.65685,21.3431,26,23,26C24.6569,26,26,24.65685,26,23C26,21.34315,24.6569,20,23,20L4,20L4,18L23,18C25.7605,18.0013485,27.9976,20.23953,27.9976,23C27.9976,25.760469999999998,25.7605,27.998649999999998,23,28Z" fill="#000000" fill-opacity="1"/></g><g></g></g></svg>