<svg xmlns="http://www.w3.org/2000/svg" xmlns:xlink="http://www.w3.org/1999/xlink" fill="none" version="1.1" width="32" height="32" viewBox="0 0 32 32"><defs><clipPath id="master_svg0_134_25108"><rect x="0" y="0" width="32" height="32" rx="0"/></clipPath></defs><g clip-path="url(#master_svg0_134_25108)"><g><rect x="15" y="2" width="2" height="3" rx="0" fill="#000000" fill-opacity="1"/></g><g><rect x="25" y="13" width="3" height="2" rx="0" fill="#000000" fill-opacity="1"/></g><g><rect x="15" y="23" width="2" height="3" rx="0" fill="#000000" fill-opacity="1"/></g><g><rect x="4" y="13" width="3" height="2" rx="0" fill="#000000" fill-opacity="1"/></g><g transform="matrix(0.7071067690849304,-0.7071067690849304,0.7071067690849304,0.7071067690849304,-2.39144384591512,6.6034965726840085)"><rect x="6.7754034996032715" y="6.1884765625" width="2" height="3" rx="0" fill="#000000" fill-opacity="1"/></g><g transform="matrix(0.7071067690849304,-0.7071067690849304,0.7071067690849304,0.7071067690849304,1.4757877875235863,17.361694002349395)"><rect x="21.6953125" y="6.8994140625" width="3" height="2" rx="0" fill="#000000" fill-opacity="1"/></g><g transform="matrix(0.7071067690849304,-0.7071067690849304,0.7071067690849304,0.7071067690849304,-8.558147051635956,21.514585312021723)"><rect x="21.691328048706055" y="21.087890625" width="2" height="3" rx="0" fill="#000000" fill-opacity="1"/></g><g transform="matrix(0.7071067690849304,-0.7071067690849304,0.7071067690849304,0.7071067690849304,-13.438428996233966,11.181761806933906)"><rect x="6.778365612030029" y="21.8125" width="3" height="2" rx="0" fill="#000000" fill-opacity="1"/></g><g><rect x="4" y="28" width="24" height="2" rx="0" fill="#000000" fill-opacity="1"/></g><g><path d="M16,20C19.31371,20,22,17.31371,22,14C22,10.68629,19.31371,8,16,8C12.68629,8,10,10.68629,10,14C10,17.31371,12.68629,20,16,20ZM16,10L16,18C13.79086,18,12,16.209139999999998,12,14C12,11.79086,13.79086,10,16,10Z" fill="#000000" fill-opacity="1"/></g><g></g></g></svg>