<svg xmlns="http://www.w3.org/2000/svg" xmlns:xlink="http://www.w3.org/1999/xlink" fill="none" version="1.1" width="32" height="32" viewBox="0 0 32 32"><defs><clipPath id="master_svg0_134_25093"><rect x="0" y="0" width="32" height="32" rx="0"/></clipPath></defs><g clip-path="url(#master_svg0_134_25093)"><g><rect x="15" y="4" width="2" height="3" rx="0" fill="#000000" fill-opacity="1"/></g><g><rect x="25" y="15" width="3" height="2" rx="0" fill="#000000" fill-opacity="1"/></g><g><rect x="15" y="25" width="2" height="3" rx="0" fill="#000000" fill-opacity="1"/></g><g><rect x="4" y="15" width="3" height="2" rx="0" fill="#000000" fill-opacity="1"/></g><g transform="matrix(0.7071067690849304,-0.7071067690849304,0.7071067690849304,0.7071067690849304,-3.805922646104591,7.190595760272117)"><rect x="6.77685546875" y="8.189453125" width="2" height="3" rx="0" fill="#000000" fill-opacity="1"/></g><g transform="matrix(0.7071067690849304,-0.7071067690849304,0.7071067690849304,0.7071067690849304,0.05830945848720148,17.94155168713769)"><rect x="21.6865234375" y="8.900390625" width="3" height="2" rx="0" fill="#000000" fill-opacity="1"/></g><g transform="matrix(0.7071067690849304,-0.7071067690849304,0.7071067690849304,0.7071067690849304,-9.980270337987236,22.098854077606006)"><rect x="21.6855411529541" y="23.0966796875" width="2" height="3" rx="0" fill="#000000" fill-opacity="1"/></g><g transform="matrix(0.7071067690849304,-0.7071067690849304,0.7071067690849304,0.7071067690849304,-14.843249818106415,11.7648336669954)"><rect x="6.77978515625" y="23.7998046875" width="3" height="2" rx="0" fill="#000000" fill-opacity="1"/></g><g><rect x="4" y="30" width="24" height="2" rx="0" fill="#000000" fill-opacity="1"/></g><g><rect x="4" y="0" width="24" height="2" rx="0" fill="#000000" fill-opacity="1"/></g><g><path d="M16,10C12.68629,10,10,12.68629,10,16C10,19.31371,12.68629,22,16,22C19.31371,22,22,19.31371,22,16C22,12.68629,19.31371,10,16,10ZM12,16C12,13.79086,13.79086,12,16,12L16,20C13.79086,20,12,18.209139999999998,12,16Z" fill="#000000" fill-opacity="1"/></g><g></g></g></svg>