<svg xmlns="http://www.w3.org/2000/svg" xmlns:xlink="http://www.w3.org/1999/xlink" fill="none" version="1.1" width="32" height="32" viewBox="0 0 32 32"><defs><clipPath id="master_svg0_134_23794"><rect x="0" y="0" width="32" height="32" rx="0"/></clipPath></defs><g clip-path="url(#master_svg0_134_23794)"><g><path d="M29.3164,8.051299560890197L11.3164,2.0513000608901977C11.00504,1.9474750608901978,10.66255,2.0030489008901977,10.4,2.199999560890198L4,6.999999560890198L4,1.9999999999901978L2,1.9999999999901978L2,30.000039560890198L4,30.000039560890198L4,10.999999560890197L10.4,15.800039560890198C10.66254,15.997039560890197,11.00508,16.052739560890195,11.3165,15.948939560890198L29.3165,9.948899560890197C29.7249,9.812799560890198,30.0003,9.430649560890199,30.0003,9.000199560890199C30.0003,8.569749560890198,29.7249,8.187599560890199,29.3164,8.051299560890197ZM10,13.000039560890198L4.6665,8.999999560890199L10,4.999999560890197L10,13.000039560890198ZM14,12.945839560890198L12,13.612839560890198L12,4.387199560890197L14,5.054199560890198L14,12.945839560890198ZM18,11.612799560890197L16,12.279339560890199L16,5.720699560890198L18,6.387199560890198L18,11.612799560890197ZM20,10.945799560890197L20,7.054199560890198L25.8379,8.999999560890199L20,10.945799560890197Z" fill="#000000" fill-opacity="1"/></g><g><path d="M20,22C20,19.79086,18.2091,18,16,18C13.79086,18,12,19.79086,12,22L14,22C14,20.89543,14.895430000000001,20,16,20C17.104570000000002,20,18,20.89543,18,22C18,23.10457,17.104570000000002,24,16,24L8,24L8,26L16,26C18.2081,25.99752,19.997500000000002,24.208109999999998,20,22Z" fill="#000000" fill-opacity="1"/></g><g><path d="M26,22C23.7919,22.00247955,22.002499999999998,23.79189,22,26L24,26C24,24.89543,24.895400000000002,24,26,24C27.104599999999998,24,28,24.89543,28,26C28,27.10457,27.104599999999998,28,26,28L12,28L12,30L26,30C28.2091,30,30,28.209139999999998,30,26C30,23.79086,28.2091,22,26,22Z" fill="#000000" fill-opacity="1"/></g><g></g></g></svg>