<svg xmlns="http://www.w3.org/2000/svg" xmlns:xlink="http://www.w3.org/1999/xlink" fill="none" version="1.1" width="32" height="32" viewBox="0 0 32 32"><defs><clipPath id="master_svg0_134_23881"><rect x="0" y="0" width="32" height="32" rx="0"/></clipPath></defs><g clip-path="url(#master_svg0_134_23881)"><g><path d="M18,28L18,26C23.52285,26,28,21.52285,28,16L30,16C30,22.62742,24.62742,28,18,28Z" fill="#000000" fill-opacity="1"/></g><g><path d="M18,23L18,21C20.76142,21,23,18.76142,23,16L25,16C25,19.86599,21.86599,23,18,23Z" fill="#000000" fill-opacity="1"/></g><g><path d="M26.999960421562196,11L20.999960421562196,11L20.999960421562196,7C20.999960421562196,5.34315,19.656860421562193,4,17.999960421562196,4L11.999960421562195,4C10.343140421562195,4,9.000000421562195,5.34315,9.000000421562195,7L9.000000421562195,11L3.000000421562195,11C2.3833924215621947,10.99302,1.907463521562195,11.54033,2.0000000215621947,12.15L3.880000421562195,24.3C4.029540421562195,25.2861,4.882710421562194,26.0113,5.880000421562195,26L14.999960421562195,26L14.999960421562195,24L5.860000421562194,24L4.170000421562195,13L26.999960421562196,13L26.999960421562196,11ZM11.000000421562195,7C11.000000421562195,6.44772,11.447710421562196,6,11.999960421562195,6L17.999960421562196,6C18.552260421562195,6,18.999960421562196,6.44772,18.999960421562196,7L18.999960421562196,11L11.000000421562195,11L11.000000421562195,7Z" fill="#000000" fill-opacity="1"/></g><g></g></g></svg>