<svg xmlns="http://www.w3.org/2000/svg" xmlns:xlink="http://www.w3.org/1999/xlink" fill="none" version="1.1" width="32" height="32" viewBox="0 0 32 32"><defs><clipPath id="master_svg0_134_23910"><rect x="0" y="0" width="32" height="32" rx="0"/></clipPath></defs><g clip-path="url(#master_svg0_134_23910)"><g><path d="M16,17L16,25L6,25L6,17L16,17ZM16,15L6,15C4.895431,15,4,15.895431,4,17L4,25C4,26.104599999999998,4.895431,27,6,27L16,27C17.104599999999998,27,18,26.104599999999998,18,25L18,17C18,15.895431,17.104599999999998,15,16,15Z" fill="#000000" fill-opacity="1"/></g><g><path d="M27,6L27,11L17,11L17,6L27,6ZM27,4L17,4C15.895431,4,15,4.895431,15,6L15,11C15,12.10457,15.895431,13,17,13L27,13C28.104599999999998,13,29,12.10457,29,11L29,6C29,4.895431,28.104599999999998,4,27,4Z" fill="#000000" fill-opacity="1"/></g><g><path d="M27,17L27,22L22,22L22,17L27,17ZM27,15L22,15C20.89543,15,20,15.895431,20,17L20,22C20,23.104570000000002,20.89543,24,22,24L27,24C28.104570000000002,24,29,23.104570000000002,29,22L29,17C29,15.895431,28.104570000000002,15,27,15Z" fill="#000000" fill-opacity="1"/></g><g><path d="M11,6L11,11L6,11L6,6L11,6ZM11,4L6,4C4.89543,4,4,4.895431,4,6L4,11C4,12.10457,4.89543,13,6,13L11,13C12.10457,13,13,12.10457,13,11L13,6C13,4.895431,12.10457,4,11,4Z" fill="#000000" fill-opacity="1"/></g><g><g></g></g></g></svg>