<svg xmlns="http://www.w3.org/2000/svg" xmlns:xlink="http://www.w3.org/1999/xlink" fill="none" version="1.1" width="32" height="32" viewBox="0 0 32 32"><defs><clipPath id="master_svg0_134_23927"><rect x="0" y="0" width="32" height="32" rx="0"/></clipPath></defs><g clip-path="url(#master_svg0_134_23927)"><g><path d="M26.5859,17.0000004921875L22,21.5858944921875L17,16.5858994921875C16.2185,15.8058384921875,14.95293,15.8058384921875,14.1714,16.5858994921875L9.585,21.1709044921875C8.80521,21.9527344921875,8.80521,23.2181644921875,9.585,24.0000044921875L13.585899999999999,27.9999544921875L6,27.9999544921875L6,29.9999544921875L16,29.9999544921875C16.404400000000003,29.9999544921875,16.768900000000002,29.7562544921875,16.9237,29.3826544921875C17.078400000000002,29.009054492187502,16.9929,28.5789544921875,16.707,28.292954492187498L11,22.584994492187498L15.5852,18.0000044921875L21.293,23.7070044921875C21.6834,24.097664492187498,22.3166,24.097664492187498,22.707,23.7070044921875L28,18.4141044921875L26.5859,17.0000004921875Z" fill="#000000" fill-opacity="1"/></g><g><path d="M21.500001907348633,17C19.567001907348633,17,18.000001907348633,15.433,18.000001907348633,13.5C18.000001907348633,11.567,19.567001907348633,10,21.500001907348633,10C23.433001907348633,10,25.000001907348633,11.567,25.000001907348633,13.5C24.997741907348633,15.43206,23.432061907348633,16.99774,21.500001907348633,17ZM21.500001907348633,12C20.671571907348632,12,20.000001907348633,12.67157,20.000001907348633,13.5C20.000001907348633,14.32843,20.671571907348632,15,21.500001907348633,15C22.328431907348634,15,23.000001907348633,14.32843,23.000001907348633,13.5C22.999061907348633,12.67196,22.328041907348634,12.00094,21.500001907348633,12Z" fill="#000000" fill-opacity="1"/></g><g><path d="M4,10.597696557998658L16,4.135696557998657L28.5264,10.880896557998657L29.4736,9.119096557998656L16.473599999999998,2.119100557998657C16.1777,1.9608952579986572,15.8223,1.9608952579986572,15.5264,2.119100557998657L2.526401,9.119096557998656C2.20222,9.293356557998656,2,9.631756557998656,2,9.999996557998656L2,30.000046557998658L4,30.000046557998658L4,10.597696557998658Z" fill="#000000" fill-opacity="1"/></g><g></g></g></svg>