<svg xmlns="http://www.w3.org/2000/svg" xmlns:xlink="http://www.w3.org/1999/xlink" fill="none" version="1.1" width="32" height="32" viewBox="0 0 32 32"><defs><clipPath id="master_svg0_134_23934"><rect x="0" y="0" width="32" height="32" rx="0"/></clipPath></defs><g clip-path="url(#master_svg0_134_23934)"><g><path d="M17,30L15,30C13.89591,29.9988,13.001159999999999,29.1041,13,28L13,14L8,14C6.89591,13.9988,6.00115776,13.1041,6,12L6,10C6.00115776,8.89591,6.89591,8.001159999999999,8,8L13,8L13,4C13.001159999999999,2.8959099999999998,13.89591,2.00115776,15,2L17,2C18.104100000000003,2.00115728,18.9988,2.8959099999999998,19,4L19,8L24,8C25.1041,8.001159999999999,25.9988,8.89591,26,10L26,12C25.9988,13.1041,25.1041,13.9988,24,14L19,14L19,28C18.9988,29.1041,18.104100000000003,29.9988,17,30ZM8,10L8,12L15,12L15,28L17,28L17,12L24,12L24,10L17,10L17,4L15,4L15,10L8,10Z" fill="#000000" fill-opacity="1"/></g><g></g></g></svg>