<svg xmlns="http://www.w3.org/2000/svg" xmlns:xlink="http://www.w3.org/1999/xlink" fill="none" version="1.1" width="32" height="32" viewBox="0 0 32 32"><defs><clipPath id="master_svg0_134_23955"><rect x="0" y="0" width="32" height="32" rx="0"/></clipPath></defs><g clip-path="url(#master_svg0_134_23955)"><g><path d="M28,23L22,23L22,21L28,21L28,17L24,17C22.895885,16.9989,22.00110054,16.10411,22,15L22,11C22.00110054,9.895887,22.895887,9.00110245,24,9L30,9L30,11L24,11L24,15L28,15C29.10411,15.001100000000001,29.9989,15.89589,30,17L30,21C29.998730000000002,22.104,29.10404,22.9987,28,23Z" fill="#000000" fill-opacity="1"/></g><g><path d="M14,21L14,9L12,9L12,23L20,23L20,21L14,21Z" fill="#000000" fill-opacity="1"/></g><g><path d="M10,9L8,9L6,15L4,9L2,9L4.752,16L2,23L4,23L6,17L8,23L10,23L7.245,16L10,9Z" fill="#000000" fill-opacity="1"/></g><g></g></g></svg>