<svg xmlns="http://www.w3.org/2000/svg" xmlns:xlink="http://www.w3.org/1999/xlink" fill="none" version="1.1" width="32" height="32" viewBox="0 0 32 32"><defs><clipPath id="master_svg0_134_23974"><rect x="0" y="0" width="32" height="32" rx="0"/></clipPath></defs><g clip-path="url(#master_svg0_134_23974)"><g><path d="M26,22L26,25.586L17,16.586L17,10L17,6L17,5.827999999999999L19.586,8.414L21,7L16,2L11,7L12.414,8.414L15,5.827999999999999L15,6L15,10L15,16.586L6,25.586L6,22L4,22L4,29L11,29L11,27L7.414,27L16,18.414L24.586,27L21,27L21,29L28,29L28,22L26,22Z" fill="#000000" fill-opacity="1"/></g><g></g></g></svg>