<svg xmlns="http://www.w3.org/2000/svg" xmlns:xlink="http://www.w3.org/1999/xlink" fill="none" version="1.1" width="32" height="32" viewBox="0 0 32 32"><defs><clipPath id="master_svg0_134_23994"><rect x="0" y="0" width="32" height="32" rx="0"/></clipPath></defs><g clip-path="url(#master_svg0_134_23994)"><g><path d="M24,10L28,10C29.1046,10,30,9.1046,30,8L30,4C30,2.8954,29.1046,2,28,2L24,2C22.8954,2,22,2.8954,22,4L22,5L19,5C17.895400000000002,5,17,5.8954,17,7L17,15L14,15L14,5C14,3.8954,13.1046,3,12,3L4,3C2.8954,3,2,3.8954,2,5L2,27C2,28.1046,2.8954,29,4,29L12,29C13.1046,29,14,28.1046,14,27L14,17L17,17L17,25C17,26.1046,17.895400000000002,27,19,27L22,27L22,28C22,29.1046,22.8954,30,24,30L28,30C29.1046,30,30,29.1046,30,28L30,24C30,22.8954,29.1046,22,28,22L24,22C22.8954,22,22,22.8954,22,24L22,25L19,25L19,17L22,17L22,18C22,19.1046,22.8954,20,24,20L28,20C29.1046,20,30,19.1046,30,18L30,14C30,12.8954,29.1046,12,28,12L24,12C22.8954,12,22,12.8954,22,14L22,15L19,15L19,7L22,7L22,8C22,9.1046,22.8954,10,24,10ZM24,4L28,4L28,8L24,8L24,4ZM11.3992,12L4,17.9194L4,6.0806L11.3992,12ZM12.0005,14.0801L12.0012,25.9204L4.6008,20L12.0005,14.0801ZM12.0003,9.9195L5.8508,5L12,5L12.0003,9.9195ZM4,22.0806L10.1492,27L4,27L4,22.0806ZM24,24L28,24L28,28L24,28L24,24ZM24,14L28,14L28,18L24,18L24,14Z" fill="#000000" fill-opacity="1"/></g><g></g></g></svg>