<svg xmlns="http://www.w3.org/2000/svg" xmlns:xlink="http://www.w3.org/1999/xlink" fill="none" version="1.1" width="16" height="16" viewBox="0 0 16 16"><defs><clipPath id="master_svg0_134_08833"><rect x="0" y="0" width="16" height="16" rx="0"/></clipPath></defs><g clip-path="url(#master_svg0_134_08833)"><g><rect x="4" y="6" width="5" height="1" rx="0" fill="#000000" fill-opacity="1"/></g><g><path d="M10.7,10C11.5,9,12,7.8,12,6.5C12,3.5,9.5,1,6.5,1C3.5,1,1,3.5,1,6.5C1,9.5,3.5,12,6.5,12C7.8,12,9,11.5,10,10.7L13.8,14.5L14.5,13.8L10.7,10ZM6.5,11C4,11,2,9,2,6.5C2,4,4,2,6.5,2C9,2,11,4,11,6.5C11,9,9,11,6.5,11Z" fill="#000000" fill-opacity="1"/></g><g></g></g></svg>