<svg xmlns="http://www.w3.org/2000/svg" xmlns:xlink="http://www.w3.org/1999/xlink" fill="none" version="1.1" width="32" height="32" viewBox="0 0 32 32"><defs><clipPath id="master_svg0_134_24009"><rect x="0" y="0" width="32" height="32" rx="0"/></clipPath></defs><g clip-path="url(#master_svg0_134_24009)"><g><path d="M21.4479,20C23.0977,18.0408,24.0017,15.5613,24,13C24,6.92487,19.0751,2,13,2C6.92487,2,2,6.92487,2,13C2,19.0751,6.92487,24,13,24C15.5613,24.0017,18.0408,23.0977,20,21.4479L27.5859,29L29,27.5859L21.4479,20ZM13,22C8.029440000000001,22,4,17.970599999999997,4,13C4,8.029440000000001,8.029440000000001,4,13,4C17.970599999999997,4,22,8.029440000000001,22,13C21.9945,17.9683,17.9683,21.9945,13,22Z" fill="#000000" fill-opacity="1"/></g><g><path d="M10,12L8,12L8,10C8.00126743,8.895956,8.895956,8.00126839,10,8L12,8L12,10L10,10L10,12Z" fill="#000000" fill-opacity="1"/></g><g><path d="M18,12L16,12L16,10L14,10L14,8L16,8C17.10404,8.00126743,17.998730000000002,8.895956,18,10L18,12Z" fill="#000000" fill-opacity="1"/></g><g><path d="M12,18L10,18C8.895956,17.998730000000002,8.00126743,17.10404,8,16L8,14L10,14L10,16L12,16L12,18Z" fill="#000000" fill-opacity="1"/></g><g><path d="M16,18L14,18L14,16L16,16L16,14L18,14L18,16C17.998730000000002,17.10404,17.10404,17.998730000000002,16,18Z" fill="#000000" fill-opacity="1"/></g><g></g></g></svg>