<svg xmlns="http://www.w3.org/2000/svg" xmlns:xlink="http://www.w3.org/1999/xlink" fill="none" version="1.1" width="32" height="32" viewBox="0 0 32 32"><defs><clipPath id="master_svg0_134_24270"><rect x="0" y="0" width="32" height="32" rx="0"/></clipPath></defs><g clip-path="url(#master_svg0_134_24270)"><g><path d="M17.00001947784424,10.999998539505006C17.00001947784424,9.343148539505005,18.343119477844237,7.999998539505005,20.000019477844237,7.999998539505005L20.10001947784424,7.999998539505005C20.811219477844237,11.484408539505004,24.83011947784424,13.133438539505004,27.783719477844237,11.152708539505005C30.737419477844238,9.172018539505004,30.737419477844238,4.827978539505005,27.783719477844237,2.8472965395050047C24.83011947784424,0.8666085395050049,20.811219477844237,2.515594539505005,20.10001947784424,5.999998539505005L20.000019477844237,5.999998539505005C17.23861947784424,5.999998539505005,15.000019477844239,8.238578539505005,15.000019477844239,10.999998539505006L15.000019477844239,12.000038539505004L13.000019477844239,12.000038539505004C11.343149477844237,12.000038539505004,9.999999477844238,10.656858539505006,9.999999477844238,8.999998539505004L9.999999477844238,6.999998539505005C9.999999477844238,4.238578539505005,7.761419477844238,1.9999999995050048,4.999999477844238,1.9999999995050048L3.9999994778442383,1.9999999995050048L3.9999994778442383,3.999998539505005L4.999999477844238,3.999998539505005C6.656859477844239,3.999998539505005,7.999999477844239,5.343148539505005,7.999999477844239,6.999998539505005L7.999999477844239,8.999998539505004C7.999999477844239,11.761428539505005,10.238579477844238,14.000038539505004,13.000019477844239,14.000038539505004L15.000019477844239,14.000038539505004L15.000019477844239,21.000038539505006C15.000019477844239,22.656838539505006,13.656819477844238,24.000038539505006,11.999999477844238,24.000038539505006L11.899999477844238,24.000038539505006C11.188749477844238,20.515638539505005,7.169849477844238,18.866638539505004,4.216229477844238,20.847338539505007C1.2626154778442382,22.827938539505006,1.2626154778442382,27.172038539505007,4.216229477844238,29.152738539505005C7.169849477844238,31.133338539505004,11.188749477844238,29.484438539505003,11.899999477844238,26.000038539505006L11.999999477844238,26.000038539505006C14.761419477844239,26.000038539505006,17.00001947784424,23.761438539505004,17.00001947784424,21.000038539505006L19.500019477844237,21.000038539505006C20.880719477844238,21.000038539505006,22.000019477844237,22.119338539505005,22.000019477844237,23.500038539505006C22.00551947784424,25.983038539505007,24.017019477844237,27.994538539505005,26.500019477844237,28.000038539505006L28.000019477844237,28.000038539505006L28.000019477844237,26.000038539505006L26.500019477844237,26.000038539505006C25.11931947784424,26.000038539505006,24.000019477844237,24.880738539505003,24.000019477844237,23.500038539505006C23.99451947784424,21.017038539505005,21.983019477844238,19.005538539505004,19.500019477844237,19.000038539505006L17.00001947784424,19.000038539505006L17.00001947784424,10.999998539505006ZM25.000019477844237,3.999998539505005C26.656819477844238,3.999998539505005,28.000019477844237,5.343148539505005,28.000019477844237,6.999998539505005C28.000019477844237,8.656858539505006,26.656819477844238,9.999998539505006,25.000019477844237,9.999998539505006C23.343119477844237,9.999998539505006,22.000019477844237,8.656858539505006,22.000019477844237,6.999998539505005C22.000019477844237,5.343148539505005,23.343119477844237,3.999998539505005,25.000019477844237,3.999998539505005ZM6.999999477844239,28.000038539505006C5.343149477844238,28.000038539505006,3.9999994778442383,26.656838539505006,3.9999994778442383,25.000038539505006C3.9999994778442383,23.343138539505006,5.343149477844238,22.000038539505006,6.999999477844239,22.000038539505006C8.65685947784424,22.000038539505006,9.999999477844238,23.343138539505006,9.999999477844238,25.000038539505006C9.999999477844238,26.656838539505006,8.65685947784424,28.000038539505006,6.999999477844239,28.000038539505006Z" fill="#000000" fill-opacity="1"/></g><g></g></g></svg>