<svg xmlns="http://www.w3.org/2000/svg" xmlns:xlink="http://www.w3.org/1999/xlink" fill="none" version="1.1" width="32" height="32" viewBox="0 0 32 32"><defs><clipPath id="master_svg0_134_08941"><rect x="0" y="0" width="32" height="32" rx="0"/></clipPath></defs><g clip-path="url(#master_svg0_134_08941)"><g><path d="M12,11.029999732971191L12,15.029999732971191L10,15.029999732971191L10,11.029999732971191L8,11.029999732971191L8,17.02999973297119L12,17.02999973297119L12,21.02999973297119L14,21.02999973297119L14,11.029999732971191L12,11.029999732971191Z" fill="#000000" fill-opacity="1"/></g><g><path d="M24.19,11.029999732971191L22,11.029999732971191L19,15.419999732971192L19,11.029999732971191L17,11.029999732971191L17,21.02999973297119L19,21.02999973297119L19,18.29999973297119L19.91,16.969999732971193L22,21.02999973297119L24.19,21.02999973297119L21.2,15.40999973297119L24.19,11.029999732971191Z" fill="#000000" fill-opacity="1"/></g><g><path d="M28,26L4,26C2.895431,26,2,25.1046,2,24L2,8C2,6.895431,2.895431,6,4,6L28,6C29.1046,6,30,6.895431,30,8L30,24C30,25.1046,29.1046,26,28,26ZM4,8L4,24L28,24L28,8L4,8Z" fill="#000000" fill-opacity="1"/></g><g></g></g></svg>