<svg xmlns="http://www.w3.org/2000/svg" xmlns:xlink="http://www.w3.org/1999/xlink" fill="none" version="1.1" width="32" height="32" viewBox="0 0 32 32"><defs><clipPath id="master_svg0_134_08953"><rect x="0" y="0" width="32" height="32" rx="0"/></clipPath></defs><g clip-path="url(#master_svg0_134_08953)"><g><path d="M29.54999470977783,26.11L26.49999470977783,27.63L23.65999470977783,21L14.999994709777832,21C13.895394709777833,21,12.999994709777832,20.104599999999998,12.999994709777832,19L12.999994709777832,13C12.999994709777832,11.895430000000001,13.895394709777833,11,14.999994709777832,11C16.10459470977783,11,16.99999470977783,11.895430000000001,16.99999470977783,13L16.99999470977783,17L23.99999470977783,17L23.99999470977783,15L18.99999470977783,15L18.99999470977783,13C18.99999470977783,10.79086,17.20909470977783,9,14.999994709777832,9C12.790894709777833,9,11.000004709777832,10.79086,11.000004709777832,13L11.000004709777832,14C6.289354709777832,13.997399999999999,2.373656709777832,17.627670000000002,2.0203824097778322,22.325C1.667108709777832,27.0224,4.995794709777832,31.1975,9.653834709777833,31.8995C14.311894709777832,32.6015,18.723194709777832,29.5929,19.769994709777833,25L17.70999470977783,25C16.68019470977783,28.4541,13.195894709777832,30.5615,9.658604709777832,29.8699C6.121274709777832,29.1783,3.687344709777832,25.9137,4.034304709777832,22.3262C4.381264709777832,18.738590000000002,7.395704709777832,16.00093,11.000004709777832,16L11.000004709777832,19C11.000004709777832,21.2091,12.790894709777833,23,14.999994709777832,23L22.339994709777834,23L25.49999470977783,30.37L30.449994709777833,27.89L29.54999470977783,26.11Z" fill="#000000" fill-opacity="1"/></g><g><path d="M15.500000953674316,8.000000357627869C13.567000953674317,8.000000357627869,12.000000953674316,6.4330003576278685,12.000000953674316,4.500000357627869C12.000000953674316,2.567000357627869,13.567000953674317,1.0000003576278687,15.500000953674316,1.0000003576278687C17.433000953674316,1.0000003576278687,19.000000953674316,2.567000357627869,19.000000953674316,4.500000357627869C19.000000953674316,6.4330003576278685,17.433000953674316,8.000000357627869,15.500000953674316,8.000000357627869ZM15.500000953674316,3.0000003576278687C14.671570953674316,3.0000003576278687,14.000000953674316,3.6715703576278687,14.000000953674316,4.500000357627869C14.000000953674316,5.328430357627869,14.671570953674316,6.000000357627869,15.500000953674316,6.000000357627869C16.328430953674317,6.000000357627869,17.000000953674316,5.328430357627869,17.000000953674316,4.500000357627869C17.000000953674316,3.6715703576278687,16.328430953674317,3.0000003576278687,15.500000953674316,3.0000003576278687Z" fill="#000000" fill-opacity="1"/></g><g></g></g></svg>