<svg xmlns="http://www.w3.org/2000/svg" xmlns:xlink="http://www.w3.org/1999/xlink" fill="none" version="1.1" width="32" height="32" viewBox="0 0 32 32"><defs><clipPath id="master_svg0_134_08959"><rect x="0" y="0" width="32" height="32" rx="0"/></clipPath></defs><g clip-path="url(#master_svg0_134_08959)"><g><path d="M23,14L23,12L9,12L9,14L14,14L14,16.734L10.132,23.503999999999998L11.868,24.496000000000002L15.58,18L16.42,18L20.131999999999998,24.496000000000002L21.868000000000002,23.503999999999998L18,16.734L18,14L23,14Z" fill="#000000" fill-opacity="1"/></g><g><ellipse cx="16" cy="9" rx="2" ry="2" fill="#000000" fill-opacity="1"/></g><g><path d="M16,30C8.26801,30,2,23.732,2,16C2,8.26801,8.26801,2,16,2C23.732,2,30,8.26801,30,16C29.9913,23.7284,23.7284,29.9913,16,30ZM16,4C9.37258,4,4,9.37258,4,16C4,22.6274,9.37258,28,16,28C22.6274,28,28,22.6274,28,16C27.9925,9.37571,22.6243,4.00755,16,4Z" fill="#000000" fill-opacity="1"/></g><g></g></g></svg>