<svg xmlns="http://www.w3.org/2000/svg" xmlns:xlink="http://www.w3.org/1999/xlink" fill="none" version="1.1" width="32" height="32" viewBox="0 0 32 32"><defs><clipPath id="master_svg0_134_08973"><rect x="0" y="0" width="32" height="32" rx="0"/></clipPath></defs><g clip-path="url(#master_svg0_134_08973)"><g><path d="M16.000000119018555,10C12.337900119018554,10.0988226,9.140670119018555,12.50734,8.035200119018555,16C9.140670119018555,19.49266,12.337900119018554,21.9012,16.000000119018555,22C19.662100119018554,21.9012,22.859300119018556,19.49266,23.964800119018555,16C22.859300119018556,12.50734,19.662100119018554,10.0988226,16.000000119018555,10ZM16.000000119018555,20C13.790860119018554,20,12.000000119018555,18.209139999999998,12.000000119018555,16C12.000000119018555,13.79086,13.790860119018554,12,16.000000119018555,12C18.209100119018554,12,20.000000119018555,13.79086,20.000000119018555,16C19.997500119018554,18.208109999999998,18.208100119018553,19.99752,16.000000119018555,20Z" fill="#000000" fill-opacity="1"/></g><g><path d="M16,2C8.26801,2,2,8.26801,2,16C2,23.732,8.26801,30,16,30C23.732,30,30,23.732,30,16C30,8.26801,23.732,2,16,2ZM16,24C11.33667,23.8756,7.29657,20.732,6.03,16.2422L5.9692,16L6.0298,15.7578C7.29639,11.26798,11.3366,8.1243,16,8C20.6633,8.12439,24.7034,11.26805,25.97,15.7578L26.0308,16L25.9702,16.2422C24.7036,20.732,20.6634,23.8757,16,24Z" fill="#000000" fill-opacity="1"/></g><g><ellipse cx="16" cy="16" rx="2" ry="2" fill="#000000" fill-opacity="1"/></g><g></g><g></g><g></g></g></svg>