<svg xmlns="http://www.w3.org/2000/svg" xmlns:xlink="http://www.w3.org/1999/xlink" fill="none" version="1.1" width="32" height="32" viewBox="0 0 32 32"><defs><clipPath id="master_svg0_134_09011"><rect x="0" y="0" width="32" height="32" rx="0"/></clipPath></defs><g clip-path="url(#master_svg0_134_09011)"><g><rect x="12" y="2" width="2" height="2" rx="0" fill="#000000" fill-opacity="1"/></g><g><rect x="14" y="4" width="2" height="2" rx="0" fill="#000000" fill-opacity="1"/></g><g><rect x="16" y="6" width="2" height="2" rx="0" fill="#000000" fill-opacity="1"/></g><g><rect x="16" y="2" width="2" height="2" rx="0" fill="#000000" fill-opacity="1"/></g><g><rect x="12" y="6" width="2" height="2" rx="0" fill="#000000" fill-opacity="1"/></g><g><rect x="14" y="18" width="2" height="2" rx="0" fill="#000000" fill-opacity="1"/></g><g><rect x="16" y="20" width="2" height="2" rx="0" fill="#000000" fill-opacity="1"/></g><g><rect x="18" y="22" width="2" height="2" rx="0" fill="#000000" fill-opacity="1"/></g><g><rect x="18" y="18" width="2" height="2" rx="0" fill="#000000" fill-opacity="1"/></g><g><rect x="14" y="22" width="2" height="2" rx="0" fill="#000000" fill-opacity="1"/></g><g><rect x="18" y="10" width="2" height="2" rx="0" fill="#000000" fill-opacity="1"/></g><g><rect x="20" y="12" width="2" height="2" rx="0" fill="#000000" fill-opacity="1"/></g><g><rect x="22" y="14" width="2" height="2" rx="0" fill="#000000" fill-opacity="1"/></g><g><rect x="22" y="10" width="2" height="2" rx="0" fill="#000000" fill-opacity="1"/></g><g><rect x="18" y="14" width="2" height="2" rx="0" fill="#000000" fill-opacity="1"/></g><g><path d="M28,4C26.896,4.00126839,26.0013,4.895956,26,6L26,26L6,26L6,22L10,22L10,20L6,20L6,16L10,16L10,14L6,14L6,10L10,10L10,8L6,8L6,6C5.99873,4.895956,5.1040399999999995,4.00126743,4,4L2,4L2,6L4,6L4,26C4.00127,27.104,4.8959600000000005,27.9987,6,28L26,28C27.104,27.9987,27.9987,27.104,28,26L28,6L30,6L30,4L28,4Z" fill="#000000" fill-opacity="1"/></g><g></g></g></svg>