<svg xmlns="http://www.w3.org/2000/svg" xmlns:xlink="http://www.w3.org/1999/xlink" fill="none" version="1.1" width="32" height="32" viewBox="0 0 32 32"><defs><clipPath id="master_svg0_134_24423"><rect x="0" y="0" width="32" height="32" rx="0"/></clipPath></defs><g clip-path="url(#master_svg0_134_24423)"><g><rect x="11" y="24" width="10" height="2" rx="0" fill="#000000" fill-opacity="1"/></g><g><rect x="13" y="28" width="6" height="2" rx="0" fill="#000000" fill-opacity="1"/></g><g><path d="M10.814502114562988,18.1406C8.912682114562989,16.689799999999998,7.857542114562988,14.3878,8.000002114562989,12C8.005072114562989,7.58382,11.583822114562988,4.00507,15.999972114562988,4L15.999972114562988,2C10.479692114562988,2.00611687,6.006116414562988,6.47969,6.000000014562988,12C5.8622791145629884,14.9473,7.149662114562989,17.781100000000002,9.460002114562988,19.6162C10.471702114562987,20.5508,11.000002114562989,21.0815,11.000002114562989,22L13.000002114562989,22C13.000002114562989,20.16,11.889202114562988,19.1338,10.814502114562988,18.1406Z" fill="#000000" fill-opacity="1"/></g><g><path d="M23.04,16C22.53022,16.803572,21.90243,17.52586,21.1777,18.1426C20.1069,19.1348,19,20.1611,19,22L21,22C21,21.0806,21.5264,20.55,22.5352,19.6143C23.71386,18.63573,24.651519999999998,17.39906,25.2756,16L23.04,16Z" fill="#000000" fill-opacity="1"/></g><g><path d="M30,8C30,4.68629,27.31371,2,24,2C20.68629,2,18,4.68629,18,8C18,11.31371,20.68629,14,24,14C27.3122,13.9964,29.9964,11.3122,30,8ZM28,8C27.996290000000002,8.71177,27.80043,9.40933,27.4331,10.019L21.981,4.5669C22.590690000000002,4.1996,23.28823,4.00375,24,4C26.208109999999998,4.00248,27.99752,5.79189,28,8ZM20,8C20.003709999999998,7.28823,20.19957,6.59067,20.5669,5.981L26.019,11.4331C25.40932,11.80039,24.71177,11.99625,24,12C21.79189,11.99752,20.00248,10.20811,20,8Z" fill="#000000" fill-opacity="1"/></g><g></g></g></svg>