<svg xmlns="http://www.w3.org/2000/svg" xmlns:xlink="http://www.w3.org/1999/xlink" fill="none" version="1.1" width="32" height="32" viewBox="0 0 32 32"><defs><clipPath id="master_svg0_134_24401"><rect x="0" y="0" width="32" height="32" rx="0"/></clipPath></defs><g clip-path="url(#master_svg0_134_24401)"><g><rect x="11" y="24" width="10" height="2" rx="0" fill="#000000" fill-opacity="1"/></g><g><rect x="13" y="28" width="6" height="2" rx="0" fill="#000000" fill-opacity="1"/></g><g><path d="M10.814502114562988,18.1406C8.912682114562989,16.689799999999998,7.857542114562988,14.3878,8.000002114562989,12C8.005072114562989,7.58382,11.583822114562988,4.00507,15.999972114562988,4L15.999972114562988,2C10.479692114562988,2.00611687,6.006116414562988,6.47969,6.000000014562988,12C5.8622791145629884,14.9473,7.149662114562989,17.781100000000002,9.460002114562988,19.6162C10.471702114562987,20.5508,11.000002114562989,21.0815,11.000002114562989,22L13.000002114562989,22C13.000002114562989,20.16,11.889202114562988,19.1338,10.814502114562988,18.1406Z" fill="#000000" fill-opacity="1"/></g><g><path d="M21.1777,18.1426C20.1069,19.1348,19,20.161099999999998,19,22L21,22C21,21.0806,21.5264,20.55,22.5352,19.6143C24.84495,17.77915,26.13368,14.94701,26,12L24,12C24.13807,14.389240000000001,23.08048,16.69105,21.1777,18.1426Z" fill="#000000" fill-opacity="1"/></g><g><ellipse cx="18.5" cy="7.5" rx="1.5" ry="1.5" fill="#000000" fill-opacity="1"/></g><g><ellipse cx="28.5" cy="7.5" rx="1.5" ry="1.5" fill="#000000" fill-opacity="1"/></g><g><ellipse cx="23.5" cy="7.5" rx="1.5" ry="1.5" fill="#000000" fill-opacity="1"/></g><g></g></g></svg>