<svg xmlns="http://www.w3.org/2000/svg" xmlns:xlink="http://www.w3.org/1999/xlink" fill="none" version="1.1" width="32" height="32" viewBox="0 0 32 32"><defs><clipPath id="master_svg0_134_09114"><rect x="0" y="0" width="32" height="32" rx="0"/></clipPath></defs><g clip-path="url(#master_svg0_134_09114)"><g><path d="M18,23L16,23L16,21C15.9982,19.3439,14.6561,18.00182,13,18L9,18C7.3439,18.00182,6.00182,19.3439,6,21L6,23L4,23L4,21C4.00319672,18.2399,6.2399000000000004,16.00319672,9,16L13,16C15.7601,16.00325203,17.9967,18.23993,18,21L18,23Z" fill="#000000" fill-opacity="1"/></g><g><path d="M11,6C12.65685,6,14,7.34315,14,9C14,10.65685,12.65685,12,11,12C9.34315,12,8,10.65685,8,9C8,7.34315,9.34315,6,11,6ZM11,4C8.238579999999999,4,6,6.23858,6,9C6,11.761420000000001,8.238579999999999,14,11,14C13.761420000000001,14,16,11.761420000000001,16,9C16,6.23858,13.761420000000001,4,11,4Z" fill="#000000" fill-opacity="1"/></g><g><rect x="2" y="26.000099182128906" width="28" height="2" rx="0" fill="#000000" fill-opacity="1"/></g><g><path d="M31.9658,11.741299999999999C31.822499999999998,11.2082,31.2745,10.89186,30.7412,11.0343L27.655099999999997,11.860299999999999L24,7L23,7.2676L24.4584,12.715900000000001L21.6921,13.4564L20,11.2066L19,11.4742L19.933701,14.9625C20.07636,15.49611,20.624859999999998,15.81277,21.1583,15.6695L31.2588,12.965900000000001C31.7922,12.82291,32.1087,12.27469,31.9658,11.741299999999999Z" fill="#000000" fill-opacity="1"/></g><g></g></g></svg>