<svg xmlns="http://www.w3.org/2000/svg" xmlns:xlink="http://www.w3.org/1999/xlink" fill="none" version="1.1" width="32" height="32" viewBox="0 0 32 32"><defs><clipPath id="master_svg0_134_09210"><rect x="0" y="0" width="32" height="32" rx="0"/></clipPath></defs><g clip-path="url(#master_svg0_134_09210)"><g><path d="M26,30L6,30C4.895956,29.9987,4.00126839,29.104,4,28L4,4C4.00126696,2.895956,4.895956,2.00126719,6,2L26,2C27.104,2.00126767,27.9987,2.895956,28,4L28,28C27.9987,29.104,27.104,29.9987,26,30ZM6,4L6,28L26,28L26,4L6,4Z" fill="#000000" fill-opacity="1"/></g><g><rect x="9" y="18" width="11" height="2" rx="0" fill="#000000" fill-opacity="1"/></g><g><rect x="9" y="23" width="7" height="2" rx="0" fill="#000000" fill-opacity="1"/></g><g></g></g></svg>