<svg xmlns="http://www.w3.org/2000/svg" xmlns:xlink="http://www.w3.org/1999/xlink" fill="none" version="1.1" width="32" height="32" viewBox="0 0 32 32"><defs><clipPath id="master_svg0_134_09266"><rect x="0" y="0" width="32" height="32" rx="0"/></clipPath></defs><g clip-path="url(#master_svg0_134_09266)"><g><path d="M24,18L17,18L17,14L20,14C21.104,13.9986,21.9986,13.104,22,12L22,8C21.9986,6.896,21.104,6.00138,20,6L17,6L17,2L15,2L15,6L12,6C10.896,6.00138,10.001380000000001,6.896,10,8L10,12C10.001380000000001,13.104,10.896,13.9986,12,14L15,14L15,18L8,18C6.896002,18.0014,6.00137806,18.896,6,20L6,24C6.00137663,25.104,6.896001,25.9986,8,26L15,26L15,30L17,30L17,26L24,26C25.104,25.9986,25.9986,25.104,26,24L26,20C25.9986,18.896,25.104,18.0014,24,18ZM12,8L20,8L20,12L12,12L12,8ZM24,24L8,24L8,20L24,20L24,24Z" fill="#000000" fill-opacity="1"/></g><g></g></g></svg>