<svg xmlns="http://www.w3.org/2000/svg" xmlns:xlink="http://www.w3.org/1999/xlink" fill="none" version="1.1" width="32" height="32" viewBox="0 0 32 32"><defs><clipPath id="master_svg0_134_09278"><rect x="0" y="0" width="32" height="32" rx="0"/></clipPath></defs><g clip-path="url(#master_svg0_134_09278)"><g><path d="M4,24L4,20C4.00126839,18.895955999999998,4.895956,18.00126839,6,18L21,18C22.104,18.00127029,22.9987,18.895958,23,20L23,24C22.9987,25.10404,22.104,25.998730000000002,21,26L6,26C4.895956,25.998730000000002,4.00126648,25.10405,4,24ZM6,24L21,24L21,20L6,19.9988L6,24Z" fill="#000000" fill-opacity="1"/></g><g><path d="M12,12L12,8C12.00126743,6.895956,12.895956,6.00126743,14,6L21,6C22.104,6.00126839,22.9987,6.895956,23,8L23,12C22.9987,13.104040000000001,22.104,13.99873,21,14L14,14C12.895956,13.99873,12.00126743,13.104040000000001,12,12ZM14,12L21,12L21,8L14,7.9988L14,12Z" fill="#000000" fill-opacity="1"/></g><g transform="matrix(-1,-1.2246468525851679e-16,1.2246468525851679e-16,-1,56,60)"><rect x="28" y="30" width="2" height="28" rx="0" fill="#000000" fill-opacity="1"/></g><g transform="matrix(-1,-1.2246468525851679e-16,1.2246468525851679e-16,-1,64,64)"></g></g></svg>