<svg xmlns="http://www.w3.org/2000/svg" xmlns:xlink="http://www.w3.org/1999/xlink" fill="none" version="1.1" width="32" height="32" viewBox="0 0 32 32"><defs><clipPath id="master_svg0_134_09325"><rect x="0" y="0" width="32" height="32" rx="0"/></clipPath></defs><g clip-path="url(#master_svg0_134_09325)"><g><path d="M16,2C8.26801,2,2,8.26801,2,16C2,23.732,8.26801,30,16,30C23.732,30,30,23.732,30,16C30,8.26801,23.732,2,16,2ZM27.84,14.14L22,17.52L22,5.62C25.1319,7.43398,27.2778,10.56462,27.84,14.14ZM12,18.68L12,13.32L16,11L20,13.31L20,18.67L16,21L12,18.68ZM20,4.68L20,11L10.34,5.42C13.3122,3.82099,16.8236,3.55928,20,4.7L20,4.68ZM8.48,6.68L14,9.85L4,15.62C4.11567,12.123,5.75183,8.850719999999999,8.48,6.66L8.48,6.68ZM4.16,17.85L10,14.47L10,26.38C6.86562,24.5639,4.71938,21.4291,4.16,17.85ZM12,27.3L12,21L21.67,26.58C19.9271,27.5166,17.9786,28.0046,16,28C14.6367,27.9946,13.2841,27.7579,12,27.3ZM23.52,25.3L18,22.14L28,16.369999999999997C27.8872,19.8705,26.2508,23.147,23.52,25.34L23.52,25.3Z" fill="#000000" fill-opacity="1"/></g><g></g></g></svg>