<svg xmlns="http://www.w3.org/2000/svg" xmlns:xlink="http://www.w3.org/1999/xlink" fill="none" version="1.1" width="32" height="32" viewBox="0 0 32 32"><defs><clipPath id="master_svg0_134_09342"><rect x="0" y="0" width="32" height="32" rx="0"/></clipPath></defs><g clip-path="url(#master_svg0_134_09342)"><g><path d="M28,10L22,10L22,24L24,24L24,20L28,20C29.10395,19.99851,29.99851,19.103949999999998,30,18L30,12C29.998730000000002,10.895956,29.10404,10.00126839,28,10ZM24,18L24,12L28,12L28,18L24,18Z" fill="#000000" fill-opacity="1"/></g><g><path d="M18,10L12,10L12,24L14,24L14,20L18,20C19.10395,19.99851,19.99851,19.103949999999998,20,18L20,12C19.998730000000002,10.895956,19.10405,10.00126743,18,10ZM14,18L14,12L18,12L18,18L14,18Z" fill="#000000" fill-opacity="1"/></g><g><path d="M8,10L3,10L3,12L8,12L8,14L4,14C2.895431,14,2,14.895430000000001,2,16L2,18C2,19.104570000000002,2.895431,20,4,20L10,20L10,12C9.99873,10.895955,9.104040000000001,10.00126648,8,10ZM8,18L4,18L4,16L8,16L8,18Z" fill="#000000" fill-opacity="1"/></g><g></g></g></svg>