<svg xmlns="http://www.w3.org/2000/svg" xmlns:xlink="http://www.w3.org/1999/xlink" fill="none" version="1.1" width="32" height="32" viewBox="0 0 32 32"><defs><clipPath id="master_svg0_134_09382"><rect x="0" y="0" width="32" height="32" rx="0"/></clipPath></defs><g clip-path="url(#master_svg0_134_09382)"><g><rect x="23" y="7" width="4" height="4" rx="0" fill="#000000" fill-opacity="1"/></g><g><rect x="23" y="13" width="4" height="4" rx="0" fill="#000000" fill-opacity="1"/></g><g><rect x="17" y="7" width="4" height="4" rx="0" fill="#000000" fill-opacity="1"/></g><g><rect x="17" y="13" width="4" height="4" rx="0" fill="#000000" fill-opacity="1"/></g><g><ellipse cx="14.5" cy="24.5" rx="1.5" ry="1.5" fill="#000000" fill-opacity="1"/></g><g><path d="M21,30L8,30C6.895956,29.9987,6.00126839,29.104,6,28L6,4C6.00126696,2.895956,6.895956,2.00126719,8,2L21,2L21,4L8,4L8,28L21,28L21,20L23,20L23,28C22.9987,29.104,22.104,29.9987,21,30Z" fill="#000000" fill-opacity="1"/></g><g></g></g></svg>