<svg xmlns="http://www.w3.org/2000/svg" xmlns:xlink="http://www.w3.org/1999/xlink" fill="none" version="1.1" width="32" height="32" viewBox="0 0 32 32"><defs><clipPath id="master_svg0_134_09421"><rect x="0" y="0" width="32" height="32" rx="0"/></clipPath></defs><g clip-path="url(#master_svg0_134_09421)"><g><path d="M26.999964919281005,22.141965157699584L26.999964919281005,9.857995157699584C28.886864919281006,9.374135157699584,30.148964919281006,7.599005157699585,29.986164919281006,5.657895157699585C29.823364919281005,3.7167851576995847,28.283264919281006,2.176672157699585,26.342064919281007,2.013869257699585C24.400964919281005,1.851066157699585,22.625864919281007,3.113125157699585,22.141964919281005,4.999995157699585L9.857994919281005,4.999995157699585C9.374134919281005,3.113125157699585,7.599004919281006,1.851066157699585,5.657894919281006,2.013869257699585C3.7167849192810056,2.176672157699585,2.176672919281006,3.7167851576995847,2.0138693192810058,5.657895157699585C1.8510649192810058,7.599005157699585,3.113124919281006,9.374135157699584,5.000004919281006,9.857995157699584L5.000004919281006,22.141965157699584C3.113124919281006,22.625865157699586,1.851065919281006,24.400965157699584,2.0138693192810058,26.342065157699587C2.176672919281006,28.283265157699585,3.7167849192810056,29.823365157699584,5.657894919281006,29.986165157699585C7.5990149192810055,30.148965157699585,9.374144919281006,28.886865157699585,9.857994919281005,26.999965157699584L22.141964919281005,26.999965157699584C22.625864919281007,28.886865157699585,24.400964919281005,30.148965157699585,26.342064919281007,29.986165157699585C28.283264919281006,29.823365157699584,29.823364919281005,28.283265157699585,29.986164919281006,26.342065157699587C30.148964919281006,24.400965157699584,28.886864919281006,22.625865157699586,26.999964919281005,22.141965157699584ZM25.999964919281005,3.999995157699585C27.104564919281007,3.999995157699585,27.999964919281005,4.895435157699585,27.999964919281005,5.999995157699585C27.999964919281005,7.104565157699585,27.104564919281007,7.999995157699585,25.999964919281005,7.999995157699585C24.895464919281007,7.999995157699585,23.999964919281005,7.104565157699585,23.999964919281005,5.999995157699585C24.001264919281006,4.895955157699585,24.895964919281006,4.001265157699585,25.999964919281005,3.999995157699585ZM4.000004919281006,5.999995157699585C4.000004919281006,4.895435157699585,4.895434919281006,3.999995157699585,6.000004919281006,3.999995157699585C7.104564919281006,3.999995157699585,8.000004919281006,4.895435157699585,8.000004919281006,5.999995157699585C8.000004919281006,7.104565157699585,7.104564919281006,7.999995157699585,6.000004919281006,7.999995157699585C4.895884919281006,7.998895157699585,4.001104919281006,7.104115157699585,4.000004919281006,5.999995157699585ZM6.000004919281006,27.999965157699584C4.895434919281006,27.999965157699584,4.000004919281006,27.104565157699586,4.000004919281006,25.999965157699584C4.000004919281006,24.895465157699586,4.895434919281006,23.999965157699584,6.000004919281006,23.999965157699584C7.104564919281006,23.999965157699584,8.000004919281006,24.895465157699586,8.000004919281006,25.999965157699584C7.998734919281006,27.104065157699583,7.104044919281006,27.998765157699584,6.000004919281006,27.999965157699584ZM22.141964919281005,24.999965157699584L9.857994919281005,24.999965157699584C9.493314919281005,23.599965157699586,8.400004919281006,22.506665157699587,7.000004919281006,22.141965157699584L7.000004919281006,9.857995157699584C8.399894919281007,9.493115157699584,9.493114919281005,8.399895157699586,9.857994919281005,6.999995157699585L22.141964919281005,6.999995157699585C22.506664919281008,8.400005157699585,23.599964919281007,9.493315157699584,24.999964919281005,9.857995157699584L24.999964919281005,22.141965157699584C23.599964919281007,22.506565157699583,22.506564919281004,23.599965157699586,22.141964919281005,24.999965157699584ZM25.999964919281005,27.999965157699584C24.895464919281007,27.999965157699584,23.999964919281005,27.104565157699586,23.999964919281005,25.999965157699584C23.999964919281005,24.895465157699586,24.895464919281007,23.999965157699584,25.999964919281005,23.999965157699584C27.104564919281007,23.999965157699584,27.999964919281005,24.895465157699586,27.999964919281005,25.999965157699584C27.998464919281005,27.103965157699584,27.103964919281005,27.998465157699584,25.999964919281005,27.999965157699584Z" fill="#000000" fill-opacity="1"/></g><g></g></g></svg>