<svg xmlns="http://www.w3.org/2000/svg" xmlns:xlink="http://www.w3.org/1999/xlink" fill="none" version="1.1" width="32" height="32" viewBox="0 0 32 32"><defs><clipPath id="master_svg0_134_09474"><rect x="0" y="0" width="32" height="32" rx="0"/></clipPath></defs><g clip-path="url(#master_svg0_134_09474)"><g><path d="M22.999985012817383,6L22.999985012817383,16L27.999985012817383,16C28.404385012817382,16.0001,28.768885012817382,16.2437,28.923685012817383,16.6173C29.07838501281738,16.991,28.992885012817382,17.421,28.706985012817384,17.707L16.706985012817384,29.707C16.31668501281738,30.0977,15.683385012817382,30.0977,15.292985012817383,29.707L3.293001012817383,17.707C3.007092952817383,17.421,2.921578612817383,16.991,3.076322312817383,16.6173C3.231196012817383,16.2436,3.595734012817383,16,4.000000012817383,16L8.999995012817383,16L8.999995012817383,6C9.001265012817383,4.895957,9.895955012817382,4.00126791,10.999995012817383,4L20.999985012817383,4C22.103985012817382,4.0014863,22.998485012817383,4.896047,22.999985012817383,6ZM15.999985012817383,27.5859L25.585885012817382,18L20.999985012817383,18L20.999985012817383,6L10.999995012817383,6L10.999995012817383,18L6.414105012817383,18L15.999985012817383,27.5859Z" fill="#000000" fill-opacity="1"/></g><g></g></g></svg>