<svg xmlns="http://www.w3.org/2000/svg" xmlns:xlink="http://www.w3.org/1999/xlink" fill="none" version="1.1" width="32" height="32" viewBox="0 0 32 32"><defs><clipPath id="master_svg0_134_09558"><rect x="0" y="0" width="32" height="32" rx="0"/></clipPath></defs><g clip-path="url(#master_svg0_134_09558)"><g><ellipse cx="25" cy="7" rx="2" ry="2" fill="#000000" fill-opacity="1"/></g><g><path d="M12,23C10.34315,23,9,21.65685,9,20C9,18.34315,10.34315,17,12,17C13.65685,17,15,18.34315,15,20C14.99818,21.656100000000002,13.6561,22.998179999999998,12,23ZM12,19C11.44771,19,11,19.44772,11,20C11,20.55228,11.44771,21,12,21C12.55229,21,13,20.55228,13,20C12.99945,19.44794,12.55206,19.00055,12,19Z" fill="#000000" fill-opacity="1"/></g><g><ellipse cx="12" cy="14" rx="1" ry="1" fill="#000000" fill-opacity="1"/></g><g><ellipse cx="17.90880012512207" cy="5.704599857330322" rx="1" ry="1" fill="#000000" fill-opacity="1"/></g><g><ellipse cx="9.787500381469727" cy="9.906800270080566" rx="1" ry="1" fill="#000000" fill-opacity="1"/></g><g><ellipse cx="12.49470043182373" cy="8.506100177764893" rx="1" ry="1" fill="#000000" fill-opacity="1"/></g><g><ellipse cx="15.201399803161621" cy="7.105100154876709" rx="1" ry="1" fill="#000000" fill-opacity="1"/></g><g><ellipse cx="4.696199893951416" cy="13.187100410461426" rx="1" ry="1" fill="#000000" fill-opacity="1"/></g><g><ellipse cx="2.132699966430664" cy="21.631000518798828" rx="1" ry="1" fill="#000000" fill-opacity="1"/></g><g><ellipse cx="3.078700065612793" cy="24.515899658203125" rx="1" ry="1" fill="#000000" fill-opacity="1"/></g><g><ellipse cx="4.84850001335144" cy="26.98240089416504" rx="1" ry="1" fill="#000000" fill-opacity="1"/></g><g><ellipse cx="7.272200107574463" cy="28.809799194335938" rx="1" ry="1" fill="#000000" fill-opacity="1"/></g><g><ellipse cx="2.098199963569641" cy="18.596200942993164" rx="1" ry="1" fill="#000000" fill-opacity="1"/></g><g><ellipse cx="2.9794000387191772" cy="15.690999984741211" rx="1" ry="1" fill="#000000" fill-opacity="1"/></g><g><ellipse cx="7.080999851226807" cy="11.308099746704102" rx="1" ry="1" fill="#000000" fill-opacity="1"/></g><g><ellipse cx="20.616199493408203" cy="4.303800106048584" rx="1" ry="1" fill="#000000" fill-opacity="1"/></g><g><ellipse cx="23.323200225830078" cy="2.9026999473571777" rx="1" ry="1" fill="#000000" fill-opacity="1"/></g><g><ellipse cx="28.98819923400879" cy="8.889800071716309" rx="1" ry="1" fill="#000000" fill-opacity="1"/></g><g><ellipse cx="27.58679962158203" cy="11.59630012512207" rx="1" ry="1" fill="#000000" fill-opacity="1"/></g><g><ellipse cx="26.18560028076172" cy="14.303099632263184" rx="1" ry="1" fill="#000000" fill-opacity="1"/></g><g><ellipse cx="24.78420066833496" cy="17.010099411010742" rx="1" ry="1" fill="#000000" fill-opacity="1"/></g><g><ellipse cx="23.382999420166016" cy="19.71660041809082" rx="1" ry="1" fill="#000000" fill-opacity="1"/></g><g><ellipse cx="21.98200035095215" cy="22.423900604248047" rx="1" ry="1" fill="#000000" fill-opacity="1"/></g><g><ellipse cx="18.636499404907227" cy="27.46430015563965" rx="1" ry="1" fill="#000000" fill-opacity="1"/></g><g><ellipse cx="16.091899871826172" cy="29.12150001525879" rx="1" ry="1" fill="#000000" fill-opacity="1"/></g><g><ellipse cx="13.166099548339844" cy="29.932199478149414" rx="1" ry="1" fill="#000000" fill-opacity="1"/></g><g><ellipse cx="10.132699966430664" cy="29.824899673461914" rx="1" ry="1" fill="#000000" fill-opacity="1"/></g><g><ellipse cx="20.571500778198242" cy="25.125" rx="1" ry="1" fill="#000000" fill-opacity="1"/></g><g><ellipse cx="28.8927001953125" cy="3.2400999069213867" rx="1" ry="1" fill="#000000" fill-opacity="1"/></g><g><ellipse cx="26.188199996948242" cy="2.00409996509552" rx="1" ry="1" fill="#000000" fill-opacity="1"/></g><g><ellipse cx="12" cy="26" rx="1" ry="1" fill="#000000" fill-opacity="1"/></g><g><ellipse cx="6" cy="20" rx="1" ry="1" fill="#000000" fill-opacity="1"/></g><g><ellipse cx="18" cy="20" rx="1" ry="1" fill="#000000" fill-opacity="1"/></g><g><ellipse cx="6.803800106048584" cy="17" rx="1" ry="1" fill="#000000" fill-opacity="1"/></g><g><ellipse cx="17.196199417114258" cy="23" rx="1" ry="1" fill="#000000" fill-opacity="1"/></g><g><ellipse cx="9" cy="25.196199417114258" rx="1" ry="1" fill="#000000" fill-opacity="1"/></g><g><ellipse cx="15" cy="14.803799629211426" rx="1" ry="1" fill="#000000" fill-opacity="1"/></g><g><ellipse cx="9" cy="14.803799629211426" rx="1" ry="1" fill="#000000" fill-opacity="1"/></g><g><ellipse cx="15" cy="25.196199417114258" rx="1" ry="1" fill="#000000" fill-opacity="1"/></g><g><ellipse cx="6.803800106048584" cy="23" rx="1" ry="1" fill="#000000" fill-opacity="1"/></g><g><ellipse cx="17.196199417114258" cy="17" rx="1" ry="1" fill="#000000" fill-opacity="1"/></g><g><ellipse cx="30.000200271606445" cy="6.025599956512451" rx="1" ry="1" fill="#000000" fill-opacity="1"/></g><g></g></g></svg>