<svg xmlns="http://www.w3.org/2000/svg" xmlns:xlink="http://www.w3.org/1999/xlink" fill="none" version="1.1" width="32" height="32" viewBox="0 0 32 32"><defs><clipPath id="master_svg0_134_09604"><rect x="0" y="0" width="32" height="32" rx="0"/></clipPath></defs><g clip-path="url(#master_svg0_134_09604)"><g><ellipse cx="22" cy="24" rx="2" ry="2" fill="#000000" fill-opacity="1"/></g><g><path d="M29.776899999999998,23.4785C28.5138,20.26117,25.4548,18.106216,22,18C18.54523,18.106216,15.48621,20.26117,14.223101,23.4785L14,24L14.2231,24.5215C15.48621,27.73883,18.54523,29.8938,22,30C25.4548,29.8938,28.5138,27.73883,29.776899999999998,24.5215L30,24L29.776899999999998,23.4785ZM22,28C19.790860000000002,28,18,26.209139999999998,18,24C18,21.79086,19.790860000000002,20,22,20C24.2091,20,26,21.79086,26,24C25.997500000000002,26.208109999999998,24.2081,27.99752,22,28Z" fill="#000000" fill-opacity="1"/></g><g><path d="M11.999997009429933,23.999997060546875C9.101447009429931,24.000087060546875,7.165134009429932,21.013357060546873,8.348274009429932,18.367267060546876C9.531417009429932,15.721178060546874,13.04838700942993,15.172762060546875,14.980997009429931,17.332997060546877L13.490997009429933,18.666997060546876C12.524967009429933,17.586457060546874,10.76619700942993,17.860247060546875,10.174337009429932,19.183307060546873C9.582467009429932,20.506357060546875,10.550587009429933,21.999997060546875,11.999997009429933,21.999997060546875L11.999997009429933,23.999997060546875Z" fill="#000000" fill-opacity="1"/></g><g><path d="M25.999952249908446,1.9999999996853028C25.352852249908448,2.002386573685303,24.716652249908446,2.1674464336853028,24.14995224990845,2.4800004336853028L7.760002249908447,10.959998433685303C3.5165722499084473,12.943598433685302,1.2212282499084472,17.609298433685304,2.239403249908447,22.181498433685302C3.257582249908447,26.7536984336853,7.3158222499084475,30.004398433685303,11.999952249908448,29.999998433685303L11.999952249908448,27.999998433685303C6.304802249908447,28.002598433685304,2.4309272499084473,22.221998433685304,4.598402249908448,16.955398433685303C6.765882249908447,11.688738433685304,13.586452249908447,10.309428433685303,17.62995224990845,14.319998433685303L19.029952249908447,12.919998433685302C17.562852249908445,11.461708433685303,15.679852249908448,10.493978433685303,13.639952249908447,10.149998433685303L22.019952249908446,5.809998433685303C22.019952249908446,5.869998433685303,21.999952249908446,5.929998433685302,21.999952249908446,5.9999984336853025C21.999352249908448,8.209388433685302,23.790652249908447,10.000608433685303,25.999952249908446,9.999998433685303C26.05995224990845,9.999998433685303,26.119952249908447,9.979998433685303,26.189952249908448,9.979998433685303L23.069952249908447,15.999998433685303L25.30995224990845,15.999998433685303L29.55995224990845,7.7899984336853025C30.92565224990845,5.135448433685303,28.98515224990845,1.9794296336853028,25.999952249908446,1.9999999996853028ZM25.999952249908446,7.9999984336853025C24.89545224990845,7.9999984336853025,23.999952249908446,7.104568433685302,23.999952249908446,5.9999984336853025C23.999952249908446,4.895428433685303,24.89545224990845,3.999998433685303,25.999952249908446,3.999998433685303C27.104552249908448,3.999998433685303,27.999952249908446,4.895428433685303,27.999952249908446,5.9999984336853025C27.996852249908446,7.103248433685303,27.103252249908447,7.996818433685303,25.999952249908446,7.9999984336853025Z" fill="#000000" fill-opacity="1"/></g><g></g></g></svg>