<svg xmlns="http://www.w3.org/2000/svg" xmlns:xlink="http://www.w3.org/1999/xlink" fill="none" version="1.1" width="32" height="32" viewBox="0 0 32 32"><defs><clipPath id="master_svg0_134_24453"><rect x="0" y="0" width="32" height="32" rx="0"/></clipPath></defs><g clip-path="url(#master_svg0_134_24453)"><g><path d="M12,16C12,18.209139999999998,13.79086,20,16,20C18.209139999999998,20,20,18.209139999999998,20,16C20,13.79086,18.209139999999998,12,16,12C13.79086,12,12,13.79086,12,16ZM18,16C18,17.10457,17.10457,18,16,18C14.895430000000001,18,14,17.10457,14,16C14,14.895430000000001,14.895430000000001,14,16,14C17.10457,14,18,14.895430000000001,18,16Z" fill="#000000" fill-opacity="1"/></g><g><path d="M16,27.169999923706055L10.4,21.579999923706055L9,22.999999923706056L16,29.999999923706056L23,22.999999923706056L21.59,21.590000123706055L16,27.169999923706055Z" fill="#000000" fill-opacity="1"/></g><g><path d="M16,4.83L21.58,10.4L23,9L16,2L9,9L10.41,10.41L16,4.83Z" fill="#000000" fill-opacity="1"/></g><g></g></g></svg>