<svg xmlns="http://www.w3.org/2000/svg" xmlns:xlink="http://www.w3.org/1999/xlink" fill="none" version="1.1" width="32" height="32" viewBox="0 0 32 32"><defs><clipPath id="master_svg0_134_09656"><rect x="0" y="0" width="32" height="32" rx="0"/></clipPath></defs><g clip-path="url(#master_svg0_134_09656)"><g><path d="M22,28L12,28L12,26L22,26L22,10L6,10L6,20L4,20L4,10C4.00115776,8.89591,4.89591,8.00115776,6,8L22,8C23.1041,8.00115585,23.9988,8.895909,24,10L24,26C23.9988,27.1041,23.1041,27.9988,22,28Z" fill="#000000" fill-opacity="1"/></g><g><path d="M28,22L26,22L26,20L28,20L28,4L12,4L12,6L10,6L10,4C10.00115776,2.8959099999999998,10.89591,2.00115728,12,2L28,2C29.1041,2.00115848,29.9988,2.895911,30,4L30,20C29.9988,21.1041,29.1041,21.9988,28,22Z" fill="#000000" fill-opacity="1"/></g><g><path d="M10,14L10,16L14.586,16L3,27.586L4.414,29L16,17.414L16,22L18,22L18,14L10,14Z" fill="#000000" fill-opacity="1"/></g><g></g></g></svg>