<svg xmlns="http://www.w3.org/2000/svg" xmlns:xlink="http://www.w3.org/1999/xlink" fill="none" version="1.1" width="32" height="32" viewBox="0 0 32 32"><defs><clipPath id="master_svg0_134_09805"><rect x="0" y="0" width="32" height="32" rx="0"/></clipPath></defs><g clip-path="url(#master_svg0_134_09805)"><g><ellipse cx="13" cy="8" rx="2" ry="2" fill="#000000" fill-opacity="1"/></g><g><ellipse cx="19" cy="8" rx="2" ry="2" fill="#000000" fill-opacity="1"/></g><g><path d="M31.808270082533358,8.665C31.67297008253336,8.338037,31.35387008253336,8.124876976,30.99997008253336,8.125L28.99997008253336,8.125C24.789970082533358,8.125,21.27897008253336,10.126999999999999,19.83517008253336,13.026399999999999C17.90687008253336,10.49157,14.09357008253336,10.49157,12.16517008253336,13.026399999999999C10.72097008253336,10.126999999999999,7.21000008253336,8.125,3.0000000825333597,8.125L1.0000000825333595,8.125C0.6459390825333595,8.124876976,0.32670708253335956,8.338163,0.19130258253335952,8.665310999999999C0.05589818253335953,8.992457,0.13101762253335952,9.36896,0.38160008253335953,9.6191L0.48340008253335953,9.72C2.2728000825333594,11.16603,2.9467600825333595,13.58863,2.1612000825333597,15.751000000000001C1.9948900825333595,16.31196,2.4150600825333597,16.875,3.0000000825333597,16.875C3.7886000825333594,16.812260000000002,4.568540082533359,17.07478,5.158700082533359,17.601599999999998C6.137000082533359,18.583,6.130100082533359,20.488799999999998,6.125500082533359,21.749499999999998L6.125500082533359,21.999499999999998C6.125220082533359,22.4827,6.51675008253336,22.8747,7.00000008253336,22.875L11.124970082533359,22.875L11.124970082533359,23C11.124970082533359,25.6924,13.30757008253336,27.875,15.999970082533359,27.875C18.69237008253336,27.875,20.87497008253336,25.6924,20.87497008253336,23L20.87497008253336,22.875L24.99997008253336,22.875C25.48327008253336,22.875,25.87497008253336,22.4832,25.87497008253336,22L25.87497008253336,21.75C25.87037008253336,20.4893,25.86347008253336,18.5835,26.84177008253336,17.6021C27.431770082533358,17.075229999999998,28.21147008253336,16.812530000000002,28.99997008253336,16.875C29.58497008253336,16.8749,30.00517008253336,16.31186,29.838770082533358,15.751000000000001C29.05367008253336,13.589400000000001,29.72707008253336,11.16776,31.51527008253336,9.7217L31.61857008253336,9.6187C31.86887008253336,9.36843,31.94377008253336,8.992007,31.808270082533358,8.665ZM15.999970082533359,12.875C17.72507008253336,12.87698,19.12297008253336,14.274930000000001,19.12497008253336,16L19.12497008253336,16.125L12.874970082533359,16.125L12.874970082533359,16C12.87697008253336,14.274930000000001,14.27497008253336,12.87698,15.999970082533359,12.875ZM12.874970082533359,17.875L19.12497008253336,17.875L19.12497008253336,21.125L12.874970082533359,21.125L12.874970082533359,17.875ZM7.87430008253336,21.125C7.856500082533359,19.666,7.690400082533359,17.6631,6.39820008253336,16.3662C5.768690082533359,15.74861,4.960270082533359,15.34552,4.088200082533359,15.214400000000001C4.490300082533359,13.35407,4.076880082533359,11.4106,2.9524000825333596,9.875L3.0000000825333597,9.875C7.556200082533359,9.875,11.124970082533359,12.565000000000001,11.124970082533359,16L11.124970082533359,21.125L7.87430008253336,21.125ZM19.12497008253336,23C19.12497008253336,24.7259,17.72587008253336,26.125,15.999970082533359,26.125C14.27407008253336,26.125,12.874970082533359,24.7259,12.874970082533359,23L12.874970082533359,22.875L19.12497008253336,22.875L19.12497008253336,23ZM27.91177008253336,15.214400000000001C27.03977008253336,15.34552,26.23127008253336,15.74861,25.60177008253336,16.3662C24.30957008253336,17.6631,24.14347008253336,19.6662,24.12567008253336,21.125L20.87497008253336,21.125L20.87497008253336,16C20.87497008253336,12.5654,24.44377008253336,9.875,28.99997008253336,9.875L29.04807008253336,9.875C27.92337008253336,11.41047,27.50977008253336,13.354,27.91177008253336,15.214400000000001Z" fill="#000000" fill-opacity="1"/></g><g></g></g></svg>