<svg xmlns="http://www.w3.org/2000/svg" xmlns:xlink="http://www.w3.org/1999/xlink" fill="none" version="1.1" width="32" height="32" viewBox="0 0 32 32"><defs><clipPath id="master_svg0_134_09858"><rect x="0" y="0" width="32" height="32" rx="0"/></clipPath></defs><g clip-path="url(#master_svg0_134_09858)"><g><path d="M16,29.999953004455566C15.85532,29.998953004455565,15.71239,29.968353004455565,15.58,29.909953004455566C15.22555,29.745953004455565,14.999030000000001,29.390553004455565,15,28.999953004455566L15,18.409953004455566L8.41,24.999953004455566L7,23.589953004455566L14.59,15.999953004455566L7,8.410003004455566L8.41,7.000003004455566L15,13.589953004455566L15,3.000003004455566C14.999030000000001,2.609429004455566,15.22555,2.2540390044555663,15.58,2.0899999044555666C15.93531,1.9264319044555664,16.353360000000002,1.9850380044555664,16.65,2.2400000044555664L23.65,8.240003004455566C23.8721,8.429963004455566,24,8.707643004455566,24,9.000003004455566C24.0125,9.279563004455566,23.9074,9.551593004455565,23.71,9.750003004455566L17.41,15.999953004455566L23.71,22.289953004455565C23.8972,22.478753004455566,24.0015,22.734153004455568,24,22.999953004455566C23.9887,23.278253004455568,23.8618,23.539253004455567,23.65,23.719953004455565L16.65,29.719953004455565C16.47471,29.889453004455568,16.243560000000002,29.989053004455567,16,29.999953004455566ZM17,18.409953004455566L17,26.829953004455568L21.53,22.939953004455568L17,18.409953004455566ZM17,5.170003004455566L17,13.589953004455566L21.53,9.060003004455567L17,5.170003004455566Z" fill="#000000" fill-opacity="1"/></g><g></g></g></svg>