<svg xmlns="http://www.w3.org/2000/svg" xmlns:xlink="http://www.w3.org/1999/xlink" fill="none" version="1.1" width="32" height="32" viewBox="0 0 32 32"><defs><clipPath id="master_svg0_134_09885"><rect x="0" y="0" width="32" height="32" rx="0"/></clipPath></defs><g clip-path="url(#master_svg0_134_09885)"><g><path d="M24,16L24,26.7515L16.9038,23.1621L16,22.7051L15.0991,23.1611L8,26.748L8,4L18,4L18,2L8,2C6.895431,2,6,2.895431,6,4L6,30L16,24.9463L26,30L26,16L24,16Z" fill="#000000" fill-opacity="1"/></g><g><path d="M26,6L26,2L24,2L24,6L20,6L20,8L24,8L24,12L26,12L26,8L30,8L30,6L26,6Z" fill="#000000" fill-opacity="1"/></g><g></g></g></svg>