<svg xmlns="http://www.w3.org/2000/svg" xmlns:xlink="http://www.w3.org/1999/xlink" fill="none" version="1.1" width="32" height="32" viewBox="0 0 32 32"><defs><clipPath id="master_svg0_134_09896"><rect x="0" y="0" width="32" height="32" rx="0"/></clipPath></defs><g clip-path="url(#master_svg0_134_09896)"><g><path d="M23,23C19.13401,23,16,19.866,16,16C16,12.13401,19.13401,9,23,9C26.866,9,30,12.13401,30,16C29.9957,19.8642,26.8642,22.9957,23,23ZM23,11C20.23858,11,18,13.238579999999999,18,16C18,18.76142,20.23858,21,23,21C25.76142,21,28,18.76142,28,16C27.997,13.239830000000001,25.760170000000002,11.003029999999999,23,11Z" fill="#000000" fill-opacity="1"/></g><g><ellipse cx="9" cy="16" rx="7" ry="7" fill="#000000" fill-opacity="1"/></g><g></g></g></svg>