<svg xmlns="http://www.w3.org/2000/svg" xmlns:xlink="http://www.w3.org/1999/xlink" fill="none" version="1.1" width="32" height="32" viewBox="0 0 32 32"><defs><clipPath id="master_svg0_134_09916"><rect x="0" y="0" width="32" height="32" rx="0"/></clipPath></defs><g clip-path="url(#master_svg0_134_09916)"><g><path d="M26,30L19,30C17.8972,30,17,29.102800000000002,17,28L17,26L19,26L19,28L26,28L26,21L24,21L24,19L26,19C27.102800000000002,19,28,19.8972,28,21L28,28C28,29.102800000000002,27.102800000000002,30,26,30Z" fill="#000000" fill-opacity="1"/></g><g><path d="M12,24L14,24L13.9998,17.414L22.5823,26L24,24.5857L15.4139,15.9998L22,16L22,14L12,14L12,24Z" fill="#000000" fill-opacity="1"/></g><g><path d="M8,26.99999213218689L4,26.99999213218689C2.896,26.99869213218689,2.00129986,26.10399213218689,2,24.99999213218689L2,5.000002132186889C2.0013001,3.89600013218689,2.896,3.00129986218689,4,2.9999999999968896L11.5857,2.9999999999968896C12.1165,2.9985001121868895,12.6258,3.2095001321868897,13,3.5859001321868895L16.4143,7.000002132186889L28,7.000002132186889C29.104,7.00130213218689,29.9987,7.89600213218689,30,9.00000213218689L30,15.99999213218689L28,15.99999213218689L28,9.00000213218689L15.5857,9.00000213218689L11.5857,5.000002132186889L4,5.000002132186889L4,24.99999213218689L8,24.99999213218689L8,26.99999213218689Z" fill="#000000" fill-opacity="1"/></g><g></g></g></svg>