<svg xmlns="http://www.w3.org/2000/svg" xmlns:xlink="http://www.w3.org/1999/xlink" fill="none" version="1.1" width="32" height="32" viewBox="0 0 32 32"><defs><clipPath id="master_svg0_134_09954"><rect x="0" y="0" width="32" height="32" rx="0"/></clipPath></defs><g clip-path="url(#master_svg0_134_09954)"><g transform="matrix(0,-1,1,0,-26,32)"><rect x="3" y="29" width="26" height="2" rx="0" fill="#000000" fill-opacity="1"/></g><g transform="matrix(0,-1,1,0,-22,36)"><rect x="7" y="29" width="2" height="2" rx="0" fill="#000000" fill-opacity="1"/></g><g transform="matrix(0,-1,1,0,-18,40)"><rect x="11" y="29" width="2" height="2" rx="0" fill="#000000" fill-opacity="1"/></g><g transform="matrix(0,-1,1,0,-14,44)"><rect x="15" y="29" width="2" height="2" rx="0" fill="#000000" fill-opacity="1"/></g><g transform="matrix(0,-1,1,0,-10,48)"><rect x="19" y="29" width="2" height="2" rx="0" fill="#000000" fill-opacity="1"/></g><g transform="matrix(0,-1,1,0,-6,52)"><rect x="23" y="29" width="2" height="2" rx="0" fill="#000000" fill-opacity="1"/></g><g transform="matrix(0,-1,1,0,-2,56)"><rect x="27" y="29" width="2" height="2" rx="0" fill="#000000" fill-opacity="1"/></g><g transform="matrix(0,-1,1,0,2,52)"><rect x="27" y="25" width="2" height="2" rx="0" fill="#000000" fill-opacity="1"/></g><g transform="matrix(0,-1,1,0,6,48)"><rect x="27" y="21" width="2" height="2" rx="0" fill="#000000" fill-opacity="1"/></g><g transform="matrix(0,-1,1,0,10,44)"><rect x="27" y="17" width="2" height="2" rx="0" fill="#000000" fill-opacity="1"/></g><g transform="matrix(0,-1,1,0,18,36)"><rect x="27" y="9" width="2" height="2" rx="0" fill="#000000" fill-opacity="1"/></g><g transform="matrix(0,-1,1,0,14,40)"><rect x="27" y="13" width="2" height="2" rx="0" fill="#000000" fill-opacity="1"/></g><g transform="matrix(0,-1,1,0,2,12)"><rect x="7" y="5" width="2" height="2" rx="0" fill="#000000" fill-opacity="1"/></g><g transform="matrix(0,-1,1,0,6,16)"><rect x="11" y="5" width="2" height="2" rx="0" fill="#000000" fill-opacity="1"/></g><g transform="matrix(0,-1,1,0,10,20)"><rect x="15" y="5" width="2" height="2" rx="0" fill="#000000" fill-opacity="1"/></g><g transform="matrix(0,-1,1,0,14,24)"><rect x="19" y="5" width="2" height="2" rx="0" fill="#000000" fill-opacity="1"/></g><g transform="matrix(0,-1,1,0,18,28)"><rect x="23" y="5" width="2" height="2" rx="0" fill="#000000" fill-opacity="1"/></g><g transform="matrix(0,-1,1,0,22,32)"><rect x="27" y="5" width="2" height="2" rx="0" fill="#000000" fill-opacity="1"/></g><g><rect x="8" y="10" width="10" height="2" rx="0" fill="#000000" fill-opacity="1"/></g><g><rect x="8" y="15" width="6" height="2" rx="0" fill="#000000" fill-opacity="1"/></g><g></g></g></svg>