<svg xmlns="http://www.w3.org/2000/svg" xmlns:xlink="http://www.w3.org/1999/xlink" fill="none" version="1.1" width="32" height="32" viewBox="0 0 32 32"><defs><clipPath id="master_svg0_134_09923"><rect x="0" y="0" width="32" height="32" rx="0"/></clipPath></defs><g clip-path="url(#master_svg0_134_09923)"><g transform="matrix(-1,1.2246468525851679e-16,-1.2246468525851679e-16,-1,58,58)"><rect x="29" y="29" width="26" height="2" rx="0" fill="#000000" fill-opacity="1"/></g><g transform="matrix(-1,1.2246468525851679e-16,-1.2246468525851679e-16,-1,58,50)"><rect x="29" y="25" width="2" height="2" rx="0" fill="#000000" fill-opacity="1"/></g><g transform="matrix(-1,1.2246468525851679e-16,-1.2246468525851679e-16,-1,58,42)"><rect x="29" y="21" width="2" height="2" rx="0" fill="#000000" fill-opacity="1"/></g><g transform="matrix(-1,1.2246468525851679e-16,-1.2246468525851679e-16,-1,58,34)"><rect x="29" y="17" width="2" height="2" rx="0" fill="#000000" fill-opacity="1"/></g><g transform="matrix(-1,1.2246468525851679e-16,-1.2246468525851679e-16,-1,58,25.999999999999996)"><rect x="29" y="13" width="2" height="2" rx="0" fill="#000000" fill-opacity="1"/></g><g transform="matrix(-1,1.2246468525851679e-16,-1.2246468525851679e-16,-1,58,17.999999999999996)"><rect x="29" y="9" width="2" height="2" rx="0" fill="#000000" fill-opacity="1"/></g><g transform="matrix(-1,1.2246468525851679e-16,-1.2246468525851679e-16,-1,58,9.999999999999996)"><rect x="29" y="5" width="2" height="2" rx="0" fill="#000000" fill-opacity="1"/></g><g transform="matrix(-1,1.2246468525851679e-16,-1.2246468525851679e-16,-1,50,9.999999999999996)"><rect x="25" y="5" width="2" height="2" rx="0" fill="#000000" fill-opacity="1"/></g><g transform="matrix(-1,1.2246468525851679e-16,-1.2246468525851679e-16,-1,42,9.999999999999996)"><rect x="21" y="5" width="2" height="2" rx="0" fill="#000000" fill-opacity="1"/></g><g transform="matrix(-1,1.2246468525851679e-16,-1.2246468525851679e-16,-1,34,9.999999999999998)"><rect x="17" y="5" width="2" height="2" rx="0" fill="#000000" fill-opacity="1"/></g><g transform="matrix(-1,1.2246468525851679e-16,-1.2246468525851679e-16,-1,18,10)"><rect x="9" y="5" width="2" height="2" rx="0" fill="#000000" fill-opacity="1"/></g><g transform="matrix(-1,1.2246468525851679e-16,-1.2246468525851679e-16,-1,26,9.999999999999998)"><rect x="13" y="5" width="2" height="2" rx="0" fill="#000000" fill-opacity="1"/></g><g transform="matrix(-1,1.2246468525851679e-16,-1.2246468525851679e-16,-1,10.000000000000004,50)"><rect x="5" y="25" width="2" height="2" rx="0" fill="#000000" fill-opacity="1"/></g><g transform="matrix(-1,1.2246468525851679e-16,-1.2246468525851679e-16,-1,10.000000000000004,42)"><rect x="5" y="21" width="2" height="2" rx="0" fill="#000000" fill-opacity="1"/></g><g transform="matrix(-1,1.2246468525851679e-16,-1.2246468525851679e-16,-1,10.000000000000002,34)"><rect x="5" y="17" width="2" height="2" rx="0" fill="#000000" fill-opacity="1"/></g><g transform="matrix(-1,1.2246468525851679e-16,-1.2246468525851679e-16,-1,10.000000000000002,26)"><rect x="5" y="13" width="2" height="2" rx="0" fill="#000000" fill-opacity="1"/></g><g transform="matrix(-1,1.2246468525851679e-16,-1.2246468525851679e-16,-1,10,18)"><rect x="5" y="9" width="2" height="2" rx="0" fill="#000000" fill-opacity="1"/></g><g transform="matrix(-1,1.2246468525851679e-16,-1.2246468525851679e-16,-1,10,10)"><rect x="5" y="5" width="2" height="2" rx="0" fill="#000000" fill-opacity="1"/></g><g><rect x="8" y="10" width="10" height="2" rx="0" fill="#000000" fill-opacity="1"/></g><g><rect x="8" y="15" width="6" height="2" rx="0" fill="#000000" fill-opacity="1"/></g><g></g></g></svg>