<svg xmlns="http://www.w3.org/2000/svg" xmlns:xlink="http://www.w3.org/1999/xlink" fill="none" version="1.1" width="32" height="32" viewBox="0 0 32 32"><defs><clipPath id="master_svg0_134_10081"><rect x="0" y="0" width="32" height="32" rx="0"/></clipPath></defs><g clip-path="url(#master_svg0_134_10081)"><g><path d="M24,9.051300000000001L24,6C24,5.4478,23.5522,5,23,5L20,5L20,7L22,7L22,10.02Q24,11.143799999999999,24,13.5L24,25L20,25L20,27L25,27C25.5522,27,26,26.5522,26,26L26,13.5C26,11.787099999999999,25.2771,10.1924,24,9.051300000000001Z" fill="#000000" fill-opacity="1"/></g><g><path d="M16,9.051300000000001L16,6C16,5.4478,15.5522,5,15,5L9,5C8.4478,5,8,5.4478,8,6L8,9.051300000000001C6.7229,10.1924,6,11.787099999999999,6,13.5L6,26C6,26.5522,6.4478,27,7,27L17,27C17.5522,27,18,26.5522,18,26L18,13.5C18,11.787099999999999,17.2771,10.1924,16,9.051300000000001ZM16,25L8,25L8,13.5Q8,11.144,10,10.02L10,7L14,7L14,10.02Q16,11.144,16,13.5L16,25Z" fill="#000000" fill-opacity="1"/></g><g></g></g></svg>