<svg xmlns="http://www.w3.org/2000/svg" xmlns:xlink="http://www.w3.org/1999/xlink" fill="none" version="1.1" width="32" height="32" viewBox="0 0 32 32"><defs><clipPath id="master_svg0_134_10138"><rect x="0" y="0" width="32" height="32" rx="0"/></clipPath></defs><g clip-path="url(#master_svg0_134_10138)"><g><path d="M26,28L6,28C4.89591,27.9988,4.00115824,27.1041,4,26L4,9L6,9L6,26L26,26L26,9L28,9L28,26C27.9988,27.1041,27.1041,27.9988,26,28Z" fill="#000000" fill-opacity="1"/></g><g><path d="M18,23L12,23L12,21L18,21L18,17L14,17C12.895887,16.9989,12.00110245,16.10411,12,15L12,11C12.00110245,9.895887,12.895887,9.00110245,14,9L20,9L20,11L14,11L14,15L18,15C19.10411,15.001100000000001,19.9989,15.89589,20,17L20,21C19.998730000000002,22.104,19.10404,22.9987,18,23Z" fill="#000000" fill-opacity="1"/></g><g><rect x="4" y="4" width="24" height="2" rx="0" fill="#000000" fill-opacity="1"/></g><g></g></g></svg>