<svg xmlns="http://www.w3.org/2000/svg" xmlns:xlink="http://www.w3.org/1999/xlink" fill="none" version="1.1" width="32" height="32" viewBox="0 0 32 32"><defs><clipPath id="master_svg0_134_10104"><rect x="0" y="0" width="32" height="32" rx="0"/></clipPath></defs><g clip-path="url(#master_svg0_134_10104)"><g><path d="M20,21L12,21C10.895431,21,10,20.10457,10,19L10,17C10,15.895431,10.895431,15,12,15L20,15C21.104599999999998,15,22,15.895431,22,17L22,19C22,20.10457,21.104599999999998,21,20,21ZM12,17L12,19L20,19L20,17L12,17Z" fill="#000000" fill-opacity="1"/></g><g><path d="M28,4L4,4C2.895431,4,2,4.895431,2,6L2,10C2,11.104569999999999,2.895431,12,4,12L4,28C4,29.1046,4.89543,30,6,30L26,30C27.1046,30,28,29.1046,28,28L28,12C29.1046,12,30,11.104569999999999,30,10L30,6C30,4.895431,29.1046,4,28,4ZM26,28L6,28L6,12L26,12L26,28ZM28,10L4,10L4,6L28,6L28,10Z" fill="#000000" fill-opacity="1"/></g><g></g></g></svg>