<svg xmlns="http://www.w3.org/2000/svg" xmlns:xlink="http://www.w3.org/1999/xlink" fill="none" version="1.1" width="32" height="32" viewBox="0 0 32 32"><defs><clipPath id="master_svg0_134_10150"><rect x="0" y="0" width="32" height="32" rx="0"/></clipPath></defs><g clip-path="url(#master_svg0_134_10150)"><g><path d="M31,25C31,21.68629,28.31371,19,25,19C21.68629,19,19,21.68629,19,25C19,28.31371,21.68629,31,25,31C28.3122,30.9964,30.9964,28.3122,31,25ZM29,25C28.996290000000002,25.71177,28.80043,26.40933,28.4331,27.019L22.981,21.5669C23.590690000000002,21.1996,24.28823,21.00375,25,21C27.208109999999998,21.00248,28.99752,22.79189,29,25ZM21,25C21.003709999999998,24.28823,21.19957,23.59067,21.5669,22.981L27.019,28.4331C26.40932,28.80039,25.71177,28.99625,25,29C22.79189,28.99752,21.00248,27.208109999999998,21,25Z" fill="#000000" fill-opacity="1"/></g><g><path d="M19.59,16L17,18.59L18.42,20L22.42,16L18.42,12L17,13.41L19.59,16Z" fill="#000000" fill-opacity="1"/></g><g><path d="M10.409999923706055,16L12.999999923706055,13.41L11.579999923706055,12L7.579999923706055,16L11.579999923706055,20L12.999999923706055,18.59L10.409999923706055,16Z" fill="#000000" fill-opacity="1"/></g><g><path d="M4,9L26,9L26,16L28,16L28,4C28,2.895431,27.1046,2,26,2L4,2C2.895431,2,2,2.895431,2,4L2,24C2,25.1046,2.895431,26,4,26L16,26L16,24L4,24L4,9ZM4,4L26,4L26,7L4,7L4,4Z" fill="#000000" fill-opacity="1"/></g><g></g></g></svg>