<svg xmlns="http://www.w3.org/2000/svg" xmlns:xlink="http://www.w3.org/1999/xlink" fill="none" version="1.1" width="32" height="32" viewBox="0 0 32 32"><defs><clipPath id="master_svg0_134_10225"><rect x="0" y="0" width="32" height="32" rx="0"/></clipPath></defs><g clip-path="url(#master_svg0_134_10225)"><g><path d="M28,2L16,2C14.8959,2.00110173,14.0011,2.895887,14,4L14,14L4,14C2.895887,14.0011,2.00110173,14.8959,2,16L2,30L30,30L30,4C29.9987,2.895956,29.104,2.00126863,28,2ZM9,28L9,21L13,21L13,28L9,28ZM28,28L15,28L15,20C15,19.4477,14.5523,19,14,19L8,19C7.44772,19,7,19.4477,7,20L7,28L4,28L4,16L16,16L16,4L28,4L28,28Z" fill="#000000" fill-opacity="1"/></g><g><rect x="18" y="8" width="2" height="2" rx="0" fill="#000000" fill-opacity="1"/></g><g><rect x="24" y="8" width="2" height="2" rx="0" fill="#000000" fill-opacity="1"/></g><g><rect x="18" y="14" width="2" height="2" rx="0" fill="#000000" fill-opacity="1"/></g><g><rect x="24" y="14" width="2" height="2" rx="0" fill="#000000" fill-opacity="1"/></g><g><rect x="18" y="19.99959945678711" width="2" height="2" rx="0" fill="#000000" fill-opacity="1"/></g><g><rect x="24" y="19.99959945678711" width="2" height="2" rx="0" fill="#000000" fill-opacity="1"/></g><g><rect x="2" y="10.000200271606445" width="5" height="1.999500036239624" rx="0" fill="#000000" fill-opacity="1"/></g><g><rect x="10" y="2" width="2" height="5" rx="0" fill="#000000" fill-opacity="1"/></g><g transform="matrix(0.7071067690849304,-0.7071067690849304,0.7071067690849304,0.7071067690849304,-2.656767429013968,4.4141875400767105)"><rect x="4.000011920928955" y="5.414095878601074" width="1.9997999668121338" height="5.071300029754639" rx="0" fill="#000000" fill-opacity="1"/></g><g></g></g></svg>