<svg xmlns="http://www.w3.org/2000/svg" xmlns:xlink="http://www.w3.org/1999/xlink" fill="none" version="1.1" width="32" height="32" viewBox="0 0 32 32"><defs><clipPath id="master_svg0_134_10200"><rect x="0" y="0" width="32" height="32" rx="0"/></clipPath></defs><g clip-path="url(#master_svg0_134_10200)"><g><path d="M28,2L16,2C14.8959,2.00110173,14.0011,2.895887,14,4L14,14L4,14C2.895887,14.0011,2.00110173,14.8959,2,16L2,30L30,30L30,4C29.9987,2.895956,29.104,2.00126863,28,2ZM9,28L9,21L13,21L13,28L9,28ZM28,28L15,28L15,20C15,19.4477,14.5523,19,14,19L8,19C7.44772,19,7,19.4477,7,20L7,28L4,28L4,16L16,16L16,4L28,4L28,28Z" fill="#000000" fill-opacity="1"/></g><g><rect x="18" y="8" width="2" height="2" rx="0" fill="#000000" fill-opacity="1"/></g><g><rect x="24" y="8" width="2" height="2" rx="0" fill="#000000" fill-opacity="1"/></g><g><rect x="18" y="14" width="2" height="2" rx="0" fill="#000000" fill-opacity="1"/></g><g><rect x="24" y="14" width="2" height="2" rx="0" fill="#000000" fill-opacity="1"/></g><g><rect x="18" y="19.99959945678711" width="2" height="2" rx="0" fill="#000000" fill-opacity="1"/></g><g><rect x="24" y="19.99959945678711" width="2" height="2" rx="0" fill="#000000" fill-opacity="1"/></g><g><path d="M9,12L7,12C7.0032506,9.23992,9.23992,7.0032506,12,7L12,9C10.3439,9.00182,9.00182,10.3439,9,12Z" fill="#000000" fill-opacity="1"/></g><g><path d="M4,12L2,12C2.00628328,6.47976,6.47976,2.00628233,12,2L12,4C7.58382,4.00507,4.00507,7.58382,4,12Z" fill="#000000" fill-opacity="1"/></g><g></g></g></svg>