<svg xmlns="http://www.w3.org/2000/svg" xmlns:xlink="http://www.w3.org/1999/xlink" fill="none" version="1.1" width="32" height="32" viewBox="0 0 32 32"><defs><clipPath id="master_svg0_134_10288"><rect x="0" y="0" width="32" height="32" rx="0"/></clipPath></defs><g clip-path="url(#master_svg0_134_10288)"><g><rect x="24" y="2" width="2" height="7" rx="0" fill="#000000" fill-opacity="1"/></g><g><rect x="23.5" y="11" width="3" height="3" rx="1.5" fill="#000000" fill-opacity="1"/></g><g><path d="M23.82178477745056,17.999985697937014L15.082984777450562,17.999985697937014L11.864294777450562,5.9652956979370115C11.29268477745056,3.8313816979370117,9.099414777450562,2.564884697937012,6.965494777450561,3.1365006979370116C4.8315807774505615,3.7081156979370116,3.5650847774505614,5.901385697937012,4.136699777450562,8.035295697937013L8.54539477745056,24.51678569793701C8.779374777450561,25.39158569793701,9.571944777450561,25.99998569793701,10.477494777450563,25.99998569793701L18.999984777450564,25.99998569793701L18.999984777450564,27.99998569793701L4.000000000450561,27.99998569793701L4.000000000450561,29.99998569793701L18.999984777450564,29.99998569793701C20.10458477745056,29.99998569793701,20.99998477745056,29.10458569793701,20.99998477745056,27.99998569793701L20.99998477745056,25.99998569793701L23.99998477745056,25.99998569793701C26.36598477745056,25.99698569793701,28.21358477745056,23.954385697937013,27.97998477745056,21.59998569793701C27.71438477745056,19.515385697937013,25.922984777450562,17.96438569793701,23.82178477745056,17.999985697937014ZM23.99998477745056,23.99998569793701L10.477494777450563,23.99998569793701L6.068604777450561,7.518095697937012C5.782734777450561,6.451135697937012,6.415944777450561,5.3544656979370115,7.482904777450562,5.0685956979370115C8.549854777450562,4.782735697937012,9.646534777450562,5.415945697937012,9.932394777450561,6.482895697937012L13.546604777450561,19.99998569793701L23.99998477745056,19.99998569793701C25.10458477745056,19.99998569793701,25.99998477745056,20.895385697937012,25.99998477745056,21.99998569793701C25.99998477745056,23.10458569793701,25.10458477745056,23.99998569793701,23.99998477745056,23.99998569793701Z" fill="#000000" fill-opacity="1"/></g><g></g></g></svg>