<svg xmlns="http://www.w3.org/2000/svg" xmlns:xlink="http://www.w3.org/1999/xlink" fill="none" version="1.1" width="32" height="32" viewBox="0 0 32 32"><defs><clipPath id="master_svg0_134_10301"><rect x="0" y="0" width="32" height="32" rx="0"/></clipPath></defs><g clip-path="url(#master_svg0_134_10301)"><g><path d="M18,9L14,9C12.895431,9,12,9.895431,12,11L12,23L14,23L14,18L18,18L18,23L20,23L20,11C20,9.895431,19.10457,9,18,9ZM14,16L14,11L18,11L18,16L14,16Z" fill="#000000" fill-opacity="1"/></g><g><path d="M26,23L22,23L22,9L26,9C28.209139999999998,9,30,10.79086,30,13L30,19C30,21.2091,28.209139999999998,23,26,23ZM24,21L26,21C27.10457,21,28,20.104599999999998,28,19L28,13C28,11.895430000000001,27.10457,11,26,11L24,11L24,21Z" fill="#000000" fill-opacity="1"/></g><g><path d="M10,23L4,23C2.895431,23,2,22.104599999999998,2,21L2,11C2,9.895431,2.895431,9,4,9L10,9L10,11L4,11L4,21L10,21L10,23Z" fill="#000000" fill-opacity="1"/></g><g></g></g></svg>