<svg xmlns="http://www.w3.org/2000/svg" xmlns:xlink="http://www.w3.org/1999/xlink" fill="none" version="1.1" width="32" height="32" viewBox="0 0 32 32"><defs><clipPath id="master_svg0_134_10375"><rect x="0" y="0" width="32" height="32" rx="0"/></clipPath></defs><g clip-path="url(#master_svg0_134_10375)"><g><g><path d="M26,21L23,21L23,18L21,18L21,21L18,21L18,23L21,23L21,26L23,26L23,23L26,23L26,21Z" fill="#000000" fill-opacity="1"/></g><g><path d="M22,30C17.6,30,14,26.4,14,22C14,17.6,17.6,14,22,14C26.4,14,30,17.6,30,22C30,26.4,26.4,30,22,30ZM22,16C18.7,16,16,18.7,16,22C16,25.3,18.7,28,22,28C25.3,28,28,25.3,28,22C28,18.7,25.3,16,22,16Z" fill="#000000" fill-opacity="1"/></g><g><path d="M28,6C28,4.9,27.1,4,26,4L22,4L22,2L20,2L20,4L12,4L12,2L10,2L10,4L6,4C4.9,4,4,4.9,4,6L4,26C4,27.1,4.9,28,6,28L12,28L12,26L6,26L6,6L10,6L10,8L12,8L12,6L20,6L20,8L22,8L22,6L26,6L26,12L28,12L28,6Z" fill="#000000" fill-opacity="1"/></g><g></g></g></g></svg>