<svg xmlns="http://www.w3.org/2000/svg" xmlns:xlink="http://www.w3.org/1999/xlink" fill="none" version="1.1" width="32" height="32" viewBox="0 0 32 32"><defs><clipPath id="master_svg0_134_10363"><rect x="0" y="0" width="32" height="32" rx="0"/></clipPath></defs><g clip-path="url(#master_svg0_134_10363)"><g><path d="M26,4L22,4L22,2L20,2L20,4L12,4L12,2L10,2L10,4L6,4C4.9,4,4,4.9,4,6L4,26C4,27.1,4.9,28,6,28L26,28C27.1,28,28,27.1,28,26L28,6C28,4.9,27.1,4,26,4ZM26,26L6,26L6,12L26,12L26,26ZM26,10L6,10L6,6L10,6L10,8L12,8L12,6L20,6L20,8L22,8L22,6L26,6L26,10Z" fill="#000000" fill-opacity="1"/></g><g></g></g></svg>