<svg xmlns="http://www.w3.org/2000/svg" xmlns:xlink="http://www.w3.org/1999/xlink" fill="none" version="1.1" width="32" height="32" viewBox="0 0 32 32"><defs><clipPath id="master_svg0_134_10419"><rect x="0" y="0" width="32" height="32" rx="0"/></clipPath></defs><g clip-path="url(#master_svg0_134_10419)"><g><path d="M26,12C23.7909,12,22,13.7908,22,16C22,18.2092,23.7909,20,26,20C28.2091,20,30,18.2091,30,16C30,13.7909,28.2092,12,26,12ZM26,18C24.8972,18,24,17.102800000000002,24,16C24,14.8972,24.8972,14,26,14C27.102800000000002,14,28,14.8972,28,16C28,17.102800000000002,27.102800000000002,18,26,18Z" fill="#000000" fill-opacity="1"/></g><g><path d="M15,20L13.5857,21.4141L16.171599999999998,24L7.8157,24C7.4016,22.8389,6.302,22,5,22C3.3457,22,2,23.3457,2,25C2,26.6543,3.3457,28,5,28C6.302,28,7.4016,27.1611,7.8157,26L16.1717,26L13.5858,28.585900000000002L15.0001,30L20.0001,25L15,20ZM5,26C4.4485,26,4,25.5513,4,25C4,24.4487,4.4485,24,5,24C5.5515,24,6,24.4487,6,25C6,25.5513,5.5515,26,5,26Z" fill="#000000" fill-opacity="1"/></g><g><path d="M15,4L13.5857,5.4140999999999995L16.171599999999998,8L7.8157,8C7.4016,6.838900000000001,6.302,6,5,6C3.3457,6,2,7.3457,2,9C2,10.6543,3.3457,12,5,12C6.302,12,7.4016,11.161100000000001,7.8157,10L16.1717,10L13.5858,12.5859L15.0001,14L20.0001,9L15,4ZM5,10C4.4485,10,4,9.551300000000001,4,9C4,8.448699999999999,4.4485,8,5,8C5.5515,8,6,8.448699999999999,6,9C6,9.551300000000001,5.5515,10,5,10Z" fill="#000000" fill-opacity="1"/></g><g></g></g></svg>