<svg xmlns="http://www.w3.org/2000/svg" xmlns:xlink="http://www.w3.org/1999/xlink" fill="none" version="1.1" width="32" height="32" viewBox="0 0 32 32"><defs><clipPath id="master_svg0_134_10426"><rect x="0" y="0" width="32" height="32" rx="0"/></clipPath></defs><g clip-path="url(#master_svg0_134_10426)"><g><path d="M29,26L3,26C2.447715,26,2,25.5523,2,25L2,8C2,7.44772,2.447715,7,3,7L9.46,7L11.17,4.45C11.35398,4.170615,11.66548,4.00173092,12,4L20,4C20.3345,4.00173044,20.646,4.170615,20.83,4.45L22.54,7L29,7C29.5523,7,30,7.44772,30,8L30,25C30,25.5523,29.5523,26,29,26ZM4,24L28,24L28,9L22,9C21.6655,8.99827,21.354,8.82938,21.17,8.55L19.46,6L12.54,6L10.83,8.55C10.64602,8.82938,10.33452,8.99827,10,9L4,9L4,24Z" fill="#000000" fill-opacity="1"/></g><g><path d="M16,22C12.68629,22,10,19.31371,10,16C10,12.68629,12.68629,10,16,10C19.31371,10,22,12.68629,22,16C22,19.31371,19.31371,22,16,22ZM16,12C13.79086,12,12,13.79086,12,16C12,18.209139999999998,13.79086,20,16,20C18.209139999999998,20,20,18.209139999999998,20,16C20,13.79086,18.209139999999998,12,16,12Z" fill="#000000" fill-opacity="1"/></g><g></g></g></svg>