<svg xmlns="http://www.w3.org/2000/svg" xmlns:xlink="http://www.w3.org/1999/xlink" fill="none" version="1.1" width="32" height="32" viewBox="0 0 32 32"><defs><clipPath id="master_svg0_134_10585"><rect x="0" y="0" width="32" height="32" rx="0"/></clipPath></defs><g clip-path="url(#master_svg0_134_10585)"><g><path d="M27.00003901023865,22.1414L27.00003901023865,18C27.00003901023865,16.895400000000002,26.104539010238646,16,25.00003901023865,16L17.00003901023865,16L17.00003901023865,12L19.00003901023865,12C20.104039010238647,11.99873,20.998739010238648,11.10404,21.00003901023865,10L21.00003901023865,4C20.998739010238648,2.895955,20.104039010238647,2.00126648,19.00003901023865,2L13.000039010238648,2C11.895889010238648,2.00110245,11.001099010238647,2.895887,10.999999010238648,4L10.999999010238648,10C11.001099010238647,11.10411,11.895889010238648,11.9989,13.000039010238648,12L15.000039010238648,12L15.000039010238648,16L6.999999010238647,16C5.895429010238647,16,4.999999010238648,16.895400000000002,4.999999010238648,18L4.999999010238648,22.1421C2.3018200102386475,22.8388,1.1250120102386476,26.0119,2.7164330102386476,28.2994C4.307859010238648,30.587,7.692149010238648,30.587,9.283569010238647,28.2994C10.874989010238647,26.0119,9.698179010238647,22.8388,6.999999010238647,22.1421L6.999999010238647,18L15.000039010238648,18L15.000039010238648,22.142C12.301839010238648,22.8387,11.125009010238648,26.0118,12.716439010238647,28.2993C14.307839010238647,30.5869,17.692139010238648,30.5869,19.28353901023865,28.2993C20.87493901023865,26.0118,19.69813901023865,22.8387,17.00003901023865,22.142L17.00003901023865,18L25.00003901023865,18L25.00003901023865,22.1414C22.30183901023865,22.8381,21.12503901023865,26.0112,22.71643901023865,28.2987C24.30783901023865,30.5863,27.692139010238648,30.5863,29.28353901023865,28.2987C30.87493901023865,26.0112,29.69813901023865,22.8381,27.00003901023865,22.1414ZM13.000039010238648,4L19.00003901023865,4L19.001039010238646,10L13.000039010238648,10L13.000039010238648,4ZM7.999999010238647,26C7.999999010238647,27.1046,7.104569010238648,28,5.999999010238647,28C4.895429010238647,28,3.9999990102386476,27.1046,3.9999990102386476,26C3.9999990102386476,24.8954,4.895429010238647,24,5.999999010238647,24C7.104049010238647,24.0013,7.998729010238647,24.896,7.999999010238647,26ZM18.00003901023865,26C18.00003901023865,27.1046,17.104539010238646,28,16.00003901023865,28C14.895439010238647,28,14.000039010238648,27.1046,14.000039010238648,26C14.000039010238648,24.8954,14.895439010238647,24,16.00003901023865,24C17.103939010238648,24.0015,17.998539010238648,24.896,18.00003901023865,26ZM26.00003901023865,28C24.895439010238647,28,24.00003901023865,27.1046,24.00003901023865,26C24.00003901023865,24.8954,24.895439010238647,24,26.00003901023865,24C27.104539010238646,24,28.00003901023865,24.8954,28.00003901023865,26C27.998739010238648,27.104,27.104039010238647,27.9987,26.00003901023865,28Z" fill="#000000" fill-opacity="1"/></g><g></g></g></svg>