<svg xmlns="http://www.w3.org/2000/svg" xmlns:xlink="http://www.w3.org/1999/xlink" fill="none" version="1.1" width="32" height="32" viewBox="0 0 32 32"><defs><clipPath id="master_svg0_134_24472"><rect x="0" y="0" width="32" height="32" rx="0"/></clipPath></defs><g clip-path="url(#master_svg0_134_24472)"><g><path d="M16,28C9.37258,28,4,22.6274,4,16C4,9.37258,9.37258,4,16,4C22.6274,4,28,9.37258,28,16C28,22.6274,22.6274,28,16,28ZM16,6C10.47715,6,6,10.47715,6,16C6,21.5228,10.47715,26,16,26C21.5228,26,26,21.5228,26,16C26,10.47715,21.5228,6,16,6Z" fill="#000000" fill-opacity="1"/></g><g><path d="M16,22C12.68629,22,10,19.31371,10,16C10,12.68629,12.68629,10,16,10C19.31371,10,22,12.68629,22,16C22,19.31371,19.31371,22,16,22ZM16,12C13.79086,12,12,13.79086,12,16C12,18.209139999999998,13.79086,20,16,20C18.209139999999998,20,20,18.209139999999998,20,16C20,13.79086,18.209139999999998,12,16,12Z" fill="#000000" fill-opacity="1"/></g><g><ellipse cx="16" cy="16" rx="2" ry="2" fill="#000000" fill-opacity="1"/></g><g></g></g></svg>