<svg xmlns="http://www.w3.org/2000/svg" xmlns:xlink="http://www.w3.org/1999/xlink" fill="none" version="1.1" width="32" height="32" viewBox="0 0 32 32"><defs><clipPath id="master_svg0_134_10634"><rect x="0" y="0" width="32" height="32" rx="0"/></clipPath></defs><g clip-path="url(#master_svg0_134_10634)"><g><path d="M6,12L4,12L4,4L12,4L12,6L6,6L6,12Z" fill="#000000" fill-opacity="1"/></g><g><path d="M28,12L26,12L26,6L20,6L20,4L28,4L28,12Z" fill="#000000" fill-opacity="1"/></g><g><path d="M12,28L4,28L4,20L6,20L6,26L12,26L12,28Z" fill="#000000" fill-opacity="1"/></g><g><path d="M28,28L20,28L20,26L26,26L26,20L28,20L28,28Z" fill="#000000" fill-opacity="1"/></g><g><rect x="15" y="10" width="2" height="4" rx="0" fill="#000000" fill-opacity="1"/></g><g><rect x="10" y="15" width="4" height="2" rx="0" fill="#000000" fill-opacity="1"/></g><g><rect x="18" y="15" width="4" height="2" rx="0" fill="#000000" fill-opacity="1"/></g><g><rect x="15" y="18" width="2" height="4" rx="0" fill="#000000" fill-opacity="1"/></g><g></g></g></svg>