<svg xmlns="http://www.w3.org/2000/svg" xmlns:xlink="http://www.w3.org/1999/xlink" fill="none" version="1.1" width="32" height="32" viewBox="0 0 32 32"><defs><clipPath id="master_svg0_134_10629"><rect x="0" y="0" width="32" height="32" rx="0"/></clipPath></defs><g clip-path="url(#master_svg0_134_10629)"><g><path d="M30,15L27.9492,15C27.4546,9.17004,22.83,4.5453600000000005,17,4.050800000000001L17,2L15,2L15,4.050800000000001C9.17004,4.5453600000000005,4.5453600000000005,9.17004,4.050800000000001,15L2,15L2,17L4.050800000000001,17C4.5453600000000005,22.83,9.17004,27.4546,15,27.9492L15,30L17,30L17,27.9492C22.83,27.4546,27.4546,22.83,27.9492,17L30,17L30,15ZM17,25.9492L17,22L15,22L15,25.9492C10.27149,25.4672,6.53279,21.7285,6.0508,17L10,17L10,15L6.0508,15C6.53279,10.27149,10.27149,6.53279,15,6.0508L15,10L17,10L17,6.0508C21.7285,6.53279,25.4672,10.27149,25.9492,15L22,15L22,17L25.9492,17C25.4672,21.7285,21.7285,25.4672,17,25.9492Z" fill="#000000" fill-opacity="1"/></g><g></g></g></svg>