<svg xmlns="http://www.w3.org/2000/svg" xmlns:xlink="http://www.w3.org/1999/xlink" fill="none" version="1.1" width="32" height="32" viewBox="0 0 32 32"><defs><clipPath id="master_svg0_134_10664"><rect x="0" y="0" width="32" height="32" rx="0"/></clipPath></defs><g clip-path="url(#master_svg0_134_10664)"><g><rect x="6" y="16" width="6" height="2" rx="0" fill="#000000" fill-opacity="1"/></g><g><rect x="6" y="12" width="10" height="2" rx="0" fill="#000000" fill-opacity="1"/></g><g><rect x="6" y="8" width="10" height="2" rx="0" fill="#000000" fill-opacity="1"/></g><g><path d="M14,26L4,26L4,6L28,6L28,16L30,16L30,6C30,4.895431,29.1046,4,28,4L4,4C2.895431,4,2,4.895431,2,6L2,26C2,27.1046,2.895431,28,4,28L14,28L14,26Z" fill="#000000" fill-opacity="1"/></g><g><path d="M22,25.59L19.41,23L18,24.41L22,28.41L30,20.41L28.59,19L22,25.59Z" fill="#000000" fill-opacity="1"/></g><g></g></g></svg>