<svg xmlns="http://www.w3.org/2000/svg" xmlns:xlink="http://www.w3.org/1999/xlink" fill="none" version="1.1" width="32" height="32" viewBox="0 0 32 32"><defs><clipPath id="master_svg0_134_11149"><rect x="0" y="0" width="32" height="32" rx="0"/></clipPath></defs><g clip-path="url(#master_svg0_134_11149)"><g><path d="M20,5.999999999998526C18.6228,5.999306201488525,17.2606,6.285377569488525,16,6.8400005694885255C14.7394,6.285377569488525,13.3772,5.999306201488525,12,5.999999999998526C6.47715,5.999999999998526,2,10.477148569488525,2,15.999998569488525C2,21.522898569488525,6.47715,25.999998569488525,12,25.999998569488525C13.3772,26.000698569488524,14.7394,25.714598569488526,16,25.159998569488526C17.2606,25.714598569488526,18.6228,26.000698569488524,20,25.999998569488525C25.5228,25.999998569488525,30,21.522898569488525,30,15.999998569488525C30,10.477148569488525,25.5228,5.999999999998526,20,5.999999999998526ZM12,23.999998569488525C7.58172,23.999998569488525,4,20.418298569488528,4,15.999998569488525C4,11.581718569488526,7.58172,7.999998569488525,12,7.999998569488525C12.5923,8.000558569488526,13.1827,8.067648569488526,13.76,8.199998569488525C8.770389999999999,12.203068569488526,8.770389999999999,19.796898569488526,13.76,23.799998569488526C13.1827,23.932398569488527,12.5923,23.999398569488527,12,23.999998569488525ZM20,15.999998569488525C19.9971,18.855198569488525,18.4727,21.492398569488525,16,22.919998569488527C10.68557,19.837198569488525,10.68557,12.162808569488526,16,9.079998569488525C18.4727,10.507598569488525,19.9971,13.144808569488525,20,15.999998569488525ZM20,23.999998569488525C19.4077,23.999398569488527,18.8173,23.932398569488527,18.24,23.799998569488526C23.2296,19.796898569488526,23.2296,12.203068569488526,18.24,8.199998569488525C18.8173,8.067648569488526,19.4077,8.000558569488526,20,7.999998569488525C24.4183,7.999998569488525,28,11.581718569488526,28,15.999998569488525C28,20.418298569488528,24.4183,23.999998569488525,20,23.999998569488525Z" fill="#000000" fill-opacity="1"/></g><g></g></g></svg>