<svg xmlns="http://www.w3.org/2000/svg" xmlns:xlink="http://www.w3.org/1999/xlink" fill="none" version="1.1" width="32" height="32" viewBox="0 0 32 32"><defs><clipPath id="master_svg0_134_11069"><rect x="0" y="0" width="32" height="32" rx="0"/></clipPath></defs><g clip-path="url(#master_svg0_134_11069)"><g><path d="M16,30C8.27162,29.9913,2.00871015,23.7284,2,16L4,16C4,22.6274,9.37258,28,16,28C22.6274,28,28,22.6274,28,16C28,9.37258,22.6274,4,16,4L16,2C23.732,2,30,8.26801,30,16C30,23.732,23.732,30,16,30Z" fill="#000000" fill-opacity="1"/></g><g><path d="M16,26C10.47978,25.9937,6.00633812,21.520200000000003,6,16L8,16C8,20.418300000000002,11.58172,24,16,24C20.418300000000002,24,24,20.418300000000002,24,16C24,11.58172,20.418300000000002,8,16,8L16,6C21.5228,6,26,10.47715,26,16C26,21.5228,21.5228,26,16,26Z" fill="#000000" fill-opacity="1"/></g><g><path d="M16,22C12.68787,21.9962,10.0038023,19.31213,10,16L12,16C12,18.209139999999998,13.79086,20,16,20C18.209139999999998,20,20,18.209139999999998,20,16C20,13.79086,18.209139999999998,12,16,12L16,10C19.31371,10,22,12.68629,22,16C22,19.31371,19.31371,22,16,22Z" fill="#000000" fill-opacity="1"/></g><g></g></g></svg>