<svg xmlns="http://www.w3.org/2000/svg" xmlns:xlink="http://www.w3.org/1999/xlink" fill="none" version="1.1" width="32" height="32" viewBox="0 0 32 32"><defs><clipPath id="master_svg0_134_10793"><rect x="0" y="0" width="32" height="32" rx="0"/></clipPath></defs><g clip-path="url(#master_svg0_134_10793)"><g><path d="M23.000000048828124,24C19.400900048828127,24,17.970700048828125,19.824199999999998,16.587400048828123,15.7861C15.276400048828124,11.958300000000001,13.920000048828125,8,11.000000048828124,8C9.605270048828125,8.08201,8.398670048828125,8.99944,7.946800048828125,10.3215L6.051300048828125,9.6838C6.101600148828125,9.5334,7.321800048828125,6,11.000000048828124,6C15.349100048828126,6,17.012200048828127,10.854700000000001,18.480000048828124,15.1379C19.688500048828125,18.6667,20.830000048828126,22,23.000000048828124,22C24.394700048828124,21.918,25.601300048828126,21.0006,26.053200048828124,19.6785L27.948700048828126,20.316200000000002C27.898400048828126,20.4666,26.678200048828124,24,23.000000048828124,24Z" fill="#000000" fill-opacity="1"/></g><g><path d="M4,28L4,17L6,17L6,15L4,15L4,2L2,2L2,28C2,29.1046,2.895431,30,4,30L30,30L30,28L4,28Z" fill="#000000" fill-opacity="1"/></g><g><rect x="8" y="15" width="2" height="2" rx="0" fill="#000000" fill-opacity="1"/></g><g><rect x="12" y="15" width="2" height="2" rx="0" fill="#000000" fill-opacity="1"/></g><g><rect x="20" y="15" width="2" height="2" rx="0" fill="#000000" fill-opacity="1"/></g><g><rect x="24" y="15" width="2" height="2" rx="0" fill="#000000" fill-opacity="1"/></g><g><rect x="28" y="15" width="2" height="2" rx="0" fill="#000000" fill-opacity="1"/></g><g></g></g></svg>