<svg xmlns="http://www.w3.org/2000/svg" xmlns:xlink="http://www.w3.org/1999/xlink" fill="none" version="1.1" width="32" height="32" viewBox="0 0 32 32"><defs><clipPath id="master_svg0_134_10876"><rect x="0" y="0" width="32" height="32" rx="0"/></clipPath></defs><g clip-path="url(#master_svg0_134_10876)"><g><path d="M28,22L20,22L20,4L28,4L28,22ZM22,20L26,20L26,6L22,6L22,20Z" fill="#000000" fill-opacity="1"/></g><g><path d="M16,24L8,24L8,10L16,10L16,24ZM10,22L14,22L14,12L10,12L10,22Z" fill="#000000" fill-opacity="1"/></g><g><path d="M30,30L4,30C2.895911,29.9988,2.00115824,29.1041,2,28L2,2L4,2L4,28L30,28L30,30Z" fill="#000000" fill-opacity="1"/></g><g></g></g></svg>