<svg xmlns="http://www.w3.org/2000/svg" xmlns:xlink="http://www.w3.org/1999/xlink" fill="none" version="1.1" width="32" height="32" viewBox="0 0 32 32"><defs><clipPath id="master_svg0_134_10911"><rect x="0" y="0" width="32" height="32" rx="0"/></clipPath></defs><g clip-path="url(#master_svg0_134_10911)"><g><path d="M28.000000476837158,2L28.000000476837158,7.7222L20.468300476837157,14.6743L12.381800476837158,6.5879C11.990000476837158,6.1968,11.470700476837159,5.9961,10.951600476837157,6C10.487200476837158,6.0034,10.023100476837158,6.1714,9.650600476837159,6.4976L4.000000476837158,11.4419L4.000000476837158,2L2.000000476837158,2L2.000000476837158,28C2.000000476837158,29.1025,2.897200476837158,30,4.000000476837158,30L28.000000476837158,30C29.102800476837157,30,30.000000476837158,29.1025,30.000000476837158,28L30.000000476837158,2L28.000000476837158,2ZM28.000000476837158,10.4438L28.000000476837158,22.206L21.88350047683716,16.0898L28.000000476837158,10.4438ZM10.967800476837159,8.0024L18.997600476837157,16.0322L15.783500476837158,18.999L12.368700476837159,15.584C11.997600476837158,15.2134,11.512300476837158,15.0166,11.020800476837158,15C10.529300476837157,14.9834,10.032300476837158,15.1475,9.637500476837157,15.4932L4.000000476837158,20.4258L4.000000476837158,14.0996L10.967800476837159,8.0024ZM4.000000476837158,28L4.000000476837158,23.0835L10.954600476837157,16.9985L14.369200476837158,20.4131C14.750100476837158,20.794,15.244700476837158,20.9902,15.743200476837158,21C16.24170047683716,21.0098,16.743900476837158,20.834,17.13990047683716,20.4688L20.41280047683716,17.4473L28.000000476837158,25.0342L28.000000476837158,28L4.000000476837158,28Z" fill="#000000" fill-opacity="1"/></g><g></g></g></svg>