<svg xmlns="http://www.w3.org/2000/svg" xmlns:xlink="http://www.w3.org/1999/xlink" fill="none" version="1.1" width="32" height="32" viewBox="0 0 32 32"><defs><clipPath id="master_svg0_134_11045"><rect x="0" y="0" width="32" height="32" rx="0"/></clipPath></defs><g clip-path="url(#master_svg0_134_11045)"><g><path d="M30,30L4,30C2.895956,29.9987,2.00126839,29.104,2,28L2,2L4,2L4,28L30,28L30,30Z" fill="#000000" fill-opacity="1"/></g><g><ellipse cx="9" cy="6" rx="3" ry="3" fill="#000000" fill-opacity="1"/></g><g><ellipse cx="9" cy="22" rx="3" ry="3" fill="#000000" fill-opacity="1"/></g><g><ellipse cx="18" cy="14" rx="3" ry="3" fill="#000000" fill-opacity="1"/></g><g><path d="M9,17C7.34315,17,6,15.65685,6,14C6,12.34315,7.34315,11,9,11C10.65685,11,12,12.34315,12,14C11.99818,15.6561,10.6561,16.998179999999998,9,17ZM9,13C8.44771,13,8,13.44772,8,14C8,14.55228,8.44771,15,9,15C9.55229,15,10,14.55228,10,14C9.99945,13.44794,9.55206,13.00055,9,13Z" fill="#000000" fill-opacity="1"/></g><g><ellipse cx="27" cy="6" rx="3" ry="3" fill="#000000" fill-opacity="1"/></g><g><ellipse cx="27" cy="22" rx="3" ry="3" fill="#000000" fill-opacity="1"/></g><g><path d="M27,17C25.34315,17,24,15.65685,24,14C24,12.34315,25.34315,11,27,11C28.65685,11,30,12.34315,30,14C29.998179999999998,15.6561,28.656100000000002,16.998179999999998,27,17ZM27,13C26.44771,13,26,13.44772,26,14C26,14.55228,26.44771,15,27,15C27.55229,15,28,14.55228,28,14C27.99945,13.44794,27.55206,13.00055,27,13Z" fill="#000000" fill-opacity="1"/></g><g><path d="M18,26C16.34315,26,15,24.65685,15,23C15,21.34315,16.34315,20,18,20C19.65685,20,21,21.34315,21,23C20.998179999999998,24.656100000000002,19.656100000000002,25.998179999999998,18,26ZM18,22C17.44771,22,17,22.44772,17,23C17,23.55228,17.44771,24,18,24C18.55229,24,19,23.55228,19,23C18.99945,22.44794,18.55206,22.00055,18,22Z" fill="#000000" fill-opacity="1"/></g><g><path d="M18,8C16.34315,8,15,6.65685,15,5C15,3.34315,16.34315,2,18,2C19.65685,2,21,3.34315,21,5C20.998179999999998,6.6561,19.656100000000002,7.99818,18,8ZM18,4C17.44771,4,17,4.44772,17,5C17,5.55228,17.44771,6,18,6C18.55229,6,19,5.55228,19,5C18.99945,4.44794,18.55206,4.0005500000000005,18,4Z" fill="#000000" fill-opacity="1"/></g><g></g></g></svg>