<svg xmlns="http://www.w3.org/2000/svg" xmlns:xlink="http://www.w3.org/1999/xlink" fill="none" version="1.1" width="32" height="32" viewBox="0 0 32 32"><defs><clipPath id="master_svg0_134_11154"><rect x="0" y="0" width="32" height="32" rx="0"/></clipPath></defs><g clip-path="url(#master_svg0_134_11154)"><g><path d="M30,30L4,30C2.895431,30,2,29.1046,2,28L2,2L4,2L4,28L30,28L30,30Z" fill="#000000" fill-opacity="1"/></g><g><path d="M14.86,7.8232L13,4.7231000000000005L13,2L11,2L11,4.7231000000000005L9.14,7.8231C8.394048,9.06611,7.999999523163,10.48879,8,11.939L8,12.061C7.999816895,13.5109,8.393873,14.9336,9.14,16.1768L11,19.2768L11,26L13,26L13,19.2769L14.86,16.1769C15.60595,14.9339,16,13.5112,16,12.061L16,11.939C16.00018,10.48908,15.60613,9.0664,14.86,7.8232ZM12,6.9434L13.145,8.8521C13.53786,9.51199,13.80044,10.24115,13.9185,11L10.0815,11C10.19964,10.24101,10.462209999999999,9.51171,10.855,8.851600000000001L12,6.9434ZM12,17.0566L10.855,15.1479C10.46214,14.488,10.19956,13.7589,10.0815,13L13.9185,13C13.800360000000001,13.759,13.537790000000001,14.4883,13.145,15.1484L12,17.0566Z" fill="#000000" fill-opacity="1"/></g><g><path d="M27.86,11.8232L26,8.723099999999999L26,2L24,2L24,8.723099999999999L22.14,11.8231C21.394047,13.0661,21,14.4888,21,15.939L21,16.061C20.999816895,17.5109,21.393873,18.9336,22.14,20.1768L24,23.2768L24,26L26,26L26,23.2769L27.86,20.1769C28.60595,18.9339,29,17.511200000000002,29,16.061L29,15.939C29.00018,14.4891,28.60613,13.0664,27.86,11.8232ZM25,10.9432L26.145,12.8519C26.53788,13.5119,26.80047,14.2411,26.9185,15L23.0815,15C23.19964,14.241,23.46221,13.5117,23.855,12.8516L25,10.9432ZM25,21.0564L23.855,19.1477C23.46216,18.4879,23.19958,17.7588,23.0815,17L26.9185,17C26.80036,17.759,26.53779,18.4883,26.145,19.1484L25,21.0564Z" fill="#000000" fill-opacity="1"/></g><g></g></g></svg>