<svg xmlns="http://www.w3.org/2000/svg" xmlns:xlink="http://www.w3.org/1999/xlink" fill="none" version="1.1" width="32" height="32" viewBox="0 0 32 32"><defs><clipPath id="master_svg0_134_10947"><rect x="0" y="0" width="32" height="32" rx="0"/></clipPath></defs><g clip-path="url(#master_svg0_134_10947)"><g><path d="M4.67,28L11.06,16L18.36,22.49C18.8233,22.9016,19.4511,23.0752,20.06,22.96C20.6746,22.8449,21.1999,22.449,21.48,21.89L27,10.9L25.18,10L19.69,21L12.39,14.51C11.93854,14.0901,11.31867,13.902,10.71,14C10.10908,14.0997,9.58635,14.4678,9.29,15L4,25L4,2L2,2L2,28C2,29.1046,2.895431,30,4,30L30,30L30,28L4.67,28Z" fill="#000000" fill-opacity="1"/></g><g></g></g></svg>