<svg xmlns="http://www.w3.org/2000/svg" xmlns:xlink="http://www.w3.org/1999/xlink" fill="none" version="1.1" width="32" height="32" viewBox="0 0 32 32"><defs><clipPath id="master_svg0_134_11086"><rect x="0" y="0" width="32" height="32" rx="0"/></clipPath></defs><g clip-path="url(#master_svg0_134_11086)"><g><path d="M12.4326,20.0171L20.4702,24.6971C20.7848,24.8952,21.1492,24.9997,21.521,24.9983C21.6855,24.9978,21.8494,24.9791,22.0098,24.9427L29.263,22.9658C29.6982,22.8472,30.0001,22.4518,30,22.0007L30,7.996C29.9999,7.33801,29.3754,6.85942,28.74,7.0305L21.5034,8.9829L13.4663,4.3029C12.9057,3.9505999999999997,12.2067,3.89993,11.6011,4.1677L4,7.4727L4,2L2,2L2,28C2,29.1046,2.895431,30,4,30L30,30L30,28L4,28L4,23.6577L12.4326,20.0171ZM28,21.2344L21.5034,22.9844L13.4663,18.3044C12.9056,17.9523,12.2067,17.901600000000002,11.6011,18.1691L4,21.4746L4,16.6572L12.4326,13.0156L20.47,17.6968C20.7847,17.8946,21.1491,17.9989,21.5208,17.9976C21.6853,17.9973,21.8492,17.9786,22.0096,17.9419L28,16.310000000000002L28,21.2344ZM12.4326,6.0156L20.4702,10.6956C20.9296,10.98131,21.4848,11.06967,22.0102,10.9407L28,9.3081L28,14.2339L21.5034,15.9844L13.4663,11.3032C12.9057,10.9509,12.2067,10.90023,11.6011,11.168L4,14.4736L4,9.6562L12.4326,6.0156Z" fill="#000000" fill-opacity="1"/></g><g></g></g></svg>