<svg xmlns="http://www.w3.org/2000/svg" xmlns:xlink="http://www.w3.org/1999/xlink" fill="none" version="1.1" width="32" height="32" viewBox="0 0 32 32"><defs><clipPath id="master_svg0_134_10761"><rect x="0" y="0" width="32" height="32" rx="0"/></clipPath></defs><g clip-path="url(#master_svg0_134_10761)"><g><path d="M11.857000205993653,21.514000061035155L10.143000205993651,20.486000061035156L12.234000205993652,17.000000061035156L7.234000205993652,17.000000061035156L11.143000205993651,10.486000061035156L12.857000205993653,11.514000061035157L10.766000205993652,15.000000061035156L15.766000205993652,15.000000061035156L11.857000205993653,21.514000061035155Z" fill="#000000" fill-opacity="1"/></g><g><path d="M30,7L29,7L29,4L27,4L27,7L26,7L26,13L27,13L27,24.5C27,25.3284,26.3284,26,25.5,26C24.6716,26,24,25.3284,24,24.5L24,16C24,15.4477,23.5523,15,23,15L19,15L19,5C19,4.447715,18.5523,4,18,4L5,4C4.44772,4,4,4.447715,4,5L4,26L2,26L2,28L21,28L21,26L19,26L19,17L22,17L22,24.5C22,26.433,23.567,28,25.5,28C27.433,28,29,26.433,29,24.5L29,13L30,13L30,7ZM17,26L6,26L6,6L17,6L17,26Z" fill="#000000" fill-opacity="1"/></g><g></g></g></svg>