<svg xmlns="http://www.w3.org/2000/svg" xmlns:xlink="http://www.w3.org/1999/xlink" fill="none" version="1.1" width="32" height="32" viewBox="0 0 32 32"><defs><clipPath id="master_svg0_134_10711"><rect x="0" y="0" width="32" height="32" rx="0"/></clipPath></defs><g clip-path="url(#master_svg0_134_10711)"><g><path d="M29,23L24,23C22.896048,22.99851,22.00148582,22.103949999999998,22,21L22,15C22.00126648,13.895955,22.895955999999998,13.00126648,24,13L29,13L29,15L24,15L24,21L29,21L29,23Z" fill="#000000" fill-opacity="1"/></g><g><path d="M18,13L14,13L14,9L12,9L12,23L18,23C19.10395,22.9985,19.99851,22.104,20,21L20,15C19.998730000000002,13.895959999999999,19.10404,13.00127,18,13ZM14,21L14,15L18,15L18,21L14,21Z" fill="#000000" fill-opacity="1"/></g><g><path d="M8,13L3,13L3,15L8,15L8,17L4,17C2.895431,17,2,17.89543,2,19L2,21C2,22.104570000000002,2.895431,23,4,23L10,23L10,15C9.99873,13.895955,9.104040000000001,13.00126743,8,13ZM8,21L4,21L4,19L8,19L8,21Z" fill="#000000" fill-opacity="1"/></g><g></g></g></svg>