<svg xmlns="http://www.w3.org/2000/svg" xmlns:xlink="http://www.w3.org/1999/xlink" fill="none" version="1.1" width="32" height="32" viewBox="0 0 32 32"><defs><clipPath id="master_svg0_134_11040"><rect x="0" y="0" width="32" height="32" rx="0"/></clipPath></defs><g clip-path="url(#master_svg0_134_11040)"><g><path d="M29,8C29,7.4478,28.5522,7,28,7L24,7C23.4478,7,23,7.4478,23,8L23,15L21,15L21,3C21,2.4478,20.5522,2,20,2L16,2C15.4478,2,15,2.4478,15,3L15,15L13,15L13,5C13,4.4478,12.5522,4,12,4L8,4C7.4478,4,7,4.4478,7,5L7,15L3,15L3,27C3,27.5522,3.4478,28,4,28L8,28C8.5522,28,9,27.5522,9,27L9,17L11,17L11,22C11,22.5522,11.4478,23,12,23L16,23C16.5522,23,17,22.5522,17,22L17,17L19,17L19,29C19,29.5522,19.4478,30,20,30L24,30C24.5522,30,25,29.5522,25,29L25,17L29,17L29,8ZM7,26L5,26L5,17L7,17L7,26ZM15,21L13,21L13,17L15,17L15,21ZM17,15L17,4L19,4L19,15L17,15ZM27,15L25,15L25,9L27,9L27,15Z" fill="#090909" fill-opacity="1"/></g><g></g></g></svg>