<svg xmlns="http://www.w3.org/2000/svg" xmlns:xlink="http://www.w3.org/1999/xlink" fill="none" version="1.1" width="32" height="32" viewBox="0 0 32 32"><defs><clipPath id="master_svg0_134_11091"><rect x="0" y="0" width="32" height="32" rx="0"/></clipPath></defs><g clip-path="url(#master_svg0_134_11091)"><g><path d="M30,17C29.9906,8.71961,23.2804,2.0093689,15,2L14,2L14,8.0591C9.82578,8.53179,6.53179,11.82578,6.0591,16L4,16L4,17C4.0078454,22.6836,8.34035,27.4274,14,27.9492L14,30L15,30C21.7855,29.9895,27.4232,24.7651,27.9492,18L30,18L30,17ZM16,4.0381C22.387,4.53984,27.4602,9.61298,27.9619,16L16,16L16,4.0381ZM14,10.08L14,16L8.08,16C8.52693,12.9346,10.93458,10.52693,14,10.08ZM6.0552,18L14,18L14,25.939C9.825099999999999,25.4678,6.5295000000000005,22.1746,6.0552,18ZM16,27.9551L16,18L25.9551,18C25.4655,23.282,21.282,27.4655,16,27.9551Z" fill="#000000" fill-opacity="1"/></g><g></g></g></svg>