<svg xmlns="http://www.w3.org/2000/svg" xmlns:xlink="http://www.w3.org/1999/xlink" fill="none" version="1.1" width="32" height="32" viewBox="0 0 32 32"><defs><clipPath id="master_svg0_134_10935"><rect x="0" y="0" width="32" height="32" rx="0"/></clipPath></defs><g clip-path="url(#master_svg0_134_10935)"><g><path d="M15,8L12,8L12,6L10,6L10,20L7,20L7,22L10,22L10,24L12,24L12,10L15,10L15,8Z" fill="#000000" fill-opacity="1"/></g><g><path d="M27,10L24,10L24,6L22,6L22,18L19,18L19,20L22,20L22,24L24,24L24,12L27,12L27,10Z" fill="#000000" fill-opacity="1"/></g><g><path d="M30,30L4,30C2.895431,30,2,29.1046,2,28L2,2L4,2L4,28L30,28L30,30Z" fill="#000000" fill-opacity="1"/></g><g></g></g></svg>