<svg xmlns="http://www.w3.org/2000/svg" xmlns:xlink="http://www.w3.org/1999/xlink" fill="none" version="1.1" width="32" height="32" viewBox="0 0 32 32"><defs><clipPath id="master_svg0_134_10773"><rect x="0" y="0" width="32" height="32" rx="0"/></clipPath></defs><g clip-path="url(#master_svg0_134_10773)"><g><path d="M28,23L28,26.5859L23,21.5859L23,15C23,14.6212,22.7861,14.2749,22.4473,14.1055L17,11.3818L17,5.8281L19.5859,8.414100000000001L21,7L16,2L11,7L12.4141,8.414100000000001L15,5.8281L15,11.3818L9.5527,14.1055C9.21397,14.2749,9,14.6211,9,15L9,21.5859L4,26.5859L4,23L2,23L2,30L9,30L9,28L5.4140999999999995,28L10.1973,23.2168L15.5527,25.8945C15.8343,26.0352,16.1657,26.0352,16.4473,25.8945L21.8027,23.2168L26.5859,28L23,28L23,30L30,30L30,23L28,23ZM15,23.3818L11,21.3818L11,16.6182L15,18.6182L15,23.3818ZM16,16.8818L12.2363,15L16,13.1182L19.7637,15L16,16.8818ZM21,21.3818L17,23.3818L17,18.6182L21,16.6182L21,21.3818Z" fill="#000000" fill-opacity="1"/></g><g></g></g></svg>