<svg xmlns="http://www.w3.org/2000/svg" xmlns:xlink="http://www.w3.org/1999/xlink" fill="none" version="1.1" width="32" height="32" viewBox="0 0 32 32"><defs><clipPath id="master_svg0_134_10816"><rect x="0" y="0" width="32" height="32" rx="0"/></clipPath></defs><g clip-path="url(#master_svg0_134_10816)"><g><path d="M4,28L4,26L26,26L26,16L4,16L4,14L18,14L18,4L4,4L4,2L2,2L2,28C2,29.1046,2.895431,30,4,30L30,30L30,28L4,28ZM24,18L24,24L4,24L4,22L20,22L20,20L4,20L4,18L24,18ZM16,6L16,12L4,12L4,10L12,10L12,8L4,8L4,6L16,6Z" fill="#000000" fill-opacity="1"/></g><g></g></g></svg>