<svg xmlns="http://www.w3.org/2000/svg" xmlns:xlink="http://www.w3.org/1999/xlink" fill="none" version="1.1" width="32" height="32" viewBox="0 0 32 32"><defs><clipPath id="master_svg0_134_11121"><rect x="0" y="0" width="32" height="32" rx="0"/></clipPath></defs><g clip-path="url(#master_svg0_134_11121)"><g><path d="M16.000014824295043,2C15.447714824295044,2,15.000014824295043,2.447715,15.000014824295043,3L15.000014824295043,10.09C14.111614824295044,10.24707,13.270514824295043,10.60369,12.540014824295044,11.133L7.838404824295044,6.4311C7.260054824295044,5.8499099999999995,6.316004824295044,5.86095,5.751404824295044,6.4555C-0.6335751757049559,13.3369,1.396048824295044,24.424,9.804704824295044,28.5972C10.412044824295045,28.9124,11.047844824295044,29.1694,11.703604824295043,29.3648C16.545714824295043,30.8895,21.833514824295044,29.6932,25.547914824295045,26.2329C26.140214824295043,25.677,26.152814824295042,24.7406,25.575714824295044,24.169L20.877014824295046,19.47C21.404114824295043,18.7356,21.757314824295044,17.891,21.910014824295043,17L29.000014824295043,17C29.552314824295046,17,30.000014824295043,16.552300000000002,30.000014824295043,16C29.991314824295046,8.27162,23.728414824295044,2.00870943,16.000014824295043,2ZM16.000014824295043,12C18.209114824295042,12,20.000014824295043,13.7909,20.000014824295043,16C20.000014824295043,18.2091,18.209114824295042,20,16.000014824295043,20C13.790814824295044,20,12.000014824295043,18.2091,12.000014824295043,16C12.002514824295044,13.7919,13.791914824295043,12.0025,16.000014824295043,12ZM6.8300048242950435,8.251000000000001L11.125904824295043,12.5469C9.628844824295044,14.6109,9.624294824295044,17.4023,11.114604824295045,19.4712L6.838094824295044,23.7481C3.0599648242950437,19.2743,3.056544824295044,12.7287,6.8300048242950435,8.251000000000001ZM8.252804824295044,25.161L12.528714824295044,20.8851C13.264114824295044,21.4096,14.109214824295044,21.7601,15.000014824295043,21.91L15.000014824295043,27.952C12.513714824295043,27.7532,10.153154824295044,26.7768,8.252804824295044,25.161ZM17.000014824295043,27.9561L17.000014824295043,21.9092C17.887314824295046,21.7569,18.728714824295043,21.4057,19.460914824295045,20.8819L23.742714824295042,25.1636C21.843414824295046,26.7782,19.484714824295043,27.7551,17.000014824295043,27.9561ZM21.910014824295043,15C21.481114824295044,12.4872,19.512714824295045,10.51893,17.000014824295043,10.09L17.000014824295043,4.041C22.834414824295045,4.5374099999999995,27.462314824295046,9.16554,27.958514824295044,15L21.910014824295043,15Z" fill="#000000" fill-opacity="1"/></g><g></g></g></svg>