<svg xmlns="http://www.w3.org/2000/svg" xmlns:xlink="http://www.w3.org/1999/xlink" fill="none" version="1.1" width="32" height="32" viewBox="0 0 32 32"><defs><clipPath id="master_svg0_134_10778"><rect x="0" y="0" width="32" height="32" rx="0"/></clipPath></defs><g clip-path="url(#master_svg0_134_10778)"><g><path d="M20.4761,8.0151L13.4473,4.2109000000000005C12.7607,3.86965,11.93974,3.94923,11.3315,4.416L4,10.001L4,2L2,2L2,28C2,29.1046,2.895431,30,4,30L30,30L30,5.7354L20.4761,8.0151ZM28,20.209L20.38,22.0112L13.3512,19.1274C12.6607,18.8661,11.8824,19.0086,11.3292,19.4974L4,25.8359L4,21.3809L12.375,11.9809L19.3936,17.6009C19.9855,18.0404,20.7701,18.1216,21.4395,17.8128L28,14.6025L28,20.209ZM12.5239,5.9849L19.5539,9.789100000000001C19.9691,9.99529,20.4427,10.05181,20.8947,9.9491L28,8.2646L28,12.3784L20.6187,16.02L13.6,10.4C12.7722,9.77313,11.60148,9.88818,10.9115,10.6642L4,18.3838L4,12.5138L12.5239,5.9849ZM4.5512999999999995,28L12.62,20.9888L19.6488,23.8726C20.0153,24.0101,20.4142,24.0369,20.7958,23.9497L28,22.2612L28,28L4.5512999999999995,28Z" fill="#000000" fill-opacity="1"/></g><g></g></g></svg>