<svg xmlns="http://www.w3.org/2000/svg" xmlns:xlink="http://www.w3.org/1999/xlink" fill="none" version="1.1" width="32" height="32" viewBox="0 0 32 32"><defs><clipPath id="master_svg0_134_11111"><rect x="0" y="0" width="32" height="32" rx="0"/></clipPath></defs><g clip-path="url(#master_svg0_134_11111)"><g><path d="M28,28L28,6L20,6L20,28L16,28L16,14L8,14L8,28L4,28L4,2L2,2L2,28C2,29.1046,2.895431,30,4,30L30,30L30,28L28,28ZM22,8L26,8L26,18L22,18L22,8ZM10,16L14,16L14,22L10,22L10,16Z" fill="#000000" fill-opacity="1"/></g><g></g></g></svg>