<svg xmlns="http://www.w3.org/2000/svg" xmlns:xlink="http://www.w3.org/1999/xlink" fill="none" version="1.1" width="32" height="32" viewBox="0 0 32 32"><defs><clipPath id="master_svg0_134_11187"><rect x="0" y="0" width="32" height="32" rx="0"/></clipPath></defs><g clip-path="url(#master_svg0_134_11187)"><g><path d="M22,4L22,6L26.586,6L20,12.586L21.414,14L28,7.414L28,12L30,12L30,4L22,4Z" fill="#000000" fill-opacity="1"/></g><g><path d="M28,16L28,20C28.0019,21.10537,27.1054,22.00194,26,22L20,22L16,29L17.7358,30L21.1646,24L26,24C28.2089,24.000880000000002,30,22.20976,30,20L30,16L28,16Z" fill="#000000" fill-opacity="1"/></g><g><path d="M3.9999996423721313,19.99999976158142L3.9999996423721313,7.999999761581421C3.998059642372131,6.89462976158142,4.894629642372131,5.998059761581421,5.999999642372131,5.999999761581421L17.99999964237213,5.999999761581421L17.99999964237213,4.000000000000421L5.999999642372131,4.000000000000421C3.7905396423721314,3.999225616581421,1.9992259743721315,5.790539761581421,2.0000000000001315,7.999999761581421L2.0000000000001315,19.99999976158142C1.9991170163721312,22.20889976158142,3.790239642372131,23.99999976158142,5.999999642372131,23.99999976158142L14.999999642372131,23.99999976158142L14.999999642372131,21.99999976158142L5.999999642372131,21.99999976158142C4.894629642372131,22.00189976158142,3.998059642372131,21.10539976158142,3.9999996423721313,19.99999976158142Z" fill="#000000" fill-opacity="1"/></g><g></g></g></svg>