<svg xmlns="http://www.w3.org/2000/svg" xmlns:xlink="http://www.w3.org/1999/xlink" fill="none" version="1.1" width="32" height="32" viewBox="0 0 32 32"><defs><clipPath id="master_svg0_134_11275"><rect x="0" y="0" width="32" height="32" rx="0"/></clipPath></defs><g clip-path="url(#master_svg0_134_11275)"><g><path d="M14,24C8.47715,24,4,19.5228,4,14C4,8.47715,8.47715,4,14,4C19.5228,4,24,8.47715,24,14L26,14C26,7.37258,20.6274,2,14,2C7.37258,2,2,7.37258,2,14C2,20.6274,7.37258,26,14,26L14,24Z" fill="#000000" fill-opacity="1"/></g><g><path d="M12,15.59L9.41,13L8,14.41L12,18.41L19,11.41L17.59,10L12,15.59Z" fill="#000000" fill-opacity="1"/></g><g><path d="M27.379996817626953,28L20.617796817626953,28L23.999996817626954,21.2358L27.379996817626953,28ZM23.999996817626954,18C23.621146817626954,17.999879837,23.27475681762695,18.213861,23.105296817626954,18.5527L18.105300817626954,28.5527C17.773391817626955,29.2177,18.256772817626953,29.9996,18.999996817626954,30L29.000006817626954,30C29.715806817626955,30.0002,30.200006817626953,29.270200000000003,29.921406817626952,28.610799999999998L24.894596817626955,18.5527C24.72528681762695,18.213976,24.378946817626954,18,23.999996817626954,18Z" fill="#000000" fill-opacity="1"/></g><g></g></g></svg>