<svg xmlns="http://www.w3.org/2000/svg" xmlns:xlink="http://www.w3.org/1999/xlink" fill="none" version="1.1" width="32" height="32" viewBox="0 0 32 32"><defs><clipPath id="master_svg0_134_11282"><rect x="0" y="0" width="32" height="32" rx="0"/></clipPath></defs><g clip-path="url(#master_svg0_134_11282)"><g><path d="M27.231390463256837,23.6182L19.999990463256836,13.6748L19.999990463256836,4L21.999990463256836,4L21.999990463256836,2L10.000000463256836,2L10.000000463256836,4L12.000000463256836,4L12.000000463256836,13.6748L4.768600463256836,23.6182C3.879591463256836,24.8405,3.751694463256836,26.4584,4.437593463256836,27.8052C5.123310463256836,29.152,6.506970463256836,30,8.018600463256835,30L23.981390463256837,30C25.492890463256835,30.0001,26.876490463256836,29.1521,27.562390463256836,27.8052C28.248290463256836,26.4584,28.120390463256836,24.8405,27.231390463256837,23.6182ZM13.999990463256836,14.3252L13.999990463256836,4L17.999990463256836,4L17.999990463256836,14.3252L20.672790463256835,18L11.327200463256837,18L13.999990463256836,14.3252ZM23.981390463256837,28L8.018600463256835,28C7.259410463256836,27.9998,6.564510463256836,27.5737,6.219960463256836,26.8972C5.875410463256836,26.2207,5.939440463256836,25.4081,6.3857004632568355,24.7939L9.872600463256836,20L22.127390463256837,20L25.614290463256836,24.7939C26.060590463256837,25.4081,26.124590463256837,26.2207,25.780090463256837,26.8972C25.435490463256837,27.5737,24.740590463256837,27.9998,23.981390463256837,28Z" fill="#000000" fill-opacity="1"/></g><g></g></g></svg>