<svg xmlns="http://www.w3.org/2000/svg" xmlns:xlink="http://www.w3.org/1999/xlink" fill="none" version="1.1" width="32" height="32" viewBox="0 0 32 32"><defs><clipPath id="master_svg0_134_11340"><rect x="0" y="0" width="32" height="32" rx="0"/></clipPath></defs><g clip-path="url(#master_svg0_134_11340)"><g><path d="M9.4142,19.4142L16,12.8286L22.5858,19.4142L24,18L16,10L8,18L9.4142,19.4142Z" fill="#000000" fill-opacity="1"/></g><g><path d="M30,16C30,23.7197,23.7197,30,16,30C8.2803,30,2,23.7197,2,16C2,8.2803,8.2803,2,16,2C23.7197,2,30,8.2803,30,16ZM4,16C4,22.6167,9.3833,28,16,28C22.6167,28,28,22.6167,28,16C28,9.3833,22.6167,4,16,4C9.3833,4,4,9.3833,4,16Z" fill="#000000" fill-opacity="1"/></g><g></g></g></svg>