<svg xmlns="http://www.w3.org/2000/svg" xmlns:xlink="http://www.w3.org/1999/xlink" fill="none" version="1.1" width="32" height="32" viewBox="0 0 32 32"><defs><clipPath id="master_svg0_134_11391"><rect x="0" y="0" width="32" height="32" rx="0"/></clipPath></defs><g clip-path="url(#master_svg0_134_11391)"><g><path d="M8.000000449676513,18.6L8.000000449676513,17L5.999999999976514,17L5.999999999976514,18.6C5.990737919676514,22.690739999999998,9.309260449676515,26.00927,13.400000449676513,26L15.000000449676513,26L15.000000449676513,24L13.400000449676513,24C10.412490449676515,24.012529999999998,7.987470449676514,21.58751,8.000000449676513,18.6Z" fill="#000000" fill-opacity="1"/></g><g><path d="M28,18L20,18C18.896774,18.00323868,18.00323868,18.896774,18,20L18,28C18.00323868,29.1032,18.896774,29.9968,20,30L28,30C29.1032,29.9968,29.9968,29.1032,30,28L30,20C29.9968,18.896774,29.1032,18.00323868,28,18ZM20,28L20,20L28,20L28,28L20,28Z" fill="#000000" fill-opacity="1"/></g><g><path d="M24,13.400000926513671L24,15.000000926513671L26,15.000000926513671L26,13.400000926513671C26.009259999999998,9.309260926513673,22.690739999999998,5.990736956513672,18.6,6.000000000013672L17,6.000000000013672L17,8.000000926513671L18.6,8.000000926513671C21.58751,7.987470926513672,24.012529999999998,10.412490926513673,24,13.400000926513671Z" fill="#000000" fill-opacity="1"/></g><g><path d="M12,2L4,2C2.896775,2.00323987,2.00323963,2.896775,2,4L2,12C2.00323987,13.1032,2.896775,13.9968,4,14L12,14C13.1032,13.9968,13.9968,13.1032,14,12L14,4C13.9968,2.896775,13.1032,2.00323987,12,2ZM4,12L4,4L12,4L12,12L4,12Z" fill="#000000" fill-opacity="1"/></g><g></g></g></svg>