<svg xmlns="http://www.w3.org/2000/svg" xmlns:xlink="http://www.w3.org/1999/xlink" fill="none" version="1.1" width="32" height="32" viewBox="0 0 32 32"><defs><clipPath id="master_svg0_134_11517"><rect x="0" y="0" width="32" height="32" rx="0"/></clipPath></defs><g clip-path="url(#master_svg0_134_11517)"><g><ellipse cx="15" cy="19" rx="1" ry="1" fill="#000000" fill-opacity="1"/></g><g><path d="M27.7,9.299995485153199L20.7,2.3000004851531983C20.5218,2.102329485153198,20.266,1.9926820951531983,20,2.0000000001531983L10,2.0000000001531983C8.89675,2.003185275153198,8.00319,2.8967524851531983,8,3.9999954851531982L8,13.999955485153198L6,13.999955485153198C4.895956,14.001255485153198,4.00126696,14.895955485153198,4,15.999955485153198L4,21.999955485153198C4.00126648,23.104055485153197,4.895955,23.998755485153197,6,23.999955485153198L8,23.999955485153198L8,27.999955485153198C8.00319,29.1032554851532,8.89675,29.996855485153198,10,29.999955485153198L26,29.999955485153198C27.1032,29.996855485153198,27.9968,29.1032554851532,28,27.999955485153198L28,9.999995485153198C28.0073,9.734005485153197,27.8976,9.478195485153197,27.7,9.299995485153199ZM20,4.399995485153198L25.6,9.999995485153198L20,9.999995485153198L20,4.399995485153198ZM6,15.999955485153198L15.5972,15.999955485153198L19,18.999955485153198L15.6074,21.999955485153198L6,21.999955485153198L6,15.999955485153198ZM26,27.999955485153198L10,27.999955485153198L10,23.999955485153198L15.6089,23.999955485153198C16.0917,23.9990554851532,16.5581,23.8241554851532,16.9224,23.5072554851532L20.3057,20.515555485153197C21.2276,19.7206554851532,21.2323,18.2937554851532,20.3157,17.4926554851532L16.912399999999998,14.484355485153198C16.55,14.171955485153198,16.087400000000002,13.999955485153198,15.6089,13.999955485153198L10,13.999955485153198L10,3.9999954851531982L18,3.9999954851531982L18,9.999995485153198C18.0032,11.103245485153199,18.8968,11.996815485153197,20,11.999955485153198L26,11.999955485153198L26,27.999955485153198Z" fill="#000000" fill-opacity="1"/></g><g></g></g></svg>