<svg xmlns="http://www.w3.org/2000/svg" xmlns:xlink="http://www.w3.org/1999/xlink" fill="none" version="1.1" width="32" height="32" viewBox="0 0 32 32"><defs><clipPath id="master_svg0_134_11531"><rect x="0" y="0" width="32" height="32" rx="0"/></clipPath></defs><g clip-path="url(#master_svg0_134_11531)"><g transform="matrix(-1,-1.2246468525851679e-16,1.2246468525851679e-16,-1,52,40)"><rect x="26" y="20" width="6" height="2" rx="0" fill="#000000" fill-opacity="1"/></g><g transform="matrix(-1,-1.2246468525851679e-16,1.2246468525851679e-16,-1,60,56)"><rect x="30" y="28" width="6" height="2" rx="0" fill="#000000" fill-opacity="1"/></g><g transform="matrix(-1,-1.2246468525851679e-16,1.2246468525851679e-16,-1,56,48)"><rect x="28" y="24" width="6" height="2" rx="0" fill="#000000" fill-opacity="1"/></g><g><path d="M17.002935355377197,20C16.9884353553772,18.2837,16.076135355377197,16.700400000000002,14.598535355377198,15.8271L22.000035355377197,3L20.2691353553772,2L12.693305355377197,15.126C10.803705355377197,14.7037,8.828975355377198,15.2697,7.449995355377197,16.6289C3.7064003553771974,20.24,3.996299985377197,28.6821,4.010000255377197,29.04C4.031482255377197,29.5766,4.472967355377198,30.0004,5.009995355377197,30L20.001235355377197,30C20.431635355377196,30,20.813735355377197,29.7246,20.949835355377196,29.3162C21.0860353553772,28.9079,20.945535355377196,28.4583,20.6012353553772,28.2C17.061535355377195,25.5439,17.002935355377197,20.0537,17.002935355377197,20ZM11.929995355377198,16.9971C13.592695355377197,17.0153,14.946935355377198,18.3382,15.004135355377198,20C15.004135355377198,20.0381,15.006035355377197,20.208,15.020935355377198,20.4688L9.121495355377197,17.8452C9.906395355377196,17.1979,10.918045355377197,16.8925,11.929995355377198,16.9971ZM15.449435355377197,28C14.650335355377198,27.186,14.141035355377197,26.1319,14.000035355377197,25L12.000005355377198,25C12.071715355377197,26.0643,12.404295355377197,27.0946,12.968395355377197,28L10.745095355377197,28C10.333815355377197,26.7022,10.083565355377196,25.3588,9.999995355377198,24L7.999995355377197,24C8.064555355377198,25.3548,8.287815355377198,26.6973,8.665195355377197,28L5.999995355377197,28C6.030995355377197,26.1636,6.289995355377197,22.1079,7.802695355377198,19.4473L15.335735355377198,22.7973C15.698035355377197,24.6766,16.4700353553772,26.4529,17.596835355377195,28L15.449435355377197,28Z" fill="#000000" fill-opacity="1"/></g><g></g></g></svg>