<svg xmlns="http://www.w3.org/2000/svg" xmlns:xlink="http://www.w3.org/1999/xlink" fill="none" version="1.1" width="32" height="32" viewBox="0 0 32 32"><defs><clipPath id="master_svg0_134_11697"><rect x="0" y="0" width="32" height="32" rx="0"/></clipPath></defs><g clip-path="url(#master_svg0_134_11697)"><g><path d="M30.976253631591796,24.974804340820313L25.974803631591797,29.97627434082031C24.605593631591795,31.33177434082031,22.398513631591797,31.326174340820312,21.036173631591797,29.963774340820315C19.6738276315918,28.601484340820313,19.6682526315918,26.394404340820312,21.023703631591797,25.025204340820313L22.438303631591797,26.440004340820312C21.852403631591798,27.02589434082031,21.852403631591798,27.97580434082031,22.438293631591797,28.56169434082031C23.024193631591796,29.147574340820313,23.974103631591795,29.147574340820313,24.560003631591798,28.561704340820313L29.561703631591797,23.560004340820313C30.146853631591796,22.973974340820313,30.146453631591797,22.02468434082031,29.560883631591796,21.43911434082031C28.975313631591796,20.853544340820314,28.026023631591798,20.853174340820313,27.440003631591797,21.438294340820313L26.025403631591796,20.023694340820313C27.394583631591797,18.668085340820312,29.601783631591797,18.673580340820312,30.9641536315918,20.035994340820313C32.326653631591796,21.398404340820314,32.332153631591794,23.605614340820313,30.976253631591796,24.974804340820313Z" fill="#000000" fill-opacity="1"/></g><g><path d="M20.025196248168946,21.02369815551758L15.023696248168946,26.02519815551758C13.668086248168946,27.39437815551758,13.673581248168945,29.60158815551758,15.035996248168946,30.96397815551758C16.398406248168946,32.326378155517574,18.605616248168946,32.33187815551758,19.974796248168946,30.976278155517576L18.559996248168943,29.561698155517576C17.974106248168944,30.14757815551758,17.024186248168945,30.14757815551758,16.438296248168946,29.561698155517576C15.852406248168945,28.975808155517576,15.852406248168945,28.025888155517578,16.438296248168946,27.43999815551758L21.439996248168946,22.43829815551758C22.025886248168945,21.85240815551758,22.975806248168944,21.85240815551758,23.561696248168943,22.43829815551758C24.147576248168946,23.024188155517578,24.147576248168946,23.974108155517577,23.561696248168943,24.559998155517576L24.976276248168944,25.974598155517576C26.331776248168943,24.605388155517577,26.326176248168945,22.39831815551758,24.963776248168948,21.03596815551758C23.601486248168946,19.673628155517576,21.394406248168945,19.66805315551758,20.025196248168946,21.02369815551758Z" fill="#000000" fill-opacity="1"/></g><g><ellipse cx="7" cy="20" rx="2" ry="2" fill="#000000" fill-opacity="1"/></g><g><path d="M14,20C11.79086,20,10,18.209139999999998,10,16C10,13.79086,11.79086,12,14,12C16.209139999999998,12,18,13.79086,18,16C17.99352,18.20645,16.20645,19.99352,14,20ZM14,14C12.895430000000001,14,12,14.895430000000001,12,16C12,17.10457,12.895430000000001,18,14,18C15.104569999999999,18,16,17.10457,16,16C15.99676,14.89678,15.10323,14.00324,14,14Z" fill="#000000" fill-opacity="1"/></g><g><ellipse cx="21" cy="12" rx="2" ry="2" fill="#000000" fill-opacity="1"/></g><g><path d="M11.3076,27.272461853027345L3,22.425761853027343L3,9.574201853027343L14,3.1577018530273437L25.4961,9.863801853027343L26.5039,8.136201853027345L14.5039,1.1361998530273438C14.1925,0.9545491530273438,13.8075,0.9545491530273438,13.4961,1.1361998530273438L1.496099,8.136201853027345C1.188796,8.315331853027343,0.999863327,8.644301853027343,1,9.000001853027344L1,22.999961853027344C0.999972105,23.355761853027342,1.188853,23.684861853027343,1.4961,23.864261853027344L10.3,28.999961853027344L11.3076,27.272461853027345Z" fill="#000000" fill-opacity="1"/></g><g></g></g></svg>