<svg xmlns="http://www.w3.org/2000/svg" xmlns:xlink="http://www.w3.org/1999/xlink" fill="none" version="1.1" width="32" height="32" viewBox="0 0 32 32"><defs><clipPath id="master_svg0_134_11678"><rect x="0" y="0" width="32" height="32" rx="0"/></clipPath></defs><g clip-path="url(#master_svg0_134_11678)"><g><ellipse cx="9" cy="20" rx="2" ry="2" fill="#1C1C1C" fill-opacity="1"/></g><g><path d="M16,20C13.79086,20,12,18.209139999999998,12,16C12,13.79086,13.79086,12,16,12C18.209139999999998,12,20,13.79086,20,16C19.99352,18.20645,18.20645,19.99352,16,20ZM16,14C14.895430000000001,14,14,14.895430000000001,14,16C14,17.10457,14.895430000000001,18,16,18C17.10457,18,18,17.10457,18,16C17.996760000000002,14.89678,17.10323,14.00324,16,14Z" fill="#1C1C1C" fill-opacity="1"/></g><g><ellipse cx="23" cy="12" rx="2" ry="2" fill="#1C1C1C" fill-opacity="1"/></g><g><path d="M16,30.999962210655212C15.823,31.00026221065521,15.6491,30.95336221065521,15.4961,30.864262210655212L3.4961,23.864262210655212C3.188881,23.68496221065521,3,23.35586221065521,3,22.999962210655212L3,9.000002210655213C2.999863863,8.644302210655212,3.188797,8.315332210655212,3.4961,8.136202210655213L15.4961,1.1362002106552125C15.8075,0.9545497106552124,16.192500000000003,0.9545497106552124,16.5039,1.1362002106552125L28.5039,8.136202210655213L27.4961,9.863802210655212L16,3.1577022106552124L5,9.574202210655212L5,22.42576221065521L16,28.842762210655213L27,22.42576221065521L27,14.999962210655212L29,14.999962210655212L29,22.999962210655212C29,23.35576221065521,28.8111,23.68486221065521,28.5039,23.864262210655212L16.5039,30.864262210655212C16.3509,30.95336221065521,16.177,31.00026221065521,16,30.999962210655212Z" fill="#000000" fill-opacity="1"/></g><g></g></g></svg>