<svg xmlns="http://www.w3.org/2000/svg" xmlns:xlink="http://www.w3.org/1999/xlink" fill="none" version="1.1" width="32" height="32" viewBox="0 0 32 32"><defs><clipPath id="master_svg0_134_11722"><rect x="0" y="0" width="32" height="32" rx="0"/></clipPath></defs><g clip-path="url(#master_svg0_134_11722)"><g><path d="M25.821776704406737,10.124004244766235C24.92187670440674,5.409744244766236,20.79947670440674,1.9997942447662354,16.000076704406737,1.9997942447662354C11.200676704406739,1.9997953176462353,7.078216704406739,5.409744244766236,6.178296704406738,10.124004244766235C2.3544167044067383,10.807014244766235,-0.31431629559326174,14.297894244766235,0.02945170440673828,18.166994244766236C0.37322070440673827,22.036194244766236,3.6155967044067383,25.001894244766234,7.499996704406739,24.999994244766235L7.999996704406739,24.999994244766235L7.999996704406739,22.999994244766235L7.499996704406739,22.999994244766235C4.536616704406739,23.001894244766234,2.1052867044067383,20.654094244766235,2.0036267044067384,17.692494244766237C1.9019567044067383,14.730794244766235,4.166566704406739,12.221794244766235,7.123096704406739,12.020494244766235L7.959496704406738,11.963404244766235L8.049496704406739,11.129904244766236C8.492456704406738,7.072864244766236,11.918976704406738,4.000074244766235,16.000176704406737,4.000074244766235C20.08127670440674,4.000074244766235,23.507876704406737,7.072864244766236,23.95077670440674,11.129904244766236L24.04077670440674,11.963404244766235L24.87717670440674,12.020494244766235C27.833776704406738,12.221794244766235,30.09837670440674,14.730894244766235,29.996676704406738,17.692594244766234C29.894876704406737,20.654294244766234,27.463476704406737,23.002094244766237,24.499976704406738,22.999994244766235L23.999976704406738,22.999994244766235L23.999976704406738,24.999994244766235L24.499976704406738,24.999994244766235C28.384476704406737,25.001894244766234,31.626876704406737,22.036294244766236,31.97067670440674,18.167094244766236C32.31447670440674,14.297894244766235,29.64567670440674,10.807024244766236,25.821776704406737,10.124004244766235Z" fill="#000000" fill-opacity="1"/></g><g><path d="M23,22L23,20L20.898899999999998,20C20.77,19.37406,20.5214,18.77888,20.167,18.2471L21.657,16.7571L20.243000000000002,15.3431L18.753,16.8331C18.2212,16.47861,17.62598,16.23007,17,16.1011L17,14L15,14L15,16.1011C14.37406,16.23005,13.778880000000001,16.47855,13.2471,16.833L11.7571,15.343L10.3431,16.757L11.8331,18.247C11.47861,18.77881,11.23006,19.37402,11.1011,20L9,20L9,22L11.1011,22C11.23005,22.62594,11.47856,23.22112,11.833,23.7529L10.343,25.2429L11.757,26.6569L13.247,25.1669C13.77881,25.5214,14.37402,25.7699,15,25.898899999999998L15,28L17,28L17,25.898899999999998C17.62594,25.77,18.22112,25.5214,18.7529,25.167L20.2429,26.657L21.6569,25.243000000000002L20.1669,23.753C20.5214,23.22119,20.7699,22.62598,20.898899999999998,22L23,22ZM16,24C14.34315,24,13,22.65685,13,21C13,19.34315,14.34315,18,16,18C17.65685,18,19,19.34315,19,21C18.998179999999998,22.656100000000002,17.656100000000002,23.998179999999998,16,24Z" fill="#000000" fill-opacity="1"/></g><g></g></g></svg>