<svg xmlns="http://www.w3.org/2000/svg" xmlns:xlink="http://www.w3.org/1999/xlink" fill="none" version="1.1" width="32" height="32" viewBox="0 0 32 32"><defs><clipPath id="master_svg0_134_11716"><rect x="0" y="0" width="32" height="32" rx="0"/></clipPath></defs><g clip-path="url(#master_svg0_134_11716)"><g><path d="M28,17L28,22L4,22L4,6L14,6L14,4L4,4C2.895431,4,2,4.895431,2,6L2,22C2,23.1046,2.895431,24,4,24L12,24L12,28L8,28L8,30L24,30L24,28L20,28L20,24L28,24C29.1046,24,30,23.1046,30,22L30,17L28,17ZM18,28L14,28L14,24L18,24L18,28Z" fill="#000000" fill-opacity="1"/></g><g><path d="M30,10L30,8L27.898899999999998,8C27.77,7.37406,27.5214,6.77888,27.167,6.2471L28.657,4.757099999999999L27.243000000000002,3.3430999999999997L25.753,4.8331C25.2212,4.47861,24.62598,4.2300699999999996,24,4.101100000000001L24,2L22,2L22,4.101100000000001C21.37406,4.23005,20.77888,4.47855,20.2471,4.833L18.7571,3.343L17.3431,4.757L18.8331,6.247C18.47861,6.77881,18.23006,7.37402,18.1011,8L16,8L16,10L18.1011,10C18.23005,10.62594,18.47856,11.22112,18.833,11.7529L17.343,13.2429L18.757,14.6569L20.247,13.1669C20.77881,13.5214,21.37402,13.7699,22,13.8989L22,16L24,16L24,13.8989C24.62594,13.77,25.22112,13.5214,25.7529,13.167L27.2429,14.657L28.6569,13.243L27.1669,11.753C27.5214,11.22119,27.7699,10.62598,27.898899999999998,10L30,10ZM23,12C21.34315,12,20,10.65685,20,9C20,7.34315,21.34315,6,23,6C24.65685,6,26,7.34315,26,9C25.998179999999998,10.6561,24.656100000000002,11.99818,23,12Z" fill="#000000" fill-opacity="1"/></g><g></g></g></svg>