<svg xmlns="http://www.w3.org/2000/svg" xmlns:xlink="http://www.w3.org/1999/xlink" fill="none" version="1.1" width="32" height="32" viewBox="0 0 32 32"><defs><clipPath id="master_svg0_134_11707"><rect x="0" y="0" width="32" height="32" rx="0"/></clipPath></defs><g clip-path="url(#master_svg0_134_11707)"><g><path d="M29.000025651550295,26.000004169921873C28.324525651550292,26.002854169921875,27.670125651550293,26.235904169921874,27.144925651550295,26.660704169921875L24.999995651550293,25.422404169921876L24.999995651550293,23.815704169921876C26.90122565155029,23.143504169921876,27.611125651550292,20.824454169921875,26.411825651550295,19.203204169921875C25.212625651550294,17.581962169921876,22.787365651550292,17.581962169921876,21.588125651550293,19.203214169921875C20.388885651550293,20.824454169921875,21.098745651550292,23.143504169921876,22.999995651550293,23.815704169921876L22.999995651550293,25.422404169921876L20.855095651550293,26.660704169921875C20.329865651550293,26.235904169921874,19.675505651550292,26.002854169921875,18.999995651550293,26.000004169921873C17.241205651550292,25.988394169921875,15.844633651550293,27.476264169921876,15.967446331550294,29.230774169921872C16.090257651550292,30.985374169921876,17.680485651550292,32.26417416992187,19.420515651550293,32.00767416992188C21.160545651550294,31.751174169921875,22.314105651550292,30.067874169921875,21.925395651550293,28.352474169921877L23.999995651550293,27.154804169921874L26.074625651550292,28.352474169921877C25.699785651550293,30.052874169921875,26.847625651550295,31.713874169921873,28.57072565155029,31.964374169921875C30.293825651550293,32.214974169921874,31.867225651550292,30.949774169921874,31.992225651550292,29.212974169921875C32.11722565155029,27.476254169921873,30.741225651550295,25.998764169921877,29.000025651550295,26.000004169921873ZM18.999995651550293,29.999974169921877C18.447715651550293,29.999974169921877,17.999995651550293,29.552274169921873,17.999995651550293,28.999974169921877C17.999995651550293,28.447674169921875,18.447715651550293,27.999974169921877,18.999995651550293,27.999974169921877C19.552285651550292,27.999974169921877,19.999995651550293,28.447674169921875,19.999995651550293,28.999974169921877C19.999665651550295,29.552174169921877,19.552145651550294,29.999674169921875,18.999995651550293,29.999974169921877ZM23.999995651550293,20.000004169921876C24.552285651550292,20.000004169921876,24.999995651550293,20.447714169921873,24.999995651550293,21.000004169921876C24.999995651550293,21.552284169921876,24.552285651550292,22.000004169921876,23.999995651550293,22.000004169921876C23.447715651550293,22.000004169921876,22.999995651550293,21.552284169921876,22.999995651550293,21.000004169921876C23.000495651550292,20.447924169921876,23.447925651550293,20.000494169921875,23.999995651550293,20.000004169921876ZM29.000025651550295,29.999974169921877C28.447725651550293,29.999974169921877,28.000025651550295,29.552274169921873,28.000025651550295,28.999974169921877C28.000025651550295,28.447674169921875,28.447725651550293,27.999974169921877,29.000025651550295,27.999974169921877C29.55232565155029,27.999974169921877,30.000025651550295,28.447674169921875,30.000025651550295,28.999974169921877C29.999625651550293,29.552174169921877,29.55212565155029,29.999674169921875,29.000025651550295,29.999974169921877Z" fill="#000000" fill-opacity="1"/></g><g><ellipse cx="7" cy="20" rx="2" ry="2" fill="#000000" fill-opacity="1"/></g><g><path d="M14,20C11.79086,20,10,18.209139999999998,10,16C10,13.79086,11.79086,12,14,12C16.209139999999998,12,18,13.79086,18,16C17.99352,18.20645,16.20645,19.99352,14,20ZM14,14C12.895430000000001,14,12,14.895430000000001,12,16C12,17.10457,12.895430000000001,18,14,18C15.104569999999999,18,16,17.10457,16,16C15.99676,14.89678,15.10323,14.00324,14,14Z" fill="#000000" fill-opacity="1"/></g><g><ellipse cx="21" cy="12" rx="2" ry="2" fill="#000000" fill-opacity="1"/></g><g><path d="M13.0205,28.271461853027343L3,22.425761853027343L3,9.574201853027343L14,3.1577018530273437L25.4961,9.863801853027343L26.5039,8.136201853027345L14.5039,1.1361998530273438C14.1925,0.9545491530273438,13.8075,0.9545491530273438,13.4961,1.1361998530273438L1.496099,8.136201853027345C1.188796,8.315331853027343,0.999863327,8.644301853027343,1,9.000001853027344L1,22.999961853027344C0.999972105,23.355761853027342,1.188853,23.684861853027343,1.4961,23.864261853027344L12.0127,29.999961853027344L13.0205,28.271461853027343Z" fill="#000000" fill-opacity="1"/></g><g></g></g></svg>