<svg xmlns="http://www.w3.org/2000/svg" xmlns:xlink="http://www.w3.org/1999/xlink" fill="none" version="1.1" width="32" height="32" viewBox="0 0 32 32"><defs><clipPath id="master_svg0_134_11746"><rect x="0" y="0" width="32" height="32" rx="0"/></clipPath></defs><g clip-path="url(#master_svg0_134_11746)"><g><path d="M17.712999923706054,13.471L19.575999923706053,6.518L17.644999923706056,6L16.079999923706055,11.838000000000001L17.712999923706054,13.471Z" fill="#000000" fill-opacity="1"/></g><g><path d="M24.20700044250488,19.965L25.621000442504883,21.378999999999998L31.000000442504884,16L24.000000442504884,9L22.586000442504883,10.414L28.17200044250488,16L24.20700044250488,19.965Z" fill="#000000" fill-opacity="1"/></g><g><path d="M30,28.586L3.414,2L2,3.4139999999999997L7.793,9.207L1,16L8,23L9.414,21.586L3.828,16L9.207,10.621L14.884,16.298000000000002L12.423,25.482L14.355,26L16.517,17.930999999999997L28.586,30L30,28.586Z" fill="#000000" fill-opacity="1"/></g><g></g></g></svg>