<svg xmlns="http://www.w3.org/2000/svg" xmlns:xlink="http://www.w3.org/1999/xlink" fill="none" version="1.1" width="32" height="32" viewBox="0 0 32 32"><defs><clipPath id="master_svg0_134_11793"><rect x="0" y="0" width="32" height="32" rx="0"/></clipPath></defs><g clip-path="url(#master_svg0_134_11793)"><g><path d="M30,15L28,15L28,7L13,7L13,5L28,5C29.104,5.00126839,29.9987,5.895956,30,7L30,15Z" fill="#000000" fill-opacity="1"/></g><g><path d="M25,20L23,20L23,12L8,12L8,10L23,10C24.104,10.00126648,24.9987,10.895955,25,12L25,20Z" fill="#000000" fill-opacity="1"/></g><g><path d="M18,27L4,27C2.895956,26.9987,2.00126743,26.104,2,25L2,17C2.00126648,15.895955,2.895956,15.00126648,4,15L18,15C19.104,15.00126743,19.9987,15.895956,20,17L20,25C19.9987,26.104,19.104,26.9987,18,27ZM4,17L4,25L18.0012,25L18,17L4,17Z" fill="#000000" fill-opacity="1"/></g><g></g></g></svg>