<svg xmlns="http://www.w3.org/2000/svg" xmlns:xlink="http://www.w3.org/1999/xlink" fill="none" version="1.1" width="32" height="32" viewBox="0 0 32 32"><defs><clipPath id="master_svg0_134_11844"><rect x="0" y="0" width="32" height="32" rx="0"/></clipPath></defs><g clip-path="url(#master_svg0_134_11844)"><g><path d="M28,30L22,30C20.89591,29.9988,20.00115776,29.1041,20,28L20,10C20.00115776,8.89591,20.89591,8.00115681,22,8L28,8C29.10409,8.00115871,29.99884,8.89591,30,10L30,28C29.99884,29.1041,29.10409,29.9988,28,30ZM22,10L22,28L28,28L28,10L22,10Z" fill="#000000" fill-opacity="1"/></g><g><path d="M15.999999557495117,9L21.585999557495118,3.4139999999999997L20.171999557495116,2L15.999999557495117,6.172L11.827999557495117,2L10.413999557495117,3.4139999999999997L15.999999557495117,9Z" fill="#000000" fill-opacity="1"/></g><g><path d="M10,30L4,30C2.895911,29.9988,2.00115824,29.1041,2,28L2,10C2.00115776,8.89591,2.895911,8.00115776,4,8L10,8C11.10409,8.00115681,11.99884,8.89591,12,10L12,28C11.99884,29.1041,11.10409,29.9988,10,30ZM4,10L4,28L10,28L10,10L4,10Z" fill="#000000" fill-opacity="1"/></g><g></g></g></svg>