<svg xmlns="http://www.w3.org/2000/svg" xmlns:xlink="http://www.w3.org/1999/xlink" fill="none" version="1.1" width="32" height="32" viewBox="0 0 32 32"><defs><clipPath id="master_svg0_134_11839"><rect x="0" y="0" width="32" height="32" rx="0"/></clipPath></defs><g clip-path="url(#master_svg0_134_11839)"><g><path d="M30,10L30,2L22,2L22,5L17,5C15.896,5.00127,15.0013,5.8959600000000005,15,7L15,15L10,15L10,12L2,12L2,20L10,20L10,17L15,17L15,25C15.0013,26.104,15.896,26.9987,17,27L22,27L22,30L30,30L30,22L22,22L22,25L17,25L17,17L22,17L22,20L30,20L30,12L22,12L22,15L17,15L17,7L22,7L22,10L30,10ZM8,18L4,18L4,14L8,14L8,18ZM24,24L28,24L28,28L24,28L24,24ZM24,14L28,14L28,18L24,18L24,14ZM24,4L28,4L28,8L24,8L24,4Z" fill="#000000" fill-opacity="1"/></g><g></g></g></svg>