<svg xmlns="http://www.w3.org/2000/svg" xmlns:xlink="http://www.w3.org/1999/xlink" fill="none" version="1.1" width="32" height="32" viewBox="0 0 32 32"><defs><clipPath id="master_svg0_134_11851"><rect x="0" y="0" width="32" height="32" rx="0"/></clipPath></defs><g clip-path="url(#master_svg0_134_11851)"><g><path d="M30,14.99999692779541L21.91,14.99999692779541C21.426,12.11314692779541,18.9272,9.99843692779541,16,9.99843692779541C13.0728,9.99843788146941,10.57404,12.11314692779541,10.09,14.99999692779541L2,14.99999692779541L2,16.999996927795408L10.09,16.999996927795408C10.57404,19.88685692779541,13.0728,22.00153692779541,16,22.00153692779541C18.9272,22.00153692779541,21.426,19.88685692779541,21.91,16.999996927795408L30,16.999996927795408L30,14.99999692779541ZM16,20.00003692779541C13.7909,20.00003692779541,12,18.20913692779541,12,15.99999692779541C12,13.79085692779541,13.7909,11.99999692779541,16,11.99999692779541C18.2091,11.99999692779541,20,13.79085692779541,20,15.99999692779541C19.9975,18.20810692779541,18.2081,19.99751692779541,16,20.00003692779541Z" fill="#000000" fill-opacity="1"/></g><g></g></g></svg>