<svg xmlns="http://www.w3.org/2000/svg" xmlns:xlink="http://www.w3.org/1999/xlink" fill="none" version="1.1" width="32" height="32" viewBox="0 0 32 32"><defs><clipPath id="master_svg0_134_24103"><rect x="0" y="0" width="32" height="32" rx="0"/></clipPath></defs><g clip-path="url(#master_svg0_134_24103)"><g><path d="M25.82,10L30,10L30,8L25.82,8C25.3894,6.81355,24.2622,6.0235199999999995,23,6.0235199999999995C21.7378,6.02353,20.6106,6.81355,20.18,8L13,8L13,5L5,5L5,8L2,8L2,10L5,10L5,13L13,13L13,10L20.18,10C20.4824,10.849319999999999,21.1507,11.51762,22,11.82L22,19.14C20.5994,19.5056,19.5056,20.5994,19.14,22L2,22L2,24L19.14,24C19.6134,25.742,21.1949,26.951,23,26.951C24.8051,26.951,26.3866,25.742,26.86,24L30,24L30,22L26.86,22C26.4944,20.5994,25.4006,19.5056,24,19.14L24,11.82C24.8493,11.51762,25.5176,10.849319999999999,25.82,10ZM11,11L7,11L7,7L11,7L11,11ZM25,23C25,24.1046,24.1046,25,23,25C21.8954,25,21,24.1046,21,23C21,21.8954,21.8954,21,23,21C24.1046,21,25,21.8954,25,23Z" fill="#000000" fill-opacity="1"/></g><g></g></g></svg>