<svg xmlns="http://www.w3.org/2000/svg" xmlns:xlink="http://www.w3.org/1999/xlink" fill="none" version="1.1" width="32" height="32" viewBox="0 0 32 32"><defs><clipPath id="master_svg0_134_11865"><rect x="0" y="0" width="32" height="32" rx="0"/></clipPath></defs><g clip-path="url(#master_svg0_134_11865)"><g><path d="M28,6L18,6L18,4C18,2.895431,17.104599999999998,2,16,2L4,2C2.895431,2,2,2.895431,2,4L2,24C2,25.1046,2.895431,26,4,26L14,26L14,28C14,29.1046,14.8954,30,16,30L28,30C29.1046,30,30,29.1046,30,28L30,8C30,6.89543,29.1046,6,28,6ZM4,15L10.17,15L7.59,17.59L9,19L14,14L9,9L7.59,10.41L10.17,13L4,13L4,4L16,4L16,24L4,24L4,15ZM16,28L16,26C17.104599999999998,26,18,25.1046,18,24L18,8L28,8L28,17L21.83,17L24.41,14.41L23,13L18,18L23,23L24.41,21.59L21.83,19L28,19L28,28L16,28Z" fill="#000000" fill-opacity="1"/></g><g></g></g></svg>