<svg xmlns="http://www.w3.org/2000/svg" xmlns:xlink="http://www.w3.org/1999/xlink" fill="none" version="1.1" width="32" height="32" viewBox="0 0 32 32"><defs><clipPath id="master_svg0_134_11888"><rect x="0" y="0" width="32" height="32" rx="0"/></clipPath></defs><g clip-path="url(#master_svg0_134_11888)"><g transform="matrix(0.7071067690849304,-0.7071067690849304,0.7071067690849304,0.7071067690849304,-8.970576424275919,10.343112129842325)"><rect x="7.99995231628418" y="16" width="11.313699722290039" height="11.313699722290039" rx="0" fill="#000000" fill-opacity="1"/></g><g><path d="M16,4C22.6274,4,28,9.37258,28,16C28,22.6274,22.6274,28,16,28C9.37258,28,4,22.6274,4,16C4.0075,9.375689999999999,9.375689999999999,4.007490000000001,16,4ZM16,2C8.26801,2,2,8.26801,2,16C2,23.732,8.26801,30,16,30C23.732,30,30,23.732,30,16C30,8.26801,23.732,2,16,2Z" fill="#000000" fill-opacity="1"/></g><g></g></g></svg>