<svg xmlns="http://www.w3.org/2000/svg" xmlns:xlink="http://www.w3.org/1999/xlink" fill="none" version="1.1" width="32" height="32" viewBox="0 0 32 32"><defs><clipPath id="master_svg0_134_11882"><rect x="0" y="0" width="32" height="32" rx="0"/></clipPath></defs><g clip-path="url(#master_svg0_134_11882)"><g transform="matrix(0.7071067690849304,-0.7071067690849304,0.7071067690849304,0.7071067690849304,-8.970576424275919,10.343112129842325)"><rect x="7.99995231628418" y="16" width="11.313699722290039" height="11.313699722290039" rx="0" fill="#000000" fill-opacity="1"/></g><g><path d="M29.390616689300536,14.526917166137695L17.47311668930054,2.6094001661376955C16.65911668930054,1.7968891661376953,15.340916689300537,1.7968891661376953,14.526916689300537,2.6094001661376955L2.6093996893005373,14.526917166137695C1.7968886893005371,15.340917166137695,1.7968886893005371,16.659117166137698,2.6093996893005373,17.473117166137698L14.526916689300537,29.390617166137694C15.340916689300537,30.203117166137694,16.65911668930054,30.203117166137694,17.47311668930054,29.390617166137694L29.390616689300536,17.473117166137698C30.203116689300536,16.659117166137698,30.203116689300536,15.340917166137695,29.390616689300536,14.526917166137695ZM16.000016689300537,28.035617166137694L3.964596689300537,16.000017166137695L16.000016689300537,3.9643971661376955L28.035616689300536,16.000017166137695L16.000016689300537,28.035617166137694Z" fill="#000000" fill-opacity="1"/></g><g></g></g></svg>