<svg xmlns="http://www.w3.org/2000/svg" xmlns:xlink="http://www.w3.org/1999/xlink" fill="none" version="1.1" width="32" height="32" viewBox="0 0 32 32"><defs><clipPath id="master_svg0_134_11911"><rect x="0" y="0" width="32" height="32" rx="0"/></clipPath></defs><g clip-path="url(#master_svg0_134_11911)"><g><rect x="8" y="8" width="2" height="4" rx="0" fill="#000000" fill-opacity="1"/></g><g><rect x="8" y="14" width="2" height="4" rx="0" fill="#000000" fill-opacity="1"/></g><g><rect x="14" y="8" width="2" height="4" rx="0" fill="#000000" fill-opacity="1"/></g><g><rect x="14" y="14" width="2" height="4" rx="0" fill="#000000" fill-opacity="1"/></g><g><rect x="8" y="20" width="2" height="4" rx="0" fill="#000000" fill-opacity="1"/></g><g><rect x="14" y="20" width="2" height="4" rx="0" fill="#000000" fill-opacity="1"/></g><g><path d="M18,14L26.17,14L23.59,16.59L25,18L30,13L25,8L23.59,9.41L26.17,12L18,12L18,14Z" fill="#000000" fill-opacity="1"/></g><g><path d="M28,20L28,28L22,28L22,20L20,20L20,28L4,28L4,4L20,4L20,6L22,6L22,4C22,2.895431,21.1046,2,20,2L4,2C2.895431,2,2,2.895431,2,4L2,30L30,30L30,20L28,20Z" fill="#000000" fill-opacity="1"/></g><g></g></g></svg>