<svg xmlns="http://www.w3.org/2000/svg" xmlns:xlink="http://www.w3.org/1999/xlink" fill="none" version="1.1" width="32" height="32" viewBox="0 0 32 32"><defs><clipPath id="master_svg0_134_11957"><rect x="0" y="0" width="32" height="32" rx="0"/></clipPath></defs><g clip-path="url(#master_svg0_134_11957)"><g><path d="M4,20L4,22L8.586,22L2,28.586L3.4139999999999997,30L10,23.414L10,28L12,28L12,20L4,20Z" fill="#000000" fill-opacity="1"/></g><g><path d="M23,16C21.4304,16,19.9876,16.515900000000002,18.8187,17.3919L14.6014,13.1745C15.4774,12.0056,16,10.5697,16,9C16,5.1401,12.8594,2,9,2C5.1406,2,2,5.1401,2,9C2,12.8599,5.1406,16,9,16C10.5696,16,12.0184,15.4645,13.1873,14.5886L17.404600000000002,18.806C16.5287,19.9749,16,21.4303,16,23C16,26.8599,19.1406,30,23,30C26.8594,30,30,26.8599,30,23C30,19.1401,26.8594,16,23,16ZM4,9C4,6.2432,6.2432,4,9,4C11.7568,4,14,6.2432,14,9C14,11.7568,11.7568,14,9,14C6.2432,14,4,11.7568,4,9Z" fill="#000000" fill-opacity="1"/></g><g></g></g></svg>