<svg xmlns="http://www.w3.org/2000/svg" xmlns:xlink="http://www.w3.org/1999/xlink" fill="none" version="1.1" width="32" height="32" viewBox="0 0 32 32"><defs><clipPath id="master_svg0_134_11968"><rect x="0" y="0" width="32" height="32" rx="0"/></clipPath></defs><g clip-path="url(#master_svg0_134_11968)"><g><rect x="28" y="2" width="2" height="28" rx="0" fill="#000000" fill-opacity="1"/></g><g><path d="M20.00002036819458,10L18.58592036819458,11.4141L22.17192036819458,15L11.89890036819458,15C11.18765036819458,11.5156,7.16875036819458,9.866612,4.21513036819458,11.8473C1.26151636819458,13.82798,1.26151536819458,18.17202,4.21513036819458,20.1527C7.16875036819458,22.1334,11.18765036819458,20.4844,11.89890036819458,17L22.17192036819458,17L18.58592036819458,20.585900000000002L20.00002036819458,22L26.00002036819458,16L20.00002036819458,10ZM7.00000036819458,19C5.34315036819458,19,4.000000368194581,17.65685,4.000000368194581,16C4.000000368194581,14.34315,5.34315036819458,13,7.00000036819458,13C8.65685036819458,13,10.00000036819458,14.34315,10.00000036819458,16C9.99818036819458,17.656100000000002,8.65610036819458,18.998179999999998,7.00000036819458,19Z" fill="#000000" fill-opacity="1"/></g><g></g></g></svg>