<svg xmlns="http://www.w3.org/2000/svg" xmlns:xlink="http://www.w3.org/1999/xlink" fill="none" version="1.1" width="32" height="32" viewBox="0 0 32 32"><defs><clipPath id="master_svg0_134_24526"><rect x="0" y="0" width="32" height="32" rx="0"/></clipPath></defs><g clip-path="url(#master_svg0_134_24526)"><g><path d="M16,29.999999882888794L16,27.999999882888794C21.90617,27.998899882888793,26.9337,23.701099882888794,27.8535,17.866999882888795C28.7732,12.032839882888794,25.31178,6.3966898828887935,19.6924,4.578599882888794L20.3076,2.675299882888794C26.863799999999998,4.796099882888794,30.9024,11.371659882888794,29.8294,18.178199882888794C28.755200000000002,24.985799882888795,22.889499999999998,29.999999882888794,16,29.999999882888794Z" fill="#000000" fill-opacity="1"/></g><g><path d="M7.699999809265137,4.699999809265137C6.553019809265137,5.580211809265137,5.542142809265137,6.6247898092651365,4.699999809265137,7.799999809265136L6.299999809265136,8.999999809265137C7.034479809265137,7.981459809265137,7.909889809265136,7.072379809265136,8.899999809265136,6.299999809265136L7.699999809265137,4.699999809265137Z" fill="#090909" fill-opacity="1"/></g><g><path d="M4.599998424682617,12.299999809265136L2.699999424682617,11.699999809265137C2.2169854246826173,13.081359809265138,1.9800608246826172,14.536759809265137,2.0000000046826174,15.999999809265137L3.9999984246826172,15.999999809265137C3.995858424682617,14.742119809265137,4.198568424682618,13.492109809265138,4.599998424682617,12.299999809265136Z" fill="#090909" fill-opacity="1"/></g><g><path d="M11.699999809265137,2.7000004246826173L12.299999809265136,4.599998424682617C13.492109809265138,4.198568424682618,14.742119809265137,3.995858424682617,15.999999809265137,3.9999984246826172L15.999999809265137,2.0000000046826174C14.536759809265137,1.9800603246826172,13.081359809265138,2.2169854246826173,11.699999809265137,2.7000004246826173Z" fill="#090909" fill-opacity="1"/></g><g><path d="M15.402300151062011,24.24799954223633C15.008780151062012,23.052659542236327,14.428902151062012,21.926979542236328,13.684100151062012,20.91259954223633L15.297400151062012,19.729999542236328C16.16632015106201,20.914049542236327,16.842780151062012,22.22789954223633,17.30180015106201,23.62299954223633L15.402300151062011,24.24799954223633Z" fill="#000000" fill-opacity="1"/></g><g><path d="M11.020000743103028,18.266800492858888C10.000830743103027,17.528960492858886,8.871290743103028,16.957120492858888,7.673300743103027,16.572500492858886L8.284700743103027,14.668200492858887C9.683280743103028,15.117313492858887,11.001990743103027,15.784900492858887,12.191900743103027,16.64620049285889L11.020000743103028,18.266800492858888Z" fill="#000000" fill-opacity="1"/></g><g></g></g></svg>