<svg xmlns="http://www.w3.org/2000/svg" xmlns:xlink="http://www.w3.org/1999/xlink" fill="none" version="1.1" width="32" height="32" viewBox="0 0 32 32"><defs><clipPath id="master_svg0_134_24510"><rect x="0" y="0" width="32" height="32" rx="0"/></clipPath></defs><g clip-path="url(#master_svg0_134_24510)"><g><path d="M7.699999809265137,4.699999809265137C6.553019809265137,5.580211809265137,5.542142809265137,6.6247898092651365,4.699999809265137,7.799999809265136L6.299999809265136,8.999999809265137C7.034479809265137,7.981459809265137,7.909889809265136,7.072379809265136,8.899999809265136,6.299999809265136L7.699999809265137,4.699999809265137Z" fill="#090909" fill-opacity="1"/></g><g><path d="M4.599998424682617,12.299999809265136L2.699999424682617,11.699999809265137C2.2169854246826173,13.081359809265138,1.9800608246826172,14.536759809265137,2.0000000046826174,15.999999809265137L3.9999984246826172,15.999999809265137C3.995858424682617,14.742119809265137,4.198568424682618,13.492109809265138,4.599998424682617,12.299999809265136Z" fill="#090909" fill-opacity="1"/></g><g><path d="M11.699999809265137,2.7000004246826173L12.299999809265136,4.599998424682617C13.492109809265138,4.198568424682618,14.742119809265137,3.995858424682617,15.999999809265137,3.9999984246826172L15.999999809265137,2.0000000046826174C14.536759809265137,1.9800603246826172,13.081359809265138,2.2169854246826173,11.699999809265137,2.7000004246826173Z" fill="#090909" fill-opacity="1"/></g><g><path d="M24.2,27.3C25.37789,26.42211,26.42211,25.37789,27.3,24.2L25.7,23C24.95637,24.04385,24.04385,24.95637,23,25.7L24.2,27.3Z" fill="#090909" fill-opacity="1"/></g><g><path d="M27.399999618530273,19.7L29.299999618530272,20.3C29.734939618530273,18.90685,29.970609618530272,17.45917,29.999999618530275,16L27.999999618530275,16C28.004136618530275,17.25788,27.80143361853027,18.50789,27.399999618530273,19.7Z" fill="#090909" fill-opacity="1"/></g><g><path d="M29.200000381469728,11.600000286102295C28.736200381469725,10.205580286102295,28.061720381469726,8.890360286102295,27.200000381469728,7.700000286102295L25.600000381469727,8.900000286102294C26.322960381469727,9.912190286102295,26.895570381469728,11.023720286102295,27.300000381469726,12.200000286102295L29.200000381469728,11.600000286102295Z" fill="#090909" fill-opacity="1"/></g><g><path d="M24.100000381469727,4.599999904632568C22.90964038146973,3.7382799046325683,21.594420381469728,3.0638039046325685,20.200000381469728,2.5999999046325684L19.600000381469727,4.499999904632569C20.776280381469725,4.904429904632568,21.887810381469727,5.477039904632568,22.900000381469727,6.199999904632568L24.100000381469727,4.599999904632568Z" fill="#090909" fill-opacity="1"/></g><g><path d="M20.3,29.299999618530272L19.7,27.399999618530273C18.50789,27.80143361853027,17.25788,28.004136618530275,16,27.999999618530275L16,29.999999618530275C17.4534,29.913409618530274,18.89418,29.678869618530275,20.3,29.299999618530272Z" fill="#090909" fill-opacity="1"/></g><g><path d="M15.402300151062011,24.24799954223633C15.008780151062012,23.052659542236327,14.428902151062012,21.926979542236328,13.684100151062012,20.91259954223633L15.297400151062012,19.729999542236328C16.16632015106201,20.914049542236327,16.842780151062012,22.22789954223633,17.30180015106201,23.62299954223633L15.402300151062011,24.24799954223633Z" fill="#000000" fill-opacity="1"/></g><g><path d="M11.020000743103028,18.266800492858888C10.000830743103027,17.528960492858886,8.871290743103028,16.957120492858888,7.673300743103027,16.572500492858886L8.284700743103027,14.668200492858887C9.683280743103028,15.117313492858887,11.001990743103027,15.784900492858887,12.191900743103027,16.64620049285889L11.020000743103028,18.266800492858888Z" fill="#000000" fill-opacity="1"/></g><g></g></g></svg>