<svg xmlns="http://www.w3.org/2000/svg" xmlns:xlink="http://www.w3.org/1999/xlink" fill="none" version="1.1" width="32" height="32" viewBox="0 0 32 32"><defs><clipPath id="master_svg0_134_11980"><rect x="0" y="0" width="32" height="32" rx="0"/></clipPath></defs><g clip-path="url(#master_svg0_134_11980)"><g><path d="M17,13L17,6L8,6L8,22L24,22L24,13L17,13ZM10,8L15,8L15,13L10,13L10,8ZM10,15L15,15L15,20L10,20L10,15ZM22,20L17,20L17,15L22,15L22,20Z" fill="#000000" fill-opacity="1"/></g><g><path d="M28,11L19,11L19,2L28,2L28,11ZM21,9L26,9L26,4L21,4L21,9Z" fill="#000000" fill-opacity="1"/></g><g><path d="M28,20L26,20L26,22L28,22L28,28L4,28L4,22L6,22L6,20L4,20C2.895978,20.00132179,2.00132132,20.895979,2,22L2,28C2.00132227,29.10402,2.895979,29.99868,4,30L28,30C29.104,29.99868,29.9987,29.10402,30,28L30,22C29.9987,20.895979,29.104,20.00132179,28,20Z" fill="#000000" fill-opacity="1"/></g><g><ellipse cx="7" cy="25" rx="1" ry="1" fill="#000000" fill-opacity="1"/></g><g></g></g></svg>