<svg xmlns="http://www.w3.org/2000/svg" xmlns:xlink="http://www.w3.org/1999/xlink" fill="none" version="1.1" width="32" height="32" viewBox="0 0 32 32"><defs><clipPath id="master_svg0_134_12171"><rect x="0" y="0" width="32" height="32" rx="0"/></clipPath></defs><g clip-path="url(#master_svg0_134_12171)"><g><path d="M28,2L10,2C8.895959999999999,2.00126767,8.00127,2.895956,8,4L8,7L4,7C2.895956,7.00127,2.00126696,7.89596,2,9L2,28C2.00126863,29.104,2.895956,29.9987,4,30L28,30C29.104,29.9987,29.9987,29.104,30,28L30,4C29.9987,2.895956,29.104,2.00126863,28,2ZM10,4L28,4L28,7L10,7L10,4ZM28,14L20,14L20,9L28,9L28,14ZM10,21L10,16L18,16L18,21L10,21ZM18,23L18,28L10,28L10,23L18,23ZM8,21L4,21L4,16L8,16L8,21ZM18,9L18,14L10,14L10,9L18,9ZM20,16L28,16L28,21L20,21L20,16ZM8,9L8,14L4,14L4,9L8,9ZM4,23L8,23L8,28L4,28L4,23ZM20,28L20,23L28,23L28,28L20,28Z" fill="#000000" fill-opacity="1"/></g><g></g></g></svg>