<svg xmlns="http://www.w3.org/2000/svg" xmlns:xlink="http://www.w3.org/1999/xlink" fill="none" version="1.1" width="32" height="32" viewBox="0 0 32 32"><defs><clipPath id="master_svg0_134_12182"><rect x="0" y="0" width="32" height="32" rx="0"/></clipPath></defs><g clip-path="url(#master_svg0_134_12182)"><g></g><g><path d="M15.999988555908203,2C9.927928555908203,2.00738335,5.007383825908203,6.92793,5.000000000008203,13C4.996555805908203,15.3833,5.775139555908203,17.7018,7.216298555908203,19.6Q7.516298555908203,19.9945,7.564498555908203,20.0517L15.999988555908203,30L24.438988555908203,20.0474Q24.483388555908203,19.9941,24.783688555908203,19.5996L24.785188555908203,19.5972C26.225488555908203,17.6997,27.003588555908202,15.3822,26.999988555908203,13C26.992588555908203,6.92793,22.072088555908202,2.00738311,15.999988555908203,2ZM21.999988555908203,15C21.998688555908203,16.104,21.104088555908202,16.9987,19.999988555908203,17L18.535188555908203,17L16.831988555908204,19.5547L15.167988555908202,18.4453L17.464788555908203,15L19.999988555908203,15L19.999988555908203,10L11.999998555908203,10L11.999998555908203,15L13.999998555908203,15L13.999998555908203,17L11.999998555908203,17C10.895958555908203,16.9987,10.001268555908204,16.104,9.999998555908203,15L9.999998555908203,10C10.001268555908204,8.895959999999999,10.895958555908203,8.00127,11.999998555908203,8L19.999988555908203,8C21.104088555908202,8.00127,21.998688555908203,8.895959999999999,21.999988555908203,10L21.999988555908203,15Z" fill="#000000" fill-opacity="1"/></g><g></g></g></svg>