<svg xmlns="http://www.w3.org/2000/svg" xmlns:xlink="http://www.w3.org/1999/xlink" fill="none" version="1.1" width="32" height="32" viewBox="0 0 32 32"><defs><clipPath id="master_svg0_134_12200"><rect x="0" y="0" width="32" height="32" rx="0"/></clipPath></defs><g clip-path="url(#master_svg0_134_12200)"><g><ellipse cx="16" cy="16" rx="2" ry="2" fill="#000000" fill-opacity="1"/></g><g><path d="M23.776899999999998,15.4785C22.5138,12.26117,19.4548,10.106215,16,10C12.54523,10.106215,9.48621,12.26117,8.223101,15.4785L8,16L8.2231,16.5215C9.48621,19.73883,12.54523,21.8938,16,22C19.4548,21.8938,22.5138,19.73883,23.776899999999998,16.5215L24,16L23.776899999999998,15.4785ZM16,20C13.79086,20,12,18.209139999999998,12,16C12,13.79086,13.79086,12,16,12C18.2091,12,20,13.79086,20,16C19.997500000000002,18.208109999999998,18.2081,19.99752,16,20Z" fill="#000000" fill-opacity="1"/></g><g><path d="M28.5039,8.136201853027345L16.5039,1.1361998530273438C16.192500000000003,0.9545491530273438,15.8075,0.9545491530273438,15.4961,1.1361998530273438L3.4961,8.136201853027345C3.1889,8.315401853027343,3,8.644311853027343,3,9.000001853027344L3,22.999961853027344C2.9999866486,23.355661853027343,3.188887,23.684561853027343,3.4961,23.863761853027345L15.4961,30.863761853027345C15.8075,31.045461853027344,16.192500000000003,31.045461853027344,16.5039,30.863761853027345L28.5039,23.863761853027345C28.8111,23.684561853027343,29,23.355661853027343,29,22.999961853027344L29,9.000001853027344C29,8.644331853027344,28.8111,8.315421853027344,28.5039,8.136201853027345ZM27,22.425761853027343L16,28.842261853027345L5,22.425761853027343L5,9.574201853027343L16,3.1577018530273437L27,9.574201853027343L27,22.425761853027343Z" fill="#000000" fill-opacity="1"/></g><g></g></g></svg>