<svg xmlns="http://www.w3.org/2000/svg" xmlns:xlink="http://www.w3.org/1999/xlink" fill="none" version="1.1" width="32" height="32" viewBox="0 0 32 32"><defs><clipPath id="master_svg0_134_12195"><rect x="0" y="0" width="32" height="32" rx="0"/></clipPath></defs><g clip-path="url(#master_svg0_134_12195)"><g><path d="M28.5039,8.136201853027345L16.5039,1.1361998530273438C16.192500000000003,0.9545491530273438,15.8075,0.9545491530273438,15.4961,1.1361998530273438L3.4961,8.136201853027345C3.1889,8.315401853027343,3,8.644311853027343,3,9.000001853027344L3,22.999961853027344C2.9999866486,23.355661853027343,3.188887,23.684561853027343,3.4961,23.863761853027345L15.4961,30.863761853027345C15.8075,31.045461853027344,16.192500000000003,31.045461853027344,16.5039,30.863761853027345L28.5039,23.863761853027345C28.8111,23.684561853027343,29,23.355661853027343,29,22.999961853027344L29,9.000001853027344C29,8.644331853027344,28.8111,8.315421853027344,28.5039,8.136201853027345ZM16,3.1577018530273437L26.0156,9.000001853027344L16,14.842261853027344L5.9844,9.000001853027344L16,3.1577018530273437ZM5,10.741201853027343L15,16.57416185302734L15,28.258761853027345L5,22.425761853027343L5,10.741201853027343ZM17,28.258761853027345L17,16.57416185302734L27,10.741201853027343L27,22.425761853027343L17,28.258761853027345Z" fill="#000000" fill-opacity="1"/></g><g></g></g></svg>