<svg xmlns="http://www.w3.org/2000/svg" xmlns:xlink="http://www.w3.org/1999/xlink" fill="none" version="1.1" width="32" height="32" viewBox="0 0 32 32"><defs><clipPath id="master_svg0_134_12218"><rect x="0" y="0" width="32" height="32" rx="0"/></clipPath></defs><g clip-path="url(#master_svg0_134_12218)"><g><path d="M22.999999986267092,20.5151C22.999999986267092,15.8999,19.21999998626709,15.374,16.18289998626709,14.9521C12.87289998626709,14.4912,10.99999998626709,14.0921,10.99999998626709,11.2421C10.99999998626709,8.8491,13.50709998626709,8,15.653799986267089,8C17.82438998626709,7.92979,19.89629998626709,8.90765,21.22189998626709,10.6279L22.77809998626709,9.3721C21.36469998626709,7.55477,19.285199986267088,6.3758,16.999999986267092,6.0962L16.999999986267092,3L14.99999998626709,3L14.99999998626709,6.022C11.38479998626709,6.2412,8.99999998626709,8.282,8.99999998626709,11.242C8.99999998626709,15.972,12.82999998626709,16.5047,15.90749998626709,16.932000000000002C19.15999998626709,17.3848,20.999999986267092,17.7744,20.999999986267092,20.5151C20.999999986267092,23.5474,17.86739998626709,24,15.99999998626709,24C12.57059998626709,24,11.12179998626709,23.0361,9.77809998626709,21.3721L8.22189998626709,22.6279C9.82931998626709,24.746,12.34107998626709,25.9826,14.99999998626709,25.9648L14.99999998626709,29L16.999999986267092,29L16.999999986267092,25.9551C20.725599986267092,25.6509,22.999999986267092,23.6279,22.999999986267092,20.5151Z" fill="#000000" fill-opacity="1"/></g><g></g></g></svg>