<svg xmlns="http://www.w3.org/2000/svg" xmlns:xlink="http://www.w3.org/1999/xlink" fill="none" version="1.1" width="32" height="32" viewBox="0 0 32 32"><defs><clipPath id="master_svg0_134_12233"><rect x="0" y="0" width="32" height="32" rx="0"/></clipPath></defs><g clip-path="url(#master_svg0_134_12233)"><g><path d="M12.4531,24.999956454086302C13.4652,23.529456454086304,14.004819999999999,21.785156454086305,14,19.999956454086302C14.00342,19.329156454086302,13.94315,18.659456454086303,13.82,17.999956454086302L22,17.999956454086302L22,15.999956454086304L13.217500000000001,15.999956454086304C13.1333,15.789056454086303,13.0475,15.580556454086304,12.9619,15.375956454086303C12.309660000000001,14.010456454086304,11.98053,12.513156454086303,12,10.999996454086304C11.875070000000001,8.188456454086303,14.18845,5.875066454086304,17,5.999996454086304C19.0735,5.934806454086304,21.039,6.923886454086304,22.2222,8.627896454086304L23.7778,7.372096454086304C22.213900000000002,5.197876454086304,19.677500000000002,3.9359331540863036,17,4.000000004086304C13.081209999999999,3.8694624540863036,9.86946,7.081206454086304,10,10.999996454086304C9.97758,12.724276454086304,10.33822,14.432056454086304,11.0559,15.999956454086304L8,15.999956454086304L8,17.999956454086302L11.7729,17.999956454086302C11.93036,18.654856454086303,12.006630000000001,19.3265564540863,12,19.999956454086302C12,22.523356454086304,10.5142,24.999956454086302,9,24.999956454086302L9,26.999956454086302L24,26.999956454086302L24,24.999956454086302L12.4531,24.999956454086302Z" fill="#000000" fill-opacity="1"/></g><g></g></g></svg>