<svg xmlns="http://www.w3.org/2000/svg" xmlns:xlink="http://www.w3.org/1999/xlink" fill="none" version="1.1" width="32" height="32" viewBox="0 0 32 32"><defs><clipPath id="master_svg0_134_12207"><rect x="0" y="0" width="32" height="32" rx="0"/></clipPath></defs><g clip-path="url(#master_svg0_134_12207)"><g><path d="M21,12L21,10L17,10L17,7L15,7L15,10L13,10C11.895887,10.001100000000001,11.00110245,10.89589,11,12L11,15C11.00110245,16.10411,11.895887,16.9989,13,17L19,17L19,20L11,20L11,22L15,22L15,25L17,25L17,22L19,22C20.104039999999998,21.9987,20.998730000000002,21.104,21,20L21,17C20.9989,15.89589,20.10411,15.0011,19,15L13,15L13,12L21,12Z" fill="#000000" fill-opacity="1"/></g><g><path d="M16,4C22.6274,4,28,9.37258,28,16C28,22.6274,22.6274,28,16,28C9.37258,28,4,22.6274,4,16C4.01939,9.38063,9.38063,4.01939,16,4ZM16,2C8.26801,2,2,8.26801,2,16C2,23.732,8.26801,30,16,30C23.732,30,30,23.732,30,16C29.9774,8.2774,23.7226,2.0226262,16,2Z" fill="#000000" fill-opacity="1"/></g><g></g></g></svg>