<svg xmlns="http://www.w3.org/2000/svg" xmlns:xlink="http://www.w3.org/1999/xlink" fill="none" version="1.1" width="32" height="32" viewBox="0 0 32 32"><defs><clipPath id="master_svg0_134_12303"><rect x="0" y="0" width="32" height="32" rx="0"/></clipPath></defs><g clip-path="url(#master_svg0_134_12303)"><g><path d="M25,30C21.68629,30,19,27.31371,19,24C19,20.68629,21.68629,18,25,18C28.31371,18,31,20.68629,31,24C30.9962,27.31213,28.31213,29.9962,25,30ZM25,20C22.79086,20,21,21.79086,21,24C21,26.209139999999998,22.79086,28,25,28C27.209139999999998,28,29,26.209139999999998,29,24C28.99752,21.79189,27.208109999999998,20.00248,25,20Z" fill="#000000" fill-opacity="1"/></g><g><path d="M7,30C3.68629,30,1,27.31371,1,24C1,20.68629,3.68629,18,7,18C10.31371,18,13,20.68629,13,24C12.9962,27.31213,10.31213,29.9962,7,30ZM7,20C4.79086,20,3,21.79086,3,24C3,26.209139999999998,4.79086,28,7,28C9.20914,28,11,26.209139999999998,11,24C10.99752,21.79189,9.20811,20.00248,7,20Z" fill="#000000" fill-opacity="1"/></g><g><path d="M16.999997575073245,27.000019550323486L14.999997575073241,27.000019550323486L14.999997575073241,20.413919550323484L9.584899575073242,14.999999550323487C8.804990575073242,14.218179550323487,8.804990575073242,12.952619550323487,9.584899575073242,12.170799550323487L14.170797575073241,7.5849005503234865C14.952417575073241,6.805059550323486,16.217787575073242,6.805059550323486,16.999397575073242,7.5849005503234865L21.413967575073244,11.999999550323487L26.999967575073242,11.999999550323487L26.999967575073242,13.999299550323485L20.585267575073242,13.999999550323487L15.585297575073241,8.999999550323487L10.999997575073243,13.584899550323486L16.999997575073245,19.584919550323484L16.999997575073245,27.000019550323486Z" fill="#000000" fill-opacity="1"/></g><g><path d="M21.500001907348633,8.000000357627869C19.567001907348633,8.000000357627869,18.000001907348633,6.4330003576278685,18.000001907348633,4.500000357627869C18.000001907348633,2.567000357627869,19.567001907348633,1.0000003576278687,21.500001907348633,1.0000003576278687C23.433001907348633,1.0000003576278687,25.000001907348633,2.567000357627869,25.000001907348633,4.500000357627869C24.997681907348632,6.432040357627868,23.432041907348633,7.9976803576278686,21.500001907348633,8.000000357627869ZM21.500001907348633,3.0000003576278687C20.671571907348632,3.0000003576278687,20.000001907348633,3.6715703576278687,20.000001907348633,4.500000357627869C20.000001907348633,5.328430357627869,20.671571907348632,6.000000357627869,21.500001907348633,6.000000357627869C22.328421907348634,6.000000357627869,23.000001907348633,5.328430357627869,23.000001907348633,4.500000357627869C22.999061907348633,3.6719603576278685,22.328041907348634,3.0009403576278686,21.500001907348633,3.0000003576278687Z" fill="#000000" fill-opacity="1"/></g><g></g></g></svg>