<svg xmlns="http://www.w3.org/2000/svg" xmlns:xlink="http://www.w3.org/1999/xlink" fill="none" version="1.1" width="32" height="32" viewBox="0 0 32 32"><defs><clipPath id="master_svg0_134_12424"><rect x="0" y="0" width="32" height="32" rx="0"/></clipPath></defs><g clip-path="url(#master_svg0_134_12424)"><g><path d="M23,32L21.245,31L24,27L28,27L28,20L16,20L16,27L20,27L20,29L16,29C14.8975,29,14,28.1025,14,27L14,20C14,18.897499,14.8975,18,16,18L28,18C29.1025,18,30,18.897499,30,20L30,27C30,28.1025,29.1025,29,28,29L25,29L23,32Z" fill="#000000" fill-opacity="1"/></g><g><path d="M13,1.999999999999842C7.7021,1.999999999999842,2,3.2519995231628416,2,5.999999523162842L2,23.999999523162842C2,26.403299523162843,6.3618,27.662599523162843,11,27.940399523162842L11,25.938899523162842C6.4663,25.65859952316284,4.1326,24.47449952316284,4,23.999899523162842L4,20.427599523162844C5.7065,21.28359952316284,8.3062,21.77179952316284,11,21.933899523162843L11,19.938799523162842C6.4663,19.658499523162842,4.1326,18.47439952316284,4,17.999799523162842L4,14.427499523162842C6.1279,15.494899523162841,9.6426,15.999799523162842,13,15.999799523162842C18.2979,15.999799523162842,24,14.747799523162842,24,11.999799523162842L24,5.999299523162842C23.9993,3.251299523162842,18.2976,1.9998013971628419,13,1.999999999999842ZM3.9985,6.015099523162842C4.1508,5.459899523162842,7.1499,3.999999523162842,13,3.999999523162842C18.7976,3.999999523162842,21.7949,5.434099523162842,21.9968,5.999999523162842C21.7949,6.565899523162842,18.7976,7.999999523162842,13,7.999999523162842C7.1499,7.999999523162842,4.1509,6.539999523162842,3.9985,6.015099523162842ZM22,11.987299523162841C21.8394,12.544399523162841,18.8413,13.999999523162842,13,13.999999523162842C7.1499,13.999999523162842,4.1509,12.539999523162841,4,11.999999523162842L4,8.427699523162842C6.1279,9.495099523162843,9.6426,9.999999523162842,13,9.999999523162842C16.3574,9.999999523162842,19.8721,9.495099523162843,22,8.427699523162842L22,11.987299523162841Z" fill="#000000" fill-opacity="1"/></g><g></g></g></svg>