<svg xmlns="http://www.w3.org/2000/svg" xmlns:xlink="http://www.w3.org/1999/xlink" fill="none" version="1.1" width="32" height="32" viewBox="0 0 32 32"><defs><clipPath id="master_svg0_134_12351"><rect x="0" y="0" width="32" height="32" rx="0"/></clipPath></defs><g clip-path="url(#master_svg0_134_12351)"><g><path d="M28,20L26,20L26,22L28,22L28,28L4,28L4,22L6,22L6,20L4,20C2.895978,20.00132179,2.00132132,20.895979,2,22L2,28C2.00132227,29.10402,2.895979,29.99868,4,30L28,30C29.104,29.99868,29.9987,29.10402,30,28L30,22C29.9987,20.895979,29.104,20.00132179,28,20Z" fill="#000000" fill-opacity="1"/></g><g><ellipse cx="7" cy="25" rx="1" ry="1" fill="#000000" fill-opacity="1"/></g><g><path d="M21,13C20.5544,13.0023,20.115000000000002,13.1051,19.7146,13.3008L17.414099999999998,11L19.714100000000002,8.699200000000001C20.1146,8.895,20.5542,8.99782,21,9C22.6569,9,24,7.65685,24,6C24,4.34315,22.6569,3,21,3C19.3431,3,18,4.34315,18,6C18.002200000000002,6.4454899999999995,18.104799999999997,6.88476,18.3,7.2852L16,9.585899999999999L13.7,7.2852C13.89523,6.88476,13.99777,6.4454899999999995,14,6C14,4.34315,12.65685,3,11,3C9.34315,3,8,4.34315,8,6C8,7.65685,9.34315,9,11,9C11.445640000000001,8.99774,11.88503,8.894919999999999,12.2854,8.699200000000001L14.585899999999999,11L12.2854,13.3008C11.88503,13.1051,11.445640000000001,13.0023,11,13C9.34315,13,8,14.3431,8,16C8,17.6569,9.34315,19,11,19C12.65685,19,14,17.6569,14,16C13.99777,15.5545,13.89523,15.1152,13.7,14.7148L16,12.4141L18.3,14.7148C18.104799999999997,15.1152,18.002200000000002,15.5545,18,16C18,17.6569,19.3431,19,21,19C22.6569,19,24,17.6569,24,16C24,14.3431,22.6569,13,21,13ZM21,5C21.552300000000002,5,22,5.44772,22,6C22,6.55228,21.552300000000002,7,21,7C20.447699999999998,7,20,6.55228,20,6C20.000500000000002,5.44792,20.4479,5.000500000000001,21,5ZM10,6C10,5.44772,10.44771,5,11,5C11.55229,5,12,5.44772,12,6C12,6.55228,11.55229,7,11,7C10.44792,6.999499999999999,10.0005,6.55208,10,6ZM11,17C10.44771,17,10,16.552300000000002,10,16C10,15.4477,10.44771,15,11,15C11.55229,15,12,15.4477,12,16C11.99951,16.5521,11.55208,16.999499999999998,11,17ZM21,17C20.447699999999998,17,20,16.552300000000002,20,16C20,15.4477,20.447699999999998,15,21,15C21.552300000000002,15,22,15.4477,22,16C21.999499999999998,16.5521,21.5521,16.999499999999998,21,17Z" fill="#000000" fill-opacity="1"/></g><g></g></g></svg>