<svg xmlns="http://www.w3.org/2000/svg" xmlns:xlink="http://www.w3.org/1999/xlink" fill="none" version="1.1" width="32" height="32" viewBox="0 0 32 32"><defs><clipPath id="master_svg0_134_12692"><rect x="0" y="0" width="32" height="32" rx="0"/></clipPath></defs><g clip-path="url(#master_svg0_134_12692)"><g><ellipse cx="22" cy="24" rx="2" ry="2" fill="#000000" fill-opacity="1"/></g><g><path d="M29.776899999999998,23.4785C28.5138,20.26117,25.4548,18.106216,22,18C18.54523,18.106216,15.48621,20.26117,14.223101,23.4785L14,24L14.2231,24.5215C15.48621,27.73883,18.54523,29.8938,22,30C25.4548,29.8938,28.5138,27.73883,29.776899999999998,24.5215L30,24L29.776899999999998,23.4785ZM22,28C19.790860000000002,28,18,26.209139999999998,18,24C18,21.79086,19.790860000000002,20,22,20C24.2091,20,26,21.79086,26,24C25.997500000000002,26.208109999999998,24.2081,27.99752,22,28Z" fill="#000000" fill-opacity="1"/></g><g><rect x="7" y="17" width="5" height="2" rx="0" fill="#000000" fill-opacity="1"/></g><g><rect x="7" y="12" width="12" height="2" rx="0" fill="#000000" fill-opacity="1"/></g><g><rect x="7" y="7" width="12" height="2" rx="0" fill="#000000" fill-opacity="1"/></g><g><path d="M22,2L4,2C2.896753,2.00318551,2.00318551,2.896753,2,4L2,28C2.00318575,29.1032,2.896753,29.9968,4,30L12,30L12,28L4,28L4,4L22,4L22,15L24,15L24,4C23.9968,2.896752,23.1032,2.00318575,22,2Z" fill="#000000" fill-opacity="1"/></g><g></g></g></svg>