<svg xmlns="http://www.w3.org/2000/svg" xmlns:xlink="http://www.w3.org/1999/xlink" fill="none" version="1.1" width="32" height="32" viewBox="0 0 32 32"><defs><clipPath id="master_svg0_134_12658"><rect x="0" y="0" width="32" height="32" rx="0"/></clipPath></defs><g clip-path="url(#master_svg0_134_12658)"><g><path d="M16.49609862909317,18.1318L9.49609862909317,14.1318C9.34249862909317,14.0438995,9.17129862909317,14,8.99999862909317,14C8.828698629093171,14,8.657498629093169,14.0438995,8.50389862909317,14.1318L1.5038986290931702,18.1318C1.19239862909317,18.3095,0.9999986290931702,18.6411,0.9999986290931702,19L0.9999986290931702,27C0.9999986290931702,27.3589,1.19239862909317,27.6904,1.5038986290931702,27.8682L8.50389862909317,31.8682C8.657498629093169,31.9561,8.828898629093171,32,8.99999862909317,32C9.17109862909317,32,9.34249862909317,31.9561,9.49609862909317,31.8682L16.49609862909317,27.8682C16.80759862909317,27.6905,16.99999862909317,27.3589,16.99999862909317,27L16.99999862909317,19C16.99999862909317,18.6411,16.80759862909317,18.3096,16.49609862909317,18.1318ZM8.99999862909317,16.1518L13.984398629093171,18.9999L8.99999862909317,21.848L4.01559862909317,18.9999L8.99999862909317,16.1518ZM2.99999862909317,20.7231L7.99999862909317,23.58L7.99999862909317,29.2768L2.99999862909317,26.4199L2.99999862909317,20.7231ZM9.99999862909317,29.2768L9.99999862909317,23.58L14.99999862909317,20.7231L14.99999862909317,26.4199L9.99999862909317,29.2768Z" fill="#000000" fill-opacity="1"/></g><g><path d="M27.99999891052246,19L27.99999891052246,24C27.99999891052246,25.1025,27.10279891052246,26,25.99999891052246,26L22.82809891052246,26L24.413998910522462,24.4141L22.99989891052246,23L18.99989891052246,27L22.99989891052246,31L24.413998910522462,29.585900000000002L22.82809891052246,28L25.99999891052246,28C28.20559891052246,28,29.99999891052246,26.2056,29.99999891052246,24L29.99999891052246,19L27.99999891052246,19Z" fill="#000000" fill-opacity="1"/></g><g><path d="M17.503900953674318,15.011099046325683L15.503900953674316,13.868299046325683C15.192400953674316,13.690199046325684,15.000000953674316,13.358899046325684,15.000000953674316,12.999999046325684L15.000000953674316,10.999999046325684L17.000000953674316,10.999999046325684L17.000000953674316,12.419699046325684L18.496100953674315,13.274599046325683L17.503900953674318,15.011099046325683Z" fill="#000000" fill-opacity="1"/></g><g><path d="M25.50389862060547,14.417499046325684L23.999998620605467,15.276899046325683L23.999998620605467,12.999999046325684L21.999998620605467,12.999999046325684L21.999998620605467,15.276899046325683L20.49609962060547,14.417499046325684L19.50389862060547,16.154299046325683L22.50389862060547,17.868199046325685C22.65749862060547,17.956099046325683,22.828898620605468,17.999999046325684,22.999998620605467,17.999999046325684C23.17109862060547,17.999999046325684,23.34249862060547,17.956099046325683,23.49609862060547,17.868199046325685L26.49609862060547,16.154299046325683L25.50389862060547,14.417499046325684Z" fill="#000000" fill-opacity="1"/></g><g><path d="M28.49609962060547,15.011099864196776L27.50389862060547,13.274499864196777L28.999998620605467,12.419599864196778L28.999998620605467,10.999899864196777L30.999998620605467,10.999899864196777L30.999998620605467,12.999899864196777C30.999998620605467,13.358799864196778,30.807598620605468,13.690099864196778,30.49609862060547,13.868199864196777L28.49609962060547,15.011099864196776Z" fill="#000000" fill-opacity="1"/></g><g><path d="M25.496100527954102,8.725600048828126L24.5039005279541,6.988800048828125L23.0000005279541,7.848100048828125L21.4960995279541,6.988800048828125L20.5039005279541,8.725600048828126L22.0000005279541,9.580100048828125L22.0000005279541,11.000000048828124L24.0000005279541,11.000000048828124L24.0000005279541,9.580100048828125L25.496100527954102,8.725600048828126Z" fill="#000000" fill-opacity="1"/></g><g><path d="M30.49609862060547,4.131800121688842L27.49609962060547,2.4174001216888428L26.50389862060547,4.1542001216888425L27.984398620605468,4.999900121688842L26.50389862060547,5.845600121688843L27.49609962060547,7.582400121688843L28.999998620605467,6.723000121688843L28.999998620605467,8.999900121688842L30.999998620605467,8.999900121688842L30.999998620605467,4.999900121688842C30.999998620605467,4.641000121688842,30.807598620605468,4.309500121688843,30.49609862060547,4.131800121688842Z" fill="#000000" fill-opacity="1"/></g><g><path d="M24.50389862060547,3.0111L22.999998620605467,2.1517L21.49609962060547,3.0111L20.50389862060547,1.2745L22.50389862060547,0.1317C22.65749862060547,0.0439,22.82869862060547,2.98023e-8,22.999998620605467,2.98023e-8C23.17129862060547,2.98023e-8,23.34249862060547,0.0439,23.49609862060547,0.1317L25.49609862060547,1.2745L24.50389862060547,3.0111Z" fill="#000000" fill-opacity="1"/></g><g><path d="M19.496099046325682,4.154300257492065L18.503899046325685,2.4175002574920654L15.503899046325683,4.131900257492065C15.192399046325683,4.3096002574920655,14.999999046325684,4.641200257492065,14.999999046325684,5.000100257492065L14.999999046325684,9.000100257492065L16.999999046325684,9.000100257492065L16.999999046325684,6.723200257492065L18.503899046325685,7.582600257492065L19.496099046325682,5.8458002574920656L18.015599046325683,5.000100257492065L19.496099046325682,4.154300257492065Z" fill="#000000" fill-opacity="1"/></g><g><path d="M8.999999864196777,1L7.585899864196778,2.4141L9.171799864196778,4L5.999899864196777,4C3.7942998641967773,4,1.9998998641967773,5.7944,1.9998998641967773,8L1.9998998641967773,13L3.9998998641967773,13L3.9998998641967773,8C3.9998998641967773,6.8975,4.897099864196777,6,5.999899864196777,6L9.171799864196778,6L7.585899864196778,7.5859L8.999999864196777,9L12.999999864196777,5L8.999999864196777,1Z" fill="#000000" fill-opacity="1"/></g><g></g></g></svg>