<svg xmlns="http://www.w3.org/2000/svg" xmlns:xlink="http://www.w3.org/1999/xlink" fill="none" version="1.1" width="32" height="32" viewBox="0 0 32 32"><defs><clipPath id="master_svg0_134_12707"><rect x="0" y="0" width="32" height="32" rx="0"/></clipPath></defs><g clip-path="url(#master_svg0_134_12707)"><g><path d="M28,2L17,2C15.8959,2.00110245,15.0011,2.895887,15,4L15,10L4,10C2.895887,10.0011,2.00110173,10.89589,2,12L2,28C2.00126863,29.104,2.895956,29.9987,4,30L15,30C16.104,29.9987,16.9987,29.104,17,28L17,22L28,22C29.104,21.9985,29.9985,21.104,30,20L30,4C29.9987,2.895956,29.104,2.00126863,28,2ZM28,4L28,8L17,8L17,4L28,4ZM15.0009,22L4,22L4,18L15,18L15.0009,22ZM17,10L28.0007,10L28.0012,14L17,14L17,10ZM15,12L15,16L4,16L4,12L15,12ZM4,28L4,24L15.0011,24L15.0011,28L4,28ZM17,20L17,16L28.0015,16L28.0015,20L17,20Z" fill="#000000" fill-opacity="1"/></g><g></g></g></svg>