<svg xmlns="http://www.w3.org/2000/svg" xmlns:xlink="http://www.w3.org/1999/xlink" fill="none" version="1.1" width="32" height="32" viewBox="0 0 32 32"><defs><clipPath id="master_svg0_134_12510"><rect x="0" y="0" width="32" height="32" rx="0"/></clipPath></defs><g clip-path="url(#master_svg0_134_12510)"><g><path d="M30,30L24,30L24,28L28,28L28,4L24,4L24,2L30,2L30,30Z" fill="#000000" fill-opacity="1"/></g><g><path d="M24.909997000122072,19.58999938430786C24.609597000122072,18.138499384307863,23.61519700012207,16.927269384307863,22.24999700012207,16.34999938430786C21.12999700012207,15.883329384307862,19.86999700012207,15.883329384307862,18.74999700012207,16.34999938430786C18.52829700012207,16.45073938430786,18.31439700012207,16.56771938430786,18.10999700012207,16.699999384307862L15.29999700012207,13.889999384307862C17.00679700012207,11.188579384307861,15.45546700012207,7.616700384307862,12.316227000122069,7.0200256843078614C9.17698700012207,6.423351384307861,6.4233500001220705,9.176989384307861,7.02002570012207,12.31622938430786C7.616703000122071,15.455469384307861,11.18858700012207,17.00679938430786,13.88999700012207,15.299999384307862L16.69999700012207,18.109999384307862C16.07678700012207,19.08939938430786,15.85809700012207,20.272499384307864,16.089997000122068,21.40999938430786C16.39036700012207,22.861499384307862,17.38479700012207,24.07269938430786,18.74999700012207,24.64999938430786C19.86999700012207,25.11669938430786,21.12999700012207,25.11669938430786,22.24999700012207,24.64999938430786C23.61519700012207,24.07269938430786,24.609597000122072,22.861499384307862,24.909997000122072,21.40999938430786C25.02989700012207,20.809299384307863,25.02989700012207,20.190699384307862,24.909997000122072,19.58999938430786ZM11.49999700012207,13.999999384307861C10.119287000122071,13.999999384307861,8.99999700012207,12.880709384307861,8.99999700012207,11.499999384307861C8.99999700012207,10.119289384307862,10.119287000122071,8.999999384307861,11.49999700012207,8.999999384307861C12.88070700012207,8.999999384307861,13.99999700012207,10.119289384307862,13.99999700012207,11.499999384307861C13.99999700012207,12.880709384307861,12.88070700012207,13.999999384307861,11.49999700012207,13.999999384307861Z" fill="#000000" fill-opacity="1"/></g><g><path d="M8,30L2,30L2,2L8,2L8,4L4,4L4,28L8,28L8,30Z" fill="#000000" fill-opacity="1"/></g><g></g></g></svg>