<svg xmlns="http://www.w3.org/2000/svg" xmlns:xlink="http://www.w3.org/1999/xlink" fill="none" version="1.1" width="32" height="32" viewBox="0 0 32 32"><defs><clipPath id="master_svg0_134_12487"><rect x="0" y="0" width="32" height="32" rx="0"/></clipPath></defs><g clip-path="url(#master_svg0_134_12487)"><g><path d="M23,27.18000015258789L20.41,24.59000015258789L19,26.00000015258789L23,30.00000015258789L30,23.00000015258789L28.59,21.59000015258789L23,27.18000015258789Z" fill="#000000" fill-opacity="1"/></g><g><ellipse cx="11" cy="8" rx="1" ry="1" fill="#000000" fill-opacity="1"/></g><g><ellipse cx="11" cy="16" rx="1" ry="1" fill="#000000" fill-opacity="1"/></g><g><ellipse cx="11" cy="24" rx="1" ry="1" fill="#000000" fill-opacity="1"/></g><g><path d="M24,3L8,3C6.895431,3,6,3.895431,6,5L6,27C6,28.1046,6.895431,29,8,29L16,29L16,27L8,27L8,21L26,21L26,5C26,3.895431,25.1046,3,24,3ZM24,19L8,19L8,13L24,13L24,19ZM24,11L8,11L8,5L24,5L24,11Z" fill="#000000" fill-opacity="1"/></g><g></g></g></svg>