<svg xmlns="http://www.w3.org/2000/svg" xmlns:xlink="http://www.w3.org/1999/xlink" fill="none" version="1.1" width="32" height="32" viewBox="0 0 32 32"><defs><clipPath id="master_svg0_134_12535"><rect x="0" y="0" width="32" height="32" rx="0"/></clipPath></defs><g clip-path="url(#master_svg0_134_12535)"><g><g><path d="M28,13L30,13L30,15L28,15L28,13ZM23.778,4.797L25.192,3.383L26.606,4.797L25.192,6.211L23.778,4.797ZM15,0L17,0L17,2L15,2L15,0ZM6.808,6.233L5.393,4.818L6.808,3.404L8.222000000000001,4.818L6.808,6.233ZM2,13L4,13L4,15L2,15L2,13ZM20,13L17,13L17,10L15,10L15,13L12,13L12,15L15,15L15,18L17,18L17,15L20,15L20,13ZM13,30L19,30L19,32L13,32L13,30ZM11,26L21,26L21,28L11,28L11,26Z" fill="#000000" fill-opacity="1"/></g><g><path d="M16,4C10.5,4,6,8.5,6,14C6,18.4,8,20.3,9.5,21.6C10.5,22.5,11,23.1,11,24L13,24C13,22.2,11.9,21.1,10.8,20.1C9.4,18.9,8,17.5,8,14C8,9.6,11.6,6,16,6C20.4,6,24,9.6,24,14C24,17.5,22.6,18.9,21.2,20.1C20.1,21.1,19,22.1,19,24L21,24C21,23.1,21.5,22.5,22.5,21.6C24,20.3,26,18.4,26,14C26,8.5,21.5,4,16,4Z" fill="#000000" fill-opacity="1"/></g><g></g></g></g></svg>