<svg xmlns="http://www.w3.org/2000/svg" xmlns:xlink="http://www.w3.org/1999/xlink" fill="none" version="1.1" width="32" height="32" viewBox="0 0 32 32"><defs><clipPath id="master_svg0_134_12383"><rect x="0" y="0" width="32" height="32" rx="0"/></clipPath></defs><g clip-path="url(#master_svg0_134_12383)"><g><rect x="7" y="8" width="5" height="2" rx="0" fill="#000000" fill-opacity="1"/></g><g><rect x="7" y="12" width="5" height="2" rx="0" fill="#000000" fill-opacity="1"/></g><g><rect x="7" y="16" width="5" height="2" rx="0" fill="#000000" fill-opacity="1"/></g><g><rect x="20" y="8" width="5" height="2" rx="0" fill="#000000" fill-opacity="1"/></g><g><rect x="20" y="12" width="5" height="2" rx="0" fill="#000000" fill-opacity="1"/></g><g><rect x="20" y="16" width="5" height="2" rx="0" fill="#000000" fill-opacity="1"/></g><g><path d="M28,4L4,4C2.895956,4.00126696,2.00126719,4.895956,2,6L2,28C2.00126863,29.104,2.895956,29.9987,4,30L28,30C29.104,29.9987,29.9987,29.104,30,28L30,6C29.9987,4.895956,29.104,4.00126839,28,4ZM4,6L15,6L15,28L4,28L4,6ZM17,28L17,6L28,6L28,28L17,28Z" fill="#000000" fill-opacity="1"/></g><g></g></g></svg>