<svg xmlns="http://www.w3.org/2000/svg" xmlns:xlink="http://www.w3.org/1999/xlink" fill="none" version="1.1" width="32" height="32" viewBox="0 0 32 32"><defs><clipPath id="master_svg0_134_12682"><rect x="0" y="0" width="32" height="32" rx="0"/></clipPath></defs><g clip-path="url(#master_svg0_134_12682)"><g><ellipse cx="22" cy="24" rx="2" ry="2" fill="#000000" fill-opacity="1"/></g><g><path d="M29.776899999999998,23.4785C28.5138,20.26117,25.4548,18.106216,22,18C18.54523,18.106216,15.48621,20.26117,14.223101,23.4785L14,24L14.2231,24.5215C15.48621,27.73883,18.54523,29.8938,22,30C25.4548,29.8938,28.5138,27.73883,29.776899999999998,24.5215L30,24L29.776899999999998,23.4785ZM22,28C19.790860000000002,28,18,26.209139999999998,18,24C18,21.79086,19.790860000000002,20,22,20C24.2091,20,26,21.79086,26,24C25.997500000000002,26.208109999999998,24.2081,27.99752,22,28Z" fill="#000000" fill-opacity="1"/></g><g><ellipse cx="8" cy="8" rx="1" ry="1" fill="#000000" fill-opacity="1"/></g><g><ellipse cx="8" cy="16" rx="1" ry="1" fill="#000000" fill-opacity="1"/></g><g><ellipse cx="8" cy="24" rx="1" ry="1" fill="#000000" fill-opacity="1"/></g><g><path d="M5,21L12,21L12,19L5,19L5,13L21,13L21,16L23,16L23,5C23,3.895431,22.1046,3,21,3L5,3C3.895431,3,3,3.895431,3,5L3,27C3,28.1046,3.895431,29,5,29L12,29L12,27L5,27L5,21ZM5,5L21,5L21,11L5,11L5,5Z" fill="#000000" fill-opacity="1"/></g><g></g></g></svg>