<svg xmlns="http://www.w3.org/2000/svg" xmlns:xlink="http://www.w3.org/1999/xlink" fill="none" version="1.1" width="32" height="32" viewBox="0 0 32 32"><defs><clipPath id="master_svg0_134_12366"><rect x="0" y="0" width="32" height="32" rx="0"/></clipPath></defs><g clip-path="url(#master_svg0_134_12366)"><g><ellipse cx="7" cy="7" rx="1" ry="1" fill="#000000" fill-opacity="1"/></g><g><ellipse cx="7" cy="15" rx="1" ry="1" fill="#000000" fill-opacity="1"/></g><g><ellipse cx="7" cy="23" rx="1" ry="1" fill="#000000" fill-opacity="1"/></g><g><path d="M12,26L4,26L4,20L12,20L12,18L4,18L4,12L22,12L22,4C22,2.895431,21.1046,2,20,2L4,2C2.895431,2,2,2.895431,2,4L2,26C2,27.1046,2.895431,28,4,28L12,28L12,26ZM4,4L20,4L20,10L4,10L4,4Z" fill="#000000" fill-opacity="1"/></g><g><path d="M28.000003996276856,16.999999790771483L28.000003996276856,19.413101790771485C25.247503996276855,14.810871790771484,18.553433996276855,14.889191790771484,15.909390996276855,19.554561790771483C13.265353996276856,24.219921790771487,16.637483996276856,30.003191790771485,22.000003996276856,29.999991790771485L22.000003996276856,27.999991790771485C19.501963996276857,28.003191790771485,17.384863996276856,26.162191790771484,17.041173996276854,23.687921790771483C16.697483996276855,21.213651790771486,18.232673996276855,18.865341790771485,20.637003996276857,18.187561790771483C23.041323996276855,17.509781790771484,25.577003996276858,18.710511790771484,26.576203996276856,21.000001790771485L24.000003996276856,21.000001790771485L24.000003996276856,23.000001790771485L30.000003996276856,23.000001790771485L30.000003996276856,16.999999790771483L28.000003996276856,16.999999790771483Z" fill="#000000" fill-opacity="1"/></g><g></g></g></svg>