<svg xmlns="http://www.w3.org/2000/svg" xmlns:xlink="http://www.w3.org/1999/xlink" fill="none" version="1.1" width="32" height="32" viewBox="0 0 32 32"><defs><clipPath id="master_svg0_134_12792"><rect x="0" y="0" width="32" height="32" rx="0"/></clipPath></defs><g clip-path="url(#master_svg0_134_12792)"><g><path d="M29.481910079956055,8.62399554397583L19.481910079956055,3.12399954397583C19.181810079956055,2.95896764397583,18.818210079956053,2.95896764397583,18.518110079956053,3.12399954397583L8.518099079956055,8.62399554397583C8.198769079956055,8.79981554397583,8.000410079956055,9.13546554397583,8.000410079956055,9.49999554397583C8.000410079956055,9.86453554397583,8.198769079956055,10.20018554397583,8.518099079956055,10.37599554397583L18.000000079956052,15.591325543975831L18.000000079956052,26.30862554397583L14.963800079956055,24.63932554397583L14.000000079956056,26.39122554397583L18.518110079956053,28.87602554397583C18.818110079956057,29.04132554397583,19.181910079956054,29.04132554397583,19.481910079956055,28.87602554397583L29.481910079956055,23.37602554397583C29.801510079956056,23.20012554397583,30.000010079956056,22.86452554397583,30.000010079956056,22.50002554397583L30.000010079956056,9.49999554397583C29.999910079956056,9.13538554397583,29.801410079956053,8.79970554397583,29.481910079956055,8.62399554397583ZM19.000010079956056,5.14159554397583L26.924810079956053,9.49999554397583L19.000010079956056,13.85842554397583L11.075200079956055,9.49999554397583L19.000010079956056,5.14159554397583ZM28.000010079956056,21.90872554397583L20.000010079956056,26.30872554397583L20.000010079956056,15.591325543975831L28.000010079956056,11.19129554397583L28.000010079956056,21.90872554397583Z" fill="#000000" fill-opacity="1"/></g><g transform="matrix(-1,-1.2246468525851679e-16,1.2246468525851679e-16,-1,20,32)"><rect x="10" y="16" width="8" height="2" rx="0" fill="#000000" fill-opacity="1"/></g><g transform="matrix(-1,-1.2246468525851679e-16,1.2246468525851679e-16,-1,23.999999999999996,48)"><rect x="12" y="24" width="8" height="2" rx="0" fill="#000000" fill-opacity="1"/></g><g transform="matrix(-1,-1.2246468525851679e-16,1.2246468525851679e-16,-1,28,40)"><rect x="14" y="20" width="8" height="2" rx="0" fill="#000000" fill-opacity="1"/></g><g></g></g></svg>