<svg xmlns="http://www.w3.org/2000/svg" xmlns:xlink="http://www.w3.org/1999/xlink" fill="none" version="1.1" width="32" height="32" viewBox="0 0 32 32"><defs><clipPath id="master_svg0_134_12823"><rect x="0" y="0" width="32" height="32" rx="0"/></clipPath></defs><g clip-path="url(#master_svg0_134_12823)"><g><path d="M8,20.000004223632814L4.73,20.000004223632814C4.37717,19.377779223632814,3.71528,18.995182033632812,3,19.000000000032813C1.89543,19.000000000032813,1,19.895429223632814,1,21.000004223632814C1,22.104574223632813,1.89543,23.000004223632814,3,23.000004223632814C3.71528,23.004814223632813,4.37717,22.622214223632813,4.73,22.000004223632814L8,22.000004223632814L8,20.000004223632814Z" fill="#000000" fill-opacity="1"/></g><g><path d="M29,9.000000000007129C28.28472,8.995182987307128,27.62283,9.377780177307129,27.27,9.99999517730713L24,9.99999517730713L24,11.99999517730713L27.27,11.99999517730713C28.04037,13.331925177307129,29.96362,13.330685177307128,30.73228,11.997765177307128C31.50093,10.664845177307129,30.53867,8.999623298307128,29,9.000000000007129Z" fill="#000000" fill-opacity="1"/></g><g><path d="M25.414099353027346,5.000000008678437L20.999999353027345,0.5859000086784363L16.585899353027344,5.000000008678437L19.999999353027345,8.414100008678435L19.999999353027345,18.000000008678438L21.999999353027345,18.000000008678438L21.999999353027345,8.414100008678435L25.414099353027346,5.000000008678437ZM20.999999353027345,3.414100008678436L22.585899353027344,5.000000008678437L20.999999353027345,6.585900008678436L19.414099353027343,5.000000008678437L20.999999353027345,3.414100008678436Z" fill="#000000" fill-opacity="1"/></g><g><path d="M11.999999829864503,23.585900000000002L11.999999829864503,14L9.999999829864501,14L9.999999829864501,23.585900000000002L6.585899829864502,27L10.999999829864503,31.4141L15.414099829864503,27L11.999999829864503,23.585900000000002ZM9.414099829864501,27L10.999999829864503,25.414099999999998L12.585899829864502,27L10.999999829864503,28.585900000000002L9.414099829864501,27Z" fill="#000000" fill-opacity="1"/></g><g><path d="M18.000000008678438,9.999999829864501L8.414100008678435,9.999999829864501L5.000000008678437,6.585899829864502L0.5859000086784363,10.999999829864503L5.000000008678437,15.414099829864503L8.414100008678435,11.999999829864503L18.000000008678438,11.999999829864503L18.000000008678438,9.999999829864501ZM5.000000008678437,12.585899829864502L3.414100008678436,10.999999829864503L5.000000008678437,9.414099829864501L6.585900008678436,10.999999829864503L5.000000008678437,12.585899829864502Z" fill="#000000" fill-opacity="1"/></g><g><path d="M13.000004223632812,3C13.000004223632812,1.89543,12.104574223632813,1,11.000004223632812,1C9.895430223632813,1,9.000000000032813,1.89543,9.000000000032813,3C8.995140073632813,3.71529,9.377748223632812,4.3772,10.000004223632812,4.73L10.000004223632812,8L12.000004223632812,8L12.000004223632812,4.73C12.622254223632812,4.3772,13.004864223632811,3.71529,13.000004223632812,3Z" fill="#000000" fill-opacity="1"/></g><g><path d="M21.99999915649414,27.2705L21.99999915649414,24L19.99999915649414,24L19.99999915649414,27.27C18.92310905649414,27.89174,18.66861315649414,29.33506,19.46791115649414,30.28763C20.26720915649414,31.24019,21.732789156494142,31.24019,22.53208915649414,30.28762C23.33138915649414,29.33506,23.07688915649414,27.89174,21.99999915649414,27.2705L21.99999915649414,27.2705Z" fill="#000000" fill-opacity="1"/></g><g><path d="M31.4141,20.999999353027345L27,16.585899353027344L23.585900000000002,19.999999353027345L14,19.999999353027345L14,21.999999353027345L23.585900000000002,21.999999353027345L27,25.414099353027346L31.4141,20.999999353027345ZM27,19.414099353027343L28.585900000000002,20.999999353027345L27,22.585899353027344L25.414099999999998,20.999999353027345L27,19.414099353027343Z" fill="#000000" fill-opacity="1"/></g><g></g></g></svg>