<svg xmlns="http://www.w3.org/2000/svg" xmlns:xlink="http://www.w3.org/1999/xlink" fill="none" version="1.1" width="32" height="32" viewBox="0 0 32 32"><defs><clipPath id="master_svg0_134_12915"><rect x="0" y="0" width="32" height="32" rx="0"/></clipPath></defs><g clip-path="url(#master_svg0_134_12915)"><g><rect x="26" y="2" width="4" height="4" rx="0" fill="#000000" fill-opacity="1"/></g><g><rect x="26" y="8" width="4" height="4" rx="0" fill="#000000" fill-opacity="1"/></g><g><rect x="20" y="2" width="4" height="4" rx="0" fill="#000000" fill-opacity="1"/></g><g><rect x="20" y="8" width="4" height="4" rx="0" fill="#000000" fill-opacity="1"/></g><g><path d="M28,20L14,20L14,22L16,22L16,26L14,26L14,28L23,28L23,26L18,26L18,22L28,22C28.5304,22,29.0392,21.7892,29.4142,21.4142C29.7892,21.0392,30,20.5304,30,20L30,14L28,14L28,20Z" fill="#000000" fill-opacity="1"/></g><g><path d="M6,6L18,6L18,4L6,4C5.4696,4,4.9608,4.2107,4.5858,4.5858C4.2107,4.9608,4,5.4696,4,6L4,12L6,12L6,6Z" fill="#000000" fill-opacity="1"/></g><g><path d="M10.000000238418579,14L4.000000238418579,14C3.469600238418579,14,2.960800238418579,14.2107,2.585800238418579,14.5858C2.210700238418579,14.9608,2.000000238418579,15.4696,2.000000238418579,16L2.000000238418579,28C2.000000238418579,28.5304,2.210700238418579,29.0392,2.585800238418579,29.4142C2.960800238418579,29.7892,3.469600238418579,30,4.000000238418579,30L10.000000238418579,30C10.53040023841858,30,11.039200238418578,29.7892,11.414200238418578,29.4142C11.78930023841858,29.0392,12.000000238418579,28.5304,12.000000238418579,28L12.000000238418579,16C12.000000238418579,15.4696,11.78930023841858,14.9608,11.414200238418578,14.5858C11.039200238418578,14.2107,10.53040023841858,14,10.000000238418579,14ZM10.000000238418579,28L4.000000238418579,28L4.000000238418579,16L10.000000238418579,16L10.000000238418579,28Z" fill="#000000" fill-opacity="1"/></g><g></g></g></svg>