<svg xmlns="http://www.w3.org/2000/svg" xmlns:xlink="http://www.w3.org/1999/xlink" fill="none" version="1.1" width="32" height="32" viewBox="0 0 32 32"><defs><clipPath id="master_svg0_134_12932"><rect x="0" y="0" width="32" height="32" rx="0"/></clipPath></defs><g clip-path="url(#master_svg0_134_12932)"><g><path d="M24,10C21.79086,10,20,8.20914,20,6C20,3.79086,21.79086,2,24,2C26.209139999999998,2,28,3.79086,28,6C27.99752,8.20811,26.208109999999998,9.99752,24,10ZM24,4C22.89543,4,22,4.89543,22,6C22,7.10457,22.89543,8,24,8C25.10457,8,26,7.10457,26,6C25.99884,4.895910000000001,25.10409,4.0011600000000005,24,4Z" fill="#000000" fill-opacity="1"/></g><g><path d="M14.5,29.999993731689454C11.46936,30.002093731689452,9.00893211,27.550593731689453,9,24.519993731689453C9,21.077393731689455,13.3442,3.505903731689453,13.5293,2.759999731689453C13.63977,2.313740731689453,14.04027,2.000293731689453,14.5,2.000293731689453C14.95973,2.000293731689453,15.36023,2.313740731689453,15.4707,2.759999731689453C15.6558,3.505903731689453,20,21.077393731689455,20,24.519993731689453C19.9911,27.550593731689453,17.530630000000002,30.002093731689452,14.5,29.999993731689454Z" fill="#000000" fill-opacity="1"/></g><g></g></g></svg>