<svg xmlns="http://www.w3.org/2000/svg" xmlns:xlink="http://www.w3.org/1999/xlink" fill="none" version="1.1" width="32" height="32" viewBox="0 0 32 32"><defs><clipPath id="master_svg0_134_13144"><rect x="0" y="0" width="32" height="32" rx="0"/></clipPath></defs><g clip-path="url(#master_svg0_134_13144)"><g><path d="M20.413089211559296,14.583999986419677L12.415989211559296,6.586899986419677C11.634189211559296,5.804352986419678,10.365819211559296,5.804352986419678,9.583999211559295,6.586899986419677L1.5869002115592956,14.583999986419677C0.8043522115592956,15.365819986419679,0.8043522115592956,16.634189986419678,1.5869002115592956,17.415989986419678L4.878399211559296,20.707489986419677L2.9999992115592957,22.585889986419676L4.414099211559296,23.999989986419678L6.292499211559296,22.12158998641968L9.583999211559295,25.413089986419678C10.365819211559296,26.195689986419676,11.634189211559296,26.195689986419676,12.415989211559296,25.413089986419678L14.671889211559296,23.157189986419677L13.256289211559295,21.74168998641968L10.997999211559296,23.998989986419677L3.0009992115592956,16.00198998641968L10.997999211559296,8.000999986419679L18.998989211559294,16.00198998641968L17.499989211559296,17.499989986419678L18.914589211559296,18.914589986419678L20.413089211559296,17.415989986419678C21.195689211559294,16.634189986419678,21.195689211559294,15.365819986419679,20.413089211559296,14.583999986419677Z" fill="#000000" fill-opacity="1"/></g><g><path d="M30.413088555908203,14.583998555908202L27.121588555908204,11.292498555908203L28.999988555908203,9.414098555908204L27.585888555908202,7.999998555908203L25.707488555908203,9.878398555908204L22.415988555908203,6.586900555908203C21.634188555908203,5.8043515559082035,20.365818555908206,5.8043515559082035,19.583998555908202,6.586900555908203L17.328098555908202,8.842798555908203L18.742698555908202,10.257298555908203L20.997998555908204,8.000998555908204L28.998988555908202,16.001988555908206L20.997998555908204,23.998988555908202L13.000998555908204,16.001988555908206L14.500998555908204,14.500998555908204L13.085398555908203,13.085398555908203L11.586899555908204,14.583998555908202C10.804351555908204,15.365818555908204,10.804351555908204,16.634188555908203,11.586899555908204,17.415988555908203L19.583998555908202,25.413088555908203C20.365818555908206,26.195688555908202,21.634188555908203,26.195688555908202,22.415988555908203,25.413088555908203L30.413088555908203,17.415988555908203C31.195688555908202,16.634188555908203,31.195688555908202,15.365828555908204,30.413088555908203,14.583998555908202Z" fill="#000000" fill-opacity="1"/></g><g></g></g></svg>