<svg xmlns="http://www.w3.org/2000/svg" xmlns:xlink="http://www.w3.org/1999/xlink" fill="none" version="1.1" width="32" height="32" viewBox="0 0 32 32"><defs><clipPath id="master_svg0_134_13116"><rect x="0" y="0" width="32" height="32" rx="0"/></clipPath></defs><g clip-path="url(#master_svg0_134_13116)"><g><path d="M28,2L4,2C2.895431,2,2,2.895431,2,4L2,28C2,29.1046,2.895431,30,4,30L28,30C29.1046,30,30,29.1046,30,28L30,4C30,2.895431,29.1046,2,28,2ZM21.5859,13.4141L17,8.8281L17,26L15,26L15,8.8281L10.4141,13.4141L9,12L16,5L23,12L21.5859,13.4141Z" fill="#000000" fill-opacity="1"/></g><g></g><g></g></g></svg>