<svg xmlns="http://www.w3.org/2000/svg" xmlns:xlink="http://www.w3.org/1999/xlink" fill="none" version="1.1" width="32" height="32" viewBox="0 0 32 32"><defs><clipPath id="master_svg0_134_13081"><rect x="0" y="0" width="32" height="32" rx="0"/></clipPath></defs><g clip-path="url(#master_svg0_134_13081)"><g><ellipse cx="11" cy="11" rx="3" ry="3" fill="#000000" fill-opacity="1"/></g><g><path d="M28,2L4,2C2.895431,2,2,2.895431,2,4L2,28C2,29.1046,2.895431,30,4,30L28,30C29.1046,30,30,29.1046,30,28L30,4C30,2.895431,29.1046,2,28,2ZM20,18L18.5859,16.585900000000002L23.1719,12L15.8989,12C15.4945,13.9617,13.9617,15.4945,12,15.8989L12,26L10,26L10,15.8989C7.54773,15.3984,5.84331,13.1618,6.01116,10.66459C6.179,8.167390000000001,8.1674,6.179,10.66459,6.01116C13.1618,5.84331,15.3984,7.54773,15.8989,10L23.1719,10L18.5859,5.4140999999999995L20,4L27,11L20,18Z" fill="#000000" fill-opacity="1"/></g><g></g><g></g></g></svg>