<svg xmlns="http://www.w3.org/2000/svg" xmlns:xlink="http://www.w3.org/1999/xlink" fill="none" version="1.1" width="32" height="32" viewBox="0 0 32 32"><defs><clipPath id="master_svg0_134_13185"><rect x="0" y="0" width="32" height="32" rx="0"/></clipPath></defs><g clip-path="url(#master_svg0_134_13185)"><g><path d="M30,21L26,21L26,20C25.9987,18.895955999999998,25.104,18.00126839,24,18L8,18C6.89596,18.00126839,6.00127,18.895955999999998,6,20L6,21L2,21L2,23L6,23L6,24C6.00127,25.10404,6.89596,25.998730000000002,8,26L24,26C25.104,25.998730000000002,25.9987,25.10404,26,24L26,23L30,23L30,21ZM24,24L8,24L8,20L24,19.999L24,24Z" fill="#000000" fill-opacity="1"/></g><g><path d="M30,9L22,9L22,8C21.9987,6.895956,21.104,6.00126839,20,6L12,6C10.89596,6.00126696,10.00127,6.895956,10,8L10,9L2,9L2,11L10,11L10,12C10.00127,13.104040000000001,10.89596,13.99873,12,14L20,14C21.104,13.99873,21.9987,13.104040000000001,22,12L22,11L30,11L30,9ZM20,12L12,12L12,8L20,7.9990000000000006L20,12Z" fill="#000000" fill-opacity="1"/></g><g></g></g></svg>