<svg xmlns="http://www.w3.org/2000/svg" xmlns:xlink="http://www.w3.org/1999/xlink" fill="none" version="1.1" width="32" height="32" viewBox="0 0 32 32"><defs><clipPath id="master_svg0_134_13356"><rect x="0" y="0" width="32" height="32" rx="0"/></clipPath></defs><g clip-path="url(#master_svg0_134_13356)"><g><ellipse cx="8.999899864196777" cy="28.5" rx="1.5" ry="1.5" fill="#000000" fill-opacity="1"/></g><g><path d="M10,25L8,25L8,21L10,21C11.104569999999999,21,12,20.10457,12,19C12,17.89543,11.104569999999999,17,10,17L8,17C6.8959600000000005,17.001269999999998,6.00127,17.89596,6,19L6,19.5L4,19.5L4,19C4.00247955,16.79189,5.79189,15.00247955,8,15L10,15C12.20914,15,14,16.79086,14,19C14,21.209139999999998,12.20914,23,10,23L10,25Z" fill="#000000" fill-opacity="1"/></g><g><path d="M27.7,9.300003339385986L20.7,2.3000003393859862C20.521900000000002,2.102307339385986,20.266,1.9926550393859863,20,2.0000000003859864L10,2.0000000003859864C8.896753,2.003185269385986,8.00318527,2.896752339385986,8,4.000003339385986L8,11.999953339385986L10,11.999953339385986L10,4.000003339385986L18,4.000003339385986L18,10.000003339385986C18.0032,11.103243339385987,18.8968,11.996813339385985,20,11.999953339385986L26,11.999953339385986L26,27.999953339385986L14,27.999953339385986L14,29.999953339385986L26,29.999953339385986C27.1032,29.996853339385986,27.9968,29.103253339385986,28,27.999953339385986L28,10.000003339385986C28.0073,9.734013339385985,27.8976,9.478193339385985,27.7,9.300003339385986ZM20,10.000003339385986L20,4.400003339385986L25.6,10.000003339385986L20,10.000003339385986Z" fill="#000000" fill-opacity="1"/></g><g></g></g></svg>