<svg xmlns="http://www.w3.org/2000/svg" xmlns:xlink="http://www.w3.org/1999/xlink" fill="none" version="1.1" width="32" height="32" viewBox="0 0 32 32"><defs><clipPath id="master_svg0_134_13235"><rect x="0" y="0" width="32" height="32" rx="0"/></clipPath></defs><g clip-path="url(#master_svg0_134_13235)"><g><path d="M29,31.00001553039551C28.77297,31.00001553039551,28.5527,30.922715530395507,28.375500000000002,30.780815530395508L23.6494,27.00001553039551L20,27.00001553039551C19.447716,27.00001553039551,19,26.552315530395507,19,25.99999553039551L19,20.99999553039551C19,20.447715530395506,19.447716,19.99999553039551,20,19.99999553039551L23.6494,19.99999553039551L28.375500000000002,16.219200530395508C28.67566,15.979192730395507,29.0868,15.932439830395507,29.4332,16.09892653039551C29.7797,16.265552530395507,30,16.615817530395507,30,16.999999530395506L30,30.00001553039551C30,30.552315530395507,29.552300000000002,31.00001553039551,29,31.00001553039551ZM21,24.99999553039551L24,24.99999553039551C24.22701,25.00006553039551,24.44725,25.077365530395507,24.6245,25.21919553039551L28,27.919415530395508L28,19.08060553039551L24.6245,21.78060553039551C24.44728,21.922505530395508,24.22704,21.999875530395506,24,21.99999553039551L21,21.99999553039551L21,24.99999553039551Z" fill="#000000" fill-opacity="1"/></g><g><path d="M16,27.999955723571777L8,27.999955723571777L8,3.9999957235717774L16,3.9999957235717774L16,9.999995723571777C16.0032,11.103245723571778,16.8968,11.996815723571777,18,11.999955723571777L24,11.999955723571777L24,14.999955723571777L26,14.999955723571777L26,9.999995723571777C26.0073,9.734005723571777,25.8976,9.478195723571776,25.7,9.299995723571778L18.7,2.2999997235717773C18.5218,2.102328723571777,18.266,1.9926815035717773,18,1.9999999995717774L8,1.9999999995717774C6.896753,2.0031855135717773,6.00318575,2.8967527235717774,6,3.9999957235717774L6,27.999955723571777C6.00318575,29.103255723571777,6.896753,29.996855723571777,8,29.999955723571777L16,29.999955723571777L16,27.999955723571777ZM18,4.399995723571777L23.6,9.999995723571777L18,9.999995723571777L18,4.399995723571777Z" fill="#000000" fill-opacity="1"/></g><g></g></g></svg>