<svg xmlns="http://www.w3.org/2000/svg" xmlns:xlink="http://www.w3.org/1999/xlink" fill="none" version="1.1" width="32" height="32" viewBox="0 0 32 32"><defs><clipPath id="master_svg0_134_13350"><rect x="0" y="0" width="32" height="32" rx="0"/></clipPath></defs><g clip-path="url(#master_svg0_134_13350)"><g><path d="M22,27.18000015258789L19.41,24.59000015258789L18,26.00000015258789L22,30.00000015258789L30,22.00000015258789L28.59,20.59000015258789L22,27.18000015258789Z" fill="#000000" fill-opacity="1"/></g><g><path d="M15,27.999955723571777L8,27.999955723571777L8,3.9999957235717774L16,3.9999957235717774L16,9.999995723571777C16.0032,11.103245723571778,16.8968,11.996815723571777,18,11.999955723571777L24,11.999955723571777L24,17.999955723571777L26,17.999955723571777L26,9.999995723571777C26.0073,9.734005723571777,25.8976,9.478195723571776,25.7,9.299995723571778L18.7,2.2999997235717773C18.5218,2.102328723571777,18.266,1.9926815035717773,18,1.9999999995717774L8,1.9999999995717774C6.896753,2.0031855135717773,6.00318575,2.8967527235717774,6,3.9999957235717774L6,27.999955723571777C6.00318575,29.103255723571777,6.896753,29.996855723571777,8,29.999955723571777L15,29.999955723571777L15,27.999955723571777ZM18,4.399995723571777L23.6,9.999995723571777L18,9.999995723571777L18,4.399995723571777Z" fill="#000000" fill-opacity="1"/></g><g></g></g></svg>