<svg xmlns="http://www.w3.org/2000/svg" xmlns:xlink="http://www.w3.org/1999/xlink" fill="none" version="1.1" width="32" height="32" viewBox="0 0 32 32"><defs><clipPath id="master_svg0_134_13276"><rect x="0" y="0" width="32" height="32" rx="0"/></clipPath></defs><g clip-path="url(#master_svg0_134_13276)"><g><rect x="2" y="6" width="2" height="20" rx="0" fill="#000000" fill-opacity="1"/></g><g><rect x="6" y="4" width="2" height="24" rx="0" fill="#000000" fill-opacity="1"/></g><g><rect x="14" y="22" width="12" height="2" rx="0" fill="#000000" fill-opacity="1"/></g><g><rect x="14" y="16" width="12" height="2" rx="0" fill="#000000" fill-opacity="1"/></g><g><path d="M29.7,9.3L22.7,2.3C22.5,2.0999999,22.3,2,22,2L12,2C10.9,2,10,2.9,10,4L10,28C10,29.1,10.9,30,12,30L28,30C29.1,30,30,29.1,30,28L30,10C30,9.7,29.9,9.5,29.7,9.3ZM22,4.4L27.6,10L22,10L22,4.4ZM28,28L12,28L12,4L20,4L20,10C20,11.1,20.9,12,22,12L28,12L28,28Z" fill="#000000" fill-opacity="1"/></g><g></g></g></svg>