<svg xmlns="http://www.w3.org/2000/svg" xmlns:xlink="http://www.w3.org/1999/xlink" fill="none" version="1.1" width="32" height="32" viewBox="0 0 32 32"><defs><clipPath id="master_svg0_134_13478"><rect x="0" y="0" width="32" height="32" rx="0"/></clipPath></defs><g clip-path="url(#master_svg0_134_13478)"><g><path d="M10,6L11.414,4.586L15,8.172L15,0L17,0L17,8.172L20.586,4.586L22,6L16,12L10,6Z" fill="#000000" fill-opacity="1"/></g><g><path d="M22.00002820892334,15.999999423217773C22.002028208923342,14.408279423217774,21.369628208923338,12.881389423217774,20.24272820892334,11.757299423217773L15.99999820892334,15.999999423217773L11.75729820892334,11.757299423217773C8.73371820892334,14.780959423217773,9.75333920892334,19.906769423217774,13.70388820892334,21.543149423217773C17.65451820892334,23.179499423217774,22.00002820892334,20.275989423217773,22.00002820892334,15.999999423217773Z" fill="#000000" fill-opacity="1"/></g><g><path d="M29.999991275024414,15.999999542236328C30.002191275024416,12.286959542236328,28.524991275024416,8.726049542236328,25.894991275024413,6.104999542236328L24.481391275024414,7.518799542236328C29.170891275024413,12.203959542236328,29.173191275024415,19.80389954223633,24.486591275024413,24.49189954223633C19.799991275024414,29.179999542236327,12.199991275024415,29.179999542236327,7.513431275024414,24.49189954223633C2.826840275024414,19.80389954223633,2.829156275024414,12.203959542236328,7.518601275024414,7.518799542236328L6.1050012750244145,6.105000019073328C-0.9493487249755859,13.159259542236327,1.429992275024414,25.11819954223633,10.647241275024413,28.93509954223633C19.862591275024414,32.75329954223633,29.999991275024414,25.977599542236327,29.999991275024414,15.999999542236328Z" fill="#000000" fill-opacity="1"/></g><g></g></g></svg>