<svg xmlns="http://www.w3.org/2000/svg" xmlns:xlink="http://www.w3.org/1999/xlink" fill="none" version="1.1" width="32" height="32" viewBox="0 0 32 32"><defs><clipPath id="master_svg0_134_13510"><rect x="0" y="0" width="32" height="32" rx="0"/></clipPath></defs><g clip-path="url(#master_svg0_134_13510)"><g><path d="M7,12C4.23858,12,2,9.761420000000001,2,7C2,4.23858,4.23858,2,7,2C9.761420000000001,2,12,4.23858,12,7L10,7C10,5.34315,8.65685,4,7,4C5.34315,4,4,5.34315,4,7C4,8.65685,5.34315,10,7,10L7,12Z" fill="#000000" fill-opacity="1"/></g><g><path d="M25,12L25,10C26.65685,10,28,8.65685,28,7C28,5.34315,26.65685,4,25,4C23.34315,4,22,5.34315,22,7L20,7C20,4.23858,22.23858,2,25,2C27.76142,2,30,4.23858,30,7C30,9.761420000000001,27.76142,12,25,12Z" fill="#000000" fill-opacity="1"/></g><g><path d="M7,30C4.23858,30,2,27.76142,2,25C2,22.23858,4.23858,20,7,20L7,22C5.34315,22,4,23.34315,4,25C4,26.65685,5.34315,28,7,28C8.65685,28,10,26.65685,10,25L12,25C11.99697,27.76017,9.760169999999999,29.996969999999997,7,30Z" fill="#000000" fill-opacity="1"/></g><g><path d="M25,30C22.23983,29.996969999999997,20.00303078,27.76017,20,25L22,25C22,26.65685,23.34315,28,25,28C26.65685,28,28,26.65685,28,25C28,23.34315,26.65685,22,25,22L25,20C27.76142,20,30,22.23858,30,25C30,27.76142,27.76142,30,25,30Z" fill="#000000" fill-opacity="1"/></g><g><path d="M19.999964714050293,18.58590475387573L19.999964714050293,13.414094753875732L25.706964714050294,7.707004753875733C26.109164714050294,7.3185947538757326,26.114764714050292,6.675932753875732,25.719364714050293,6.280597753875733C25.324064714050294,5.885263753875733,24.681364714050293,5.890851053875733,24.292964714050292,6.2929997538757325L19.793464714050295,10.792994753875732C19.27666471405029,9.132064753875731,17.739464714050293,8.000474753875732,15.999964714050293,8.000474753875732C14.260524714050293,8.000474753875732,12.723314714050293,9.132064753875731,12.206504714050293,10.792994753875732L7.707004714050293,6.2929997538757325C7.316634714050293,5.902287053875733,6.683362714050293,5.902287053875733,6.292999714050293,6.2929997538757325C5.902286514050293,6.683362753875732,5.902286514050293,7.316634753875732,6.292999714050293,7.707004753875733L12.000004714050293,13.414094753875732L12.000004714050293,18.58590475387573L6.293000714050293,24.29300475387573C5.902287514050293,24.68340475387573,5.902287514050293,25.316604753875733,6.293000714050293,25.707004753875733C6.683362714050293,26.097704753875732,7.316634714050293,26.097704753875732,7.707004714050293,25.707004753875733L12.207004714050292,21.207004753875733C12.723814714050292,22.86790475387573,14.261024714050293,23.999504753875733,16.000464714050295,23.999504753875733C17.739964714050295,23.999504753875733,19.277164714050294,22.86790475387573,19.793964714050293,21.207004753875733L24.293464714050295,25.707004753875733C24.685864714050293,26.08600475387573,25.309564714050293,26.080504753875733,25.695264714050293,25.694804753875733C26.081064714050292,25.309104753875733,26.086464714050294,24.685404753875734,25.707464714050293,24.29300475387573L19.999964714050293,18.58590475387573ZM17.999964714050293,20.000004753875732C17.999964714050293,21.104604753875734,17.10456471405029,22.000004753875732,15.999964714050293,22.000004753875732C14.895434714050293,22.000004753875732,14.000004714050293,21.104604753875734,14.000004714050293,20.000004753875732L14.000004714050293,12.000004753875732C14.000004714050293,10.895434753875733,14.895434714050293,10.000004753875732,15.999964714050293,10.000004753875732C17.10456471405029,10.000004753875732,17.999964714050293,10.895434753875733,17.999964714050293,12.000004753875732L17.999964714050293,20.000004753875732Z" fill="#000000" fill-opacity="1"/></g><g></g></g></svg>