<svg xmlns="http://www.w3.org/2000/svg" xmlns:xlink="http://www.w3.org/1999/xlink" fill="none" version="1.1" width="32" height="32" viewBox="0 0 32 32"><defs><clipPath id="master_svg0_134_13594"><rect x="0" y="0" width="32" height="32" rx="0"/></clipPath></defs><g clip-path="url(#master_svg0_134_13594)"><g><path d="M30,15L30,11C30,9.895431,29.10457,9,28,9L22,9L22,23L24,23L24,17L25.48,17L27.82,23L30,23L27.67,17L28,17C29.10457,17,30,16.10457,30,15ZM24,11L28,11L28,15L24,15L24,11Z" fill="#000000" fill-opacity="1"/></g><g><path d="M18,9L16,22L14,9L12,9L14.52,23L17.48,23L20,9L18,9Z" fill="#000000" fill-opacity="1"/></g><g><path d="M6,23L2,23L2,9L6,9C8.20914,9,10,10.79086,10,13L10,19C10,21.2091,8.20914,23,6,23ZM4,21L6,21C7.10457,21,8,20.104599999999998,8,19L8,13C8,11.895430000000001,7.10457,11,6,11L4,11L4,21Z" fill="#000000" fill-opacity="1"/></g><g></g></g></svg>