<svg xmlns="http://www.w3.org/2000/svg" xmlns:xlink="http://www.w3.org/1999/xlink" fill="none" version="1.1" width="32" height="32" viewBox="0 0 32 32"><defs><clipPath id="master_svg0_134_13638"><rect x="0" y="0" width="32" height="32" rx="0"/></clipPath></defs><g clip-path="url(#master_svg0_134_13638)"><g><rect x="14" y="24" width="3" height="2" rx="0" fill="#000000" fill-opacity="1"/></g><g><rect x="17" y="22" width="2" height="2" rx="0" fill="#000000" fill-opacity="1"/></g><g><rect x="17" y="18" width="2" height="2" rx="0" fill="#000000" fill-opacity="1"/></g><g><path d="M16,2C8.26801,2,2,8.26801,2,16C2,23.732,8.26801,30,16,30C23.732,30,30,23.732,30,16C29.9913,8.27162,23.7284,2.00870943,16,2ZM15.397,4.029999999999999L17.9043,9.0456L16.3228,13L10.271,13L8.861,17.3872L11.7131,20.2393L10.7056,21.751L6.2856,19L4.395,19C2.453667,11.64411,7.79701,4.37362,15.397,4.029999999999999ZM5.1055,21L5.7143999999999995,21L9.648900000000001,23.4487C10.5652,24.0245,11.77366,23.7631,12.37,22.86L13.3778,21.3482C13.9045,20.5545,13.8,19.4998,13.1278,18.8248L11.1391,16.836L11.729,15L16.3228,15C17.1415,15.0027,17.8784,14.5038,18.18,13.7427L19.7612,9.79C19.9736,9.259350000000001,19.9491,8.6632,19.6938,8.1518L17.6843,4.1323C25.6393,5.23598,30.267,13.7112,26.8945,21L23,21C21.896,21.0013,21.0013,21.896,21,23L21,26.8945C14.984,29.6796,7.8508,27.0342,5.1055,21ZM23,25.7266L23,23L25.7268,23C24.9698,24.0491,24.0491,24.9697,23,25.7266Z" fill="#000000" fill-opacity="1"/></g><g></g></g></svg>