<svg xmlns="http://www.w3.org/2000/svg" xmlns:xlink="http://www.w3.org/1999/xlink" fill="none" version="1.1" width="32" height="32" viewBox="0 0 32 32"><defs><clipPath id="master_svg0_134_13612"><rect x="0" y="0" width="32" height="32" rx="0"/></clipPath></defs><g clip-path="url(#master_svg0_134_13612)"><g><path d="M16,2C8.26801,2,2,8.26801,2,16C2,23.732,8.26801,30,16,30C23.732,30,30,23.732,30,16C29.9913,8.27162,23.7284,2.00870943,16,2ZM4,16C4.00273,14.6364,4.2395,13.2835,4.7,12L10,12L15,16L12.2,19.6929C11.90144,20.091,11.94108,20.6481,12.293,21L15,24L15,27.9492C8.78769,27.4249,4.00948,22.2344,4,16ZM21.4348,26.6846L23.9805,18.9854C24.0548,18.614,23.9129,18.2326,23.614,18L15,11L17,9L22.2793,9C22.7097,9.000029999999999,23.0918,8.72468,23.228,8.3164L23.7234,6.83C30.3042,12.3529,29.0996,22.8041,21.4348,26.6846L21.4348,26.6846Z" fill="#000000" fill-opacity="1"/></g><g></g></g></svg>