<svg xmlns="http://www.w3.org/2000/svg" xmlns:xlink="http://www.w3.org/1999/xlink" fill="none" version="1.1" width="32" height="32" viewBox="0 0 32 32"><defs><clipPath id="master_svg0_134_13617"><rect x="0" y="0" width="32" height="32" rx="0"/></clipPath></defs><g clip-path="url(#master_svg0_134_13617)"><g><path d="M16,2C8.26801,2,2,8.26801,2,16C2,23.732,8.26801,30,16,30C23.732,30,30,23.732,30,16C29.9913,8.27162,23.7284,2.00870943,16,2ZM4,16C4.00213,12.593,5.45718,9.34863,8,7.0811L8,9C8,10.10457,8.895430000000001,11,10,11L13.3818,11C14.1396,11.00009,14.8324,10.57188,15.1711,9.894L15.6182,9L18,9L18,13L13.2354,13C12.9252,13.0001,12.6193,13.0723,12.3418,13.2109L9.1055,14.8291C8.427959999999999,15.168,8,15.8604,8,16.6177L8,20.3232C8.00008,21.141,8.498000000000001,21.8763,9.2573,22.18L13.106,23.72L13.7839,27.7864C8.11595,26.7159,4.00883,21.7682,4,16ZM15.8457,27.9922L14.894,22.28L10,20.3232L10,16.6182L13.2358,15L20,15L20,7L14.3818,7L13.3818,9L10,9L10,5.6235C16.4896,1.8455110000000001,24.8147,4.91399,27.3,12L22,12L22,16L22.9224,19.8135L21,22.6973L21,26.8945C19.4332,27.6212,17.7271,27.9984,16,28C15.948,28,15.8977,27.9927,15.8457,27.9922ZM23,25.7266L23,23.3027L24.5859,20.9238C24.8987,20.4546,24.9993,19.8753,24.8628,19.3281L24,15.877L24,14L27.8193,14C28.6171,18.5121,26.74,23.0794,23,25.7266Z" fill="#000000" fill-opacity="1"/></g><g></g></g></svg>