<svg xmlns="http://www.w3.org/2000/svg" xmlns:xlink="http://www.w3.org/1999/xlink" fill="none" version="1.1" width="32" height="32" viewBox="0 0 32 32"><defs><clipPath id="master_svg0_134_13694"><rect x="0" y="0" width="32" height="32" rx="0"/></clipPath></defs><g clip-path="url(#master_svg0_134_13694)"><g><rect x="7" y="11" width="2" height="10" rx="0" fill="#000000" fill-opacity="1"/></g><g><rect x="11" y="11" width="2" height="10" rx="0" fill="#000000" fill-opacity="1"/></g><g><rect x="15" y="11" width="2" height="10" rx="0" fill="#000000" fill-opacity="1"/></g><g><rect x="19" y="11" width="2" height="10" rx="0" fill="#000000" fill-opacity="1"/></g><g><rect x="23" y="11" width="2" height="10" rx="0" fill="#000000" fill-opacity="1"/></g><g><path d="M28,26L4,26C2.895956,25.9987,2.00126648,25.104,2,24L2,8C2.00126719,6.895956,2.895956,6.00126743,4,6L28,6C29.104,6.00126839,29.9987,6.895956,30,8L30,24C29.9987,25.104,29.104,25.9987,28,26ZM4,8L4,24L28,24L28,8L4,8Z" fill="#000000" fill-opacity="1"/></g><g></g></g></svg>