<svg xmlns="http://www.w3.org/2000/svg" xmlns:xlink="http://www.w3.org/1999/xlink" fill="none" version="1.1" width="32" height="32" viewBox="0 0 32 32"><defs><clipPath id="master_svg0_134_13721"><rect x="0" y="0" width="32" height="32" rx="0"/></clipPath></defs><g clip-path="url(#master_svg0_134_13721)"><g><path d="M26,30L24,30L24,27C23.9967,24.239919999999998,21.7601,22.00325,19,22L13,22C10.23992,22.00325,8.00325,24.239919999999998,8,27L8,30L6,30L6,27C6.00451851,23.13588,9.13588,20.00451851,13,20L19,20C22.8641,20.00451851,25.9955,23.13588,26,27L26,30Z" fill="#000000" fill-opacity="1"/></g><g><path d="M5,6C4.447715,6,4,6.447715,4,7L4,16L6,16L6,7C6,6.447715,5.55228,6,5,6Z" fill="#000000" fill-opacity="1"/></g><g><path d="M4,2L4,4L9,4L9,11C9,14.866,12.13401,18,16,18C19.866,18,23,14.866,23,11L23,4L28,4L28,2L4,2ZM11,4L21,4L21,7L11,7L11,4ZM16,16C13.23858,16,11,13.7614,11,11L11,9L21,9L21,11C21,13.7614,18.761400000000002,16,16,16Z" fill="#000000" fill-opacity="1"/></g><g></g></g></svg>