<svg xmlns="http://www.w3.org/2000/svg" xmlns:xlink="http://www.w3.org/1999/xlink" fill="none" version="1.1" width="32" height="32" viewBox="0 0 32 32"><defs><clipPath id="master_svg0_134_13778"><rect x="0" y="0" width="32" height="32" rx="0"/></clipPath></defs><g clip-path="url(#master_svg0_134_13778)"><g><rect x="2" y="28" width="8" height="2" rx="0" fill="#000000" fill-opacity="1"/></g><g><rect x="2" y="24" width="8" height="2" rx="0" fill="#000000" fill-opacity="1"/></g><g><rect x="12" y="28" width="8" height="2" rx="0" fill="#000000" fill-opacity="1"/></g><g><rect x="12" y="24" width="8" height="2" rx="0" fill="#000000" fill-opacity="1"/></g><g><rect x="2" y="20" width="8" height="2" rx="0" fill="#000000" fill-opacity="1"/></g><g><rect x="12" y="20" width="8" height="2" rx="0" fill="#000000" fill-opacity="1"/></g><g><rect x="2" y="16" width="8" height="2" rx="0" fill="#000000" fill-opacity="1"/></g><g><rect x="12" y="16" width="8" height="2" rx="0" fill="#000000" fill-opacity="1"/></g><g><rect x="12" y="12" width="8" height="2" rx="0" fill="#000000" fill-opacity="1"/></g><g><rect x="12" y="8" width="8" height="2" rx="0" fill="#000000" fill-opacity="1"/></g><g><rect x="12" y="4" width="8" height="2" rx="0" fill="#000000" fill-opacity="1"/></g><g><rect x="22" y="28" width="8" height="2" rx="0" fill="#000000" fill-opacity="1"/></g><g><rect x="22" y="24" width="8" height="2" rx="0" fill="#000000" fill-opacity="1"/></g><g></g></g></svg>