<svg xmlns="http://www.w3.org/2000/svg" xmlns:xlink="http://www.w3.org/1999/xlink" fill="none" version="1.1" width="32" height="32" viewBox="0 0 32 32"><defs><clipPath id="master_svg0_134_13795"><rect x="0" y="0" width="32" height="32" rx="0"/></clipPath></defs><g clip-path="url(#master_svg0_134_13795)"><g><rect x="7" y="27" width="23" height="2" rx="0" fill="#000000" fill-opacity="1"/></g><g><path d="M27.380027715301512,10.509996551818848L19.450027715301513,2.5899995518188477C18.668727715301515,1.8079025518188476,17.401227715301516,1.8079025518188476,16.620027715301514,2.5899995518188477L2.6200007153015137,16.59002655181885C1.8379037153015136,17.37122655181885,1.8379037153015136,18.63872655181885,2.6200007153015137,19.420026551818847L7.1299977153015135,24.00002655181885L16.720027715301512,24.00002655181885L27.380027715301512,13.340026551818848C28.162127715301512,12.558726551818848,28.162127715301512,11.291226551818848,27.380027715301512,10.509996551818848ZM15.890027715301514,22.00002655181885L7.999997715301514,22.00002655181885L3.9999977153015136,18.00002655181885L10.309997715301513,11.689996551818847L18.240027715301515,19.610026551818848L15.890027715301514,22.00002655181885ZM19.650027715301512,18.240026551818847L11.729997715301513,10.309996551818848L18.000027715301513,3.999996551818848L26.000027715301513,11.929996551818848L19.650027715301512,18.240026551818847Z" fill="#000000" fill-opacity="1"/></g><g></g></g></svg>