<svg xmlns="http://www.w3.org/2000/svg" xmlns:xlink="http://www.w3.org/1999/xlink" fill="none" version="1.1" width="32" height="32" viewBox="0 0 32 32"><defs><clipPath id="master_svg0_134_14015"><rect x="0" y="0" width="32" height="32" rx="0"/></clipPath></defs><g clip-path="url(#master_svg0_134_14015)"><g><path d="M16,2C8.26801,2,2,8.26801,2,16C2,23.732,8.26801,30,16,30C23.732,30,30,23.732,30,16C30,8.26801,23.732,2,16,2ZM9,13.5C9,12.1193,10.11929,11,11.5,11C12.8807,11,14,12.1193,14,13.5C14,14.8807,12.8807,16,11.5,16C10.11929,16,9,14.8807,9,13.5ZM22,22L10,22L10,20L22,20L22,22ZM20.5,16C19.1193,16,18,14.8807,18,13.5C18,12.1193,19.1193,11,20.5,11C21.8807,11,23,12.1193,23,13.5C23,14.8807,21.8807,16,20.5,16Z" fill="#000000" fill-opacity="1"/></g><g></g></g></svg>