<svg xmlns="http://www.w3.org/2000/svg" xmlns:xlink="http://www.w3.org/1999/xlink" fill="none" version="1.1" width="32" height="32" viewBox="0 0 32 32"><defs><clipPath id="master_svg0_134_14123"><rect x="0" y="0" width="32" height="32" rx="0"/></clipPath></defs><g clip-path="url(#master_svg0_134_14123)"><g><path d="M22.5,9C19.807380000000002,8.996893,17.322499999999998,10.44654,16,12.792L16,8L14,8L14,16L22,16L22,14L17.6167,14C18.84893,11.59576,21.64624,10.44417,24.214,11.28403C26.7818,12.12389,28.3579,14.70593,27.9312,17.37364C27.5045,20.0414,25.2016,22.003,22.5,22L22,22L22,24L22.5,24C26.6421,24,30,20.6421,30,16.5C30,12.35787,26.6421,9,22.5,9Z" fill="#000000" fill-opacity="1"/></g><g><path d="M26,6L4,6L4,9.171L11.4142,16.5853L12,17.171L12,26L16,26L16,24L18,24L18,26C18,27.1046,17.104599999999998,28,16,28L12,28C10.89543,28,10,27.1046,10,26L10,18L2.5858,10.5853C2.210721,10.21026,2,9.701509999999999,2,9.171L2,6C2,4.895431,2.895431,4,4,4L26,4L26,6Z" fill="#000000" fill-opacity="1"/></g><g></g></g></svg>