<svg xmlns="http://www.w3.org/2000/svg" xmlns:xlink="http://www.w3.org/1999/xlink" fill="none" version="1.1" width="32" height="32" viewBox="0 0 32 32"><defs><clipPath id="master_svg0_134_14106"><rect x="0" y="0" width="32" height="32" rx="0"/></clipPath></defs><g clip-path="url(#master_svg0_134_14106)"><g><path d="M18,28L14,28C12.89543,28,12,27.1046,12,26L12,18.41L4.59,11C4.214412,10.62665,4.00223255,10.11958,4,9.59L4,6C4,4.895431,4.895431,4,6,4L26,4C27.1046,4,28,4.895431,28,6L28,9.59C27.9978,10.11958,27.7856,10.62665,27.41,11L20,18.41L20,26C20,27.1046,19.104599999999998,28,18,28ZM6,6L6,9.59L14,17.59L14,26L18,26L18,17.59L26,9.59L26,6L6,6Z" fill="#000000" fill-opacity="1"/></g><g></g></g></svg>