<svg xmlns="http://www.w3.org/2000/svg" xmlns:xlink="http://www.w3.org/1999/xlink" fill="none" version="1.1" width="32" height="32" viewBox="0 0 32 32"><defs><clipPath id="master_svg0_134_14135"><rect x="0" y="0" width="32" height="32" rx="0"/></clipPath></defs><g clip-path="url(#master_svg0_134_14135)"><g><path d="M6.999999644073486,5.210000475769043C6.6722026440734865,5.205820475769043,6.382992644073486,4.994560475769043,6.2793254440734865,4.683560475769043C6.175658744073487,4.372560475769043,6.2802686440734865,4.030020475769042,6.539999644073486,3.830000475769043C9.299205644073487,1.877944475769043,12.622095644073486,0.8838874757690429,15.999995644073486,0.999999995769043C18.659965644073488,0.999999995769043,22.479965644073488,1.450000475769043,25.499965644073487,3.620000475769043C25.843765644073486,3.866640475769043,25.924165644073486,4.344450475769043,25.679965644073487,4.690000475769043C25.426565644073488,5.031700475769043,24.946165644073485,5.107330475769043,24.599965644073485,4.860000475769043C22.035465644073486,3.230200475769043,19.036465644073488,2.4176804757690427,15.999995644073486,2.530000475769043C12.968485644073485,2.427010475769043,9.985525644073487,3.311370475769043,7.499995644073486,5.050000475769043C7.358485644073486,5.162650475769043,7.180619644073486,5.219560475769043,6.999999644073486,5.210000475769043Z" fill="#000000" fill-opacity="1"/></g><g><path d="M28.229982469940186,12.260001990966796C27.979182469940184,12.257711990966797,27.744682469940187,12.134911990966797,27.599982469940187,11.930001990966797C25.869982469940187,9.490001990966796,22.779982469940187,6.240001990966797,15.999982469940186,6.240001990966797C11.424682469940185,6.124781990966797,7.081922469940186,8.253221990966797,4.370002469940186,11.940001990966797C4.120262469940186,12.280441990966796,3.6429524699401856,12.356281990966796,3.2999994699401856,12.110001990966797C2.9343042699401853,11.855491990966797,2.8649724699401857,11.342441990966798,3.1500004699401853,11.000001990966798C6.156102469940185,6.939041990966797,10.948822469940186,4.593029990966797,15.999982469940186,4.710000040966797C21.609982469940185,4.710000040966797,25.809982469940184,6.790001990966797,28.839982469940185,11.050001990966797C29.082082469940186,11.398141990966796,28.997182469940185,11.876491990966798,28.649982469940184,12.120001990966797C28.526182469940185,12.205741990966796,28.380482469940187,12.254321990966798,28.229982469940186,12.260001990966796Z" fill="#000000" fill-opacity="1"/></g><g><path d="M12.279995554962158,31.00004503326416C11.962665554962157,30.99834503326416,11.677975554962158,30.80454503326416,11.559995554962157,30.51004503326416C11.391135554962158,30.11214503326416,11.592595554962159,29.65424503326416,11.999995554962158,29.51004503326416C16.37000555496216,27.83004503326416,19.000005554962158,24.390045033264162,19.000005554962158,20.300045033264162C19.12700555496216,18.59334503326416,17.706705554962156,17.17304503326416,16.000005554962158,17.29999503326416C14.139995554962159,17.29999503326416,13.239995554962158,18.29999503326416,12.999995554962158,20.65004503326416C12.768065554962158,22.934245033264162,10.771335554962159,24.62614503326416,8.479995554962159,24.48004503326416C5.971085554962158,24.51644503326416,3.971692554962158,22.39214503326416,4.159999354962158,19.89004503326416C4.275029554962158,13.453975033264161,9.563355554962158,8.31750963326416,16.000005554962158,8.39000034326416C22.60020555496216,8.38988685626416,27.96150555496216,13.71993503326416,28.000005554962158,20.320045033264158C27.92940555496216,22.55234503326416,27.45860555496216,24.75394503326416,26.610005554962157,26.82004503326416C26.440705554962157,27.20284503326416,25.99930555496216,27.38384503326416,25.610005554962157,27.23004503326416C25.21880555496216,27.06884503326416,25.03450555496216,26.61934503326416,25.200005554962157,26.23004503326416C25.967905554962158,24.350145033264162,26.397805554962158,22.34944503326416,26.470005554962157,20.320045033264158C26.442405554962157,14.56034503326416,21.759705554962157,9.90890503326416,16.000005554962158,9.920005033264161C10.369645554962158,9.80850503326416,5.718475554962158,14.28940503326416,5.619995554962158,19.92004503326416C5.446205554962158,21.56964503326416,6.751385554962159,23.00114503326416,8.409995554962158,22.98004503326416C9.925425554962159,23.13064503326416,11.272965554962159,22.016745033264158,11.409995554962158,20.500045033264158C11.769995554962158,17.38999503326416,13.299995554962159,15.80999503326416,15.970005554962158,15.80999503326416C18.53410555496216,15.68039503326416,20.642205554962157,17.80714503326416,20.49000555496216,20.370045033264162C20.49000555496216,25.11004503326416,17.49000555496216,29.09004503326416,12.489995554962158,31.00004503326416C12.420225554962158,31.00804503326416,12.349765554962158,31.00804503326416,12.279995554962158,31.00004503326416Z" fill="#000000" fill-opacity="1"/></g><g><path d="M19.770004709625244,30.279963844299317C19.578504709625243,30.276963844299317,19.394204709625242,30.206063844299315,19.250004709625244,30.079963844299318C18.949704709625244,29.782663844299318,18.949704709625244,29.297363844299316,19.250004709625244,28.999963844299316C21.499804709625245,26.667963844299315,22.767204709625243,23.560363844299317,22.790004709625244,20.320003844299315C22.790004709625244,18.760003844299316,22.310004709625247,13.670003844299316,16.090004709625244,13.670003844299316C14.259184709625245,13.605603844299317,12.479244709625245,14.279383844299316,11.149994709625243,15.540003844299317C9.960414709625244,16.716983844299317,9.299934709625244,18.326683844299318,9.319994709625245,20.000003844299314C9.314564709625245,20.421313844299316,8.971424709625245,20.760003844299316,8.549999709625244,20.760003844299316C8.126399709625245,20.765613844299317,7.779999732625244,20.423703844299318,7.7800002096252445,20.000003844299314C7.748520409625244,17.930603844299316,8.548197709625244,15.935013844299316,10.000004709625244,14.460003844299317C11.609274709625243,12.915414844299317,13.770224709625243,12.079847344299317,16.000004709625244,12.140000344299317C22.080004709625243,12.140000344299317,24.240004709625243,16.540003844299317,24.240004709625243,20.320003844299315C24.226904709625245,23.926863844299316,22.831104709625244,27.391463844299317,20.340004709625244,29.999963844299316C20.200804709625245,30.173163844299317,19.992104709625245,30.275663844299316,19.770004709625244,30.279963844299317Z" fill="#000000" fill-opacity="1"/></g><g><path d="M8.660003672180176,27.74000363342285C8.138733672180177,27.738773633422852,7.617943672180176,27.708733633422852,7.099999672180176,27.650003633422852C6.680263672180176,27.603053633422853,6.378056072180176,27.22473363342285,6.425000192180176,26.80500363342285C6.4719447721801755,26.385263633422852,6.8502636721801755,26.08305363342285,7.269999672180176,26.130003633422852C9.760003672180176,26.410003633422853,11.720003672180177,25.970003633422852,13.110003672180175,24.810003633422852C14.404713672180176,23.65217363342285,15.170483672180175,22.015883633422852,15.230003672180176,20.279998633422853C15.250893672180176,19.85281963342285,15.624223672180175,19.529571533422853,16.050003672180175,19.56999969342285C16.468993672180176,19.601964933422853,16.787393672180176,19.960130633422853,16.769993672180178,20.37999963342285C16.684893672180173,22.541513633422852,15.715973672180176,24.57326363342285,14.090003672180176,26.00000363342285C12.546423672180175,27.210893633422852,10.619873672180177,27.82824363342285,8.660003672180176,27.74000363342285Z" fill="#000000" fill-opacity="1"/></g><g></g></g></svg>