<svg xmlns="http://www.w3.org/2000/svg" xmlns:xlink="http://www.w3.org/1999/xlink" fill="none" version="1.1" width="32" height="32" viewBox="0 0 32 32"><defs><clipPath id="master_svg0_134_14232"><rect x="0" y="0" width="32" height="32" rx="0"/></clipPath></defs><g clip-path="url(#master_svg0_134_14232)"><g><path d="M30,28.59L3.41,2L2,3.41L8.4,9.82L7,15.77C6.84876,16.4089,7.34373,17.017699999999998,8,17L12.83,17L11,28.85C10.93205,29.3019,11.17903,29.7423,11.6,29.92C11.72711,29.9716,11.86282,29.9987,12,30C12.3095,29.9993,12.6012,29.8552,12.79,29.61L19.47,20.88L28.59,30L30,28.59Z" fill="#000000" fill-opacity="1"/></g><g><path d="M22.529999809265135,16.87003879585266L25.789999809265137,12.610038795852661C26.003899809265135,12.32073879585266,26.045899809265137,11.93884879585266,25.899999809265136,11.609998795852661C25.746399809265135,11.247098795852661,25.39399980926514,11.00823879585266,24.999999809265137,10.999998795852662L20.249999809265137,10.999998795852662L21.999999809265137,3.219998795852661C22.067099809265137,2.920988795852661,21.993399809265135,2.6077217958526613,21.799999809265138,2.369999795852661C21.604999809265138,2.129457795852661,21.309599809265137,1.9928203858526612,20.999999809265137,1.9999999998526612L10.999999809265137,1.9999999998526612C10.526338809265138,1.9873369958526612,10.108811809265136,2.3088327958526613,9.999999809265137,2.769999795852661L9.699999809265137,4.069998795852661L22.529999809265135,16.87003879585266Z" fill="#000000" fill-opacity="1"/></g><g></g></g></svg>