<svg xmlns="http://www.w3.org/2000/svg" xmlns:xlink="http://www.w3.org/1999/xlink" fill="none" version="1.1" width="32" height="32" viewBox="0 0 32 32"><defs><clipPath id="master_svg0_134_14244"><rect x="0" y="0" width="32" height="32" rx="0"/></clipPath></defs><g clip-path="url(#master_svg0_134_14244)"><g><path d="M26,6C26,4.895431,25.1046,4,24,4L8,4C6.895431,4,6,4.895431,6,6L6,26C6,27.1046,6.895431,28,8,28L16,28L16,26L8,26L8,6L24,6L24,12L26,12L26,6Z" fill-rule="evenodd" fill="#000000" fill-opacity="1"/></g><g><rect x="10" y="18" width="6" height="2" rx="0" fill="#000000" fill-opacity="1"/></g><g><rect x="10" y="14" width="12" height="2" rx="0" fill="#000000" fill-opacity="1"/></g><g><path d="M22,10L22,12L10,12L10,10L22,10Z" fill-rule="evenodd" fill="#000000" fill-opacity="1"/></g><g><path d="M25,23L30,25L30,23L25,20.5L25,18C25,17.447716,24.55228,17,24,17C23.44772,17,23,17.447716,23,18L23,20.5L18,23L18,25L23,23L23,26.5L21,28L21,29L24,28L27,29L27,28L25,26.5L25,23Z" fill-rule="evenodd" fill="#000000" fill-opacity="1"/></g><g></g></g></svg>