<svg xmlns="http://www.w3.org/2000/svg" xmlns:xlink="http://www.w3.org/1999/xlink" fill="none" version="1.1" width="32" height="32" viewBox="0 0 32 32"><defs><clipPath id="master_svg0_134_14253"><rect x="0" y="0" width="32" height="32" rx="0"/></clipPath></defs><g clip-path="url(#master_svg0_134_14253)"><g><path d="M25,23L30,25L30,23L25,20.5L25,18C25,17.447716,24.55228,17,24,17C23.44772,17,23,17.447716,23,18L23,20.5L18,23L18,25L23,23L23,26.5L21,28L21,29L24,28L27,29L27,28L25,26.5L25,23Z" fill-rule="evenodd" fill="#000000" fill-opacity="1"/></g><g><path d="M26,4L22,4L22,2L20,2L20,4L12,4L12,2L10,2L10,4L6,4C4.895431,4,4,4.89543,4,6L4,26C4,27.1046,4.895431,28,6,28L16,28L16,26L6,26L6,6L10,6L10,8L12,8L12,6L20,6L20,8L22,8L22,6L26,6L26,13L28,13L28,6C28,4.89543,27.1046,4,26,4Z" fill-rule="evenodd" fill="#000000" fill-opacity="1"/></g><g></g></g></svg>