<svg xmlns="http://www.w3.org/2000/svg" xmlns:xlink="http://www.w3.org/1999/xlink" fill="none" version="1.1" width="32" height="32" viewBox="0 0 32 32"><defs><clipPath id="master_svg0_134_14288"><rect x="0" y="0" width="32" height="32" rx="0"/></clipPath></defs><g clip-path="url(#master_svg0_134_14288)"><g><path d="M27.99996519088745,18L21.99996519088745,18C20.895965190887452,18.0013,20.00126519088745,18.896,19.99996519088745,20L19.99996519088745,22L14.41406519088745,22L9.99999519088745,17.585900000000002L9.99999519088745,12L11.999995190887452,12C13.104065190887452,11.99873,13.99876519088745,11.10404,13.999965190887451,10L13.999965190887451,4C13.99876519088745,2.895956,13.104065190887452,2.00126696,11.999995190887452,2L5.999995190887452,2C4.8959551908874515,2.00126719,4.001265190887452,2.895956,3.999995190887451,4L3.999995190887451,10C4.001265190887452,11.10404,4.8959551908874515,11.99873,5.999995190887452,12L7.999995190887451,12L7.999995190887451,17.585900000000002L3.2930001908874513,22.293C2.9022869908874513,22.6834,2.9022869908874513,23.3166,3.2930001908874513,23.707L8.293005190887452,28.707C8.683385190887451,29.0977,9.31661519088745,29.0977,9.70700519088745,28.707L14.41406519088745,24L19.99996519088745,24L19.99996519088745,26C20.00126519088745,27.104,20.895965190887452,27.9987,21.99996519088745,28L27.99996519088745,28C29.10406519088745,27.9987,29.99876519088745,27.104,29.99996519088745,26L29.99996519088745,20C29.99876519088745,18.896,29.10406519088745,18.0013,27.99996519088745,18ZM5.999995190887452,4L11.999995190887452,4L11.999995190887452,10L5.999995190887452,10L5.999995190887452,4ZM8.99999519088745,26.5859L5.414095190887451,23L8.99999519088745,19.4141L12.585905190887452,23L8.99999519088745,26.5859ZM21.99996519088745,26L21.99996519088745,20L27.99996519088745,20L27.99996519088745,26L21.99996519088745,26Z" fill="#000000" fill-opacity="1"/></g><g></g></g></svg>