<svg xmlns="http://www.w3.org/2000/svg" xmlns:xlink="http://www.w3.org/1999/xlink" fill="none" version="1.1" width="32" height="32" viewBox="0 0 32 32"><defs><clipPath id="master_svg0_134_14384"><rect x="0" y="0" width="32" height="32" rx="0"/></clipPath></defs><g clip-path="url(#master_svg0_134_14384)"><g><path d="M28,8L25.4141,8L30,3.4141L28.5859,2L2,28.5859L3.4141,30L5.4140999999999995,28L28,28C29.1046,28,30,27.1046,30,26L30,10C30,8.895430000000001,29.1046,8,28,8ZM28,26L7.4141,26L23.4141,10L28,10L28,26Z" fill="#000000" fill-opacity="1"/></g><g><path d="M4,6L11.1716,6L14.5857,9.414100000000001L15.1716,10L18,10L18,8L16,8L12.5859,4.5859C12.2106,4.210745,11.70186,3.999999761581,11.1716,4L4,4C2.895431,4,2,4.895431,2,6L2,24L4,24L4,6Z" fill="#000000" fill-opacity="1"/></g><g></g></g></svg>