<svg xmlns="http://www.w3.org/2000/svg" xmlns:xlink="http://www.w3.org/1999/xlink" fill="none" version="1.1" width="32" height="32" viewBox="0 0 32 32"><defs><clipPath id="master_svg0_134_14479"><rect x="0" y="0" width="32" height="32" rx="0"/></clipPath></defs><g clip-path="url(#master_svg0_134_14479)"><g><path d="M23,12L23,6L21,6L21,12C21,14.7614,18.76142,17,16,17C13.238579999999999,17,11,14.7614,11,12L11,4L16.5859,4L14.293,6.293C13.90229,6.68336,13.90229,7.31664,14.293,7.707L15.585899999999999,9L13.293,11.293L14.707,12.707L17.707,9.707C18.09771,9.31664,18.09771,8.68336,17.707,8.293L16.4141,7L19.707,3.707C19.9929,3.42101,20.078400000000002,2.990963,19.9237,2.6173450000000003C19.7688,2.243641,19.4043,2,19,2L10,2C9.447715,2,9,2.447715,9,3L9,12C9.0063467,15.4757,11.56024,18.4212,15,18.92L15,28L10,28L10,30L22,30L22,28L17,28L17,18.92C20.439799999999998,18.4212,22.9937,15.4757,23,12Z" fill="#000000" fill-opacity="1"/></g><g></g></g></svg>