<svg xmlns="http://www.w3.org/2000/svg" xmlns:xlink="http://www.w3.org/1999/xlink" fill="none" version="1.1" width="32" height="32" viewBox="0 0 32 32"><defs><clipPath id="master_svg0_134_14491"><rect x="0" y="0" width="32" height="32" rx="0"/></clipPath></defs><g clip-path="url(#master_svg0_134_14491)"><g><path d="M26,15C25.9982,12.81395,24.8081,10.80172,22.8933,9.7471C23.6019,9.007909999999999,23.9983,8.023990000000001,24,7L22,7C21.9987,8.104040000000001,21.104,8.99873,20,9C16.731,9.00455,14.0663,11.623619999999999,14.0054,14.8921C12.7232,13.58623,12.0033,11.83014,12,10C11.9946,8.18108,10.76152,6.59529,9,6.1419L9,4L7,4L7,6.1419C5.23848,6.59529,4.0054,8.18108,4,10L4,15L2,15L2,16C2,23.732,8.26801,30,16,30C23.732,30,30,23.732,30,16L30,15L26,15ZM20,11C22.2081,11.00248,23.9975,12.79189,24,15L16,15C16.002499999999998,12.79189,17.7919,11.00248,20,11ZM6,10C6,8.895430000000001,6.89543,8,8,8C9.104569999999999,8,10,8.895430000000001,10,10C10.00405,11.781659999999999,10.53735,13.52196,11.5322,15L6,15L6,10ZM16,28C9.76327,27.9922,4.56912,23.2144,4.0415,17L27.9585,17C27.4309,23.2144,22.2367,27.9922,16,28Z" fill="#000000" fill-opacity="1"/></g><g></g></g></svg>