<svg xmlns="http://www.w3.org/2000/svg" xmlns:xlink="http://www.w3.org/1999/xlink" fill="none" version="1.1" width="32" height="32" viewBox="0 0 32 32"><defs><clipPath id="master_svg0_134_14538"><rect x="0" y="0" width="32" height="32" rx="0"/></clipPath></defs><g clip-path="url(#master_svg0_134_14538)"><g><rect x="8" y="10" width="7" height="2" rx="0" fill="#000000" fill-opacity="1"/></g><g><path d="M28.4142,8L23.4142,3L22,4.4140999999999995L25,7.4141L25,12C25.0013,13.104,25.896,13.9987,27,14L27,24.5C27,25.3284,26.3284,26,25.5,26C24.6716,26,24,25.3284,24,24.5L24,16C24,15.4477,23.5523,15,23,15L19,15L19,5C19,4.44772,18.5523,4,18,4L5,4C4.44772,4,4,4.44772,4,5L4,26L2,26L2,28L21,28L21,26L19,26L19,17L22,17L22,24.4C21.9758,26.0799,23.128,27.5487,24.7654,27.9251C26.9445,28.3879,28.9971,26.7277,29,24.5L29,9.4144C29,8.8839,28.7893,8.375119999999999,28.4142,8ZM17,26L6,26L6,6L17,6L17,26Z" fill="#000000" fill-opacity="1"/></g><g></g></g></svg>