<svg xmlns="http://www.w3.org/2000/svg" xmlns:xlink="http://www.w3.org/1999/xlink" fill="none" version="1.1" width="32" height="32" viewBox="0 0 32 32"><defs><clipPath id="master_svg0_134_14592"><rect x="0" y="0" width="32" height="32" rx="0"/></clipPath></defs><g clip-path="url(#master_svg0_134_14592)"><g><path d="M16.99999762527466,19.930746588516236C22.81887762527466,19.197646588516236,25.897077625274658,12.659776588516236,22.75507762527466,7.707586588516236C19.613077625274656,2.755396588516235,12.386867625274657,2.755396588516235,9.244897625274659,7.707586588516236C6.102917625274658,12.659776588516236,9.181167625274657,19.197646588516236,14.99999762527466,19.930746588516236L14.99999762527466,22.000046588516234L9.99999762527466,22.000046588516234L9.99999762527466,24.000046588516234L14.99999762527466,24.000046588516234L14.99999762527466,28.000046588516234L16.99999762527466,28.000046588516234L16.99999762527466,24.000046588516234L21.99997762527466,24.000046588516234L21.99997762527466,22.000046588516234L16.99999762527466,22.000046588516234L16.99999762527466,19.930746588516236ZM9.99999762527466,11.999996588516236C9.99999762527466,8.686286588516236,12.686287625274659,5.999996588516235,15.999997625274657,5.999996588516235C19.313677625274657,5.999996588516235,21.99997762527466,8.686286588516236,21.99997762527466,11.999996588516236C21.99997762527466,15.313746588516235,19.313677625274657,18.000046588516234,15.999997625274657,18.000046588516234C12.687797625274658,17.996346588516236,10.003637625274658,15.312246588516235,9.99999762527466,11.999996588516236Z" fill="#000000" fill-opacity="1"/></g><g></g></g></svg>