<svg xmlns="http://www.w3.org/2000/svg" xmlns:xlink="http://www.w3.org/1999/xlink" fill="none" version="1.1" width="32" height="32" viewBox="0 0 32 32"><defs><clipPath id="master_svg0_134_14631"><rect x="0" y="0" width="32" height="32" rx="0"/></clipPath></defs><g clip-path="url(#master_svg0_134_14631)"><g><path d="M14,4C17.866,4,21,7.13401,21,11C21,14.866,17.866,18,14,18C10.13401,18,7,14.866,7,11C7,7.13401,10.13401,4,14,4ZM14,2C9.029440000000001,2,5,6.02944,5,11C5,15.9706,9.029440000000001,20,14,20C18.970599999999997,20,23,15.9706,23,11C23,6.02944,18.970599999999997,2,14,2Z" fill="#000000" fill-opacity="1"/></g><g><path d="M28.00000015487671,10.99999967803955C28.00240015487671,7.286939678039551,26.525000154876707,3.7259996780395506,23.89490015487671,1.1050996780395508L22.48130015487671,2.5186996780395505C27.175900154876707,7.192269678039551,27.19300015487671,14.78669967803955,22.51940015487671,19.48129967803955C17.84580015487671,24.17589967803955,10.251410154876709,24.192999678039552,5.556800154876709,19.51939967803955L5.518700154876709,19.48129967803955L4.105100154876709,20.89489967803955C6.726000154876709,23.52499967803955,10.28694015487671,25.002399678039552,14.000000154876709,24.99999967803955L14.000000154876709,27.99999967803955L10.000000154876709,27.99999967803955L10.000000154876709,29.99999967803955L20.00000015487671,29.99999967803955L20.00000015487671,27.99999967803955L16.00000015487671,27.99999967803955L16.00000015487671,24.83999967803955C22.87980015487671,23.84289967803955,27.98780015487671,17.95169967803955,28.00000015487671,10.99999967803955Z" fill="#000000" fill-opacity="1"/></g><g></g></g></svg>