<svg xmlns="http://www.w3.org/2000/svg" xmlns:xlink="http://www.w3.org/1999/xlink" fill="none" version="1.1" width="32" height="32" viewBox="0 0 32 32"><defs><clipPath id="master_svg0_134_14669"><rect x="0" y="0" width="32" height="32" rx="0"/></clipPath></defs><g clip-path="url(#master_svg0_134_14669)"><g><path d="M8,19L6,19L6,17C6.00181818,15.3439,7.3439,14.00181866,9,14L14,14L14,16L9,16C8.44797,16.00061,8.00061,16.44797,8,17L8,19Z" fill="#000000" fill-opacity="1"/></g><g><path d="M12,13C9.79086,13,8,11.20914,8,9C8,6.79086,9.79086,5,12,5C14.20914,5,16,6.79086,16,9C15.99752,11.20811,14.20811,12.99752,12,13ZM12,7C10.895430000000001,7,10,7.89543,10,9C10,10.104569999999999,10.895430000000001,11,12,11C13.104569999999999,11,14,10.104569999999999,14,9C13.998840000000001,7.895910000000001,13.10409,7.0011600000000005,12,7Z" fill="#000000" fill-opacity="1"/></g><g><path d="M20,20C17.79086,20,16,18.209139999999998,16,16C16,13.79086,17.79086,12,20,12C22.209139999999998,12,24,13.79086,24,16C23.99752,18.208109999999998,22.208109999999998,19.99752,20,20ZM20,14C18.89543,14,18,14.895430000000001,18,16C18,17.10457,18.89543,18,20,18C21.10457,18,22,17.10457,22,16C21.99884,14.89591,21.10409,14.00116,20,14Z" fill="#000000" fill-opacity="1"/></g><g><path d="M26,26L24,26L24,24C23.99939,23.44797,23.552030000000002,23.00061,23,23L17,23C16.44797,23.00061,16.00061,23.44797,16,24L16,26L14,26L14,24C14.00181866,22.3439,15.3439,21.0018177,17,21L23,21C24.656100000000002,21.00181961,25.9982,22.3439,26,24L26,26Z" fill="#000000" fill-opacity="1"/></g><g><path d="M8,30L4,30C2.895911,29.9988,2.00115824,29.1041,2,28L2,4C2.00115776,2.8959099999999998,2.895911,2.00115776,4,2L8,2L8,4L4,4L4,28L8,28L8,30Z" fill="#000000" fill-opacity="1"/></g><g><path d="M28,30L24,30L24,28L28,28L28,4L24,4L24,2L28,2C29.10409,2.00115848,29.99884,2.895911,30,4L30,28C29.99884,29.1041,29.10409,29.9988,28,30Z" fill="#000000" fill-opacity="1"/></g><g></g></g></svg>