<svg xmlns="http://www.w3.org/2000/svg" xmlns:xlink="http://www.w3.org/1999/xlink" fill="none" version="1.1" width="32" height="32" viewBox="0 0 32 32"><defs><clipPath id="master_svg0_134_14706"><rect x="0" y="0" width="32" height="32" rx="0"/></clipPath></defs><g clip-path="url(#master_svg0_134_14706)"><g><path d="M10,30L8,30L8,27L4,27L4,30L2,30L2,27C2.00126863,25.895955999999998,2.895956,25.00126839,4,25L8,25C9.104040000000001,25.00126839,9.99873,25.895955999999998,10,27L10,30Z" fill="#000000" fill-opacity="1"/></g><g><path d="M30,30L28,30L28,27L24,27L24,30L22,30L22,27C22.00126839,25.895955999999998,22.895955999999998,25.00126839,24,25L28,25C29.10404,25.00127029,29.998730000000002,25.895958,30,27L30,30Z" fill="#000000" fill-opacity="1"/></g><g><path d="M20,30L18,30L18,27L14,27L14,30L12,30L12,27C12.00126839,25.895955999999998,12.895956,25.00126839,14,25L18,25C19.10404,25.00126839,19.998730000000002,25.895955999999998,20,27L20,30Z" fill="#000000" fill-opacity="1"/></g><g><ellipse cx="16" cy="22" rx="2" ry="2" fill="#000000" fill-opacity="1"/></g><g><ellipse cx="6" cy="22" rx="2" ry="2" fill="#000000" fill-opacity="1"/></g><g><ellipse cx="26" cy="22" rx="2" ry="2" fill="#000000" fill-opacity="1"/></g><g><ellipse cx="21" cy="18" rx="2" ry="2" fill="#000000" fill-opacity="1"/></g><g><ellipse cx="11" cy="18" rx="2" ry="2" fill="#000000" fill-opacity="1"/></g><g><path d="M26,14L6,14C4.895956,13.9987,4.00126696,13.104,4,12L4,4C4.00126696,2.895956,4.895956,2.00126719,6,2L26,2C27.104,2.00126767,27.9987,2.895956,28,4L28,12C27.9987,13.104,27.104,13.9987,26,14ZM6,4L6,12L26,12L26,4L6,4Z" fill="#000000" fill-opacity="1"/></g><g></g></g></svg>