<svg xmlns="http://www.w3.org/2000/svg" xmlns:xlink="http://www.w3.org/1999/xlink" fill="none" version="1.1" width="32" height="32" viewBox="0 0 32 32"><defs><clipPath id="master_svg0_134_14768"><rect x="0" y="0" width="32" height="32" rx="0"/></clipPath></defs><g clip-path="url(#master_svg0_134_14768)"><g><path d="M27,17.00001621017456C26.9922,22.68361621017456,22.6596,27.42741621017456,17,27.949216210174562L17,14.00001621017456L23,14.00001621017456L23,12.00001621017456L17,12.00001621017456L17,9.85789621017456C19.6982,9.161236210174561,20.875,5.98813621017456,19.2836,3.7005762101745603C17.6921,1.4130282101745606,14.3079,1.4130282101745606,12.71643,3.700586210174561C11.12501,5.98813621017456,12.30182,9.161236210174561,15,9.85789621017456L15,12.00001621017456L9,12.00001621017456L9,14.00001621017456L15,14.00001621017456L15,27.949216210174562C9.34035,27.42741621017456,5.0078499999999995,22.68361621017456,5,17.00001621017456L3,17.00001621017456C3,24.17971621017456,8.8203,30.00001621017456,16,30.00001621017456C23.1797,30.00001621017456,29,24.17971621017456,29,17.00001621017456L27,17.00001621017456ZM14,5.999996210174561C14,4.895426210174561,14.8954,3.9999962101745608,16,3.9999962101745608C17.104599999999998,3.9999962101745608,18,4.895426210174561,18,5.999996210174561C18,7.104566210174561,17.104599999999998,7.999996210174561,16,7.999996210174561C14.896,7.9987362101745605,14.0013,7.104046210174561,14,5.999996210174561Z" fill="#000000" fill-opacity="1"/></g><g></g></g></svg>