<svg xmlns="http://www.w3.org/2000/svg" xmlns:xlink="http://www.w3.org/1999/xlink" fill="none" version="1.1" width="32" height="32" viewBox="0 0 32 32"><defs><clipPath id="master_svg0_134_14835"><rect x="0" y="0" width="32" height="32" rx="0"/></clipPath></defs><g clip-path="url(#master_svg0_134_14835)"><g><path d="M19,28L13,28C11.895959999999999,27.9987,11.00127,27.104,11,26L11,21L6,21C4.895955,20.9987,4.00126648,20.104,4,19L4,13C4.00110245,11.89589,4.895887,11.001100000000001,6,11L11,11L11,6C11.001100000000001,4.895887,11.89589,4.00110245,13,4L19,4C20.104,4.00126648,20.9987,4.895955,21,6L21,11L26,11C27.104,11.00127,27.9987,11.895959999999999,28,13L28,19C27.9985,20.104,27.104,20.9985,26,21L21,21L21,26C20.9985,27.104,20.104,27.9985,19,28ZM6,13L6,19L13,19L13,26L19,26L19,19L26,19L26,13L19,13L19,6L13,6L13,13L6,13Z" fill="#000000" fill-opacity="1"/></g><g></g></g></svg>