<svg xmlns="http://www.w3.org/2000/svg" xmlns:xlink="http://www.w3.org/1999/xlink" fill="none" version="1.1" width="32" height="32" viewBox="0 0 32 32"><defs><clipPath id="master_svg0_134_14840"><rect x="0" y="0" width="32" height="32" rx="0"/></clipPath></defs><g clip-path="url(#master_svg0_134_14840)"><g><path d="M18,30L18,28C23.52024,27.99372,27.99372,23.52024,28,18L30,18C29.9926,24.62436,24.62436,29.9926,18,30Z" fill="#000000" fill-opacity="1"/></g><g><path d="M18,26L18,24C21.3122,23.99636,23.99636,21.3122,24,18L26,18C25.99493,22.41618,22.41618,25.99493,18,26Z" fill="#000000" fill-opacity="1"/></g><g><path d="M18,22L18,20C19.10404,19.99873,19.99873,19.10404,20,18L22,18C21.99768,20.20818,20.20818,21.99768,18,22Z" fill="#000000" fill-opacity="1"/></g><g><path d="M10,2C5.03172,2.00551009,1.00550997,6.03172,1,11L3,11C3,7.13401,6.13401,4,10,4C13.866,4,17,7.13401,17,11C17.0072,13.5221,15.6741,15.8581,13.499,17.1348L13,17.4229L13,20.4961C13.0097,21.3069,12.6837,22.0856,12.0991,22.6475C10.91817,23.9182,9.07544,24.3279,7.4673,23.6775C5.99526,23.0411,5.0307,21.6034,5,20L3,20C3.03673,22.3978,4.471439999999999,24.5528,6.6694,25.5117C7.39916,25.8315,8.18714,25.9971,8.9839,25.998C10.66285,25.9627,12.2649,25.2873,13.4624,24.11C14.4523,23.1696,15.0089,21.8615,15,20.4961L15,18.5537C17.5054,16.8567,19.0043,14.0261,19,11C18.9945,6.03172,14.9683,2.00551009,10,2Z" fill="#000000" fill-opacity="1"/></g><g><path d="M9.280003340911865,8.082503273010254C11.172423340911866,7.619843273010254,12.998313340911865,9.051843273010254,13.000003340911865,11.000003273010254L15.000003340911865,11.000003273010254C15.003303340911865,9.476683273010254,14.309073340911866,8.035673273010254,13.115703340911866,7.088903273010254C11.909553340911865,6.133476273010254,10.333113340911865,5.781192273010254,8.835003340911864,6.132300273010254C6.995533340911865,6.559232273010254,5.559232340911866,7.995533273010254,5.132300340911865,9.835003273010255C4.634081340911865,11.961653273010253,5.564764340911865,14.166853273010254,7.436003340911865,15.293503273010254C8.386893340911865,15.830433273010254,8.982063340911864,16.831053273010255,9.000003340911865,17.922853273010254L9.000003340911865,19.999953273010256L11.000003340911865,19.999953273010256L11.000003340911865,17.922853273010254C10.985473340911867,16.126653273010255,10.019913340911865,14.472793273010254,8.462903340911865,13.577103273010254C7.415813340911866,12.954443273010254,6.848923340911865,11.760663273010254,7.028123340911865,10.555683273010253C7.207313340911865,9.350693273010254,8.097043340911865,8.373533273010255,9.280003340911865,8.082503273010254Z" fill="#000000" fill-opacity="1"/></g><g></g></g></svg>