<svg xmlns="http://www.w3.org/2000/svg" xmlns:xlink="http://www.w3.org/1999/xlink" fill="none" version="1.1" width="32" height="32" viewBox="0 0 32 32"><defs><clipPath id="master_svg0_134_14876"><rect x="0" y="0" width="32" height="32" rx="0"/></clipPath></defs><g clip-path="url(#master_svg0_134_14876)"><g><path d="M27,3L5,3C3.895431,3,3,3.895431,3,5L3,27C3,28.1046,3.895431,29,5,29L27,29C28.1046,29,29,28.1046,29,27L29,5C29,3.895431,28.1046,3,27,3ZM9,21L5,21L5,17L9,17L9,21ZM11,23L15,23L15,27L11,27L11,23ZM17,23L21,23L21,27L17,27L17,23ZM17,15L17,11L21,11L21,15L17,15ZM21,9L17,9L17,5L21,5L21,9ZM23,11L27,11L27,15L23,15L23,11ZM15,5L15,15L5,15L5,5L15,5ZM23,27L23,17L27,17L27,27L23,27Z" fill="#000000" fill-opacity="1"/></g><g></g></g></svg>