<svg xmlns="http://www.w3.org/2000/svg" xmlns:xlink="http://www.w3.org/1999/xlink" fill="none" version="1.1" width="32" height="32" viewBox="0 0 32 32"><defs><clipPath id="master_svg0_134_14893"><rect x="0" y="0" width="32" height="32" rx="0"/></clipPath></defs><g clip-path="url(#master_svg0_134_14893)"><g><path d="M27,10L21,10C19.3439,10.00181866,18.0018177,11.3439,18,13L18,19C18.00126839,20.104,18.895955999999998,20.9987,20,21L20,28C20.001269999999998,29.104,20.89596,29.9987,22,30L26,30C27.104039999999998,29.9987,27.998730000000002,29.104,28,28L28,21C29.104,20.9987,29.9987,20.104,30,19L30,13C29.9982,11.3439,28.656100000000002,10.00182056,27,10ZM28,19L26,19L26,28L22,28L22,19L20,19L20,13C20.0005,12.44792,20.44792,12.0005,21,12L27,12C27.55208,12.00049,27.99951,12.44792,28,13L28,19Z" fill="#000000" fill-opacity="1"/></g><g><path d="M20,5C20,2.79086,21.79086,1,24,1C26.209139999999998,1,28,2.79086,28,5C28,7.20914,26.209139999999998,9,24,9C21.79182,8.997679999999999,20.00231552,7.20818,20,5ZM22,5C22,6.10457,22.89543,7,24,7C25.10457,7,26,6.10457,26,5C26,3.89543,25.10457,3,24,3C22.89596,3.00127,22.001269999999998,3.89596,22,5Z" fill="#000000" fill-opacity="1"/></g><g><path d="M14,16L14,13C13.9982,11.3439,12.6561,10.00181866,11,10L5,10C3.3439,10.00181866,2.00182,11.3439,2,13L2,16L0,16L0,18L16,18L16,16L14,16ZM4,13C4.0005,12.44792,4.44792,12.0005,5,12L11,12C11.5521,12.0005,11.9995,12.44792,12,13L12,16L4,16L4,13Z" fill="#000000" fill-opacity="1"/></g><g><path d="M4,5C4,2.79086,5.79086,1,8,1C10.20914,1,12,2.79086,12,5C12,7.20914,10.20914,9,8,9C5.7918199999999995,8.997679999999999,4.00231552,7.20818,4,5ZM6,5C6,6.10457,6.89543,7,8,7C9.104569999999999,7,10,6.10457,10,5C10,3.89543,9.104569999999999,3,8,3C6.8959600000000005,3.00127,6.00127,3.89596,6,5Z" fill="#000000" fill-opacity="1"/></g><g></g></g></svg>