<svg xmlns="http://www.w3.org/2000/svg" xmlns:xlink="http://www.w3.org/1999/xlink" fill="none" version="1.1" width="32" height="32" viewBox="0 0 32 32"><defs><clipPath id="master_svg0_134_14932"><rect x="0" y="0" width="32" height="32" rx="0"/></clipPath></defs><g clip-path="url(#master_svg0_134_14932)"><g><path d="M28,30L4,30C2.895911,29.9988,2.00115824,29.104100000000003,2,28L2,20C2.00115728,18.89591,2.8959099999999998,18.00115776,4,18L28,18C29.1041,18.00115776,29.9988,18.89591,30,20L30,28C29.9988,29.104100000000003,29.1041,29.9988,28,30ZM4,20L3.9985,20L4,28L28,28L28,20L4,20Z" fill="#000000" fill-opacity="1"/></g><g><path d="M28,14L4,14C2.8959099999999998,13.9988,2.00115776,13.1041,2,12L2,4C2.00115776,2.8959099999999998,2.895911,2.00115776,4,2L28,2C29.1041,2.00115848,29.9988,2.895911,30,4L30,12C29.9988,13.1041,29.1041,13.9988,28,14ZM4,4L3.9985,4L4,12L28,12L28,4L4,4Z" fill="#000000" fill-opacity="1"/></g><g></g></g></svg>