<svg xmlns="http://www.w3.org/2000/svg" xmlns:xlink="http://www.w3.org/1999/xlink" fill="none" version="1.1" width="32" height="32" viewBox="0 0 32 32"><defs><clipPath id="master_svg0_134_14951"><rect x="0" y="0" width="32" height="32" rx="0"/></clipPath></defs><g clip-path="url(#master_svg0_134_14951)"><g><path d="M9.500000476837158,15C10.328430476837159,15,11.000000476837158,15.67157,11.000000476837158,16.5C11.000000476837158,17.32843,10.328430476837159,18,9.500000476837158,18C8.671570476837157,18,8.000000476837158,17.32843,8.000000476837158,16.5C8.000000476837158,15.67157,8.671570476837157,15,9.500000476837158,15ZM9.500000476837158,13C7.567000476837158,13,6.000000476837158,14.567,6.000000476837158,16.5C6.000000476837158,18.433,7.567000476837158,20,9.500000476837158,20C11.433000476837158,20,13.000000476837158,18.433,13.000000476837158,16.5C13.000000476837158,14.567,11.433000476837158,13,9.500000476837158,13Z" fill="#000000" fill-opacity="1"/></g><g><path d="M25,13.999965519714355L17,13.999965519714355C15.8954,13.999965519714355,15,14.895465519714355,15,15.999965519714355L15,21.999965519714355L4,21.999965519714355L4,10.599995519714355L16,4.139995519714356L28.53,10.879995519714356L29.47,9.119995519714355L16.47,2.1199985197143554C16.1762,1.9635544197143555,15.8238,1.9635544197143555,15.53,2.1199985197143554L2.5300000000000002,9.119995519714355C2.204652,9.293235519714354,2.000983,9.631405519714356,2,9.999995519714355L2,29.999965519714355L4,29.999965519714355L4,23.999965519714355L28,23.999965519714355L28,29.999965519714355L30,29.999965519714355L30,18.999965519714355C30,16.238565519714356,27.7614,13.999965519714355,25,13.999965519714355ZM17,21.999965519714355L17,15.999965519714355L25,15.999965519714355C26.6569,15.999965519714355,28,17.343165519714354,28,18.999965519714355L28,21.999965519714355L17,21.999965519714355Z" fill="#000000" fill-opacity="1"/></g><g></g></g></svg>