<svg xmlns="http://www.w3.org/2000/svg" xmlns:xlink="http://www.w3.org/1999/xlink" fill="none" version="1.1" width="32" height="32" viewBox="0 0 32 32"><defs><clipPath id="master_svg0_134_14994"><rect x="0" y="0" width="32" height="32" rx="0"/></clipPath></defs><g clip-path="url(#master_svg0_134_14994)"><g><path d="M26,12.000001232833862C23.85408,12.057331232833862,22.0657654,10.368681232833863,22,8.223001232833862C22.0187302,7.487181232833862,22.245216,6.771671232833862,22.653299,6.159101232833862L25.17,2.4141002328338623C25.58529,1.8620082328338623,26.41391,1.8620082328338623,26.8292,2.4141002328338623L29.3154,6.110001232833862C29.74003,6.734831232833862,29.97753,7.467871232833862,30,8.223001232833862C29.93423,10.368681232833863,28.14592,12.057331232833862,26,12.000001232833862ZM26,4.763201232833863L24.3438,7.225701232833862C24.136870000000002,7.518761232833862,24.01762,7.864671232833862,24,8.223001232833862C24.11973,9.236831232833861,24.97912,10.000701232833862,26,10.000701232833862C27.02088,10.000701232833862,27.88027,9.236831232833861,28,8.223001232833862C27.97752,7.845481232833862,27.84739,7.482291232833862,27.625,7.176401232833863L26,4.763201232833863Z" fill="#000000" fill-opacity="1"/></g><g><path d="M23.499979806900026,29.999976976013183L8.499999806900025,29.999976976013183C5.1635098069000245,30.002276976013185,2.3678028069000243,27.476676976013184,2.0322812069000245,24.157076976013183C1.6967598069000245,20.837476976013185,3.9305298069000245,17.803496976013182,7.199999806900024,17.138096976013184C8.077259806900024,12.977586976013184,11.748299806900025,9.999876976013184,16.000279806900025,9.999876976013184C20.252279806900024,9.999876976013184,23.923379806900023,12.977586976013184,24.800579806900025,17.138096976013184C28.069279806900024,17.804396976013184,30.302079806900025,20.838176976013184,29.966479806900026,24.157176976013183C29.630879806900026,27.476176976013182,26.835979806900024,30.001576976013183,23.499979806900026,29.999976976013183ZM15.999979806900024,11.999996976013183C12.466979806900024,12.003136976013185,9.490039806900025,14.638586976013183,9.058599806900023,18.14519697601318L8.959499806900023,18.957396976013186L8.143999806900023,19.021396976013186C5.735959806900024,19.210476976013183,3.9075898069000243,21.268376976013183,4.003279806900025,23.681976976013182C4.098979806900024,26.095476976013185,6.084549806900024,28.002176976013185,8.499999806900025,27.999976976013183L23.499979806900026,27.999976976013183C25.915479806900024,28.002376976013185,27.901279806900025,26.095776976013184,27.997079806900025,23.68217697601318C28.092879806900026,21.268476976013183,26.264479806900024,19.210496976013182,23.856379806900023,19.021396976013186L23.040979806900026,18.957396976013186L22.942379806900025,18.14519697601318C22.509979806900024,14.638696976013183,19.533079806900023,12.003616976013184,15.999979806900024,11.999996976013183Z" fill="#000000" fill-opacity="1"/></g><g></g></g></svg>