<svg xmlns="http://www.w3.org/2000/svg" xmlns:xlink="http://www.w3.org/1999/xlink" fill="none" version="1.1" width="32" height="32" viewBox="0 0 32 32"><defs><clipPath id="master_svg0_134_15349"><rect x="0" y="0" width="32" height="32" rx="0"/></clipPath></defs><g clip-path="url(#master_svg0_134_15349)"><g><path d="M14,23.999953948974607C13.553560000000001,23.999953948974607,13.16124,23.703953948974608,13.038599999999999,23.27465394897461L11.2456,17.00000394897461L8,17.00000394897461L8,15.000003948974609L12,15.000003948974609C12.446439999999999,15.00005394897461,12.83876,15.29603394897461,12.961400000000001,15.72530394897461L14,19.35995394897461L17.038600000000002,8.725299948974609C17.16141,8.296213948974609,17.55369,8.00045394897461,18,8.00045394897461C18.4463,8.00045394897461,18.8386,8.296213948974609,18.961399999999998,8.725299948974609L20.7544,15.000003948974609L24,15.000003948974609L24,17.00000394897461L20,17.00000394897461C19.5536,16.99994394897461,19.1612,16.70396394897461,19.038600000000002,16.27470394897461L18,12.64000394897461L14.961400000000001,23.27465394897461C14.83869,23.70405394897461,14.44636,23.999953948974607,14,23.999953948974607Z" fill="#000000" fill-opacity="1"/></g><g><path d="M16,30.999962210655212C15.823,31.00026221065521,15.6491,30.95336221065521,15.4961,30.864262210655212L3.4961,23.864262210655212C3.188881,23.68496221065521,3,23.35586221065521,3,22.999962210655212L3,9.000002210655213C2.999863863,8.644302210655212,3.188797,8.315332210655212,3.4961,8.136202210655213L15.4961,1.1362002106552125C15.8075,0.9545497106552124,16.192500000000003,0.9545497106552124,16.5039,1.1362002106552125L28.5039,8.136202210655213L27.4961,9.863802210655212L16,3.1577022106552124L5,9.574202210655212L5,22.42576221065521L16,28.842762210655213L27,22.42576221065521L27,14.999962210655212L29,14.999962210655212L29,22.999962210655212C29,23.35576221065521,28.8111,23.68486221065521,28.5039,23.864262210655212L16.5039,30.864262210655212C16.3509,30.95336221065521,16.177,31.00026221065521,16,30.999962210655212Z" fill="#000000" fill-opacity="1"/></g><g></g></g></svg>