<svg xmlns="http://www.w3.org/2000/svg" xmlns:xlink="http://www.w3.org/1999/xlink" fill="none" version="1.1" width="32" height="32" viewBox="0 0 32 32"><defs><clipPath id="master_svg0_134_16053"><rect x="0" y="0" width="32" height="32" rx="0"/></clipPath></defs><g clip-path="url(#master_svg0_134_16053)"><g><path d="M29,12L20,12L20,3L29,3L29,12ZM22,10L27,10L27,5L22,5L22,10Z" fill="#000000" fill-opacity="1"/></g><g><path d="M20,15L20,17L27,17L27,27L17,27L17,3L5,3C3.8971999999999998,3,3,3.8975,3,5L3,27C3,28.1025,3.8971999999999998,29,5,29L27,29C28.1028,29,29,28.1025,29,27L29,15L20,15ZM6.4140999999999995,17L15,17L15,25.5859L6.4140999999999995,17ZM15,15L6.4140999999999995,15L15,6.4140999999999995L15,15ZM13.5859,5L5,13.5859L5,5L13.5859,5ZM5,18.414099999999998L13.5859,27L5,27L5,18.414099999999998Z" fill="#000000" fill-opacity="1"/></g><g></g></g></svg>