<svg xmlns="http://www.w3.org/2000/svg" xmlns:xlink="http://www.w3.org/1999/xlink" fill="none" version="1.1" width="32" height="32" viewBox="0 0 32 32"><defs><clipPath id="master_svg0_134_15843"><rect x="0" y="0" width="32" height="32" rx="0"/></clipPath></defs><g clip-path="url(#master_svg0_134_15843)"><g><path d="M3.5999998807907105,22.5C2.5999998807907105,20.5,1.9999998807907104,18.3,1.9999998807907104,16C1.9999999999997105,8.3,8.299999880790711,2,15.99999988079071,2L15.99999988079071,4C9.39999988079071,4,3.9999998807907104,9.4,3.9999998807907104,16C3.9999998807907104,18,4.4999998807907104,19.8,5.399999880790711,21.5L3.5999998807907105,22.5Z" fill="#000000" fill-opacity="1"/></g><g><path d="M28.000000190734863,16C28.000000190734863,22.6,22.600000190734864,28,16.000000190734863,28C13.100000190734864,28,10.400000190734863,27,8.300000190734863,25.2L14.000000190734863,19.5L12.600000190734864,18L6.100000190734863,24.5C5.700000290734863,24.9,5.700000290734863,25.5,6.100000190734863,25.9C8.700000190734864,28.5,12.300000190734863,30,16.000000190734863,30C23.700000190734862,30,30.000000190734863,23.7,30.000000190734863,16L28.000000190734863,16Z" fill="#000000" fill-opacity="1"/></g><g><path d="M18.000014250946045,25C17.900014250946043,25,17.700014250946047,25,17.600014250946046,24.9C17.300014250946045,24.8,17.000014250946045,24.5,17.000014250946045,24.1L16.299994250946042,19.1L18.300014250946045,18.8L18.700014250946047,22.1L20.900014250946043,20.4L20.900014250946043,15C20.900014250946043,14.7,21.000014250946045,14.5,21.200014250946047,14.3L24.400014250946043,11.1C25.300014250946045,10.2,25.900014250946043,8.9,25.900014250946043,7.6L25.900014250946043,6L24.400014250946043,6C23.100014250946046,6,21.800014250946045,6.5,20.900014250946043,7.5L17.700014250946047,10.7C17.500014250946045,10.9,17.300014250946045,11,17.000014250946045,11L11.500004250946045,11L9.800004250946046,13.2L13.100004250946045,13.6L12.800004250946046,15.6L7.800000250946045,14.9C7.400000250946045,14.9,7.100000250946045,14.6,6.999999950946045,14.3C6.899999650946045,14,6.900000050946045,13.6,7.100000250946045,13.3L10.100004250946045,9.3C10.400004250946045,9.1,10.700004250946044,9,11.000004250946045,9L16.600004250946043,9L19.600014250946046,6C20.900014250946043,4.7,22.700014250946047,4,24.500014250946045,4L26.000014250946045,4C27.100014250946046,4,28.000014250946045,4.9,28.000014250946045,6L28.000014250946045,7.5C28.000014250946045,9.4,27.300014250946045,11.1,26.000014250946045,12.4L23.000014250946045,15.4L23.000014250946045,21C23.000014250946045,21.3,22.900014250946043,21.6,22.600014250946046,21.8L18.600014250946046,24.8C18.400014250946043,24.9,18.200014250946047,25,18.000014250946045,25Z" fill="#000000" fill-opacity="1"/></g><g></g></g></svg>