<svg xmlns="http://www.w3.org/2000/svg" xmlns:xlink="http://www.w3.org/1999/xlink" fill="none" version="1.1" width="32" height="32" viewBox="0 0 32 32"><defs><clipPath id="master_svg0_134_15126"><rect x="0" y="0" width="32" height="32" rx="0"/></clipPath></defs><g clip-path="url(#master_svg0_134_15126)"><g><path d="M27,29L13,29C11.9,29,11,28.1,11,27L11,23L13,23L13,27L27,27L27,13L23,13L23,11L27,11C28.1,11,29,11.9,29,13L29,27C29,28.1,28.1,29,27,29Z" fill="#000000" fill-opacity="1"/></g><g><path d="M19,21L13,21C11.9,21,11,20.1,11,19L11,13C11,11.9,11.9,11,13,11L19,11C20.1,11,21,11.9,21,13L21,19C21,20.1,20.1,21,19,21ZM13,13L13,19L19,19L19,13L13,13Z" fill="#000000" fill-opacity="1"/></g><g><path d="M5,3L19,3C20.1,3,21,3.9,21,5L21,9L19,9L19,5L5,5L5,19L9,19L9,21L5,21C3.9,21,3,20.1,3,19L3,5C3,3.9,3.9,3,5,3Z" fill="#000000" fill-opacity="1"/></g><g></g></g></svg>