<svg xmlns="http://www.w3.org/2000/svg" xmlns:xlink="http://www.w3.org/1999/xlink" fill="none" version="1.1" width="32" height="32" viewBox="0 0 32 32"><defs><clipPath id="master_svg0_134_15150"><rect x="0" y="0" width="32" height="32" rx="0"/></clipPath></defs><g clip-path="url(#master_svg0_134_15150)"><g><path d="M17.2,13C17.6,14.2,18.7,15,20,15C21.7,15,23,13.7,23,12C23,10.3,21.7,9,20,9C18.7,9,17.6,9.8,17.2,11L5,11C3.9,11,3,11.9,3,13L3,19L0,19L0,21L3,21L3,27C3,28.1,3.9,29,5,29L19,29C20.1,29,21,28.1,21,27L21,23L19,23L19,27L5,27L5,13L17.2,13ZM20,11C20.6,11,21,11.4,21,12C21,12.6,20.6,13,20,13C19.4,13,19,12.6,19,12C19,11.4,19.4,11,20,11Z" fill="#000000" fill-opacity="1"/></g><g><path d="M29,11L29,5C29,3.9,28.1,3,27,3L13,3C11.9,3,11,3.9,11,5L11,9L13,9L13,5L27,5L27,19L14.8,19C14.4,17.8,13.3,17,12,17C10.3,17,9,18.3,9,20C9,21.7,10.3,23,12,23C13.3,23,14.4,22.2,14.8,21L27,21C28.1,21,29,20.1,29,19L29,13L32,13L32,11L29,11ZM12,21C11.4,21,11,20.6,11,20C11,19.4,11.4,19,12,19C12.6,19,13,19.4,13,20C13,20.6,12.6,21,12,21Z" fill="#000000" fill-opacity="1"/></g><g></g></g></svg>