<svg xmlns="http://www.w3.org/2000/svg" xmlns:xlink="http://www.w3.org/1999/xlink" fill="none" version="1.1" width="32" height="32" viewBox="0 0 32 32"><defs><clipPath id="master_svg0_134_15925"><rect x="0" y="0" width="32" height="32" rx="0"/></clipPath></defs><g clip-path="url(#master_svg0_134_15925)"><g><path d="M23.900000762939452,10.000000476837158C23.300000762939455,9.400000476837159,22.400000762939452,9.000000476837158,21.500000762939454,9.000000476837158C20.60000076293945,9.000000476837158,19.700000762939453,9.400000476837159,19.10000076293945,10.000000476837158L17.700000762939453,8.600000476837158C18.700000762939453,7.600000476837158,20.10000076293945,7.000000476837158,21.500000762939454,7.000000476837158C22.900000762939452,7.000000476837158,24.400000762939452,7.600000476837158,25.300000762939455,8.600000476837158L23.900000762939452,10.000000476837158Z" fill="#000000" fill-opacity="1"/></g><g><ellipse cx="24" cy="5" rx="1" ry="1" fill="#000000" fill-opacity="1"/></g><g><ellipse cx="19" cy="5" rx="1" ry="1" fill="#000000" fill-opacity="1"/></g><g><path d="M15,0L28,0C29.1,0,30,0.9,30,2L30,12C30,13.1,29.1,14,28,14L24.5,14L22.8,17L21,16L23.3,12L28,12L28,2L15,2L15,12L20,12L20,14L15,14C13.9,14,13,13.1,13,12L13,2C13,0.9,13.9,0,15,0Z" fill="#000000" fill-opacity="1"/></g><g><path d="M20,19L20,25C20,25.6,19.6,26,19,26L14,26L14,28L19,28C20.7,28,22,26.7,22,25L22,19L20,19Z" fill="#000000" fill-opacity="1"/></g><g><path d="M15.4,20.399999618530273C14.6,21.399999618530273,13.3,21.999999618530275,12,21.999999618530275C10.7,21.999999618530275,9.4,21.399999618530273,8.6,20.399999618530273L7,21.599999618530273C8.2,22.999999618530275,10,23.999999618530275,12,23.999999618530275C14,23.999999618530275,15.8,23.099999618530273,17,21.599999618530273L15.4,20.399999618530273Z" fill="#000000" fill-opacity="1"/></g><g><ellipse cx="15.5" cy="17.5" rx="1.5" ry="1.5" fill="#000000" fill-opacity="1"/></g><g><ellipse cx="8.5" cy="17.5" rx="1.5" ry="1.5" fill="#000000" fill-opacity="1"/></g><g><path d="M10.1,26L5,26C4.4,26,4,25.6,4,25L4,14C4,13.4,4.4,13,5,13L10,13L10,11L5,11C3.3,11,2,12.3,2,14L2,25C2,26.7,3.3,28,5,28L9,28L11.3,32L13,31L10.1,26Z" fill="#000000" fill-opacity="1"/></g><g></g></g></svg>