<svg xmlns="http://www.w3.org/2000/svg" xmlns:xlink="http://www.w3.org/1999/xlink" fill="none" version="1.1" width="32" height="32" viewBox="0 0 32 32"><defs><clipPath id="master_svg0_134_15081"><rect x="0" y="0" width="32" height="32" rx="0"/></clipPath></defs><g clip-path="url(#master_svg0_134_15081)"><g><ellipse cx="9" cy="26" rx="1" ry="1" fill="#000000" fill-opacity="1"/></g><g><path d="M4,24L4,28C4,29.1,4.9,30,6,30L18,30L18,28L6,28L6,24L18,24L18,22L6,22C4.9,22,4,22.9,4,24Z" fill="#000000" fill-opacity="1"/></g><g><path d="M4,13L4,18C4,19.1,4.9,20,6,20L14,20L14,18L6,18L6,13L4,13Z" fill="#000000" fill-opacity="1"/></g><g><ellipse cx="9" cy="16" rx="1" ry="1" fill="#000000" fill-opacity="1"/></g><g><path d="M28,19L28,14C28,12.9,27.1,12,26,12L18,12L18,14L26,14L26,19L28,19Z" fill="#000000" fill-opacity="1"/></g><g><path d="M28,8L28,4C28,2.9,27.1,2,26,2L14,2L14,4L26,4L26,8L14,8L14,10L26,10C27.1,10,28,9.1,28,8Z" fill="#000000" fill-opacity="1"/></g><g><path d="M23.41,22L10,8.59L10,2L2,2L2,10L8.59,10L22,23.41L22,30L30,30L30,22L23.41,22ZM8,8L4,8L4,4L8,4L8,8ZM28,28L24,28L24,24L28,24L28,28Z" fill="#000000" fill-opacity="1"/></g><g><g></g></g></g></svg>