<svg xmlns="http://www.w3.org/2000/svg" xmlns:xlink="http://www.w3.org/1999/xlink" fill="none" version="1.1" width="32" height="32" viewBox="0 0 32 32"><defs><clipPath id="master_svg0_134_16005"><rect x="0" y="0" width="32" height="32" rx="0"/></clipPath></defs><g clip-path="url(#master_svg0_134_16005)"><g><path d="M18.496000000000002,27.386L16,28.842L5,22.426000000000002L5,16.573999999999998L15.016,10.731C15.308,10.897,15.641,11,16,11C17.104,11,18,10.104,18,9C18,7.896,17.104,7,16,7C14.896,7,14,7.896,14,9C14,9.003,14.001,9.004999999999999,14.001,9.008L3.496,15.136C3.189,15.315,3,15.645,3,16L3,23C3,23.355,3.189,23.685,3.496,23.864L15.496,30.864C15.652,30.955,15.826,31,16,31C16.174,31,16.348,30.955,16.503999999999998,30.864L19.504,29.114L18.496000000000002,27.386Z" fill="#000000" fill-opacity="1"/></g><g><path d="M28.504,8.13599967956543L25.504,6.38599967956543L24.496,8.11399967956543L27,9.57399967956543L27,22.42599967956543L22.407,25.10499967956543L11.998000000000001,19.011999679565427C11.999,19.006999679565432,12,19.003999679565432,12,18.99999967956543C12,17.895999679565428,11.104,16.99999967956543,10,16.99999967956543C8.896,16.99999967956543,8,17.895999679565428,8,18.99999967956543C8,20.10399967956543,8.896,20.99999967956543,10,20.99999967956543C10.358,20.99999967956543,10.69,20.89799967956543,10.981,20.73299967956543L21.901,27.125999679565428C22.057000000000002,27.21699967956543,22.232,27.26299967956543,22.406,27.26299967956543C22.58,27.26299967956543,22.753999999999998,27.21799967956543,22.91,27.12699967956543L28.504,23.86399967956543C28.811,23.68499967956543,29,23.35499967956543,29,22.99999967956543L29,8.99999967956543C29,8.64499967956543,28.811,8.31499967956543,28.504,8.13599967956543Z" fill="#000000" fill-opacity="1"/></g><g><path d="M23,17.277L23,5.5C23,5.145,22.811,4.8149999999999995,22.504,4.636L16.503999999999998,1.1360000000000001C16.348,1.045,16.174,1,16,1C15.826,1,15.652,1.045,15.496,1.1360000000000001L3.496,8.136C3.189,8.315000000000001,3,8.645,3,9L3,11.999L5,11.999L5,9.574L16,3.157L21,6.074L21,17.277C20.405,17.624,20,18.261,20,19C20,20.104,20.896,21,22,21C23.104,21,24,20.104,24,19C24,18.262,23.595,17.624,23,17.277Z" fill="#000000" fill-opacity="1"/></g><g></g></g></svg>