<svg xmlns="http://www.w3.org/2000/svg" xmlns:xlink="http://www.w3.org/1999/xlink" fill="none" version="1.1" width="32" height="32" viewBox="0 0 32 32"><defs><clipPath id="master_svg0_134_15033"><rect x="0" y="0" width="32" height="32" rx="0"/></clipPath></defs><g clip-path="url(#master_svg0_134_15033)"><g><path d="M5,26L5,15.8281L1.4141,19.4141L0,18L6,12L12,18L10.5859,19.4141L7,15.8281L7,26L19,26L19,28L7,28C5.896,27.9987,5.0013,27.104,5,26Z" fill="#000000" fill-opacity="1"/></g><g><path d="M31,18L28,18L28,16L26,16L26,18L25,18C23.895401,18,23,18.8954,23,20L23,22C23,23.104599999999998,23.895399,24,25,24L29,24L29,26L23,26L23,28L26,28L26,30L28,30L28,28L29,28C30.104599999999998,28,31,27.104599999999998,31,26L31,24C31,22.895400000000002,30.104599999999998,22,29,22L25,22L25,20L31,20L31,18Z" fill="#000000" fill-opacity="1"/></g><g><path d="M28,12L28,6C27.9988,4.896,27.104,4.00119972,26,4L12,4L12,6L26,6L26,12" fill="#000000" fill-opacity="1"/></g><g><rect x="2" y="6" width="5" height="2" rx="0" fill="#000000" fill-opacity="1"/></g><g><rect x="2" y="2" width="8" height="2" rx="0" fill="#000000" fill-opacity="1"/></g><g></g></g></svg>