<svg xmlns="http://www.w3.org/2000/svg" xmlns:xlink="http://www.w3.org/1999/xlink" fill="none" version="1.1" width="32" height="32" viewBox="0 0 32 32"><defs><clipPath id="master_svg0_134_15017"><rect x="0" y="0" width="32" height="32" rx="0"/></clipPath></defs><g clip-path="url(#master_svg0_134_15017)"><g><path d="M28,26C27.2616,26,26.6238,26.4047,26.2774,27L21,27L28.7998,16.5996C29.0273,16.2969,29.064,15.8916,28.8945,15.5527C28.725,15.213799999999999,28.3789,15,28,15L17.8157,15C17.401600000000002,13.8385,16.3019,13,15,13C13.3457,13,12,14.3457,12,16C12,17.6543,13.3457,19,15,19C16.3019,19,17.401600000000002,18.1615,17.8157,17L26,17L18.2002,27.400399999999998C17.9727,27.7031,17.936,28.1084,18.1055,28.4473C18.275,28.7862,18.6211,29,19,29L26.2774,29C26.6238,29.5953,27.2616,30,28,30C29.1046,30,30,29.1046,30,28C30,26.895400000000002,29.1046,26,28,26ZM15,17C14.4487,17,14,16.5518,14,16C14,15.4482,14.4487,15,15,15C15.5513,15,16,15.4482,16,16C16,16.5518,15.5513,17,15,17Z" fill="#000000" fill-opacity="1"/></g><g><path d="M16,21L14,21L14,25.5859L4.4139,16L14,6.4142L14,11L16,11L16,5L26,5L26,13L28,13L28,5C28,3.8954,27.1046,3,26,3L4,3C2.8954,3,2,3.8954,2,5L2,27C2,28.1046,2.8954,29,4,29L16,29L16,21ZM4,5L12.5858,5L4,13.5858L4,5ZM4,27L4,18.4142L12.5858,27L4,27Z" fill="#000000" fill-opacity="1"/></g><g></g></g></svg>