<svg xmlns="http://www.w3.org/2000/svg" xmlns:xlink="http://www.w3.org/1999/xlink" fill="none" version="1.1" width="32" height="32" viewBox="0 0 32 32"><defs><clipPath id="master_svg0_134_15691"><rect x="0" y="0" width="32" height="32" rx="0"/></clipPath></defs><g clip-path="url(#master_svg0_134_15691)"><g><ellipse cx="30" cy="20" rx="1" ry="1" fill="#000000" fill-opacity="1"/></g><g><ellipse cx="2" cy="20" rx="1" ry="1" fill="#000000" fill-opacity="1"/></g><g><path d="M24.000000753784178,25.999999197387694C21.783500753784182,25.999999197387694,19.84860075378418,24.788799197387696,18.80970075378418,22.996599197387695L17.07710075378418,23.996799197387695C18.46050075378418,26.387399197387694,21.03930075378418,27.999999197387694,24.000000753784178,27.999999197387694C26.96070075378418,27.999999197387694,29.539500753784182,26.387499197387694,30.92290075378418,23.996799197387695L29.19030075378418,22.996599197387695C28.15140075378418,24.788799197387696,26.21650075378418,25.999999197387694,24.000000753784178,25.999999197387694Z" fill="#000000" fill-opacity="1"/></g><g><path d="M24.000000029754638,14C26.135700029754638,14,28.12700002975464,15.1494,29.19730002975464,17L30.928700029754637,15.999C29.50240002975464,13.5322,26.84720002975464,12,24.000000029754638,12C21.152800029754637,12,18.49760002975464,13.5322,17.06200002975464,16.0151L13.197300029754638,23C12.127000029754639,24.8506,10.13580002975464,26,8.000000029754638,26C5.864200029754639,26,3.8730000297546385,24.8506,2.8027000297546385,23L1.0713000297546387,24.000999999999998C2.4976000297546386,26.4678,5.152800029754639,28,8.000000029754638,28C10.847200029754639,28,13.50240002975464,26.4678,14.938000029754638,23.9849L18.80270002975464,17C19.87300002975464,15.1494,21.864200029754638,14,24.000000029754638,14Z" fill="#000000" fill-opacity="1"/></g><g><path d="M7.999999800109864,14C10.216499800109863,14,12.151399800109862,15.2112,13.190299800109864,17.0034L14.922899800109864,16.0032C13.539499800109864,13.6126,10.960699800109863,12,7.999999800109864,12C5.0392998001098634,12,2.4604998001098632,13.6125,1.0770998001098633,16.0032L2.809699800109863,17.0034C3.8485998001098634,15.2112,5.783499800109864,14,7.999999800109864,14Z" fill="#000000" fill-opacity="1"/></g><g><path d="M15.999999645996093,6C18.757099645996092,6,21.257099645996092,7.1216,23.067799645996093,8.9321L24.481299645996092,7.518800000000001C22.308399645996094,5.3457,19.308399645996094,4,15.999999645996093,4C12.691599645996094,4,9.691699645996094,5.3457,7.518699645996094,7.518800000000001L8.932199645996093,8.9321C10.742899645996093,7.1216,13.242899645996093,6,15.999999645996093,6Z" fill="#000000" fill-opacity="1"/></g><g><g></g></g></g></svg>