<svg xmlns="http://www.w3.org/2000/svg" xmlns:xlink="http://www.w3.org/1999/xlink" fill="none" version="1.1" width="32" height="32" viewBox="0 0 32 32"><defs><clipPath id="master_svg0_134_15275"><rect x="0" y="0" width="32" height="32" rx="0"/></clipPath></defs><g clip-path="url(#master_svg0_134_15275)"><g><path d="M21,22L15,22C13.895956,21.998730000000002,13.00126839,21.10404,13,20L13,16C13.00126743,14.895956,13.895956,14.00126743,15,14L21,14C22.104039999999998,14.00126839,22.998730000000002,14.895956,23,16L23,20C22.998730000000002,21.10404,22.104039999999998,21.998730000000002,21,22ZM15,16L15,20L21,20L21,16L15,16Z" fill="#000000" fill-opacity="1"/></g><g><path d="M11,17L9,17L9,12C9.00126743,10.895956,9.895956,10.00126743,11,10L17,10L17,12L11,12L11,17Z" fill="#000000" fill-opacity="1"/></g><g><path d="M16,30.999962210655212C15.823,31.00026221065521,15.6491,30.95336221065521,15.4961,30.864262210655212L3.4961,23.864262210655212C3.188881,23.68496221065521,3,23.35586221065521,3,22.999962210655212L3,9.000002210655213C2.999863863,8.644302210655212,3.188797,8.315332210655212,3.4961,8.136202210655213L15.4961,1.1362002106552125C15.8075,0.9545497106552124,16.192500000000003,0.9545497106552124,16.5039,1.1362002106552125L28.5039,8.136202210655213L27.4961,9.863802210655212L16,3.1577022106552124L5,9.574202210655212L5,22.42576221065521L16,28.842762210655213L27,22.42576221065521L27,14.999962210655212L29,14.999962210655212L29,22.999962210655212C29,23.35576221065521,28.8111,23.68486221065521,28.5039,23.864262210655212L16.5039,30.864262210655212C16.3509,30.95336221065521,16.177,31.00026221065521,16,30.999962210655212Z" fill="#000000" fill-opacity="1"/></g><g></g></g></svg>