<svg xmlns="http://www.w3.org/2000/svg" xmlns:xlink="http://www.w3.org/1999/xlink" fill="none" version="1.1" width="32" height="32" viewBox="0 0 32 32"><defs><clipPath id="master_svg0_134_15938"><rect x="0" y="0" width="32" height="32" rx="0"/></clipPath></defs><g clip-path="url(#master_svg0_134_15938)"><g><path d="M28,2L18,2C16.8965,2,16,2.8965,16,4L16,10C16,11.1035,16.8965,12,18,12L20.4229,12L22.1543,15L23.8867,14L21.5771,10L18,10L18,4L28,4L28,10L25,10L25,12L28,12C29.1035,12,30,11.1035,30,10L30,4C30,2.8965,29.1035,2,28,2Z" fill="#000000" fill-opacity="1"/></g><g><path d="M14.690400183105469,31L12.958000183105469,30L16.42280018310547,24L21.999900183105467,24C23.10450018310547,24,23.999900183105467,23.104599999999998,23.999900183105467,22L23.999900183105467,17L25.999900183105467,17L25.999900183105467,22C25.999900183105467,24.2091,24.209000183105466,26,21.999900183105467,26L17.57700018310547,26L14.690400183105469,31Z" fill="#000000" fill-opacity="1"/></g><g><ellipse cx="10" cy="17" rx="1" ry="1" fill="#000000" fill-opacity="1"/></g><g><ellipse cx="14" cy="17" rx="1" ry="1" fill="#000000" fill-opacity="1"/></g><g><ellipse cx="18" cy="17" rx="1" ry="1" fill="#000000" fill-opacity="1"/></g><g><path d="M12,26L6,26C3.7908999999999997,26,2,24.2091,2,22L2,12C2,9.7909,3.7908999999999997,8,6,8L14,8L14,10L6,10C4.8954,10,4,10.8954,4,12L4,22C4,23.104599999999998,4.8954,24,6,24L12,24L12,26Z" fill="#000000" fill-opacity="1"/></g><g><g></g></g></g></svg>