<svg xmlns="http://www.w3.org/2000/svg" xmlns:xlink="http://www.w3.org/1999/xlink" fill="none" version="1.1" width="32" height="32" viewBox="0 0 32 32"><defs><clipPath id="master_svg0_134_15260"><rect x="0" y="0" width="32" height="32" rx="0"/></clipPath></defs><g clip-path="url(#master_svg0_134_15260)"><g><path d="M24.399996948242187,10C24.699996948242188,10.5,25.099996948242186,10.9,25.699996948242188,11.2L26.999996948242188,11.8L28.29999694824219,11.2C29.29999694824219,10.7,29.999996948242188,9.6,29.999996948242188,8.5L29.999996948242188,4L26.999996948242188,4L26.999996948242188,2L31.999996948242188,2L31.999996948242188,8.5C31.999996948242188,10.4,30.899996948242187,12.2,29.099996948242186,13L26.899996948242187,14L24.79999694824219,13C23.499996948242188,12.4,22.599996948242186,11.3,22.199996948242188,10L24.399996948242187,10Z" fill="#000000" fill-opacity="1"/></g><g><rect x="16" y="6" width="8" height="2" rx="0" fill="#000000" fill-opacity="1"/></g><g><rect x="16" y="2" width="8" height="2" rx="0" fill="#000000" fill-opacity="1"/></g><g><path d="M28,16L28,22L4,22L4,6L14,6L14,4L4,4C2.9,4,2,4.9,2,6L2,22C2,23.1,2.9,24,4,24L12,24L12,28L8,28L8,30L24,30L24,28L20,28L20,24L28,24C29.1,24,30,23.1,30,22L30,16L28,16ZM18,28L14,28L14,24L18,24L18,28Z" fill="#000000" fill-opacity="1"/></g><g></g></g></svg>