<svg xmlns="http://www.w3.org/2000/svg" xmlns:xlink="http://www.w3.org/1999/xlink" fill="none" version="1.1" width="32" height="32" viewBox="0 0 32 32"><defs><clipPath id="master_svg0_134_16059"><rect x="0" y="0" width="32" height="32" rx="0"/></clipPath></defs><g clip-path="url(#master_svg0_134_16059)"><g><path d="M15,9L15,19.172L12.414,16.586L11,18L16,23L21,18L19.586,16.586L17,19.172L17,9L15,9Z" fill="#000000" fill-opacity="1"/></g><g><path d="M19.758,26.65L16,28.842L5,22.426000000000002L5,18L3,18L3,23C3,23.355,3.189,23.685,3.496,23.864L15.496,30.864C15.652,30.955,15.826,31,16,31C16.174,31,16.348,30.955,16.503999999999998,30.864L20.786,28.366L19.758,26.65Z" fill="#000000" fill-opacity="1"/></g><g><path d="M28.504001281738283,8.135999908447266L24.23500128173828,5.645999908447266L23.20600128173828,7.3609999084472655L27.00000128173828,9.573999908447266L27.00000128173828,22.425999908447267L23.212999341738282,24.634999908447266L24.242001281738283,26.349999908447266L28.504001281738283,23.863999908447266C28.81100128173828,23.684999908447267,29.00000128173828,23.354999908447265,29.00000128173828,22.999999908447265L29.00000128173828,8.999999908447265C29.00000128173828,8.644999908447266,28.81100128173828,8.314999908447266,28.504001281738283,8.135999908447266Z" fill="#000000" fill-opacity="1"/></g><g><path d="M5,9.574L16,3.157L19.751,5.345L20.78,3.63L16.503999999999998,1.1360000000000001C16.348,1.045,16.174,1,16,1C15.826,1,15.652,1.045,15.496,1.1360000000000001L3.496,8.136C3.189,8.315000000000001,3,8.645,3,9L3,14L5,14L5,9.574Z" fill="#000000" fill-opacity="1"/></g><g></g></g></svg>