<svg xmlns="http://www.w3.org/2000/svg" xmlns:xlink="http://www.w3.org/1999/xlink" fill="none" version="1.1" width="32" height="32" viewBox="0 0 32 32"><defs><clipPath id="master_svg0_134_15574"><rect x="0" y="0" width="32" height="32" rx="0"/></clipPath></defs><g clip-path="url(#master_svg0_134_15574)"><g><path d="M19.999999778747558,26.99999964752197C17.02049977874756,26.99999964752197,14.230699778747558,25.828099647521974,12.144499778747559,23.700199647521973L13.572699778747559,22.300099647521975C15.279499778747558,24.04119964752197,17.56219977874756,25.000099647521974,19.999899778747558,25.000099647521974C24.962499778747556,25.000099647521974,28.999899778747558,20.962699647521973,28.999899778747558,16.00009964752197C28.999899778747558,13.629599647521973,28.08609977874756,11.392199647521974,26.426699778747558,9.699699647521973L27.85489977874756,8.299599647521973C29.882999778747557,10.368199647521973,30.999899778747558,13.102899647521973,30.999899778747558,16.000199647521974C30.999899778747558,22.06559964752197,26.06529977874756,27.000199647521974,19.999999778747558,26.99999964752197Z" fill="#000000" fill-opacity="1"/></g><g><ellipse cx="24" cy="5" rx="2" ry="2" fill="#000000" fill-opacity="1"/></g><g><path d="M20.414099999999998,14.5859L17.4141,11.5859C17.0367,11.208,16.5342,11,16,11C15.4658,11,14.9634,11.208,14.5857,11.5859L11.5859,14.5859C11.196,14.9755,11,15.4878,11,16C11,16.5122,11.196,17.0244,11.5859,17.4141L14.5857,20.414099999999998C14.9634,20.792,15.4658,21,16,21C16.5342,21,17.0366,20.792,17.4141,20.414099999999998L20.414099999999998,17.4141C20.804000000000002,17.0245,21,16.5122,21,16C21,15.4878,20.804000000000002,14.9756,20.414099999999998,14.5859ZM16,19L13,16L16,13L18.9998,16L16,19Z" fill="#000000" fill-opacity="1"/></g><g><ellipse cx="8" cy="27" rx="2" ry="2" fill="#000000" fill-opacity="1"/></g><g><path d="M4.29930023841858,23.855C2.171600238418579,21.7689,1.000000238418579,18.979300000000002,1.000000238418579,16C0.9999999999995791,9.9346,5.934600238418579,5,12.000000238418579,5C14.979500238418579,5,17.76930023841858,6.1719,19.85550023841858,8.2998L18.427300238418578,9.6999C16.72050023841858,7.9588,14.437800238418578,6.9999,12.000100238418579,6.9999C7.037500238418579,6.9999,3.0001002384185793,11.0373,3.0001002384185793,15.9999C3.0001002384185793,18.4375,3.958800238418579,20.72,5.699800238418579,22.4269L4.29930023841858,23.855Z" fill="#000000" fill-opacity="1"/></g><g></g></g></svg>