<svg xmlns="http://www.w3.org/2000/svg" xmlns:xlink="http://www.w3.org/1999/xlink" fill="none" version="1.1" width="32" height="32" viewBox="0 0 32 32"><defs><clipPath id="master_svg0_134_15871"><rect x="0" y="0" width="32" height="32" rx="0"/></clipPath></defs><g clip-path="url(#master_svg0_134_15871)"><g><path d="M4,28C2.3,28,1,26.7,1,25C1,23.3,2.3,22,4,22C5.7,22,7,23.3,7,25C7,26.7,5.7,28,4,28ZM4,24C3.4,24,3,24.4,3,25C3,25.6,3.4,26,4,26C4.6,26,5,25.6,5,25C5,24.4,4.6,24,4,24Z" fill="#000000" fill-opacity="1"/></g><g><path d="M28,28C26.3,28,25,26.7,25,25C25,23.3,26.3,22,28,22C29.7,22,31,23.3,31,25C31,26.7,29.7,28,28,28ZM28,24C27.4,24,27,24.4,27,25C27,25.6,27.4,26,28,26C28.6,26,29,25.6,29,25C29,24.4,28.6,24,28,24Z" fill="#000000" fill-opacity="1"/></g><g><path d="M22.4,4.400000095367432L21.5,6.2000000953674315C26.1,8.400000095367432,29,13.000000095367431,29,18.000000095367433C29,18.700000095367432,28.9,19.40000009536743,28.8,20.10000009536743L30.8,20.40000009536743C30.9,19.60000009536743,31,18.80000009536743,31,17.90000009536743C31,12.200000095367432,27.6,6.900000095367432,22.4,4.400000095367432Z" fill="#000000" fill-opacity="1"/></g><g><path d="M16,7C14.3,7,13,5.7,13,4C13,2.3,14.3,1,16,1C17.7,1,19,2.3,19,4C19,5.7,17.7,7,16,7ZM16,3C15.4,3,15,3.4,15,4C15,4.6,15.4,5,16,5C16.6,5,17,4.6,17,4C17,3.4,16.6,3,16,3Z" fill="#000000" fill-opacity="1"/></g><g><path d="M25.4999552482605,13.6L24.4999552482605,11.9L16.9999552482605,16.3L16.9999552482605,9L14.999955248260498,9L14.999955248260498,16.2L6.199995248260498,11C5.699995248260498,10.7,5.100000248260498,10.9,4.799999248260498,11.3C4.499999248260498,11.7,4.699999848260498,12.4,5.100000248260498,12.7L13.999995248260499,18L7.7999952482604975,21.6L8.799995248260498,23.3L14.999955248260498,19.7L14.999955248260498,30C14.999955248260498,30.6,15.399955248260499,31,15.999955248260498,31C16.5999552482605,31,16.9999552482605,30.6,16.9999552482605,30L16.9999552482605,19.8L23.199955248260498,23.5L24.199955248260498,21.8L17.9999552482605,18L25.4999552482605,13.6Z" fill="#000000" fill-opacity="1"/></g><g></g></g></svg>