<svg xmlns="http://www.w3.org/2000/svg" xmlns:xlink="http://www.w3.org/1999/xlink" fill="none" version="1.1" width="32" height="32" viewBox="0 0 32 32"><defs><clipPath id="master_svg0_134_15061"><rect x="0" y="0" width="32" height="32" rx="0"/></clipPath></defs><g clip-path="url(#master_svg0_134_15061)"><g><path d="M20,18L14,18C12.3431,18,11,19.3431,11,21L11,23L13,23L13,21C13,20.4477,13.447700000000001,20,14,20L20,20C20.552300000000002,20,21,20.4477,21,21L21,23L23,23L23,21C23,19.3431,21.6569,18,20,18Z" fill="#000000" fill-opacity="1"/></g><g><path d="M17,17C19.2091,17,21,15.2091,21,13C21,10.7909,19.2091,9,17,9C14.7909,9,13,10.7909,13,13C13,15.2091,14.7909,17,17,17ZM17,11C18.104599999999998,11,19,11.8954,19,13C19,14.1046,18.104599999999998,15,17,15C15.8954,15,15,14.1046,15,13C15,11.8954,15.8954,11,17,11Z" fill="#000000" fill-opacity="1"/></g><g><path d="M17,30C9.2803,30,3,23.7196,3,16L5,16C5,22.616799999999998,10.383099999999999,28,17,28C22.2263,28,26.8162,24.6615,28.4214,19.6926L30.3247,20.307299999999998C28.4517,26.104799999999997,23.0969,29.9999,17,30Z" fill="#000000" fill-opacity="1"/></g><g><path d="M31,16L29,16C29,9.3832,23.6167,4,17,4L17,2C24.7197,2,31,8.2804,31,16Z" fill="#000000" fill-opacity="1"/></g><g><path d="M6,14L3.8613,12.9873C2.123,12.165,1,10.3906,1,8.4678L1,2L11,2L11,8.4678C11,10.3907,9.877,12.1651,8.1387,12.9873L6,14ZM3,4L3,8.4678C3,9.6211,3.6738,10.6856,4.7168,11.1787L6,11.7861L7.2832,11.1787C8.3262,10.6855,9,9.6211,9,8.4678L9,4L3,4Z" fill="#000000" fill-opacity="1"/></g><g></g></g></svg>