<svg xmlns="http://www.w3.org/2000/svg" xmlns:xlink="http://www.w3.org/1999/xlink" fill="none" version="1.1" width="32" height="32" viewBox="0 0 32 32"><defs><clipPath id="master_svg0_134_15248"><rect x="0" y="0" width="32" height="32" rx="0"/></clipPath></defs><g clip-path="url(#master_svg0_134_15248)"><g><path d="M26,14.1L26,2L21,2L21,4L24,4L24,6L21,6L21,8L24,8L24,14.1C22.3,14.5,21,16.1,21,18C21,20.2,22.8,22,25,22C27.2,22,29,20.2,29,18C29,16.1,27.7,14.6,26,14.1ZM25,20C23.9,20,23,19.1,23,18C23,16.9,23.9,16,25,16C26.1,16,27,16.9,27,18C27,19.1,26.1,20,25,20Z" fill="#000000" fill-opacity="1"/></g><g><path d="M15,31L9.5,27.8C6.1,25.8,4,22.2,4,18.3L4,4C4,2.9,4.9,2,6,2L18,2L18,4L6,4L6,18.3C6,21.5,7.7,24.5,10.5,26.1L15,28.8L19.5,26.1C20.6,25.4,21.6,24.6,22.3,23.5L23.9,24.6C23,25.9,21.8,27,20.4,27.8L15,31Z" fill="#000000" fill-opacity="1"/></g><g></g></g></svg>