<svg xmlns="http://www.w3.org/2000/svg" xmlns:xlink="http://www.w3.org/1999/xlink" fill="none" version="1.1" width="32" height="32" viewBox="0 0 32 32"><defs><clipPath id="master_svg0_134_15454"><rect x="0" y="0" width="32" height="32" rx="0"/></clipPath></defs><g clip-path="url(#master_svg0_134_15454)"><g><path d="M26,32L23.8613,30.988300000000002C22.123,30.165100000000002,21,28.3906,21,26.4678L21,20L31,20L31,26.4678C31,28.3916,29.877000000000002,30.165100000000002,28.1387,30.987299999999998L26,32ZM24.7168,29.1797L26,29.787100000000002L27.2832,29.1797C28.3262,28.686500000000002,29,27.6221,29,26.4678L29,22L23,22L23,26.4678C23,27.6221,23.6738,28.6866,24.7168,29.1797Z" fill="#000000" fill-opacity="1"/></g><g><path d="M17,10.5859C16.6248,10.2109,16.1162,10,15.5857,10L10,10C8.8955,10,8,10.8955,8,12L8,26C8,27.1045,8.8955,28,10,28L19,28L19,26L10,26L10,12L14,12L14,16C14,17.1045,14.8955,18,16,18L20.2917,18C20.9846,18,21.6037,17.5864,21.8688,16.9463C22.1344,16.3057,21.9889,15.575199999999999,21.4987,15.085L17,10.5859ZM16,16L16,12.4141L19.5852,16L16,16Z" fill="#000000" fill-opacity="1"/></g><g><path d="M28,6L16,6L12.5859,2.5859C12.2107,2.2109,11.7021,2,11.1716,2L4,2C2.8955,2,2,2.8955,2,4L2,24C2,25.1045,2.8955,26,4,26L6,26L6,24L4,24L4,4L11.1716,4L15.1716,8L28,8L28,18L30,18L30,8C30,6.8955,29.1045,6,28,6Z" fill="#000000" fill-opacity="1"/></g><g></g></g></svg>