<svg xmlns="http://www.w3.org/2000/svg" xmlns:xlink="http://www.w3.org/1999/xlink" fill="none" version="1.1" width="32" height="32" viewBox="0 0 32 32"><defs><clipPath id="master_svg0_134_15986"><rect x="0" y="0" width="32" height="32" rx="0"/></clipPath></defs><g clip-path="url(#master_svg0_134_15986)"><g><path d="M27.924798551559448,19.428199331665038C26.801798551559447,21.03859933166504,24.96069855155945,21.999999331665038,22.999998551559447,21.999999331665038C20.87669855155945,21.999999331665038,18.95359855155945,20.91259933166504,17.856198551559448,19.09079933166504L16.143298551559447,20.12299933166504C17.60569855155945,22.55069933166504,20.168898551559447,23.999999331665038,22.999998551559447,23.999999331665038C24.42309855155945,23.999999331665038,25.792498551559447,23.60889933166504,26.992198551559447,22.91649933166504C24.64799855155945,26.61229933166504,20.51079855155945,28.999999331665038,15.999998551559449,28.999999331665038C10.289598551559449,28.999999331665038,5.165298551559449,25.18159933166504,3.538298551559448,19.71480033166504L1.6212985515594482,20.285099331665037C3.498698551559448,26.59369933166504,9.411298551559447,30.99989933166504,15.999998551559449,30.99989933166504C22.58869855155945,30.99989933166504,28.501198551559447,26.59369933166504,30.37869855155945,20.285099331665037L27.924798551559448,19.428199331665038Z" fill="#000000" fill-opacity="1"/></g><g><ellipse cx="30" cy="16" rx="2" ry="2" fill="#000000" fill-opacity="1"/></g><g><ellipse cx="2" cy="16" rx="2" ry="2" fill="#000000" fill-opacity="1"/></g><g><ellipse cx="16" cy="16" rx="2" ry="2" fill="#000000" fill-opacity="1"/></g><g><path d="M15.999999982070923,1C9.411399982070922,1,3.498799982070923,5.4062,1.6212999820709229,11.7148L4.075199982070923,12.5717C5.198199982070923,10.9613,7.039299982070923,9.9999,8.999999982070923,9.9999C10.960699982070922,9.9999,12.801799982070923,10.9613,13.924799982070923,12.5717L15.565399982070923,11.4277C14.068299982070922,9.2812,11.613999982070922,8,8.999999982070923,8C7.576899982070922,8,6.207499982070923,8.3911,5.007799982070923,9.0835C7.3519999820709225,5.3882,11.489199982070923,3,15.999999982070923,3C21.71039998207092,3,26.834699982070923,6.8184,28.461699982070922,12.2852L30.378699982070923,11.7149C28.501299982070922,5.4063,22.588699982070924,1.000100136,15.999999982070923,1Z" fill="#000000" fill-opacity="1"/></g><g><g></g></g></g></svg>