<svg xmlns="http://www.w3.org/2000/svg" xmlns:xlink="http://www.w3.org/1999/xlink" fill="none" version="1.1" width="32" height="32" viewBox="0 0 32 32"><defs><clipPath id="master_svg0_134_15519"><rect x="0" y="0" width="32" height="32" rx="0"/></clipPath></defs><g clip-path="url(#master_svg0_134_15519)"><g><path d="M13,27L10,27C6.1401,27,3,23.8599,3,20L3,18L5,18L5,20C5,22.7568,7.2432,25,10,25L13,25L13,27Z" fill="#000000" fill-opacity="1"/></g><g><path d="M25,27L21,27C19.897499,27,19,26.1025,19,25L19,21C19,19.897499,19.897499,19,21,19L25,19C26.1025,19,27,19.897499,27,21L27,25C27,26.1025,26.1025,27,25,27ZM21,21L20.998,21L21,25L25,25L25,21L21,21Z" fill="#000000" fill-opacity="1"/></g><g><rect x="25" y="15" width="2" height="2" rx="0" fill="#000000" fill-opacity="1"/></g><g><rect x="29" y="19" width="2" height="2" rx="0" fill="#000000" fill-opacity="1"/></g><g><rect x="29" y="23" width="2" height="2" rx="0" fill="#000000" fill-opacity="1"/></g><g><rect x="15" y="21" width="2" height="2" rx="0" fill="#000000" fill-opacity="1"/></g><g><rect x="15" y="25" width="2" height="2" rx="0" fill="#000000" fill-opacity="1"/></g><g><rect x="15" y="29" width="2" height="2" rx="0" fill="#000000" fill-opacity="1"/></g><g><rect x="19" y="29" width="2" height="2" rx="0" fill="#000000" fill-opacity="1"/></g><g><path d="M27,13L27,11C27,7.1401,23.8599,4,20,4L13,4L13,6L20,6C22.7568,6,25,8.2432,25,11L25,13L27,13Z" fill="#000000" fill-opacity="1"/></g><g><path d="M10,8L10,4C10,2.8954,9.1046,2,8,2L2,2L2,15L4,15L4,10L5.48,10L7.82,15L10,15L7.67,10L8,10C9.1046,10,10,9.1046,10,8ZM4,4L8,4L8,8L4,8L4,4Z" fill="#000000" fill-opacity="1"/></g><g></g></g></svg>