<svg xmlns="http://www.w3.org/2000/svg" xmlns:xlink="http://www.w3.org/1999/xlink" fill="none" version="1.1" width="32" height="32" viewBox="0 0 32 32"><defs><clipPath id="master_svg0_134_15313"><rect x="0" y="0" width="32" height="32" rx="0"/></clipPath></defs><g clip-path="url(#master_svg0_134_15313)"><g><path d="M20.999977003479003,18.999977003479003C20.826977003479,19.002377003479005,20.654977003479004,19.027277003479004,20.488377003479002,19.074277003479004L18.706997003479003,17.292997003479L18.681297003479003,17.318697003479002C19.106277003479004,16.490917003479005,19.106277003479004,15.509087003479003,18.681297003479003,14.681297003479003L18.706997003479003,14.706997003479003L20.488377003479002,12.925697003479003C21.712177003479006,13.266507003479003,22.945577003479002,12.414867003479003,23.060377003479005,11.149727003479004C23.175277003479003,9.884588003479005,22.115377003479004,8.824761003479004,20.850277003479004,8.939616203479003C19.585177003479004,9.054471003479003,18.733497003479002,10.287827003479004,19.074277003479004,11.511597003479004L17.292997003479,13.292997003479003L17.318697003479002,13.318697003479004C16.490917003479005,12.893767003479004,15.509087003479003,12.893767003479004,14.681297003479003,13.318697003479004L14.706997003479003,13.292997003479003L12.925697003479003,11.511597003479004C13.266507003479003,10.287827003479004,12.414867003479003,9.054471003479003,11.149727003479004,8.939616203479003C9.884590003479005,8.824761003479004,8.824762003479004,9.884589003479004,8.939616203479003,11.149727003479004C9.054470003479004,12.414867003479003,10.287827003479004,13.266507003479003,11.511597003479004,12.925697003479003L13.292997003479003,14.706997003479003L13.318797003479004,14.681197003479003C12.893737003479004,15.509027003479005,12.893737003479004,16.490977003479003,13.318797003479004,17.318797003479006L13.292997003479003,17.292997003479L11.511597003479004,19.074277003479004C10.287827003479004,18.733487003479006,9.054471003479003,19.585177003479004,8.939616203479003,20.850277003479004C8.824761003479004,22.115377003479004,9.884589003479004,23.175277003479003,11.149727003479004,23.060377003479005C12.414867003479003,22.945577003479002,13.266507003479003,21.712177003479006,12.925697003479003,20.488377003479002L14.706997003479003,18.706997003479003L14.681197003479003,18.681197003479006C15.509027003479005,19.106277003479004,16.490977003479003,19.106277003479004,17.318797003479006,18.681197003479006L17.292997003479,18.706997003479003L19.074277003479004,20.488377003479002C18.776917003479006,21.620077003479004,19.512477003479006,22.763577003479003,20.665577003479005,22.962277003479002C21.818677003479003,23.160877003479,22.894477003479004,22.329377003479003,22.992877003479002,21.163377003479006C23.091277003479004,19.997477003479005,22.170077003479005,18.997477003479005,20.999977003479003,18.999977003479003ZM15.999997003479004,16.999997003479002C15.447717003479003,16.999997003479002,14.999997003479004,16.552287003479,14.999997003479004,15.999997003479004C14.999997003479004,15.447717003479003,15.447717003479003,14.999997003479004,15.999997003479004,14.999997003479004C16.552287003479,14.999997003479004,16.999997003479002,15.447717003479003,16.999997003479002,15.999997003479004C16.999667003479004,16.552147003479003,16.552147003479003,16.999667003479004,15.999997003479004,16.999997003479002Z" fill="#000000" fill-opacity="1"/></g><g><path d="M16,30.999962210655212C15.823,31.00026221065521,15.6491,30.95336221065521,15.4961,30.864262210655212L3.4961,23.864262210655212C3.188881,23.68496221065521,3,23.35586221065521,3,22.999962210655212L3,9.000002210655213C2.999863863,8.644302210655212,3.188797,8.315332210655212,3.4961,8.136202210655213L15.4961,1.1362002106552125C15.8075,0.9545497106552124,16.192500000000003,0.9545497106552124,16.5039,1.1362002106552125L28.5039,8.136202210655213L27.4961,9.863802210655212L16,3.1577022106552124L5,9.574202210655212L5,22.42576221065521L16,28.842762210655213L27,22.42576221065521L27,14.999962210655212L29,14.999962210655212L29,22.999962210655212C29,23.35576221065521,28.8111,23.68486221065521,28.5039,23.864262210655212L16.5039,30.864262210655212C16.3509,30.95336221065521,16.177,31.00026221065521,16,30.999962210655212Z" fill="#000000" fill-opacity="1"/></g><g></g></g></svg>