<svg xmlns="http://www.w3.org/2000/svg" xmlns:xlink="http://www.w3.org/1999/xlink" fill="none" version="1.1" width="32" height="32" viewBox="0 0 32 32"><defs><clipPath id="master_svg0_134_15752"><rect x="0" y="0" width="32" height="32" rx="0"/></clipPath></defs><g clip-path="url(#master_svg0_134_15752)"><g><path d="M24.999998483276368,20.999999572753907C24.26039848327637,20.999999572753907,23.57589848327637,21.215499572753906,22.980898483276366,21.566899572753908L20.94949848327637,19.535499572753906L19.535398483276367,20.949599572753907L21.56679848327637,22.980999572753905C21.215398483276367,23.575999572753908,20.999998483276368,24.260499572753908,20.999998483276368,24.999999572753907C20.999998483276368,27.205599572753904,22.794398483276368,28.999999572753907,24.999998483276368,28.999999572753907C25.355698483276367,28.999999572753907,25.694298483276366,28.938499572753905,26.022798483276368,28.850799572753907L23.585998483276366,26.413999572753905L23.585998483276366,26.413999572753905C23.224298483276367,26.05139957275391,22.999998483276368,25.55139957275391,22.999998483276368,24.999899572753908C22.999998483276368,23.896899572753906,23.896998483276366,22.999899572753908,24.999998483276368,22.999899572753908C25.55149848327637,22.999899572753908,26.05149848327637,23.224099572753907,26.413598483276367,23.586299572753905L26.413598483276367,23.586299572753905L28.850798483276368,26.022599572753904C28.93829848327637,25.694199572753906,28.999898483276368,25.355599572753906,28.999898483276368,24.999899572753908C28.999898483276368,22.794299572753907,27.205498483276365,20.999899572753908,24.999998483276368,20.999999572753907Z" fill="#000000" fill-opacity="1"/></g><g><path d="M20.949499572753908,12.464400817871093L24.713999572753906,8.699900817871093C25.105099572753907,8.886700817871095,25.53769957275391,8.999900817871094,26.000099572753907,8.999900817871094C27.656999572753904,8.999900817871094,29.000099572753907,7.656800817871094,29.000099572753907,5.999900817871094C29.000099572753907,4.3430008178710935,27.656999572753904,2.9999008178710938,26.000099572753907,2.9999008178710938C24.343199572753907,2.9999008178710938,23.000099572753907,4.3430008178710935,23.000099572753907,5.999900817871094C23.000099572753907,6.462100817871094,23.113299572753906,6.894700817871094,23.299999572753904,7.285800817871094L19.535499572753906,11.050300817871094L20.949499572753908,12.464400817871093ZM25.999999572753907,5.0000008178710935C26.55139957275391,5.0000008178710935,26.999999572753907,5.448600817871094,26.999999572753907,6.0000008178710935C26.999999572753907,6.551400817871094,26.55139957275391,7.0000008178710935,25.999999572753907,7.0000008178710935C25.448599572753906,7.0000008178710935,24.999999572753907,6.551400817871094,24.999999572753907,6.0000008178710935C24.999999572753907,5.448600817871094,25.448599572753906,5.0000008178710935,25.999999572753907,5.0000008178710935Z" fill="#000000" fill-opacity="1"/></g><g><path d="M15.999999658966065,12C13.790799658966064,12,11.999999658966065,13.7908,11.999999658966065,16C11.999999658966065,16.7405,12.214999658966065,17.4254,12.565699658966064,18.0201L7.286199658966065,23.3C6.895099658966064,23.1132,6.462399658966064,23,6.0000996589660645,23C4.343199658966064,23,3.0000996589660645,24.3431,3.0000996589660645,26C3.0000996589660645,27.6569,4.343199658966064,29,6.0000996589660645,29C7.656999658966065,29,9.000099658966064,27.6569,9.000099658966064,26C9.000099658966064,25.5378,8.886899658966065,25.1052,8.700199658966064,24.714199999999998L13.980099658966065,19.4343C14.574899658966064,19.785,15.259599658966064,20,16.000099658966064,20C18.209199658966064,20,20.000099658966064,18.2091,20.000099658966064,16C20.000099658966064,13.7909,18.209199658966064,12,15.999999658966065,12ZM5.999999658966065,27C5.448599658966065,27,4.999999658966065,26.5514,4.999999658966065,26C4.999999658966065,25.4486,5.448599658966065,25,5.999999658966065,25C6.551399658966064,25,6.999999658966065,25.4486,6.999999658966065,26C6.999999658966065,26.5514,6.551399658966064,27,5.999999658966065,27ZM15.999999658966065,18C14.897199658966064,18,13.999999658966065,17.102800000000002,13.999999658966065,16C13.999999658966065,14.8972,14.897199658966064,14,15.999999658966065,14C17.102799658966063,14,17.999999658966065,14.8972,17.999999658966065,16C17.999999658966065,17.102800000000002,17.102799658966063,18,15.999999658966065,18Z" fill="#000000" fill-opacity="1"/></g><g><path d="M6.999999897384644,11C7.739599897384643,11,8.424099897384643,10.784500000000001,9.019099897384644,10.4331L11.050199897384644,12.4642L12.464299897384644,11.0501L10.433199897384643,9.019C10.784599897384645,8.424,10.999999897384644,7.7395,10.999999897384644,7C10.999999897384644,4.7943999999999996,9.205599897384644,3,6.999999897384644,3C6.644299897384643,3,6.305699897384644,3.0615001,5.977199897384644,3.1492L8.413999897384643,5.586L8.413999897384643,5.586C8.775699897384644,5.9486,8.999999897384644,6.4486,8.999999897384644,7.0001C8.999999897384644,8.103100000000001,8.102999897384644,9.0001,6.999999897384644,9.0001C6.448499897384643,9.0001,5.948499897384643,8.7759,5.586399897384643,8.4137L5.586399897384643,8.4137L3.1491998973846433,5.977399999999999C3.0616998973846434,6.3058,3.0000998973846436,6.6444,3.0000998973846436,7.0001C3.0000998973846436,9.2057,4.794499897384643,11.0001,6.999999897384644,11Z" fill="#000000" fill-opacity="1"/></g><g></g></g></svg>