<svg xmlns="http://www.w3.org/2000/svg" xmlns:xlink="http://www.w3.org/1999/xlink" fill="none" version="1.1" width="32" height="32" viewBox="0 0 32 32"><defs><clipPath id="master_svg0_134_15602"><rect x="0" y="0" width="32" height="32" rx="0"/></clipPath></defs><g clip-path="url(#master_svg0_134_15602)"><g><path d="M5,25C3.895431,25,3,25.89543,3,27C3,28.10457,3.895431,29,5,29C6.10457,29,7,28.10457,7,27C6.99676,25.896776,6.10322,25.00324059,5,25Z" fill="#000000" fill-opacity="1"/></g><g><path d="M16,25C14.895431,25,14,25.89543,14,27C14,28.10457,14.895431,29,16,29C17.10457,29,18,28.10457,18,27C17.996760000000002,25.896774,17.10322,25.00323868,16,25Z" fill="#000000" fill-opacity="1"/></g><g><path d="M27,25C25.895431,25,25,25.89543,25,27C25,28.10457,25.895431,29,27,29C28.10457,29,29,28.10457,29,27C28.996760000000002,25.896776,28.10322,25.00324059,27,25Z" fill="#000000" fill-opacity="1"/></g><g><path d="M28,23L26,23L26,11C25.996760000000002,9.89678,25.10322,9.00324,24,9L22,9L22,7L24,7C26.20645,7.00648022,27.99352,8.79355,28,11L28,23Z" fill="#000000" fill-opacity="1"/></g><g><rect x="15" y="12" width="2" height="11" rx="0" fill="#000000" fill-opacity="1"/></g><g><path d="M6,23L4,23L4,11C4.00647974,8.79355,5.79355,7.00647974,8,7L10,7L10,9L8,9C6.89678,9.00324,6.00324,9.89678,6,11L6,23Z" fill="#000000" fill-opacity="1"/></g><g><path d="M16.000000079345703,2L14.700000079345703,4.6343L11.794300079345703,5.0543L13.897200079345703,7.1057L13.400000079345704,10L16.000000079345703,8.6343L18.600000079345705,10L18.102800079345705,7.1057L20.205700079345704,5.0571L17.300000079345704,4.6343L16.000000079345703,2Z" fill="#000000" fill-opacity="1"/></g><g></g></g></svg>