<svg xmlns="http://www.w3.org/2000/svg" xmlns:xlink="http://www.w3.org/1999/xlink" fill="none" version="1.1" width="32" height="32" viewBox="0 0 32 32"><defs><clipPath id="master_svg0_134_15975"><rect x="0" y="0" width="32" height="32" rx="0"/></clipPath></defs><g clip-path="url(#master_svg0_134_15975)"><g><path d="M22.169999923706055,16L19.590000123706055,18.58L20.999999923706056,20L24.999999923706056,16L20.999999923706056,12L19.579999923706055,13.41L22.169999923706055,16Z" fill="#000000" fill-opacity="1"/></g><g><path d="M15.500000173950195,21L13.585100173950195,20.4229L16.500000173950195,11L18.414900173950194,11.577101L15.500000173950195,21Z" fill="#000000" fill-opacity="1"/></g><g><path d="M9.83,16L12.41,13.42L11,12L7,16L11,20L12.42,18.59L9.83,16Z" fill="#000000" fill-opacity="1"/></g><g><ellipse cx="19" cy="28" rx="1" ry="1" fill="#000000" fill-opacity="1"/></g><g><path d="M22,29L22,27C24.7568,27,27,24.7568,27,22L27,10C27,7.2432,24.7568,5,22,5L16,5L16,3L22,3C25.8594,3,29,6.1401,29,10L29,22C29,25.8594,25.8594,29,22,29Z" fill="#000000" fill-opacity="1"/></g><g><ellipse cx="13" cy="4" rx="1" ry="1" fill="#000000" fill-opacity="1"/></g><g><path d="M16,29L10,29C6.1406,29,3,25.8594,3,22L3,10C3,6.1401,6.1406,3,10,3L10,5C7.2432,5,5,7.2432,5,10L5,22C5,24.7568,7.2432,27,10,27L16,27L16,29Z" fill="#000000" fill-opacity="1"/></g><g></g></g></svg>