<svg xmlns="http://www.w3.org/2000/svg" xmlns:xlink="http://www.w3.org/1999/xlink" fill="none" version="1.1" width="32" height="32" viewBox="0 0 32 32"><defs><clipPath id="master_svg0_134_24159"><rect x="0" y="0" width="32" height="32" rx="0"/></clipPath></defs><g clip-path="url(#master_svg0_134_24159)"><g><rect x="10" y="9" width="2" height="2" rx="0" fill="#000000" fill-opacity="1"/></g><g><path d="M18,23L14,23L14,9L18,9C20.209139999999998,9,22,10.79086,22,13L22,19C22,21.2091,20.209139999999998,23,18,23ZM16,21L18,21C19.10457,21,20,20.104599999999998,20,19L20,13C20,11.895430000000001,19.10457,11,18,11L16,11L16,21Z" fill="#000000" fill-opacity="1"/></g><g><rect x="10" y="13" width="2" height="10" rx="0" fill="#000000" fill-opacity="1"/></g><g></g></g></svg>