<svg xmlns="http://www.w3.org/2000/svg" xmlns:xlink="http://www.w3.org/1999/xlink" fill="none" version="1.1" width="32" height="32" viewBox="0 0 32 32"><defs><clipPath id="master_svg0_134_16092"><rect x="0" y="0" width="32" height="32" rx="0"/></clipPath></defs><g clip-path="url(#master_svg0_134_16092)"><g><rect x="11" y="24" width="10" height="2" rx="0" fill="#000000" fill-opacity="1"/></g><g><rect x="13" y="28" width="6" height="2" rx="0" fill="#000000" fill-opacity="1"/></g><g><path d="M16.00004507064819,2C10.477155070648195,2,6.0000000006481935,6.47715,6.0000000006481935,12C5.862815070648193,14.9482,7.1499750706481935,17.783,9.459995070648194,19.62C10.459995070648194,20.55,10.999995070648193,21.08,10.999995070648193,22L12.999995070648193,22C12.999995070648193,20.16,11.890005070648193,19.13,10.809995070648194,18.14C8.912175070648193,16.686700000000002,7.8593650706481935,14.3862,7.999995070648193,12C7.999995070648193,7.58172,11.581725070648194,4,16.00004507064819,4C20.418245070648194,4,24.000045070648195,7.58172,24.000045070648195,12C24.138345070648192,14.388,23.081545070648193,16.6888,21.18004507064819,18.14C20.11004507064819,19.14,19.00004507064819,20.14,19.00004507064819,22L21.00004507064819,22C21.00004507064819,21.08,21.530045070648193,20.55,22.540045070648194,19.61C24.848445070648193,17.7761,26.13554507064819,14.9451,26.000045070648195,12C26.000045070648195,6.47715,21.522845070648195,2,16.00004507064819,2Z" fill="#000000" fill-opacity="1"/></g><g></g></g></svg>