<svg xmlns="http://www.w3.org/2000/svg" xmlns:xlink="http://www.w3.org/1999/xlink" fill="none" version="1.1" width="32" height="32" viewBox="0 0 32 32"><defs><clipPath id="master_svg0_134_16099"><rect x="0" y="0" width="32" height="32" rx="0"/></clipPath></defs><g clip-path="url(#master_svg0_134_16099)"><g><path d="M28,6L28,26L4,26L4,6L28,6ZM28,4L4,4C2.895431,4,2,4.895431,2,6L2,26C2,27.1046,2.895431,28,4,28L28,28C29.1046,28,30,27.1046,30,26L30,6C30,4.895431,29.1046,4,28,4Z" fill="#000000" fill-opacity="1"/></g><g><rect x="6" y="10" width="7" height="2" rx="0" fill="#000000" fill-opacity="1"/></g><g><rect x="6" y="14" width="4" height="2" rx="0" fill="#000000" fill-opacity="1"/></g><g><path d="M23,18L17,18C15.34315,18,14,19.34315,14,21L14,23L16,23L16,21C16,20.44771,16.44772,20,17,20L23,20C23.55229,20,24,20.44771,24,21L24,23L26,23L26,21C26,19.34315,24.6569,18,23,18Z" fill="#000000" fill-opacity="1"/></g><g><path d="M20,17C22.209139999999998,17,24,15.20914,24,13C24,10.79086,22.209139999999998,9,20,9C17.79086,9,16,10.79086,16,13C16,15.20914,17.79086,17,20,17ZM20,11C21.10457,11,22,11.895430000000001,22,13C22,14.104569999999999,21.10457,15,20,15C18.89543,15,18,14.104569999999999,18,13C18,11.895430000000001,18.89543,11,20,11Z" fill="#000000" fill-opacity="1"/></g><g></g></g></svg>