<svg xmlns="http://www.w3.org/2000/svg" xmlns:xlink="http://www.w3.org/1999/xlink" fill="none" version="1.1" width="32" height="32" viewBox="0 0 32 32"><defs><clipPath id="master_svg0_134_16184"><rect x="0" y="0" width="32" height="32" rx="0"/></clipPath></defs><g clip-path="url(#master_svg0_134_16184)"><g><path d="M23.76420137939453,6.8593000839233405L25.04930137939453,5.327800083923339C23.80790137939453,4.27706008392334,22.39263137939453,3.4510680839233396,20.867200379394532,2.88700008392334L20.18360137939453,4.76460008392334C21.48992137939453,5.24917008392334,22.70164137939453,5.9580500839233395,23.76420137939453,6.8593000839233405Z" fill="#000000" fill-opacity="1"/></g><g><path d="M27.810000942993163,14.000000073242187L29.777700942993164,13.587200073242187C29.501100942993165,11.989370073242188,28.946830942993163,10.452320073242188,28.140000942993165,9.045700073242188L26.408700942993164,10.000000073242187C27.099731942993163,11.244010073242187,27.573620942993163,12.596720073242187,27.810000942993163,14.000000073242187Z" fill="#000000" fill-opacity="1"/></g><g><path d="M20.1835994720459,27.23539938659668L20.8671984720459,29.11299938659668C22.392629472045897,28.54892938659668,23.807899472045897,27.72293938659668,25.0492994720459,26.67219938659668L23.7641994720459,25.14069938659668C22.701639472045898,26.04195638659668,21.489919472045898,26.75082938659668,20.1835994720459,27.23539938659668Z" fill="#000000" fill-opacity="1"/></g><g><path d="M26.408700942993164,22.000000802612306L28.140000942993165,23.000000802612306C28.947300942993163,21.577210802612306,29.501590942993165,20.025120802612303,29.778200942993163,18.412799802612305L27.810000942993163,18.065900802612305C27.573420942993163,19.448310802612305,27.099322942993165,20.779320802612304,26.408700942993164,22.000000802612306Z" fill="#000000" fill-opacity="1"/></g><g><path d="M16,30L16,2C8.26801,2,2,8.26801,2,16C2,23.732,8.26801,30,16,30Z" fill="#000000" fill-opacity="1"/></g><g></g></g></svg>