<svg xmlns="http://www.w3.org/2000/svg" xmlns:xlink="http://www.w3.org/1999/xlink" fill="none" version="1.1" width="32" height="32" viewBox="0 0 32 32"><defs><clipPath id="master_svg0_134_16222"><rect x="0" y="0" width="32" height="32" rx="0"/></clipPath></defs><g clip-path="url(#master_svg0_134_16222)"><g><path d="M29.53,6.15C29.2206,5.97137,28.8394,5.97137,28.53,6.15L20,10.38L20,7C19.9977,6.25658,19.2139,5.77546,18.55,6.11L10,10.38L10,3C10,2.447715,9.55229,2,9,2L3,2C2.447715,2,2,2.447715,2,3L2,28L30,28L30,7C30.0007,6.6545,29.823,6.33312,29.53,6.15ZM22,26L18,26L18,19L22,19L22,26ZM28,26L24,26L24,18C24,17.447699999999998,23.5523,17,23,17L17,17C16.447699999999998,17,16,17.447699999999998,16,18L16,26L4,26L4,4L8,4L8,13.62L18,8.620000000000001L18,13.62L28,8.620000000000001L28,26Z" fill="#000000" fill-opacity="1"/></g><g></g></g></svg>