<svg xmlns="http://www.w3.org/2000/svg" xmlns:xlink="http://www.w3.org/1999/xlink" fill="none" version="1.1" width="32" height="32" viewBox="0 0 32 32"><defs><clipPath id="master_svg0_134_16227"><rect x="0" y="0" width="32" height="32" rx="0"/></clipPath></defs><g clip-path="url(#master_svg0_134_16227)"><g><path d="M23,23C17.3442,23,15.1423,16.589100000000002,15.0513,16.3163C15.034,16.2649,13.2078,11,9,11C6.2429,11,4,13.243,4,16C4,18.756999999999998,6.2429,21,9,21C10.5876,21,12.0134,20.2678,13.2373,18.8236L14.7632,20.116799999999998C13.1643,22.003,11.1716,23,9,23C5.1401,23,2,19.8599,2,16C2,12.1401,5.1401,9,9,9C14.6558,9,16.8577,15.4109,16.948700000000002,15.6837C16.966,15.7351,18.7922,21,23,21C25.7571,21,28,18.756999999999998,28,16C28,13.243,25.7571,11,23,11C21.4124,11,19.9866,11.7322,18.7627,13.176400000000001L17.236800000000002,11.8832C18.8357,9.997,20.8284,9,23,9C26.8599,9,30,12.1401,30,16C30,19.8599,26.8599,23,23,23Z" fill="#000000" fill-opacity="1"/></g><g></g></g></svg>