<svg xmlns="http://www.w3.org/2000/svg" xmlns:xlink="http://www.w3.org/1999/xlink" fill="none" version="1.1" width="32" height="32" viewBox="0 0 32 32"><defs><clipPath id="master_svg0_134_16259"><rect x="0" y="0" width="32" height="32" rx="0"/></clipPath></defs><g clip-path="url(#master_svg0_134_16259)"><g></g><g><path d="M26,4L6,4C4.895431,4,4,4.895431,4,6L4,26C4,27.1046,4.895431,28,6,28L26,28C27.1046,28,28,27.1046,28,26L28,6C28,4.895431,27.1046,4,26,4ZM16,8C16.828400000000002,8,17.5,8.67157,17.5,9.5C17.5,10.32843,16.828400000000002,11,16,11C15.1716,11,14.5,10.32843,14.5,9.5C14.5,8.67157,15.1716,8,16,8ZM20,24.125L12,24.125L12,21.875L14.875,21.875L14.875,16.125L13,16.125L13,13.875L17.125,13.875L17.125,21.875L20,21.875L20,24.125Z" fill="#000000" fill-opacity="1"/></g><g></g></g></svg>