<svg xmlns="http://www.w3.org/2000/svg" xmlns:xlink="http://www.w3.org/1999/xlink" fill="none" version="1.1" width="32" height="32" viewBox="0 0 32 32"><defs><clipPath id="master_svg0_134_16290"><rect x="0" y="0" width="32" height="32" rx="0"/></clipPath></defs><g clip-path="url(#master_svg0_134_16290)"><g><path d="M2,9L11,9L11,2L2,2L2,9ZM4,4L9,4L9,7L4,7L4,4Z" fill="#000000" fill-opacity="1"/></g><g><path d="M2,19L11,19L11,12L2,12L2,19ZM4,14L9,14L9,17L4,17L4,14Z" fill="#000000" fill-opacity="1"/></g><g><path d="M2,29L11,29L11,22L2,22L2,29ZM4,24L9,24L9,27L4,27L4,24Z" fill="#000000" fill-opacity="1"/></g><g><path d="M27,9L18,9L21.41,5.41L20,4L14,10L20,16L21.41,14.59L18,11L27,11C27.552300000000002,11,28,11.44771,28,12L28,24C28,24.5523,27.552300000000002,25,27,25L15,25L15,27L27,27C28.6569,27,30,25.6569,30,24L30,12C30,10.34315,28.6569,9,27,9Z" fill="#000000" fill-opacity="1"/></g><g></g></g></svg>