<svg xmlns="http://www.w3.org/2000/svg" xmlns:xlink="http://www.w3.org/1999/xlink" fill="none" version="1.1" width="32" height="32" viewBox="0 0 32 32"><defs><clipPath id="master_svg0_134_16298"><rect x="0" y="0" width="32" height="32" rx="0"/></clipPath></defs><g clip-path="url(#master_svg0_134_16298)"><g><path d="M26,30L24,30L24,20L12,20L12,30L10,30L10,20C10.00115681,18.89591,10.89591,18.00115776,12,18L24,18C25.104100000000003,18.00115776,25.9988,18.89591,26,20L26,30Z" fill="#000000" fill-opacity="1"/></g><g><path d="M5.17,16.000000076293944L2,19.170000076293945L3.411,20.589000076293946L8,16.000000076293944L3.42,11.420000076293945L2,12.830000076293945L5.17,16.000000076293944Z" fill="#000000" fill-opacity="1"/></g><g><path d="M24,14L12,14C10.89591,13.9988,10.00115776,13.1041,10,12L10,2L12,2L12,12L24,12L24,2L26,2L26,12C25.9988,13.1041,25.104100000000003,13.9988,24,14Z" fill="#000000" fill-opacity="1"/></g><g></g></g></svg>