<svg xmlns="http://www.w3.org/2000/svg" xmlns:xlink="http://www.w3.org/1999/xlink" fill="none" version="1.1" width="32" height="32" viewBox="0 0 32 32"><defs><clipPath id="master_svg0_134_16312"><rect x="0" y="0" width="32" height="32" rx="0"/></clipPath></defs><g clip-path="url(#master_svg0_134_16312)"><g><path d="M15,17.18000015258789L12.41,14.59000015258789L11,16.00000015258789L15,20.00000015258789L22,13.00000015258789L20.59,11.59000015258789L15,17.18000015258789Z" fill="#000000" fill-opacity="1"/></g><g><path d="M30,15L27.9492,15C27.4546,9.17004,22.83,4.5453600000000005,17,4.050800000000001L17,2L15,2L15,4.050800000000001C9.17004,4.5453600000000005,4.5453600000000005,9.17004,4.050800000000001,15L2,15L2,17L4.050800000000001,17C4.5453600000000005,22.83,9.17004,27.4546,15,27.9492L15,30L17,30L17,27.9492C22.83,27.4546,27.4546,22.83,27.9492,17L30,17L30,15ZM17,25.9492L17,23L15,23L15,25.9492C10.27149,25.4672,6.53279,21.7285,6.0508,17L9,17L9,15L6.0508,15C6.53279,10.27149,10.27149,6.53279,15,6.0508L15,9L17,9L17,6.0508C21.7285,6.53279,25.4672,10.27149,25.9492,15L23,15L23,17L25.949,17C25.4671,21.7285,21.7284,25.4672,17,25.9492Z" fill="#000000" fill-opacity="1"/></g><g></g></g></svg>