<svg xmlns="http://www.w3.org/2000/svg" xmlns:xlink="http://www.w3.org/1999/xlink" fill="none" version="1.1" width="32" height="32" viewBox="0 0 32 32"><defs><clipPath id="master_svg0_134_16351"><rect x="0" y="0" width="32" height="32" rx="0"/></clipPath></defs><g clip-path="url(#master_svg0_134_16351)"><g><path d="M22,5L20,5L18,8.897L16,5L14,5L16.905,10L14,15L16,15L18,11.201L20,15L22,15L19.098,10L22,5Z" fill="#000000" fill-opacity="1"/></g><g><path d="M10,2L8.485,6.374L8,8L7.535,6.374L6,2L4,2L4,15L6,15L6,7.374L5.841,5.378L6.420999999999999,7.374L8,12L9.579,7.374L10.158999999999999,5.3740000000000006L10,7.374L10,15L12,15L12,2L10,2Z" fill="#000000" fill-opacity="1"/></g><g><ellipse cx="9" cy="27" rx="1" ry="1" fill="#000000" fill-opacity="1"/></g><g><rect x="2" y="18" width="4" height="2" rx="0" fill="#000000" fill-opacity="1"/></g><g><rect x="8" y="18" width="4" height="2" rx="0" fill="#000000" fill-opacity="1"/></g><g><rect x="14" y="18" width="4" height="2" rx="0" fill="#000000" fill-opacity="1"/></g><g><rect x="20" y="18" width="4" height="2" rx="0" fill="#000000" fill-opacity="1"/></g><g><rect x="26" y="18" width="4" height="2" rx="0" fill="#000000" fill-opacity="1"/></g><g><path d="M26,31L6,31C4.89591,30.99884,4.00115824,30.10409,4,29L4,25C4.00115728,23.89591,4.89591,23.00115776,6,23L26,23C27.1041,23.00115776,27.9988,23.89591,28,25L28,29C27.9988,30.10409,27.1041,30.99884,26,31ZM6,25L6,29L26,29L26,25L6,25Z" fill="#000000" fill-opacity="1"/></g><g></g></g></svg>