<svg xmlns="http://www.w3.org/2000/svg" xmlns:xlink="http://www.w3.org/1999/xlink" fill="none" version="1.1" width="32" height="32" viewBox="0 0 32 32"><defs><clipPath id="master_svg0_134_16331"><rect x="0" y="0" width="32" height="32" rx="0"/></clipPath></defs><g clip-path="url(#master_svg0_134_16331)"><g><path d="M23.499974763870238,21.000001115894317L22.999974763870238,21.000001115894317L22.999974763870238,19.000001115894317L23.499974763870238,19.000001115894317C25.91527476387024,19.00100111589432,27.89997476387024,17.094201115894318,27.99577476387024,14.680801115894317C28.091574763870238,12.267501115894317,26.26407476387024,10.209411115894317,23.85637476387024,10.019001115894318L23.04097476387024,9.955101115894317L22.94237476387024,9.143101115894318C22.51267476387024,5.635651115894317,19.53417476387024,2.9997511158943175,16.000474763870237,2.9997511158943175C12.466874763870239,2.9997511158943175,9.48830476387024,5.635651115894317,9.058604763870239,9.143101115894318L8.959504763870239,9.955101115894317L8.144004763870239,10.019001115894318C5.73637476387024,10.209411115894317,3.9089547638702395,12.267401115894318,4.004614763870239,14.680601115894317C4.100274763870239,17.09390111589432,6.084854763870239,19.00080111589432,8.50000476387024,19.000001115894317L9.00000476387024,19.000001115894317L9.00000476387024,21.000001115894317L8.50000476387024,21.000001115894317C5.163514763870239,21.001501115894317,2.368243763870239,18.475601115894317,2.0327720638702393,15.156001115894318C1.6972997638702392,11.836401115894317,3.9306847638702394,8.802311115894318,7.200004763870239,8.136201115894318C8.078224763870239,3.9765611158943175,11.74895476387024,0.9999011158943176,16.000274763870237,0.9999011158943176C20.251674763870238,0.9999008178713177,23.922374763870238,3.9765611158943175,24.80057476387024,8.136201115894318C28.06957476387024,8.802761115894317,30.30247476387024,11.836801115894318,29.96687476387024,15.156201115894318C29.631274763870238,18.475501115894318,26.83627476387024,21.001301115894318,23.499974763870238,21.000001115894317Z" fill="#000000" fill-opacity="1"/></g><g><ellipse cx="9" cy="27" rx="1" ry="1" fill="#000000" fill-opacity="1"/></g><g><path d="M26,23L17,23L17,15.83L19.59,18.41L21,17L16,12L11,17L12.41,18.41L15,15.83L15,23L6,23C4.895956,23.0013,4.00126648,23.896,4,25L4,29C4.00126839,30.104,4.895956,30.9987,6,31L26,31C27.104,30.9987,27.9987,30.104,28,29L28,25C27.9987,23.896,27.104,23.0013,26,23ZM26,29L6,29L6,25L26,25L26,29Z" fill="#000000" fill-opacity="1"/></g><g></g></g></svg>