<svg xmlns="http://www.w3.org/2000/svg" xmlns:xlink="http://www.w3.org/1999/xlink" fill="none" version="1.1" width="32" height="32" viewBox="0 0 32 32"><defs><clipPath id="master_svg0_134_16381"><rect x="0" y="0" width="32" height="32" rx="0"/></clipPath></defs><g clip-path="url(#master_svg0_134_16381)"><g><path d="M23,27.200000381469728L20.4,24.600000381469727L19,26.000000381469725L23,30.000000381469725L31,22.000000381469725L29.6,20.600000381469727L23,27.200000381469728Z" fill="#000000" fill-opacity="1"/></g><g><path d="M15.4,30L5,23.8C4.4,23.4,4,22.8,4,22.1L4,9.9C4,9.2,4.4,8.5,5,8.2L15,2.3C15.3,2.0999999,15.6,2,16,2C16.4,2,16.7,2.0999999,17,2.3L27,8.2C27.6,8.6,28,9.2,28,9.9L28,16L26,16L26,9.9L16,4L6,9.9L6,22.1L16.5,28.3L15.4,30Z" fill="#000000" fill-opacity="1"/></g><g></g></g></svg>