<svg xmlns="http://www.w3.org/2000/svg" xmlns:xlink="http://www.w3.org/1999/xlink" fill="none" version="1.1" width="32" height="32" viewBox="0 0 32 32"><defs><clipPath id="master_svg0_134_16440"><rect x="0" y="0" width="32" height="32" rx="0"/></clipPath></defs><g clip-path="url(#master_svg0_134_16440)"><g><path d="M22,24L18,24L18,22L22,22L22,18L24,18L24,22C23.99884,23.10409,23.10409,23.99884,22,24Z" fill="#000000" fill-opacity="1"/></g><g><path d="M10,14L8,14L8,10C8.00121212,8.895933,8.895933,8.00121212,10,8L14,8L14,10L10,10L10,14Z" fill="#000000" fill-opacity="1"/></g><g><path d="M28,8L24,8L24,4C23.9987,2.895955,23.104,2.00126648,22,2L4,2C2.895956,2.00126719,2.00126719,2.895956,2,4L2,22C2.00126648,23.104,2.895955,23.9987,4,24L8,24L8,28C8.00127,29.104,8.895959999999999,29.9987,10,30L28,30C29.104,29.9987,29.9987,29.104,30,28L30,10C29.9987,8.895959999999999,29.104,8.00127,28,8ZM28,28L10,28L10,24L14,24L14,22L10,22L10,18L8,18L8,22L4,22L4,4L22,4L22,8L18,8L18,10L22,10L22,14L24,14L24,10L28,10L28,28Z" fill="#000000" fill-opacity="1"/></g><g></g></g></svg>