<svg xmlns="http://www.w3.org/2000/svg" xmlns:xlink="http://www.w3.org/1999/xlink" fill="none" version="1.1" width="32" height="32" viewBox="0 0 32 32"><defs><clipPath id="master_svg0_134_16414"><rect x="0" y="0" width="32" height="32" rx="0"/></clipPath></defs><g clip-path="url(#master_svg0_134_16414)"><g><path d="M19,20.4L20.4,19L28,26.6L28,20L30,20L30,30L20,30L20,28L26.6,28L19,20.4Z" fill="#000000" fill-opacity="1"/></g><g><path d="M13,20.4L11.6,19L4,26.6L4,20L2,20L2,30L12,30L12,28L5.4,28L13,20.4Z" fill="#000000" fill-opacity="1"/></g><g><path d="M17,16L15,16L15,5.8L10.4,10.4L9,9L16,2L23,9L21.6,10.4L17,5.8L17,16Z" fill="#000000" fill-opacity="1"/></g><g></g></g></svg>