<svg xmlns="http://www.w3.org/2000/svg" xmlns:xlink="http://www.w3.org/1999/xlink" fill="none" version="1.1" width="32" height="32" viewBox="0 0 32 32"><defs><clipPath id="master_svg0_134_16456"><rect x="0" y="0" width="32" height="32" rx="0"/></clipPath></defs><g clip-path="url(#master_svg0_134_16456)"><g><rect x="19" y="24" width="4" height="4" rx="0" fill="#000000" fill-opacity="1"/></g><g><rect x="26" y="24" width="4" height="4" rx="0" fill="#000000" fill-opacity="1"/></g><g><rect x="19" y="17" width="4" height="4" rx="0" fill="#000000" fill-opacity="1"/></g><g><rect x="26" y="17" width="4" height="4" rx="0" fill="#000000" fill-opacity="1"/></g><g><path d="M17,24L4,24L4,10L28,10L28,15L30,15L30,10C29.9987,8.895959999999999,29.104,8.00127,28,8L22,8L22,4C21.9987,2.895956,21.104,2.00126863,20,2L12,2C10.89589,2.00110173,10.0011,2.895887,10,4L10,8L4,8C2.8958880000000002,8.001100000000001,2.00110269,8.89589,2,10L2,24C2.00126648,25.104,2.895955,25.9987,4,26L17,26L17,24ZM12,4L20,4L20,8L12,8L12,4Z" fill="#000000" fill-opacity="1"/></g><g></g></g></svg>