<svg xmlns="http://www.w3.org/2000/svg" xmlns:xlink="http://www.w3.org/1999/xlink" fill="none" version="1.1" width="32" height="32" viewBox="0 0 32 32"><defs><clipPath id="master_svg0_134_16471"><rect x="0" y="0" width="32" height="32" rx="0"/></clipPath></defs><g clip-path="url(#master_svg0_134_16471)"><g><path d="M30,19L26,19L26,15L24,15L24,24L8,24L8,8L17,7.9991L17,6L13,6L13,2L11,2L11,6L8,6C6.89589,6.0011,6.0011,6.89589,6,8L6,11L2,11L2,13L6,13L6,19L2,19L2,21L6,21L6,24C6.00127,25.104,6.89596,25.9987,8,26L11,26L11,30L13,30L13,26L19,26L19,30L21,30L21,26L24,26C25.104,25.9985,25.9985,25.104,26,24L26,21L30,21L30,19Z" fill="#000000" fill-opacity="1"/></g><g><path d="M21,21L11,21L11,11L21,11L21,21ZM13,19L19,19L19,13L13,13L13,19Z" fill="#000000" fill-opacity="1"/></g><g><path d="M31,13L29,13C28.99355,7.47983,24.52018,3.00645,19,3L19,1C25.62442,1.00721824,30.992800000000003,6.37557,31,13Z" fill="#000000" fill-opacity="1"/></g><g><path d="M26,13L24,13C23.99675,10.23992,21.76008,8.00325,19,8L19,6C22.86405,6.00468302,25.99532,9.13595,26,13Z" fill="#000000" fill-opacity="1"/></g><g></g></g></svg>