<svg xmlns="http://www.w3.org/2000/svg" xmlns:xlink="http://www.w3.org/1999/xlink" fill="none" version="1.1" width="32" height="32" viewBox="0 0 32 32"><defs><clipPath id="master_svg0_134_16492"><rect x="0" y="0" width="32" height="32" rx="0"/></clipPath></defs><g clip-path="url(#master_svg0_134_16492)"><g><rect x="21" y="13" width="3" height="6" rx="0" fill="#000000" fill-opacity="1"/></g><g><path d="M28,6L4,6C2.895431,6,2,6.895431,2,8L2,24C2,25.1046,2.895431,26,4,26L28,26C29.1046,26,30,25.1046,30,24L30,8C30,6.895431,29.1046,6,28,6ZM8,21L6,21L6,11L8,11L8,21ZM17,13L12,13L12,15L15,15C16.104599999999998,15,17,15.89543,17,17L17,19C17,20.104599999999998,16.104599999999998,21,15,21L10,21L10,19L15,19L15,17L12,17C10.89543,17,10,16.104599999999998,10,15L10,13C10,11.895430000000001,10.89543,11,12,11L17,11L17,13ZM26,19C26,20.104599999999998,25.1046,21,24,21L21,21C19.8954,21,19,20.104599999999998,19,19L19,13C19,11.895430000000001,19.8954,11,21,11L24,11C25.1046,11,26,11.895430000000001,26,13L26,19Z" fill="#000000" fill-opacity="1"/></g><g></g></g></svg>