<svg xmlns="http://www.w3.org/2000/svg" xmlns:xlink="http://www.w3.org/1999/xlink" fill="none" version="1.1" width="32" height="32" viewBox="0 0 32 32"><defs><clipPath id="master_svg0_134_16519"><rect x="0" y="0" width="32" height="32" rx="0"/></clipPath></defs><g clip-path="url(#master_svg0_134_16519)"><g><path d="M20.00000053100586,6.000000000001367C18.62395053100586,5.999770641651367,17.26289053100586,6.285619092651367,16.00320053100586,6.839400092651367C16.80820253100586,7.191868092651367,17.56310053100586,7.649158092651367,18.24830053100586,8.199398092651368C23.25471053100586,7.060798092651368,28.022400531005857,10.865948092651367,28.022400531005857,16.000198092651367C28.022400531005857,21.134498092651366,23.25471053100586,24.939598092651366,18.24830053100586,23.800998092651366C17.56310053100586,24.351198092651366,16.80820253100586,24.808498092651366,16.00320053100586,25.16099809265137C21.81704053100586,27.69759809265137,28.49290053100586,24.248498092651367,29.78820053100586,18.039098092651365C31.08400053100586,11.830368092651367,26.343700531005858,5.999999046325367,20.00000053100586,6.000000000001367Z" fill="#000000" fill-opacity="1"/></g><g><path d="M12,16.000000630187987C12.00610065,19.74010063018799,14.599730000000001,22.978200630187988,18.2483,23.800800630187986C23.2506,19.803200630187987,23.2506,12.19683063018799,18.2483,8.199200630187988C14.599730000000001,9.021794630187989,12.00610256,12.259860630187989,12,16.000000630187987Z" fill="#000000" fill-opacity="1"/></g><g></g><g><path d="M9.999995930633546,16.000040715789794C10.005095930633544,12.025480715789794,12.360985930633545,8.430430715789795,16.003185930633546,6.839400715789795C9.396065930633544,3.946860715789795,1.992785930633545,8.787430715789796,1.992785930633545,16.000040715789794C1.992788195613545,23.212540715789796,9.396065930633544,28.053140715789795,16.003185930633546,25.160640715789796C12.360985930633545,23.569540715789795,10.005095930633544,19.974540715789793,9.999995930633546,16.000040715789794Z" fill="#000000" fill-opacity="1"/></g><g></g></g></svg>