<svg xmlns="http://www.w3.org/2000/svg" xmlns:xlink="http://www.w3.org/1999/xlink" fill="none" version="1.1" width="32" height="32" viewBox="0 0 32 32"><defs><clipPath id="master_svg0_134_16527"><rect x="0" y="0" width="32" height="32" rx="0"/></clipPath></defs><g clip-path="url(#master_svg0_134_16527)"><g><path d="M20,5.999999999999842C18.62306,5.999630451162842,17.26103,6.284943523162842,16,6.837900523162842C19.6441,8.426949523162842,22.00006,12.024509523162841,22.00006,15.999999523162842C22.00006,19.975499523162842,19.6441,23.572999523162842,16,25.16209952316284C21.81435,27.700999523162842,28.4926,24.252599523162843,29.789099999999998,18.041999523162843C31.086100000000002,11.832129523162841,26.345100000000002,5.999999523162842,20,5.999999999999842Z" fill="#000000" fill-opacity="1"/></g><g><path d="M9.999997196655274,15.999956451416015C10.000587196655273,12.024696451416016,12.356317196655274,8.427446451416015,16.00001719665527,6.837900451416016C9.393257196655274,3.9484864514160156,1.9930171966552734,8.789046451416016,1.9930171966552734,15.999956451416015C1.9930188655852734,23.210956451416017,9.393257196655274,28.051556451416015,16.00001719665527,25.162056451416017C12.355717196655274,23.571656451416015,9.999997196655274,19.974356451416014,9.999997196655274,15.999956451416015Z" fill="#000000" fill-opacity="1"/></g><g></g></g></svg>