<svg xmlns="http://www.w3.org/2000/svg" xmlns:xlink="http://www.w3.org/1999/xlink" fill="none" version="1.1" width="32" height="32" viewBox="0 0 32 32"><defs><clipPath id="master_svg0_134_16628"><rect x="0" y="0" width="32" height="32" rx="0"/></clipPath></defs><g clip-path="url(#master_svg0_134_16628)"><g><path d="M22.504599864196777,11.636799100646973L16.516299864196778,8.136800100646973C16.356899864196777,8.043499900646973,16.178199864196777,7.998099800646973,15.999899864196777,8.000100135846973C15.829999864196777,8.002099990646972,15.660499864196776,8.047500600646973,15.508399864196777,8.135800100646973L9.496699864196778,11.635799100646972C9.189099864196777,11.814999100646972,8.999899864196777,12.144099100646972,8.999899864196777,12.500099100646974L8.999899864196777,19.500139100646972C8.999899864196777,19.85613910064697,9.189099864196777,20.185239100646974,9.496699864196778,20.364439100646972L15.508399864196777,23.864439100646972C15.663899864196777,23.954739100646975,15.825999864196778,24.000139100646972,15.999899864196777,24.000139100646972C16.174199864196776,24.000139100646972,16.360299864196776,23.954739100646975,16.516299864196778,23.86343910064697L22.504599864196777,20.36343910064697C22.811499864196776,20.184239100646973,22.999999864196777,19.855639100646975,22.999999864196777,19.500139100646972L22.999999864196777,12.500099100646974C22.999999864196777,12.144599100646973,22.811499864196776,11.815999100646973,22.504599864196777,11.636799100646973ZM16.010699864196777,10.157799100646972L20.018299864196777,12.500099100646974L16.010699864196777,14.842399100646972L11.987499864196778,12.500099100646974L16.010699864196777,10.157799100646972ZM10.999999864196777,14.239299100646972L14.999999864196777,16.56839910064697L14.999999864196777,21.253939100646974L10.999999864196777,18.92483910064697L10.999999864196777,14.239299100646972ZM16.999999864196777,21.264239100646975L16.999999864196777,16.58059910064697L20.999999864196777,14.242699100646973L20.999999864196777,18.92633910064697L16.999999864196777,21.264239100646975Z" fill="#000000" fill-opacity="1"/></g><g><path d="M16.000000476837158,30.999999940395355C15.825900476837159,30.999999940395355,15.651900476837158,30.954599940395354,15.496100476837158,30.863799940395356L3.4961004768371584,23.863799940395356C3.1890004768371583,23.684599940395355,3.000000476837158,23.355699940395354,3.000000476837158,22.999999940395355L3.000000476837158,8.999999940395355C3.000000476837158,8.644299940395356,3.1890004768371583,8.315399940395356,3.4961004768371584,8.136199940395354L15.496100476837158,1.1361999403953553C15.651900476837158,1.0453999403953553,15.825900476837159,0.9999999403953552,16.000000476837158,0.9999999403953552C16.174100476837157,0.9999999403953552,16.34810047683716,1.0453999403953553,16.50390047683716,1.1361999403953553L27.50390047683716,7.552799940395356L26.496100476837157,9.280299940395356L16.000000476837158,3.157599940395355L5.000000476837158,9.574199940395355L5.000000476837158,22.425499940395355L16.000000476837158,28.842099940395354L27.000000476837158,22.425499940395355L27.000000476837158,14.999799940395356L29.000000476837158,14.999799940395356L29.000000476837158,22.999799940395356C29.000000476837158,23.355499940395354,28.811000476837158,23.684399940395355,28.50390047683716,23.863599940395357L16.50390047683716,30.863599940395357C16.34810047683716,30.954399940395355,16.174100476837157,30.999799940395356,16.000000476837158,30.999999940395355Z" fill="#000000" fill-opacity="1"/></g><g></g></g></svg>