<svg xmlns="http://www.w3.org/2000/svg" xmlns:xlink="http://www.w3.org/1999/xlink" fill="none" version="1.1" width="32" height="32" viewBox="0 0 32 32"><defs><clipPath id="master_svg0_134_16621"><rect x="0" y="0" width="32" height="32" rx="0"/></clipPath></defs><g clip-path="url(#master_svg0_134_16621)"><g><ellipse cx="16" cy="9" rx="2" ry="2" fill="#000000" fill-opacity="1"/></g><g><ellipse cx="16" cy="16" rx="2" ry="2" fill="#000000" fill-opacity="1"/></g><g><path d="M18.8157,26.000000476837158C18.5137,25.152800476837157,17.8472,24.486300476837158,17,24.18410047683716L17,22.000000476837158L20,22.000000476837158C20.2969,22.000000476837158,20.5781,21.86820047683716,20.7683,21.64010047683716L25.7683,15.640100476837159C25.9665,15.402300476837159,26.0434,15.085400476837158,25.9761,14.783200476837159L23.9761,5.783200476837158C23.9065,5.468700476837158,23.6897,5.207500476837158,23.3938,5.081100476837158L16.3938,2.0811004768371584C16.2681,2.0269005768371584,16.134,2.000000476837158,16,2.000000476837158C15.866,2.000000476837158,15.7319,2.0269005768371584,15.6062,2.0811004768371584L8.604700000000001,5.081100476837158C8.3088,5.2076004768371575,8.091999999999999,5.468800476837158,8.0222,5.783200476837158L6.0237,14.783200476837159C5.9566,15.085900476837159,6.0335,15.402300476837159,6.2317,15.640100476837159L11.2317,21.64010047683716C11.4219,21.868100476837157,11.7031,22.000000476837158,12,22.000000476837158L15,22.000000476837158L15,24.184600476837158C14.1528,24.486400476837158,13.4863,25.152900476837157,13.1843,26.000000476837158L4,26.000000476837158L4,28.000000476837158L13.1843,28.000000476837158C13.5984,29.16110047683716,14.698,30.000000476837158,16,30.000000476837158C17.302,30.000000476837158,18.401600000000002,29.16110047683716,18.8157,28.000000476837158L28,28.000000476837158L28,26.000000476837158L18.8157,26.000000476837158ZM8.082799999999999,14.737300476837158L9.8636,6.717300476837158L16.0001,4.087900476837158L22.1351,6.717300476837158L23.9173,14.737300476837158L19.5318,20.000000476837158L12.4683,20.000000476837158L8.082799999999999,14.737300476837158ZM16,28.000000476837158C15.4485,28.000000476837158,15,27.55130047683716,15,27.000000476837158C15,26.448700476837157,15.4485,26.000000476837158,16,26.000000476837158C16.5515,26.000000476837158,17,26.448700476837157,17,27.000000476837158C17,27.55130047683716,16.5515,28.000000476837158,16,28.000000476837158Z" fill="#000000" fill-opacity="1"/></g><g></g></g></svg>