<svg xmlns="http://www.w3.org/2000/svg" xmlns:xlink="http://www.w3.org/1999/xlink" fill="none" version="1.1" width="32" height="32" viewBox="0 0 32 32"><defs><clipPath id="master_svg0_134_24743"><rect x="0" y="0" width="32" height="32" rx="0"/></clipPath></defs><g clip-path="url(#master_svg0_134_24743)"><g><ellipse cx="23" cy="25" rx="1" ry="1" fill="#000000" fill-opacity="1"/></g><g><path d="M26,22L26,28L6,28L6,22L26,22ZM26,20L6,20C4.895431,20,4,20.895431,4,22L4,28C4,29.104570000000002,4.895431,30,6,30L26,30C27.1046,30,28,29.104570000000002,28,28L28,22C28,20.895431,27.1046,20,26,20Z" fill="#000000" fill-opacity="1"/></g><g><path d="M20.59,4.59L17,8.17L17,0L15,0L15,8.17L11.41,4.59L10,6L16,12L22,6L20.59,4.59Z" fill="#000000" fill-opacity="1"/></g><g><path d="M20.59,10.59000015258789L16,15.160000152587891L11.41,10.59000015258789L10,12.00000015258789L16,18.00000015258789L22,12.00000015258789L20.59,10.59000015258789Z" fill="#000000" fill-opacity="1"/></g><g><rect x="8" y="24" width="12" height="2" rx="0" fill="#000000" fill-opacity="1"/></g><g></g></g></svg>