<svg xmlns="http://www.w3.org/2000/svg" xmlns:xlink="http://www.w3.org/1999/xlink" fill="none" version="1.1" width="32" height="32" viewBox="0 0 32 32"><defs><clipPath id="master_svg0_134_16666"><rect x="0" y="0" width="32" height="32" rx="0"/></clipPath></defs><g clip-path="url(#master_svg0_134_16666)"><g><path d="M26,28L6,28C4.896048,27.9985,4.00148773,27.104,4,26L4,6C4.00148678,4.896047,4.896047,4.00148678,6,4L16,4L16,6L6,6L6,26L26,26L26,16L28,16L28,26C27.9985,27.104,27.104,27.9985,26,28Z" fill="#000000" fill-opacity="1"/></g><g><path d="M20,2L20,4L26.586,4L18,12.586L19.414,14L28,5.414L28,12L30,12L30,2L20,2Z" fill="#000000" fill-opacity="1"/></g><g></g></g></svg>