<svg xmlns="http://www.w3.org/2000/svg" xmlns:xlink="http://www.w3.org/1999/xlink" fill="none" version="1.1" width="32" height="32" viewBox="0 0 32 32"><defs><clipPath id="master_svg0_134_16699"><rect x="0" y="0" width="32" height="32" rx="0"/></clipPath></defs><g clip-path="url(#master_svg0_134_16699)"><g><path d="M24,23L19,23C17.895431,23,17,22.104570000000002,17,21L17,15C17,13.895431,17.895431,13,19,13L24,13L24,15L19,15L19,21L24,21L24,23Z" fill="#000000" fill-opacity="1"/></g><g><path d="M15,23L9,23C7.895431,23,7,22.104599999999998,7,21L7,11C7,9.895431,7.895431,9,9,9L15,9L15,11L9,11L9,21L15,21L15,23Z" fill="#000000" fill-opacity="1"/></g><g><g></g></g></g></svg>