<svg xmlns="http://www.w3.org/2000/svg" xmlns:xlink="http://www.w3.org/1999/xlink" fill="none" version="1.1" width="32" height="32" viewBox="0 0 32 32"><defs><clipPath id="master_svg0_134_16780"><rect x="0" y="0" width="32" height="32" rx="0"/></clipPath></defs><g clip-path="url(#master_svg0_134_16780)"><g><path d="M23,13L17,13L17,27L19,27L19,23L23,23C24.10457,23,25,22.104570000000002,25,21L25,15C25,13.895431,24.10457,13,23,13ZM19,21L19,15L23,15L23,21L19,21Z" fill="#000000" fill-opacity="1"/></g><g><path d="M9,23L7,23L7,9L13,9C14.104569999999999,9,15,9.895431,15,11L15,16C15,17.104570000000002,14.104569999999999,18,13,18L9,18L9,23ZM9,16L13,16L13,11L9,11L9,16Z" fill="#000000" fill-opacity="1"/></g><g></g></g></svg>