<svg xmlns="http://www.w3.org/2000/svg" xmlns:xlink="http://www.w3.org/1999/xlink" fill="none" version="1.1" width="32" height="32" viewBox="0 0 32 32"><defs><clipPath id="master_svg0_134_16865"><rect x="0" y="0" width="32" height="32" rx="0"/></clipPath></defs><g clip-path="url(#master_svg0_134_16865)"><g><path d="M22,14C17.58172,14,14,17.58172,14,22C14,26.418300000000002,17.58172,30,22,30C26.418300000000002,30,30,26.418300000000002,30,22C29.9949,17.58382,26.4162,14.00507069,22,14ZM27.91,21L25.9563,21C25.8264,19.49205,25.413,18.02217,24.738,16.6675C26.4176,17.5328,27.592399999999998,19.137529999999998,27.91,21ZM20.055500000000002,21C20.23941,19.19257,20.91158,17.46923,22,16.0146C23.08859,17.46917,23.76087,19.192529999999998,23.9448,21L20.055500000000002,21ZM23.9455,23C23.76147,24.8076,23.088929999999998,26.531,22,27.9854C20.91142,26.5308,20.23913,24.807499999999997,20.0552,23L23.9455,23ZM19.2624,16.668C18.58715,18.02244,18.17361,19.49217,18.0435,21L16.09,21C16.40764,19.13777,17.58238,17.53327,19.2624,16.668L19.2624,16.668ZM16.09,23L18.0432,23C18.173090000000002,24.5078,18.58639,25.9775,19.261400000000002,27.332C17.5822,26.4667,16.40757,24.8622,16.09,23ZM24.7382,27.332C25.4133,25.9775,25.8266,24.5078,25.9565,23L27.91,23C27.592599999999997,24.862299999999998,26.4179,26.4668,24.7382,27.332L24.7382,27.332Z" fill="#000000" fill-opacity="1"/></g><g><rect x="6" y="14" width="6" height="2" rx="0" fill="#000000" fill-opacity="1"/></g><g><rect x="6" y="6" width="12" height="2" rx="0" fill="#000000" fill-opacity="1"/></g><g><rect x="6" y="10" width="12" height="2" rx="0" fill="#000000" fill-opacity="1"/></g><g><rect x="6" y="24" width="6" height="2" rx="0" fill="#000000" fill-opacity="1"/></g><g><path d="M12,30L4,30C2.895911,29.9988,2.00115824,29.1041,2,28L2,4C2.00115776,2.8959099999999998,2.895911,2.00115776,4,2L20,2C21.1041,2.00115728,21.9988,2.8959099999999998,22,4L22,12L20,12L20,4L4,4L4,28L12,28L12,30Z" fill="#000000" fill-opacity="1"/></g><g></g></g></svg>