<svg xmlns="http://www.w3.org/2000/svg" xmlns:xlink="http://www.w3.org/1999/xlink" fill="none" version="1.1" width="32" height="32" viewBox="0 0 32 32"><defs><clipPath id="master_svg0_134_16855"><rect x="0" y="0" width="32" height="32" rx="0"/></clipPath></defs><g clip-path="url(#master_svg0_134_16855)"><g><rect x="8" y="6" width="12" height="2" rx="0" fill="#000000" fill-opacity="1"/></g><g><rect x="8" y="10" width="12" height="2" rx="0" fill="#000000" fill-opacity="1"/></g><g><rect x="8" y="14" width="6" height="2" rx="0" fill="#000000" fill-opacity="1"/></g><g><rect x="8" y="24" width="4" height="2" rx="0" fill="#000000" fill-opacity="1"/></g><g><path d="M29.707,19.293003760375978L26.707,16.292999760375977C26.3166,15.902285560375976,25.68336,15.902285560375976,25.293,16.292999760375977L16,25.585903760375977L16,29.999963760375977L20.4141,29.999963760375977L29.707,20.707003760375976C30.0977,20.316643760375975,30.0977,19.683363760375975,29.707,19.293003760375978ZM19.5859,27.999963760375977L18,27.999963760375977L18,26.414063760375974L23,21.414103760375976L24.585900000000002,23.000003760375975L19.5859,27.999963760375977ZM26,21.585903760375977L24.414099999999998,20.000003760375975L26,18.414103760375976L27.585900000000002,20.000003760375975L26,21.585903760375977Z" fill="#000000" fill-opacity="1"/></g><g><path d="M12,30L6,30C4.89591,29.9988,4.00115824,29.1041,4,28L4,4C4.00115776,2.8959099999999998,4.89591,2.00115776,6,2L22,2C23.1041,2.00115633,23.9988,2.895909,24,4L24,14L22,14L22,4L6,4L6,28L12,28L12,30Z" fill="#000000" fill-opacity="1"/></g><g></g></g></svg>