<svg xmlns="http://www.w3.org/2000/svg" xmlns:xlink="http://www.w3.org/1999/xlink" fill="none" version="1.1" width="32" height="32" viewBox="0 0 32 32"><defs><clipPath id="master_svg0_134_16892"><rect x="0" y="0" width="32" height="32" rx="0"/></clipPath></defs><g clip-path="url(#master_svg0_134_16892)"><g><rect x="8" y="14" width="6" height="2" rx="0" fill="#000000" fill-opacity="1"/></g><g><rect x="8" y="6" width="12" height="2" rx="0" fill="#000000" fill-opacity="1"/></g><g><rect x="8" y="10" width="12" height="2" rx="0" fill="#000000" fill-opacity="1"/></g><g><rect x="8" y="24" width="6" height="2" rx="0" fill="#000000" fill-opacity="1"/></g><g><path d="M27,25L21,25C19.34315,25,18,26.34315,18,28L18,30L20,30L20,28C20,27.44771,20.44772,27,21,27L27,27C27.55229,27,28,27.44771,28,28L28,30L30,30L30,28C30,26.34315,28.6569,25,27,25Z" fill="#000000" fill-opacity="1"/></g><g><path d="M24,24C26.209139999999998,24,28,22.209139999999998,28,20C28,17.79086,26.209139999999998,16,24,16C21.79086,16,20,17.79086,20,20C20,22.209139999999998,21.79086,24,24,24ZM24,18C25.10457,18,26,18.89543,26,20C26,21.10457,25.10457,22,24,22C22.89543,22,22,21.10457,22,20C22,18.89543,22.89543,18,24,18Z" fill="#000000" fill-opacity="1"/></g><g><path d="M14,30L6,30C4.89591,29.9988,4.00115824,29.1041,4,28L4,4C4.00115776,2.8959099999999998,4.89591,2.00115776,6,2L22,2C23.1041,2.00115633,23.9988,2.895909,24,4L24,14L22,14L22,4L6,4L6,28L14,28L14,30Z" fill="#000000" fill-opacity="1"/></g><g></g></g></svg>