<svg xmlns="http://www.w3.org/2000/svg" xmlns:xlink="http://www.w3.org/1999/xlink" fill="none" version="1.1" width="32" height="32" viewBox="0 0 32 32"><defs><clipPath id="master_svg0_134_16916"><rect x="0" y="0" width="32" height="32" rx="0"/></clipPath></defs><g clip-path="url(#master_svg0_134_16916)"><g><rect x="15" y="2" width="2" height="5" rx="0" fill="#000000" fill-opacity="1"/></g><g transform="matrix(0.7071067690849304,-0.7071067690849304,0.7071067690849304,0.7071067690849304,0.05902790847051165,17.941287277479546)"><rect x="21.68656349182129" y="8.899391174316406" width="4.958000183105469" height="1.9997999668121338" rx="0" fill="#000000" fill-opacity="1"/></g><g><rect x="25" y="15" width="5" height="2" rx="0" fill="#000000" fill-opacity="1"/></g><g transform="matrix(0.7071067690849304,-0.7071067690849304,0.7071067690849304,0.7071067690849304,-9.982758758802788,22.10072384806847)"><rect x="21.686553955078125" y="23.100618362426758" width="1.9997999668121338" height="4.958000183105469" rx="0" fill="#000000" fill-opacity="1"/></g><g><rect x="15" y="25" width="2" height="5" rx="0" fill="#000000" fill-opacity="1"/></g><g transform="matrix(0.7071067690849304,-0.7071067690849304,0.7071067690849304,0.7071067690849304,-16.2339595001402,11.192500701261963)"><rect x="5.393563270568848" y="25.192373275756836" width="4.958000183105469" height="1.9997999668121338" rx="0" fill="#000000" fill-opacity="1"/></g><g><rect x="2" y="15" width="5" height="2" rx="0" fill="#000000" fill-opacity="1"/></g><g transform="matrix(0.7071067690849304,-0.7071067690849304,0.7071067690849304,0.7071067690849304,-3.2339720429228294,5.807736776632538)"><rect x="5.3935723304748535" y="6.807618141174316" width="1.9997999668121338" height="4.958000183105469" rx="0" fill="#000000" fill-opacity="1"/></g><g><path d="M16,12C18.209139999999998,12,20,13.79086,20,16C20,18.209139999999998,18.209139999999998,20,16,20C13.79086,20,12,18.209139999999998,12,16C12.00248,13.79189,13.79189,12.00248,16,12ZM16,10C12.68629,10,10,12.68629,10,16C10,19.31371,12.68629,22,16,22C19.31371,22,22,19.31371,22,16C22,12.68629,19.31371,10,16,10Z" fill="#000000" fill-opacity="1"/></g><g></g></g></svg>