<svg xmlns="http://www.w3.org/2000/svg" xmlns:xlink="http://www.w3.org/1999/xlink" fill="none" version="1.1" width="32" height="32" viewBox="0 0 32 32"><defs><clipPath id="master_svg0_134_16958"><rect x="0" y="0" width="32" height="32" rx="0"/></clipPath></defs><g clip-path="url(#master_svg0_134_16958)"><g><path d="M22.61208508529663,20.5215C23.53208508529663,19.395139999999998,24.02378508529663,17.97953,23.999985085296633,16.5254C23.999985085296633,13.4785,21.98118508529663,11,19.49998508529663,11C18.059185085296633,11.0475674,16.74100508529663,11.823391,15.99999508529663,13.06C15.25899508529663,11.823391,13.94084508529663,11.0475674,12.499995085296632,11C10.018795085296631,11,8.00000000029663,13.4785,8.00000000029663,16.5254C7.97635458529663,17.97951,8.46800408529663,19.39509,9.38790508529663,20.5215C8.81910008529663,20.8901,8.44900008529663,21.1631,8.39990008529663,21.200200000000002C7.948265085296631,21.539,7.866433085296631,22.1842,8.219200085296631,22.625C8.65920008529663,23.174799999999998,12.616905085296631,28,15.99999508529663,28C19.38308508529663,28,23.34078508529663,23.174799999999998,23.78078508529663,22.625C24.13368508529663,22.1842,24.051785085296633,21.538800000000002,23.59998508529663,21.2C23.55098508529663,21.1631,23.181185085296633,20.89,22.61208508529663,20.5215ZM12.499995085296632,13C13.855195085296632,13,14.999995085296632,14.6143,14.999995085296632,16.5254L14.999995085296632,18.0918C14.65436508529663,18.14915,14.312325085296631,18.22641,13.975605085296632,18.3232C13.990345085296632,18.216070000000002,13.998495085296632,18.10813,13.999995085296632,18C13.999995085296632,16.8955,13.32839508529663,16,12.499995085296632,16C11.67160508529663,16,10.99999508529663,16.8955,10.99999508529663,18C10.99374508529663,18.48498,11.13582508529663,18.9603,11.407195085296632,19.362299999999998C11.325895085296631,19.4038,11.23849508529663,19.4429,11.15919508529663,19.4844C10.383705085296631,18.69855,9.96466508529663,17.6289,9.99999508529663,16.5254C9.99999508529663,14.6143,11.144805085296632,13,12.499995085296632,13ZM15.99999508529663,26C14.43089508529663,26,12.035205085296631,23.916,10.47999508529663,22.1943C11.89999508529663,21.2788,14.265605085296631,20,15.99999508529663,20C17.734395085296633,20,20.09998508529663,21.2788,21.519985085296632,22.1943C19.964785085296633,23.916,17.56909508529663,26,15.99999508529663,26ZM20.84078508529663,19.4844C20.76148508529663,19.4429,20.674085085296632,19.4038,20.592785085296633,19.362299999999998C20.864185085296633,18.9603,21.006285085296632,18.48498,20.99998508529663,18C20.99998508529663,16.8955,20.32838508529663,16,19.49998508529663,16C18.67158508529663,16,17.99998508529663,16.8955,17.99998508529663,18C18.00148508529663,18.10813,18.00968508529663,18.216070000000002,18.02438508529663,18.3232C17.687675085296632,18.22641,17.34563508529663,18.14915,16.999995085296632,18.0918L16.999995085296632,16.5254C16.999995085296632,14.6143,18.144785085296633,13,19.49998508529663,13C20.855185085296633,13,21.99998508529663,14.6143,21.99998508529663,16.5254C22.03538508529663,17.6289,21.61628508529663,18.69855,20.84078508529663,19.4844Z" fill="#000000" fill-opacity="1"/></g><g><path d="M30,30C27.7642,30.0656,25.9344,28.2358,26,26L26,14C26,8.47715,21.5228,4,16,4C10.47715,4,6,8.47715,6,14L6,26C6.06563,28.2358,4.23576,30.0656,2,30L2,28C3.13438,28.0755,4.0755300000000005,27.1344,4,26L4,14C4,7.37258,9.37258,2,16,2C22.6274,2,28,7.37258,28,14L28,26C27.9267,27.1335,28.8665,28.0733,30,28L30,30Z" fill="#000000" fill-opacity="1"/></g><g></g></g></svg>