<svg xmlns="http://www.w3.org/2000/svg" xmlns:xlink="http://www.w3.org/1999/xlink" fill="none" version="1.1" width="32" height="32" viewBox="0 0 32 32"><defs><clipPath id="master_svg0_134_17006"><rect x="0" y="0" width="32" height="32" rx="0"/></clipPath></defs><g clip-path="url(#master_svg0_134_17006)"><g><path d="M26,6L26,2L2,2L2,12L11,12L11,30L30,30L30,6L26,6ZM4,10L4,4L24,4L24,6L11,6L11,10L4,10ZM28,28L13,28L13,8L28,8L28,28Z" fill="#000000" fill-opacity="1"/></g><g><rect x="15" y="11" width="2" height="2" rx="0" fill="#000000" fill-opacity="1"/></g><g><rect x="19" y="11" width="7" height="2" rx="0" fill="#000000" fill-opacity="1"/></g><g><rect x="15" y="17" width="2" height="2" rx="0" fill="#000000" fill-opacity="1"/></g><g><rect x="19" y="17" width="7" height="2" rx="0" fill="#000000" fill-opacity="1"/></g><g><rect x="15" y="23" width="2" height="2" rx="0" fill="#000000" fill-opacity="1"/></g><g><rect x="19" y="23" width="7" height="2" rx="0" fill="#000000" fill-opacity="1"/></g><g></g></g></svg>