<svg xmlns="http://www.w3.org/2000/svg" xmlns:xlink="http://www.w3.org/1999/xlink" fill="none" version="1.1" width="32" height="32" viewBox="0 0 32 32"><defs><clipPath id="master_svg0_134_17033"><rect x="0" y="0" width="32" height="32" rx="0"/></clipPath></defs><g clip-path="url(#master_svg0_134_17033)"><g><rect x="4" y="26" width="4" height="4" rx="0" fill="#000000" fill-opacity="1"/></g><g><rect x="14" y="26" width="4" height="4" rx="0" fill="#000000" fill-opacity="1"/></g><g><rect x="24" y="26" width="4" height="4" rx="0" fill="#000000" fill-opacity="1"/></g><g><path d="M25,16L17,16L17,14L15,14L15,16L7,16C5.895955,16.001269999999998,5.00126648,16.89596,5,18L5,24L7,24L7,18L15,18L15,24L17,24L17,18L25,18L25,24L27,24L27,18C26.9987,16.89596,26.104,16.001269999999998,25,16Z" fill="#000000" fill-opacity="1"/></g><g><path d="M9,2L9,12L23,12L23,2L9,2ZM11,4L13,4L13,10L11,10L11,4ZM21,10L15,10L15,4L21,4L21,10Z" fill="#000000" fill-opacity="1"/></g><g></g></g></svg>