<svg xmlns="http://www.w3.org/2000/svg" xmlns:xlink="http://www.w3.org/1999/xlink" fill="none" version="1.1" width="32" height="32" viewBox="0 0 32 32"><defs><clipPath id="master_svg0_134_17088"><rect x="0" y="0" width="32" height="32" rx="0"/></clipPath></defs><g clip-path="url(#master_svg0_134_17088)"><g><rect x="10" y="15" width="12" height="2" rx="0" fill="#000000" fill-opacity="1"/></g><g><path d="M8.7,6.2852C8.89523,5.88476,8.99777,5.4454899999999995,9,5C9,3.34315,7.65685,2,6,2C4.34315,2,3,3.34315,3,5C3,6.65685,4.34315,8,6,8C6.44558,7.99775,6.8849,7.89492,7.2852,7.6992L10,10.4141L10,13L12,13L12,9.585899999999999L8.7,6.2852ZM6,6C5.44772,6,5,5.55228,5,5C5,4.44772,5.44772,4,6,4C6.55228,4,7,4.44772,7,5C6.999499999999999,5.55208,6.55208,5.999499999999999,6,6Z" fill="#000000" fill-opacity="1"/></g><g><path d="M19.00000275390625,4.9999976632308964C19.00663275390625,3.4727176632308963,17.86477275390625,2.184239663230896,16.34777275390625,2.007205463230896C14.830772753906249,1.830170663230896,13.42290675390625,2.821094663230896,13.07767585390625,4.308857663230896C12.73244475390625,5.796627663230896,13.56005675390625,7.306287663230896,15.00000275390625,7.815397663230896L15.00000275390625,12.999977663230895L17.00000275390625,12.999977663230895L17.00000275390625,7.815897663230896C18.19512275390625,7.394727663230896,18.99598275390625,6.267157663230896,19.00000275390625,4.9999976632308964ZM16.00000275390625,5.999997663230896C15.44771275390625,5.999997663230896,15.00000275390625,5.552287663230896,15.00000275390625,4.9999976632308964C15.00000275390625,4.447717663230896,15.44771275390625,3.999997663230896,16.00000275390625,3.999997663230896C16.55228275390625,3.999997663230896,17.00000275390625,4.447717663230896,17.00000275390625,4.9999976632308964C16.99950275390625,5.552077663230897,16.552082753906248,5.999507663230896,16.00000275390625,5.999997663230896Z" fill="#000000" fill-opacity="1"/></g><g><path d="M26,2C24.343899999999998,2.00181937,23.00182,3.3439,23,5C23.00223,5.4454899999999995,23.10476,5.88476,23.3,6.2852L20,9.585899999999999L20,13L22,13L22,10.4141L24.7148,7.6992C25.115099999999998,7.89492,25.55442,7.99775,26,8C27.65685,8,29,6.65685,29,5C29,3.34315,27.65685,2,26,2ZM26,6C25.44772,6,25,5.55228,25,5C25,4.44772,25.44772,4,26,4C26.55228,4,27,4.44772,27,5C26.9995,5.55208,26.55208,5.999499999999999,26,6Z" fill="#000000" fill-opacity="1"/></g><g><path d="M12,19L10,19L10,21.5859L7.2854,24.3008C6.88503,24.10508,6.44564,24.00226,6,24C4.34315,24,3,25.34315,3,27C3,28.65685,4.34315,30,6,30C7.65685,30,9,28.65685,9,27C8.99777,26.55451,8.895240000000001,26.11524,8.7,25.7148L12,22.4141L12,19ZM6,28C5.44772,28,5,27.55228,5,27C5,26.44772,5.44772,26,6,26C6.55228,26,7,26.44772,7,27C6.99951,27.55208,6.55208,27.99951,6,28Z" fill="#000000" fill-opacity="1"/></g><g><path d="M16.9999972265625,24.1841L16.9999972265625,19L14.999997226562499,19L14.999997226562499,24.1841C13.0987442265625,24.8563,12.3888912265625,27.17535,13.5881312265625,28.796590000000002C14.7873672265625,30.4178,17.2126272265625,30.4178,18.4118672265625,28.796590000000002C19.6111072265625,27.17535,18.9012572265625,24.8563,16.9999972265625,24.1841ZM15.999997226562499,28C15.4477172265625,28,14.999997226562499,27.55228,14.999997226562499,27C14.999997226562499,26.44772,15.4477172265625,26,15.999997226562499,26C16.5522872265625,26,16.9999972265625,26.44772,16.9999972265625,27C16.9995072265625,27.55208,16.5520772265625,27.99951,15.999997226562499,28Z" fill="#000000" fill-opacity="1"/></g><g><path d="M26,24C25.55436,24.00226,25.11497,24.10508,24.7146,24.3008L22,21.5859L22,19L20,19L20,22.4141L23.3,25.7148C23.10476,26.11524,23.00223,26.55451,23,27C23,28.65685,24.34315,30,26,30C27.65685,30,29,28.65685,29,27C29,25.34315,27.65685,24,26,24ZM26,28C25.44772,28,25,27.55228,25,27C25,26.44772,25.44772,26,26,26C26.55228,26,27,26.44772,27,27C26.99951,27.55208,26.55208,27.999499999999998,26,28Z" fill="#000000" fill-opacity="1"/></g><g></g></g></svg>