<svg xmlns="http://www.w3.org/2000/svg" xmlns:xlink="http://www.w3.org/1999/xlink" fill="none" version="1.1" width="32" height="32" viewBox="0 0 32 32"><defs><clipPath id="master_svg0_134_17414"><rect x="0" y="0" width="32" height="32" rx="0"/></clipPath></defs><g clip-path="url(#master_svg0_134_17414)"><g><path d="M27.9774,9.627900020599366C27.9759,9.195640020599365,27.9363,8.764360020599366,27.8588,8.339100020599364C27.7724,7.819190020599365,27.6082,7.315260020599365,27.3716,6.844300020599365C27.1126,6.349270020599365,26.7753,5.899340020599365,26.3728,5.511900020599365C25.7647,4.917213020599365,25.0138,4.489046020599365,24.1923,4.268600020599365C23.4378,4.085818720599365,22.6625,4.003174780599365,21.8864,4.022799920599366L21.882,4.010900020599365L10.1143,4.010900020599365L10.1136,4.022799920599366C9.672170000000001,4.019285200599366,9.23086,4.039012420599366,8.7915,4.081900120599365C8.31007,4.133273020599365,7.83617,4.240012020599365,7.3792,4.400000020599365C5.85242,4.974895020599365,4.69141,6.243550020599365,4.2538,7.815200020599365C4.0722566,8.563010020599364,3.9895847,9.331390020599365,4.00789976,10.100700020599366L4,21.906500020599367C4.00758743,22.441100020599364,4.0439062,22.975000020599364,4.1088,23.505700020599367C4.18894,24.065900020599365,4.354602,24.610500020599364,4.6,25.120500020599366C4.94627,25.801300020599367,5.43908,26.396900020599364,6.043,26.864500020599365C6.4746500000000005,27.208100020599364,6.96354,27.472900020599365,7.4872,27.646700020599365C8.25597,27.884100020599366,9.05673,28.001600020599366,9.8613,27.995100020599367C10.3647,27.998300020599366,10.8682,28.010900020599365,11.3719,28.008800020599367C15.0309,27.993400020599367,18.689700000000002,28.035200020599365,22.3486,27.986200020599366C22.832,27.975700020599366,23.3137,27.924600020599364,23.7886,27.833400020599367C24.6861,27.675700020599365,25.5215,27.269600020599366,26.2,26.661300020599366C26.999,25.967600020599367,27.5568,25.038000020599366,27.7931,24.006700020599364C27.9387,23.316400020599364,28.0082,22.612200020599364,28.0005,21.906700020599366L28.0005,21.766000020599364C28,21.711200020599364,27.9793,9.785500020599365,27.9774,9.627900020599366ZM24.7635,20.732600020599364C24.6099,21.092600020599367,23.8335,21.390300020599366,22.5202,21.593200020599365C22.397,21.612200020599364,22.3451,21.811500020599365,22.2739,22.137700020599365C22.2446,22.272500020599367,22.2147,22.404600020599364,22.1739,22.543400020599364C22.1487,22.664500020599366,22.0372,22.747800020599364,21.9139,22.737700020599366L21.8934,22.737700020599366C21.7676,22.733200020599366,21.6425,22.717400020599364,21.5196,22.690500020599366C21.1955,22.622600020599364,20.8655,22.587700020599364,20.5344,22.586100020599364C20.2963,22.586700020599366,20.0586,22.606800020599366,19.8238,22.646100020599366C19.328400000000002,22.771600020599365,18.8675,23.007000020599364,18.4755,23.334900020599367C17.8125,23.900800020599366,16.9795,24.229100020599365,16.1087,24.267700020599364C16.0587,24.267700020599364,16.011400000000002,24.265900020599364,15.9752,24.264200020599365C15.9465,24.266600020599366,15.9168,24.267700020599364,15.8871,24.267700020599364C15.0168,24.229400020599364,14.1844,23.901300020599365,13.522,23.335500020599365C13.12944,23.007200020599367,12.66805,22.771300020599366,12.172,22.645500020599364C11.93736,22.606200020599367,11.6999,22.586100020599364,11.462,22.585500020599365C11.13065,22.589000020599364,10.80054,22.626300020599366,10.4768,22.697000020599365C10.354009999999999,22.725600020599366,10.22898,22.743500020599367,10.103100000000001,22.750600020599364C9.97174,22.765600020599365,9.85041,22.678600020599365,9.8224,22.549400020599364C9.780999999999999,22.408700020599365,9.7513,22.272400020599367,9.7224,22.141200020599364C9.6508,21.813200020599364,9.598700000000001,21.613000020599365,9.4759,21.594000020599367C8.162600000000001,21.391400020599367,7.3866,21.092900020599366,7.232,20.731400020599366C7.2163,20.695300020599365,7.20709,20.656700020599366,7.2048000000000005,20.617400020599366C7.19872,20.509800020599364,7.27481,20.414900020599365,7.3812,20.397400020599367C8.46733,20.200600020599364,9.44603,19.618600020599366,10.137599999999999,18.758300020599364C10.518329999999999,18.317900020599367,10.834810000000001,17.825800020599367,11.0776,17.296700020599367L11.0824,17.286700020599366C11.22737,17.049500020599368,11.26031,16.760400020599363,11.1724,16.496700020599363C11.0031,16.097600020599366,10.4424,15.919800020599364,10.0717,15.802100020599365C9.9796,15.773000020599365,9.89229,15.745400020599366,9.8229,15.717700020599365C9.49409,15.587700020599366,8.9536,15.313600020599365,9.025590000000001,14.934900020599365C9.138639999999999,14.642500020599366,9.425049999999999,14.454300020599366,9.73829,14.466600020599365C9.81251,14.464900020599366,9.88619,14.479600020599365,9.95409,14.509600020599365C10.23084,14.651500020599364,10.53499,14.731800020599366,10.845690000000001,14.745100020599365C11.03036,14.758300020599366,11.213339999999999,14.702400020599365,11.35909,14.588200020599364Q11.34459,14.325300020599364,11.32729,14.062600020599366C11.15849,12.878800020599366,11.23066,11.673100020599366,11.53949,10.517900020599365C12.28219,8.822940020599365,13.96691,7.7368000205993654,15.8173,7.7600000205993656Q15.9943,7.7585000205993655,16.1712,7.756700020599365C18.0243,7.7330200205993656,19.7119,8.820160020599365,20.4565,10.517300020599365C20.7653,11.673560020599364,20.8374,12.880310020599365,20.6683,14.065100020599365L20.6647,14.122500020599364C20.6547,14.285400020599365,20.6447,14.439500020599365,20.6369,14.589000020599364C20.7691,14.693800020599365,20.9339,14.748900020599365,21.1025,14.744800020599365C21.3952,14.722800020599365,21.6806,14.643300020599366,21.9425,14.510800020599365C22.0293,14.473200020599366,22.1231,14.454600020599365,22.2176,14.456300020599365C22.3249,14.455900020599366,22.4313,14.476300020599366,22.5309,14.516300020599365L22.5359,14.518200020599366C22.7664,14.573000020599364,22.9408,14.762100020599366,22.9768,14.996300020599366C22.9802,15.179800020599366,22.8438,15.454100020599364,22.1729,15.718900020599365C22.1042,15.746100020599366,22.0165,15.774000020599365,21.924,15.803300020599366C21.5528,15.921100020599365,20.9928,16.098900020599366,20.8235,16.497700020599368C20.7357,16.761200020599365,20.7686,17.050000020599363,20.9135,17.287000020599365L20.9183,17.297000020599363C21.5986,18.851200020599364,22.9661,19.998100020599367,24.615,20.397500020599367C24.7214,20.415000020599365,24.7974,20.509900020599364,24.7914,20.617500020599365C24.7889,20.657200020599365,24.7794,20.696200020599367,24.7635,20.732600020599364Z" fill="#000000" fill-opacity="1"/></g><g></g><g></g></g></svg>