<svg xmlns="http://www.w3.org/2000/svg" xmlns:xlink="http://www.w3.org/1999/xlink" fill="none" version="1.1" width="32" height="32" viewBox="0 0 32 32"><defs><clipPath id="master_svg0_134_17279"><rect x="0" y="0" width="32" height="32" rx="0"/></clipPath></defs><g clip-path="url(#master_svg0_134_17279)"><g><path d="M4,4L4,28L28,28L28,4L4,4ZM12.1,9C12.9,9,13.5,9.6,13.5,10.4C13.5,11.2,12.9,11.8,12.1,11.8C11.3,11.8,10.7,11.2,10.7,10.4C10.8,9.6,11.4,9,12.1,9ZM21.5,22.2C20.1,22.2,19.4,21.4,19.4,20.2C19.4,19.9,19.4,19.5,19.5,19.2L20.2,16.8C20.3,16.6,20.3,16.3,20.3,16.1C20.3,15.3,19.8,14.8,19.1,14.8C18.1,14.8,17.5,15.5,17.2,16.8L15.9,22L13.6,22L14,20.3C13.3,21.4,12.4,22.1,11.2,22.1C9.8,22.1,9.1,21.3,9.1,20.1C9.1,19.8,9.1,19.4,9.2,19.1L10.3,14.8L8.7,14.8L9.2,13L13.1,13L11.6,19.1C11.5,19.4,11.5,19.7,11.5,20C11.5,20.4,11.7,20.5,12,20.6C12.2,20.6,13.6,20.6,14.4,18.8L15.4,14.7L13.8,14.7L14.3,12.9L17.8,12.9L17.3,15C17.9,13.8,19.2,12.8,20.4,12.8C21.7,12.8,22.8,13.7,22.8,15.5C22.8,16,22.7,16.5,22.6,17L21.9,19.4C21.8,19.6,21.8,19.8,21.8,20C21.8,20.4,22,20.6,22.3,20.6C22.6,20.6,23,20.4,23.5,19.1L24.4,19.5C23.7,21.4,22.7,22.2,21.5,22.2Z" fill="#000000" fill-opacity="1"/></g><g></g></g></svg>