<svg xmlns="http://www.w3.org/2000/svg" xmlns:xlink="http://www.w3.org/1999/xlink" fill="none" version="1.1" width="32" height="32" viewBox="0 0 32 32"><defs><clipPath id="master_svg0_134_17260"><rect x="0" y="0" width="32" height="32" rx="0"/></clipPath></defs><g clip-path="url(#master_svg0_134_17260)"><g><path d="M28.567817404556273,12.892602201004028L28.531217404556273,12.799202201004029L24.992417404556274,3.5635992010040285C24.920417404556275,3.3825992010040284,24.792917404556274,3.2289992010040285,24.628217404556274,3.1249992010040284C24.290717404556275,2.9154994010040283,23.858317404556274,2.938699501004028,23.545217404556276,3.183199201004028C23.394017404556273,3.3059992010040284,23.284417404556276,3.4723992010040283,23.231117404556276,3.6596992010040283L20.841717404556274,10.970202201004028L11.166097404556274,10.970202201004028L8.776697404556273,3.6596992010040283C8.724897404556273,3.4712992010040282,8.614997404556274,3.3040992010040284,8.462597404556274,3.1817992010040284C8.149497404556275,2.9372995010040284,7.717097404556275,2.9140995010040283,7.379597404556274,3.123599201004028C7.215297404556274,3.2280992010040284,7.087897404556275,3.3814992010040283,7.015397404556275,3.562199201004028L3.4697984045562746,12.793702201004029L3.4345984045562745,12.887102201004028C2.3880984045562745,15.621582201004028,3.2767984045562746,18.71858220100403,5.614197404556275,20.48188220100403L5.626397404556275,20.49138220100403L5.658897404556274,20.51438220100403L11.049697404556275,24.551382201004028L13.716717404556274,26.569882201004027L15.341317404556275,27.79638220100403C15.731817404556274,28.092882201004027,16.272117404556276,28.092882201004027,16.662617404556272,27.79638220100403L18.287217404556273,26.569882201004027L20.954217404556275,24.551382201004028L26.377517404556276,20.48998220100403L26.391017404556273,20.47918220100403C28.722917404556274,18.71568220100403,29.610017404556274,15.624082201004029,28.567817404556273,12.892602201004028Z" fill="#000000" fill-opacity="1"/></g><g><g></g></g></g></svg>