<svg xmlns="http://www.w3.org/2000/svg" xmlns:xlink="http://www.w3.org/1999/xlink" fill="none" version="1.1" width="32" height="32" viewBox="0 0 32 32"><defs><clipPath id="master_svg0_134_17483"><rect x="0" y="0" width="32" height="32" rx="0"/></clipPath></defs><g clip-path="url(#master_svg0_134_17483)"><g><path d="M29.410047074127196,9.259999809265137C29.085747074127198,8.055289809265137,28.144747074127196,7.114267809265137,26.940047074127197,6.789999809265137Q24.760047074127197,6.199999809265137,16.000047074127195,6.199999809265137Q7.2399970741271975,6.199999809265137,5.059997074127198,6.789999809265137C3.8552870741271974,7.114268809265137,2.9142690741271973,8.055289809265137,2.590000074127197,9.259999809265137C2.1829440741271973,11.483269809265137,1.9854117741271973,13.739829809265137,2.0000000001271974,15.999999809265137C1.9854132741271973,18.26019980926514,2.182946074127197,20.516699809265138,2.590000074127197,22.739999809265136C2.9142690741271973,23.94469980926514,3.8552870741271974,24.885699809265137,5.059997074127198,25.20999980926514Q7.2399970741271975,25.799999809265138,16.000047074127195,25.799999809265138Q24.760047074127197,25.799999809265138,26.940047074127197,25.20999980926514C28.144747074127196,24.885699809265137,29.085747074127198,23.94469980926514,29.410047074127196,22.739999809265136C29.817047074127196,20.516699809265138,30.014547074127197,18.26019980926514,30.0000470741272,15.999999809265137C30.014547074127197,13.739819809265136,29.817047074127196,11.483269809265137,29.410047074127196,9.259999809265137ZM13.200047074127196,20.199999809265137L13.200047074127196,11.799999809265136L20.470047074127198,15.999999809265137L13.200047074127196,20.199999809265137Z" fill="#000000" fill-opacity="1"/></g><g></g></g></svg>