<svg xmlns="http://www.w3.org/2000/svg" xmlns:xlink="http://www.w3.org/1999/xlink" fill="none" version="1.1" width="32" height="32" viewBox="0 0 32 32"><defs><clipPath id="master_svg0_134_17474"><rect x="0" y="0" width="32" height="32" rx="0"/></clipPath></defs><g clip-path="url(#master_svg0_134_17474)"><g><path d="M8.50890144088745,15.184499551940918L13.568701440887452,17.65200355194092C14.542001440887452,18.126703551940917,14.39160144088745,19.557903551940917,13.340901440887452,19.819903551940918L7.879101440887451,21.181803551940916C7.197799440887451,21.35170355194092,6.524999440887451,20.88160355194092,6.444599140887451,20.184103551940918C6.272699440887451,18.692103551940917,6.442499140887451,17.21860355194092,6.9009994408874515,15.854501551940919C7.123699440887451,15.192001551940917,7.880701440887451,14.878101551940919,8.50890144088745,15.184499551940918Z" fill-rule="evenodd" fill="#000000" fill-opacity="1"/></g><g><path d="M10.534799914184571,25.600405587768556L14.30069891418457,21.417301587768556C15.025198914184571,20.612501587768556,16.35959891418457,21.151601587768553,16.32179891418457,22.233805587768554L16.125398914184572,27.861105587768556C16.10089891418457,28.562305587768556,15.464098914184571,29.081405587768554,14.772198914184571,28.965195587768555C13.31709891418457,28.720795587768556,11.940698914184571,28.158295587768556,10.73910091418457,27.332995587768554C10.161600114184571,26.936295587768555,10.06599991418457,26.120995587768554,10.534799914184571,25.600405587768556Z" fill-rule="evenodd" fill="#000000" fill-opacity="1"/></g><g><path d="M19.464003035888673,20.033899289868163L24.81690303588867,21.773496489868165C25.48320303588867,21.989996489868165,25.80810303588867,22.743996489868163,25.50630303588867,23.376196489868164C24.878403035888674,24.691696489868164,23.967603035888672,25.867096489868164,22.82970303588867,26.806296489868163C22.288503035888674,27.252896489868164,21.47760303588867,27.121696489868164,21.105703035888673,26.526696489868165L18.12190203588867,21.751496489868163C17.548103035888673,20.833097489868162,18.43420203588867,19.699096489868165,19.464003035888673,20.033899289868163Z" fill-rule="evenodd" fill="#000000" fill-opacity="1"/></g><g><path d="M24.90759850097656,16.618998898010254L19.496598500976564,18.170498898010255C18.455701500976563,18.468898898010252,17.60980050097656,17.304698898010255,18.215400500976564,16.406898898010255L21.36349850097656,11.740100898010255C21.754398500976563,11.160600698010255,22.566898500976563,11.054000898010253,23.09099850097656,11.516400898010254C24.170098500976565,12.468498898010253,25.053798500976562,13.659698898010253,25.650998500976563,15.037798898010253C25.930198500976562,15.682098898010253,25.582498500976563,16.425498898010254,24.90759850097656,16.618998898010254Z" fill-rule="evenodd" fill="#000000" fill-opacity="1"/></g><g><path d="M12.263801992797852,3.488599796569824C11.289901992797851,3.7494997965698245,10.360801992797851,4.094401796569825,9.482299992797852,4.513301796569824C8.872699692797852,4.804001796569825,8.642399992797852,5.554801796569825,8.980099992797852,6.139701796569824L14.26880199279785,15.300061796569825C14.862201992797852,16.327761796569824,16.43310199279785,15.906761796569825,16.43310199279785,14.720161796569824L16.43310199279785,4.142701796569824C16.43310199279785,3.467299796569824,15.858201992797852,2.9322001965698243,15.18500199279785,2.9853000665698244C14.214701992797853,3.061799996569824,13.237601992797853,3.227699796569824,12.263801992797852,3.488599796569824Z" fill-rule="evenodd" fill="#000000" fill-opacity="1"/></g><g></g></g></svg>