<svg xmlns="http://www.w3.org/2000/svg" xmlns:xlink="http://www.w3.org/1999/xlink" fill="none" version="1.1" width="32" height="32" viewBox="0 0 32 32"><defs><clipPath id="master_svg0_134_17255"><rect x="0" y="0" width="32" height="32" rx="0"/></clipPath></defs><g clip-path="url(#master_svg0_134_17255)"><g><path d="M16.00001106681824,2.000000000037207C9.134911066818237,2.000922205637207,3.2833110668182375,6.979613215637207,2.182903066818237,13.755913215637207C1.0824970668182372,20.532213215637206,5.057971066818237,27.106813215637207,11.570001066818238,29.280013215637208C12.270011066818237,29.410013215637207,12.570011066818237,28.980013215637207,12.570011066818237,28.610013215637206C12.570011066818237,28.24001321563721,12.570011066818237,27.400013215637205,12.570011066818237,26.230013215637207Q8.680001066818237,27.070013215637207,7.860001066818238,24.350013215637208C7.586451066818237,23.492813215637206,7.010721066818237,22.764313215637205,6.2400010668182375,22.300013215637208Q4.970001066818238,21.440013215637208,6.340001066818237,21.450013215637206C7.238951066818237,21.57701321563721,8.028811066818237,22.112213215637208,8.480001066818238,22.900013215637205C9.286581066818236,24.34671321563721,11.112971066818238,24.865913215637207,12.560011066818237,24.060013215637206C12.616411066818237,23.350513215637207,12.929311066818236,22.685713215637207,13.440011066818236,22.190013215637208C10.340001066818237,21.83001321563721,7.070001066818238,20.630013215637206,7.070001066818238,15.270013215637206C7.047331066818237,13.877913215637207,7.563231066818237,12.530813215637208,8.510001066818237,11.510003215637207C8.081461066818237,10.304193215637207,8.131571066818237,8.979973215637207,8.650001066818238,7.810003215637207Q9.820001066818238,7.430003215637207,12.500011066818237,9.240003215637207C14.791511066818238,8.614953215637208,17.20851106681824,8.614953215637208,19.50001106681824,9.240003215637207Q22.170011066818237,7.430003215637207,23.34001106681824,7.810003215637207C23.85841106681824,8.979973215637207,23.90851106681824,10.304193215637207,23.480011066818236,11.510003215637207C24.42681106681824,12.530813215637208,24.942711066818237,13.877913215637207,24.920011066818237,15.270013215637206C24.920011066818237,20.650013215637205,21.650011066818237,21.83001321563721,18.530011066818236,22.180013215637207C19.206211066818238,22.865413215637208,19.552611066818237,23.809913215637206,19.480011066818236,24.770013215637206C19.480011066818236,26.640013215637207,19.480011066818236,28.150013215637205,19.480011066818236,28.610013215637206C19.480011066818236,29.070013215637207,19.730011066818236,29.42001321563721,20.480011066818236,29.280013215637208C27.001111066818236,27.103913215637206,30.977411066818238,20.515013215637207,29.863311066818238,13.731213215637206C28.749311066818237,6.947403215637207,22.874611066818236,1.976245315637207,16.00001106681824,2.000000000037207Z" fill-rule="evenodd" fill="#000000" fill-opacity="1"/></g><g></g></g></svg>