<svg xmlns="http://www.w3.org/2000/svg" xmlns:xlink="http://www.w3.org/1999/xlink" fill="none" version="1.1" width="32" height="32" viewBox="0 0 32 32"><defs><clipPath id="master_svg0_134_17458"><rect x="0" y="0" width="32" height="32" rx="0"/></clipPath></defs><g clip-path="url(#master_svg0_134_17458)"><g><path d="M27.0857,24.779199828338623C28.8585,23.58309982833862,29.9441,21.604099828338622,30,19.466199828338624C30,15.586199828338623,26.2235,12.439299828338623,21.5662,12.439299828338623C16.9089,12.439299828338623,13.1323,15.585799828338622,13.1323,19.466199828338624C13.1323,23.346599828338622,16.9088,26.494199828338623,21.5662,26.494199828338623C22.4975,26.495299828338624,23.4243,26.365699828338624,24.3195,26.109199828338625L24.5668,26.071799828338623C24.725,26.074599828338624,24.8796,26.119499828338622,25.0148,26.201799828338622L26.8617,27.268199828338624L27.0238,27.320699828338622C27.1791,27.320599828338622,27.3049,27.194799828338624,27.305,27.039499828338624L27.2595,26.834199828338622L26.8795,25.416699828338622L26.8503,25.236699828338622C26.8499,25.054999828338623,26.9377,24.884499828338623,27.0857,24.779199828338623ZM12.1208,4.679999828338623C6.5313,4.679999828338623,2,8.455199828338623,2,13.113699828338623C2.0667977,15.678799828338622,3.36928,18.053399828338623,5.4965,19.488299828338622C5.6749,19.614599828338623,5.78066,19.81969982833862,5.779999999999999,20.038299828338623L5.745,20.252999828338623L5.2888,21.953999828338624L5.234,22.199999828338623C5.23405,22.38639982833862,5.38481,22.537599828338625,5.5712,22.538299828338623L5.7672,22.475299828338624L7.9827,21.195299828338623C8.14444,21.096399828338622,8.32976,21.042799828338623,8.519300000000001,21.040099828338622L8.8168,21.084399828338622C9.8911,21.392299828338622,11.00324,21.548199828338625,12.1208,21.547599828338623L12.6762,21.533599828338623C12.4524,20.867699828338623,12.3377,20.16989982833862,12.3367,19.46739982833862C12.3367,15.219599828338623,16.469,11.775599828338624,21.5662,11.775599828338624L22.1162,11.789599828338623C21.3538,7.760999828338623,17.169,4.679999828338623,12.1208,4.679999828338623ZM18.7545,18.342899828338624C18.1333,18.342899828338624,17.6298,17.83939982833862,17.6298,17.218199828338623C17.6298,16.596999828338625,18.1333,16.093499828338622,18.7545,16.093499828338622C19.3757,16.093499828338622,19.8792,16.596999828338625,19.8792,17.218199828338623C19.8793,17.83939982833862,19.3757,18.342899828338624,18.7545,18.342899828338624ZM24.3778,18.342899828338624C23.7565,18.343599828338625,23.2523,17.840299828338622,23.2519,17.218999828338625C23.2515,16.597699828338623,23.7549,16.09369982833862,24.3762,16.093499828338622C24.9975,16.093299828338623,25.5013,16.59689982833862,25.5013,17.218199828338623C25.5013,17.838899828338622,24.9985,18.342099828338625,24.3778,18.342899828338624ZM8.7468,11.763799828338623C8.0016,11.763409828338624,7.39781,11.158999828338622,7.3982,10.413799828338622C7.39859,9.668599828338623,8.003,9.064809828338623,8.7482,9.065199828338624C9.493400000000001,9.065589828338624,10.09719,9.669999828338623,10.0968,10.415199828338622C10.09686,11.160579828338623,9.492180000000001,11.764629828338624,8.7468,11.763799828338623ZM15.4937,11.763799828338623C14.7485,11.763409828338624,14.1447,11.158999828338622,14.1451,10.413799828338622C14.1455,9.668599828338623,14.7499,9.064809828338623,15.4951,9.065199828338624C16.240299999999998,9.065589828338624,16.844099999999997,9.669999828338623,16.8437,10.415199828338622C16.8437,11.160559828338624,16.2391,11.764569828338622,15.4937,11.763799828338623Z" fill-rule="evenodd" fill="#000000" fill-opacity="1"/></g><g></g></g></svg>