<svg xmlns="http://www.w3.org/2000/svg" xmlns:xlink="http://www.w3.org/1999/xlink" fill="none" version="1.1" width="32" height="32" viewBox="0 0 32 32"><defs><clipPath id="master_svg0_134_17284"><rect x="0" y="0" width="32" height="32" rx="0"/></clipPath></defs><g clip-path="url(#master_svg0_134_17284)"><g><g><g><path d="M26.076598938598632,3.5877965534973146C26.133788938598634,4.523326553497315,25.418728938598633,5.326696553497314,24.48287893859863,5.378346553497314C23.54703093859863,5.429996553497315,22.74790383859863,4.7101965534973145,22.701793668598633,3.7740565534973145C22.65568543859863,2.8379215534973143,23.380206938598633,2.0430679534973146,24.316598938598634,2.0025000534973145C25.241368938598633,1.9514647534973144,26.03102893859863,2.662747553497314,26.076598938598632,3.5877965534973146Z" fill="#000000" fill-opacity="1"/></g></g></g><g><g><g><path d="M16.219101361083986,23.111300280761718C11.732501361083983,23.111300280761718,7.7891013610839845,21.50130028076172,5.750301361083984,19.12310028076172C7.370591361083984,23.504430280761717,11.547821361083983,26.41334028076172,16.219101361083986,26.41334028076172C20.890501361083984,26.41334028076172,25.067701361083984,23.504430280761717,26.688001361083984,19.12310028076172C24.654101361083985,21.50110028076172,20.725701361083985,23.111300280761718,16.219101361083986,23.111300280761718Z" fill="#000000" fill-opacity="1"/></g></g></g><g><g><g><path d="M16.219099453735353,7.648301842346191C20.705799453735352,7.648301842346191,24.649099453735353,9.258301842346192,26.68799945373535,11.636401842346192C25.06769945373535,7.255071842346192,20.89049945373535,4.346161842346191,16.219099453735353,4.346161842346191C11.54781945373535,4.3461623191831915,7.370589453735351,7.255071842346192,5.750299453735352,11.636401842346192C7.7891994537353515,9.253501842346191,11.71259945373535,7.648301842346191,16.219099453735353,7.648301842346191Z" fill="#000000" fill-opacity="1"/></g></g></g><g><g><g><path d="M10.042695451202393,27.738800336914064C10.122155451202392,29.23934033691406,8.651265451202393,30.33902033691406,7.234515451202393,29.83828033691406C5.817763801202393,29.337540336914063,5.364574451202393,27.557810336914063,6.369299451202393,26.44046733691406C7.374025451202392,25.32312933691406,9.191725451202393,25.585407336914063,9.839595451202392,26.94120033691406C9.958565451202393,27.191310336914064,10.027555451202392,27.462250336914064,10.042695451202393,27.738800336914064Z" fill="#000000" fill-opacity="1"/></g></g></g><g><g><g><path d="M6.260000653381348,7.10640394607544C5.5851996533813475,7.124873946075439,5.022363153381348,6.594493946075439,5.000770092381348,5.919783946075439C4.9791774533813475,5.245076946075439,5.506949653381348,4.67979434607544,6.181550653381348,4.655081749075439C6.856150653381348,4.63036914607544,7.423870653381348,5.155520946075439,7.451700653381348,5.83000394607544C7.471360653381348,6.51014394607544,6.939890653381347,7.07939394607544,6.260000653381348,7.10640394607544Z" fill="#000000" fill-opacity="1"/></g></g></g><g></g></g></svg>