<svg xmlns="http://www.w3.org/2000/svg" xmlns:xlink="http://www.w3.org/1999/xlink" fill="none" version="1.1" width="32" height="32" viewBox="0 0 32 32"><defs><clipPath id="master_svg0_134_17375"><rect x="0" y="0" width="32" height="32" rx="0"/></clipPath></defs><g clip-path="url(#master_svg0_134_17375)"><g><path d="M24.999999523162842,11.599999360427857C24.69999952316284,11.499999360427857,24.39999952316284,11.399999360427856,24.099999523162843,11.299999360427856C24.099999523162843,11.099999360427857,24.19999952316284,10.899999360427856,24.19999952316284,10.699999360427856C24.89999952316284,7.399999360427857,24.39999952316284,4.6999993604278565,22.89999952316284,3.7999993604278566C21.39999952316284,2.9999993604278563,18.999999523162842,3.7999993604278566,16.599999523162843,5.899999360427857C16.39999952316284,6.099999360427857,16.099999523162843,6.299999360427856,15.899999523162842,6.499999360427856C15.699999523162841,6.399999360427857,15.599999523162841,6.1999993604278565,15.399999523162842,6.099999360427857C12.999999523162842,3.9000003604278564,10.499999523162842,3.0000003604278564,8.999999523162842,3.9000003604278564C7.499999523162842,4.6999993604278565,7.099999523162841,7.299999360427856,7.699999523162842,10.399999360427856C7.799999523162842,10.699999360427856,7.799999523162842,10.999999360427857,7.899999523162842,11.299999360427856C7.499999523162842,11.399999360427856,7.199999523162842,11.499999360427857,6.899999523162842,11.599999360427857C3.8999995231628417,12.599999360427857,1.9999995231628418,14.300039360427856,1.9999995231628418,15.900039360427856C1.9999995231628418,17.600039360427857,3.999999523162842,19.400039360427854,7.099999523162841,20.400039360427858C7.299999523162842,20.500039360427856,7.599999523162841,20.600039360427857,7.899999523162842,20.600039360427857C7.799999523162842,20.900039360427858,7.699999523162842,21.300039360427856,7.699999523162842,21.600039360427857C7.099999523162841,24.700039360427855,7.599999523162841,27.100039360427857,8.999999523162842,28.000039360427856C10.499999523162842,28.900039360427858,12.999999523162842,28.000039360427856,15.499999523162842,25.800039360427856C15.699999523162841,25.600039360427857,15.899999523162842,25.400039360427858,16.099999523162843,25.300039360427856C16.299999523162843,25.500039360427856,16.599999523162843,25.800039360427856,16.89999952316284,26.000039360427856C19.299999523162843,28.100039360427857,21.599999523162843,28.900039360427858,23.099999523162843,28.000039360427856C24.599999523162843,27.100039360427857,25.099999523162843,24.500039360427856,24.499999523162842,21.300039360427856C24.499999523162842,21.100039360427857,24.39999952316284,20.800039360427856,24.299999523162843,20.500039360427856C24.499999523162842,20.400039360427858,24.69999952316284,20.400039360427858,24.799999523162843,20.300039360427856C27.999999523162842,19.20003936042786,30.099999523162843,17.500039360427856,30.099999523162843,15.800039360427856C29.999999523162842,14.300039360427856,27.999999523162842,12.699999360427856,24.999999523162842,11.599999360427857ZM17.499999523162842,6.899999360427857C19.599999523162843,5.099999360427857,21.499999523162842,4.400000360427857,22.39999952316284,4.899999360427857C23.299999523162843,5.399999360427857,23.69999952316284,7.599999360427857,23.099999523162843,10.499999360427857C23.099999523162843,10.699999360427856,22.999999523162842,10.899999360427856,22.999999523162842,11.099999360427857C21.799999523162843,10.799999360427856,20.499999523162842,10.599999360427857,19.299999523162843,10.499999360427857C18.599999523162843,9.499999360427857,17.799999523162843,8.499999360427857,16.89999952316284,7.499999360427856C17.099999523162843,7.299999360427856,17.299999523162843,7.099999360427857,17.499999523162842,6.899999360427857ZM10.299999523162843,17.400039360427854C10.599999523162841,17.900039360427854,10.799999523162843,18.400039360427854,11.099999523162841,18.900039360427854C11.399999523162842,19.400039360427854,11.699999523162841,19.900039360427858,11.999999523162842,20.300039360427856C11.099999523162841,20.200039360427855,10.299999523162843,20.100039360427857,9.399999523162842,19.900039360427858C9.599999523162841,19.100039360427857,9.899999523162842,18.300039360427856,10.299999523162843,17.400039360427854ZM10.299999523162843,14.600039360427857C9.899999523162842,13.800039360427856,9.699999523162841,12.999999360427857,9.399999523162842,12.199999360427856C10.199999523162841,11.999999360427857,11.099999523162841,11.899999360427856,11.899999523162842,11.799999360427856C11.599999523162841,12.299999360427856,11.299999523162843,12.699999360427856,10.999999523162842,13.199999360427856C10.799999523162843,13.600039360427857,10.499999523162842,14.100039360427857,10.299999523162843,14.600039360427857ZM10.899999523162842,16.000039360427856C11.299999523162843,15.200039360427857,11.699999523162841,14.500039360427856,12.099999523162841,13.700039360427857C12.499999523162842,12.999999360427857,12.999999523162842,12.199999360427856,13.499999523162842,11.499999360427857C14.299999523162843,11.399999360427856,15.199999523162841,11.399999360427856,16.099999523162843,11.399999360427856C16.999999523162842,11.399999360427856,17.799999523162843,11.399999360427856,18.69999952316284,11.499999360427857C19.19999952316284,12.199999360427856,19.599999523162843,12.899999360427856,19.999999523162842,13.700039360427857C20.39999952316284,14.400039360427856,20.799999523162843,15.200039360427857,21.19999952316284,16.000039360427856C20.799999523162843,16.800039360427856,20.39999952316284,17.500039360427856,19.999999523162842,18.300039360427856C19.599999523162843,19.000039360427856,19.099999523162843,19.800039360427856,18.69999952316284,20.500039360427856C17.89999952316284,20.600039360427857,16.999999523162842,20.600039360427857,16.099999523162843,20.600039360427857C15.199999523162841,20.600039360427857,14.399999523162842,20.600039360427857,13.599999523162841,20.500039360427856C13.099999523162841,19.800039360427856,12.699999523162841,19.100039360427857,12.199999523162841,18.300039360427856C11.699999523162841,17.500039360427856,11.299999523162843,16.800039360427856,10.899999523162842,16.000039360427856ZM20.89999952316284,18.900039360427854C21.19999952316284,18.400039360427854,21.499999523162842,17.900039360427854,21.69999952316284,17.400039360427854C22.099999523162843,18.20003936042786,22.39999952316284,19.000039360427856,22.599999523162843,19.900039360427858C21.69999952316284,20.100039360427857,20.89999952316284,20.200039360427855,19.999999523162842,20.300039360427856C20.39999952316284,19.800039360427856,20.69999952316284,19.300039360427856,20.89999952316284,18.900039360427854ZM21.69999952316284,14.600039360427857C21.39999952316284,14.100039360427857,21.19999952316284,13.600039360427857,20.89999952316284,13.099999360427857C20.599999523162843,12.599999360427857,20.299999523162843,12.199999360427856,20.099999523162843,11.699999360427856C20.999999523162842,11.799999360427856,21.799999523162843,11.999999360427857,22.69999952316284,12.099999360427857C22.39999952316284,12.999999360427857,22.099999523162843,13.800039360427856,21.69999952316284,14.600039360427857ZM15.999999523162842,8.299999360427856C16.599999523162843,8.899999360427856,17.099999523162843,9.599999360427857,17.599999523162843,10.299999360427856C16.499999523162842,10.199999360427856,15.399999523162842,10.199999360427856,14.299999523162843,10.299999360427856C14.899999523162842,9.599999360427857,15.499999523162842,8.899999360427856,15.999999523162842,8.299999360427856ZM9.599999523162841,4.899999360427857C10.499999523162842,4.400000360427857,12.599999523162841,5.099999360427857,14.799999523162843,7.099999360427857C14.899999523162842,7.1999993604278565,15.099999523162841,7.399999360427857,15.199999523162841,7.499999360427856C14.299999523162843,8.399999360427856,13.499999523162842,9.399999360427856,12.799999523162843,10.499999360427857C11.499999523162842,10.599999360427857,10.299999523162843,10.799999360427856,9.099999523162841,11.099999360427857C8.999999523162842,10.799999360427856,8.999999523162842,10.499999360427857,8.899999523162842,10.199999360427856C8.299999523162843,7.499999360427856,8.699999523162841,5.399999360427857,9.599999523162841,4.899999360427857ZM8.199999523162841,19.600039360427857C7.999999523162842,19.500039360427856,7.699999523162842,19.500039360427856,7.499999523162842,19.400039360427854C6.099999523162841,18.900039360427854,4.999999523162842,18.300039360427856,4.199999523162842,17.70003936042786C3.499999523162842,17.100039360427857,3.199999523162842,16.500039360427856,3.199999523162842,16.000039360427856C3.199999523162842,15.000039360427856,4.699999523162842,13.700039360427857,7.299999523162842,12.799999360427856C7.599999523162841,12.699999360427856,7.899999523162842,12.599999360427857,8.299999523162843,12.499999360427857C8.599999523162841,13.700039360427857,8.999999523162842,14.900039360427856,9.599999523162841,16.000039360427856C8.999999523162842,17.20003936042786,8.599999523162841,18.400039360427854,8.199999523162841,19.600039360427857ZM14.699999523162841,25.100039360427857C13.599999523162841,26.100039360427857,12.499999523162842,26.700039360427855,11.599999523162841,27.100039360427857C10.699999523162841,27.400039360427858,10.099999523162841,27.400039360427858,9.599999523162841,27.200039360427855C8.699999523162841,26.700039360427855,8.299999523162843,24.700039360427855,8.799999523162843,22.100039360427857C8.899999523162842,21.700039360427855,8.999999523162842,21.400039360427858,8.999999523162842,21.000039360427856C10.199999523162841,21.300039360427856,11.499999523162842,21.500039360427856,12.799999523162843,21.500039360427856C13.499999523162842,22.500039360427856,14.299999523162843,23.500039360427856,15.199999523162841,24.500039360427856C14.999999523162842,24.700039360427855,14.899999523162842,24.900039360427858,14.699999523162841,25.100039360427857ZM15.999999523162842,23.700039360427855C15.399999523162842,23.100039360427857,14.899999523162842,22.400039360427858,14.299999523162843,21.700039360427855C14.799999523162843,21.700039360427855,15.399999523162842,21.700039360427855,15.899999523162842,21.700039360427855C16.499999523162842,21.700039360427855,16.999999523162842,21.700039360427855,17.599999523162843,21.700039360427855C17.19999952316284,22.400039360427858,16.599999523162843,23.100039360427857,15.999999523162842,23.700039360427855ZM23.299999523162843,25.400039360427858C23.099999523162843,26.300039360427856,22.799999523162843,26.900039360427858,22.39999952316284,27.100039360427857C21.499999523162842,27.600039360427857,19.599999523162843,26.900039360427858,17.599999523162843,25.200039360427855C17.39999952316284,25.000039360427856,17.099999523162843,24.800039360427856,16.89999952316284,24.600039360427857C17.69999952316284,23.700039360427855,18.499999523162842,22.700039360427855,19.19999952316284,21.600039360427857C20.499999523162842,21.500039360427856,21.69999952316284,21.300039360427856,22.999999523162842,21.000039360427856C23.099999523162843,21.200039360427855,23.099999523162843,21.500039360427856,23.19999952316284,21.700039360427855C23.499999523162842,23.100039360427857,23.499999523162842,24.400039360427858,23.299999523162843,25.400039360427858ZM24.299999523162843,19.400039360427854C24.099999523162843,19.400039360427854,23.999999523162842,19.500039360427856,23.799999523162843,19.500039360427856C23.39999952316284,18.300039360427856,22.89999952316284,17.100039360427857,22.39999952316284,15.900039360427856C22.89999952316284,14.800039360427856,23.39999952316284,13.600039360427857,23.799999523162843,12.399999360427856C24.099999523162843,12.499999360427857,24.39999952316284,12.599999360427857,24.599999523162843,12.699999360427856C27.19999952316284,13.600039360427857,28.799999523162843,14.900039360427856,28.799999523162843,15.900039360427856C28.799999523162843,17.100039360427857,27.099999523162843,18.500039360427856,24.299999523162843,19.400039360427854Z" fill="#000000" fill-opacity="1"/></g><g><path d="M15.999999618530273,18.49999810974121C16.499999618530275,18.49999810974121,16.999999618530275,18.39999810974121,17.399999618530273,18.09999810974121C17.799999618530272,17.79999810974121,18.099999618530273,17.39999810974121,18.299999618530272,16.99999810974121C18.499999618530275,16.49999810974121,18.499999618530275,15.999998109741211,18.399999618530273,15.499998109741211C18.299999618530272,14.999998109741211,18.099999618530273,14.599998109741211,17.699999618530274,14.200000109741211C17.399999618530273,13.80000010974121,16.899999618530273,13.59999910974121,16.399999618530273,13.50000000974121C15.899999618530273,13.399999609741212,15.399999618530273,13.50000000974121,14.899999618530273,13.600000109741211C14.399999618530273,13.80000010974121,13.999999618530273,14.100000109741211,13.799999618530274,14.499998109741211C13.499999018530273,14.899998109741212,13.399999618530273,15.399998109741212,13.399999618530273,15.899998109741212C13.399999618530273,16.199998109741212,13.499999618530273,16.59999810974121,13.599999618530273,16.89999810974121C13.699999618530274,17.199998109741212,13.899999618530273,17.49999810974121,14.099999618530273,17.69999810974121C14.299999618530274,17.89999810974121,14.599999618530273,18.09999810974121,14.899999618530273,18.19999810974121C15.299999618530274,18.39999810974121,15.699999618530274,18.49999810974121,15.999999618530273,18.49999810974121Z" fill="#000000" fill-opacity="1"/></g><g></g></g></svg>