<svg xmlns="http://www.w3.org/2000/svg" xmlns:xlink="http://www.w3.org/1999/xlink" fill="none" version="1.1" width="32" height="32" viewBox="0 0 32 32"><defs><clipPath id="master_svg0_134_17381"><rect x="0" y="0" width="32" height="32" rx="0"/></clipPath></defs><g clip-path="url(#master_svg0_134_17381)"><g><path d="M21.9104,20.585899046325686L16.9104,9.585899046325684C16.7527,9.240700046325683,16.4043,8.999999046325684,16,8.999999046325684C15.5957,8.999999046325684,15.2471,9.240699046325684,15.0896,9.585899046325684L10.0895996,20.585899046325686C10.0319996,20.712399046325686,10,20.851999046325684,10,20.999999046325684C10,21.552199046325683,10.4478,21.999999046325684,11,21.999999046325684C11.4043,21.999999046325684,11.7527,21.759299046325683,11.9104,21.41409904632568L13.9089,17.017599046325685L20.4067,21.805199046325683C20.572699999999998,21.92779904632568,20.7778,21.999999046325684,21,21.999999046325684C21.5522,21.999999046325684,22,21.552199046325683,22,20.999999046325684C22,20.852099046325684,21.968,20.711899046325684,21.9104,20.585899046325686ZM16,12.416999046325683L18.499000000000002,17.914999046325683L14.7549,15.156199046325684L16,12.416999046325683Z" fill="#000000" fill-opacity="1"/></g><g><path d="M16,30C8.2803,30,2,23.7197,2,16C2,8.2803,8.2803,2,16,2C23.7197,2,30,8.2803,30,16C30,23.7197,23.7197,30,16,30ZM16,4C9.3833,4,4,9.3833,4,16C4,22.6167,9.3833,28,16,28C22.6167,28,28,22.6167,28,16C28,9.3833,22.6167,4,16,4Z" fill="#000000" fill-opacity="1"/></g><g></g></g></svg>