<svg xmlns="http://www.w3.org/2000/svg" xmlns:xlink="http://www.w3.org/1999/xlink" fill="none" version="1.1" width="32" height="32" viewBox="0 0 32 32"><defs><clipPath id="master_svg0_134_17392"><rect x="0" y="0" width="32" height="32" rx="0"/></clipPath></defs><g clip-path="url(#master_svg0_134_17392)"><g><path d="M16.099992127227782,3.200000047683716L23.79999212722778,4.100000047683716C23.999992127227785,4.100000047683716,24.099992127227782,4.200000047683716,24.199992127227784,4.3000000476837155L29.899992127227783,12.000000047683717C30.099992127227782,12.200000047683716,30.099992127227782,12.500000047683717,29.899992127227783,12.700000047683716L16.29999212722778,28.700000047683716C16.199992127227784,28.800000047683717,15.999992127227783,28.800000047683717,15.899992127227783,28.700000047683716L2.2999971272277833,12.700000047683716C2.000000027227783,12.500000047683717,2.000000027227783,12.200000047683716,2.0999999272277834,12.000000047683717L7.800002127227783,4.3000000476837155C7.900002127227784,4.200000047683716,8.000002127227784,4.100000047683716,8.200002127227783,4.100000047683716L15.899992127227783,3.200000286102716C15.999992127227783,3.200000047683716,15.999992127227783,3.200000047683716,16.099992127227782,3.200000047683716ZM17.699992127227784,4.8000000476837155Q17.599992127227782,4.8000000476837155,17.499992127227785,4.8000000476837155Q17.399992127227783,4.900000047683716,17.499992127227785,5.000000047683716L21.79999212722778,10.400000047683715C21.79999212722778,10.500000047683717,21.899992127227783,10.500000047683717,21.899992127227783,10.600000047683716C21.899992127227783,10.800000047683715,21.79999212722778,10.900000047683715,21.599992127227782,10.900000047683715L10.400002127227783,10.900000047683715C10.300002127227783,10.900000047683715,10.300002127227783,10.900000047683715,10.200002127227783,10.800000047683715C10.100002127227784,10.700000047683716,10.100002127227784,10.500000047683717,10.100002127227784,10.400000047683715L14.499992127227783,5.000000047683716Q14.499992127227783,4.900000047683716,14.499992127227783,4.8000000476837155Q14.399992127227783,4.8000000476837155,14.299992127227783,4.8000000476837155L8.400002127227783,10.700000047683716Q8.300002127227783,10.800000047683715,8.200002127227783,10.800000047683715C8.100002127227782,10.800000047683715,8.000002127227784,10.700000047683716,8.000002127227784,10.600000047683716L8.200002127227783,6.3000000476837155C8.200002127227783,6.200000047683716,8.200002127227783,6.200000047683716,8.100002127227782,6.200000047683716C8.000002127227784,6.200000047683716,8.000002127227784,6.200000047683716,8.000002127227784,6.3000000476837155L6.900002127227784,11.200000047683716C6.900002127227784,11.400000047683715,6.700002127227783,11.500000047683717,6.600002127227783,11.500000047683717L3.800002127227783,12.100000047683716Q3.7000021272277834,12.100000047683716,3.7000021272277834,12.200000047683716C3.7000021272277834,12.300000047683715,3.7000021272277834,12.300000047683715,3.800002127227783,12.300000047683715L6.500002127227783,12.300000047683715C6.700002127227783,12.300000047683715,6.800002127227783,12.400000047683715,6.900002127227784,12.500000047683717L13.499992127227783,24.300000047683717C13.499992127227783,24.400000047683715,13.599992127227782,24.400000047683715,13.699992127227784,24.400000047683715C13.799992127227783,24.400000047683715,13.799992127227783,24.300000047683717,13.799992127227783,24.200000047683716L8.600002127227782,12.900000047683715L8.600002127227782,12.800000047683715C8.600002127227782,12.600000047683716,8.700002127227783,12.500000047683717,8.900002127227783,12.400000047683715L23.099992127227782,12.400000047683715C23.199992127227784,12.400000047683715,23.199992127227784,12.400000047683715,23.29999212722778,12.400000047683715C23.499992127227785,12.500000047683717,23.499992127227785,12.700000047683716,23.499992127227785,12.800000047683715L18.199992127227784,24.100000047683714C18.199992127227784,24.200000047683716,18.199992127227784,24.300000047683717,18.29999212722778,24.300000047683717C18.399992127227783,24.300000047683717,18.499992127227785,24.300000047683717,18.499992127227785,24.200000047683716L24.999992127227785,12.600000047683716C25.099992127227782,12.500000047683717,25.199992127227784,12.400000047683715,25.399992127227783,12.400000047683715L28.099992127227782,12.400000047683715C28.199992127227784,12.400000047683715,28.199992127227784,12.400000047683715,28.199992127227784,12.300000047683715C28.199992127227784,12.200000047683716,28.199992127227784,12.200000047683716,28.099992127227782,12.200000047683716L25.29999212722778,11.600000047683716C25.099992127227782,11.600000047683716,24.999992127227785,11.400000047683715,24.899992127227783,11.300000047683715L23.999992127227785,6.3000000476837155Q23.999992127227785,6.200000047683716,23.899992127227783,6.200000047683716C23.79999212722778,6.200000047683716,23.79999212722778,6.200000047683716,23.79999212722778,6.3000000476837155L23.999992127227785,10.600000047683716C23.999992127227785,10.700000047683716,23.999992127227785,10.700000047683716,23.899992127227783,10.800000047683715C23.79999212722778,10.900000047683715,23.699992127227784,10.900000047683715,23.599992127227782,10.800000047683715L17.699992127227784,4.8000000476837155Z" fill="#000000" fill-opacity="1"/></g><g></g></g></svg>