<svg xmlns="http://www.w3.org/2000/svg" xmlns:xlink="http://www.w3.org/1999/xlink" fill="none" version="1.1" width="32" height="32" viewBox="0 0 32 32"><defs><clipPath id="master_svg0_134_17441"><rect x="0" y="0" width="32" height="32" rx="0"/></clipPath></defs><g clip-path="url(#master_svg0_134_17441)"><g><path d="M3.4000014626312254,11.000004410095215C3.0000014626312255,10.100000410095214,2.0000014626312255,9.699999410095215,1.0000014626312257,10.199999410095215C-3.736877440818631e-8,10.699999410095215,-0.2999995373687744,11.600004410095215,0.10000046263122558,12.500004410095215L4.100001462631226,20.999984410095216C4.700001462631225,22.299984410095213,5.400001462631225,22.999984410095216,6.600001462631226,22.999984410095216C7.900001462631225,22.999984410095216,8.500001462631225,22.199984410095215,9.100001462631226,20.999984410095216Q12.499971462631226,13.600004410095215,12.499971462631226,13.500004410095215C12.499971462631226,13.400004410095214,12.599971462631226,13.200004410095215,12.999971462631226,13.200004410095215C13.299971462631225,13.200004410095215,13.499971462631226,13.400004410095214,13.499971462631226,13.800004410095216L13.499971462631226,20.999984410095216C13.499971462631226,22.099984410095217,14.099971462631226,22.999984410095216,15.299971462631225,22.999984410095216C16.499971462631226,22.999984410095216,17.099971462631224,22.099984410095217,17.099971462631224,20.999984410095216L17.099971462631224,15.000004410095215C17.099971462631224,13.900004410095214,17.899971462631225,13.100004410095215,18.999971462631226,13.100004410095215C20.099971462631224,13.100004410095215,20.899971462631225,13.900004410095214,20.899971462631225,15.000004410095215L20.899971462631225,20.999984410095216C20.899971462631225,22.099984410095217,21.499971462631226,22.999984410095216,22.699971462631225,22.999984410095216C23.899971462631225,22.999984410095216,24.499971462631226,22.099984410095217,24.499971462631226,20.999984410095216L24.499971462631226,15.000004410095215C24.499971462631226,13.900004410095214,25.299971462631227,13.100004410095215,26.399971462631225,13.100004410095215C27.499971462631226,13.100004410095215,28.299971462631227,13.900004410095214,28.299971462631227,15.000004410095215L28.299971462631227,20.999984410095216C28.299971462631227,22.099984410095217,28.899971462631225,22.999984410095216,30.099971462631224,22.999984410095216C31.299971462631227,22.999984410095216,31.899971462631225,22.099984410095217,31.899971462631225,20.999984410095216L31.899971462631225,14.200004410095215C31.899971462631225,11.700004410095215,29.899971462631225,10.000000010095215,27.499971462631226,10.000000010095215Q25.099971462631224,10.000000010095215,23.599971462631224,11.700004410095215C22.799971462631227,10.699999410095215,21.699971462631225,10.000000010095215,19.799971462631227,10.000000010095215Q17.799971462631227,10.000000010095215,16.099971462631224,11.700004410095215C15.299971462631225,10.699999410095215,13.899971462631225,10.000000010095215,12.799971462631225,10.000000010095215C11.099971462631226,10.000000010095215,9.700001462631226,10.800000410095215,8.799991462631226,12.700004410095215L6.299991462631225,18.600004410095217L3.4000014626312254,11.000004410095215Z" fill="#000000" fill-opacity="1"/></g><g></g></g></svg>