<svg xmlns="http://www.w3.org/2000/svg" xmlns:xlink="http://www.w3.org/1999/xlink" fill="none" version="1.1" width="32" height="32" viewBox="0 0 32 32"><defs><clipPath id="master_svg0_134_17234"><rect x="0" y="0" width="32" height="32" rx="0"/></clipPath></defs><g clip-path="url(#master_svg0_134_17234)"><g><path d="M25.699975674438477,7.100000190734863C23.899975674438476,6.300000190734863,21.999975674438478,5.700000190734864,19.999975674438478,5.300000190734863L19.899975674438476,5.300000190734863C19.699975674438477,5.700000190734864,19.399975674438476,6.300000190734863,19.199975674438477,6.800000190734863C16.999975674438474,6.5000001907348635,14.899975674438476,6.5000001907348635,12.799975674438477,6.800000190734863C12.599975674438477,6.300000190734863,12.299975674438477,5.800000190734863,12.099975674438477,5.300000190734863L11.999995674438477,5.300000190734863C9.999995674438477,5.600000190734863,8.099995674438476,6.200000190734864,6.299995674438477,7.100000190734863C2.6999996744384767,12.500000190734863,1.6999996744384767,17.800000190734863,2.1999996744384767,23.000000190734863L2.1999996744384767,23.100000190734864C4.5999956744384765,24.900000190734865,6.899995674438476,25.900000190734865,9.199995674438476,26.600000190734864L9.299995674438478,26.600000190734864C9.799995674438478,25.900000190734865,10.299995674438476,25.100000190734864,10.699995674438476,24.300000190734863L10.699995674438476,24.200000190734862C9.899995674438475,23.900000190734865,9.199995674438476,23.600000190734864,8.499995674438477,23.200000190734862C8.399995674438475,23.200000190734862,8.399995674438475,23.100000190734864,8.499995674438477,23.100000190734864C8.599995674438476,23.000000190734863,8.799995674438478,22.900000190734865,8.899995674438475,22.800000190734863L8.999995674438477,22.800000190734863C13.599975674438477,24.900000190734865,18.499975674438478,24.900000190734865,23.099975674438475,22.800000190734863L23.199975674438477,22.800000190734863C23.29997567443848,22.900000190734865,23.499975674438478,23.000000190734863,23.599975674438475,23.100000190734864Q23.699975674438477,23.100000190734864,23.599975674438475,23.200000190734862C22.899975674438476,23.600000190734864,22.199975674438477,24.000000190734863,21.399975674438476,24.200000190734862Q21.29997567443848,24.300000190734863,21.399975674438476,24.300000190734863C21.79997567443848,25.100000190734864,22.29997567443848,25.900000190734865,22.79997567443848,26.600000190734864L22.899975674438476,26.600000190734864C25.199975674438477,25.900000190734865,27.499975674438478,24.800000190734863,29.899975674438476,23.100000190734864Q29.899975674438476,23.100000190734864,29.899975674438476,23.000000190734863C30.499975674438478,17.000000190734863,28.899975674438476,11.800000190734863,25.699975674438477,7.100000190734863ZM11.399995674438477,19.900000190734865C9.999995674438477,19.900000190734865,8.899995674438475,18.600000190734864,8.899995674438475,17.100000190734864C8.899995674438475,15.600000190734864,9.999995674438477,14.300000190734863,11.399995674438477,14.300000190734863C12.799975674438477,14.300000190734863,13.899975674438476,15.600000190734864,13.899975674438476,17.100000190734864C13.899975674438476,18.600000190734864,12.799975674438477,19.900000190734865,11.399995674438477,19.900000190734865ZM20.699975674438477,19.900000190734865C19.29997567443848,19.900000190734865,18.199975674438477,18.600000190734864,18.199975674438477,17.100000190734864C18.199975674438477,15.600000190734864,19.29997567443848,14.300000190734863,20.699975674438477,14.300000190734863C22.099975674438475,14.300000190734863,23.199975674438477,15.600000190734864,23.199975674438477,17.100000190734864C23.199975674438477,18.600000190734864,22.099975674438475,19.900000190734865,20.699975674438477,19.900000190734865Z" fill="#000000" fill-opacity="1"/></g><g></g></g></svg>