<svg xmlns="http://www.w3.org/2000/svg" xmlns:xlink="http://www.w3.org/1999/xlink" fill="none" version="1.1" width="32" height="32" viewBox="0 0 32 32"><defs><clipPath id="master_svg0_134_17329"><rect x="0" y="0" width="32" height="32" rx="0"/></clipPath></defs><g clip-path="url(#master_svg0_134_17329)"><g><path d="M22.49,23.709999904632568L21.73,23.709999904632568C19.47,23.709999904632568,17.21,23.709999904632568,14.95,23.709999904632568C14.0392,23.74469990463257,13.1587,23.379399904632567,12.54,22.709999904632568C11.50049,21.57229990463257,10.64364,20.28029990463257,10,18.87999990463257C8.7,16.279999904632568,7.46,13.659999904632569,6.18,11.05999990463257C5.79,10.259999904632569,5.359999999999999,9.499999904632569,4.9,8.739999904632569C4.24282,7.444939904632569,3.23883,6.357869904632569,2,5.599999904632568C3.24,5.599999904632568,4.41,5.599999904632568,5.57,5.599999904632568C7.91554,5.623112704632568,10.25581,5.827050904632569,12.57,6.209999904632569C15.4443,6.644369904632568,17.8646,8.58748990463257,18.91,11.299999904632568C19.8265,13.692189904632569,20.5521,16.15319990463257,21.08,18.65999990463257C21.3786,20.38649990463257,21.851,22.07849990463257,22.49,23.709999904632568Z" fill="#000000" fill-opacity="1"/></g><g><path d="M28.100000686645508,26.380000228881837C26.661800686645506,26.293400228881836,25.500000686645507,25.174000228881837,25.360000686645506,23.740000228881836C25.218160686645508,22.110800228881835,25.17141068664551,20.474700228881836,25.22000068664551,18.840000228881834C25.217450686645506,16.301180228881837,25.013480686645508,13.766560228881836,24.610000686645506,11.260000228881836C24.536020686645507,10.526220228881837,24.247316686645508,9.830545228881835,23.780000686645508,9.260000228881836L26.430000686645506,9.260000228881836C26.97000068664551,9.260000228881836,27.160000686645507,9.630000228881835,27.320000686645507,10.040000228881835C27.694040686645508,11.083740228881837,27.922850686645507,12.173950228881836,28.000000686645507,13.280000228881836C28.290000686645506,16.000000228881838,28.31000068664551,18.730000228881835,28.33000068664551,21.460000228881835C28.309840686645508,21.843100228881838,28.309840686645508,22.22690022888184,28.33000068664551,22.610000228881837C28.42000068664551,23.39000022888184,28.730000686645507,23.710000228881835,29.500000686645507,23.690000228881836Q30.000000686645507,23.690000228881836,30.000000686645507,23.630000228881833L30.000000686645507,26.320000228881835C29.37081068664551,26.410000228881835,28.73361068664551,26.430100228881837,28.100000686645508,26.380000228881837Z" fill="#000000" fill-opacity="1"/></g><g></g></g></svg>