<svg xmlns="http://www.w3.org/2000/svg" xmlns:xlink="http://www.w3.org/1999/xlink" fill="none" version="1.1" width="32" height="32" viewBox="0 0 32 32"><defs><clipPath id="master_svg0_134_17303"><rect x="0" y="0" width="32" height="32" rx="0"/></clipPath></defs><g clip-path="url(#master_svg0_134_17303)"><g><path d="M14.123319078369141,26.932730509643555Q14.123319078369141,26.987370509643554,14.11795907836914,27.041750509643556Q14.11260907836914,27.096130509643555,14.101949078369142,27.149720509643554Q14.09128907836914,27.203320509643554,14.07542907836914,27.255610509643553Q14.05956907836914,27.307900509643556,14.03865907836914,27.358380509643556Q14.01774907836914,27.408870509643556,13.99198907836914,27.457060509643554Q13.96622907836914,27.505250509643556,13.93587907836914,27.550680509643556Q13.90551907836914,27.596120509643555,13.87085907836914,27.638360509643555Q13.836189078369141,27.680600509643554,13.79755907836914,27.719240509643555Q13.758919078369141,27.757870509643556,13.71667907836914,27.792540509643555Q13.67444907836914,27.827210509643553,13.62901907836914,27.857560509643555Q13.58357907836914,27.887920509643553,13.53539907836914,27.913680509643555Q13.48720907836914,27.939440509643553,13.43672907836914,27.960350509643554Q13.38624907836914,27.981260509643555,13.33395907836914,27.997120509643555Q13.281669078369141,28.012990509643554,13.228079078369142,28.023650509643556Q13.17448907836914,28.034310509643554,13.120119078369141,28.039660509643554Q13.065739078369141,28.045020509643553,13.01109907836914,28.045020509643553Q12.956459078369141,28.045020509643553,12.902079078369141,28.039660509643554Q12.847706078369141,28.034310509643554,12.794116078369141,28.023650509643556Q12.740526078369141,28.012990509643554,12.68823907836914,27.997120509643555Q12.63595207836914,27.981260509643555,12.58547107836914,27.960350509643554Q12.534990078369141,27.939440509643553,12.486802078369141,27.913680509643555Q12.43861407836914,27.887920509643553,12.393183078369141,27.857560509643555Q12.34775207836914,27.827210509643553,12.30551507836914,27.792540509643555Q12.263277078369141,27.757870509643556,12.22464107836914,27.719240509643555Q12.18600507836914,27.680600509643554,12.15134207836914,27.638360509643555Q12.11667907836914,27.596120509643555,12.08632307836914,27.550680509643556Q12.05596607836914,27.505250509643556,12.03020907836914,27.457060509643554Q12.004452078369141,27.408870509643556,11.983542578369141,27.358380509643556Q11.96263287836914,27.307900509643556,11.94677177836914,27.255610509643553Q11.930910678369141,27.203320509643554,11.920250978369141,27.149720509643554Q11.90959127836914,27.096130509643555,11.90423563836914,27.041750509643556Q11.89888000486914,26.987370509643554,11.89888000486914,26.932730509643555Q11.89888000486914,26.878080509643553,11.90423563836914,26.823700509643555Q11.90959127836914,26.769322509643555,11.920250978369141,26.715729509643555Q11.930910678369141,26.662135509643555,11.94677177836914,26.609845509643556Q11.96263287836914,26.557554509643555,11.983542578369141,26.507070509643555Q12.004452078369141,26.456587509643555,12.03020907836914,26.408395509643555Q12.05596607836914,26.360204509643555,12.08632307836914,26.314770509643555Q12.11667907836914,26.269336509643555,12.15134207836914,26.227096509643555Q12.18600507836914,26.184856509643556,12.22464107836914,26.146217509643556Q12.263277078369141,26.107578509643556,12.30551507836914,26.072913509643556Q12.34775207836914,26.038247509643554,12.393183078369141,26.007889509643555Q12.43861407836914,25.977531509643555,12.486802078369141,25.951772509643554Q12.534990078369141,25.926013509643553,12.58547107836914,25.905102809643555Q12.63595207836914,25.884191609643555,12.68823907836914,25.868329509643555Q12.740526078369141,25.852467309643554,12.794116078369141,25.841806909643555Q12.847706078369141,25.831146509643556,12.902079078369141,25.825790559643554Q12.956459078369141,25.820434570643556,13.01109907836914,25.820434570643556Q13.065739078369141,25.820434570643556,13.120119078369141,25.825790559643554Q13.17448907836914,25.831146509643556,13.228079078369142,25.841806909643555Q13.281669078369141,25.852467309643554,13.33395907836914,25.868329509643555Q13.38624907836914,25.884191609643555,13.43672907836914,25.905102809643555Q13.48720907836914,25.926013509643553,13.53539907836914,25.951772509643554Q13.58357907836914,25.977531509643555,13.62901907836914,26.007889509643555Q13.67444907836914,26.038247509643554,13.71667907836914,26.072913509643556Q13.758919078369141,26.107578509643556,13.79755907836914,26.146217509643556Q13.836189078369141,26.184856509643556,13.87085907836914,26.227096509643555Q13.90551907836914,26.269336509643555,13.93587907836914,26.314770509643555Q13.96622907836914,26.360204509643555,13.99198907836914,26.408395509643555Q14.01774907836914,26.456587509643555,14.03865907836914,26.507070509643555Q14.05956907836914,26.557554509643555,14.07542907836914,26.609845509643556Q14.09128907836914,26.662135509643555,14.101949078369142,26.715729509643555Q14.11260907836914,26.769322509643555,14.11795907836914,26.823700509643555Q14.123319078369141,26.878080509643553,14.123319078369141,26.932730509643555Z" fill="#2C2C2B" fill-opacity="1"/></g><g><path d="M21.02569814147949,26.932750509643554Q21.02569814147949,26.987390509643554,21.02034814147949,27.041770509643555Q21.014988141479492,27.096140509643554,21.00432814147949,27.149740509643554Q20.993668141479493,27.203330509643553,20.977808141479493,27.255620509643556Q20.961948141479493,27.307900509643556,20.941038141479492,27.358390509643556Q20.92012814147949,27.408870509643556,20.894368141479493,27.457060509643554Q20.86861814147949,27.505250509643556,20.838258141479493,27.550680509643556Q20.80790814147949,27.596110509643555,20.773238141479492,27.638350509643555Q20.738578141479493,27.680590509643554,20.699948141479492,27.719230509643555Q20.66130814147949,27.757870509643556,20.61906814147949,27.792530509643555Q20.57683814147949,27.827190509643554,20.531408141479492,27.857550509643556Q20.485978141479492,27.887910509643554,20.43778814147949,27.913670509643556Q20.389598141479492,27.939420509643554,20.339118141479492,27.960330509643555Q20.288638141479492,27.981240509643555,20.236358141479492,27.997110509643555Q20.184068141479493,28.012970509643555,20.130478141479493,28.023630509643553Q20.076888141479493,28.034290509643554,20.02251814147949,28.039640509643554Q19.968138141479493,28.045000509643554,19.913498141479494,28.045000509643554Q19.85885814147949,28.045000509643554,19.804488141479492,28.039640509643554Q19.750108141479494,28.034290509643554,19.69651914147949,28.023630509643553Q19.642930141479493,28.012970509643555,19.59064414147949,27.997110509643555Q19.538358141479492,27.981240509643555,19.48787814147949,27.960330509643555Q19.43739814147949,27.939420509643554,19.389211141479493,27.913670509643556Q19.341024141479494,27.887910509643554,19.295593141479493,27.857550509643556Q19.250163141479494,27.827190509643554,19.207926141479494,27.792530509643555Q19.16569014147949,27.757870509643556,19.12705414147949,27.719230509643555Q19.08841914147949,27.680590509643554,19.053756141479493,27.638350509643555Q19.01909314147949,27.596110509643555,18.98873814147949,27.550680509643556Q18.958382141479493,27.505250509643556,18.93262514147949,27.457060509643554Q18.906869141479493,27.408870509643556,18.88595934147949,27.358390509643556Q18.86504994147949,27.307900509643556,18.849189141479492,27.255620509643556Q18.833328241479492,27.203330509643553,18.822668741479493,27.149740509643554Q18.812009241479494,27.096140509643554,18.806653691479493,27.041770509643555Q18.801298141479492,26.987390509643554,18.801298141479492,26.932750509643554Q18.801298141479492,26.878110509643555,18.806653691479493,26.823730509643553Q18.812009241479494,26.769348509643553,18.822668741479493,26.715756509643555Q18.833328241479492,26.662165509643554,18.849189141479492,26.609876509643556Q18.86504994147949,26.557588509643555,18.88595934147949,26.507105509643555Q18.906869141479493,26.456623509643556,18.93262514147949,26.408434509643556Q18.958382141479493,26.360244509643554,18.98873814147949,26.314811509643555Q19.01909314147949,26.269379509643553,19.053756141479493,26.227140509643554Q19.08841914147949,26.184902509643553,19.12705414147949,26.146265509643555Q19.16569014147949,26.107627509643553,19.207926141479494,26.072963509643554Q19.250163141479494,26.038299509643554,19.295593141479493,26.007942509643556Q19.341024141479494,25.977584509643556,19.389211141479493,25.951827509643554Q19.43739814147949,25.926069509643554,19.48787814147949,25.905158909643553Q19.538358141479492,25.884248509643555,19.59064414147949,25.868386909643554Q19.642930141479493,25.852525309643553,19.69651914147949,25.841865309643556Q19.750108141479494,25.831205309643554,19.804488141479492,25.825849499643553Q19.85885814147949,25.820493697643556,19.913498141479494,25.820493697643556Q19.968138141479493,25.820493697643556,20.02251814147949,25.825849499643553Q20.076888141479493,25.831205309643554,20.130478141479493,25.841865309643556Q20.184068141479493,25.852525309643553,20.236358141479492,25.868386909643554Q20.288638141479492,25.884248509643555,20.339118141479492,25.905158909643553Q20.389598141479492,25.926069509643554,20.43778814147949,25.951827509643554Q20.485978141479492,25.977584509643556,20.531408141479492,26.007942509643556Q20.57683814147949,26.038299509643554,20.61906814147949,26.072963509643554Q20.66130814147949,26.107627509643553,20.699948141479492,26.146265509643555Q20.738578141479493,26.184902509643553,20.773238141479492,26.227140509643554Q20.80790814147949,26.269379509643553,20.838258141479493,26.314811509643555Q20.86861814147949,26.360244509643554,20.894368141479493,26.408434509643556Q20.92012814147949,26.456623509643556,20.941038141479492,26.507105509643555Q20.961948141479493,26.557588509643555,20.977808141479493,26.609876509643556Q20.993668141479493,26.662165509643554,21.00432814147949,26.715756509643555Q21.014988141479492,26.769348509643553,21.02034814147949,26.823730509643553Q21.02569814147949,26.878110509643555,21.02569814147949,26.932750509643554Z" fill="#2C2C2B" fill-opacity="1"/></g><g transform="matrix(0.06171051412820816,-0.9980940818786621,0.9980940818786621,0.06171051412820816,2.6266142198219313,16.2754742755169)"><rect x="9.9697265625" y="6.74072265625" width="0.9740999937057495" height="0.9743000268936157" rx="0" fill="#2C2C2B" fill-opacity="1"/></g><g><path d="M26.4275,16.3825L26.4262,16.383499999999998C25.0992,14.571,23.328,13.1307,21.2831,12.201C20.9077,12.0343,20.5288,11.8868,20.1477,11.7556C20.1605,11.7242,20.1754,11.6941,20.1877,11.6623C21.1778,9.08977,19.8177,6.21165,17.2016,5.3433C16.561500000000002,5.11111,15.8863,4.99075,15.2054,4.9875C15.1688,4.8622,15.0889,4.3132,15.7854,2.830399L14.3742,2Q14.2042,2.2359999999999998,14.0374,2.4661C13.6534,2.997,13.2825,3.5105,12.9345,4.0161C12.55569,3.61388,12.03746,3.37165,11.4859,3.339L9.8543,3.2377000000000002L9.852,3.2377000000000002L9.849499999999999,3.2377000000000002C9.8066,3.2352,9.7631,3.2338,9.7202,3.2338C8.56712,3.23542,7.61326,4.13175,7.54,5.282500000000001L7.4388,6.9169L7.4388,6.9199L7.4388,6.9227C7.37094,8.12357,8.28502,9.15408,9.4854,9.23L10.6527,9.302299999999999C10.56587,10.22422,10.72819,11.15254,11.1227,11.9903C9.52458,12.6672,8.07569,13.6526,6.859,14.8903C3,18.7883,3,23.06,3,26.4916L3,28.5622L4.524,26.9459C4.82738,28.0195,5.2750699999999995,29.0469,5.8548,30L7.8367,30C6.8456600000000005,28.6748,6.1752199999999995,27.1379,5.878,25.51L8.113299999999999,23.1392L6.963,26.745L8.993,25.2676C12.5788,22.6576,16.860799999999998,22.0583,21.7193,23.485C23.5935,24.1726,25.6973,23.5808,26.9382,22.017C26.9823,21.9542,27.021,21.889,27.061,21.8244C27.1686,22.4,27.2235,22.9842,27.2248,23.5698C27.2805,25.8194,26.724,28.0419,25.6148,29.9998L27.4918,29.9998C28.4409,27.9915,28.9126,25.7909,28.87,23.57C28.8363,20.9762,27.9812,18.4598,26.4275,16.3825ZM13.8455,5.9257C14.1547,6.39097,14.6858,6.6594,15.2438,6.6325C15.736,6.63828,16.223399999999998,6.7303,16.683799999999998,6.9044C17.784399999999998,7.26356,18.6017,8.19415,18.8157,9.33191C19.0298,10.46968,18.6065,11.63364,17.7117,12.3682L17.2365,11.7833L17.2333,11.7793C16.7881,11.23343,16.053,11.01757,15.3834,11.23607C14.7137,11.45456,14.2474,12.0624,14.2098,12.7658C12.82606,12.1753,12.03705,10.70396,12.3108,9.224599999999999C12.52516,7.97644,13.0163,6.79213,13.7482,5.7585999999999995C13.7773,5.81616,13.8098,5.87196,13.8455,5.9257ZM17.3355,15.1846L16.7283,15.6808C16.6139,15.774,16.445700000000002,15.757,16.3523,15.6428L16.2259,15.4879C16.1284,15.3686,16.146,15.1928,16.2653,15.0952L16.865299999999998,14.6052L15.6303,13.0894C15.502,12.9346,15.5244,12.7049,15.6802,12.5778C15.8361,12.4507,16.0656,12.475,16.1914,12.6319L19.646,16.8836C19.8156,17.0912,19.7084,17.4047,19.4472,17.4651C19.4205,17.4714,19.3931,17.4745,19.3656,17.4745C19.2568,17.4747,19.1537,17.4257,19.085,17.3413L18.7409,16.9174L17.519399999999997,17.9145C17.398899999999998,18.0131,17.2213,17.9952,17.1229,17.874499999999998L16.569699999999997,17.197C16.4726,17.0777,16.4905,16.9023,16.6097,16.8051L17.8372,15.8031L17.3355,15.1846ZM9.08,7.0184L9.1814,5.3842C9.199,5.09968,9.434940000000001,4.87798,9.719999999999999,4.8781L9.752600000000001,4.8791L11.3861,4.9803999999999995C11.6834,4.99866,11.90945,5.25473,11.8907,5.552L11.8834,5.6701999999999995C11.51427,6.30554,11.21173,6.97731,10.980599999999999,7.6748L9.585899999999999,7.5886C9.28918,7.56994,9.063189999999999,7.31523,9.08,7.0184ZM25.5944,21.07C24.7587,22.0584,23.3816,22.3964,22.1832,21.9073C17.651899999999998,20.5768,13.5543,20.8539,9.9708,22.7273L11.8777,16.749299999999998L4.6747,24.3886C4.6334800000000005,21.2717,5.84093,18.2679,8.027899999999999,16.0467C9.18722,14.8644,10.588280000000001,13.9465,12.1352,13.3559C12.77435,13.9356,13.5427,14.3544,14.3763,14.5773C14.5612,14.6287,14.7492,14.6688,14.939,14.6973C14.7141,15.2481,14.8081,15.8777,15.1839,16.338900000000002L15.2686,16.442700000000002C15.0619,16.985599999999998,15.1608,17.5975,15.528,18.0477L16.081200000000003,18.7254C16.6497,19.4216,17.6749,19.5252,18.3712,18.9568L18.7026,18.6863C19.4255,18.991,20.263,18.7641,20.7332,18.1361C21.2033,17.5081,21.1852,16.6406,20.6893,16.0328L18.7466,13.6417C18.9189,13.501,19.0814,13.3486,19.2329,13.1857C19.7037,13.3309,20.1655,13.5039,20.6158,13.7038C22.4117,14.5215,23.965,15.7907,25.1243,17.3876C26.0987,18.7278,26.2745,20.1043,25.5944,21.07Z" fill="#2C2C2B" fill-opacity="1"/></g><g></g></g></svg>