<svg xmlns="http://www.w3.org/2000/svg" xmlns:xlink="http://www.w3.org/1999/xlink" fill="none" version="1.1" width="32" height="32" viewBox="0 0 32 32"><defs><clipPath id="master_svg0_134_17352"><rect x="0" y="0" width="32" height="32" rx="0"/></clipPath></defs><g clip-path="url(#master_svg0_134_17352)"><g><path d="M26.46120002975464,15.796816689300536C26.33920002975464,14.297216689300537,25.939300029754637,12.833396689300537,25.282100029754638,11.479996689300538L29.000000029754638,10.129996689300537C28.70680002975464,9.522716689300537,28.362900029754638,8.941256689300538,27.97190002975464,8.391796689300538L26.228800029754638,9.026796689300536C23.099100029754638,4.639995689300537,17.42710002975464,2.880456689300537,12.364110029754638,4.725808689300537C7.301160029754639,6.5711666893005365,4.091630029754638,11.567886689300536,4.5188000297546385,16.93971668930054L6.2665000297546385,16.298516689300538C6.321930029754639,16.968016689300537,6.432600029754639,17.631816689300535,6.597400029754638,18.283116689300535L2.8838000297546387,19.638416689300538C3.251214029754639,21.096516689300536,3.886210029754639,22.473716689300538,4.756500029754639,23.700016689300536L6.722800029754639,22.983716689300536L6.725400029754638,22.987616689300538C7.918500029754639,24.667416689300538,9.527800029754639,26.008216689300536,11.395400029754638,26.878516689300536C17.401500029754637,29.669916689300535,24.533900029754637,27.073616689300536,27.340000029754638,21.074316689300538C28.21470002975464,19.204816689300536,28.587000029754638,17.139516689300535,28.42000002975464,15.082316689300537L26.46120002975464,15.796816689300536ZM23.541200029754638,19.29351668930054C21.721300029754637,23.191316689300535,17.08940002975464,24.879916689300536,13.187900029754639,23.06791668930054C12.339240029754638,22.672516689300537,11.569580029754638,22.12601668930054,10.916500029754639,21.45511668930054L8.931900029754638,22.178616689300537C7.865800029754639,21.079816689300536,7.144740029754638,19.69291668930054,6.857700029754639,18.189116689300537L6.857700029754639,18.189116689300537L10.582800029754639,16.831716689300535C10.45041002975464,16.151716689300535,10.408980029754638,15.457216689300537,10.45960002975464,14.766416689300538L8.707900029754638,15.402616689300537C9.109410029754638,9.968416689300536,14.83250002975464,6.623226689300537,19.76450002975464,8.939996689300537L19.771200029754638,8.939996689300537C20.617300029754638,9.337246689300537,21.38460002975464,9.884406689300537,22.03580002975464,10.554996689300538L23.78000002975464,9.920996689300537C24.26110002975464,10.416116689300537,24.67440002975464,10.972916689300536,25.009000029754638,11.576796689300537L21.299000029754637,12.936296689300537C22.04680002975464,14.272016689300537,22.38630002975464,15.797716689300538,22.27560002975464,17.324516689300538L24.244100029754637,16.609416689300538C24.17490002975464,17.539416689300538,23.93660002975464,18.44891668930054,23.541200029754638,19.29351668930054Z" fill="#000000" fill-opacity="1"/></g><g></g></g></svg>