<svg xmlns="http://www.w3.org/2000/svg" xmlns:xlink="http://www.w3.org/1999/xlink" fill="none" version="1.1" width="32" height="32" viewBox="0 0 32 32"><defs><clipPath id="master_svg0_134_17488"><rect x="0" y="0" width="32" height="32" rx="0"/></clipPath></defs><g clip-path="url(#master_svg0_134_17488)"><g><path d="M23.59,19.41L26,22L21,22L21,24L26,24L23.59,26.59L25,28L30,23L25,18L23.59,19.41Z" fill="#000000" fill-opacity="1"/></g><g><path d="M13,6C9.679780000000001,6.00122356,6.62991,7.83037,5.06528,10.75882C3.5006500000000003,13.68727,3.67543,17.2393,5.52,20L7.18,18.89C4.72683,15.21994,6.24177,10.22309,10.31997,8.5332C14.3982,6.8433209999999995,19.0034,9.30417,19.865,13.63372C20.7264,17.9635,17.4143,22,13,22L2,22L2,24L13,24C17.970599999999997,24,22,19.970599999999997,22,15C22,10.029440000000001,17.970599999999997,6,13,6Z" fill="#000000" fill-opacity="1"/></g><g></g></g></svg>