<svg xmlns="http://www.w3.org/2000/svg" xmlns:xlink="http://www.w3.org/1999/xlink" fill="none" version="1.1" width="32" height="32" viewBox="0 0 32 32"><defs><clipPath id="master_svg0_134_17568"><rect x="0" y="0" width="32" height="32" rx="0"/></clipPath></defs><g clip-path="url(#master_svg0_134_17568)"><g><path d="M15.99999189376831,30L9.824201893768311,26.7071C6.23611189376831,24.7984,3.9955697037683104,21.0641,3.9999999999983107,17L3.9999999999983107,4C4.001212123768311,2.895933,4.89593289376831,2.00121236,6.00000189376831,2L25.99999189376831,2C27.10409189376831,2.00121188,27.99879189376831,2.895932,27.99999189376831,4L27.99999189376831,17C28.00439189376831,21.0641,25.76379189376831,24.7983,22.17579189376831,26.7069L15.99999189376831,30ZM6.00000189376831,4L6.00000189376831,17C5.996471893768311,20.3253,7.82977189376831,23.3807,10.76560189376831,24.9423L15.99999189376831,27.7333L21.23439189376831,24.9423C24.170191893768312,23.3807,26.00349189376831,20.3253,25.99999189376831,17L25.99999189376831,4L6.00000189376831,4Z" fill="#000000" fill-opacity="1"/></g><g><path d="M16,25.277L16,6L24,6L24,16.8048C23.99992,19.3875,22.5777,21.7603,20.3,22.9779L16,25.277Z" fill="#000000" fill-opacity="1"/></g><g></g></g></svg>