<svg xmlns="http://www.w3.org/2000/svg" xmlns:xlink="http://www.w3.org/1999/xlink" fill="none" version="1.1" width="32" height="32" viewBox="0 0 32 32"><defs><clipPath id="master_svg0_134_17628"><rect x="0" y="0" width="32" height="32" rx="0"/></clipPath></defs><g clip-path="url(#master_svg0_134_17628)"><g><path d="M10.3555,23.0581C12.77,24.5918,15.6208,26,17.9514,26C19.0117,26.0452,20.0441,25.6534,20.8074,24.916C23.0933,22.626,20.9474,18.5181,18.8694,14.5439L24.67,8.7427C25.74,9.4287,26.7738,10.168,27.6817,10.8667L29,9.348600000000001C28.2217,8.7422,27.228,8.0103,26.1279,7.2852L30,3.4131L28.5859,2L24.3794,6.2061C21.063,4.2961,17.2715,2.96,15.1506,5.0845C13.1118,7.127,14.5994,10.6162,16.4189,14.1665L10.1118,20.4731C9.0796,19.7598,8.113299999999999,19.0283,7.3118,18.3721L6,19.8848C6.6145,20.3906,7.5513,21.1299,8.6653,21.9199L4,26.585L4,2L2,2L2,28C2,29.1046,2.895431,30,4,30L30,30L30,28L5.4133,28L10.3555,23.0581ZM16.564700000000002,6.501C17.700400000000002,5.363300000000001,20.2578,6.2148,22.9019,7.6841L17.9072,12.6782C16.5942,10.0591,15.5562,7.5112,16.564700000000002,6.501ZM17.386200000000002,16.026899999999998C18.9662,19.0586,20.5684,22.3228,19.3933,23.4995C18.0808,24.814,14.8706,23.4741,11.8213,21.5918L17.386200000000002,16.026899999999998Z" fill="#000000" fill-opacity="1"/></g><g></g></g></svg>