<svg xmlns="http://www.w3.org/2000/svg" xmlns:xlink="http://www.w3.org/1999/xlink" fill="none" version="1.1" width="32" height="32" viewBox="0 0 32 32"><defs><clipPath id="master_svg0_134_17740"><rect x="0" y="0" width="32" height="32" rx="0"/></clipPath></defs><g clip-path="url(#master_svg0_134_17740)"><g><path d="M25.3943,23.999995095825195C26.6157,21.068195095825196,25.9569,17.689795095825197,23.7236,15.431595095825195C24.3397,13.879495095825195,23.9044,12.107495095825195,22.6392,11.017595095825195L25.4151,8.241695095825195C26.1949,7.460065095825195,26.1949,6.194735095825195,25.4151,5.413095095825195L22.5869,2.584900095825195C21.8054,1.8048930958251952,20.5398,1.8048930958251952,19.7583,2.584900095825195L6.5859000000000005,15.757295095825196C5.80622,16.538995095825193,5.80622,17.804195095825193,6.5859000000000005,18.585895095825194L9.414100000000001,21.414095095825196C10.19572,22.193895095825194,11.461079999999999,22.193895095825194,12.2427,21.414095095825196L17.0176,16.638695095825195C18.4267,18.269195095825197,20.8854,18.462095095825195,22.5315,17.071295095825196C24.2175,19.000295095825194,24.4778,21.792595095825195,23.1775,23.999995095825195L16,23.999995095825195L16,27.999995095825195L4,27.999995095825195L4,29.999995095825195L28,29.999995095825195L28,23.999995095825195L25.3943,23.999995095825195ZM10.8281,19.999995095825195L8,17.171395095825197L9.8787,15.292995095825196L12.707,18.121095095825197L10.8281,19.999995095825195ZM16,13.999995095825195C16.0015,14.252695095825196,16.027,14.504595095825195,16.0762,14.752395095825195L14.1211,16.706995095825196L11.2927,13.878895095825195L21.1727,3.9989050958251955L24.001,6.827095095825196L20.7522,10.076195095825195C18.2834,9.585595095825195,15.9855,11.482935095825196,16,13.999995095825195ZM20,15.999995095825195C18.895400000000002,15.999995095825195,18,15.104595095825195,18,13.999995095825195C18,12.895395095825195,18.895400000000002,11.999995095825195,20,11.999995095825195C21.1046,11.999995095825195,22,12.895395095825195,22,13.999995095825195C21.9987,15.103995095825196,21.104,15.998695095825195,20,15.999995095825195ZM26,27.999995095825195L18,27.999995095825195L18,25.999995095825195L26,25.999995095825195L26,27.999995095825195Z" fill="#000000" fill-opacity="1"/></g><g></g></g></svg>