<svg xmlns="http://www.w3.org/2000/svg" xmlns:xlink="http://www.w3.org/1999/xlink" fill="none" version="1.1" width="20" height="20" viewBox="0 0 20 20"><defs><clipPath id="master_svg0_134_08872"><rect x="0" y="0" width="20" height="20" rx="0"/></clipPath></defs><g clip-path="url(#master_svg0_134_08872)"><g></g><g><path d="M10,1C5.1,1,1,5.1,1,10C1,14.9,5.1,19,10,19C14.9,19,19,15,19,10C19,5,15,1,10,1ZM13.5,14.5L10,11L6.5,14.5L5.5,13.5L9,10L5.5,6.5L6.5,5.5L10,9L13.5,5.5L14.5,6.5L11,10L14.5,13.5L13.5,14.5Z" fill="#000000" fill-opacity="1"/></g><g style="opacity:0;"><path d="M13.5,14.5L10,11L6.5,14.5L5.5,13.5L9,10L5.5,6.5L6.5,5.5L10,9L13.5,5.5L14.5,6.5L11,10L14.5,13.5L13.5,14.5Z" fill="#000000" fill-opacity="1"/></g></g></svg>