<svg xmlns="http://www.w3.org/2000/svg" xmlns:xlink="http://www.w3.org/1999/xlink" fill="none" version="1.1" width="32" height="32" viewBox="0 0 32 32"><defs><clipPath id="master_svg0_134_17869"><rect x="0" y="0" width="32" height="32" rx="0"/></clipPath></defs><g clip-path="url(#master_svg0_134_17869)"><g><ellipse cx="23" cy="24" rx="2" ry="2" fill="#000000" fill-opacity="1"/></g><g><path d="M30.776900953674314,23.4785C29.354000953674316,20.1498,26.30080095367432,18,23.000000953674316,18C19.699200953674318,18,16.646200953674317,20.1499,15.223100953674317,23.4785L15.000000953674316,24L15.223100953674317,24.5215C16.646200953674317,27.8502,19.699200953674318,30,23.000000953674316,30C26.30080095367432,30,29.354000953674316,27.850099999999998,30.776900953674314,24.5215L31.000000953674316,24L30.776900953674314,23.4785ZM23.000000953674316,28C20.794400953674316,28,19.000000953674316,26.2056,19.000000953674316,24C19.000000953674316,21.7944,20.794400953674316,20,23.000000953674316,20C25.205600953674317,20,27.000000953674316,21.7944,27.000000953674316,24C27.000000953674316,26.2056,25.205600953674317,28,23.000000953674316,28Z" fill="#000000" fill-opacity="1"/></g><g><path d="M14,28L9,28L9,8L23,8L23,15L25,15L25,4C25,2.8970000000000002,24.1025,2,23,2L9,2C7.897,2,7,2.8970000000000002,7,4L7,28C7,29.1025,7.897,30,9,30L14,30L14,28ZM9,4L23,4L23,6L9,6L9,4Z" fill="#000000" fill-opacity="1"/></g><g></g></g></svg>