<svg xmlns="http://www.w3.org/2000/svg" xmlns:xlink="http://www.w3.org/1999/xlink" fill="none" version="1.1" width="32" height="32" viewBox="0 0 32 32"><defs><clipPath id="master_svg0_134_17846"><rect x="0" y="0" width="32" height="32" rx="0"/></clipPath></defs><g clip-path="url(#master_svg0_134_17846)"><g><path d="M27.3803,28L20.6178,28L24,21.2358L27.3803,28ZM24,18C23.6085,18,23.2695,18.2251,23.1053,18.5527L18.105301,28.5527C18.0379009,28.6875,18,28.8393,18,29C18,29.5522,18.447701,30,19,30L29,30C29.552300000000002,30,30,29.5522,30,29C30,28.861800000000002,29.972,28.7305,29.9214,28.610799999999998L24.8945,18.5527C24.7304,18.2251,24.3914,18,24,18Z" fill="#000000" fill-opacity="1"/></g><g><path d="M15,28L9,28L9,8L23,8L23,15L25,15L25,4C25,2.8970000000000002,24.1025,2,23,2L9,2C7.897,2,7,2.8970000000000002,7,4L7,28C7,29.1025,7.897,30,9,30L15,30L15,28ZM9,4L23,4L23,6L9,6L9,4Z" fill="#000000" fill-opacity="1"/></g><g></g></g></svg>