<svg xmlns="http://www.w3.org/2000/svg" xmlns:xlink="http://www.w3.org/1999/xlink" fill="none" version="1.1" width="32" height="32" viewBox="0 0 32 32"><defs><clipPath id="master_svg0_134_17910"><rect x="0" y="0" width="32" height="32" rx="0"/></clipPath></defs><g clip-path="url(#master_svg0_134_17910)"><g><path d="M4,20L4,22L8.586,22L2,28.586L3.4139999999999997,30L10,23.414L10,28L12,28L12,20L4,20Z" fill="#000000" fill-opacity="1"/></g><g><path d="M23.500000046920775,4L8.500000046920777,4L1.7158000469207764,13.0454L6.010000046920776,18L7.5214000469207765,16.689999999999998L5.190000046920776,14L10.445400046920776,14L16.000000046920775,22.8867L21.554400046920776,14L26.810000046920777,14L15.812500046920777,26.6919L17.324200046920776,28L30.284200046920777,13.0454L23.500000046920775,4ZM5.000000046920777,12L9.500000046920777,6L14.195800046920777,6L10.445800046920777,12L5.000000046920777,12ZM16.000000046920775,6.886699999999999L19.195800046920777,12L12.804200046920776,12L16.000000046920775,6.886699999999999ZM16.000000046920775,19.113300000000002L12.804400046920776,14L19.195600046920777,14L16.000000046920775,19.113300000000002ZM21.554200046920776,12L17.804200046920776,6L22.500000046920775,6L27.000000046920775,12L21.554200046920776,12Z" fill="#000000" fill-opacity="1"/></g><g></g></g></svg>