<svg xmlns="http://www.w3.org/2000/svg" xmlns:xlink="http://www.w3.org/1999/xlink" fill="none" version="1.1" width="32" height="32" viewBox="0 0 32 32"><defs><clipPath id="master_svg0_134_17916"><rect x="0" y="0" width="32" height="32" rx="0"/></clipPath></defs><g clip-path="url(#master_svg0_134_17916)"><g><path d="M32,25C32,23.6982,31.1616,22.5986,30,22.1841L30,18L28,18L28,22.1846C26.8384,22.5987,26,23.6983,26,25C26,26.3017,26.8384,27.401400000000002,28,27.8154L28,30L30,30L30,27.8159C31.1616,27.4013,32,26.3017,32,25ZM29,26C28.4485,26,28,25.5513,28,25C28,24.4487,28.4485,24,29,24C29.5515,24,30,24.4487,30,25C30,25.5513,29.5515,26,29,26Z" fill="#000000" fill-opacity="1"/></g><g><path d="M24,23C24,21.6982,23.1616,20.5986,22,20.1841L22,18L20,18L20,20.1846C18.8384,20.5987,18,21.6983,18,23C18,24.3017,18.8384,25.4014,20,25.8154L20,30L22,30L22,25.8159C23.1616,25.4013,24,24.3017,24,23ZM21,24C20.4485,24,20,23.5513,20,23C20,22.4487,20.4485,22,21,22C21.5515,22,22,22.4487,22,23C22,23.5513,21.5515,24,21,24Z" fill="#000000" fill-opacity="1"/></g><g><path d="M0.7157999873161316,11.045400953674317L13.675799987316132,26.000000953674316L15.187499987316132,24.691900953674317L4.190199987316132,12.000000953674316L9.44559998731613,12.000000953674316L14.999999987316132,20.886700953674318L20.55439998731613,12.000000953674316L25.809799987316133,12.000000953674316L23.47829998731613,14.690400953674317L24.989799987316133,16.000000953674316L29.284199987316132,11.045400953674317L22.49999998731613,2.0000009536743164L7.499999987316132,2.0000009536743164L0.7157999873161316,11.045400953674317ZM20.55419998731613,10.000000953674316L16.80419998731613,4.000000953674316L21.49999998731613,4.000000953674316L25.99999998731613,10.000000953674316L20.55419998731613,10.000000953674316ZM18.195799987316132,10.000000953674316L11.804199987316132,10.000000953674316L14.999999987316132,4.886700953674316L18.195799987316132,10.000000953674316ZM11.804399987316131,12.000000953674316L18.195499987316133,12.000000953674316L14.999899987316132,17.11330095367432L11.804399987316131,12.000000953674316ZM3.9999999873161314,10.000000953674316L8.499999987316132,4.000000953674316L13.195799987316132,4.000000953674316L9.445799987316132,10.000000953674316L3.9999999873161314,10.000000953674316Z" fill="#000000" fill-opacity="1"/></g><g><g></g></g></g></svg>