<svg xmlns="http://www.w3.org/2000/svg" xmlns:xlink="http://www.w3.org/1999/xlink" fill="none" version="1.1" width="32" height="32" viewBox="0 0 32 32"><defs><clipPath id="master_svg0_134_17904"><rect x="0" y="0" width="32" height="32" rx="0"/></clipPath></defs><g clip-path="url(#master_svg0_134_17904)"><g><path d="M4,20L4,22L8.586,22L2,28.586L3.4139999999999997,30L10,23.414L10,28L12,28L12,20L4,20Z" fill="#000000" fill-opacity="1"/></g><g><path d="M22,4L22,7L10,7L10,4L2,4L2,12L10,12L10,9L17.023400000000002,9C16.3624,9.86066,16.0028,10.91481,16,12L16,28L18,28L18,12C17.999000000000002,10.343869999999999,19.341,9.00061,20.9971,9L22,9L22,12L30,12L30,4L22,4ZM8,10L4,10L4,6L8,6L8,10ZM28,10L24,10L24,6L28,6L28,10Z" fill="#000000" fill-opacity="1"/></g><g></g></g></svg>