<svg xmlns="http://www.w3.org/2000/svg" xmlns:xlink="http://www.w3.org/1999/xlink" fill="none" version="1.1" width="32" height="32" viewBox="0 0 32 32"><defs><clipPath id="master_svg0_134_17934"><rect x="0" y="0" width="32" height="32" rx="0"/></clipPath></defs><g clip-path="url(#master_svg0_134_17934)"><g><path d="M23,22L21,22L21,20L19,20L19,22L17,22L17,20L15,20L15,22L13,22L13,20L11,20L11,22L9,22L9,24L11,24L11,26L13,26L13,24L15,24L15,26L17,26L17,24L19,24L19,26L21,26L21,24L23,24L23,22Z" fill="#000000" fill-opacity="1"/></g><g><path d="M28,11L27,11L27,4C26.9986,2.896001,26.104,2.00137711,25,2L7,2C5.896,2.00137734,5.00138,2.896001,5,4L5,11L4,11C2.896002,11.00138,2.00137734,11.896,2,13L2,17C2.00137711,18.104,2.896001,18.9986,4,19L5,19L5,23C5.004300000000001,26.8642,8.13579,29.9957,12,30L20,30C23.8642,29.9957,26.9957,26.8642,27,23L27,19L28,19C29.104,18.9986,29.9986,18.104,30,17L30,13C29.9986,11.896,29.104,11.00138,28,11ZM25,4L25,7.3818L22.4473,6.1055C22.1657,5.9648,21.8343,5.9648,21.5527,6.1055L18,7.8818L14.4473,6.1055C14.1657,5.9648,13.8343,5.9648,13.5527,6.1055L10,7.8818L7,6.3818L7,4L25,4ZM28,17L25,17L25,23C24.9969,25.7601,22.7601,27.9969,20,28L12,28C9.23988,27.9969,7.00314,25.7601,7,23L7,17L4,17L4,13L7,13L7,8.6182L9.5527,9.8945C9.834299999999999,10.0352,10.1657,10.0352,10.4473,9.8945L14,8.1182L17.5527,9.8945C17.8343,10.03516,18.1657,10.03516,18.4473,9.8945L22,8.1182L25,9.6182L25,13L28,13L28,17Z" fill="#000000" fill-opacity="1"/></g><g><rect x="9" y="14" width="5" height="2" rx="0" fill="#000000" fill-opacity="1"/></g><g><rect x="18" y="14" width="5" height="2" rx="0" fill="#000000" fill-opacity="1"/></g><g></g></g></svg>