<svg xmlns="http://www.w3.org/2000/svg" xmlns:xlink="http://www.w3.org/1999/xlink" fill="none" version="1.1" width="32" height="32" viewBox="0 0 32 32"><defs><clipPath id="master_svg0_134_17960"><rect x="0" y="0" width="32" height="32" rx="0"/></clipPath></defs><g clip-path="url(#master_svg0_134_17960)"><g><rect x="2" y="28" width="28" height="2" rx="0" fill="#000000" fill-opacity="1"/></g><g><path d="M26.000000161743163,26.000000457763672L24.000000161743163,26.000000457763672C24.001280161743164,24.031900457763673,23.275860161743164,22.13263045776367,21.962900161743164,20.66650045776367L23.452900161743162,19.332500457763672C25.094530161743165,21.16520045776367,26.001580161743163,23.53956045776367,26.000000161743163,26.000000457763672Z" fill="#000000" fill-opacity="1"/></g><g><path d="M16,25.99999713897705L14,25.99999713897705C13.99086,22.96121713897705,15.37407,20.08563713897705,17.7539,18.195997138977052C17.1784,18.06528713897705,16.5901,17.99953713897705,16,17.99999713897705C11.58382,18.00506713897705,8.00507,21.58382713897705,8,25.99999713897705L6,25.99999713897705C6.00622749,20.47973713897705,10.47973,16.00622748897705,16,15.999999999997051C17.5437,15.998819348977051,19.066200000000002,16.358921138977053,20.4458,17.05149713897705C20.7852,17.22066713897705,20.9997,17.56726713897705,20.9997,17.94649713897705C20.9997,18.32573713897705,20.7852,18.67233713897705,20.4458,18.84149713897705C17.7182,20.18265713897705,15.99302,22.96054713897705,16,25.99999713897705Z" fill="#000000" fill-opacity="1"/></g><g><path d="M16,14L11,9L12.41,7.59L15,10.17L15,10L15,2L17,2L17,10L17,10.17L19.59,7.59L21,9L16,14Z" fill="#000000" fill-opacity="1"/></g><g></g></g></svg>