<svg xmlns="http://www.w3.org/2000/svg" xmlns:xlink="http://www.w3.org/1999/xlink" fill="none" version="1.1" width="32" height="32" viewBox="0 0 32 32"><defs><clipPath id="master_svg0_134_17977"><rect x="0" y="0" width="32" height="32" rx="0"/></clipPath></defs><g clip-path="url(#master_svg0_134_17977)"><g><path d="M29.84383385848999,15.034728815460205C29.61583385848999,14.548828815460205,29.14813385848999,14.219628815460204,28.61383385848999,14.168928815460205C27.30513385848999,14.035128815460205,26.09153385848999,13.424398815460204,25.204433858489992,12.453098815460205C23.65373385848999,10.710348815460204,23.16213385848999,8.267398815460204,23.91803385848999,6.060498815460205C24.09583385848999,5.528408815460205,23.98243385848999,4.942051815460205,23.61913385848999,4.514599815460205C23.28543385848999,4.120427815460205,22.76783385848999,3.932745215460205,22.25913385848999,4.0215001154602055L22.24003385848999,4.025400115460205C18.71783385848999,4.799161815460205,16.16183385848999,7.852738815460205,16.020033858489988,11.456098815460205C15.213133858489991,11.158048815460205,14.360233858489991,11.003678815460205,13.50003385848999,10.999998815460206C10.23343385848999,11.017598815460204,7.348563858489991,13.133658815460205,6.350603858489991,16.244128815460208C3.47424385848999,17.063528815460206,1.6423978584899903,19.878228815460204,2.0579485584899904,22.840028815460204C2.4734988584899904,25.801828815460205,5.00920385848999,28.003828815460206,8.00000385848999,28.000028815460205L19.00003385848999,28.000028815460205C23.18873385848999,28.016028815460206,26.09433385848999,23.830328815460206,24.61473385848999,19.911628815460205C26.72543385848999,19.574528815460205,28.59233385848999,18.353428815460205,29.747133858489992,16.554728815460205C30.04573385848999,16.100728815460204,30.082433858489992,15.522828815460205,29.84383385848999,15.034728815460205ZM19.00003385848999,26.000028815460205L8.00000385848999,26.000028815460205C5.92322385848999,26.003628815460203,4.19045385848999,24.414528815460205,4.01473385848999,22.345228815460207C3.8390238584899903,20.275928815460205,5.27904385848999,18.417428815460205,7.32670385848999,18.070828815460203L7.989703858489991,17.958028815460203L8.13530385848999,17.301828815460205C8.694843858489989,14.788128815460205,10.92476385848999,12.999958815460205,13.50003385848999,12.999958815460205C16.07523385848999,12.999958815460205,18.30513385848999,14.788128815460205,18.86473385848999,17.301828815460205L19.01033385848999,17.958028815460203L19.67293385848999,18.070828815460203C21.72093385848999,18.416828815460207,23.16163385848999,20.275428815460206,22.98593385848999,22.345128815460207C22.81033385848999,24.414828815460204,21.07713385848999,26.004028815460206,19.00003385848999,26.000028815460205ZM23.46533385848999,17.999028815460207L23.44363385848999,17.999028815460207C22.69593385848999,17.162628815460206,21.72743385848999,16.554328815460206,20.64943385848999,16.244128815460208C20.17923385848999,14.781228815460205,19.27143385848999,13.497898815460205,18.04863385848999,12.567398815460205C18.03863385848999,12.465798815460206,18.01253385848999,12.369598815460206,18.00763385848999,12.266598815460204C17.82883385848999,9.642108815460205,19.35863385848999,7.200468815460205,21.79833385848999,6.216598815460205C21.16133385848999,8.913738815460205,21.88603385848999,11.751838815460205,23.73833385848999,13.813298815460206C24.77663385848999,14.942228815460204,26.14003385848999,15.720728815460205,27.64003385848999,16.041028815460205C26.60883385848999,17.281528815460206,25.07893385848999,17.999028815460207,23.46533385848999,17.999028815460207Z" fill="#000000" fill-opacity="1"/></g><g></g></g></svg>