<svg xmlns="http://www.w3.org/2000/svg" xmlns:xlink="http://www.w3.org/1999/xlink" fill="none" version="1.1" width="32" height="32" viewBox="0 0 32 32"><defs><clipPath id="master_svg0_134_18116"><rect x="0" y="0" width="32" height="32" rx="0"/></clipPath></defs><g clip-path="url(#master_svg0_134_18116)"><g><path d="M4,12L2,12L2,4C2.00115776,2.8959099999999998,2.895911,2.00115776,4,2L12,2L12,4L4,4L4,12Z" fill="#171717" fill-opacity="1"/></g><g><path d="M12,30L4,30C2.895911,29.99884,2.00115824,29.10409,2,28L2,20L4,20L4,28L12,28L12,30Z" fill="#171717" fill-opacity="1"/></g><g><path d="M28,30L20,30L20,28L28,28L28,20L30,20L30,28C29.99884,29.10409,29.10409,29.99884,28,30Z" fill="#171717" fill-opacity="1"/></g><g><path d="M30,12L28,12L28,4L20,4L20,2L28,2C29.10409,2.00115848,29.99884,2.895911,30,4L30,12Z" fill="#171717" fill-opacity="1"/></g><g><path d="M16,22C12.68629,22,10,19.31371,10,16C10,12.68629,12.68629,10,16,10C19.31371,10,22,12.68629,22,16C21.9962,19.31213,19.31213,21.9962,16,22ZM16,12C13.79086,12,12,13.79086,12,16C12,18.209139999999998,13.79086,20,16,20C18.209139999999998,20,20,18.209139999999998,20,16C19.99752,13.79189,18.208109999999998,12.00248,16,12Z" fill="#171717" fill-opacity="1"/></g><g><ellipse cx="16" cy="16" rx="2" ry="2" fill="#000000" fill-opacity="1"/></g><g><ellipse cx="16" cy="7" rx="1" ry="1" fill="#000000" fill-opacity="1"/></g><g><ellipse cx="16" cy="3" rx="1" ry="1" fill="#000000" fill-opacity="1"/></g><g><ellipse cx="16" cy="25" rx="1" ry="1" fill="#000000" fill-opacity="1"/></g><g><ellipse cx="16" cy="29" rx="1" ry="1" fill="#000000" fill-opacity="1"/></g><g><ellipse cx="25" cy="16" rx="1" ry="1" fill="#000000" fill-opacity="1"/></g><g><ellipse cx="29" cy="16" rx="1" ry="1" fill="#000000" fill-opacity="1"/></g><g><ellipse cx="7" cy="16" rx="1" ry="1" fill="#000000" fill-opacity="1"/></g><g><ellipse cx="3" cy="16" rx="1" ry="1" fill="#000000" fill-opacity="1"/></g><g><ellipse cx="9.63599967956543" cy="9.63599967956543" rx="1" ry="1" fill="#000000" fill-opacity="1"/></g><g><ellipse cx="7" cy="7" rx="1" ry="1" fill="#000000" fill-opacity="1"/></g><g><ellipse cx="22.36400032043457" cy="22.36400032043457" rx="1" ry="1" fill="#000000" fill-opacity="1"/></g><g><ellipse cx="25" cy="25" rx="1" ry="1" fill="#000000" fill-opacity="1"/></g><g><ellipse cx="22.36400032043457" cy="9.63599967956543" rx="1" ry="1" fill="#000000" fill-opacity="1"/></g><g><ellipse cx="25" cy="7" rx="1" ry="1" fill="#000000" fill-opacity="1"/></g><g><ellipse cx="9.63599967956543" cy="22.36400032043457" rx="1" ry="1" fill="#000000" fill-opacity="1"/></g><g><ellipse cx="7" cy="25" rx="1" ry="1" fill="#000000" fill-opacity="1"/></g><g transform="matrix(-1,-1.2246468525851679e-16,1.2246468525851679e-16,-1,63.99951171875,64)"></g></g></svg>