<svg xmlns="http://www.w3.org/2000/svg" xmlns:xlink="http://www.w3.org/1999/xlink" fill="none" version="1.1" width="32" height="32" viewBox="0 0 32 32"><defs><clipPath id="master_svg0_134_18144"><rect x="0" y="0" width="32" height="32" rx="0"/></clipPath></defs><g clip-path="url(#master_svg0_134_18144)"><g><path d="M20,15L20,11C19.998730000000002,9.895956,19.10404,9.00126743,18,9L12,9L12,23L14,23L14,17L15.4807,17L17.8152,23L19.96,23L17.627,17L18,17C19.10395,16.99851,19.99851,16.10395,20,15ZM14,11L18,11L18,15L14,15L14,11Z" fill="#000000" fill-opacity="1"/></g><g><path d="M16,30C8.26801,30,2,23.732,2,16C2,8.26801,8.26801,2,16,2C23.732,2,30,8.26801,30,16C29.9913,23.7284,23.7284,29.9913,16,30ZM16,4C9.37258,4,4,9.37258,4,16C4,22.6274,9.37258,28,16,28C22.6274,28,28,22.6274,28,16C27.9925,9.37571,22.6243,4.00755,16,4Z" fill="#000000" fill-opacity="1"/></g><g transform="matrix(-1,-1.2246468525851679e-16,1.2246468525851679e-16,-1,64,64)"></g></g></svg>