<svg xmlns="http://www.w3.org/2000/svg" xmlns:xlink="http://www.w3.org/1999/xlink" fill="none" version="1.1" width="32" height="32" viewBox="0 0 32 32"><defs><clipPath id="master_svg0_134_18150"><rect x="0" y="0" width="32" height="32" rx="0"/></clipPath></defs><g clip-path="url(#master_svg0_134_18150)"><g><path d="M20,18.00003057861328C19.99447,19.81883057861328,18.76143,21.404530578613283,17,21.85793057861328L17,17.00000057861328L19,17.00000057861328L19,15.000000578613282L17,15.000000578613282L17,13.815900578613281C18.90182,13.143680578613282,19.612000000000002,10.824030578613282,18.412480000000002,9.20231057861328C17.21296,7.580602578613282,14.78703,7.580602578613282,13.58752,9.202320578613282C12.388,10.824030578613282,13.09818,13.143680578613282,15,13.815900578613281L15,15.000000578613282L13,15.000000578613282L13,17.00000057861328L15,17.00000057861328L15,21.85793057861328C13.238579999999999,21.404530578613283,12.00553,19.81883057861328,12,18.00003057861328L10,18.00003057861328C10,21.31373057861328,12.68629,24.00003057861328,16,24.00003057861328C19.31371,24.00003057861328,22,21.31373057861328,22,18.00003057861328L20,18.00003057861328ZM16,10.000000578613282C16.55228,10.000000578613282,17,10.44771057861328,17,11.000000578613282C17,11.552280578613281,16.55228,12.000000578613282,16,12.000000578613282C15.44771,12.000000578613282,15,11.552280578613281,15,11.000000578613282C15.000499999999999,10.447920578613282,15.44792,10.00050057861328,16,10.000000578613282Z" fill="#000000" fill-opacity="1"/></g><g><path d="M30,14L27.8193,14C26.9617,8.97476,23.0252,5.03834,18,4.1807L18,2L14,2L14,4.1807C8.97476,5.03834,5.03834,8.97476,4.1807,14L2,14L2,18L4.1807,18C5.03834,23.0252,8.97476,26.9617,14,27.8193L14,30L18,30L18,27.8193C23.0252,26.9617,26.9617,23.0252,27.8193,18L30,18L30,14ZM16,26C10.47715,26,6,21.5228,6,16C6,10.47715,10.47715,6,16,6C21.5228,6,26,10.47715,26,16C25.9937,21.5202,21.5202,25.9937,16,26Z" fill="#000000" fill-opacity="1"/></g><g transform="matrix(-1,-1.2246468525851679e-16,1.2246468525851679e-16,-1,64,64)"></g></g></svg>