<svg xmlns="http://www.w3.org/2000/svg" xmlns:xlink="http://www.w3.org/1999/xlink" fill="none" version="1.1" width="32" height="32" viewBox="0 0 32 32"><defs><clipPath id="master_svg0_134_18190"><rect x="0" y="0" width="32" height="32" rx="0"/></clipPath></defs><g clip-path="url(#master_svg0_134_18190)"><g><path d="M29.1211,16.878900648559572C28.5623,16.31685064855957,27.8026,16.00057029755957,27.01,15.99999999995957L27,15.99999999995957C26.2039,15.99761390855957,25.44,16.314143648559572,24.8789,16.878900648559572L19.9778,21.77999664855957C19.8656,20.21685664855957,18.5672,19.00461664855957,17,18.99999664855957L10,18.99999664855957C7.23992,19.00325664855957,5.0032499999999995,21.23992664855957,5,23.99999664855957L5,24.666996648559568L2,28.66308664855957L3.6,29.86308664855957L7,25.332996648559572L7,23.99999664855957C7.00182,22.34389664855957,8.3439,21.00181664855957,10,20.99999664855957L17,20.99999664855957C17.552300000000002,20.99999664855957,18,21.44771664855957,18,21.99999664855957C18,22.55228664855957,17.552300000000002,22.99999664855957,17,22.99999664855957L13,22.99999664855957L13,24.99999664855957L17.9287,24.99999664855957C18.9903,25.00309664855957,20.0089,24.58106664855957,20.7573,23.82809664855957L26.293,18.29299664855957C26.48,18.10478664855957,26.7346,17.99926664855957,27,17.99999664855957L27.0034,17.99999664855957C27.4072,18.00145664855957,27.7705,18.24559664855957,27.9243,18.61891664855957C28.0782,18.99222664855957,27.9925,19.42144664855957,27.707,19.70699664855957L20.293,27.12108664855957C19.7317,27.68578664855957,18.9676,28.00228664855957,18.1714,27.99998664855957L11,27.99998664855957L11,29.99998664855957L18.1714,29.99998664855957C19.4983,30.003686648559572,20.7715,29.47618664855957,21.707,28.53518664855957L29.1211,21.121096648559572C30.293,19.949826648559572,30.293,18.05016664855957,29.1211,16.878900648559572Z" fill="#000000" fill-opacity="1"/></g><g><path d="M21.586,8.586L18,12L18,2L16,2L16,12L12.414,8.586L11,10L17,16L23,10L21.586,8.586Z" fill="#000000" fill-opacity="1"/></g><g></g></g></svg>