<svg xmlns="http://www.w3.org/2000/svg" xmlns:xlink="http://www.w3.org/1999/xlink" fill="none" version="1.1" width="32" height="32" viewBox="0 0 32 32"><defs><clipPath id="master_svg0_134_18196"><rect x="0" y="0" width="32" height="32" rx="0"/></clipPath></defs><g clip-path="url(#master_svg0_134_18196)"><g><path d="M16,20C13.79086,20,12,18.209139999999998,12,16C12,13.79086,13.79086,12,16,12C18.209139999999998,12,20,13.79086,20,16C19.99752,18.208109999999998,18.208109999999998,19.99752,16,20ZM16,14C14.895430000000001,14,14,14.895430000000001,14,16C14,17.10457,14.895430000000001,18,16,18C17.10457,18,18,17.10457,18,16C17.99884,14.89591,17.10409,14.00116,16,14Z" fill="#000000" fill-opacity="1"/></g><g><path d="M5,20C2.79086,20,1,18.209139999999998,1,16C1,13.79086,2.79086,12,5,12C7.20914,12,9,13.79086,9,16C8.99752,18.208109999999998,7.20811,19.99752,5,20ZM5,14C3.89543,14,3,14.895430000000001,3,16C3,17.10457,3.89543,18,5,18C6.10457,18,7,17.10457,7,16C6.99873,14.89596,6.10404,14.00127,5,14Z" fill="#000000" fill-opacity="1"/></g><g><path d="M10,31C7.79086,31,6,29.209139999999998,6,27C6,24.79086,7.79086,23,10,23C12.20914,23,14,24.79086,14,27C13.99752,29.208109999999998,12.20811,30.99752,10,31ZM10,25C8.895430000000001,25,8,25.89543,8,27C8,28.10457,8.895430000000001,29,10,29C11.104569999999999,29,12,28.10457,12,27C11.998840000000001,25.89591,11.10409,25.00116,10,25Z" fill="#000000" fill-opacity="1"/></g><g><path d="M22,31C19.79086,31,18,29.209139999999998,18,27C18,24.79086,19.79086,23,22,23C24.209139999999998,23,26,24.79086,26,27C25.99752,29.208109999999998,24.208109999999998,30.99752,22,31ZM22,25C20.89543,25,20,25.89543,20,27C20,28.10457,20.89543,29,22,29C23.10457,29,24,28.10457,24,27C23.99884,25.89591,23.10409,25.00116,22,25Z" fill="#000000" fill-opacity="1"/></g><g><path d="M27,20C24.79086,20,23,18.209139999999998,23,16C23,13.79086,24.79086,12,27,12C29.209139999999998,12,31,13.79086,31,16C30.99752,18.208109999999998,29.208109999999998,19.99752,27,20ZM27,14C25.89543,14,25,14.895430000000001,25,16C25,17.10457,25.89543,18,27,18C28.10457,18,29,17.10457,29,16C28.99884,14.89591,28.10409,14.00116,27,14Z" fill="#000000" fill-opacity="1"/></g><g><path d="M22,9C19.79086,9,18,7.20914,18,5C18,2.79086,19.79086,1,22,1C24.209139999999998,1,26,2.79086,26,5C25.99752,7.20811,24.208109999999998,8.99752,22,9ZM22,3C20.89543,3,20,3.89543,20,5C20,6.10457,20.89543,7,22,7C23.10457,7,24,6.10457,24,5C23.99884,3.89591,23.10409,3.00116,22,3Z" fill="#000000" fill-opacity="1"/></g><g><path d="M10,9C7.79086,9,6,7.20914,6,5C6,2.79086,7.79086,1,10,1C12.20914,1,14,2.79086,14,5C13.99752,7.20811,12.20811,8.99752,10,9ZM10,3C8.895430000000001,3,8,3.89543,8,5C8,6.10457,8.895430000000001,7,10,7C11.104569999999999,7,12,6.10457,12,5C11.998840000000001,3.89591,11.10409,3.00116,10,3Z" fill="#000000" fill-opacity="1"/></g><g transform="matrix(-1,1.2246468525851679e-16,-1.2246468525851679e-16,-1,64,64)"></g></g></svg>