<svg xmlns="http://www.w3.org/2000/svg" xmlns:xlink="http://www.w3.org/1999/xlink" fill="none" version="1.1" width="32" height="32" viewBox="0 0 32 32"><defs><clipPath id="master_svg0_134_18278"><rect x="0" y="0" width="32" height="32" rx="0"/></clipPath></defs><g clip-path="url(#master_svg0_134_18278)"><g><path d="M22.5,13C17.8,13,14,16.8,14,21.5C14,26.2,17.8,30,22.5,30C27.2,30,31,26.2,31,21.5C31,16.8,27.2,13,22.5,13ZM29,21L26,21C26,19,25.7,17,25.1,15.5C27.2,16.5,28.8,18.5,29,21ZM22.5,28C22.1,27.8,21.2,26.2,21,23L23.9,23C23.7,26.2,22.9,27.8,22.5,28ZM21,21C21.1,17.2,22.1,15.2,22.4,15C22.8,15.2,23.8,17.2,23.9,21L21,21ZM19.9,15.5C19.3,17,19.1,19,19,21L16,21C16.2,18.5,17.8,16.5,19.9,15.5ZM16.2,23L19,23C19.1,24.6,19.4,26.2,19.9,27.5C18.1,26.7,16.7,25,16.2,23ZM25.1,27.5C25.6,26.2,25.9,24.7,26,23L28.9,23C28.3,25,26.9,26.7,25.1,27.5Z" fill="#000000" fill-opacity="1"/></g><g><path d="M25.8,10C24.9,5.4,20.8,2,16,2C11.2,2,7.1,5.4,6.2,10.1C2.7,10.8,0,13.8,0,17.5C0,21.6,3.4,25,7.5,25L11,25L11,23L7.5,23C4.5,23,2,20.5,2,17.5C2,14.6,4.2,12.2,7.1,12L8,12L8,11.1C8.5,7.1,11.9,4,16,4C19.7,4,22.8,6.6,23.7,10L25.8,10Z" fill="#000000" fill-opacity="1"/></g><g></g></g></svg>