<svg xmlns="http://www.w3.org/2000/svg" xmlns:xlink="http://www.w3.org/1999/xlink" fill="none" version="1.1" width="32" height="32" viewBox="0 0 32 32"><defs><clipPath id="master_svg0_134_18304"><rect x="0" y="0" width="32" height="32" rx="0"/></clipPath></defs><g clip-path="url(#master_svg0_134_18304)"><g><path d="M30,3.4141L28.5859,2L2,28.5859L3.4141,30L5.4140999999999995,28L26,28C27.104,27.9985,27.9985,27.104,28,26L28,5.4140999999999995L30,3.4141ZM26,26L7.4141,26L15.207,18.207L17.5858,20.5857C18.3668,21.3667,19.6332,21.3667,20.4142,20.5857L22,19L26,22.9973L26,26ZM26,20.1682L23.4142,17.5823C22.6332,16.801299999999998,21.3668,16.801299999999998,20.5858,17.5823L19,19.1682L16.622999999999998,16.7911L26,7.4141L26,20.1682Z" fill="#000000" fill-opacity="1"/></g><g><path d="M6,22L6,19L11,14.0034L12.3733,15.3767L13.7892,13.9607L12.4142,12.5857C11.63315,11.80467,10.36685,11.80467,9.585799999999999,12.5857L6,16.171599999999998L6,6L22,6L22,4L6,4C4.895887,4.00110245,4.00110245,4.895887,4,6L4,22L6,22Z" fill="#000000" fill-opacity="1"/></g><g></g></g></svg>