<svg xmlns="http://www.w3.org/2000/svg" xmlns:xlink="http://www.w3.org/1999/xlink" fill="none" version="1.1" width="32" height="32" viewBox="0 0 32 32"><defs><clipPath id="master_svg0_134_18354"><rect x="0" y="0" width="32" height="32" rx="0"/></clipPath></defs><g clip-path="url(#master_svg0_134_18354)"><g><path d="M28,6L27.4141,6L30,3.4141L28.5859,2L2,28.5859L3.4141,30L7.4141,26L28,26C29.104,25.9985,29.9985,25.104,30,24L30,19C30,18.4477,29.5523,18,29,18C27.8954,18,27,17.104599999999998,27,16C27,14.8954,27.8954,14,29,14C29.5523,14,30,13.5523,30,13L30,8C29.9987,6.89596,29.104,6.00127,28,6ZM28,12.1265C26.2334,12.5821,24.999,14.1754,24.999,15.9998C24.999,17.8241,26.2334,19.4174,28,19.873L28,24L21,24L21,21L19,21L19,24L9.414100000000001,24L19,14.4141L19,19L21,19L21,12.4141L25.4141,8L28,8L28,12.1265Z" fill="#000000" fill-opacity="1"/></g><g><path d="M4,12.1265L4,8L19,8L19,6L4,6C2.895956,6.00126696,2.00126719,6.895956,2,8L2,13C2,13.55229,2.447715,14,3,14C4.10457,14,5,14.89543,5,16C5,17.104599999999998,4.10457,18,3,18C2.447715,18,2,18.447699999999998,2,19L2,24L4,24L4,19.872999999999998C5.766579999999999,19.4174,7.00103,17.8241,7.00103,15.99975C7.00103,14.17536,5.766579999999999,12.58213,4,12.1265Z" fill="#000000" fill-opacity="1"/></g><g></g></g></svg>