<svg xmlns="http://www.w3.org/2000/svg" xmlns:xlink="http://www.w3.org/1999/xlink" fill="none" version="1.1" width="32" height="32" viewBox="0 0 32 32"><defs><clipPath id="master_svg0_134_18317"><rect x="0" y="0" width="32" height="32" rx="0"/></clipPath></defs><g clip-path="url(#master_svg0_134_18317)"><g><rect x="6" y="8" width="10" height="2" rx="0" fill="#000000" fill-opacity="1"/></g><g><rect x="6" y="12" width="8" height="2" rx="0" fill="#000000" fill-opacity="1"/></g><g><rect x="6" y="16" width="4" height="2" rx="0" fill="#000000" fill-opacity="1"/></g><g><path d="M28,26L7.4141,26L30,3.4141L28.5859,2L26.5859,4L4,4C2.895956,4.00127,2.00126719,4.8959600000000005,2,6L2,22L4,22L4,6L24.5859,6L2,28.5859L3.4141,30L5.4140999999999995,28L28,28C29.104,27.9987,29.9987,27.104,30,26L30,10L28,10L28,26Z" fill="#000000" fill-opacity="1"/></g><g></g></g></svg>