<svg xmlns="http://www.w3.org/2000/svg" xmlns:xlink="http://www.w3.org/1999/xlink" fill="none" version="1.1" width="32" height="32" viewBox="0 0 32 32"><defs><clipPath id="master_svg0_134_18388"><rect x="0" y="0" width="32" height="32" rx="0"/></clipPath></defs><g clip-path="url(#master_svg0_134_18388)"><g><path d="M30,28.59L3.41,2L2,3.41L10,11.41L2.66,14.06C2.2715389999999998,14.2073,2.014648,14.5795,2.014648,14.995C2.014648,15.4105,2.2715389999999998,15.7827,2.66,15.93L12.26,19.77L16.1,29.37C16.247500000000002,29.7407,16.6012,29.9883,17,30C17.4137,29.9915,17.779400000000003,29.7291,17.92,29.34L20.6,22L28.6,30L30,28.59ZM5.8,15L11.54,13L14.59,16L12.76,17.83L5.8,15ZM17,26.2L14.21,19.2L16,17.41L19,20.46L17,26.2Z" fill="#000000" fill-opacity="1"/></g><g><path d="M15.690000114440918,11.449998008117676L23.330000114440917,8.669998008117677L20.55000011444092,16.310038008117676L22.11000011444092,17.870038008117675L25.94000011444092,7.339998008117676C26.071500114440916,6.975399008117676,25.98050011444092,6.567633008117676,25.706400114440918,6.2935590081176755C25.432400114440917,6.019485908117676,25.02460011444092,5.928474908117676,24.66000011444092,6.060000408117676L14.130000114440918,9.889998008117676L15.690000114440918,11.449998008117676Z" fill="#000000" fill-opacity="1"/></g><g></g></g></svg>