<svg xmlns="http://www.w3.org/2000/svg" xmlns:xlink="http://www.w3.org/1999/xlink" fill="none" version="1.1" width="32" height="32" viewBox="0 0 32 32"><defs><clipPath id="master_svg0_134_18337"><rect x="0" y="0" width="32" height="32" rx="0"/></clipPath></defs><g clip-path="url(#master_svg0_134_18337)"><g><rect x="19" y="10" width="7" height="2" rx="0" fill="#000000" fill-opacity="1"/></g><g><rect x="19" y="15" width="7" height="2" rx="0" fill="#000000" fill-opacity="1"/></g><g><rect x="19" y="20" width="7" height="2" rx="0" fill="#000000" fill-opacity="1"/></g><g><path d="M28,5L4,5C2.895887,5.00110245,2.00110221,5.895887,2,7L2,25C2.00126767,26.104,2.895956,26.9987,4,27L28,27C29.104,26.9985,29.9985,26.104,30,25L30,7C29.9987,5.895956,29.104,5.00126839,28,5ZM4,7L15,7L15,25L4,25L4,7ZM17,25L17,7L28,7L28.002,25L17,25Z" fill="#000000" fill-opacity="1"/></g><g></g></g></svg>