<svg xmlns="http://www.w3.org/2000/svg" xmlns:xlink="http://www.w3.org/1999/xlink" fill="none" version="1.1" width="16" height="16" viewBox="0 0 16 16"><defs><clipPath id="master_svg0_134_08651"><rect x="0" y="0" width="16" height="16" rx="0"/></clipPath></defs><g clip-path="url(#master_svg0_134_08651)"><g><path d="M14.399978586578369,10.1L12.999978586578369,8.8L12.999978586578369,6.5C12.999978586578369,3.9,11.09999858657837,1.8,8.499998586578368,1.5L8.499998586578368,0.5L7.499998586578369,0.5L7.499998586578369,1.5C4.99999858657837,1.8,2.999998586578369,3.9,2.999998586578369,6.5L2.999998586578369,8.8L1.5999995865783692,10.1C1.499999986578369,10.2,1.3999999865783692,10.3,1.499999986578369,10.5L1.499999986578369,12C1.499999986578369,12.3,1.699999586578369,12.5,1.8999995865783692,12.5Q1.8999995865783692,12.5,1.9999995865783693,12.5L5.499998586578369,12.5C5.499998586578369,13.9,6.599998586578369,15,7.999998586578369,15C9.39999858657837,15,10.49999858657837,13.9,10.49999858657837,12.5L13.999978586578369,12.5C14.29997858657837,12.5,14.499978586578369,12.3,14.499978586578369,12.1Q14.499978586578369,12.1,14.499978586578369,12L14.499978586578369,10.5C14.499978586578369,10.4,14.399978586578369,10.2,14.399978586578369,10.1ZM7.999998586578369,14C7.199998586578369,14,6.499998586578369,13.3,6.499998586578369,12.5L9.49999858657837,12.5C9.49999858657837,13.3,8.799998586578369,14,7.999998586578369,14ZM13.499978586578369,11.5L2.499998586578369,11.5L2.499998586578369,10.7L3.799998586578369,9.3C3.899998586578369,9.3,3.999998586578369,9.1,3.999998586578369,9L3.999998586578369,6.5C3.999998586578369,4.3,5.799998586578369,2.5,7.999998586578369,2.5C10.199998586578369,2.5,11.999978586578369,4.3,11.999978586578369,6.5L11.999978586578369,9C11.999978586578369,9.1,12.09997858657837,9.3,12.09997858657837,9.4L13.499978586578369,10.7L13.499978586578369,11.5Z" fill="#000000" fill-opacity="1"/></g><g></g></g></svg>