<svg xmlns="http://www.w3.org/2000/svg" xmlns:xlink="http://www.w3.org/1999/xlink" fill="none" version="1.1" width="32" height="32" viewBox="0 0 32 32"><defs><clipPath id="master_svg0_134_18360"><rect x="0" y="0" width="32" height="32" rx="0"/></clipPath></defs><g clip-path="url(#master_svg0_134_18360)"><g><path d="M28.7071,19.293L26,16.585900000000002L26,13C25.9934,7.86708,22.1066,3.57036,17,3.0508L17,1L15,1L15,3.0508C9.89344,3.57036,6.0066500000000005,7.86708,6,13L6,16.585900000000002L3.2929,19.293C3.105357,19.4806,3,19.7349,3,20L3,23C3,23.5523,3.447715,24,4,24L11,24L11,24.7768C10.955110000000001,27.4036,12.89391,29.6434,15.5,29.9755C18.443199999999997,30.2676,20.9966,27.9577,21,25L21,24L28,24C28.5523,24,29,23.5523,29,23L29,20C29,19.7348,28.8946,19.4805,28.7071,19.293ZM19,25C19,26.6569,17.6569,28,16,28C14.3431,28,13,26.6569,13,25L13,24L19,24L19,25ZM27,22L5,22L5,20.4141L7.707,17.707C7.89461,17.5194,8,17.2651,8,17L8,13C8,8.58172,11.58172,5,16,5C20.4183,5,24,8.58172,24,13L24,17C24.0001,17.2652,24.1054,17.5195,24.293,17.707L27,20.4141L27,22Z" fill="#000000" fill-opacity="1"/></g><g></g></g></svg>