<svg xmlns="http://www.w3.org/2000/svg" xmlns:xlink="http://www.w3.org/1999/xlink" fill="none" version="1.1" width="32" height="32" viewBox="0 0 32 32"><defs><clipPath id="master_svg0_134_18441"><rect x="0" y="0" width="32" height="32" rx="0"/></clipPath></defs><g clip-path="url(#master_svg0_134_18441)"><g><path d="M18,9L14,9C12.895431,9,12,9.895431,12,11L12,21C12,22.104599999999998,12.895431,23,14,23L18,23C19.10457,23,20,22.104599999999998,20,21L20,11C20,9.895431,19.10457,9,18,9ZM18,11L18,15L14,15L14,11L18,11ZM14,21L14,17L18,17L18,21L14,21Z" fill="#000000" fill-opacity="1"/></g><g></g></g></svg>