<svg xmlns="http://www.w3.org/2000/svg" xmlns:xlink="http://www.w3.org/1999/xlink" fill="none" version="1.1" width="32" height="32" viewBox="0 0 32 32"><defs><clipPath id="master_svg0_134_18594"><rect x="0" y="0" width="32" height="32" rx="0"/></clipPath></defs><g clip-path="url(#master_svg0_134_18594)"><g transform="matrix(0,-1,1,0,8,32)"><rect x="20" y="12" width="10" height="2" rx="0" fill="#000000" fill-opacity="1"/></g><g transform="matrix(0,-1,1,0,12,36)"><rect x="24" y="12" width="10" height="2" rx="0" fill="#000000" fill-opacity="1"/></g><g transform="matrix(0,-1,1,0,16,40)"><rect x="28" y="12" width="10" height="2" rx="0" fill="#000000" fill-opacity="1"/></g><g><path d="M16,20C13.77025,20.0506,11.94943,18.22975,12,16C11.94943,13.77025,13.77025,11.94943,16,12L16,10C12.68629,10,10,12.68629,10,16C10,19.31371,12.68629,22,16,22C19.31371,22,22,19.31371,22,16L20,16C20.0506,18.22975,18.22975,20.0506,16,20Z" fill="#000000" fill-opacity="1"/></g><g><path d="M28.89279176750183,18.4536L26.09789176750183,16L24.77999176750183,17.5044L27.57219176750183,19.9561L25.21219176750183,24.0439L21.784891767501833,22.8848C20.97819176750183,23.5604,20.059591767501832,24.0898,19.07059176750183,24.4492L18.359991767501832,28L13.639991767501831,28L12.92999176750183,24.4492C11.94795176750183,24.0845,11.03627176750183,23.5529,10.235201767501831,22.8779L6.788401767501831,24.0439L4.428401767501831,19.9561L7.152801767501831,17.561C6.966381767501831,16.526899999999998,6.964011767501831,15.468,7.1458017675018315,14.4331L4.42750176750183,12.0439L6.788601767501831,7.9561L10.215301767501831,9.1152C11.02195176750183,8.4396,11.940471767501831,7.91017,12.929391767501832,7.5508L13.639991767501831,4L15.99999176750183,4L15.99999176750183,2L13.639991767501831,2C12.686591767501831,2.0000422001,11.865811767501832,2.673022,11.67890176750183,3.6079L11.17520176750183,6.1265C10.715871767501831,6.34655,10.272431767501832,6.59832,9.84810176750183,6.88L7.428701767501831,6.0615C6.525621767501831,5.755129999999999,5.5319217675018315,6.12978,5.055901767501831,6.9561L2.695299767501831,11.0439C2.218778767501831,11.86965,2.3911571675018313,12.9169,3.107199767501831,13.5464L5.038101767501831,15.2432C5.021001767501831,15.4946,5.000001767501831,15.7446,5.000001767501831,16C5.000001767501831,16.2578,5.010001767501831,16.512700000000002,5.027801767501831,16.7656L3.107199767501831,18.4536C2.391156667501831,19.0831,2.218778767501831,20.1303,2.695299767501831,20.9561L5.055901767501831,25.0439C5.5319217675018315,25.8702,6.525621767501831,26.2449,7.428701767501831,25.9385L9.862801767501832,25.1152C10.28214176750183,25.3979,10.720511767501831,25.6513,11.174801767501831,25.8735L11.678501767501832,28.3921C11.865261767501831,29.327,12.686291767501832,30,13.639991767501831,30L18.359991767501832,30C19.31339176750183,30,20.134191767501832,29.327,20.32109176750183,28.3921L20.824791767501832,25.8735C21.28399176750183,25.6535,21.727291767501832,25.4017,22.15149176750183,25.1201L24.57089176750183,25.9385C25.473991767501833,26.2449,26.46769176750183,25.8702,26.943691767501832,25.0439L29.30429176750183,20.9561C29.78089176750183,20.1304,29.60869176750183,19.0832,28.89279176750183,18.4536Z" fill="#000000" fill-opacity="1"/></g><g></g></g></svg>