<svg xmlns="http://www.w3.org/2000/svg" xmlns:xlink="http://www.w3.org/1999/xlink" fill="none" version="1.1" width="32" height="32" viewBox="0 0 32 32"><defs><clipPath id="master_svg0_134_24182"><rect x="0" y="0" width="32" height="32" rx="0"/></clipPath></defs><g clip-path="url(#master_svg0_134_24182)"><g><path d="M30,4L24,4L24,6L27.75,6L24,10L24,12L30,12L30,10L26.38,10L30,6L30,4Z" fill="#000000" fill-opacity="1"/></g><g><path d="M20,17.62L22.08,14L20.35,13L18.17,16.759999999999998C10.33698,13.857112,2.00846195,19.64639,2,28L4,28C4.00518,21.17863,10.68816,16.364440000000002,17.16,18.52L14,24C12.8954,24,12,24.895400000000002,12,26C12,27.104599999999998,12.8954,28,14,28C15.1046,28,16,27.104599999999998,16,26C15.9994,25.648699999999998,15.9063,25.303800000000003,15.73,25L19,19.35C22.0908,21.1345,23.9963,24.430999999999997,24,28L26,28C25.9956,23.7172,23.709,19.76139,20,17.62Z" fill="#000000" fill-opacity="1"/></g><g></g></g></svg>