<svg xmlns="http://www.w3.org/2000/svg" xmlns:xlink="http://www.w3.org/1999/xlink" fill="none" version="1.1" width="32" height="32" viewBox="0 0 32 32"><defs><clipPath id="master_svg0_134_18624"><rect x="0" y="0" width="32" height="32" rx="0"/></clipPath></defs><g clip-path="url(#master_svg0_134_18624)"><g><rect x="12" y="24" width="9" height="2" rx="0" fill="#000000" fill-opacity="1"/></g><g><rect x="13" y="28" width="6" height="2" rx="0" fill="#000000" fill-opacity="1"/></g><g><path d="M8.783196786499023,18.974569687652586L10.200896786499023,17.55656968765259C8.664076786499024,16.13296968765259,7.854826786499023,14.089869687652588,7.999996786499024,11.999969687652587C7.996216786499023,8.795279687652588,9.907596786499024,5.898369687652588,12.855396786499023,4.6411096876525875C15.803196786499024,3.383859687652588,19.216996786499024,4.0095396876525875,21.527296786499022,6.230499687652588L22.940896786499025,4.8168996876525885C20.058996786499023,2.0230197876525877,15.784636786499023,1.2256356876525878,12.089246786499023,2.792518687652588C8.393846786499024,4.359399687652588,5.995349406499024,7.986139687652588,5.999999986499024,11.999969687652587C5.859156786499024,14.620669687652589,6.876812786499023,17.170869687652587,8.783196786499023,18.974569687652586Z" fill="#000000" fill-opacity="1"/></g><g><path d="M30,3.4141L28.5859,2L2,28.5859L3.4141,30L23.6606,9.7534C23.8841,10.48139,23.9985,11.23848,24,12C24.1381,14.3892,23.0805,16.6911,21.1777,18.1426C20.1069,19.1348,19,20.1611,19,22L21,22C21,21.0806,21.5264,20.55,22.5352,19.6143C24.8449,17.7791,26.1337,14.947,26,12C25.9963,10.69109,25.7324,9.395990000000001,25.2236,8.190000000000001L30,3.4141Z" fill="#000000" fill-opacity="1"/></g><g></g></g></svg>