<svg xmlns="http://www.w3.org/2000/svg" xmlns:xlink="http://www.w3.org/1999/xlink" fill="none" version="1.1" width="32" height="32" viewBox="0 0 32 32"><defs><clipPath id="master_svg0_134_18632"><rect x="0" y="0" width="32" height="32" rx="0"/></clipPath></defs><g clip-path="url(#master_svg0_134_18632)"><g></g><g><path d="M24.908367916107178,28.940003814697263L16.831797916107178,14.487799814697265C16.66330791610718,14.186588814697267,16.345137916107177,14.000003814697266,15.999997916107178,14.000003814697266C15.654867916107177,14.000003814697266,15.336697916107179,14.186588814697267,15.168197916107177,14.487799814697265L7.091599916107178,28.940003814697263C6.825866916107178,29.414803814697265,7.169250916107178,30.000203814697265,7.713399916107178,30.000003814697266L24.286667916107177,30.000003814697266C24.830867916107177,30.000303814697265,25.174267916107176,29.414803814697265,24.908367916107178,28.940003814697263ZM15.124997916107178,19.000003814697266L16.874997916107176,19.000003814697266L16.874997916107176,24.500003814697266L15.124997916107178,24.500003814697266L15.124997916107178,19.000003814697266ZM15.999997916107178,28.000003814697266C15.447717916107178,28.000003814697266,14.999997916107178,27.552303814697268,14.999997916107178,27.000003814697266C14.999997916107178,26.447703814697263,15.447717916107178,26.000003814697266,15.999997916107178,26.000003814697266C16.552287916107176,26.000003814697266,16.999967916107178,26.447703814697263,16.999967916107178,27.000003814697266C16.999967916107178,27.552303814697268,16.552287916107176,28.000003814697266,15.999997916107178,28.000003814697266Z" fill="#000000" fill-opacity="1"/></g><g><path d="M24.800845027923582,9.136195453453064C23.922545027923583,4.976555453453064,20.251845027923583,1.999895453453064,16.000545027923586,1.999895453453064C11.749155027923583,1.9998952150340639,8.078425027923583,4.976555453453064,7.200205027923584,9.136195453453064C4.003255027923585,9.785595453453064,1.784577027923584,12.706395453453064,2.016460627923584,15.960395453453064C2.248344027923584,19.214395453453065,4.858775027923584,21.790995453453064,8.115505027923584,21.980495453453063L9.221695027923584,19.999995453453064L8.499995027923584,19.999995453453064C6.732325027923584,20.007995453453063,5.125205027923585,18.975795453453063,4.397245027923584,17.364995453453062C3.669275027923584,15.754095453453065,3.956585027923584,13.865795453453064,5.130705027923584,12.544395453453063L10.427695027923583,17.84079545345306L11.440705027923585,16.027295453453064L6.780705027923584,11.366705453453063C7.213555027923584,11.178455453453063,7.673865027923584,11.061055453453063,8.144005027923583,11.018995453453064L8.959505027923583,10.955095453453064L9.058605027923583,10.143095453453064C9.082305027923585,9.948695453453064,9.116705027923583,9.758295453453064,9.155805027923584,9.569795453453064L12.935845027923584,13.350595453453064L13.949645027923584,11.535595453453064L9.935995027923584,7.521995453453064C10.431215027923583,6.657915453453064,11.104585027923584,5.909075453453064,11.911395027923584,5.325195453453064L25.886145027923583,19.299995453453064C25.173145027923585,19.754895453453063,24.345645027923585,19.997595453453062,23.500045027923584,19.999995453453064L22.776145027923583,19.999995453453064L23.883145027923582,21.979995453453064C27.139845027923585,21.791095453453064,29.750745027923585,19.214895453453064,29.983245027923584,15.960895453453064C30.215745027923585,12.706995453453064,27.997645027923586,9.785735453453064,24.800845027923582,9.136195453453064L24.800845027923582,9.136195453453064ZM27.300245027923584,17.886195453453062L13.782345027923585,4.368195453453064C17.976645027923585,2.948360453453064,22.414945027923583,5.746495453453064,22.942345027923583,10.143095453453064L23.040945027923584,10.955095453453064L23.856345027923584,11.018995453453064C26.190345027923584,11.212575453453065,27.989345027923584,13.157995453453063,28.000045027923584,15.499995453453064C27.997645027923586,16.345695453453065,27.754845027923583,17.173295453453065,27.300245027923584,17.886195453453062Z" fill="#000000" fill-opacity="1"/></g><g></g></g></svg>