<svg xmlns="http://www.w3.org/2000/svg" xmlns:xlink="http://www.w3.org/1999/xlink" fill="none" version="1.1" width="32" height="32" viewBox="0 0 32 32"><defs><clipPath id="master_svg0_134_18658"><rect x="0" y="0" width="32" height="32" rx="0"/></clipPath></defs><g clip-path="url(#master_svg0_134_18658)"><g><path d="M26,30L6,30C4.895431,30,4,29.104599999999998,4,28L4,16C4,14.895431,4.895431,14,6,14L9,14L9,16L6,16L6,28L26,28L26,16L23,16L23,14L26,14C27.1046,14,28,14.895431,28,16L28,28C28,29.104599999999998,27.1046,30,26,30Z" fill="#000000" fill-opacity="1"/></g><g><rect x="13" y="20" width="6" height="2" rx="0" fill="#000000" fill-opacity="1"/></g><g><path d="M20.59,8.59L17,12.17L17,2L15,2L15,12.17L11.41,8.59L10,10L16,16L22,10L20.59,8.59Z" fill="#000000" fill-opacity="1"/></g><g></g></g></svg>