<svg xmlns="http://www.w3.org/2000/svg" xmlns:xlink="http://www.w3.org/1999/xlink" fill="none" version="1.1" width="32" height="32" viewBox="0 0 32 32"><defs><clipPath id="master_svg0_134_18707"><rect x="0" y="0" width="32" height="32" rx="0"/></clipPath></defs><g clip-path="url(#master_svg0_134_18707)"><g><path d="M28.828074489212035,3.171901461868286C27.245674489212035,1.6601954618682861,24.754274489212037,1.6601954618682861,23.171874489212037,3.171901461868286L4.050004489212036,22.292021461868288C2.7331304892120363,23.601721461868287,1.994953869212036,25.383921461868287,2.000000000012036,27.241221461868285L2.000000000012036,30.000021461868286L4.755904489212036,30.000021461868286C6.6135144892120366,30.005421461868288,8.396034489212036,29.267221461868285,9.705904489212037,27.950021461868285L28.828074489212035,8.828601461868285C30.390674489212035,7.266751461868286,30.390674489212035,4.733751461868286,28.828074489212035,3.171901461868286ZM10.910004489212037,18.260021461868288L13.738574489212036,21.088621461868286L11.617204489212035,23.210021461868287L8.788604489212037,20.381821461868284L10.910004489212037,18.260021461868288ZM8.291504489212036,26.535621461868285C7.355894489212036,27.476421461868288,6.0827344892120365,28.003721461868285,4.755904489212036,28.000021461868286L4.000004489212037,28.000021461868286L4.000004489212037,27.241221461868285C3.996454489212036,25.914521461868286,4.523764489212036,24.641621461868287,5.464404489212036,23.706121461868285L7.374404489212036,21.796121461868285L10.203004489212036,24.624221461868284L8.291504489212036,26.535621461868285ZM27.414074489212037,7.414101461868286L15.152774489212035,19.674821461868287L12.324174489212036,16.846221461868286L24.585874489212035,4.586201461868287C25.377174489212035,3.830411461868286,26.622874489212037,3.830411461868286,27.414074489212037,4.586201461868287C28.195274489212036,5.367111461868286,28.195274489212036,6.633491461868286,27.414074489212037,7.414101461868286L27.414074489212037,7.414101461868286Z" fill="#000000" fill-opacity="1"/></g><g></g></g></svg>