<svg xmlns="http://www.w3.org/2000/svg" xmlns:xlink="http://www.w3.org/1999/xlink" fill="none" version="1.1" width="32" height="32" viewBox="0 0 32 32"><defs><clipPath id="master_svg0_134_18769"><rect x="0" y="0" width="32" height="32" rx="0"/></clipPath></defs><g clip-path="url(#master_svg0_134_18769)"><g><path d="M26,18C24.1416,18,22.5894,19.2798,22.1421,21L2,21L2,23L22.1421,23C22.5894,24.7202,24.1416,26,26,26C28.2056,26,30,24.2056,30,22C30,19.7944,28.2056,18,26,18ZM26,24C24.8972,24,24,23.1025,24,22C24,20.8975,24.8972,20,26,20C27.1028,20,28,20.8975,28,22C28,23.1025,27.1028,24,26,24Z" fill="#000000" fill-opacity="1"/></g><g><path d="M26,6C24.1416,6,22.5894,7.2798,22.1421,9L2,9L2,11L22.1421,11C22.5894,12.7202,24.1416,14,26,14C28.2056,14,30,12.2056,30,10C30,7.7943999999999996,28.2056,6,26,6ZM26,12C24.8972,12,24,11.1025,24,10C24,8.8975,24.8972,8,26,8C27.1028,8,28,8.8975,28,10C28,11.1025,27.1028,12,26,12Z" fill="#000000" fill-opacity="1"/></g><g></g></g></svg>