<svg xmlns="http://www.w3.org/2000/svg" xmlns:xlink="http://www.w3.org/1999/xlink" fill="none" version="1.1" width="32" height="32" viewBox="0 0 32 32"><defs><clipPath id="master_svg0_134_18792"><rect x="0" y="0" width="32" height="32" rx="0"/></clipPath></defs><g clip-path="url(#master_svg0_134_18792)"><g><path d="M30.000029702758788,19C30.00372970275879,16.9317,28.727129702758788,15.0769,26.79392970275879,14.3418C26.10712970275879,11.48491,23.702729702758788,9.36537,20.78222970275879,9.04237C17.861729702758787,8.71936,15.052329702758788,10.26224,13.757829702758789,12.9C12.854129702758788,10.12423,12.900329702758789,7.12658,13.889229702758788,4.38C14.14032970275879,3.729844,13.676529702758788,3.02584,12.98002970275879,3C12.92142970275879,2.9999873638,12.863029702758789,3.00520802,12.805429702758788,3.0156C6.210729702758789,4.1869499999999995,1.562793702758789,10.14557,2.032010102758789,16.826999999999998C2.501226702758789,23.5084,7.936349702758789,28.759,14.630029702758788,28.9971C14.79402970275879,29.0034,14.95812970275879,28.9971,15.120729702758789,28.9971C19.14432970275879,28.9949,22.94162970275879,27.1355,25.41072970275879,23.9585C27.996929702758788,23.7502,29.99202970275879,21.5946,30.000029702758788,19ZM14.70342970275879,26.9976C9.356459702758789,26.8084,4.906239702758789,22.83,4.121349702758788,17.537599999999998C3.336459702758789,12.2452,6.440519702758789,7.14652,11.502399702758789,5.413600000000001C10.785089702758789,8.54678,11.080719702758788,11.82678,12.34672970275879,14.7812C10.45675970275879,15.9609,9.578359702758789,18.2509,10.19455970275879,20.3918C10.810769702758789,22.5328,12.77212970275879,24.0055,15.00002970275879,24L22.67722970275879,24C20.628229702758787,25.9188,17.92822970275879,26.9899,15.12112970275879,26.9976C14.982729702758789,26.9976,14.84282970275879,27.0024,14.70342970275879,26.9976ZM25.000029702758788,22L15.00002970275879,22C13.479729702758789,22.0027,12.198629702758788,20.8658,12.02072970275879,19.356C11.84274970275879,17.8461,12.824429702758788,16.4426,14.303729702758789,16.0918L14.962429702758788,15.9346L15.06102970275879,15.2646C15.421829702758789,12.81502,17.52382970275879,11.00011,19.999929702758788,11.00011C22.47622970275879,11.00023,24.57822970275879,12.81536,24.939029702758788,15.2651L25.03762970275879,15.9346L25.69632970275879,16.0918C27.17552970275879,16.4426,28.15722970275879,17.8461,27.97932970275879,19.356C27.80132970275879,20.8658,26.52032970275879,22.0027,25.000029702758788,22Z" fill="#000000" fill-opacity="1"/></g><g></g></g></svg>