<svg xmlns="http://www.w3.org/2000/svg" xmlns:xlink="http://www.w3.org/1999/xlink" fill="none" version="1.1" width="32" height="32" viewBox="0 0 32 32"><defs><clipPath id="master_svg0_134_18844"><rect x="0" y="0" width="32" height="32" rx="0"/></clipPath></defs><g clip-path="url(#master_svg0_134_18844)"><g><path d="M14,11L12,11L12,22L14,22L14,11Z" fill="#000000" fill-opacity="1"/></g><g><path d="M20,11L18,11L18,22L20,22L20,11Z" fill="#000000" fill-opacity="1"/></g><g><path d="M16,1.9999999999995521C19.7692,1.9988904039535522,23.3777,3.526819403953552,26,6.234299403953552L26,1.9999999999995521L28,1.9999999999995521L28,9.999999403953552L20,9.999999403953552L20,7.999999403953552L24.9217,7.999999403953552C19.5898,2.079415803953552,10.07182,2.915283403953552,5.853479999999999,9.674569403953551C1.635129,16.433899403953554,5.0663800000000005,25.35109940395355,12.7276,27.539299403953553C20.3888,29.72749940395355,28.0121,23.967599403953553,28,15.999999403953552L30,15.999999403953552C30,23.73199940395355,23.732,29.999999403953552,16,29.999999403953552C8.26801,29.999999403953552,2,23.73199940395355,2,15.999999403953552C2,8.268009403953553,8.26801,1.9999999999995521,16,1.9999999999995521Z" fill="#000000" fill-opacity="1"/></g><g transform="matrix(-1,-1.2246468525851679e-16,1.2246468525851679e-16,-1,64,64)"></g></g></svg>