<svg xmlns="http://www.w3.org/2000/svg" xmlns:xlink="http://www.w3.org/1999/xlink" fill="none" version="1.1" width="16" height="16" viewBox="0 0 16 16"><defs><clipPath id="master_svg0_134_08673"><rect x="0" y="0" width="16" height="16" rx="0"/></clipPath></defs><g clip-path="url(#master_svg0_134_08673)"><g><path d="M7,5L6,5L6,11L7,11L7,5Z" fill="#000000" fill-opacity="1"/></g><g><path d="M10,5L9,5L9,11L10,11L10,5Z" fill="#000000" fill-opacity="1"/></g><g><path d="M8,2C11.3,2,14,4.7,14,8C14,11.3,11.3,14,8,14C4.7,14,2,11.3,2,8C2,4.7,4.7,2,8,2ZM8,1C4.1,1,1,4.1,1,8C1,11.9,4.1,15,8,15C11.9,15,15,11.9,15,8C15,4.1,11.9,1,8,1Z" fill="#000000" fill-opacity="1"/></g><g></g></g></svg>