<svg xmlns="http://www.w3.org/2000/svg" xmlns:xlink="http://www.w3.org/1999/xlink" fill="none" version="1.1" width="32" height="32" viewBox="0 0 32 32"><defs><clipPath id="master_svg0_134_19034"><rect x="0" y="0" width="32" height="32" rx="0"/></clipPath></defs><g clip-path="url(#master_svg0_134_19034)"><g><path d="M26.00001901359558,28.999999046325684L25.83001901359558,28.999999046325684C6.179999013595581,27.869999046325685,3.3900000135955812,11.289999046325683,3.000000003595581,6.229999046325684C2.867816013595581,4.575129046325683,4.104769013595581,3.1275400463256835,5.759999013595581,2.999999999999684L11.269999013595582,2.999999999999684C12.089609013595581,2.9992065433256836,12.826749013595581,3.498558046325684,13.13001901359558,4.259999046325683L14.650019013595582,7.999999046325684C14.949119013595581,8.743139046325684,14.776019013595581,9.593099046325683,14.21001901359558,10.159999046325684L12.07999901359558,12.309999046325684C12.761529013595581,16.182899046325684,15.788819013595582,19.218299046325683,19.66001901359558,19.909999046325684L21.83001901359558,17.75999904632568C22.40551901359558,17.200199046325686,23.25991901359558,17.038699046325682,24.00001901359558,17.349999046325685L27.77001901359558,18.859999046325683C28.51961901359558,19.172699046325683,29.00571901359558,19.907799046325685,29.00001901359558,20.719999046325682L29.00001901359558,25.999999046325684C29.00001901359558,27.656899046325684,27.65681901359558,28.999999046325684,26.00001901359558,28.999999046325684ZM5.9999990135955805,4.999999046325684C5.447719013595581,4.999999046325684,4.9999990135955805,5.447719046325684,4.9999990135955805,5.999999046325684L4.9999990135955805,6.079999046325684C5.459999013595581,11.999999046325684,8.40999901359558,25.999999046325684,25.94001901359558,26.999999046325684C26.492619013595583,27.034199046325682,26.96781901359558,26.612799046325684,27.00001901359558,26.059999046325682L27.00001901359558,20.719999046325682L23.23001901359558,19.209999046325684L20.360019013595583,22.059999046325682L19.880019013595582,21.999999046325684C11.17999901359558,20.909999046325684,9.99999901359558,12.209999046325684,9.99999901359558,12.119999046325683L9.939999013595582,11.639999046325684L12.779999013595582,8.769999046325683L11.279999013595582,4.999999046325684L5.9999990135955805,4.999999046325684Z" fill="#000000" fill-opacity="1"/></g><g></g></g></svg>