<svg xmlns="http://www.w3.org/2000/svg" xmlns:xlink="http://www.w3.org/1999/xlink" fill="none" version="1.1" width="32" height="32" viewBox="0 0 32 32"><defs><clipPath id="master_svg0_134_19108"><rect x="0" y="0" width="32" height="32" rx="0"/></clipPath></defs><g clip-path="url(#master_svg0_134_19108)"><g><path d="M25.999984494018555,29L25.799984494018556,29C6.200004494018555,27.9,3.400000494018555,11.3,3.000000004018555,6.2C2.9000000940185546,4.6,4.100004494018554,3.0999999,5.800004494018555,3Q5.900004494018555,3,6.000004494018555,3L11.300004494018555,3C12.100004494018554,3,12.900004494018555,3.5,13.199984494018555,4.3L14.599984494018555,8C14.899984494018554,8.7,14.699984494018555,9.6,14.199984494018555,10.2L12.100004494018554,12.3C12.800004494018555,16.2,15.799984494018554,19.2,19.699984494018555,19.9L21.899984494018554,17.8C22.499984494018555,17.2,23.299984494018556,17.1,24.099984494018553,17.4L27.899984494018554,18.9C28.599984494018553,19.2,29.099984494018553,19.9,29.099984494018553,20.8L29.099984494018553,26C28.999984494018555,27.7,27.699984494018555,29,25.999984494018555,29ZM6.000004494018555,5C5.400004494018555,5,5.000004494018555,5.4,5.000004494018555,6L5.000004494018555,6.1C5.500004494018555,12,8.400004494018555,26,25.899984494018554,27C26.499984494018555,27,26.899984494018554,26.6,26.999984494018555,26.1Q26.999984494018555,26.1,26.999984494018555,26L26.999984494018555,20.7L23.199984494018555,19.2L20.299984494018556,22.1L19.899984494018554,22C11.200004494018554,20.9,10.000004494018555,12.2,10.000004494018555,12.1L9.900004494018555,11.6L12.700004494018554,8.7L11.300004494018555,5L6.000004494018555,5Z" fill="#000000" fill-opacity="1"/></g><g><path d="M20,4L20,6L24.6,6L18,12.6L19.4,14L26,7.4L26,12L28,12L28,4L20,4Z" fill="#231F20" fill-opacity="1"/></g><g></g></g></svg>