<svg xmlns="http://www.w3.org/2000/svg" xmlns:xlink="http://www.w3.org/1999/xlink" fill="none" version="1.1" width="32" height="32" viewBox="0 0 32 32"><defs><clipPath id="master_svg0_134_19096"><rect x="0" y="0" width="32" height="32" rx="0"/></clipPath></defs><g clip-path="url(#master_svg0_134_19096)"><g><path d="M9.189999728851319,18.559999046325686C6.731819728851319,14.835199046325684,5.287619728851318,10.533589046325684,4.999999728851318,6.079999046325684L4.999999728851318,5.999999046325684C4.999999728851318,5.447719046325684,5.447719728851318,4.999999046325684,5.999999728851318,4.999999046325684L11.279999728851319,4.999999046325684L12.779999728851319,8.769999046325683L9.939999728851319,11.639999046325684L9.999999728851318,12.119999046325683C10.24516972885132,13.583099046325684,10.738959728851318,14.993499046325683,11.459999728851319,16.289999046325683L12.919999728851318,14.829999046325684C12.521369728851319,14.034299046325684,12.238509728851318,13.185699046325684,12.079999728851318,12.309999046325684L14.210019728851318,10.159999046325684C14.776019728851319,9.593099046325683,14.949119728851318,8.743139046325684,14.65001972885132,7.999999046325684L13.130019728851318,4.259999046325683C12.826749728851318,3.498558046325684,12.089609728851318,2.9992065433256836,11.26999972885132,2.999999999999684L5.7599997288513185,2.999999999999684C4.1047597288513185,3.1275400463256835,2.867815728851318,4.575129046325683,2.9999999988513184,6.229999046325684C3.3527047288513185,11.162449046325683,5.005399728851319,15.913499046325684,7.789999728851319,19.999999046325684L9.189999728851319,18.559999046325686Z" fill="#000000" fill-opacity="1"/></g><g><path d="M27.77,18.86L24,17.35C23.2599,17.0387,22.4055,17.200200000000002,21.83,17.759999999999998L19.66,19.91C18.1166,19.6433,16.6672,18.9858,15.45,18L30,3.41L28.59,2L2,28.59L3.41,30L10.41,23C13.79,26.18,18.69,28.62,25.8,29L26,29C27.6569,29,29,27.6569,29,26L29,20.72C29.0057,19.9078,28.5197,19.1727,27.77,18.86ZM27,26L27,26.06C26.9678,26.6128,26.4926,27.0342,25.94,27C19.43,26.63,14.94,24.46,11.83,21.58L14,19.44C15.6546,20.8706,17.7055,21.7636,19.88,22L20.36,22.06L23.23,19.21L27,20.72L27,26Z" fill="#000000" fill-opacity="1"/></g><g></g></g></svg>