<svg xmlns="http://www.w3.org/2000/svg" xmlns:xlink="http://www.w3.org/1999/xlink" fill="none" version="1.1" width="32" height="32" viewBox="0 0 32 32"><defs><clipPath id="master_svg0_134_19124"><rect x="0" y="0" width="32" height="32" rx="0"/></clipPath></defs><g clip-path="url(#master_svg0_134_19124)"><g><path d="M30,10L30,8L27.898899999999998,8C27.77,7.37406,27.5214,6.77888,27.167,6.2471L28.657,4.757099999999999L27.243000000000002,3.3430999999999997L25.753,4.8331C25.2212,4.47861,24.62598,4.2300699999999996,24,4.101100000000001L24,2L22,2L22,4.101100000000001C21.37406,4.23005,20.77888,4.47855,20.2471,4.833L18.7571,3.343L17.3431,4.757L18.8331,6.247C18.47861,6.77881,18.23006,7.37402,18.1011,8L16,8L16,10L18.1011,10C18.23005,10.62594,18.47856,11.22112,18.833,11.7529L17.343,13.2429L18.757,14.6569L20.247,13.1669C20.77881,13.5214,21.37402,13.7699,22,13.8989L22,16L24,16L24,13.8989C24.62594,13.77,25.22112,13.5214,25.7529,13.167L27.2429,14.657L28.6569,13.243L27.1669,11.753C27.5214,11.22119,27.7699,10.62598,27.898899999999998,10L30,10ZM23,12C21.34315,12,20,10.65685,20,9C20,7.34315,21.34315,6,23,6C24.65685,6,26,7.34315,26,9C25.998179999999998,10.6561,24.656100000000002,11.99818,23,12Z" fill="#000000" fill-opacity="1"/></g><g><path d="M25.000021990776062,29.999999046325684L24.83002199077606,29.999999046325684C5.180001990776062,28.869999046325685,2.389999990776062,12.289999046325683,2.000000000776062,7.229999046325684C1.872955990776062,5.578039046325683,3.1091419907760622,4.135863046325683,4.761101990776062,4.008800026325684Q4.880001990776062,3.999999999999684,5.000001990776062,3.999999999999684L10.270001990776063,3.999999999999684C11.089611990776062,3.9992065433256836,11.826741990776062,4.498558046325684,12.130021990776061,5.259999046325683L13.650021990776063,8.999999046325684C13.949121990776062,9.743139046325684,13.776021990776062,10.593099046325683,13.210021990776061,11.159999046325684L11.080001990776061,13.309999046325684C11.758791990776063,17.184399046325684,14.787421990776062,20.220999046325684,18.660021990776062,20.909999046325684L20.83002199077606,18.75999904632568C21.405521990776062,18.200199046325686,22.25992199077606,18.038699046325682,23.000021990776062,18.349999046325685L26.770021990776062,19.859999046325683C27.519621990776063,20.172699046325683,28.005721990776063,20.907799046325685,28.000021990776062,21.719999046325682L28.000021990776062,26.999999046325684C28.000021990776062,28.656899046325684,26.656821990776063,29.999999046325684,25.000021990776062,29.999999046325684ZM5.000001990776062,5.999999046325684C4.447711990776062,5.998229046325683,3.998561990776062,6.444509046325684,3.996801990776062,6.996799046325684C3.996801990776062,7.024599046325683,3.997801990776062,7.052299046325683,4.000001990776062,7.079999046325684C4.460001990776062,12.999999046325684,7.410001990776062,26.999999046325684,24.940021990776064,27.999999046325684C25.49122199077606,28.033099046325685,25.964921990776062,27.612999046325683,25.998121990776063,27.061799046325685Q26.000021990776062,27.030899046325683,26.000021990776062,26.999999046325684L26.000021990776062,21.719999046325682L22.230021990776063,20.209999046325684L19.360021990776062,23.059999046325682L18.88002199077606,22.999999046325684C10.180001990776063,21.909999046325684,9.000001990776063,13.209999046325684,9.000001990776063,13.119999046325683L8.94000199077606,12.639999046325684L11.780001990776062,9.769999046325683L10.280001990776062,5.999999046325684L5.000001990776062,5.999999046325684Z" fill="#000000" fill-opacity="1"/></g><g></g></g></svg>