<svg xmlns="http://www.w3.org/2000/svg" xmlns:xlink="http://www.w3.org/1999/xlink" fill="none" version="1.1" width="32" height="32" viewBox="0 0 32 32"><defs><clipPath id="master_svg0_134_19205"><rect x="0" y="0" width="32" height="32" rx="0"/></clipPath></defs><g clip-path="url(#master_svg0_134_19205)"><g><path d="M28.5845,14.584998569488526L25.4645,12.712898569488527C24.688,12.246428569488526,23.7988,11.999998569488525,22.8921,11.999998569488525L7.7808,11.999998569488525L7.16,9.515098569488526C6.93823,8.623994569488525,6.13749,7.9988861094885255,5.2192,7.999999999998526L4,7.999999999998526C2.895956,8.001267429488525,2.00126743,8.895955569488525,2,9.999998569488525L2,16.999998569488525C2.00181866,18.656098569488528,3.3439,19.998198569488526,5,19.999998569488525L12,19.999998569488525L12,25.999998569488525C12.0013,27.103998569488525,12.896,27.998698569488525,14,27.999998569488525L15.3071,27.999998569488525C16.1401,27.997598569488524,16.8853,27.481298569488526,17.18,26.702098569488527L19.6929,19.999998569488525L27.0845,19.999998569488525C28.3949,20.000098569488525,29.5443,19.125898569488527,29.8941,17.863028569488527C30.2439,16.600208569488526,29.7082,15.259158569488525,28.5845,14.584998569488526ZM27.0845,17.999998569488525L18.3071,17.999998569488525L15.3071,25.999998569488525L14,25.999998569488525L14,17.999998569488525L5,17.999998569488525C4.44792,17.999508569488526,4.000500000000001,17.552078569488526,4,16.999998569488525L4,9.999998569488525L5.2192,9.999998569488525L6.2192,13.999998569488525L10,13.999998569488525L10,15.999998569488525L12,15.999998569488525L12,13.999998569488525L15,13.999998569488525L15,15.999998569488525L17,15.999998569488525L17,13.999998569488525L20,13.999998569488525L20,15.999998569488525L22,15.999998569488525L22,13.999998569488525L22.8921,13.999998569488525C23.4358,13.999948569488526,23.9693,14.147798569488526,24.4355,14.427698569488525L27.5555,16.299798569488523C27.908,16.511658569488525,28.0759,16.932588569488523,27.9661,17.328908569488526C27.8562,17.725228569488525,27.4956,17.999648569488528,27.0845,17.999998569488525Z" fill="#000000" fill-opacity="1"/></g><g><path d="M14,3.9999990327453614L15.3228,3.9999990327453614L17.7228,9.999999032745361L19.877299999999998,9.999999032745361L17.18,3.2572990327453613C16.8784,2.496150032745361,16.14152,1.9972920427453613,15.3228,2.0000000000453615L14,2.0000000000453615C12.895956,2.0012676727453615,12.00126743,2.895956032745361,12,3.9999990327453614L12,9.999999032745361L14,9.999999032745361L14,3.9999990327453614Z" fill="#000000" fill-opacity="1"/></g><g></g></g></svg>