<svg xmlns="http://www.w3.org/2000/svg" xmlns:xlink="http://www.w3.org/1999/xlink" fill="none" version="1.1" width="32" height="32" viewBox="0 0 32 32"><defs><clipPath id="master_svg0_134_19256"><rect x="0" y="0" width="32" height="32" rx="0"/></clipPath></defs><g clip-path="url(#master_svg0_134_19256)"><g></g><g><path d="M12,20.382000030517577L20.764,16.000000030517576L12,11.618000030517578L12,20.382000030517577Z" fill="#000000" fill-opacity="1"/></g><g><path d="M16,2C8.26801,2,2,8.26801,2,16C2,23.732,8.26801,30,16,30C23.732,30,30,23.732,30,16C30,8.26801,23.732,2,16,2ZM23.4473,16.8945L11.4473,22.8945C10.78243,23.2271,10,22.7435,10,22L10,10C9.99991,9.25653,10.78235,8.77294,11.4473,9.1055L23.4473,15.1055C23.7862,15.2749,24.0002,15.6212,24.0002,16C24.0002,16.3788,23.7862,16.725099999999998,23.4473,16.8945Z" fill="#000000" fill-opacity="1"/></g><g></g></g></svg>