<svg xmlns="http://www.w3.org/2000/svg" xmlns:xlink="http://www.w3.org/1999/xlink" fill="none" version="1.1" width="32" height="32" viewBox="0 0 32 32"><defs><clipPath id="master_svg0_134_19294"><rect x="0" y="0" width="32" height="32" rx="0"/></clipPath></defs><g clip-path="url(#master_svg0_134_19294)"><g><path d="M29.999961312866212,17.999998583984375C30.008761312866213,13.649458583984375,25.52935131286621,10.736088583984374,21.556071312866212,12.508172583984376C17.58278231286621,14.280258583984375,16.75730131286621,19.559628583984374,20.00000131286621,22.460048583984374L20.00000131286621,30.000048583984373L24.00000131286621,28.107448583984375L27.999961312866212,30.000048583984373L27.999961312866212,22.460048583984374C29.27156131286621,21.326108583984375,29.99906131286621,19.703688583984373,29.999961312866212,17.999998583984375ZM26.00000131286621,26.840048583984377L24.00000131286621,25.893348583984377L22.00000131286621,26.840048583984377L22.00000131286621,23.650048583984375C23.29248131286621,24.116848583984375,24.707521312866213,24.116848583984375,26.00000131286621,23.650048583984375L26.00000131286621,26.840048583984377ZM24.00000131286621,22.000048583984373C21.790861312866213,22.000048583984373,20.00000131286621,20.209138583984377,20.00000131286621,17.999998583984375C20.00000131286621,15.790858583984376,21.790861312866213,13.999998583984375,24.00000131286621,13.999998583984375C26.20914131286621,13.999998583984375,27.999961312866212,15.790858583984376,27.999961312866212,17.999998583984375C27.997521312866212,20.208108583984377,26.20811131286621,21.997548583984376,24.00000131286621,22.000048583984373Z" fill="#000000" fill-opacity="1"/></g><g><rect x="9" y="14" width="7" height="2" rx="0" fill="#000000" fill-opacity="1"/></g><g><rect x="9" y="8" width="10" height="2" rx="0" fill="#000000" fill-opacity="1"/></g><g><path d="M6,30C4.89591,29.9988,4.00115824,29.1041,4,28L4,4C4.00115776,2.8959099999999998,4.89591,2.00115776,6,2L22,2C23.1041,2.00115633,23.9988,2.895909,24,4L24,8L22,8L22,4L6,4L6,28L16,28L16,30L6,30Z" fill="#000000" fill-opacity="1"/></g><g></g></g></svg>