<svg xmlns="http://www.w3.org/2000/svg" xmlns:xlink="http://www.w3.org/1999/xlink" fill="none" version="1.1" width="32" height="32" viewBox="0 0 32 32"><defs><clipPath id="master_svg0_134_19302"><rect x="0" y="0" width="32" height="32" rx="0"/></clipPath></defs><g clip-path="url(#master_svg0_134_19302)"><g><path d="M28,4L10,4C8.896775,4.00323963,8.00323963,4.896775,8,6L8,20C8.00323963,21.1032,8.896776,21.9968,10,22L28,22C29.1032,21.9968,29.9968,21.1032,30,20L30,6C29.9968,4.896775,29.1032,4.00324011,28,4ZM28,20L10,20L10,6L28,6L28,20Z" fill="#000000" fill-opacity="1"/></g><g><path d="M18,26L4,26L4,16L6,16L6,14L4,14C2.896775,14.00323963,2.00323963,14.896775,2,16L2,26C2.00324035,27.1032,2.896776,27.9968,4,28L18,28C19.1032,27.9968,19.9968,27.1032,20,26L20,24L18,24L18,26Z" fill="#000000" fill-opacity="1"/></g><g></g></g></svg>