<svg xmlns="http://www.w3.org/2000/svg" xmlns:xlink="http://www.w3.org/1999/xlink" fill="none" version="1.1" width="32" height="32" viewBox="0 0 32 32"><defs><clipPath id="master_svg0_134_19308"><rect x="0" y="0" width="32" height="32" rx="0"/></clipPath></defs><g clip-path="url(#master_svg0_134_19308)"><g><path d="M28,10L22,10L22,6C22,4.895431,21.1046,4,20,4L12,4C10.89543,4,10,4.895431,10,6L10,10L4,10C2.895431,10,2,10.895430000000001,2,12L2,26C2,27.1046,2.895431,28,4,28L28,28C29.1046,28,30,27.1046,30,26L30,12C30,10.895430000000001,29.1046,10,28,10ZM12,6L20,6L20,10L12,10L12,6ZM4,26L4,12L28,12L28,26L4,26Z" fill="#000000" fill-opacity="1"/></g><g></g></g></svg>