<svg xmlns="http://www.w3.org/2000/svg" xmlns:xlink="http://www.w3.org/1999/xlink" fill="none" version="1.1" width="32" height="32" viewBox="0 0 32 32"><defs><clipPath id="master_svg0_134_19319"><rect x="0" y="0" width="32" height="32" rx="0"/></clipPath></defs><g clip-path="url(#master_svg0_134_19319)"><g><path d="M30,16L23,9L21.585900000000002,10.4141L26.1719,15L9,15L9,17L26.1719,17L21.585900000000002,21.585900000000002L23,23L30,16Z" fill="#000000" fill-opacity="1"/></g><g><path d="M14,28C7.3833,28,2,22.6168,2,16C2,9.3832,7.3833,4,14,4C16.335,4,18.5986,4.6714,20.5461,5.9414L19.4538,7.6167C17.831699999999998,6.5591,15.946,6,13.9999,6C8.486,6,3.9999000000000002,10.486,3.9999000000000002,16C3.9999000000000002,21.514,8.486,26,13.9999,26C15.9459,26,17.831699999999998,25.4409,19.4538,24.3833L20.5461,26.0586C18.5986,27.3286,16.334899999999998,28,14,28Z" fill="#000000" fill-opacity="1"/></g><g></g></g></svg>