<svg xmlns="http://www.w3.org/2000/svg" xmlns:xlink="http://www.w3.org/1999/xlink" fill="none" version="1.1" width="32" height="32" viewBox="0 0 32 32"><defs><clipPath id="master_svg0_134_19338"><rect x="0" y="0" width="32" height="32" rx="0"/></clipPath></defs><g clip-path="url(#master_svg0_134_19338)"><g><rect x="15" y="10" width="2" height="8" rx="0" fill="#000000" fill-opacity="1"/></g><g><rect x="20" y="14" width="2" height="4" rx="0" fill="#000000" fill-opacity="1"/></g><g><rect x="10" y="12" width="2" height="6" rx="0" fill="#000000" fill-opacity="1"/></g><g><path d="M25,4L17,4L17,2L15,2L15,4L7,4C5.895431,4,5,4.89543,5,6L5,20C5,21.1046,5.895431,22,7,22L15,22L15,28L11,28L11,30L21,30L21,28L17,28L17,22L25,22C26.1046,22,27,21.1046,27,20L27,6C27,4.89543,26.1046,4,25,4ZM25,20L7,20L7,6L25,6L25,20Z" fill="#000000" fill-opacity="1"/></g><g></g></g></svg>