<svg xmlns="http://www.w3.org/2000/svg" xmlns:xlink="http://www.w3.org/1999/xlink" fill="none" version="1.1" width="32" height="32" viewBox="0 0 32 32"><defs><clipPath id="master_svg0_134_19535"><rect x="0" y="0" width="32" height="32" rx="0"/></clipPath></defs><g clip-path="url(#master_svg0_134_19535)"><g><path d="M30.00000306930542,3.4146L28.58540306930542,2L17.29320306930542,13.2925C16.89250306930542,13.6812,16.88770306930542,14.3227,17.28240306930542,14.7174C17.67720306930542,15.1121,18.31860306930542,15.1072,18.70730306930542,14.7065L22.16160306930542,11.2524C23.18380306930542,12.7836,23.27810306930542,14.7538,22.40690306930542,16.375700000000002C21.53570306930542,17.9976,19.84110306930542,19.0068,18.00000306930542,19C17.79670306930542,18.9956,17.59390306930542,18.9789,17.39260306930542,18.95C16.57650306930542,16.985300000000002,15.01520306930542,15.4239,13.05050306930542,14.6077C12.61240306930542,11.61042,14.97150306930542,8.93755,18.00000306930542,9L18.00000306930542,7C14.13580306930542,7.0043,11.00430306930542,10.13579,11.00000306930542,14C11.00000306930542,14.0234,11.00560306930542,14.0469,11.00590306930542,14.07C10.67239306930542,14.0257,10.33643306930542,14.0023,10.00000306930542,14C9.32891306930542,14.0024,8.66083306930542,14.0898,8.011703069305419,14.26C8.00950306930542,14.1729,8.00000306930542,14.0879,8.00000306930542,14C8.00628306930542,8.479759999999999,12.47980306930542,4.00628,18.00000306930542,4L18.00000306930542,2C11.37571306930542,2.00755024,6.00755306930542,7.37571,6.00000306930542,14C6.00000306930542,14.355,6.01710306930542,14.7061,6.04710306930542,15.0537C1.4551150693054198,17.660899999999998,0.60760306930542,23.925,4.34167306930542,27.6587C8.075743069305421,31.3924,14.33970306930542,30.5443,16.94650306930542,25.9521C17.29650306930542,25.9821,17.64840306930542,26,18.00000306930542,26C22.67240306930542,26.0057,26.922103069305418,23.2957,28.88780306930542,19.0569C30.85340306930542,14.8182,30.17660306930542,9.82348,27.153803069305418,6.2607L30.00000306930542,3.4146ZM15.91000306930542,21L13.95630306930542,21C13.82640306930542,19.4922,13.41320306930542,18.0225,12.73830306930542,16.668C14.41760306930542,17.5333,15.59240306930542,19.1378,15.91000306930542,21ZM4.0900030693054195,23L6.04350306930542,23C6.1734530693054195,24.5079,6.58674306930542,25.9778,7.26170306930542,27.3325C5.582263069305419,26.4671,4.40749306930542,24.8624,4.0900030693054195,23ZM6.04320306930542,21L4.0900030693054195,21C4.407573069305419,19.1378,5.58220306930542,17.5333,7.26140306930542,16.668C6.5866230693054195,18.0226,6.17342306930542,19.4923,6.04320306930542,21L6.04320306930542,21ZM10.00000306930542,27.9858C8.91147306930542,26.5311,8.23920306930542,24.8076,8.05520306930542,23L11.94520306930542,23C11.76108306930542,24.8076,11.08867306930542,26.5311,10.00000306930542,27.9858ZM8.05520306930542,21C8.23920306930542,19.1927,8.911483069305419,17.4695,10.00000306930542,16.0151C11.08859306930542,17.4695,11.76088306930542,19.1927,11.94480306930542,21L8.05520306930542,21ZM12.73830306930542,27.3325C13.41330306930542,25.9778,13.82650306930542,24.5079,13.95650306930542,23L15.91000306930542,23C15.59250306930542,24.8624,14.41770306930542,26.4671,12.73830306930542,27.3325ZM28.00000306930542,14C27.99370306930542,19.5202,23.52020306930542,23.9937,18.00000306930542,24C17.91310306930542,24,17.82670306930542,23.99,17.74000306930542,23.9883C18.002903069305418,23.013,18.06750306930542,21.9948,17.93000306930542,20.9941C17.95370306930542,20.9941,17.97660306930542,21,18.00000306930542,21C20.64960306930542,21.0003,23.07220306930542,19.5044,24.25880306930542,17.1354C25.44540306930542,14.7663,25.19250306930542,11.93032,23.60550306930542,9.8086L25.73680306930542,7.6772C27.20110306930542,9.458829999999999,28.00110306930542,11.69381,28.00000306930542,14Z" fill="#000000" fill-opacity="1"/></g><g></g></g></svg>