<svg xmlns="http://www.w3.org/2000/svg" xmlns:xlink="http://www.w3.org/1999/xlink" fill="none" version="1.1" width="32" height="32" viewBox="0 0 32 32"><defs><clipPath id="master_svg0_134_19582"><rect x="0" y="0" width="32" height="32" rx="0"/></clipPath></defs><g clip-path="url(#master_svg0_134_19582)"><g><path d="M23.500009154510497,21.999998248291014L8.499999154510498,21.999998248291014C5.179109154510498,21.978998248291017,2.408140154510498,19.457998248291016,2.074131954510498,16.153898248291014C1.740124154510498,12.849798248291016,3.950509154510498,9.825228248291015,7.199999154510498,9.139998248291015C8.089609154510498,4.9908582482910155,11.756559154510498,2.0267982482910156,16.000009154510497,2.0267982482910156C20.2434091545105,2.0267987251280157,23.910409154510496,4.9908582482910155,24.800009154510498,9.139998248291015C28.0495091545105,9.825228248291015,30.2599091545105,12.849798248291016,29.9259091545105,16.153898248291014C29.5919091545105,19.457998248291016,26.8209091545105,21.978998248291017,23.500009154510497,21.999998248291014ZM16.000009154510497,3.999998248291016C12.469209154510498,4.003518248291016,9.493779154510499,6.635978248291016,9.059999154510498,10.139998248291016L8.999999154510498,10.999998248291016L8.139999154510498,10.999998248291016C5.654719154510499,11.099408248291015,3.720589154510498,13.194698248291015,3.819999154510498,15.679998248291016C3.919409154510498,18.165298248291016,6.014719154510498,20.099398248291017,8.499999154510498,19.999998248291014L23.500009154510497,19.999998248291014C25.9853091545105,20.099398248291017,28.080609154510498,18.165298248291016,28.180009154510497,15.679998248291016C28.2794091545105,13.194698248291015,26.3453091545105,11.099408248291015,23.860009154510497,10.999998248291016L23.000009154510497,10.999998248291016L22.9000091545105,10.179998248291016C22.4867091545105,6.675178248291016,19.529009154510497,4.026128248291016,16.000009154510497,3.999998248291016Z" fill="#000000" fill-opacity="1"/></g><g><path d="M14.000000061401368,30.000000178222656C13.843123061401368,30.001880178222656,13.688321061401368,29.964040178222657,13.550000061401366,29.890000178222657C13.059686661401367,29.640420178222655,12.863075061401368,29.041650178222657,13.110001061401368,28.550000178222657L15.109996061401368,24.549999178222656C15.333436061401368,24.013433478222655,15.965676061401368,23.779749178222655,16.484376061401367,24.042011178222655C17.003076061401366,24.304273178222655,17.18966606140137,24.951970178222656,16.890006061401365,25.450000178222655L14.890006061401367,29.450000178222655C14.720546061401368,29.786280178222654,14.376556061401367,29.998860178222657,14.000000061401368,30.000000178222656Z" fill="#000000" fill-opacity="1"/></g><g><path d="M20.000000154052735,29.999998270874023C19.843122154052736,30.001878270874023,19.688320154052736,29.964038270874024,19.549999154052735,29.889998270874024C19.059686654052733,29.640428270874025,18.863073154052735,29.041648270874024,19.109999154052733,28.549998270874024L21.109994154052735,24.549999270874025C21.333434154052735,24.013431570874022,21.965684154052735,23.779749270874024,22.484374154052734,24.042011270874024C23.003074154052733,24.304273270874024,23.189664154052736,24.951978270874022,22.890004154052733,25.449998270874023L20.890004154052733,29.449998270874023C20.720544154052735,29.78627827087402,20.376554154052734,29.998858270874024,20.000000154052735,29.999998270874023Z" fill="#000000" fill-opacity="1"/></g><g><path d="M8.000000061401368,30.000004456176757C7.843123061401367,30.001874456176758,7.688321061401367,29.96403445617676,7.550000061401367,29.88999445617676C7.059687161401367,29.64042445617676,6.863076061401367,29.041654456176758,7.110000061401367,28.54999445617676L9.109996061401368,24.549999456176756C9.333436061401368,24.013429656176758,9.965676061401368,23.779743456176757,10.484376061401367,24.04200745617676C11.003076061401368,24.304271456176757,11.189676061401368,24.951974456176757,10.889996061401368,25.449994456176757L8.889996061401368,29.449994456176757C8.720546061401368,29.786274456176756,8.376556061401367,29.99885445617676,8.000000061401368,30.000004456176757Z" fill="#000000" fill-opacity="1"/></g><g></g></g></svg>