<svg xmlns="http://www.w3.org/2000/svg" xmlns:xlink="http://www.w3.org/1999/xlink" fill="none" version="1.1" width="32" height="32" viewBox="0 0 32 32"><defs><clipPath id="master_svg0_134_19649"><rect x="0" y="0" width="32" height="32" rx="0"/></clipPath></defs><g clip-path="url(#master_svg0_134_19649)"><g><path d="M16.000001262054443,2C12.277141262054442,2.00838208,8.943701262054443,4.30804,7.613958262054443,7.78533C6.284211262054443,11.26261,7.232660262054443,15.1997,10.000001262054443,17.689999999999998L10.000001262054443,30L16.000001262054443,26L21.999991262054444,30L21.999991262054444,17.689999999999998C24.767291262054442,15.1997,25.715791262054445,11.26261,24.386091262054443,7.78533C23.056291262054444,4.30804,19.722891262054443,2.00838256,16.000001262054443,2ZM19.999991262054444,26.26L17.109991262054443,24.34L16.000001262054443,23.6L14.890001262054444,24.34L12.000001262054443,26.26L12.000001262054443,19.05C14.515641262054444,20.3192,17.484391262054444,20.3192,19.999991262054444,19.05L19.999991262054444,26.26ZM20.889991262054444,16C17.603991262054443,19.208,12.171171262054443,18.4363,9.908581262054444,14.4401C7.645988262054443,10.44381,9.779481262054443,5.3881499999999996,14.221001262054443,4.22105C18.662491262054445,3.05394,23.005791262054444,6.4077,22.999991262054444,11C22.997591262054442,12.8826,22.23709126205444,14.6849,20.889991262054444,16Z" fill="#000000" fill-opacity="1"/></g><g></g></g></svg>