<svg xmlns="http://www.w3.org/2000/svg" xmlns:xlink="http://www.w3.org/1999/xlink" fill="none" version="1.1" width="32" height="32" viewBox="0 0 32 32"><defs><clipPath id="master_svg0_134_19667"><rect x="0" y="0" width="32" height="32" rx="0"/></clipPath></defs><g clip-path="url(#master_svg0_134_19667)"><g></g><g><path d="M16,2C8.3,2,2,8.3,2,16C2,23.7,8.3,30,16,30C23.7,30,30,23.7,30,16C30,8.3,23.7,2,16,2ZM16,22C12.7,22,10,19.3,10,16C10,12.7,12.7,10,16,10C19.3,10,22,12.7,22,16C22,19.3,19.3,22,16,22Z" fill="#000000" fill-opacity="1"/></g><g style="opacity:0;"><path d="M16,10C12.7,10,10,12.7,10,16C10,19.3,12.7,22,16,22C19.3,22,22,19.3,22,16C22,12.7,19.3,10,16,10Z" fill="#000000" fill-opacity="1"/></g></g></svg>