<svg xmlns="http://www.w3.org/2000/svg" xmlns:xlink="http://www.w3.org/1999/xlink" fill="none" version="1.1" width="32" height="32" viewBox="0 0 32 32"><defs><clipPath id="master_svg0_134_19691"><rect x="0" y="0" width="32" height="32" rx="0"/></clipPath></defs><g clip-path="url(#master_svg0_134_19691)"><g><path d="M14,12.00000147125244C11.85408,12.057331471252441,10.0657644,10.368681471252442,10,8.223001471252442C10.0187302,7.487181471252441,10.245215,6.771671471252441,10.6533,6.159101471252441L13.17,2.4140994712524413C13.58529,1.8620084712524414,14.41391,1.8620084712524414,14.8292,2.4140994712524413L17.3154,6.110001471252441C17.74003,6.734831471252441,17.97753,7.467871471252441,18,8.223001471252442C17.93424,10.368681471252442,16.14592,12.057331471252441,14,12.00000147125244ZM14.000499999999999,4.763201471252442L12.3438,7.225701471252441C12.13687,7.518761471252441,12.01762,7.864671471252441,12,8.223001471252442C12.06596,9.26386147125244,12.95861,10.056981471252442,14,10.000001471252443C15.04139,10.056981471252442,15.93404,9.26386147125244,16,8.223001471252442C15.97752,7.845481471252441,15.84739,7.4822914712524415,15.625,7.176401471252442L14.000499999999999,4.763201471252442Z" fill="#000000" fill-opacity="1"/></g><g><path d="M7.5,26.000002589416503C4.53369,26.064302589416506,2.0742366,23.717102589416506,2,20.751002589416505C2.0208218000000002,19.744162589416504,2.323623,18.763352589416506,2.874,17.920002589416505L6.49,12.538299589416503C6.97193,11.820560589416504,8.027650000000001,11.820246589416504,8.51,12.537699589416503L12.06,17.815402589416504C12.6471,18.684142589416503,12.9733,19.702802589416503,13,20.751002589416505C12.9258,23.717102589416506,10.46631,26.064302589416506,7.5,26.000002589416503ZM7.5,14.620002589416504L4.5649,18.986802589416506C4.21494,19.510282589416505,4.0192,20.121602589416504,4,20.751002589416505C4.074,22.612502589416504,5.63811,24.064502589416506,7.5,24.000002589416503C9.361889999999999,24.064502589416506,10.926,22.612502589416504,11,20.751002589416505C10.97681,20.080502589416504,10.7578,19.431462589416505,10.37,18.884002589416504L7.5,14.620002589416504Z" fill="#000000" fill-opacity="1"/></g><g><path d="M25,2L20,7L21.4141,8.414100000000001L24,5.8281L24,16C23.99752,18.2081,22.208109999999998,19.9975,20,20L16,20L16,22L20,22C23.3122,21.9964,25.99636,19.3122,26,16L26,5.8281L28.585900000000002,8.414100000000001L30,7L25,2Z" fill="#000000" fill-opacity="1"/></g><g><rect x="2" y="28" width="28" height="2" rx="0" fill="#000000" fill-opacity="1"/></g><g></g></g></svg>