<svg xmlns="http://www.w3.org/2000/svg" xmlns:xlink="http://www.w3.org/1999/xlink" fill="none" version="1.1" width="32" height="32" viewBox="0 0 32 32"><defs><clipPath id="master_svg0_134_19699"><rect x="0" y="0" width="32" height="32" rx="0"/></clipPath></defs><g clip-path="url(#master_svg0_134_19699)"><g><path d="M19.385999287475585,15.210497344207763L28.385995287475588,8.210499344207763C28.687495287475585,7.975962144207764,29.096285287475588,7.933671044207764,29.439385287475588,8.101515344207764C29.782485287475588,8.269241344207764,29.999985287475585,8.617899344207764,29.999985287475585,8.999997344207763L29.999985287475585,22.999997344207763C30.000285287475585,23.382097344207764,29.782785287475583,23.73089734420776,29.439585287475587,23.898897344207764C29.096485287475588,24.066797344207764,28.687575287475585,24.024597344207763,28.385995287475588,23.789997344207762L19.385999287475585,16.789997344207762C18.870914287475586,16.389647344207763,18.870914287475586,15.611257344207765,19.385999287475585,15.210497344207763L19.385999287475585,15.210497344207763Z" fill="#272425" fill-opacity="1"/></g><g transform="matrix(-1,-1.2246468525851679e-16,1.2246468525851679e-16,-1,34,60)"><rect x="17" y="30" width="2" height="28" rx="0" fill="#272425" fill-opacity="1"/></g><g><path d="M12.999999761581421,15.999998095703125C13.00009976158142,16.308768095703122,12.85759976158142,16.600298095703124,12.613999761581422,16.789998095703126L3.6139997615814208,23.789998095703126C3.312429761581421,24.024598095703126,2.903539761581421,24.066798095703124,2.5603697615814207,23.898898095703125C2.217199761581421,23.730898095703125,1.999733924581421,23.382098095703125,2.000000000000421,22.999998095703127L2.000000000000421,8.999998095703125C1.999734759581421,8.617927095703125,2.217200761581421,8.269097095703126,2.560370761581421,8.101127095703125C2.903539761581421,7.933156495703125,3.312429761581421,7.975407595703125,3.6139997615814208,8.210000095703125L12.613999761581422,15.209998095703124C12.85759976158142,15.399578095703125,12.999999761581421,15.691098095703126,12.999999761581421,15.999998095703125ZM3.999999761581421,20.955598095703124L10.371099761581421,15.999998095703125L3.999999761581421,11.044398095703125L3.999999761581421,20.955598095703124Z" fill="#272425" fill-opacity="1"/></g><g></g></g></svg>