<svg xmlns="http://www.w3.org/2000/svg" xmlns:xlink="http://www.w3.org/1999/xlink" fill="none" version="1.1" width="32" height="32" viewBox="0 0 32 32"><defs><clipPath id="master_svg0_134_19719"><rect x="0" y="0" width="32" height="32" rx="0"/></clipPath></defs><g clip-path="url(#master_svg0_134_19719)"><g><path d="M26.999956272888184,12L26.999956272888184,14L27.999956272888184,14L27.999956272888184,18C27.999956272888184,19.65685,26.656856272888184,21,24.999956272888184,21C23.343156272888184,21,21.999956272888184,19.65685,21.999956272888184,18L21.999956272888184,14L22.999956272888184,14L22.999956272888184,12L19.999996272888183,12L19.999996272888183,18C20.003246272888184,20.37478,21.67383627288818,22.4208,23.999956272888184,22.898899999999998L23.999956272888184,24C23.999956272888184,26.2091,22.209156272888183,28,19.999996272888183,28C17.790856272888185,28,15.999996272888183,26.2091,15.999996272888183,24L15.999996272888183,21.8157C17.901256272888183,21.14351,18.611106272888183,18.824460000000002,17.411866272888183,17.20321C16.212626272888183,15.58196,13.787366272888184,15.58196,12.588129272888184,17.20321C11.388890272888183,18.824460000000002,12.098744272888183,21.14351,13.999996272888183,21.8157L13.999996272888183,24C13.999996272888183,27.3137,16.686286272888182,30,19.999996272888183,30C23.313756272888185,30,25.999956272888184,27.3137,25.999956272888184,24L25.999956272888184,22.898899999999998C28.326156272888184,22.4208,29.996756272888184,20.37478,29.999956272888184,18L29.999956272888184,12L26.999956272888184,12ZM14.999996272888183,18C15.552286272888184,18,15.999996272888183,18.44772,15.999996272888183,19C15.999996272888183,19.55228,15.552286272888184,20,14.999996272888183,20C14.447716272888183,20,13.999996272888183,19.55228,13.999996272888183,19C14.000496272888183,18.44792,14.447916272888184,18.0005,14.999996272888183,18Z" fill="#000000" fill-opacity="1"/></g><g><path d="M26,4L22,4L22,2L20,2L20,4L12,4L12,2L10,2L10,4L6,4C4.895431,4,4,4.89543,4,6L4,26C4,27.1046,4.895431,28,6,28L10,28L10,26L6,26L6,6L10,6L10,8L12,8L12,6L20,6L20,8L22,8L22,6L26,6L26,10L28,10L28,6C28,4.89543,27.1046,4,26,4Z" fill="#000000" fill-opacity="1"/></g><g></g></g></svg>