<svg xmlns="http://www.w3.org/2000/svg" xmlns:xlink="http://www.w3.org/1999/xlink" fill="none" version="1.1" width="32" height="32" viewBox="0 0 32 32"><defs><clipPath id="master_svg0_134_19753"><rect x="0" y="0" width="32" height="32" rx="0"/></clipPath></defs><g clip-path="url(#master_svg0_134_19753)"><g><path d="M28.88000154094696,29.999987185668946C28.51780154094696,30.005087185668945,28.181101540946962,29.813787185668946,28.00000154094696,29.499987185668946C25.29060154094696,24.884287185668946,20.35200154094696,22.035187185668946,15.000001540946961,21.999987185668946L15.000001540946961,27.999987185668946C14.99800154094696,28.403687185668947,14.75340154094696,28.766587185668946,14.38000154094696,28.919987185668944C14.007601540946961,29.076587185668945,13.57760154094696,28.993787185668946,13.29000154094696,28.709987185668947L1.2899995409469605,16.709987185668943C0.8956021409469604,16.318787185668945,0.8956021409469604,15.681187185668945,1.2899995409469605,15.289987185668945L13.29000154094696,3.2900011856689453C13.57760154094696,3.006256105668945,14.007601540946961,2.923403985668945,14.38000154094696,3.0800008856689454C14.75340154094696,3.2334041856689453,14.99800154094696,3.596298185668945,15.000001540946961,4.000000185668945L15.000001540946961,10.109997185668945C23.55780154094696,11.209187185668945,29.97490154094696,18.481887185668946,30.00000154094696,27.109987185668945C29.99760154094696,27.778687185668947,29.95420154094696,28.446587185668946,29.870001540946962,29.109987185668945C29.81880154094696,29.536587185668946,29.50070154094696,29.882787185668946,29.08000154094696,29.969987185668945L28.88000154094696,29.999987185668946ZM14.500001540946961,19.999987185668946C19.66170154094696,19.925887185668945,24.59620154094696,22.118987185668946,28.00000154094696,25.999987185668946C27.37850154094696,18.506487185668945,21.40730154094696,12.573457185668945,13.910001540946961,11.999997185668946C13.39310154094696,11.953297185668946,12.99790154094696,11.518967185668945,13.000001540946961,10.999997185668946L13.000001540946961,6.409997185668946L3.4100015409469604,15.999987185668946L13.000001540946961,25.589987185668946L13.000001540946961,20.999987185668946C13.000001540946961,20.447687185668947,13.44770154094696,19.999987185668946,14.000001540946961,19.999987185668946L14.54000154094696,19.999987185668946L14.500001540946961,19.999987185668946Z" fill="#000000" fill-opacity="1"/></g><g></g></g></svg>