<svg xmlns="http://www.w3.org/2000/svg" xmlns:xlink="http://www.w3.org/1999/xlink" fill="none" version="1.1" width="32" height="32" viewBox="0 0 32 32"><defs><clipPath id="master_svg0_134_19758"><rect x="0" y="0" width="32" height="32" rx="0"/></clipPath></defs><g clip-path="url(#master_svg0_134_19758)"><g><path d="M18.999975747680665,28.99999839744568C18.703275747680664,28.99999839744568,18.421775747680663,28.868098397445678,18.231975747680664,28.63999839744568L8.232000747680663,16.63999839744568C7.923167247680664,16.269198397445678,7.923167247680664,15.730798397445678,8.232000747680663,15.359998397445679L18.231975747680664,3.3599993974456788C18.501575747680665,3.0367679974456787,18.944675747680662,2.9169044974456786,19.340375747680664,3.0601601974456787C19.736075747680665,3.2034153974456787,19.999775747680665,3.5791253974456785,19.999975747680665,4.000000397445679L19.999975747680665,11.032498397445679C27.007375747680666,11.495398397445678,30.999975747680665,16.892498397445678,30.999975747680665,26.00019839744568C30.999975747680665,26.430598397445678,30.724575747680664,26.81279839744568,30.316275747680663,26.948898397445678C29.907875747680663,27.084998397445677,29.458275747680663,26.944498397445678,29.199975747680664,26.600198397445677C26.378175747680665,22.837898397445677,23.808775747680663,21.253898397445678,19.999975747680665,21.028598397445677L19.999975747680665,27.99999839744568C19.999975747680665,28.55229839744568,19.552275747680664,28.99999839744568,18.999975747680665,28.99999839744568ZM10.301595747680665,15.999998397445678L17.999995747680664,25.23799839744568L17.999995747680664,19.99999839744568C17.999995747680664,19.447698397445677,18.447675747680663,18.99999839744568,18.999975747680665,18.99999839744568C22.721275747680664,18.856298397445677,26.318475747680665,20.351598397445677,28.841375747680665,23.090898397445677C28.086375747680663,16.55529839744568,24.658675747680665,12.999998397445678,18.999975747680665,12.999998397445678C18.447675747680663,12.999998397445678,17.999995747680664,12.552288397445679,17.999995747680664,11.999998397445678L17.999995747680664,6.761798397445679L10.301595747680665,15.999998397445678Z" fill="#000000" fill-opacity="1"/></g><g><path d="M11.46387499923706,28.918200029373168L1.2317999992370605,16.64000002937317C0.9229665992370606,16.269200029373167,0.9229665992370606,15.73080002937317,1.2317999992370605,15.360000029373168L11.46377499923706,3.079200029373169L12.999974999237061,4.360000029373169L3.3015949992370603,16.00000002937317L12.999974999237061,27.63800002937317L11.46387499923706,28.918200029373168Z" fill="#000000" fill-opacity="1"/></g><g></g></g></svg>