<svg xmlns="http://www.w3.org/2000/svg" xmlns:xlink="http://www.w3.org/1999/xlink" fill="none" version="1.1" width="32" height="32" viewBox="0 0 32 32"><defs><clipPath id="master_svg0_134_19786"><rect x="0" y="0" width="32" height="32" rx="0"/></clipPath></defs><g clip-path="url(#master_svg0_134_19786)"><g><path d="M23.600000381469727,21.4L27.200000381469728,25L23.600000381469727,28.6L25.000000381469725,30L30.000000381469725,25L25.000000381469725,20L23.600000381469727,21.4Z" fill="#000000" fill-opacity="1"/></g><g><path d="M20.4,21.4L16.8,25L20.4,28.6L19,30L14,25L19,20L20.4,21.4Z" fill="#000000" fill-opacity="1"/></g><g><path d="M28,8L16,8L12.6,4.6C12.2,4.2,11.7,4,11.2,4L4,4C2.9,4,2,4.9,2,6L2,26C2,27.1,2.9,28,4,28L11,28L11,26L4,26L4,6L11.2,6L14.6,9.4L15.2,10L28,10L28,18L30,18L30,10C30,8.9,29.1,8,28,8Z" fill="#000000" fill-opacity="1"/></g><g></g></g></svg>