<svg xmlns="http://www.w3.org/2000/svg" xmlns:xlink="http://www.w3.org/1999/xlink" fill="none" version="1.1" width="32" height="32" viewBox="0 0 32 32"><defs><clipPath id="master_svg0_134_19793"><rect x="0" y="0" width="32" height="32" rx="0"/></clipPath></defs><g clip-path="url(#master_svg0_134_19793)"><g><path d="M22,22L22,28L6,28L6,4L16,4L16,2L6,2C4.895431,2,4,2.895431,4,4L4,28C4,29.1046,4.895431,30,6,30L22,30C23.1046,30,24,29.1046,24,28L24,22L22,22Z" fill="#000000" fill-opacity="1"/></g><g><path d="M29.540001907348632,5.7599983264160155L26.24000190734863,2.4600003264160155C25.61790190734863,1.8501713264160156,24.622201907348632,1.8501713264160156,24.000001907348633,2.4600003264160155L10.000001907348633,16.460028326416015L10.000001907348633,22.000028326416015L15.530001907348634,22.000028326416015L29.530001907348634,7.999998326416016C30.139801907348634,7.377848326416015,30.139801907348634,6.382148326416016,29.530001907348634,5.7599983264160155L29.540001907348632,5.7599983264160155ZM14.700001907348632,20.000028326416015L12.000001907348633,20.000028326416015L12.000001907348633,17.300028326416015L21.44000190734863,7.849998326416015L24.15000190734863,10.559998326416016L14.700001907348632,20.000028326416015ZM25.560001907348635,9.149998326416014L22.850001907348634,6.439998326416015L25.12000190734863,4.169998326416016L27.83000190734863,6.879998326416016L25.560001907348635,9.149998326416014Z" fill="#000000" fill-opacity="1"/></g><g></g></g></svg>