<svg xmlns="http://www.w3.org/2000/svg" xmlns:xlink="http://www.w3.org/1999/xlink" fill="none" version="1.1" width="32" height="32" viewBox="0 0 32 32"><defs><clipPath id="master_svg0_134_19862"><rect x="0" y="0" width="32" height="32" rx="0"/></clipPath></defs><g clip-path="url(#master_svg0_134_19862)"><g></g><g><rect x="10" y="13" width="2" height="2" rx="0" fill="#000000" fill-opacity="1"/></g><g><rect x="14" y="13" width="8" height="2" rx="0" fill="#000000" fill-opacity="1"/></g><g><rect x="10" y="18" width="2" height="2" rx="0" fill="#000000" fill-opacity="1"/></g><g><rect x="10" y="23" width="2" height="2" rx="0" fill="#000000" fill-opacity="1"/></g><g><path d="M7,28L7,7L10,7L10,10L22,10L22,7L25,7L25,15L27,15L27,7C27,5.89543,26.1046,5,25,5L22,5L22,4C22,2.895431,21.1046,2,20,2L12,2C10.895430000000001,2,10,2.895431,10,4L10,5L7,5C5.895431,5,5,5.89543,5,7L5,28C5,29.1046,5.895431,30,7,30L16,30L16,28L7,28ZM12,4L20,4L20,8L12,8L12,4Z" fill="#000000" fill-opacity="1"/></g><g><path d="M18,18.999999790771483L18,21.413101790771485C20.75247,16.810871790771486,27.4466,16.889191790771484,30.090600000000002,21.554551790771484C32.7346,26.219921790771487,29.3625,32.00319179077148,24,31.999991790771485L24,29.999991790771485C26.497999999999998,30.003191790771485,28.615099999999998,28.162191790771484,28.9588,25.687931790771486C29.302500000000002,23.213651790771486,27.7673,20.865351790771484,25.363,20.187561790771483C22.958669999999998,19.509781790771484,20.423009999999998,20.710511790771484,19.4238,23.000001790771485L22,23.000001790771485L22,25.000001790771485L16,25.000001790771485L16,18.999999790771483L18,18.999999790771483Z" fill="#000000" fill-opacity="1"/></g><g></g></g></svg>