<svg xmlns="http://www.w3.org/2000/svg" xmlns:xlink="http://www.w3.org/1999/xlink" fill="none" version="1.1" width="32" height="32" viewBox="0 0 32 32"><defs><clipPath id="master_svg0_134_19890"><rect x="0" y="0" width="32" height="32" rx="0"/></clipPath></defs><g clip-path="url(#master_svg0_134_19890)"><g><path d="M4,18C4,24.6274,9.37258,30,16,30C22.6274,30,28,24.6274,28,18C28,11.3726,22.6274,6,16,6L12,6L12,1L6,7L12,13L12,8L16,8C21.5228,8,26,12.4772,26,18C26,23.5228,21.5228,28,16,28C10.47715,28,6,23.5228,6,18L4,18Z" fill="#000000" fill-opacity="1"/></g><g><path d="M18.580001678466797,15.579999694824219L15.130001678466797,15.579999694824219L15.000001678466797,18.149999694824217C15.078531678466797,17.99543969482422,15.165321678466796,17.84521969482422,15.260001678466796,17.699999694824218C15.351611678466798,17.56726969482422,15.462881678466797,17.449249694824218,15.590001678466797,17.34999969482422C15.723171678466796,17.24988969482422,15.871791678466797,17.17219969482422,16.030001678466796,17.11999969482422C16.224781678466798,17.06304969482422,16.427101678466798,17.03606969482422,16.630001678466797,17.039999694824218C16.943921678466797,17.03601969482422,17.255861678466797,17.09026969482422,17.550001678466796,17.199999694824218C17.828431678466796,17.30469969482422,18.080881678466795,17.46844969482422,18.290001678466798,17.679999694824218C18.507151678466798,17.90010969482422,18.677271678466795,18.162079694824218,18.790001678466798,18.449999694824218C18.912051678466796,18.76912969482422,18.973111678466797,19.108339694824217,18.970001678466797,19.449999694824218C18.975391678466796,19.815509694824218,18.910901678466796,20.178689694824218,18.780001678466796,20.519999694824218C18.659041678466796,20.83620969482422,18.471461678466795,21.122689694824217,18.2300016784668,21.359999694824218C17.976591678466797,21.60552969482422,17.6729416784668,21.79316969482422,17.3400016784668,21.90999969482422C16.953141678466796,22.053329694824217,16.542401678466796,22.12121969482422,16.130001678466797,22.109999694824218C15.813301678466797,22.112749694824217,15.497511678466797,22.07578969482422,15.190001678466796,21.99999969482422C14.930061678466796,21.927109694824217,14.681151678466797,21.819479694824217,14.450001678466798,21.679999694824218C14.245772678466796,21.55752969482422,14.060490678466797,21.40592969482422,13.900001678466797,21.22999969482422C13.748317678466798,21.05834969482422,13.611178678466796,20.87437969482422,13.490001678466797,20.679999694824218L14.550001678466797,19.86999969482422L14.820001678466797,20.27999969482422C14.917801678466796,20.407869694824218,15.032131678466797,20.52219969482422,15.160001678466797,20.61999969482422C15.291291678466797,20.71479969482422,15.436301678466798,20.788989694824217,15.590001678466797,20.83999969482422C15.766861678466796,20.90023969482422,15.953311678466797,20.92735969482422,16.140001678466795,20.91999969482422C16.509581678466798,20.949269694824217,16.873881678466798,20.81811969482422,17.140001678466795,20.55999969482422C17.375021678466798,20.28178969482422,17.493271678466797,19.923439694824218,17.470001678466797,19.55999969482422L17.470001678466797,19.49999969482422C17.528561678466797,18.77166969482422,16.917851678466796,18.16572969482422,16.190001678466796,18.22999969482422C15.921561678466798,18.21696969482422,15.654841678466797,18.279319694824217,15.420001678466797,18.40999969482422C15.240171678466798,18.51348969482422,15.078111678466797,18.64516969482422,14.940001678466796,18.79999969482422L13.749999678466796,18.629999694824217L14.039999678466797,14.319999694824219L18.560001678466797,14.319999694824219L18.580001678466797,15.579999694824219Z" fill="#000000" fill-opacity="1"/></g><g></g></g></svg>