<svg xmlns="http://www.w3.org/2000/svg" xmlns:xlink="http://www.w3.org/1999/xlink" fill="none" version="1.1" width="32" height="32" viewBox="0 0 32 32"><defs><clipPath id="master_svg0_134_19925"><rect x="0" y="0" width="32" height="32" rx="0"/></clipPath></defs><g clip-path="url(#master_svg0_134_19925)"><g><path d="M2,6L2,26C2,27.1045,2.8955,28,4,28L28,28C29.1045,28,30,27.1045,30,26L30,6C30,4.8955,29.1045,4,28,4L4,4C2.8955,4,2,4.8955,2,6ZM4,6L20,6L20,15L9.8301,15L13.4099,11.4102L12,10L6,16L12,22L13.4099,20.5898L9.8301,17L20,17L20,26L4,26L4,6Z" fill="#000000" fill-opacity="1"/></g><g></g></g></svg>