<svg xmlns="http://www.w3.org/2000/svg" xmlns:xlink="http://www.w3.org/1999/xlink" fill="none" version="1.1" width="32" height="32" viewBox="0 0 32 32"><defs><clipPath id="master_svg0_134_19947"><rect x="0" y="0" width="32" height="32" rx="0"/></clipPath></defs><g clip-path="url(#master_svg0_134_19947)"><g><path d="M16,31L14,31L14,30.772C13.99615,29.5226,13.221720000000001,28.40515,12.0532,27.9629L8.5215,26.6384C7.00807,26.06552,6.00506163,24.61822,6,23L8,23C8.00245,23.785343,8.48915,24.48776,9.2236,24.7659L12.7554,26.09C14.70294,26.82715,15.99363,28.689619999999998,16,30.772L16,31Z" fill="#000000" fill-opacity="1"/></g><g><path d="M30,31L28,31L28,30.772C27.99615,29.5226,27.22172,28.40515,26.0532,27.9629L22.5215,26.6384C21.00807,26.06552,20.0050602,24.61822,20,23L22,23C22.00245,23.785343,22.48915,24.48776,23.2236,24.7659L26.7554,26.09C28.702939999999998,26.82715,29.99363,28.689619999999998,30,30.772L30,31Z" fill="#000000" fill-opacity="1"/></g><g><rect x="11" y="13" width="6" height="2" rx="0" fill="#000000" fill-opacity="1"/></g><g><path d="M23.4409,8L22.1687,3.45C21.9206,2.593398,21.1374,2.00291467,20.2456,2L7.7544,2C6.86238,2.00297213,6.07916,2.593801,5.831300000000001,3.4507000000000003L4.531499999999999,8L2,8L2,10L4,10L4,17C4.00138,18.104,4.896,18.9986,6,19L6,21L8,21L8,19L20,19L20,21L22,21L22,19C23.104,18.9986,23.9986,18.104,24,17L24,10L26,10L26,8L23.4409,8ZM7.7544,4L20.2458,4L21.6743,9L6.3257,9L7.7544,4ZM22,13L20,13L20,15L22,15L22,17L6,17L6,15L8,15L8,13L6,13L6,11L22,11L22,13Z" fill="#000000" fill-opacity="1"/></g><g></g></g></svg>