<svg xmlns="http://www.w3.org/2000/svg" xmlns:xlink="http://www.w3.org/1999/xlink" fill="none" version="1.1" width="32" height="32" viewBox="0 0 32 32"><defs><clipPath id="master_svg0_134_19955"><rect x="0" y="0" width="32" height="32" rx="0"/></clipPath></defs><g clip-path="url(#master_svg0_134_19955)"><g transform="matrix(0.7071067690849304,-0.7071067690849304,0.7071067690849304,0.7071067690849304,-14.335279468143085,11.975515601179836)"><rect x="7.2880859375" y="23.29197120666504" width="11.3100004196167" height="2" rx="0" fill="#000000" fill-opacity="1"/></g><g><path d="M17.00001424484253,30.000038011169433C16.87331424484253,30.000338011169433,16.74781424484253,29.976538011169435,16.630014244842528,29.930038011169433C16.296514244842527,29.797038011169434,16.05991424484253,29.495538011169433,16.01001424484253,29.140038011169434L15.010014244842528,22.140038011169434L17.01001424484253,21.860038011169433L17.76001424484253,27.130038011169432L21.00001424484253,24.520038011169433L21.00001424484253,17.000038011169433C20.99841424484253,16.73423801116943,21.10281424484253,16.478738011169433,21.290014244842528,16.290038011169436L25.360014244842528,12.220038011169434C27.05391424484253,10.537558011169434,28.00451424484253,8.247468011169435,28.00001424484253,5.859998011169433L28.00001424484253,3.9999980111694335L26.14001424484253,3.9999980111694335C23.75251424484253,3.9954680111694336,21.46241424484253,4.946068011169434,19.78001424484253,6.639998011169434L15.71001424484253,10.709998011169434C15.521314244842529,10.897188011169433,15.26581424484253,11.001538011169433,15.000014244842529,10.999998011169433L7.4800042448425295,10.999998011169433L4.870004244842529,14.260038011169433L10.13999424484253,15.010038011169433L9.860004244842528,17.010038011169435L2.8599992448425295,16.010038011169435C2.5044632448425292,15.960138011169434,2.202945244842529,15.723538011169433,2.0699996448425293,15.390038011169434C1.9353696448425293,15.054038011169434,1.9927364548425293,14.671638011169433,2.220000244842529,14.390038011169434L6.22000424484253,9.389998011169434C6.406634244842529,9.147508011169434,6.694024244842529,9.003808011169433,7.000004244842529,8.999998011169435L14.590014244842529,8.999998011169435L18.360014244842528,5.219998011169434C20.41861424484253,3.1498080111694335,23.22051424484253,1.9901648711694335,26.14001424484253,1.9999999999694336L28.00001424484253,1.9999999999694336C29.10461424484253,1.9999999999694336,30.00001424484253,2.8954310111694337,30.00001424484253,3.9999980111694335L30.00001424484253,5.859998011169433C30.00981424484253,8.779508011169433,28.85021424484253,11.581378011169434,26.78001424484253,13.640038011169434L23.00001424484253,17.410038011169434L23.00001424484253,25.000038011169433C22.99861424484253,25.304238011169435,22.858714244842528,25.591338011169434,22.62001424484253,25.780038011169434L17.62001424484253,29.780038011169434C17.444014244842528,29.921138011169433,17.22551424484253,29.998738011169433,17.00001424484253,30.000038011169433Z" fill="#000000" fill-opacity="1"/></g><g></g></g></svg>