<svg xmlns="http://www.w3.org/2000/svg" xmlns:xlink="http://www.w3.org/1999/xlink" fill="none" version="1.1" width="32" height="32" viewBox="0 0 32 32"><defs><clipPath id="master_svg0_134_20007"><rect x="0" y="0" width="32" height="32" rx="0"/></clipPath></defs><g clip-path="url(#master_svg0_134_20007)"><g><path d="M14,28L14,16C14.00126743,14.895955,14.895956,14.00126648,16,14L28,14C29.104,14.00126839,29.9987,14.895956,30,16L30,28C29.9987,29.104,29.104,29.9987,28,30L16,30C14.895956,29.9987,14.00126839,29.104,14,28Z" fill="#000000" fill-opacity="1"/></g><g><path d="M2,15L3.41,13.59L6,16.17L6,11C6.0043,7.13579,9.13579,4.00429821,13,4L18,4L18,6L13,6C10.23988,6.00314,8.00314,8.23988,8,11L8,16.17L10.59,13.59L12,15L7,20L2,15Z" fill="#000000" fill-opacity="1"/></g><g></g></g></svg>