<svg xmlns="http://www.w3.org/2000/svg" xmlns:xlink="http://www.w3.org/1999/xlink" fill="none" version="1.1" width="32" height="32" viewBox="0 0 32 32"><defs><clipPath id="master_svg0_134_19989"><rect x="0" y="0" width="32" height="32" rx="0"/></clipPath></defs><g clip-path="url(#master_svg0_134_19989)"><g><path d="M28,30L16,30C14.895956,29.9987,14.00126839,29.104,14,28L14,16C14.00126743,14.895955,14.895956,14.00126648,16,14L28,14C29.104,14.00126839,29.9987,14.895956,30,16L30,28C29.9987,29.104,29.104,29.9987,28,30Z" fill="#000000" fill-opacity="1"/></g><g><path d="M15,2L13.59,3.41L16.17,6L11,6C7.13579,6.0043,4.00429869,9.13579,4,13L4,18L6,18L6,13C6.00314,10.23988,8.23988,8.00314,11,8L16.17,8L13.59,10.59L15,12L20,7L15,2Z" fill="#000000" fill-opacity="1"/></g><g></g></g></svg>