<svg xmlns="http://www.w3.org/2000/svg" xmlns:xlink="http://www.w3.org/1999/xlink" fill="none" version="1.1" width="32" height="32" viewBox="0 0 32 32"><defs><clipPath id="master_svg0_134_20071"><rect x="0" y="0" width="32" height="32" rx="0"/></clipPath></defs><g clip-path="url(#master_svg0_134_20071)"><g><path d="M28,12L10,12C8.895909,11.99884,8.00115585,11.10409,8,10L8,4C8.00115776,2.8959099999999998,8.89591,2.00115776,10,2L28,2C29.1041,2.00115848,29.9988,2.895911,30,4L30,10C29.9988,11.10409,29.1041,11.99884,28,12ZM10,4L10,10L28,10L28,4L10,4Z" fill="#000000" fill-opacity="1"/></g><g><path d="M28,30L10,30C8.89591,29.99884,8.00115776,29.10409,8,28L8,22C8.00115681,20.89591,8.89591,20.00115776,10,20L28,20C29.1041,20.00115776,29.9988,20.89591,30,22L30,28C29.9988,29.10409,29.1041,29.99884,28,30ZM10,22L10,28L28,28L28,22L10,22Z" fill="#000000" fill-opacity="1"/></g><g><path d="M9,15.999999557495117L3.4139999999999997,10.413999557495117L2,11.827999557495117L6.172,15.999999557495117L2,20.171999557495116L3.4139999999999997,21.585999557495118L9,15.999999557495117Z" fill="#000000" fill-opacity="1"/></g><g></g></g></svg>