<svg xmlns="http://www.w3.org/2000/svg" xmlns:xlink="http://www.w3.org/1999/xlink" fill="none" version="1.1" width="32" height="32" viewBox="0 0 32 32"><defs><clipPath id="master_svg0_134_20142"><rect x="0" y="0" width="32" height="32" rx="0"/></clipPath></defs><g clip-path="url(#master_svg0_134_20142)"><g><path d="M29,10L3,10C2.447715,10,2,10.447715,2,11L2,21C2,21.552300000000002,2.447715,22,3,22L29,22C29.5523,22,30,21.552300000000002,30,21L30,11C30,10.447715,29.5523,10,29,10ZM28,20L4,20L4,12L8,12L8,16L10,16L10,12L15,12L15,16L17,16L17,12L22,12L22,16L24,16L24,12L28,12L28,20Z" fill="#000000" fill-opacity="1"/></g><g></g></g></svg>