<svg xmlns="http://www.w3.org/2000/svg" xmlns:xlink="http://www.w3.org/1999/xlink" fill="none" version="1.1" width="32" height="32" viewBox="0 0 32 32"><defs><clipPath id="master_svg0_134_20111"><rect x="0" y="0" width="32" height="32" rx="0"/></clipPath></defs><g clip-path="url(#master_svg0_134_20111)"><g><path d="M29.707,19.293003760375978L26.707,16.292999760375977C26.3166,15.902285560375976,25.68336,15.902285560375976,25.293,16.292999760375977L16,25.585903760375977L16,29.999963760375977L20.4141,29.999963760375977L29.707,20.707003760375976C30.0977,20.316643760375975,30.0977,19.683363760375975,29.707,19.293003760375978ZM19.5859,27.999963760375977L18,27.999963760375977L18,26.414063760375974L23,21.414103760375976L24.585900000000002,23.000003760375975L19.5859,27.999963760375977ZM26,21.585903760375977L24.414099999999998,20.000003760375975L26,18.414103760375976L27.585900000000002,20.000003760375975L26,21.585903760375977Z" fill="#000000" fill-opacity="1"/></g><g><rect x="8" y="16" width="10" height="2" rx="0" fill="#000000" fill-opacity="1"/></g><g><rect x="8" y="10" width="12" height="2" rx="0" fill="#000000" fill-opacity="1"/></g><g><path d="M25.999993443489075,4C25.998693443489074,2.895955,25.103993443489074,2.00126648,23.999993443489075,2L4.000003443489074,2C2.8959554434890746,2.00126719,2.001267193489075,2.895956,1.9999999999990747,4L1.9999999999990747,17C1.9955865134890747,21.0641,4.2361334434890745,24.7984,7.824203443489075,26.707L12.999993443489075,29.4668L12.999993443489075,27.2L8.765603443489073,24.9424C5.829843443489075,23.3807,3.9965734434890745,20.3253,4.000003443489074,17L4.000003443489074,4L23.999993443489075,4L23.999993443489075,13L25.999993443489075,13L25.999993443489075,4Z" fill="#000000" fill-opacity="1"/></g><g></g></g></svg>