<svg xmlns="http://www.w3.org/2000/svg" xmlns:xlink="http://www.w3.org/1999/xlink" fill="none" version="1.1" width="32" height="32" viewBox="0 0 32 32"><defs><clipPath id="master_svg0_134_20126"><rect x="0" y="0" width="32" height="32" rx="0"/></clipPath></defs><g clip-path="url(#master_svg0_134_20126)"><g><path d="M28,22L28,19C28,16.8,26.2,15,24,15C21.8,15,20,16.8,20,19L20,22C18.9,22,18,22.9,18,24L18,29C18,30.1,18.9,31,20,31L28,31C29.1,31,30,30.1,30,29L30,24C30,22.9,29.1,22,28,22ZM22,19C22,17.9,22.9,17,24,17C25.1,17,26,17.9,26,19L26,22L22,22L22,19ZM20,29L20,24L28,24L28,29L20,29Z" fill="#000000" fill-opacity="1"/></g><g><rect x="8" y="16" width="6" height="2" rx="0" fill="#000000" fill-opacity="1"/></g><g><rect x="8" y="10" width="12" height="2" rx="0" fill="#000000" fill-opacity="1"/></g><g><path d="M26,4C26,2.9,25.1,2,24,2L4,2C2.9,2,2,2.9,2,4L2,17C2,21.1,4.2,24.8,7.8,26.7L13,29.5L13,27.2L8.8,24.9C5.8,23.4,4,20.3,4,17L4,4L24,4L24,12L26,12L26,4Z" fill="#000000" fill-opacity="1"/></g><g></g></g></svg>