<svg xmlns="http://www.w3.org/2000/svg" xmlns:xlink="http://www.w3.org/1999/xlink" fill="none" version="1.1" width="32" height="32" viewBox="0 0 32 32"><defs><clipPath id="master_svg0_134_20134"><rect x="0" y="0" width="32" height="32" rx="0"/></clipPath></defs><g clip-path="url(#master_svg0_134_20134)"><g><path d="M23,16C19.1,16,16,19.1,16,23C16,26.9,19.1,30,23,30C26.9,30,30,26.9,30,23C30,19.1,26.9,16,23,16ZM23,28L23,18C25.8,18,28,20.2,28,23C28,25.8,25.8,28,23,28Z" fill="#000000" fill-opacity="1"/></g><g><rect x="8" y="16" width="6" height="2" rx="0" fill="#000000" fill-opacity="1"/></g><g><rect x="8" y="10" width="12" height="2" rx="0" fill="#000000" fill-opacity="1"/></g><g><path d="M26,4C26,2.9,25.1,2,24,2L4,2C2.9,2,2,2.9,2,4L2,17C2,21.1,4.2,24.8,7.8,26.7L13,29.5L13,27.2L8.8,24.9C5.8,23.4,4,20.3,4,17L4,4L24,4L24,13L26,13L26,4Z" fill="#000000" fill-opacity="1"/></g><g></g></g></svg>