<svg xmlns="http://www.w3.org/2000/svg" xmlns:xlink="http://www.w3.org/1999/xlink" fill="none" version="1.1" width="32" height="32" viewBox="0 0 32 32"><defs><clipPath id="master_svg0_134_20175"><rect x="0" y="0" width="32" height="32" rx="0"/></clipPath></defs><g clip-path="url(#master_svg0_134_20175)"><g><path d="M21.707,20.292999046325683L16.707,15.292999046325683C16.5119,15.097699146325684,16.256,14.999999046325684,16,14.999999046325684C15.744,14.999999046325684,15.488,15.097699146325684,15.293,15.292999046325683L2,28.585899046325686L3.4143,29.999999046325684L16,17.414099046325685L19.5857,20.999999046325684L14,26.585899046325686L15.4143,27.999999046325684L17.7063,25.707999046325682L21.707,21.706999046325684C21.9023,21.511699046325685,22,21.255799046325684,22,20.999999046325684C22,20.744199046325683,21.9023,20.488299046325682,21.707,20.292999046325683Z" fill="#000000" fill-opacity="1"/></g><g><path d="M28.585901089477538,9.000003651733397L23.00000108947754,14.5859036517334L16.99880108947754,8.5843996517334C16.60680108947754,8.1925996517334,16.09150108947754,7.997899051733398,15.576801089477538,7.999899387333398C15.067201089477539,8.001899721733398,14.558301089477538,8.1966986517334,14.17050108947754,8.5843996517334L8.000101089477539,14.7597036517334L9.41440108947754,16.1738036517334L15.584801089477539,9.999003651733398L22.29310108947754,16.707003651733398C22.48820108947754,16.902303651733398,22.74430108947754,17.0000036517334,23.00010108947754,17.0000036517334C23.25590108947754,17.0000036517334,23.51210108947754,16.902303651733398,23.70710108947754,16.707003651733398L30.00010108947754,10.414003651733399L28.585901089477538,9.000003651733397Z" fill="#000000" fill-opacity="1"/></g><g><path d="M22.5,9C20.5701,9,19,7.4299,19,5.5C19,3.5701,20.5701,2,22.5,2C24.4299,2,26,3.5701,26,5.5C26,7.4299,24.4299,9,22.5,9ZM22.5,4C21.6729,4,21,4.6729,21,5.5C21,6.3271,21.6729,7,22.5,7C23.3271,7,24,6.3271,24,5.5C24,4.6729,23.3271,4,22.5,4Z" fill="#000000" fill-opacity="1"/></g><g></g></g></svg>