<svg xmlns="http://www.w3.org/2000/svg" xmlns:xlink="http://www.w3.org/1999/xlink" fill="none" version="1.1" width="32" height="32" viewBox="0 0 32 32"><defs><clipPath id="master_svg0_134_20182"><rect x="0" y="0" width="32" height="32" rx="0"/></clipPath></defs><g clip-path="url(#master_svg0_134_20182)"><g><path d="M24.7808,25.99996944923401L25.97,21.24216944923401C26.1274,20.61106944923401,25.6502,19.99996944923401,25,19.99996944923401L20,19.99996944923401L20,16.99996944923401L25,16.99996944923401C25.7298,17.000169449234008,26.2139,16.24376944923401,25.9082,15.58106944923401L19.9082,2.581100449234009C19.5928,1.8978654492340088,18.6644,1.7942314492340088,18.2061,2.391100449234009L8.2075,15.39056944923401C7.97542,15.692569449234009,7.93499,16.10006944923401,8.10323,16.44176944923401C8.27147,16.78346944923401,8.61917,16.99986944923401,9,16.99996944923401L18,16.99996944923401L18,19.99996944923401L7,19.99996944923401C6.34966,20.000169449234008,5.87249,20.61126944923401,6.03,21.24216944923401L7.2192,25.99996944923401L2,25.99996944923401L2,27.99996944923401L30,27.99996944923401L30,25.99996944923401L24.7808,25.99996944923401ZM20,7.552699449234009L23.437,14.999969449234008L20,14.999969449234008L20,7.552699449234009ZM11.0308,14.999969449234008L18,5.9399994492340085L18,14.999969449234008L11.0308,14.999969449234008ZM22.7192,25.99996944923401L9.2808,25.99996944923401L8.2808,21.99996944923401L23.7192,21.99996944923401L22.7192,25.99996944923401Z" fill="#000000" fill-opacity="1"/></g><g></g></g></svg>