<svg xmlns="http://www.w3.org/2000/svg" xmlns:xlink="http://www.w3.org/1999/xlink" fill="none" version="1.1" width="32" height="32" viewBox="0 0 32 32"><defs><clipPath id="master_svg0_134_20193"><rect x="0" y="0" width="32" height="32" rx="0"/></clipPath></defs><g clip-path="url(#master_svg0_134_20193)"><g><path d="M30,6L30,4L27,4L27,2L25,2L25,4L24,4C22.8972,4,22,4.8975,22,6L22,8C22,9.1025,22.8972,10,24,10L28,10L28,12L22,12L22,14L25,14L25,16L27,16L27,14L28,14C29.102800000000002,14,30,13.1025,30,12L30,10C30,8.8975,29.102800000000002,8,28,8L24,8L24,6L30,6Z" fill="#000000" fill-opacity="1"/></g><g><path d="M23.999999046325684,20L23.999999046325684,22L26.585899046325686,22L23.000199046325683,25.5859L20.708499046325684,23.2929C20.520999046325684,23.1054,20.266599046325684,22.9999,20.001499046325684,22.9999L19.999999046325684,22.9999C19.734899046325683,22.9999,19.481699046325684,23.1054,19.294199046325684,23.2929L13.999999046325684,28.585900000000002L15.414299046325684,30L20.000999046325685,25.4141L22.292699046325684,27.7071C22.480199046325684,27.8946,22.734599046325684,28.0001,22.999999046325684,28.0001C23.265099046325684,28.0001,23.519499046325684,27.8946,23.706999046325684,27.7071L27.999999046325684,23.4141L27.999999046325684,26L29.999999046325684,26L29.999999046325684,20L23.999999046325684,20Z" fill="#000000" fill-opacity="1"/></g><g><path d="M4,30L2,30L2,25C2,21.1401,5.1401,18,9,18L15,18C16.988500000000002,18,18.8901,18.850201,20.217,20.3328L18.7268,21.6668C17.7788,20.6076,16.4204,20.0001,15,20.0001L9,20.0001C6.2429,20.0001,4,22.2431,4,25.0001L4,30Z" fill="#000000" fill-opacity="1"/></g><g><path d="M12,16C15.866,16,19,12.866,19,9C19,5.134,15.866,2,12,2C8.134,2,5,5.134,5,9C5,12.866,8.134,16,12,16ZM12,4C14.7615,4,17,6.2385,17,9C17,11.7615,14.7615,14,12,14C9.2385,14,7,11.7615,7,9C7.0032,6.2399,9.239899999999999,4.0032,12,4Z" fill="#000000" fill-opacity="1"/></g><g></g></g></svg>