<svg xmlns="http://www.w3.org/2000/svg" xmlns:xlink="http://www.w3.org/1999/xlink" fill="none" version="1.1" width="32" height="32" viewBox="0 0 32 32"><defs><clipPath id="master_svg0_134_20201"><rect x="0" y="0" width="32" height="32" rx="0"/></clipPath></defs><g clip-path="url(#master_svg0_134_20201)"><g><path d="M28,2L28,8.0439C26.0366,8.2407,21.6838,9.276399999999999,17.4363,14.3203C17.238300000000002,14.0435,17.0381,13.7739,16.848100000000002,13.4697C11.9736,5.6714,6.3191,4.2759,4,4.042L4,2L2,2L2,30L4,30L4,26.0464C7.68254,26.0005,11.21698,24.5894,13.9185,22.0864C18.47,27.46,25.2363,28.0381,27.9341,28.0381C27.9585,28.0381,27.9763,28.0371,28,28.0371L28,30L30,30L30,2L28,2ZM28,10.0552L28,20.0452C24.4727,19.9956,21.1201,18.5018,18.7244,15.9124C22.5032,11.2666,26.2915,10.26,28,10.0552ZM15.1519,14.53C15.4761,15.0485,15.8149,15.5207,16.1597,15.9709C15.8213,16.445,15.4844,16.9416,15.1519,17.4738C14.8352,17.9768,14.4909,18.4619,14.1206,18.9269C14.0381,18.7897,13.9531,18.6569,13.874,18.5143C9.3279,10.3315,5.787100000000001,8.4438,4,8.0684L4,6.0508C5.9932,6.2905,10.8228,7.6035,15.1519,14.53ZM4,24.0488L4,10.1406C5.3254,10.605,8.2034,12.4253,12.126,19.4854C12.3154,19.8267,12.522,20.1377,12.726,20.4521C10.37728,22.712,7.25901,23.9973,4,24.0488ZM15.3179,20.6279C15.8774,19.9676,16.3887,19.2679,16.8479,18.5342C17.0691,18.1802,17.293300000000002,17.8642,17.5166,17.539099999999998C20.2731,20.3746,24.0457,21.9952,28,22.0425L28,26.0288C25.67,26.019,19.374,25.5088,15.3179,20.6279Z" fill="#000000" fill-opacity="1"/></g><g></g></g></svg>