<svg xmlns="http://www.w3.org/2000/svg" xmlns:xlink="http://www.w3.org/1999/xlink" fill="none" version="1.1" width="32" height="32" viewBox="0 0 32 32"><defs><clipPath id="master_svg0_134_20223"><rect x="0" y="0" width="32" height="32" rx="0"/></clipPath></defs><g clip-path="url(#master_svg0_134_20223)"><g><path d="M26.5,12.0000361038208L19,12.0000361038208C16.79086,12.0000361038208,15,10.2091361038208,15,7.999996103820801C15,5.7908661038208,16.79086,3.9999961038208007,19,3.9999961038208007L19.0835,3.9999961038208007C19.98734,2.737566103820801,21.44739,1.9919807938208007,23,2.0000000000208007C25.0655,1.9996355768208007,26.917,3.273956103820801,27.6543,5.2033961038208005C29.0629,5.684716103820801,30.0069,7.011496103820801,30,8.499996103820802C29.997700000000002,10.4320561038208,28.4321,11.9977361038208,26.5,12.0000361038208ZM19,5.999996103820801C17.89543,5.999996103820801,17,6.8954261038208005,17,7.999996103820801C17,9.104566103820801,17.89543,9.9999961038208,19,9.9999961038208L26.5,9.9999961038208C27.328,9.999066103820802,27.9991,9.3280361038208,28,8.499996103820802C28.0015,7.758686103820801,27.456200000000003,7.129746103820801,26.7222,7.026096103820801L26.061,6.926996103820801L25.8994,6.278296103820801C25.617,5.080566103820801,24.62235,4.182936103820801,23.40202,4.024566103820801C22.18168,3.866206103820801,20.99084,4.480216103820801,20.4121,5.5661961038208005L20.1143,5.999996103820801L19,5.999996103820801Z" fill="#000000" fill-opacity="1"/></g><g><path d="M13,27.999964714050293L13,24.88816471405029C14.7818,24.681364714050293,16.4409,23.87706471405029,17.707,22.606364714050294C18.0977,22.216064714050294,18.0977,21.582764714050292,17.707,21.192364714050292L13.4644,16.950004714050294L16,14.414094714050293L14.5859,13.000004714050293L12.05,15.535594714050294L7.8076,11.293000714050294C7.41724,10.902286514050292,6.78396,10.902286514050292,6.3936,11.293000714050294C3.2692300000000003,14.417004714050293,3.2692300000000003,19.482404714050293,6.3936,22.606364714050294C6.5557,22.768564714050292,6.7263,22.918864714050294,6.8994,23.065364714050293L4.4321,27.999964714050293L2,27.999964714050293L2,29.999964714050293L30,29.999964714050293L30,27.999964714050293L13,27.999964714050293ZM11,27.999964714050293L6.6685,27.999964714050293L8.59,24.156664714050294C9.3499,24.522664714050293,10.16355,24.764564714050294,11,24.87296471405029L11,27.999964714050293ZM7.8076,21.192364714050292C5.73775,19.121574714050293,5.46358,15.859684714050292,7.1587,13.472404714050294L15.5273,21.84046471405029C13.1402,23.536164714050294,9.878070000000001,23.262164714050293,7.8076,21.192364714050292L7.8076,21.192364714050292Z" fill="#000000" fill-opacity="1"/></g><g></g></g></svg>