<svg xmlns="http://www.w3.org/2000/svg" xmlns:xlink="http://www.w3.org/1999/xlink" fill="none" version="1.1" width="32" height="32" viewBox="0 0 32 32"><defs><clipPath id="master_svg0_134_24892"><rect x="0" y="0" width="32" height="32" rx="0"/></clipPath></defs><g clip-path="url(#master_svg0_134_24892)"><g><path d="M28.828100014734268,7.133800980834961C27.24570001473427,5.6220949808349605,24.75430001473427,5.6220949808349605,23.17190001473427,7.133800980834961L0.3433000147342682,29.96192098083496L9.588900014734268,29.96192098083496C10.915800014734268,29.96532098083496,12.188900014734267,29.43792098083496,13.124500014734268,28.49712098083496L28.828100014734268,12.79000098083496C30.390600014734268,11.228340980834961,30.390600014734268,8.69546098083496,28.828100014734268,7.133800980834961ZM12.292800014734269,20.840620980834963L14.378800014734269,18.75482098083496L17.208100014734267,21.58412098083496L15.122400014734268,23.670020980834963L12.292800014734269,20.840620980834963ZM11.710000014734268,27.08302098083496C11.148500014734267,27.647420980834962,10.384600014734268,27.96382098083496,9.588500014734269,27.96192098083496L5.171400014734268,27.96192098083496L10.878700014734267,22.25472098083496L13.708700014734267,25.084720980834962L11.710000014734268,27.08302098083496ZM27.414100014734267,11.376000980834961L18.62210001473427,20.170020980834963L15.792800014734269,17.340820980834962L24.585900014734268,8.54800098083496C25.377100014734268,7.792110980834961,26.622900014734267,7.792110980834961,27.414100014734267,8.54800098083496C28.19530001473427,9.328850980834961,28.19530001473427,10.595250980834962,27.414100014734267,11.376000980834961Z" fill="#000000" fill-opacity="1"/></g><g><path d="M11.000000698661804,2.0000000000491944L7.000000698661804,2.0000000000491944C5.068410698661804,1.9938983960491943,3.3072106986618044,3.1043749660491944,2.480065698661804,4.8499149660491945C1.6529226986618042,6.595444966049194,1.9087813986618043,8.661734966049195,3.1367006986618042,10.152794966049195C3.050200698661804,10.427054966049194,3.004150698661804,10.712454966049194,3.000000698661804,10.999994966049194C3.003870698661804,12.267074966049194,3.8048206986618043,13.394574966049195,5.000000698661804,13.815374966049195L5.000000698661804,13.999974966049194C4.998620698661805,15.103974966049194,4.104000698661804,15.998574966049194,3.000000698661804,15.999974966049194L1.999999999961804,15.999974966049194L1.999999999961804,17.999974966049194L3.000000698661804,17.999974966049194C5.2081106986618035,17.997474966049197,6.997520698661805,16.208074966049196,7.000000698661804,13.999974966049194L7.000000698661804,13.815874966049194C7.847120698661804,13.513774966049194,8.513710698661804,12.847174966049195,8.815700698661804,11.999974966049194L11.000000698661804,11.999974966049194C13.761400698661804,11.999974966049194,16.000000698661804,9.761424966049194,16.000000698661804,6.9999949660491945C16.000000698661804,4.238574966049194,13.761400698661804,2.0000000000491944,11.000000698661804,2.0000000000491944ZM6.000000698661804,11.999974966049194C5.447710698661805,11.999974966049194,5.000000698661804,11.552284966049195,5.000000698661804,10.999994966049194C5.000000698661804,10.447714966049194,5.447710698661805,9.999994966049194,6.000000698661804,9.999994966049194C6.5522806986618045,9.999994966049194,7.000000698661804,10.447714966049194,7.000000698661804,10.999994966049194C6.999500698661804,11.552074966049194,6.552080698661804,11.999504966049194,6.000000698661804,11.999974966049194ZM11.000000698661804,9.999994966049194L8.815700698661804,9.999994966049194C8.184410698661804,8.178744966049194,6.013960698661804,7.429984966049195,4.394000698661804,8.474594966049194C3.252670698661804,6.477204966049194,4.699520698661804,3.992894966049194,7.000000698661804,4.000004966049195L11.000000698661804,4.000004966049195C12.656900698661804,4.000004966049195,14.000000698661804,5.343144966049195,14.000000698661804,6.9999949660491945C14.000000698661804,8.656854966049195,12.656900698661804,9.999994966049194,11.000000698661804,9.999994966049194Z" fill="#000000" fill-opacity="1"/></g><g></g></g></svg>