<svg xmlns="http://www.w3.org/2000/svg" xmlns:xlink="http://www.w3.org/1999/xlink" fill="none" version="1.1" width="32" height="32" viewBox="0 0 32 32"><defs><clipPath id="master_svg0_134_20341"><rect x="0" y="0" width="32" height="32" rx="0"/></clipPath></defs><g clip-path="url(#master_svg0_134_20341)"><g><rect x="24" y="26" width="7" height="2" rx="0" fill="#000000" fill-opacity="1"/></g><g><rect x="24" y="22" width="7" height="2" rx="0" fill="#000000" fill-opacity="1"/></g><g><path d="M20.4141,12L25,12L25,10L17,10L17,18L19,18L19,13.4141L25.585900000000002,20L27,18.585900000000002L20.4141,12Z" fill="#000000" fill-opacity="1"/></g><g><path d="M7,7L29,7L29,19L31,19L31,7C31,5.8975,30.1028,5,29,5L7,5C5.8972,5,5,5.8975,5,7L5,22C5,23.1025,5.8972,24,7,24L14,24L14,28L10,28L10,30L22,30L22,22L7,22L7,7ZM20,28L16,28L16,24L20,24L20,28Z" fill="#000000" fill-opacity="1"/></g><g><path d="M26,3L26,1L3,1C1.8972,1,1,1.8965,1,3L1,18L3,18L3,3L26,3Z" fill="#000000" fill-opacity="1"/></g><g></g></g></svg>