<svg xmlns="http://www.w3.org/2000/svg" xmlns:xlink="http://www.w3.org/1999/xlink" fill="none" version="1.1" width="32" height="32" viewBox="0 0 32 32"><defs><clipPath id="master_svg0_134_20333"><rect x="0" y="0" width="32" height="32" rx="0"/></clipPath></defs><g clip-path="url(#master_svg0_134_20333)"><g><rect x="22" y="25" width="8" height="2" rx="0" fill="#000000" fill-opacity="1"/></g><g><rect x="22" y="21" width="8" height="2" rx="0" fill="#000000" fill-opacity="1"/></g><g><path d="M18.4141,11L23,11L23,9L15,9L15,17L17,17L17,12.4141L23.585900000000002,19L25,17.585900000000002L18.4141,11Z" fill="#000000" fill-opacity="1"/></g><g><path d="M28,3L4,3C2.8971999999999998,3,2,3.8975,2,5L2,21C2,22.1025,2.8971999999999998,23,4,23L12,23L12,27L8,27L8,29L20,29L20,21L4,21L4,5L28,5L28,19L30,19L30,5C30,3.8975,29.1028,3,28,3ZM18,27L14,27L14,23L18,23L18,27Z" fill="#000000" fill-opacity="1"/></g><g></g></g></svg>