<svg xmlns="http://www.w3.org/2000/svg" xmlns:xlink="http://www.w3.org/1999/xlink" fill="none" version="1.1" width="32" height="32" viewBox="0 0 32 32"><defs><clipPath id="master_svg0_134_20370"><rect x="0" y="0" width="32" height="32" rx="0"/></clipPath></defs><g clip-path="url(#master_svg0_134_20370)"><g><path d="M30,9L27.9,9L24,15.6L24,9L22,9L22,23L24,23L24,18.7L24.9,17.2L27.9,23L30,23L26.1,15.4L30,9Z" fill="#000000" fill-opacity="1"/></g><g><path d="M16,23L12,23L12,9L16,9C18.20645,9.00647926,19.99352,10.79355,20,13L20,19C19.99352,21.206400000000002,18.20645,22.993499999999997,16,23ZM14,21L16,21C17.10322,20.9968,17.996760000000002,20.1032,18,19L18,13C17.996760000000002,11.89678,17.10322,11.00324,16,11L14,11L14,21Z" fill="#000000" fill-opacity="1"/></g><g><path d="M8,23L2,23L2,21L8,21L8,17L4,17C2.896775,16.996760000000002,2.00323963,16.10323,2,15L2,11C2.00323987,9.896775,2.896775,9.00323963,4,9L10,9L10,11L4,11L4,15L8,15C9.10322,15.00324,9.99676,15.89678,10,17L10,21C9.99676,22.1032,9.10322,22.9968,8,23Z" fill="#000000" fill-opacity="1"/></g><g></g></g></svg>