<svg xmlns="http://www.w3.org/2000/svg" xmlns:xlink="http://www.w3.org/1999/xlink" fill="none" version="1.1" width="32" height="32" viewBox="0 0 32 32"><defs><clipPath id="master_svg0_134_20410"><rect x="0" y="0" width="32" height="32" rx="0"/></clipPath></defs><g clip-path="url(#master_svg0_134_20410)"><g><path d="M30,24L30,22L27.898899999999998,22C27.77,21.37406,27.5214,20.77888,27.167,20.2471L28.657,18.7571L27.243000000000002,17.3431L25.753,18.8331C25.2212,18.47861,24.62598,18.23007,24,18.1011L24,16L22,16L22,18.1011C21.37406,18.23005,20.77888,18.47855,20.2471,18.833L18.7571,17.343L17.3431,18.757L18.8331,20.247C18.47861,20.77881,18.23006,21.37402,18.1011,22L16,22L16,24L18.1011,24C18.23005,24.62594,18.47856,25.22112,18.833,25.7529L17.343,27.2429L18.757,28.6569L20.247,27.1669C20.77881,27.5214,21.37402,27.7699,22,27.898899999999998L22,30L24,30L24,27.898899999999998C24.62594,27.77,25.22112,27.5214,25.7529,27.167L27.2429,28.657L28.6569,27.243000000000002L27.1669,25.753C27.5214,25.22119,27.7699,24.62598,27.898899999999998,24L30,24ZM23,26C21.34315,26,20,24.65685,20,23C20,21.34315,21.34315,20,23,20C24.65685,20,26,21.34315,26,23C25.998179999999998,24.656100000000002,24.656100000000002,25.998179999999998,23,26Z" fill="#000000" fill-opacity="1"/></g><g><path d="M13.999993562698364,26.667L10.765603562698363,24.9424C7.829843562698365,23.3807,5.996573562698364,20.3253,6.000003562698364,17L6.000003562698364,4L25.999993562698364,4L25.999993562698364,14L27.999993562698364,14L27.999993562698364,4C27.998693562698364,2.895956,27.103993562698363,2.00126767,25.999993562698364,2L6.000003562698364,2C4.895955562698364,2.00126719,4.001267432698365,2.895956,3.9999999999983644,4L3.9999999999983644,17C3.995584962698364,21.0641,6.236133562698364,24.7984,9.824203562698365,26.707L13.999993562698364,28.9336L13.999993562698364,26.667Z" fill="#000000" fill-opacity="1"/></g><g></g></g></svg>