<svg xmlns="http://www.w3.org/2000/svg" xmlns:xlink="http://www.w3.org/1999/xlink" fill="none" version="1.1" width="32" height="32" viewBox="0 0 32 32"><defs><clipPath id="master_svg0_134_20459"><rect x="0" y="0" width="32" height="32" rx="0"/></clipPath></defs><g clip-path="url(#master_svg0_134_20459)"><g><path d="M4,7L2,7L2,4C2.00126719,2.895956,2.895956,2.00126719,4,2L7,2L7,4L4,4L4,7Z" fill="#000000" fill-opacity="1"/></g><g><path d="M7,22L4,22C2.895956,21.998730000000002,2.00126839,21.10404,2,20L2,17L4,17L4,20L7,20L7,22Z" fill="#000000" fill-opacity="1"/></g><g><rect x="2" y="10" width="2" height="4" rx="0" fill="#000000" fill-opacity="1"/></g><g><path d="M22,7L20,7L20,4L17,4L17,2L20,2C21.10404,2.00126863,21.998730000000002,2.895956,22,4L22,7Z" fill="#000000" fill-opacity="1"/></g><g><rect x="10" y="2" width="4" height="2" rx="0" fill="#000000" fill-opacity="1"/></g><g><path d="M28,30L12,30C10.895956,29.9987,10.00126839,29.104,10,28L10,12C10.00126743,10.895955,10.895956,10.00126648,12,10L28,10C29.104,10.00126839,29.9987,10.895956,30,12L30,28C29.9987,29.104,29.104,29.9987,28,30ZM12,12L12,28L28,28L28,12L12,12Z" fill="#000000" fill-opacity="1"/></g><g></g></g></svg>