<svg xmlns="http://www.w3.org/2000/svg" xmlns:xlink="http://www.w3.org/1999/xlink" fill="none" version="1.1" width="32" height="32" viewBox="0 0 32 32"><defs><clipPath id="master_svg0_134_20474"><rect x="0" y="0" width="32" height="32" rx="0"/></clipPath></defs><g clip-path="url(#master_svg0_134_20474)"><g><path d="M28,10L22,10L22,4C22,2.895431,21.1046,2,20,2L4,2C2.895431,2,2,2.895431,2,4L2,20C2,21.1046,2.895431,22,4,22L10,22L10,28C10.00127,29.104,10.89596,29.9987,12,30L28,30C29.104,29.9987,29.9987,29.104,30,28L30,12C29.9987,10.89596,29.104,10.00127,28,10ZM12,28L12,12L28,12L28.0015,28L12,28Z" fill="#000000" fill-opacity="1"/></g><g></g></g></svg>