<svg xmlns="http://www.w3.org/2000/svg" xmlns:xlink="http://www.w3.org/1999/xlink" fill="none" version="1.1" width="32" height="32" viewBox="0 0 32 32"><defs><clipPath id="master_svg0_134_20513"><rect x="0" y="0" width="32" height="32" rx="0"/></clipPath></defs><g clip-path="url(#master_svg0_134_20513)"><g><ellipse cx="7" cy="19" rx="1" ry="1" fill="#000000" fill-opacity="1"/></g><g><ellipse cx="16" cy="11" rx="1" ry="1" fill="#000000" fill-opacity="1"/></g><g><ellipse cx="25" cy="19" rx="1" ry="1" fill="#000000" fill-opacity="1"/></g><g><ellipse cx="10" cy="14" rx="1" ry="1" fill="#000000" fill-opacity="1"/></g><g><path d="M30.00000007019043,20.00000011444092L28.00000007019043,20.00000011444092C28.00000007019043,18.738400114440918,27.80540107019043,17.495800114440918,27.42140007019043,16.307100114440917L29.32470007019043,15.692500114440918C29.77270007019043,17.080100114440917,30.00000007019043,18.529400114440918,30.00000007019043,20.00000011444092Z" fill="#000000" fill-opacity="1"/></g><g><path d="M29.85080177154541,8.977499864196776L27.414001771545408,11.413999864196779L27.414001771545408,11.413999864196779C27.05140177154541,11.775799864196777,26.55140177154541,11.999899864196777,25.99990177154541,11.999899864196777C24.89690177154541,11.999899864196777,23.99990177154541,11.102899864196777,23.99990177154541,9.999899864196777C23.99990177154541,9.448099864196777,24.22400177154541,8.948099864196777,24.586301771545408,8.586299864196777L24.586301771545408,8.586299864196777L27.02260177154541,6.149299864196777C26.69420177154541,6.061399964196777,26.35560177154541,5.999899864196777,25.99990177154541,5.999899864196777C23.79430177154541,5.999899864196777,21.99990177154541,7.794299864196777,21.99990177154541,9.999899864196777C21.99990177154541,10.739199864196777,22.21520177154541,11.423699864196777,22.56680177154541,12.018899864196777L18.01890177154541,16.566799864196778C17.42390177154541,16.215199864196777,16.73940177154541,15.999899864196777,15.99990177154541,15.999899864196777C13.79430177154541,15.999899864196777,11.99990177154541,17.794299864196777,11.99990177154541,19.999899864196777C11.99990177154541,22.205499864196778,13.79430177154541,23.999899864196777,15.99990177154541,23.999899864196777C18.20550177154541,23.999899864196777,19.99990177154541,22.205499864196778,19.99990177154541,19.999899864196777C19.99990177154541,19.260199864196778,19.78460177154541,18.575599864196775,19.43300177154541,17.98089986419678L23.980901771545412,13.432999864196777C24.57590177154541,13.784599864196778,25.26040177154541,13.999899864196777,25.99990177154541,13.999899864196777C28.20550177154541,13.999899864196777,29.99990177154541,12.205499864196778,29.99990177154541,9.999899864196777C29.99990177154541,9.644399864196778,29.93840177154541,9.305599864196777,29.85080177154541,8.977499864196776ZM16.00000177154541,21.999999864196777C14.89700177154541,21.999999864196777,14.00000177154541,21.10249986419678,14.00000177154541,19.999999864196777C14.00000177154541,18.897499864196778,14.89700177154541,17.999999864196777,16.00000177154541,17.999999864196777C17.10300177154541,17.999999864196777,18.00000177154541,18.897499864196778,18.00000177154541,19.999999864196777C18.00000177154541,21.10249986419678,17.10300177154541,21.999999864196777,16.00000177154541,21.999999864196777Z" fill="#000000" fill-opacity="1"/></g><g><path d="M4,20L2,20C2,12.2804,8.2803,6,16,6C17.4707,6,18.9199,6.2272,20.3074,6.6754L19.6927,8.5785C18.5042,8.194700000000001,17.2618,8,16.0001,8C9.3834,8,4.0001,13.3832,4,20Z" fill="#000000" fill-opacity="1"/></g><g></g></g></svg>