<svg xmlns="http://www.w3.org/2000/svg" xmlns:xlink="http://www.w3.org/1999/xlink" fill="none" version="1.1" width="32" height="32" viewBox="0 0 32 32"><defs><clipPath id="master_svg0_134_20506"><rect x="0" y="0" width="32" height="32" rx="0"/></clipPath></defs><g clip-path="url(#master_svg0_134_20506)"><g><path d="M30,24L30,22L27.899,22C27.769,21.363,27.515,20.771,27.167,20.247L28.657,18.757L27.243000000000002,17.343L25.753,18.833C25.229,18.485,24.637,18.231,24,18.101L24,16L22,16L22,18.101C21.363,18.231,20.771,18.485,20.247,18.833L18.757,17.343L17.343,18.757L18.833,20.247C18.485,20.771,18.231,21.363,18.101,22L16,22L16,24L18.101,24C18.231,24.637,18.485,25.229,18.833,25.753L17.343,27.243000000000002L18.757,28.657L20.247,27.167C20.771,27.515,21.363,27.769,22,27.899L22,30L24,30L24,27.899C24.637,27.769,25.229,27.515,25.753,27.167L27.243000000000002,28.657L28.657,27.243000000000002L27.167,25.753C27.515,25.229,27.769,24.637,27.899,24L30,24ZM23,26C21.346,26,20,24.654,20,23C20,21.346,21.346,20,23,20C24.654,20,26,21.346,26,23C26,24.654,24.654,26,23,26Z" fill="#000000" fill-opacity="1"/></g><g><rect x="12" y="6" width="4" height="2" rx="0" fill="#000000" fill-opacity="1"/></g><g><path d="M6,28L6,4L22,4L22,13L24,13L24,4C24,2.8970000000000002,23.103,2,22,2L6,2C4.897,2,4,2.8970000000000002,4,4L4,28C4,29.103,4.897,30,6,30L14,30L14,28L6,28Z" fill="#000000" fill-opacity="1"/></g><g></g></g></svg>