<svg xmlns="http://www.w3.org/2000/svg" xmlns:xlink="http://www.w3.org/1999/xlink" fill="none" version="1.1" width="32" height="32" viewBox="0 0 32 32"><defs><clipPath id="master_svg0_134_20535"><rect x="0" y="0" width="32" height="32" rx="0"/></clipPath></defs><g clip-path="url(#master_svg0_134_20535)"><g><path d="M30,8L25.9,8C25.4,5.7,23.4,4,21,4C18.6,4,16.6,5.7,16.1,8L2,8L2,10L16.1,10C16.6,12.3,18.6,14,21,14C23.4,14,25.4,12.3,25.9,10L30,10L30,8ZM21,12C19.3,12,18,10.7,18,9C18,7.3,19.3,6,21,6C22.7,6,24,7.3,24,9C24,10.7,22.7,12,21,12Z" fill="#000000" fill-opacity="1"/></g><g><path d="M2,24L6.1,24C6.6,26.3,8.6,28,11,28C13.4,28,15.4,26.3,15.9,24L30,24L30,22L15.9,22C15.4,19.7,13.4,18,11,18C8.6,18,6.6,19.7,6.1,22L2,22L2,24ZM11,20C12.7,20,14,21.3,14,23C14,24.7,12.7,26,11,26C9.3,26,8,24.7,8,23C8,21.3,9.3,20,11,20Z" fill="#000000" fill-opacity="1"/></g><g></g></g></svg>