<svg xmlns="http://www.w3.org/2000/svg" xmlns:xlink="http://www.w3.org/1999/xlink" fill="none" version="1.1" width="16" height="16" viewBox="0 0 16 16"><defs><clipPath id="master_svg0_134_08728"><rect x="0" y="0" width="16" height="16" rx="0"/></clipPath></defs><g clip-path="url(#master_svg0_134_08728)"><g><path d="M13.500000047683717,8.4C13.500000047683717,8.3,13.500000047683717,8.1,13.500000047683717,8C13.500000047683717,7.9,13.500000047683717,7.7,13.500000047683717,7.6L14.500000047683717,6.8C14.900000047683715,6.5,14.900000047683715,5.9,14.700000047683716,5.5L13.500000047683717,3.5C13.300000047683715,3.2,13.000000047683717,3,12.600000047683716,3C12.500000047683717,3,12.400000047683715,3,12.300000047683715,3.1L11.100000047683716,3.5C10.900000047683715,3.4,10.700000047683716,3.2,10.400000047683715,3.1L10.100000047683716,1.8C10.100000047683716,1.3,9.700000047683716,1,9.200000047683716,1L6.8000000476837155,1C6.3000000476837155,1,5.900000047683716,1.3,5.8000000476837155,1.8L5.600000047683716,3.1C5.3000000476837155,3.2,5.100000047683716,3.3,4.900000047683716,3.4L3.700000047683716,3C3.6000000476837157,3,3.5000000476837156,3,3.400000047683716,3C3.0000000476837156,3,2.700000047683716,3.2,2.5000000476837156,3.5L1.2999999476837159,5.5C1.1000000476837157,5.9,1.2000000476837158,6.4,1.6000000476837157,6.8L2.5000000476837156,7.7C2.5000000476837156,7.8,2.5000000476837156,8,2.5000000476837156,8.1C2.5000000476837156,8.2,2.5000000476837156,8.4,2.5000000476837156,8.5L1.6000000476837157,9.2C1.2000000476837158,9.5,1.1000000476837157,10.1,1.4000000476837158,10.5L2.6000000476837157,12.5C2.700000047683716,12.8,3.0000000476837156,13,3.400000047683716,13C3.5000000476837156,13,3.6000000476837157,13,3.700000047683716,12.9L4.900000047683716,12.5C5.100000047683716,12.6,5.3000000476837155,12.8,5.600000047683716,12.9L5.900000047683716,14.2C6.000000047683716,14.7,6.400000047683716,15,6.900000047683716,15L9.300000047683715,15C9.800000047683715,15,10.200000047683716,14.7,10.300000047683715,14.2L10.600000047683716,12.9C10.800000047683715,12.8,11.000000047683717,12.7,11.300000047683715,12.5L12.500000047683717,12.9C12.600000047683716,12.9,12.700000047683716,13,12.800000047683715,13C13.200000047683716,13,13.500000047683717,12.8,13.700000047683716,12.5L14.800000047683715,10.5C15.000000047683717,10.1,15.000000047683717,9.6,14.600000047683716,9.2L13.500000047683717,8.4ZM12.600000047683716,12L10.900000047683715,11.4C10.500000047683717,11.7,10.000000047683717,12,9.500000047683717,12.2L9.200000047683716,14L6.8000000476837155,14L6.400000047683716,12.2C5.900000047683716,12,5.500000047683716,11.7,5.000000047683716,11.4L3.400000047683716,12L2.200000047683716,10L3.6000000476837157,8.8C3.5000000476837156,8.3,3.5000000476837156,7.7,3.6000000476837157,7.2L2.200000047683716,6L3.400000047683716,4L5.100000047683716,4.6C5.500000047683716,4.2,6.000000047683716,4,6.500000047683716,3.8L6.8000000476837155,2L9.200000047683716,2L9.600000047683716,3.8C10.100000047683716,4,10.500000047683717,4.3,11.000000047683717,4.6L12.600000047683716,4L13.800000047683715,6L12.400000047683715,7.2C12.500000047683717,7.7,12.500000047683717,8.3,12.400000047683715,8.8L13.800000047683715,10L12.600000047683716,12Z" fill="#000000" fill-opacity="1"/></g><g><path d="M8,11C6.3,11,5,9.7,5,8C5,6.3,6.3,5,8,5C9.7,5,11,6.3,11,8C11,9.6,9.7,11,8,11ZM8,6C6.9,6,6,6.8,6,7.9L6,8C6,9.1,6.8,10,7.9,10L8,10C9.1,10,10,9.2,10,8.1L10,8C10,6.9,9.2,6,8,6Q8.1,6,8,6Z" fill="#000000" fill-opacity="1"/></g><g></g></g></svg>