<svg xmlns="http://www.w3.org/2000/svg" xmlns:xlink="http://www.w3.org/1999/xlink" fill="none" version="1.1" width="32" height="32" viewBox="0 0 32 32"><defs><clipPath id="master_svg0_134_20582"><rect x="0" y="0" width="32" height="32" rx="0"/></clipPath></defs><g clip-path="url(#master_svg0_134_20582)"><g><path d="M28,10L22,10L22,4C21.9986,2.896002,21.104,2.00137806,20,2L4,2C2.896001,2.00137734,2.00137711,2.896001,2,4L2,20C2.00137806,21.104,2.896002,21.9986,4,22L10,22L10,28C10.00138,29.104,10.896,29.9986,12,30L28,30C29.104,29.9986,29.9986,29.104,30,28L30,12C29.9986,10.896,29.104,10.00138,28,10ZM4,20L4,4L20,4L20,10L12,10C10.896,10.00138,10.00138,10.896,10,12L10,20L4,20ZM12,28L12,22L20,22C21.104,21.9986,21.9986,21.104,22,20L22,12L28,12L28,28L12,28Z" fill="#000000" fill-opacity="1"/></g><g></g></g></svg>