<svg xmlns="http://www.w3.org/2000/svg" xmlns:xlink="http://www.w3.org/1999/xlink" fill="none" version="1.1" width="32" height="32" viewBox="0 0 32 32"><defs><clipPath id="master_svg0_134_20709"><rect x="0" y="0" width="32" height="32" rx="0"/></clipPath></defs><g clip-path="url(#master_svg0_134_20709)"><g><path d="M29.81,16L22.81,6.44C22.6277,6.170217,22.3255,6.00605917,22,6L3,6C2.447715,6,2,6.447715,2,7L2,24C2,24.5523,2.447715,25,3,25L5.140000000000001,25C5.6134,26.742,7.19486,27.951,9,27.951C10.80514,27.951,12.3866,26.742,12.86,25L19.14,25C19.6134,26.742,21.1949,27.951,23,27.951C24.8051,27.951,26.3866,26.742,26.86,25L29,25C29.5523,25,30,24.5523,30,24L30,16.560000000000002C29.9946,16.3584,29.9283,16.1632,29.81,16ZM20,8L21.49,8L26.62,15L20,15L20,8ZM4,8L18,8L18,15L4,15L4,8ZM9,26C7.89543,26,7,25.1046,7,24C7,22.8954,7.89543,22,9,22C10.10457,22,11,22.8954,11,24C11,25.1046,10.10457,26,9,26ZM23,26C21.8954,26,21,25.1046,21,24C21,22.8954,21.8954,22,23,22C24.1046,22,25,22.8954,25,24C25,25.1046,24.1046,26,23,26ZM28,23L26.86,23C26.3866,21.258,24.8051,20.049,23,20.049C21.1949,20.049,19.6134,21.258,19.14,23L12.86,23C12.3866,21.258,10.80514,20.049,9,20.049C7.19486,20.049,5.6134,21.258,5.140000000000001,23L4,23L4,17L28,17L28,23Z" fill="#000000" fill-opacity="1"/></g><g></g></g></svg>