<svg xmlns="http://www.w3.org/2000/svg" xmlns:xlink="http://www.w3.org/1999/xlink" fill="none" version="1.1" width="32" height="32" viewBox="0 0 32 32"><defs><clipPath id="master_svg0_134_20762"><rect x="0" y="0" width="32" height="32" rx="0"/></clipPath></defs><g clip-path="url(#master_svg0_134_20762)"><g><path d="M30,30L22,30L22,4L30,4L30,30ZM24,28L28,28L28,6L24,6L24,28Z" fill="#000000" fill-opacity="1"/></g><g><path d="M20,30L12,30L12,12L20,12L20,30ZM14,28L18,28L18,14L14,14L14,28Z" fill="#000000" fill-opacity="1"/></g><g><path d="M10,30L2,30L2,18L10,18L10,30ZM4,28L8,28L8,20L4,20L4,28Z" fill="#000000" fill-opacity="1"/></g><g></g></g></svg>