<svg xmlns="http://www.w3.org/2000/svg" xmlns:xlink="http://www.w3.org/1999/xlink" fill="none" version="1.1" width="32" height="32" viewBox="0 0 32 32"><defs><clipPath id="master_svg0_134_20802"><rect x="0" y="0" width="32" height="32" rx="0"/></clipPath></defs><g clip-path="url(#master_svg0_134_20802)"><g><path d="M22.999976704406738,21.99999973449707C22.830036704406737,21.99989973449707,22.662876704406738,21.95669973449707,22.514196704406736,21.87429973449707L13.514200704406738,16.87429973449707C13.196641704406739,16.69795973449707,12.999676704406738,16.36328973449707,12.999676704406738,16.00004973449707C12.999676704406738,15.63680973449707,13.196641704406739,15.302139734497072,13.514200704406738,15.12579973449707L22.514196704406736,10.12579973449707C23.180676704406736,9.75526173449707,23.999976704406738,10.23732073449707,23.999976704406738,10.99999973449707L23.999976704406738,20.99999973449707C23.999976704406738,21.55229973449707,23.552276704406736,21.99999973449707,22.999976704406738,21.99999973449707ZM16.059096704406738,15.99999973449707L21.99999670440674,19.30059973449707L21.99999670440674,12.69999973449707L16.059096704406738,15.99999973449707Z" fill="#000000" fill-opacity="1"/></g><g transform="matrix(-1,-1.2246468525851679e-16,1.2246468525851679e-16,-1,21.999999999999996,44)"><rect x="11" y="22" width="2" height="12" rx="0" fill="#000000" fill-opacity="1"/></g><g><path d="M16,30C8.26801,30,2,23.732,2,16C2,8.26801,8.26801,2,16,2C23.732,2,30,8.26801,30,16C29.9913,23.7284,23.7284,29.9913,16,30ZM16,4C9.37258,4,4,9.37258,4,16C4,22.6274,9.37258,28,16,28C22.6274,28,28,22.6274,28,16C27.9925,9.37571,22.6243,4.00755,16,4Z" fill="#000000" fill-opacity="1"/></g><g></g></g></svg>