<svg xmlns="http://www.w3.org/2000/svg" xmlns:xlink="http://www.w3.org/1999/xlink" fill="none" version="1.1" width="32" height="32" viewBox="0 0 32 32"><defs><clipPath id="master_svg0_134_20790"><rect x="0" y="0" width="32" height="32" rx="0"/></clipPath></defs><g clip-path="url(#master_svg0_134_20790)"><g><path d="M26.999952005767824,28.000026515960695C26.824852005767823,28.001226515960692,26.652452005767824,27.956426515960693,26.499952005767824,27.870026515960692L7.500000005767822,16.870026515960696C7.186689005767822,16.692426515960694,6.993052005767822,16.360126515960694,6.993052005767822,16.00002651596069C6.993052005767822,15.639826515960694,7.186690005767822,15.307526515960694,7.500000005767822,15.130026515960694L26.499952005767824,4.130001515960694C26.80935200576782,3.951368315960693,27.190552005767824,3.951368315960693,27.499952005767824,4.130001515960694C27.81065200576782,4.309341515960694,28.001452005767824,4.641315515960693,27.999952005767824,4.999996515960693L27.999952005767824,27.000026515960695C27.999952005767824,27.552326515960694,27.552252005767823,28.000026515960695,26.999952005767824,28.000026515960695ZM10.000002005767822,16.00002651596069L25.999952005767824,25.270026515960694L25.999952005767824,6.729996515960693L10.000002005767822,16.00002651596069Z" fill="#000000" fill-opacity="1"/></g><g><rect x="2" y="4" width="2" height="24" rx="0" fill="#000000" fill-opacity="1"/></g><g></g></g></svg>