<svg xmlns="http://www.w3.org/2000/svg" xmlns:xlink="http://www.w3.org/1999/xlink" fill="none" version="1.1" width="32" height="32" viewBox="0 0 32 32"><defs><clipPath id="master_svg0_134_20858"><rect x="0" y="0" width="32" height="32" rx="0"/></clipPath></defs><g clip-path="url(#master_svg0_134_20858)"><g><rect x="21" y="10" width="2" height="12" rx="0" fill="#000000" fill-opacity="1"/></g><g><path d="M8.4927,21.861830252075194C8.187421,21.682130252075197,8,21.354230252075197,8,21.000030252075195L8,11.000000252075196C7.9999012947,10.237379252075195,8.819216,9.755318252075195,9.4858,10.125800252075196L18.485799999999998,15.125800252075194C18.8034,15.302140252075194,19.0003,15.636810252075195,19.0003,16.000050252075194C19.0003,16.363280252075196,18.8034,16.697960252075195,18.485799999999998,16.874300252075194L9.4858,21.874330252075197C9.1759,22.046230252075198,8.798174,22.041530252075198,8.4927,21.861830252075194Z" fill="#000000" fill-opacity="1"/></g><g><path d="M16,30C8.26801,30,2,23.732,2,16C2,8.26801,8.26801,2,16,2C23.732,2,30,8.26801,30,16C29.9913,23.7284,23.7284,29.9913,16,30ZM16,4C9.37258,4,4,9.37258,4,16C4,22.6274,9.37258,28,16,28C22.6274,28,28,22.6274,28,16C27.9925,9.37571,22.6243,4.00755,16,4Z" fill="#000000" fill-opacity="1"/></g><g></g></g></svg>