<svg xmlns="http://www.w3.org/2000/svg" xmlns:xlink="http://www.w3.org/1999/xlink" fill="none" version="1.1" width="32" height="32" viewBox="0 0 32 32"><defs><clipPath id="master_svg0_134_20872"><rect x="0" y="0" width="32" height="32" rx="0"/></clipPath></defs><g clip-path="url(#master_svg0_134_20872)"><g><rect x="6" y="24" width="2" height="2" rx="0" fill="#000000" fill-opacity="1"/></g><g><rect x="8" y="26" width="2" height="2" rx="0" fill="#000000" fill-opacity="1"/></g><g><rect x="10" y="28" width="2" height="2" rx="0" fill="#000000" fill-opacity="1"/></g><g><rect x="10" y="24" width="2" height="2" rx="0" fill="#000000" fill-opacity="1"/></g><g><rect x="6" y="28" width="2" height="2" rx="0" fill="#000000" fill-opacity="1"/></g><g><path d="M21.000001967773436,29.999996408691405C20.256497967773438,30.000046408691407,19.77295696777344,29.217536408691405,20.105599967773436,28.552596408691407L22.10560196777344,24.552101408691406C22.35250196777344,24.057846108691407,22.953431967773437,23.857463408691405,23.447571967773438,24.104612408691406C23.941701967773437,24.351762408691407,24.141791967773436,24.952785408691405,23.894401967773437,25.446796408691405L21.894401967773437,29.446796408691405C21.725471967773437,29.786046408691405,21.378981967773438,30.000356408691406,21.000001967773436,29.999996408691405Z" fill="#000000" fill-opacity="1"/></g><g><path d="M24.80077384338379,9.136195453453064C23.922573843383788,4.976555453453064,20.251873843383787,1.999895453453064,16.000473843383787,1.999895453453064C11.749163843383789,1.9998952150340639,8.078423843383788,4.976555453453064,7.200203843383789,9.136195453453064C3.930923843383789,9.802305453453064,1.697543843383789,12.836295453453063,2.032961143383789,16.155895453453063C2.368377843383789,19.475395453453064,5.163553843383789,22.001395453453064,8.500003843383789,21.999995453453064L17.38177384338379,21.999995453453064L16.105973843383786,24.552695453453065C15.84847384338379,25.048095453453065,16.04657384338379,25.658395453453064,16.54597384338379,25.908195453453065C17.04537384338379,26.157995453453065,17.652473843383788,25.950495453453065,17.89447384338379,25.447295453453062L19.617673843383788,21.999995453453064L23.49997384338379,21.999995453453064C26.83627384338379,22.001395453453064,29.631473843383787,19.475695453453064,29.96707384338379,16.156295453453062C30.30277384338379,12.836895453453064,28.06987384338379,9.802775453453064,24.80077384338379,9.136195453453064ZM23.49997384338379,19.999995453453064L8.500003843383789,19.999995453453064C6.084853843383789,20.000795453453065,4.100273843383789,18.093895453453065,4.004613843383789,15.680595453453064C3.908953843383789,13.267395453453064,5.736373843383789,11.209415453453063,8.14400384338379,11.018995453453064L8.95950384338379,10.955095453453064L9.05860384338379,10.143095453453064C9.48830384338379,6.635655453453064,12.46687384338379,3.999755453453064,16.000473843383787,3.999755453453064C19.53417384338379,3.999755453453064,22.51267384338379,6.635655453453064,22.942373843383788,10.143095453453064L23.04097384338379,10.955095453453064L23.85637384338379,11.018995453453064C26.264073843383787,11.209415453453063,28.091573843383788,13.267495453453064,27.995773843383787,15.680795453453063C27.89997384338379,18.094195453453064,25.91527384338379,20.000995453453065,23.49997384338379,19.999995453453064Z" fill="#000000" fill-opacity="1"/></g><g></g></g></svg>