<svg xmlns="http://www.w3.org/2000/svg" xmlns:xlink="http://www.w3.org/1999/xlink" fill="none" version="1.1" width="32" height="32" viewBox="0 0 32 32"><defs><clipPath id="master_svg0_134_20903"><rect x="0" y="0" width="32" height="32" rx="0"/></clipPath></defs><g clip-path="url(#master_svg0_134_20903)"><g><path d="M27.001002779541015,28.000040633773803C26.685882779541014,28.000540633773802,26.389012779541016,27.852240633773803,26.200202779541016,27.600040633773805L25.385702779541017,26.514040633773803C23.823243779541016,24.431440633773803,23.239490779541015,21.774140633773804,23.785197779541015,19.228440633773804L25.258802779541014,12.352200633773803C25.683712779541015,10.372160633773804,25.229732779541017,8.305140633773803,24.014202779541016,6.685400633773804L23.200000779541014,5.600000633773804C22.868631779541015,5.158170633773803,22.958173779541017,4.531370633773804,23.400001779541014,4.199999633773803C23.841829779541015,3.868628633773804,24.468632779541014,3.958171833773804,24.800002779541014,4.399999633773803L25.614502779541017,5.485700633773804C27.176952779541015,7.568290633773804,27.760712779541016,10.225580633773804,27.215002779541017,12.771300633773803L25.741402779541016,19.647540633773804C25.316482779541015,21.627540633773805,25.770462779541017,23.694540633773805,26.986002779541018,25.314340633773803L27.800002779541018,26.400040633773802C28.027152779541016,26.702840633773803,28.063792779541018,27.108040633773804,27.894652779541016,27.446740633773803C27.725512779541017,27.785440633773803,27.379592779541014,27.999640633773804,27.001002779541015,28.000040633773803Z" fill="#000000" fill-opacity="1"/></g><g><path d="M22.00100087219238,28.000040395355224C21.68589087219238,28.000540395355223,21.389010872192383,27.852240395355224,21.200200872192383,27.600040395355226L20.385700872192384,26.514040395355224C18.823241872192384,24.431440395355224,18.239488872192382,21.774140395355225,18.785197872192384,19.228440395355225L20.25880087219238,12.352200395355224C20.683710872192382,10.372160395355225,20.229730872192384,8.305140395355224,19.014200872192383,6.685400395355225L18.200000872192383,5.600000395355225C17.868629872192383,5.158170395355224,17.958171872192384,4.531370395355225,18.39999987219238,4.199999395355224C18.841827872192383,3.8686283953552247,19.46863087219238,3.9581713953552247,19.80000087219238,4.399999395355224L20.614500872192384,5.485700395355225C22.17696087219238,7.568290395355225,22.760710872192384,10.225580395355225,22.215000872192384,12.771300395355224L20.741400872192383,19.647540395355225C20.316490872192382,21.627540395355226,20.770460872192384,23.694540395355226,21.986000872192385,25.314340395355224L22.800000872192385,26.400040395355223C23.027150872192383,26.702840395355224,23.063790872192385,27.108040395355225,22.894650872192383,27.446740395355224C22.725510872192384,27.785440395355224,22.37959087219238,27.999640395355225,22.00100087219238,28.000040395355224Z" fill="#000000" fill-opacity="1"/></g><g><path d="M17.000996432800292,28.00002265281677C16.68588643280029,28.000522652816773,16.389016432800293,27.852322652816774,16.200196432800293,27.600022652816772L15.385696432800293,26.514022652816774C13.823244432800292,24.43142265281677,13.239490432800293,21.77412265281677,13.785199432800294,19.228422652816775L15.258796432800294,12.352202652816773C15.683716432800292,10.372162652816773,15.229736432800292,8.305142652816773,14.014196432800293,6.685402652816773L13.199999432800293,5.600002652816773C12.868105432800293,5.158182652816772,12.957466132800294,4.530934652816772,13.399535432800294,4.199382652816772C13.841605432800293,3.8678296528167726,14.468786432800293,3.9576745528167723,14.799996432800294,4.399999652816772L15.614496432800292,5.485702652816773C17.176956432800292,7.568292652816773,17.760706432800294,10.225582652816772,17.21499643280029,12.771302652816772L15.741396432800293,19.64752265281677C15.316486432800293,21.627522652816772,15.770466432800292,23.694522652816772,16.98599643280029,25.314322652816774L17.79999643280029,26.400022652816773C18.027156432800293,26.702922652816774,18.063796432800295,27.10802265281677,17.894646432800293,27.44672265281677C17.725506432800294,27.785522652816773,17.379586432800295,27.99962265281677,17.000996432800292,28.00002265281677Z" fill="#000000" fill-opacity="1"/></g><g><path d="M12.00100134902954,28.00004111061096C11.685891349029541,28.00054111061096,11.389011349029541,27.85224111061096,11.200201349029541,27.600041110610963L10.38570134902954,26.51404111061096C8.82324434902954,24.43144111061096,8.23949134902954,21.774141110610962,8.785200349029541,19.228441110610962L10.258801349029541,12.352201110610961C10.683681349029541,10.372191110610963,10.229711349029541,8.305221110610962,9.014201349029541,6.6855011106109625L8.199999349029541,5.600001110610962C7.868629349029541,5.158171110610962,7.958172749029541,4.531371110610962,8.400000349029542,4.2000001106109615C8.84182834902954,3.868629110610962,9.468631349029542,3.958172310610962,9.800001349029541,4.400000110610962L10.614501349029542,5.485701110610962C12.17695134902954,7.5682911106109625,12.760711349029542,10.225581110610962,12.215001349029542,12.771301110610962L10.741401349029541,19.647541110610963C10.31648134902954,21.627541110610963,10.77046134902954,23.694541110610963,11.986001349029541,25.31434111061096L12.800001349029541,26.40004111061096C13.027151349029541,26.70284111061096,13.063791349029541,27.108041110610962,12.894651349029541,27.44674111061096C12.725511349029542,27.78544111061096,12.37959134902954,27.999641110610963,12.00100134902954,28.00004111061096Z" fill="#000000" fill-opacity="1"/></g><g><path d="M7.001001110610962,28.00004111061096C6.685821110610962,28.00064111061096,6.3888611106109625,27.85234111061096,6.2000011106109625,27.600041110610963L5.385501110610962,26.51404111061096C3.823219110610962,24.431341110610962,3.2396491106109617,21.774041110610963,3.785500110610962,19.228441110610962L5.2591011106109615,12.352201110610961C5.683901110610962,10.372151110610961,5.229811110610962,8.305171110610962,4.014201110610962,6.6855011106109625L3.200000110610962,5.600001110610962C2.868629110610962,5.158171110610962,2.958172310610962,4.531371110610962,3.400000110610962,4.2000001106109615C3.8418281106109617,3.868629110610962,4.468631110610962,3.958172310610962,4.800001110610962,4.400000110610962L5.614501110610962,5.485701110610962C7.176951110610962,7.5682911106109625,7.760711110610962,10.225581110610962,7.215001110610962,12.771301110610962L5.741201110610962,19.647441110610963C5.316281110610962,21.627441110610963,5.770261110610962,23.694441110610963,6.9858011106109625,25.31424111061096L7.800001110610962,26.40004111061096C8.027161110610962,26.70284111061096,8.063791110610962,27.108041110610962,7.894651110610962,27.44674111061096C7.725511110610962,27.78544111061096,7.379591110610962,27.999641110610963,7.001001110610962,28.00004111061096Z" fill="#000000" fill-opacity="1"/></g><g></g></g></svg>