<svg xmlns="http://www.w3.org/2000/svg" xmlns:xlink="http://www.w3.org/1999/xlink" fill="none" version="1.1" width="32" height="32" viewBox="0 0 32 32"><defs><clipPath id="master_svg0_134_21065"><rect x="0" y="0" width="32" height="32" rx="0"/></clipPath></defs><g clip-path="url(#master_svg0_134_21065)"><g transform="matrix(0.707099974155426,-0.707099974155426,0.707099974155426,0.707099974155426,-5.250700141885318,7.889835439040326)"><rect x="6.8984375" y="10.283203125" width="4.800000190734863" height="2" rx="0" fill="#000000" fill-opacity="1"/></g><g><path d="M4.9,19.700000190734862L2.6,17.400000190734865C2.2,17.000000190734863,2,16.500000190734863,2,16.000000190734863C2,15.500000190734863,2.2,15.000000190734863,2.6,14.600000190734864L4.9,12.300000190734863L6.3,13.700000190734864L4,16.000000190734863L6.3,18.300000190734863L4.9,19.700000190734862Z" fill="#000000" fill-opacity="1"/></g><g transform="matrix(0.707099974155426,-0.707099974155426,0.707099974155426,0.707099974155426,-13.331277556848363,11.229142350741313)"><rect x="6.888916015625" y="21.70703125" width="2" height="4.800000190734863" rx="0" fill="#000000" fill-opacity="1"/></g><g><path d="M16.000000190734863,30.000000762939454C15.500000190734863,30.000000762939454,15.000000190734863,29.800000762939455,14.600000190734864,29.400000762939452L12.300000190734863,27.10000076293945L13.700000190734864,25.700000762939453L16.000000190734863,28.000000762939454L18.300000190734863,25.700000762939453L19.700000190734862,27.10000076293945L17.400000190734865,29.400000762939452C17.000000190734863,29.800000762939455,16.500000190734863,30.000000762939454,16.000000190734863,30.000000762939454Z" fill="#000000" fill-opacity="1"/></g><g transform="matrix(0.707099974155426,-0.707099974155426,0.707099974155426,0.707099974155426,-10.812322593585122,21.289599111420102)"><rect x="20.29248046875" y="23.69677734375" width="4.800000190734863" height="2" rx="0" fill="#000000" fill-opacity="1"/></g><g><path d="M27.10000076293945,19.700000190734862L25.700000762939453,18.300000190734863L28.000000762939454,16.000000190734863L25.700000762939453,13.700000190734864L27.10000076293945,12.300000190734863L29.400000762939452,14.600000190734864C29.800000762939455,15.000000190734863,30.000000762939454,15.500000190734863,30.000000762939454,16.000000190734863C30.000000762939454,16.500000190734863,29.800000762939455,17.000000190734863,29.400000762939452,17.400000190734865L27.10000076293945,19.700000190734862Z" fill="#000000" fill-opacity="1"/></g><g transform="matrix(0.707099974155426,-0.707099974155426,0.707099974155426,0.707099974155426,0.06855762432678603,16.790937434270745)"><rect x="20.302734375" y="8.31298828125" width="2" height="4.800000190734863" rx="0" fill="#000000" fill-opacity="1"/></g><g><path d="M16.000000190734863,2C15.500000190734863,2,15.000000190734863,2.2,14.600000190734864,2.6L12.300000190734863,4.9L13.700000190734864,6.3L16.000000190734863,4L18.300000190734863,6.3L19.700000190734862,4.9L17.400000190734865,2.6C17.000000190734863,2.2,16.500000190734863,2,16.000000190734863,2Z" fill="#000000" fill-opacity="1"/></g><g></g></g></svg>