<svg xmlns="http://www.w3.org/2000/svg" xmlns:xlink="http://www.w3.org/1999/xlink" fill="none" version="1.1" width="32" height="32" viewBox="0 0 32 32"><defs><clipPath id="master_svg0_134_21128"><rect x="0" y="0" width="32" height="32" rx="0"/></clipPath></defs><g clip-path="url(#master_svg0_134_21128)"><g><path d="M24.999997089233396,30C22.8496570892334,30.0062,20.937530089233398,28.6332,20.2561660892334,26.5937C19.574802089233398,24.5541,20.277698089233397,22.307499999999997,21.9999970892334,21.02L21.9999970892334,15C21.9999970892334,13.34315,23.343147089233398,12,24.999997089233396,12C26.656857089233398,12,27.999997089233396,13.34315,27.999997089233396,15L27.999997089233396,21.02C29.722307089233396,22.307499999999997,30.425207089233396,24.5541,29.7438370892334,26.5937C29.0624670892334,28.6332,27.1503470892334,30.0062,24.999997089233396,30ZM24.999997089233396,14C24.447967089233398,14.00061,24.000607089233398,14.44797,23.999997089233396,15L23.999997089233396,22.130000000000003L23.5028970892334,22.4193C22.5739570892334,22.9466,21.9999970892334,23.9322,21.9999970892334,25C21.9999970892334,26.6569,23.343147089233398,28,24.999997089233396,28C26.656857089233398,28,27.999997089233396,26.6569,27.999997089233396,25C28.0000570892334,23.9319,27.4260770892334,22.9461,26.4970970892334,22.4189L25.999997089233396,22.130000000000003L25.999997089233396,15C25.999397089233398,14.44797,25.552037089233398,14.00061,24.999997089233396,14Z" fill="#000000" fill-opacity="1"/></g><g><path d="M15.999997493591309,23.999999627685547L13.999999999991308,23.999999627685547C13.98694419359131,20.694169627685547,15.350797493591308,17.532139627685545,17.764197493591308,15.272899627685547L19.13719749359131,16.727099627685547C17.125887493591307,18.609859627685548,15.989207493591309,21.24498962768555,15.999997493591309,23.999999627685547Z" fill="#000000" fill-opacity="1"/></g><g><path d="M11,24L9,24C9.0105801,14.61554,16.61554,7.0105796,26,7L30,7L30,9L26,9C17.71961,9.00937,11.00937,15.71961,11,24Z" fill="#000000" fill-opacity="1"/></g><g><path d="M26,2.000000000002573C21.7367,1.9963016485125733,17.5653,3.2391911785125735,13.9993,5.575701178512573C10.43383,3.239111178512573,6.26289,1.9961982985125732,2,2.000000000002573L2,4.000001178512573C5.61491,3.994081178512573,9.16297,4.974261178512574,12.2622,6.835001178512573C11.44065,7.493741178512574,10.66712,8.210221178512572,9.9475,8.979001178512572C7.49919,7.681541178512573,4.770849999999999,7.002161178512573,2,7.000001178512573L2,9.000001178512573C4.2948,8.999631178512573,6.55916,9.525291178512573,8.6191,10.536601178512573C7.994,11.341991178512574,7.42544,12.189691178512573,6.9175,13.073691178512574C5.3723600000000005,12.373091178512574,3.69653,12.007191178512572,2,11.999991178512573L2,13.999991178512573C3.37829,14.001491178512573,4.74103,14.291191178512573,6.0007,14.850591178512573C4.68067,17.720091178512575,3.99811,20.841491178512573,4,23.999991178512573L6,23.999991178512573C6.01246,12.959491178512573,14.9595,4.012451178512573,26,4.000001178512573L30,4.000001178512573L30,2.000000000002573L26,2.000000000002573Z" fill="#000000" fill-opacity="1"/></g><g></g></g></svg>