<svg xmlns="http://www.w3.org/2000/svg" xmlns:xlink="http://www.w3.org/1999/xlink" fill="none" version="1.1" width="32" height="32" viewBox="0 0 32 32"><defs><clipPath id="master_svg0_134_21077"><rect x="0" y="0" width="32" height="32" rx="0"/></clipPath></defs><g clip-path="url(#master_svg0_134_21077)"><g><path d="M24.5,27.999959399414063C21.53369,28.064259399414063,19.0742359,25.71705939941406,19,22.750999399414063C19.0208588,21.744229399414063,19.32366,20.763489399414063,19.874001,19.920199399414063L23.490000000000002,14.538299399414063C23.97225,13.820913399414062,25.02775,13.820913399414062,25.509999999999998,14.538299399414063L29.060000000000002,19.815399399414062C29.647100000000002,20.684139399414065,29.973300000000002,21.70279939941406,30,22.750999399414063C29.925800000000002,25.71705939941406,27.46631,28.064259399414063,24.5,27.999959399414063ZM24.5,16.619999399414063L21.5644,20.987199399414063C21.21469,21.51061939941406,21.01912,22.121789399414062,21,22.750999399414063C21.13848,24.58155939941406,22.66419,25.996259399414065,24.5,25.996259399414065C26.335810000000002,25.996259399414065,27.86152,24.58155939941406,28,22.750999399414063C27.9768,22.080499399414062,27.75779,21.431469399414063,27.369999999999997,20.883999399414062L24.5,16.619999399414063Z" fill="#000000" fill-opacity="1"/></g><g><ellipse cx="5" cy="13" rx="1" ry="1" fill="#000000" fill-opacity="1"/></g><g><ellipse cx="11" cy="19" rx="1" ry="1" fill="#000000" fill-opacity="1"/></g><g><ellipse cx="15" cy="25" rx="1" ry="1" fill="#000000" fill-opacity="1"/></g><g><ellipse cx="17" cy="15" rx="1" ry="1" fill="#000000" fill-opacity="1"/></g><g><ellipse cx="13" cy="11" rx="1" ry="1" fill="#000000" fill-opacity="1"/></g><g><ellipse cx="27" cy="11" rx="1" ry="1" fill="#000000" fill-opacity="1"/></g><g><ellipse cx="9" cy="27" rx="1" ry="1" fill="#000000" fill-opacity="1"/></g><g><ellipse cx="3" cy="21" rx="1" ry="1" fill="#000000" fill-opacity="1"/></g><g><rect x="2" y="6" width="28" height="2" rx="0" fill="#000000" fill-opacity="1"/></g><g></g></g></svg>