<svg xmlns="http://www.w3.org/2000/svg" xmlns:xlink="http://www.w3.org/1999/xlink" fill="none" version="1.1" width="32" height="32" viewBox="0 0 32 32"><defs><clipPath id="master_svg0_134_21107"><rect x="0" y="0" width="32" height="32" rx="0"/></clipPath></defs><g clip-path="url(#master_svg0_134_21107)"><g><ellipse cx="5" cy="13" rx="1" ry="1" fill="#000000" fill-opacity="1"/></g><g><ellipse cx="11" cy="19" rx="1" ry="1" fill="#000000" fill-opacity="1"/></g><g><ellipse cx="15" cy="25" rx="1" ry="1" fill="#000000" fill-opacity="1"/></g><g><ellipse cx="17" cy="15" rx="1" ry="1" fill="#000000" fill-opacity="1"/></g><g><ellipse cx="13" cy="11" rx="1" ry="1" fill="#000000" fill-opacity="1"/></g><g><ellipse cx="9" cy="27" rx="1" ry="1" fill="#000000" fill-opacity="1"/></g><g><ellipse cx="3" cy="21" rx="1" ry="1" fill="#000000" fill-opacity="1"/></g><g><path d="M24.999997089233396,30C22.8496570892334,30.0062,20.937530089233398,28.6332,20.2561660892334,26.5937C19.574802089233398,24.5541,20.277698089233397,22.307499999999997,21.9999970892334,21.02L21.9999970892334,15C21.9999970892334,13.34315,23.343147089233398,12,24.999997089233396,12C26.656857089233398,12,27.999997089233396,13.34315,27.999997089233396,15L27.999997089233396,21.02C29.722307089233396,22.307499999999997,30.425207089233396,24.5541,29.7438370892334,26.5937C29.0624670892334,28.6332,27.1503470892334,30.0062,24.999997089233396,30ZM24.999997089233396,14C24.447967089233398,14.00061,24.000607089233398,14.44797,23.999997089233396,15L23.999997089233396,22.130000000000003L23.5028970892334,22.4193C22.5739570892334,22.9466,21.9999970892334,23.9322,21.9999970892334,25C21.9999970892334,26.6569,23.343147089233398,28,24.999997089233396,28C26.656857089233398,28,27.999997089233396,26.6569,27.999997089233396,25C28.0000570892334,23.9319,27.4260770892334,22.9461,26.4970970892334,22.4189L25.999997089233396,22.130000000000003L25.999997089233396,15C25.999397089233398,14.44797,25.552037089233398,14.00061,24.999997089233396,14Z" fill="#000000" fill-opacity="1"/></g><g><rect x="2" y="6" width="28" height="2" rx="0" fill="#000000" fill-opacity="1"/></g><g></g></g></svg>