<svg xmlns="http://www.w3.org/2000/svg" xmlns:xlink="http://www.w3.org/1999/xlink" fill="none" version="1.1" width="32" height="32" viewBox="0 0 32 32"><defs><clipPath id="master_svg0_134_21099"><rect x="0" y="0" width="32" height="32" rx="0"/></clipPath></defs><g clip-path="url(#master_svg0_134_21099)"><g><path d="M25.000001009521483,30.00000762939453C23.209691009521485,30.10060762939453,21.516171009521486,29.18120762939453,20.625332009521486,27.62500762939453C19.734491009521484,26.06879762939453,19.799206009521484,24.142877629394533,20.792500009521483,22.64999762939453L24.161201009521484,17.455798629394533C24.555421009521485,16.848075629394533,25.444881009521485,16.848075629394533,25.839101009521485,17.455798629394533L29.154301009521483,22.56579762939453C29.683751009521487,23.352837629394532,29.977171009521484,24.27482762939453,29.999991009521484,25.22309762939453C29.933931009521487,27.92090762939453,27.698051009521485,30.05710762939453,25.000001009521483,30.00000762939453ZM25.000001009521483,19.83709762939453L22.492201009521484,23.70329762939453C21.614941009521484,25.35697762939453,22.494441009521484,27.39770762939453,24.298961009521484,27.89570762939453C26.103481009521484,28.39360762939453,27.905071009521485,27.09260762939453,28.000001009521483,25.22309762939453C27.978421009521483,24.647227629394532,27.789221009521484,24.09018762939453,27.455601009521484,23.620297629394532L25.000001009521483,19.83709762939453Z" fill="#000000" fill-opacity="1"/></g><g><path d="M11,24L9,24C9.0105801,14.61554,16.61554,7.0105796,26,7L30,7L30,9L26,9C17.71961,9.00937,11.00937,15.71961,11,24Z" fill="#000000" fill-opacity="1"/></g><g><path d="M16,24L14,24C14.00754833,17.375709999999998,19.375709999999998,12.00754833,26,12L30,12L30,14L26,14C20.47973,14.00623,16.00623,18.47973,16,24Z" fill="#000000" fill-opacity="1"/></g><g><path d="M26,2.000000000002573C21.7367,1.9963016485125733,17.5653,3.2391911785125735,13.9993,5.575701178512573C10.43383,3.239111178512573,6.26289,1.9961982985125732,2,2.000000000002573L2,4.000001178512573C5.61491,3.994081178512573,9.16297,4.974261178512574,12.2622,6.835001178512573C11.44065,7.493741178512574,10.66712,8.210221178512572,9.9475,8.979001178512572C7.49919,7.681541178512573,4.770849999999999,7.002161178512573,2,7.000001178512573L2,9.000001178512573C4.2948,8.999631178512573,6.55916,9.525291178512573,8.6191,10.536601178512573C7.994,11.341991178512574,7.42544,12.189691178512573,6.9175,13.073691178512574C5.3723600000000005,12.373091178512574,3.69653,12.007191178512572,2,11.999991178512573L2,13.999991178512573C3.37829,14.001491178512573,4.74103,14.291191178512573,6.0007,14.850591178512573C4.68067,17.720091178512575,3.99811,20.841491178512573,4,23.999991178512573L6,23.999991178512573C6.01246,12.959491178512573,14.9595,4.012451178512573,26,4.000001178512573L30,4.000001178512573L30,2.000000000002573L26,2.000000000002573Z" fill="#000000" fill-opacity="1"/></g><g></g></g></svg>