<svg xmlns="http://www.w3.org/2000/svg" xmlns:xlink="http://www.w3.org/1999/xlink" fill="none" version="1.1" width="32" height="32" viewBox="0 0 32 32"><defs><clipPath id="master_svg0_134_24942"><rect x="0" y="0" width="32" height="32" rx="0"/></clipPath></defs><g clip-path="url(#master_svg0_134_24942)"><g><path d="M27.999992207717895,16C27.990492207717896,9.765609999999999,23.212292207717894,4.575089999999999,16.999992207717895,4.050800000000001L16.999992207717895,2L14.999992207717895,2L14.999992207717895,4.050800000000001C8.782502207717895,4.56503,3.9982922077178955,9.76128,3.9982922077178955,16C3.9982914924618953,22.2387,8.782502207717895,27.435,14.999992207717895,27.9492L14.999992207717895,30L16.999992207717895,30L16.999992207717895,27.9492C23.212292207717894,27.4249,27.990492207717896,22.2344,27.999992207717895,16ZM15.999992207717895,26L15.999992207717895,6C21.522892207717895,6,25.999992207717895,10.47715,25.999992207717895,16C25.999992207717895,21.5228,21.522892207717895,26,15.999992207717895,26Z" fill="#000000" fill-opacity="1"/></g><g></g></g></svg>