<svg xmlns="http://www.w3.org/2000/svg" xmlns:xlink="http://www.w3.org/1999/xlink" fill="none" version="1.1" width="32" height="32" viewBox="0 0 32 32"><defs><clipPath id="master_svg0_134_21254"><rect x="0" y="0" width="32" height="32" rx="0"/></clipPath></defs><g clip-path="url(#master_svg0_134_21254)"><g><rect x="18" y="26" width="8" height="2" rx="0" fill="#000000" fill-opacity="1"/></g><g><rect x="18" y="22" width="12" height="2" rx="0" fill="#000000" fill-opacity="1"/></g><g><rect x="18" y="18" width="12" height="2" rx="0" fill="#000000" fill-opacity="1"/></g><g><path d="M20.54899997138977,11.217L15.999999971389771,2L11.45099997138977,11.217L1.2799999713897705,12.695L8.63999997138977,19.87L6.90199997138977,30L13.999999971389771,26.269L13.999999971389771,24.009L9.55899997138977,26.344L10.61099997138977,20.208L10.78899997138977,19.171L10.03599997138977,18.438L5.5779999713897706,14.091L11.73899997138977,13.196L12.778999971389771,13.045L13.24499997138977,12.102L15.999999971389771,6.519L18.754999971389772,12.102L19.22099997138977,13.045L20.260999971389772,13.196L27.71499997138977,14.281L27.99999997138977,12.3L20.54899997138977,11.217Z" fill="#000000" fill-opacity="1"/></g><g></g></g></svg>