<svg xmlns="http://www.w3.org/2000/svg" xmlns:xlink="http://www.w3.org/1999/xlink" fill="none" version="1.1" width="16" height="16" viewBox="0 0 16 16"><defs><clipPath id="master_svg0_134_08754"><rect x="0" y="0" width="16" height="16" rx="0"/></clipPath></defs><g clip-path="url(#master_svg0_134_08754)"><g><path d="M8,1C4.1,1,1,4.1,1,8C1,11.9,4.1,15,8,15C11.9,15,15,11.9,15,8C15,4.1,11.9,1,8,1ZM11,10C11,10.6,10.6,11,10,11L6,11C5.4,11,5,10.6,5,10L5,6C5,5.4,5.4,5,6,5L10,5C10.6,5,11,5.4,11,6L11,10Z" fill="#000000" fill-opacity="1"/></g><g></g></g></svg>