<svg xmlns="http://www.w3.org/2000/svg" xmlns:xlink="http://www.w3.org/1999/xlink" fill="none" version="1.1" width="32" height="32" viewBox="0 0 32 32"><defs><clipPath id="master_svg0_134_21332"><rect x="0" y="0" width="32" height="32" rx="0"/></clipPath></defs><g clip-path="url(#master_svg0_134_21332)"><g><path d="M4,21L2,21L2,24C2.00324035,25.10323,2.896776,25.996760000000002,4,26L7,26L7,24L4,24L4,21Z" fill="#000000" fill-opacity="1"/></g><g><path d="M4,8L7,8L7,6L4,6C2.896775,6.00323963,2.00323963,6.896775,2,8L2,11L4,11L4,8Z" fill="#000000" fill-opacity="1"/></g><g><rect x="17" y="6" width="6" height="2" rx="0" fill="#000000" fill-opacity="1"/></g><g><rect x="9" y="6" width="6" height="2" rx="0" fill="#000000" fill-opacity="1"/></g><g><rect x="17" y="24" width="6" height="2" rx="0" fill="#000000" fill-opacity="1"/></g><g><path d="M28,15L4,15L4,13L2,13L2,19L4,19L4,17L28,17L28,19L30,19L30,13L28,13L28,15Z" fill="#000000" fill-opacity="1"/></g><g><path d="M28,24L25,24L25,26L28,26C29.10322,25.996760000000002,29.996760000000002,25.10322,30,24L30,21L28,21L28,24Z" fill="#000000" fill-opacity="1"/></g><g><path d="M28,6L25,6L25,8L28,8L28,11L30,11L30,8C29.996760000000002,6.896775,29.10322,6.00324059,28,6Z" fill="#000000" fill-opacity="1"/></g><g><rect x="9" y="24" width="6" height="2" rx="0" fill="#000000" fill-opacity="1"/></g><g><ellipse cx="7" cy="12" rx="1" ry="1" fill="#000000" fill-opacity="1"/></g><g><ellipse cx="7" cy="20" rx="1" ry="1" fill="#000000" fill-opacity="1"/></g><g></g></g></svg>