<svg xmlns="http://www.w3.org/2000/svg" xmlns:xlink="http://www.w3.org/1999/xlink" fill="none" version="1.1" width="32" height="32" viewBox="0 0 32 32"><defs><clipPath id="master_svg0_134_21347"><rect x="0" y="0" width="32" height="32" rx="0"/></clipPath></defs><g clip-path="url(#master_svg0_134_21347)"><g><path d="M29.999994631576538,10.679998616333009L27.999994631576538,4.6800006163330075C27.856994631576537,4.254629616333008,27.448194631576538,3.9766085163330076,26.999994631576538,3.999999996333008L5.000004631576538,3.999999996333008C4.551844631576538,3.9766087163330077,4.1429946315765385,4.254629616333008,4.000004631576538,4.679999616333008L2.0000000315765383,10.679998616333009C1.985592841576538,10.786178616333007,1.985592841576538,10.893818616333007,2.0000000315765383,10.999998616333007L2.0000000315765383,17.000028616333008C2.0000000315765383,17.552328616333007,2.4477156315765383,18.000028616333008,3.0000046315765383,18.000028616333008L4.000004631576538,18.000028616333008L4.000004631576538,28.000028616333008L6.000004631576538,28.000028616333008L6.000004631576538,18.000028616333008L11.999994631576538,18.000028616333008L11.999994631576538,28.000028616333008L27.999994631576538,28.000028616333008L27.999994631576538,18.000028616333008L28.999994631576538,18.000028616333008C29.552294631576537,18.000028616333008,29.999994631576538,17.552328616333007,29.999994631576538,17.000028616333008L29.999994631576538,10.999998616333007C30.01439463157654,10.893818616333007,30.01439463157654,10.786178616333007,29.999994631576538,10.679998616333009ZM25.999994631576538,26.000028616333008L13.999994631576538,26.000028616333008L13.999994631576538,18.000028616333008L25.999994631576538,18.000028616333008L25.999994631576538,26.000028616333008ZM27.999994631576538,16.000028616333008L23.999994631576538,16.000028616333008L23.999994631576538,11.999998616333007L21.999994631576538,11.999998616333007L21.999994631576538,16.000028616333008L16.999994631576538,16.000028616333008L16.999994631576538,11.999998616333007L14.999994631576538,11.999998616333007L14.999994631576538,16.000028616333008L10.000004631576537,16.000028616333008L10.000004631576537,11.999998616333007L8.000004631576537,11.999998616333007L8.000004631576537,16.000028616333008L4.000004631576538,16.000028616333008L4.000004631576538,11.159998616333008L5.720004631576538,5.9999986163330075L26.27999463157654,5.9999986163330075L27.999994631576538,11.159998616333008L27.999994631576538,16.000028616333008Z" fill="#000000" fill-opacity="1"/></g><g></g></g></svg>