<svg xmlns="http://www.w3.org/2000/svg" xmlns:xlink="http://www.w3.org/1999/xlink" fill="none" version="1.1" width="32" height="32" viewBox="0 0 32 32"><defs><clipPath id="master_svg0_134_21357"><rect x="0" y="0" width="32" height="32" rx="0"/></clipPath></defs><g clip-path="url(#master_svg0_134_21357)"><g><rect x="9" y="10" width="2" height="2" rx="0" fill="#000000" fill-opacity="1"/></g><g><rect x="9" y="14" width="2" height="2" rx="0" fill="#000000" fill-opacity="1"/></g><g><rect x="13" y="12" width="2" height="2" rx="0" fill="#000000" fill-opacity="1"/></g><g><path d="M9.00000006942749,28.00003219566345C8.750990069427491,27.99993219566345,8.502310069427491,27.981932195663454,8.25590006942749,27.946032195663452C5.77935006942749,27.53323219566345,3.9729413694274904,25.377432195663452,4.00000000042749,22.866932195663452L4.00000000042749,11.198502195663451C3.9722087694274903,7.5518621956634515,6.689110069427491,4.466689195663452,10.31000006942749,4.033199795663452C11.87635006942749,3.8749441956634523,13.45009006942749,4.252348195663452,14.77430006942749,5.103802195663452L22.74310006942749,10.084502195663452C24.889200069427492,11.43781219566345,26.13200006942749,13.849112195663452,25.98890006942749,16.382232195663452C25.84580006942749,18.915432195663453,24.33950006942749,21.171432195663453,22.05460006942749,22.27453219566345L11.174600069427491,27.50303219566345C10.49668006942749,27.831032195663454,9.753140069427491,28.001032195663452,9.00000006942749,28.00003219566345ZM11.00200006942749,6.000002195663452Q10.75360006942749,6.000002195663452,10.50150006942749,6.024102195663453C7.90286006942749,6.3520421956634525,5.96509006942749,8.579482195663452,6.00000006942749,11.198502195663451L6.00000006942749,22.866932195663452C5.96862006942749,24.38563219566345,7.047880069427491,25.70103219566345,8.543500069427491,25.966932195663453C9.14417006942749,26.057432195663452,9.75819006942749,25.96513219566345,10.305700069427491,25.702032195663453L21.18850006942749,20.472032195663452C22.81730006942749,19.683932195663452,23.89070006942749,18.07453219566345,23.99220006942749,16.26793219566345C24.09370006942749,14.461332195663452,23.20750006942749,12.741782195663452,21.67720006942749,11.776202195663451L13.70460006942749,6.793502195663452C12.89913006942749,6.273852195663452,11.96055006942749,5.998272195663452,11.00200006942749,6.000002195663452Z" fill="#000000" fill-opacity="1"/></g><g><path d="M26,7L22,7C19.79189,6.99752,18.00247955,5.20811,18,3L18,2L20,2L20,3C20.00116,4.104089999999999,20.89591,4.9988399999999995,22,5L26,5L26,7Z" fill="#000000" fill-opacity="1"/></g><g></g></g></svg>