<svg xmlns="http://www.w3.org/2000/svg" xmlns:xlink="http://www.w3.org/1999/xlink" fill="none" version="1.1" width="32" height="32" viewBox="0 0 32 32"><defs><clipPath id="master_svg0_134_25058"><rect x="0" y="0" width="32" height="32" rx="0"/></clipPath></defs><g clip-path="url(#master_svg0_134_25058)"><g><path d="M29.474124351882935,19.120026262283325L23.680724351882933,16.000026262283328L29.474124351882935,12.879996262283326C29.797924351882934,12.705546262283326,29.999724351882936,12.367436262283325,29.999724351882936,11.999646262283326C29.999724351882936,11.631856262283325,29.797924351882934,11.293756262283324,29.474124351882935,11.119296262283324L16.474124351882935,4.119300262283325C16.178224351882935,3.959601662283325,15.821824351882935,3.959601662283325,15.525924351882935,4.119300262283325L2.5259003518829344,11.119296262283324C2.2021153518829344,11.293756262283324,2.0002243518829346,11.631856262283325,2.0002243518829346,11.999646262283326C2.0002243518829346,12.367446262283325,2.2021153518829344,12.705546262283326,2.5259003518829344,12.879996262283326L8.319304351882934,16.000026262283328L2.5259003518829344,19.120026262283325C2.2021153518829344,19.294426262283324,2.0002243518829346,19.632526262283324,2.0002243518829346,20.000326262283327C2.0002243518829346,20.368126262283326,2.2021153518829344,20.706226262283327,2.5259003518829344,20.880726262283325L15.525924351882935,27.880726262283325C15.821824351882935,28.040126262283326,16.178124351882936,28.040126262283326,16.474124351882935,27.880726262283325L29.474124351882935,20.880726262283325C29.797924351882934,20.706226262283327,29.999724351882936,20.368126262283326,29.999724351882936,20.000326262283327C29.999724351882936,19.632526262283324,29.797924351882934,19.294426262283324,29.474124351882935,19.120026262283325ZM16.000024351882935,6.135896262283325L26.890624351882934,11.999996262283325L16.000024351882935,17.864326262283328L5.109404351882935,11.999996262283325L16.000024351882935,6.135896262283325ZM16.000024351882935,25.864326262283324L5.109404351882935,20.000026262283324L10.428704351882935,17.135826262283324L15.525924351882935,19.880026262283323C15.821824351882935,20.039426262283325,16.178124351882936,20.039426262283325,16.474124351882935,19.880026262283323L21.571324351882936,17.135426262283325L26.890624351882934,20.000026262283324L16.000024351882935,25.864326262283324Z" fill="#000000" fill-opacity="1"/></g><g></g></g></svg>