<svg xmlns="http://www.w3.org/2000/svg" xmlns:xlink="http://www.w3.org/1999/xlink" fill="none" version="1.1" width="32" height="32" viewBox="0 0 32 32"><defs><clipPath id="master_svg0_134_21399"><rect x="0" y="0" width="32" height="32" rx="0"/></clipPath></defs><g clip-path="url(#master_svg0_134_21399)"><g><rect x="18" y="14" width="12" height="2" rx="0" fill="#000000" fill-opacity="1"/></g><g><rect x="18" y="19" width="8" height="2" rx="0" fill="#000000" fill-opacity="1"/></g><g><rect x="18" y="9" width="12" height="2" rx="0" fill="#000000" fill-opacity="1"/></g><g><path d="M22,23.999964714050293L22,27.999964714050293L6,27.999964714050293L6,15.999964714050293L14,15.999964714050293L14,13.999964714050293L10,13.999964714050293L10,8.000004714050293C10.000250000000001,6.105604714050293,11.3291,4.471064714050293,13.18355,4.084094714050293C15.038,3.697124714050293,16.909599999999998,4.663804714050293,17.6675,6.400004714050293L19.500500000000002,5.600004714050293C18.363500000000002,2.9962557140502932,15.5563,1.546702714050293,12.77508,2.127114714050293C9.99382,2.707526714050293,8.00074,5.158824714050293,8,8.000004714050293L8,13.999964714050293L6,13.999964714050293C4.895956,14.001264714050293,4.00126696,14.895964714050294,4,15.999964714050293L4,27.999964714050293C4.00126839,29.104064714050292,4.895956,29.998764714050292,6,29.999964714050293L22,29.999964714050293C23.104,29.998764714050292,23.9987,29.104064714050292,24,27.999964714050293L24,23.999964714050293L22,23.999964714050293Z" fill="#000000" fill-opacity="1"/></g><g></g></g></svg>