<svg xmlns="http://www.w3.org/2000/svg" xmlns:xlink="http://www.w3.org/1999/xlink" fill="none" version="1.1" width="32" height="32" viewBox="0 0 32 32"><defs><clipPath id="master_svg0_134_21412"><rect x="0" y="0" width="32" height="32" rx="0"/></clipPath></defs><g clip-path="url(#master_svg0_134_21412)"><g><path d="M16,4C22.6,4,28,9.4,28,16C28,22.6,22.6,28,16,28C9.4,28,4,22.6,4,16C4,9.4,9.4,4,16,4ZM16,2C8.3,2,2,8.3,2,16C2,23.7,8.3,30,16,30C23.7,30,30,23.7,30,16C30,8.3,23.7,2,16,2Z" fill="#000000" fill-opacity="1"/></g><g><rect x="8" y="15" width="16" height="2" rx="0" fill="#000000" fill-opacity="1"/></g><g></g></g></svg>