<svg xmlns="http://www.w3.org/2000/svg" xmlns:xlink="http://www.w3.org/1999/xlink" fill="none" version="1.1" width="32" height="32" viewBox="0 0 32 32"><defs><clipPath id="master_svg0_134_21506"><rect x="0" y="0" width="32" height="32" rx="0"/></clipPath></defs><g clip-path="url(#master_svg0_134_21506)"><g><path d="M30,25.99999684020996L28,25.99999684020996C26.4259,26.01392684020996,24.9397,25.275556840209962,24,24.012696840209962C21.9916,26.66244684020996,18.0084,26.66244684020996,16,24.012696840209962C13.9916,26.66244684020996,10.00843,26.66244684020996,8,24.012696840209962C7.06025,25.275556840209962,5.57409,26.01392684020996,4,25.99999684020996L2,25.99999684020996L2,23.99999684020996L4,23.99999684020996C5.3947400000000005,23.917986840209963,6.60133,23.00055684020996,7.0532,21.67849884020996C7.1831,21.26716984020996,7.56874,20.99081230020996,8,21.000000000209962C8.42976,21.00211525020996,8.8108,21.27676184020996,8.948699999999999,21.68379984020996C9.40161,23.00347684020996,10.60715,23.91858684020996,12,23.99999684020996C13.3947,23.917986840209963,14.6013,23.00055684020996,15.0532,21.67849884020996C15.1883,21.270953840209962,15.5707,20.99693108020996,16,21.000000000209962C16.4298,21.00211716020996,16.8108,21.27676384020996,16.948700000000002,21.68379984020996C17.401600000000002,23.00347684020996,18.6071,23.91858684020996,20,23.99999684020996C21.3947,23.917986840209963,22.6013,23.00055684020996,23.0532,21.67849884020996C23.1913,21.271962840209962,23.5735,20.99895477320996,24.0029,21.000154495209962C24.4322,21.00135422020996,24.8129,21.276496840209962,24.9487,21.68379984020996C25.4016,23.00347684020996,26.6071,23.91858684020996,28,23.99999684020996L30,23.99999684020996L30,25.99999684020996Z" fill="#000000" fill-opacity="1"/></g><g><path d="M23,17.58589617172241L14.293,8.878899171722413C13.73167,8.314179171722412,12.96764,7.997667791722412,12.1714,8.000000000022412L4,8.000000000022412L4,9.999996171722412L12.1714,9.999996171722412C12.43692,9.999186171722412,12.69171,10.104696171722413,12.8789,10.292996171722413L15.5859,12.999996171722412L10,18.585886171722414L11.414100000000001,19.999986171722412L17,14.414096171722413L21.5859,18.999986171722412L23,17.58589617172241Z" fill="#000000" fill-opacity="1"/></g><g><path d="M20,10C20,7.79086,21.79086,6,24,6C26.209139999999998,6,28,7.79086,28,10C28,12.20914,26.209139999999998,14,24,14C21.79182,13.997679999999999,20.00231552,12.208179999999999,20,10ZM22,10C22,11.104569999999999,22.89543,12,24,12C25.10457,12,26,11.104569999999999,26,10C26,8.895430000000001,25.10457,8,24,8C22.89596,8.00127,22.001269999999998,8.89596,22,10Z" fill="#000000" fill-opacity="1"/></g><g></g></g></svg>