<svg xmlns="http://www.w3.org/2000/svg" xmlns:xlink="http://www.w3.org/1999/xlink" fill="none" version="1.1" width="32" height="32" viewBox="0 0 32 32"><defs><clipPath id="master_svg0_134_21557"><rect x="0" y="0" width="32" height="32" rx="0"/></clipPath></defs><g clip-path="url(#master_svg0_134_21557)"><g><path d="M21,20L21,30L30,25L21,20Z" fill="#000000" fill-opacity="1"/></g><g><ellipse cx="14" cy="14" rx="2" ry="2" fill="#000000" fill-opacity="1"/></g><g><path d="M14,20C10.68629,20,8,17.31371,8,14C8,10.68629,10.68629,8,14,8C17.31371,8,20,10.68629,20,14C19.9964,17.3122,17.3122,19.9964,14,20ZM14,10C11.79086,10,10,11.79086,10,14C10,16.209139999999998,11.79086,18,14,18C16.209139999999998,18,18,16.209139999999998,18,14C17.99752,11.79189,16.208109999999998,10.00248,14,10Z" fill="#000000" fill-opacity="1"/></g><g><path d="M25.95116765899658,12.91003818206787L25.944767658996582,12.91003818206787C25.347167658996582,6.011988182067871,19.07306765899658,1.0352701820678711,12.220067658996582,2.023410182067871C5.367077658996582,3.0115481820678713,0.7544576589965821,9.558048182067871,2.129940658996582,16.343938182067873C3.505417658996582,23.12973818206787,10.303147658996583,27.36333818206787,16.99996765899658,25.605038182067872L16.99996765899658,23.53863818206787C11.006107658996582,25.414538182067872,4.789877658996582,21.35463818206787,4.098157658996582,15.112238182067872C3.406437658996582,8.869848182067871,8.583027658996581,3.547498182067871,14.842167658996582,4.065658182067871C21.101367658996583,4.583808182067871,25.33226765899658,10.68493818206787,23.62346765899658,16.72863818206787L25.548267658996583,17.272638182067872C25.848567658996583,16.20763818206787,26.000567658996584,15.10643818206787,25.99996765899658,14.000038182067872Q25.99996765899658,13.449238182067871,25.95116765899658,12.91003818206787Z" fill="#000000" fill-opacity="1"/></g><g></g></g></svg>