<svg xmlns="http://www.w3.org/2000/svg" xmlns:xlink="http://www.w3.org/1999/xlink" fill="none" version="1.1" width="32" height="32" viewBox="0 0 32 32"><defs><clipPath id="master_svg0_134_21570"><rect x="0" y="0" width="32" height="32" rx="0"/></clipPath></defs><g clip-path="url(#master_svg0_134_21570)"><g><path d="M12,29L5,29C3.8959099999999998,28.9988,3.00115824,28.104100000000003,3,27L3,20C3.00115705,18.89591,3.8959099999999998,18.00115776,5,18L12,18C13.1041,18.00115776,13.9988,18.89591,14,20L14,27C13.9988,28.104100000000003,13.1041,28.9988,12,29ZM5,20L5,27L12,27L12,20L5,20Z" fill="#000000" fill-opacity="1"/></g><g><path d="M27,3L5,3C3.895431,3,3,3.895431,3,5L3,15L5,15L5,11L15,11L15,15L17,15L17,11L27,11L27,18L17,18L17,20L27,20L27,27L17,27L17,29L27,29C28.1046,29,29,28.1046,29,27L29,5C29,3.895431,28.1046,3,27,3ZM27,9L5,9L5,5L27,5L27,9Z" fill="#000000" fill-opacity="1"/></g><g></g></g></svg>