<svg xmlns="http://www.w3.org/2000/svg" xmlns:xlink="http://www.w3.org/1999/xlink" fill="none" version="1.1" width="32" height="32" viewBox="0 0 32 32"><defs><clipPath id="master_svg0_134_21643"><rect x="0" y="0" width="32" height="32" rx="0"/></clipPath></defs><g clip-path="url(#master_svg0_134_21643)"><g><path d="M16,18L22,12L23.414,13.414L19.828,17L30,17L30,19L19.828,19L23.414,22.586L22,24L16,18Z" fill="#000000" fill-opacity="1"/></g><g><path d="M10,14C7.79086,14,6,12.20914,6,10C6,7.79086,7.79086,6,10,6C12.20914,6,14,7.79086,14,10C13.99752,12.20811,12.20811,13.99752,10,14ZM10,8C8.89574,7.9989,7.99955,8.892949999999999,7.99801,9.9972C7.99646,11.10146,8.89015,11.99801,9.99441,12C11.098659999999999,12.00198,11.99557,11.10865,11.998000000000001,10.0044C11.99933,8.89935,11.10505,8.00221,10,8Z" fill="#000000" fill-opacity="1"/></g><g><path d="M20.0586,26L18.0579,28L4,13.9414L4,4L13.9417,4L19.9417,10L21.356,8.586L15.355,2.586C14.9801,2.210999,14.4717,2.000219345,13.9414,2L4,2C2.895431,2,2,2.895431,2,4L2,13.9414C2.00000739098,14.4718,2.210687,14.9804,2.5857,15.3555L16.6436,29.4146C17.4249,30.1952,18.6909,30.1952,19.4722,29.4146L21.4728,27.4139L20.0586,26Z" fill="#000000" fill-opacity="1"/></g><g></g></g></svg>