<svg xmlns="http://www.w3.org/2000/svg" xmlns:xlink="http://www.w3.org/1999/xlink" fill="none" version="1.1" width="32" height="32" viewBox="0 0 32 32"><defs><clipPath id="master_svg0_134_21622"><rect x="0" y="0" width="32" height="32" rx="0"/></clipPath></defs><g clip-path="url(#master_svg0_134_21622)"><g><path d="M29.707,7.29300542930603L26.707,4.29300142930603C26.3166,3.9022872293060304,25.68336,3.9022872293060304,25.293,4.29300142930603L16,13.585905429306031L16,17.99996542930603L20.4141,17.99996542930603L29.707,8.70700542930603C30.0977,8.31664542930603,30.0977,7.68336542930603,29.707,7.29300542930603ZM19.5859,15.99996542930603L18,15.99996542930603L18,14.41406542930603L23,9.41410542930603L24.585900000000002,11.00000542930603L19.5859,15.99996542930603ZM26,9.585905429306031L24.414099999999998,8.00000542930603L26,6.41410542930603L27.585900000000002,8.00000542930603L26,9.585905429306031Z" fill="#000000" fill-opacity="1"/></g><g><path d="M10,14C7.79086,14,6,12.20914,6,10C6,7.79086,7.79086,6,10,6C12.20914,6,14,7.79086,14,10C13.99752,12.20811,12.20811,13.99752,10,14ZM10,8C8.89574,7.9989,7.99955,8.892949999999999,7.99801,9.9972C7.99646,11.10146,8.89015,11.99801,9.99441,12C11.098659999999999,12.00198,11.99557,11.10865,11.998000000000001,10.0044C11.99933,8.89935,11.10505,8.00221,10,8Z" fill="#000000" fill-opacity="1"/></g><g><path d="M27.0059,14.2354L25.5918,15.6494L28,18.0576L18.0579,28L4,13.9414L4,4L13.9417,4L18.3484,8.4067L19.7625,6.9922L15.3555,2.5859C14.9803,2.210753,14.4717,2,13.9414,2L4,2C2.895431,2,2,2.895431,2,4L2,13.9414C2.00000739098,14.4718,2.210687,14.9804,2.5857,15.3555L16.6436,29.4146C17.4249,30.1952,18.6909,30.1952,19.4722,29.4146L29.4146,19.4722C30.1952,18.6909,30.1952,17.4249,29.4146,16.6436L27.0059,14.2354Z" fill="#000000" fill-opacity="1"/></g><g></g></g></svg>