<svg xmlns="http://www.w3.org/2000/svg" xmlns:xlink="http://www.w3.org/1999/xlink" fill="none" version="1.1" width="32" height="32" viewBox="0 0 32 32"><defs><clipPath id="master_svg0_134_21636"><rect x="0" y="0" width="32" height="32" rx="0"/></clipPath></defs><g clip-path="url(#master_svg0_134_21636)"><g><ellipse cx="10" cy="14" rx="2" ry="2" fill="#000000" fill-opacity="1"/></g><g><path d="M16,30C15.7342,30.0015,15.4787,29.8972,15.29,29.71L4.59,19C4.214412,18.6266,4.00223255,18.1196,4,17.59L4,10C4,8.895431,4.895431,8,6,8L13.59,8C14.1196,8.00223255,14.6266,8.214413,15,8.59L25.71,19.29C26.1044,19.6812,26.1044,20.3188,25.71,20.71L16.71,29.71C16.5213,29.8972,16.2658,30.0015,16,30ZM6,10L6,17.59L16,27.59L23.59,20L13.59,10L6,10Z" fill="#000000" fill-opacity="1"/></g><g><path d="M27.71,13.29L17,2.59C16.6266,2.214412,16.1196,2.00223279,15.59,2L8,2C6.895431,2,6,2.895431,6,4L6,6L8,6L8,4L15.59,4L25.59,14L24.29,15.29L25.71,16.71L27.71,14.71C28.1044,14.3188,28.1044,13.6812,27.71,13.29Z" fill="#000000" fill-opacity="1"/></g><g></g></g></svg>