<svg xmlns="http://www.w3.org/2000/svg" xmlns:xlink="http://www.w3.org/1999/xlink" fill="none" version="1.1" width="32" height="32" viewBox="0 0 32 32"><defs><clipPath id="master_svg0_134_21616"><rect x="0" y="0" width="32" height="32" rx="0"/></clipPath></defs><g clip-path="url(#master_svg0_134_21616)"><g><path d="M10,14C7.79086,14,6,12.20914,6,10C6,7.79086,7.79086,6,10,6C12.20914,6,14,7.79086,14,10C13.99752,12.20811,12.20811,13.99752,10,14ZM10,8C8.89574,7.9989,7.99955,8.892949999999999,7.99801,9.9972C7.99646,11.10146,8.89015,11.99801,9.99441,12C11.098659999999999,12.00198,11.99557,11.10865,11.998000000000001,10.0044C11.99933,8.89935,11.10505,8.00221,10,8Z" fill="#000000" fill-opacity="1"/></g><g><path d="M16.6436,29.4145L2.5858,15.3555C2.210716,14.9804,2,14.4717,2,13.9414L2,4C2,2.895431,2.895431,2,4,2L13.9413,2C14.4717,2.00000739098,14.9804,2.210726,15.3555,2.5858L29.4144,16.6436C30.1952,17.424799999999998,30.1952,18.6909,29.4144,19.4721L19.472,29.4146C18.6908,30.1953,17.4247,30.1953,16.6436,29.4145ZM4,4L4,13.9417L18.0578,28L28,18.0579L13.9416,4L4,4Z" fill="#000000" fill-opacity="1"/></g><g></g></g></svg>