<svg xmlns="http://www.w3.org/2000/svg" xmlns:xlink="http://www.w3.org/1999/xlink" fill="none" version="1.1" width="32" height="32" viewBox="0 0 32 32"><defs><clipPath id="master_svg0_134_21680"><rect x="0" y="0" width="32" height="32" rx="0"/></clipPath></defs><g clip-path="url(#master_svg0_134_21680)"><g><path d="M22.5,26C20.567,26,19,24.433,19,22.5C19,20.567,20.567,19,22.5,19C24.433,19,26,20.567,26,22.5C25.99774,24.43206,24.43206,25.99774,22.5,26ZM22.5,21C21.67157,21,21,21.67157,21,22.5C21,23.32843,21.67157,24,22.5,24C23.32843,24,24,23.32843,24,22.5C23.99906,21.67196,23.32804,21.00094,22.5,21Z" fill="#000000" fill-opacity="1"/></g><g><path d="M22.499999046325684,30.999999046325684C17.805579046325683,30.999999046325684,13.999999046325684,27.194399046325685,13.999999046325684,22.499999046325684C13.999999046325684,17.805579046325683,17.805579046325683,13.999999046325684,22.499999046325684,13.999999046325684C27.194399046325685,13.999999046325684,30.999999046325684,17.805579046325683,30.999999046325684,22.499999046325684C30.994499046325682,27.192099046325684,27.192099046325684,30.994499046325682,22.499999046325684,30.999999046325684ZM22.499999046325684,15.999999046325684C18.910149046325685,15.999999046325684,15.999999046325684,18.910149046325685,15.999999046325684,22.499999046325684C15.999999046325684,26.089899046325684,18.910149046325685,28.999999046325684,22.499999046325684,28.999999046325684C26.089899046325684,28.999999046325684,28.999999046325684,26.089899046325684,28.999999046325684,22.499999046325684C28.995899046325682,18.91183904632568,26.088199046325684,16.004079046325685,22.499999046325684,15.999999046325684Z" fill="#000000" fill-opacity="1"/></g><g><path d="M25,5L22,5L22,4C21.9968,2.896752,21.1032,2.00318575,20,2L12,2C10.89675,2.00318527,10.00319,2.896752,10,4L10,5L7,5C5.896753,5.00319,5.00318575,5.89675,5,7L5,28C5.00318575,29.1032,5.896753,29.9968,7,30L12,30L12,28L7,28L7,7L10,7L10,10L22,10L22,7L25,7L25,12L27,12L27,7C26.9968,5.89675,26.1032,5.00319,25,5ZM20,8L12,8L12,4L20,4L20,8Z" fill="#000000" fill-opacity="1"/></g><g></g></g></svg>