<svg xmlns="http://www.w3.org/2000/svg" xmlns:xlink="http://www.w3.org/1999/xlink" fill="none" version="1.1" width="32" height="32" viewBox="0 0 32 32"><defs><clipPath id="master_svg0_134_21706"><rect x="0" y="0" width="32" height="32" rx="0"/></clipPath></defs><g clip-path="url(#master_svg0_134_21706)"><g><path d="M30,24L30,22L27.898899999999998,22C27.77,21.37406,27.5214,20.77888,27.167,20.2471L28.657,18.7571L27.243000000000002,17.3431L25.753,18.8331C25.2212,18.47861,24.62598,18.23007,24,18.1011L24,16L22,16L22,18.1011C21.37406,18.23005,20.77888,18.47855,20.2471,18.833L18.7571,17.343L17.3431,18.757L18.8331,20.247C18.47861,20.77881,18.23006,21.37402,18.1011,22L16,22L16,24L18.1011,24C18.23005,24.62594,18.47856,25.22112,18.833,25.7529L17.343,27.2429L18.757,28.6569L20.247,27.1669C20.77881,27.5214,21.37402,27.7699,22,27.898899999999998L22,30L24,30L24,27.898899999999998C24.62594,27.77,25.22112,27.5214,25.7529,27.167L27.2429,28.657L28.6569,27.243000000000002L27.1669,25.753C27.5214,25.22119,27.7699,24.62598,27.898899999999998,24L30,24ZM23,26C21.34315,26,20,24.65685,20,23C20,21.34315,21.34315,20,23,20C24.65685,20,26,21.34315,26,23C25.998179999999998,24.656100000000002,24.656100000000002,25.998179999999998,23,26Z" fill="#000000" fill-opacity="1"/></g><g><path d="M25,5L22,5L22,4C21.9968,2.896752,21.1032,2.00318575,20,2L12,2C10.89675,2.00318527,10.00319,2.896752,10,4L10,5L7,5C5.896753,5.00319,5.00318575,5.89675,5,7L5,28C5.00318575,29.1032,5.896753,29.9968,7,30L14,30L14,28L7,28L7,7L10,7L10,10L22,10L22,7L25,7L25,13L27,13L27,7C26.9968,5.89675,26.1032,5.00319,25,5ZM20,8L12,8L12,4L20,4L20,8Z" fill="#000000" fill-opacity="1"/></g><g></g></g></svg>