<svg xmlns="http://www.w3.org/2000/svg" xmlns:xlink="http://www.w3.org/1999/xlink" fill="none" version="1.1" width="32" height="32" viewBox="0 0 32 32"><defs><clipPath id="master_svg0_134_21718"><rect x="0" y="0" width="32" height="32" rx="0"/></clipPath></defs><g clip-path="url(#master_svg0_134_21718)"><g><path d="M28.50003324279785,31.99999945678711C27.57113324279785,32.00259945678711,26.67983324279785,31.63339945678711,26.02493324279785,30.97459945678711L21.89700324279785,26.84689945678711C19.508243242797853,27.37449945678711,17.02564324279785,26.515399456787108,15.473973242797852,24.624099456787107C13.922299342797851,22.73285945678711,13.564706242797852,20.13025945678711,14.548799242797852,17.890599456787108L15.136703242797852,16.55059945678711L19.29300324279785,20.70699945678711C19.68849324279785,21.08463945678711,20.311003242797852,21.08463945678711,20.70650324279785,20.70699945678711C21.09764324279785,20.31685945678711,21.09786324279785,19.68331945678711,20.707003242797853,19.29289945678711L16.55080324279785,15.13639945678711L17.89080324279785,14.54829945678711C20.130553242797852,13.56437445678711,22.73315324279785,13.92208675678711,24.62443324279785,15.473799456787109C26.515633242797854,17.02550945678711,27.374833242797852,19.50808945678711,26.84743324279785,21.89689945678711L30.974833242797853,26.02509945678711C31.97583324279785,27.026099456787108,32.27523324279785,28.53149945678711,31.73353324279785,29.83939945678711C31.191833242797852,31.14719945678711,29.915633242797853,31.99999945678711,28.50003324279785,31.99999945678711ZM22.47000324279785,24.59129945678711L27.43933324279785,29.56049945678711C28.03263324279785,30.12749945678711,28.967033242797854,30.12749945678711,29.56043324279785,29.56049945678711C30.14663324279785,28.97509945678711,30.14663324279785,28.02509945678711,29.56043324279785,27.43969945678711L24.591233242797852,22.46969945678711L24.77923324279785,21.887399456787108C25.725233242797852,18.980489456787108,23.55699324279785,15.99733945678711,20.500003242797852,15.999999456787108Q20.37400324279785,15.999999456787108,20.250003242797852,16.00679945678711L22.121603242797853,17.87889945678711C23.293453242797852,19.05025945678711,23.293453242797852,20.94993945678711,22.121603242797853,22.12129945678711C20.93427324279785,23.25445945678711,19.065953242797853,23.25423945678711,17.87890324279785,22.12079945678711L16.007303242797853,20.24929945678711Q16.000003242797852,20.37409945678711,16.000003242797852,20.49999945678711C15.997473242797852,23.55711945678711,18.980493242797852,25.72559945678711,21.88770324279785,24.77999945678711L22.47000324279785,24.59129945678711Z" fill="#000000" fill-opacity="1"/></g><g><path d="M25,5L22,5L22,4C21.9968,2.896752,21.1032,2.00318575,20,2L12,2C10.89675,2.00318527,10.00319,2.896752,10,4L10,5L7,5C5.896753,5.00319,5.00318575,5.89675,5,7L5,28C5.00318575,29.1032,5.896753,29.9968,7,30L14,30L14,28L7,28L7,7L10,7L10,10L22,10L22,7L25,7L25,12L27,12L27,7C26.9968,5.89675,26.1032,5.00319,25,5ZM20,8L12,8L12,4L20,4L20,8Z" fill="#000000" fill-opacity="1"/></g><g></g></g></svg>