<svg xmlns="http://www.w3.org/2000/svg" xmlns:xlink="http://www.w3.org/1999/xlink" fill="none" version="1.1" width="32" height="32" viewBox="0 0 32 32"><defs><clipPath id="master_svg0_134_21693"><rect x="0" y="0" width="32" height="32" rx="0"/></clipPath></defs><g clip-path="url(#master_svg0_134_21693)"><g><ellipse cx="24" cy="21" rx="2" ry="2" fill="#000000" fill-opacity="1"/></g><g><path d="M24,31L19.2212,24.598100000000002C18.430855,23.56495,18.00179482,22.30078,18,21C18,17.68629,20.68629,15,24,15C27.31371,15,30,17.68629,30,21C29.9979,22.30272,29.5676,23.56862,28.775399999999998,24.602800000000002L24,31ZM24,17C21.79189,17.00248,20.00248,18.79189,20,21C20.003239999999998,21.86734,20.291339999999998,22.70959,20.82,23.397199999999998L24,27.6567L27.176299999999998,23.401899999999998C27.70689,22.71329,27.99632,21.86931,28,21C27.99752,18.79189,26.208109999999998,17.00248,24,17Z" fill="#000000" fill-opacity="1"/></g><g><path d="M25,5L22,5L22,4C21.9968,2.896752,21.1032,2.00318575,20,2L12,2C10.89675,2.00318527,10.00319,2.896752,10,4L10,5L7,5C5.896753,5.00319,5.00318575,5.89675,5,7L5,28C5.00318575,29.1032,5.896753,29.9968,7,30L16,30L16,28L7,28L7,7L10,7L10,10L22,10L22,7L25,7L25,12L27,12L27,7C26.9968,5.89675,26.1032,5.00319,25,5ZM20,8L12,8L12,4L20,4L20,8Z" fill="#000000" fill-opacity="1"/></g><g></g></g></svg>