<svg xmlns="http://www.w3.org/2000/svg" xmlns:xlink="http://www.w3.org/1999/xlink" fill="none" version="1.1" width="32" height="32" viewBox="0 0 32 32"><defs><clipPath id="master_svg0_134_21742"><rect x="0" y="0" width="32" height="32" rx="0"/></clipPath></defs><g clip-path="url(#master_svg0_134_21742)"><g><path d="M29.39,16.07999998641968L22.7,13.209999986419678L20.16,8.869999986419678L20.08,8.749999986419677C19.7007,8.276273986419678,19.1269,8.000379562419678,18.52,8.000000000019678L10.52,8.000000000019678C9.849319999999999,7.9978895164196775,9.22223,8.332087986419678,8.85,8.889999986419678L5.46,13.999999986419677L3,13.999999986419677C2.447715,13.999999986419677,2,14.447709986419678,2,14.999999986419677L2,23.999989986419678C2,24.552289986419677,2.447715,24.999989986419678,3,24.999989986419678L5.140000000000001,24.999989986419678C5.6134,26.74198998641968,7.19486,27.95098998641968,9,27.95098998641968C10.80514,27.95098998641968,12.3866,26.74198998641968,12.86,24.999989986419678L19.14,24.999989986419678C19.6134,26.74198998641968,21.1949,27.95098998641968,23,27.95098998641968C24.8051,27.95098998641968,26.3866,26.74198998641968,26.86,24.999989986419678L29,24.999989986419678C29.5523,24.999989986419678,30,24.552289986419677,30,23.999989986419678L30,16.999999986419677C29.9997,16.598719986419677,29.7595,16.23649998641968,29.39,16.07999998641968ZM9,25.999989986419678C7.89543,25.999989986419678,7,25.10458998641968,7,23.999989986419678C7,22.89538998641968,7.89543,21.999989986419678,9,21.999989986419678C10.10457,21.999989986419678,11,22.89538998641968,11,23.999989986419678C11,25.10458998641968,10.10457,25.999989986419678,9,25.999989986419678ZM23,25.999989986419678C21.8954,25.999989986419678,21,25.10458998641968,21,23.999989986419678C21,22.89538998641968,21.8954,21.999989986419678,23,21.999989986419678C24.1046,21.999989986419678,25,22.89538998641968,25,23.999989986419678C25,25.10458998641968,24.1046,25.999989986419678,23,25.999989986419678ZM28,22.999989986419678L26.86,22.999989986419678C26.3866,21.258089986419677,24.8051,20.048989986419677,23,20.048989986419677C21.1949,20.048989986419677,19.6134,21.258089986419677,19.14,22.999989986419678L12.86,22.999989986419678C12.3866,21.257989986419677,10.80514,20.048989986419677,9,20.048989986419677C7.19486,20.048989986419677,5.6134,21.257989986419677,5.140000000000001,22.999989986419678L4,22.999989986419678L4,15.999999986419677L6,15.999999986419677C6.33452,15.998269986419679,6.64602,15.829389986419677,6.83,15.549999986419678L10.54,9.999999986419677L18.54,9.999999986419677L21.17,14.499999986419677C21.2773,14.687009986419678,21.4422,14.834329986419679,21.64,14.919999986419679L28,17.659999986419677L28,22.999989986419678Z" fill="#000000" fill-opacity="1"/></g><g></g></g></svg>