<svg xmlns="http://www.w3.org/2000/svg" xmlns:xlink="http://www.w3.org/1999/xlink" fill="none" version="1.1" width="32" height="32" viewBox="0 0 32 32"><defs><clipPath id="master_svg0_134_21756"><rect x="0" y="0" width="32" height="32" rx="0"/></clipPath></defs><g clip-path="url(#master_svg0_134_21756)"><g><path d="M13.00000494041443,17.259999999999998L13.00000494041443,6C13.00000494041443,3.79086,11.20913494041443,2,8.999994940414428,2C6.790864940414429,2,5.000004940414429,3.79086,5.000004940414429,6L5.000004940414429,17.259999999999998C1.5590579404144287,19.656,0.9820549404144288,24.5189,3.7667649404144288,27.6536C6.551474940414429,30.7882,11.448524940414428,30.7882,14.233204940414428,27.6536C17.01790494041443,24.5189,16.440904940414427,19.656,13.00000494041443,17.259999999999998ZM8.999994940414428,4C10.104564940414429,4,10.999994940414428,4.89543,10.999994940414428,6L10.999994940414428,13L6.999994940414429,13L6.999994940414429,6C6.999994940414429,4.89543,7.895434940414429,4,8.999994940414428,4ZM8.999994940414428,28C6.737064940414428,27.9999,4.756294940414429,26.4799,4.1705949404144285,24.2941C3.584894940414429,22.1083,4.540294940414428,19.8016,6.499994940414429,18.67L6.999994940414429,18.39L6.999994940414429,15L10.999994940414428,15L10.999994940414428,18.39L11.499994940414428,18.67C13.45970494041443,19.8016,14.415104940414428,22.1083,13.82940494041443,24.2941C13.243604940414428,26.48,11.262804940414428,28,8.999994940414428,28Z" fill="#000000" fill-opacity="1"/></g><g><rect x="20" y="4" width="10" height="2" rx="0" fill="#000000" fill-opacity="1"/></g><g><rect x="20" y="10" width="7" height="2" rx="0" fill="#000000" fill-opacity="1"/></g><g><rect x="20" y="16" width="10" height="2" rx="0" fill="#000000" fill-opacity="1"/></g><g><rect x="20" y="22" width="7" height="2" rx="0" fill="#000000" fill-opacity="1"/></g><g></g></g></svg>