<svg xmlns="http://www.w3.org/2000/svg" xmlns:xlink="http://www.w3.org/1999/xlink" fill="none" version="1.1" width="32" height="32" viewBox="0 0 32 32"><defs><clipPath id="master_svg0_134_21801"><rect x="0" y="0" width="32" height="32" rx="0"/></clipPath></defs><g clip-path="url(#master_svg0_134_21801)"><g><path d="M27.167,16.89L21.72,13L27.167,9.109L29.683999999999997,9.948L30.316000000000003,8.051L28,7.279L28,5L26,5L26,7.485L21,11.057L21,5.367L23.555,3.6639999999999997L22.445,2L20,3.63L17.555,2L16.445,3.6639999999999997L19,5.367L19,11.057L16,8.914L16,11.372L18.28,13L16,14.628L16,17.086L19,14.943L19,21.703L22.445,24L23.555,22.336L21,20.633L21,14.943L26,18.515L26,21L28,21L28,18.721L30.316000000000003,17.948L29.683999999999997,16.051000000000002L27.167,16.89Z" fill="#000000" fill-opacity="1"/></g><g><path d="M12,23C12,24.65685,10.65685,26,9,26C7.34315,26,6,24.65685,6,23L12,23Z" fill="#000000" fill-opacity="1"/></g><g><path d="M8.999998988990784,30C6.1827989889907835,30.0028,3.6390389889907837,28.3148,2.5469119889907836,25.7179C1.4547849889907836,23.121,2.0275821889907837,20.1223,3.9999989889907837,18.1108L3.9999989889907837,7C3.9999989889907837,4.23858,6.238578988990784,2,8.999998988990784,2C11.761418988990783,2,13.999968988990783,4.23858,13.999968988990783,7L13.999968988990783,18.1108C15.972368988990784,20.1223,16.54516898899078,23.121,15.453068988990784,25.7179C14.360968988990784,28.3148,11.817198988990784,30.0028,8.999998988990784,30ZM8.999998988990784,4C7.343898988990784,4.00182,6.001818988990784,5.3439,5.999998988990784,7L5.999998988990784,18.9834L5.667998988990783,19.2817C3.5545089889907837,21.1707,3.432438988990784,24.4371,5.399058988990784,26.4786C7.365678988990783,28.52,10.634328988990784,28.52,12.600968988990784,26.4786C14.567568988990784,24.4371,14.445468988990784,21.1707,12.331968988990784,19.2817L11.999968988990783,18.9834L11.999968988990783,7C11.998178988990784,5.3439,10.656098988990784,4.00182,8.999998988990784,4Z" fill="#000000" fill-opacity="1"/></g><g></g></g></svg>