<svg xmlns="http://www.w3.org/2000/svg" xmlns:xlink="http://www.w3.org/1999/xlink" fill="none" version="1.1" width="32" height="32" viewBox="0 0 32 32"><defs><clipPath id="master_svg0_134_21867"><rect x="0" y="0" width="32" height="32" rx="0"/></clipPath></defs><g clip-path="url(#master_svg0_134_21867)"><g><path d="M28,26L25,26L25,24L28,24L28,8L25,8L25,6L28,6C29.10404,6.00126839,29.998730000000002,6.895956,30,8L30,24C29.99851,25.104,29.10395,25.9985,28,26Z" fill="#000000" fill-opacity="1"/></g><g><ellipse cx="23" cy="16" rx="2" ry="2" fill="#000000" fill-opacity="1"/></g><g><ellipse cx="16" cy="16" rx="2" ry="2" fill="#000000" fill-opacity="1"/></g><g><ellipse cx="9" cy="16" rx="2" ry="2" fill="#000000" fill-opacity="1"/></g><g><path d="M7,26L4,26C2.895956,25.9987,2.00126648,25.104,2,24L2,8C2.00110245,6.895887,2.895887,6.00110245,4,6L7,6L7,8L4,8L4,24L7,24L7,26Z" fill="#000000" fill-opacity="1"/></g><g></g></g></svg>