<svg xmlns="http://www.w3.org/2000/svg" xmlns:xlink="http://www.w3.org/1999/xlink" fill="none" version="1.1" width="32" height="32" viewBox="0 0 32 32"><defs><clipPath id="master_svg0_134_21966"><rect x="0" y="0" width="32" height="32" rx="0"/></clipPath></defs><g clip-path="url(#master_svg0_134_21966)"><g><rect x="4" y="26" width="24" height="4" rx="0" fill="#000000" fill-opacity="1"/></g><g><path d="M26.000026235198973,14.54C26.007126235198974,14.2866,25.917726235198973,14.04,25.750026235198973,13.85L17.170026235198975,4.33C17.117726235198973,4.2811900000000005,17.060826235198974,4.23765,17.000026235198973,4.2L17.000026235198973,2L15.000026235198975,2L15.000026235198975,5L4.320000235198974,14.74C3.9151926351989745,15.1133,3.8883702351989746,15.7436,4.260000235198975,16.15L12.829996235198974,25.67C13.007186235198974,25.8671,13.255356235198974,25.9858,13.519996235198974,26L13.569996235198975,26C13.821286235198974,26.0019,14.064026235198975,25.909,14.250026235198975,25.74L24.000026235198973,16.8L24.000026235198973,21C24.000026235198973,21.5523,24.447726235198974,22,25.000026235198973,22C25.552326235198976,22,26.000026235198973,21.5523,26.000026235198973,21L26.000026235198973,14.57Q26.000026235198973,14.55,26.000026235198973,14.54ZM13.649996235198975,23.54L6.419996235198974,15.54L15.000026235198975,7.67L15.000026235198975,12L17.000026235198973,12L17.000026235198973,7.13L23.590026235198973,14.46L13.649996235198975,23.54Z" fill="#000000" fill-opacity="1"/></g><g></g></g></svg>