<svg xmlns="http://www.w3.org/2000/svg" xmlns:xlink="http://www.w3.org/1999/xlink" fill="none" version="1.1" width="32" height="32" viewBox="0 0 32 32"><defs><clipPath id="master_svg0_134_22151"><rect x="0" y="0" width="32" height="32" rx="0"/></clipPath></defs><g clip-path="url(#master_svg0_134_22151)"><g><rect x="16" y="28" width="14" height="2" rx="0" fill="#000000" fill-opacity="1"/></g><g><rect x="16" y="23" width="14" height="2" rx="0" fill="#000000" fill-opacity="1"/></g><g><path d="M10.8458,30L13,30L8.64,20L6.36,20L2,30L4.1541999999999994,30L4.9542,28L10.0458,28L10.8458,30ZM5.7541,26L7.5,21.6347L9.245899999999999,26L5.7541,26Z" fill="#000000" fill-opacity="1"/></g><g><rect x="2" y="15" width="28" height="2" rx="0" fill="#000000" fill-opacity="1"/></g><g><rect x="16" y="7" width="14" height="2" rx="0" fill="#000000" fill-opacity="1"/></g><g><rect x="16" y="2" width="14" height="2" rx="0" fill="#000000" fill-opacity="1"/></g><g><path d="M10.8458,12L13,12L8.64,2L6.36,2L2,12L4.1541999999999994,12L4.9542,10L10.0458,10L10.8458,12ZM5.7541,8L7.5,3.6347L9.245899999999999,8L5.7541,8Z" fill="#000000" fill-opacity="1"/></g><g></g></g></svg>