<svg xmlns="http://www.w3.org/2000/svg" xmlns:xlink="http://www.w3.org/1999/xlink" fill="none" version="1.1" width="32" height="32" viewBox="0 0 32 32"><defs><clipPath id="master_svg0_134_22025"><rect x="0" y="0" width="32" height="32" rx="0"/></clipPath></defs><g clip-path="url(#master_svg0_134_22025)"><g><path d="M30,24.000000915527345L18.83,24.000000915527345L21.12,21.710000915527345L19.71,20.290000915527344L15,25.000000915527345L19.71,29.710000915527345L21.12,28.290000915527344L18.83,26.000000915527345L30,26.000000915527345L30,24.000000915527345Z" fill="#000000" fill-opacity="1"/></g><g><path d="M14,21L20,4L18,4L12,21L14,21Z" fill="#000000" fill-opacity="1"/></g><g><path d="M13,4L9,16L5,4L3,4L8,18L10,18L15,4L13,4Z" fill="#000000" fill-opacity="1"/></g><g><path d="M28,18L30,18L25,4L23,4L18,18L20,18L21,15L27,15L28,18ZM21.67,13L24,6L26.33,13L21.67,13Z" fill="#000000" fill-opacity="1"/></g><g></g></g></svg>