<svg xmlns="http://www.w3.org/2000/svg" xmlns:xlink="http://www.w3.org/1999/xlink" fill="none" version="1.1" width="32" height="32" viewBox="0 0 32 32"><defs><clipPath id="master_svg0_134_21949"><rect x="0" y="0" width="32" height="32" rx="0"/></clipPath></defs><g clip-path="url(#master_svg0_134_21949)"><g><path d="M29.4384,16.5715L21.4534,8.585899999999999C20.672,7.80518,19.4057,7.80518,18.6243,8.585899999999999L13.2659,13.9443L9,2L7,2L2,16L4,16L4.9990000000000006,13L10.999,13L11.8025,15.4077L4.5858,22.6244C3.8049,23.4054,3.8049,24.6716,4.5858,25.4526L9.131599999999999,30L18.7224,30L29.4384,19.283C30.1872,18.5342,30.1872,17.3203,29.4384,16.5715ZM5.6653,11L7.9963,4L10.3318,11L5.6653,11ZM17.8943,28L9.96,28L6,24.0381L12.3123,17.726599999999998L20.24,25.6538L17.8943,28ZM21.6543,24.24L13.7268,16.3128L20.0393,10L27.9661,17.9272L21.6543,24.24Z" fill="#000000" fill-opacity="1"/></g><g></g></g></svg>