<svg xmlns="http://www.w3.org/2000/svg" xmlns:xlink="http://www.w3.org/1999/xlink" fill="none" version="1.1" width="32" height="32" viewBox="0 0 32 32"><defs><clipPath id="master_svg0_134_22184"><rect x="0" y="0" width="32" height="32" rx="0"/></clipPath></defs><g clip-path="url(#master_svg0_134_22184)"><g><path d="M8,30L4,30C2.895431,30,2,29.10457,2,28L2,24C2,22.895431,2.895431,22,4,22L8,22C9.104569999999999,22,10,22.895431,10,24L10,28C10,29.10457,9.104569999999999,30,8,30ZM4,24L4,28L8,28L8,24L4,24Z" fill="#000000" fill-opacity="1"/></g><g><path d="M18,30L14,30C12.895431,30,12,29.10457,12,28L12,24C12,22.895431,12.895431,22,14,22L18,22C19.10457,22,20,22.895431,20,24L20,28C20,29.10457,19.10457,30,18,30ZM14,24L14,28L18,28L18,24L14,24Z" fill="#000000" fill-opacity="1"/></g><g><path d="M28,30L24,30C22.895431,30,22,29.10457,22,28L22,24C22,22.895431,22.895431,22,24,22L28,22C29.10457,22,30,22.895431,30,24L30,28C30,29.10457,29.10457,30,28,30ZM24,24L24,28L28,28L28,24L24,24Z" fill="#000000" fill-opacity="1"/></g><g><path d="M28,20L4,20C2.895431,20,2,19.1046,2,18L2,4C2,2.895431,2.895431,2,4,2L28,2C29.1046,2,30,2.895431,30,4L30,18C30,19.1046,29.1046,20,28,20ZM4,4L4,18L28,18L28,4L4,4Z" fill="#000000" fill-opacity="1"/></g><g></g></g></svg>