<svg xmlns="http://www.w3.org/2000/svg" xmlns:xlink="http://www.w3.org/1999/xlink" fill="none" version="1.1" width="32" height="32" viewBox="0 0 32 32"><defs><clipPath id="master_svg0_134_22192"><rect x="0" y="0" width="32" height="32" rx="0"/></clipPath></defs><g clip-path="url(#master_svg0_134_22192)"><g><path d="M8,30L4,30C2.895431,30,2,29.10457,2,28L2,24C2,22.895431,2.895431,22,4,22L8,22C9.104569999999999,22,10,22.895431,10,24L10,28C10,29.10457,9.104569999999999,30,8,30ZM4,24L4,28L8,28L8,24L4,24Z" fill="#000000" fill-opacity="1"/></g><g><path d="M18,30L14,30C12.895431,30,12,29.10457,12,28L12,24C12,22.895431,12.895431,22,14,22L18,22C19.10457,22,20,22.895431,20,24L20,28C20,29.10457,19.10457,30,18,30ZM14,24L14,28L18,28L18,24L14,24Z" fill="#000000" fill-opacity="1"/></g><g><path d="M28,30L24,30C22.895431,30,22,29.10457,22,28L22,24C22,22.895431,22.895431,22,24,22L28,22C29.10457,22,30,22.895431,30,24L30,28C30,29.10457,29.10457,30,28,30ZM24,24L24,28L28,28L28,24L24,24Z" fill="#000000" fill-opacity="1"/></g><g><path d="M8,20L4,20C2.895431,20,2,19.10457,2,18L2,14C2,12.895431,2.895431,12,4,12L8,12C9.104569999999999,12,10,12.895431,10,14L10,18C10,19.10457,9.104569999999999,20,8,20ZM4,14L4,18L8,18L8,14L4,14Z" fill="#000000" fill-opacity="1"/></g><g><path d="M18,20L14,20C12.895431,20,12,19.10457,12,18L12,14C12,12.895431,12.895431,12,14,12L18,12C19.10457,12,20,12.895431,20,14L20,18C20,19.10457,19.10457,20,18,20ZM14,14L14,18L18,18L18,14L14,14Z" fill="#000000" fill-opacity="1"/></g><g><path d="M28,20L24,20C22.895431,20,22,19.10457,22,18L22,14C22,12.895431,22.895431,12,24,12L28,12C29.10457,12,30,12.895431,30,14L30,18C30,19.10457,29.10457,20,28,20ZM24,14L24,18L28,18L28,14L24,14Z" fill="#000000" fill-opacity="1"/></g><g><path d="M8,10L4,10C2.895431,10,2,9.104569999999999,2,8L2,4C2,2.895431,2.895431,2,4,2L8,2C9.104569999999999,2,10,2.895431,10,4L10,8C10,9.104569999999999,9.104569999999999,10,8,10ZM4,4L4,8L8,8L8,4L4,4Z" fill="#000000" fill-opacity="1"/></g><g><path d="M18,10L14,10C12.895431,10,12,9.104569999999999,12,8L12,4C12,2.895431,12.895431,2,14,2L18,2C19.10457,2,20,2.895431,20,4L20,8C20,9.104569999999999,19.10457,10,18,10ZM14,4L14,8L18,8L18,4L14,4Z" fill="#000000" fill-opacity="1"/></g><g><path d="M28,10L24,10C22.895431,10,22,9.104569999999999,22,8L22,4C22,2.895431,22.895431,2,24,2L28,2C29.10457,2,30,2.895431,30,4L30,8C30,9.104569999999999,29.10457,10,28,10ZM24,4L24,8L28,8L28,4L24,4Z" fill="#000000" fill-opacity="1"/></g><g></g></g></svg>