<svg xmlns="http://www.w3.org/2000/svg" xmlns:xlink="http://www.w3.org/1999/xlink" fill="none" version="1.1" width="20" height="20" viewBox="0 0 20 20"><defs><clipPath id="master_svg0_134_08882"><rect x="0" y="0" width="20" height="20" rx="0"/></clipPath></defs><g clip-path="url(#master_svg0_134_08882)"><g><path d="M10,19C5,19,1,15,1,10C1,5,5,1,10,1C15,1,19,5,19,10C19,15,15,19,10,19ZM10,2.3C5.7,2.3,2.3,5.8,2.3,10C2.3,14.2,5.8,17.7,10,17.7C14.2,17.7,17.7,14.2,17.7,10C17.7,5.8,14.3,2.3,10,2.3Z" fill="#000000" fill-opacity="1"/></g><g><path d="M12.999999618530273,13.9L9.399999618530273,10.3L9.399999618530273,4L10.599999618530273,4L10.599999618530273,9.7L13.899999618530273,13L12.999999618530273,13.9Z" fill="#000000" fill-opacity="1"/></g><g></g></g></svg>