<svg xmlns="http://www.w3.org/2000/svg" xmlns:xlink="http://www.w3.org/1999/xlink" fill="none" version="1.1" width="32" height="32" viewBox="0 0 32 32"><defs><clipPath id="master_svg0_134_22348"><rect x="0" y="0" width="32" height="32" rx="0"/></clipPath></defs><g clip-path="url(#master_svg0_134_22348)"><g><rect x="2" y="4" width="16" height="2" rx="0" fill="#000000" fill-opacity="1"/></g><g><rect x="4" y="8" width="12" height="2" rx="0" fill="#000000" fill-opacity="1"/></g><g><rect x="2" y="12" width="12" height="2" rx="0" fill="#000000" fill-opacity="1"/></g><g><rect x="2" y="16" width="10" height="2" rx="0" fill="#000000" fill-opacity="1"/></g><g><rect x="4" y="20" width="8" height="2" rx="0" fill="#000000" fill-opacity="1"/></g><g><rect x="8" y="24" width="6" height="2" rx="0" fill="#000000" fill-opacity="1"/></g><g><rect x="12" y="28" width="4" height="2" rx="0" fill="#000000" fill-opacity="1"/></g><g></g><g><path d="M29.911519619750976,13.935536239624023L23.628399619750976,2.3706002396240233C23.501949619750977,2.1419542396240234,23.261279619750976,2.0000362396240234,22.999999619750977,2.0000362396240234C22.738719619750977,2.0000362396240234,22.498049619750976,2.1419542396240234,22.371599619750977,2.3706002396240233L16.088499019750977,13.935536239624023C15.827223619750976,14.415036239624023,16.173938619750977,14.999436239624023,16.719999619750975,15.000036239624023L29.280019619750977,15.000036239624023C29.826019619750976,14.999436239624023,30.172819619750975,14.415036239624023,29.911519619750976,13.935536239624023ZM22.249999619750977,5.999996239624023L23.749999619750977,5.999996239624023L23.749999619750977,9.999996239624023L22.249999619750977,9.999996239624023L22.249999619750977,5.999996239624023ZM22.999999619750977,13.000036239624023C22.447719619750977,13.000036239624023,21.999999619750977,12.552236239624023,21.999999619750977,11.999996239624023C21.999999619750977,11.447716239624024,22.447719619750977,10.999996239624023,22.999999619750977,10.999996239624023C23.552279619750976,10.999996239624023,23.999999619750977,11.447716239624024,23.999999619750977,11.999996239624023C23.999999619750977,12.552236239624023,23.552279619750976,13.000036239624023,22.999999619750977,13.000036239624023Z" fill="#000000" fill-opacity="1"/></g><g></g></g></svg>