<svg xmlns="http://www.w3.org/2000/svg" xmlns:xlink="http://www.w3.org/1999/xlink" fill="none" version="1.1" width="32" height="32" viewBox="0 0 32 32"><defs><clipPath id="master_svg0_134_22361"><rect x="0" y="0" width="32" height="32" rx="0"/></clipPath></defs><g clip-path="url(#master_svg0_134_22361)"><g><path d="M20,8L18,8C18,5.23858,15.76142,3,13,3C10.238579999999999,3,8,5.23858,8,8L6,8C6,4.13401,9.13401,1,13,1C16.866,1,20,4.13401,20,8Z" fill="#000000" fill-opacity="1"/></g><g><path d="M25.00000555038452,15C24.48340555038452,15.0019,23.97630555038452,15.1398,23.530005550384523,15.4C22.98200555038452,14.53089,22.027405550384522,14.00264,21.00000555038452,14C20.48340555038452,14.00186,19.97630555038452,14.13982,19.530005550384523,14.4C18.78080555038452,13.22116,17.31720555038452,12.71532,16.00000555038452,13.18L16.00000555038452,8C16.00000555038452,6.34315,14.656805550384522,5,13.000005550384522,5C11.343145550384522,5,9.999995550384522,6.34315,9.999995550384522,8L9.999995550384522,19.1L7.769995550384522,17.58C7.258795550384521,17.1993,6.637385550384522,16.9957,5.999995550384522,17C4.783025550384521,16.997,3.6848155503845215,17.7295,3.2200195503845217,18.8542C2.7552225503845214,19.9789,3.0159432503845216,21.273,3.8800005503845214,22.13L11.88000555038452,29.43C13.01260555038452,30.4437,14.480005550384522,31.0029,16.00000555038452,31L21.00000555038452,31C24.86600555038452,31,28.00000555038452,27.866,28.00000555038452,24L28.00000555038452,18C28.00000555038452,16.3431,26.656805550384522,15,25.00000555038452,15ZM26.00000555038452,24C26.00000555038452,26.7614,23.76140555038452,29,21.00000555038452,29L16.00000555038452,29C14.989205550384522,29.0122,14.008405550384522,28.6568,13.240005550384522,28L5.289995550384521,20.7C5.105255550384522,20.5137,5.001105550384521,20.2623,4.999995550384522,20C4.999995550384522,19.6212,5.214005550384521,19.275,5.552785550384522,19.105600000000003C5.8915755503845215,18.9362,6.296985550384521,18.9727,6.599995550384522,19.2L11.999995550384522,22.9L11.999995550384522,8C11.999995550384522,7.44772,12.44771555038452,7,13.000005550384522,7C13.55230555038452,7,14.000005550384522,7.44772,14.000005550384522,8L14.000005550384522,19L16.00000555038452,19L16.00000555038452,16C16.00000555038452,15.4477,16.44770555038452,15,17.00000555038452,15C17.55230555038452,15,18.00000555038452,15.4477,18.00000555038452,16L18.00000555038452,19L20.00000555038452,19L20.00000555038452,17C20.00000555038452,16.447699999999998,20.447705550384523,16,21.00000555038452,16C21.55230555038452,16,22.00000555038452,16.447699999999998,22.00000555038452,17L22.00000555038452,19L24.00000555038452,19L24.00000555038452,18C24.00000555038452,17.447699999999998,24.447705550384523,17,25.00000555038452,17C25.55230555038452,17,26.00000555038452,17.447699999999998,26.00000555038452,18L26.00000555038452,24Z" fill="#000000" fill-opacity="1"/></g><g></g></g></svg>