<svg xmlns="http://www.w3.org/2000/svg" xmlns:xlink="http://www.w3.org/1999/xlink" fill="none" version="1.1" width="32" height="32" viewBox="0 0 32 32"><defs><clipPath id="master_svg0_134_22367"><rect x="0" y="0" width="32" height="32" rx="0"/></clipPath></defs><g clip-path="url(#master_svg0_134_22367)"><g><path d="M20,24L18,24C18,26.76142,15.76142,29,13,29C10.238579999999999,29,8,26.76142,8,24L6,24C6,27.86599,9.13401,31,13,31C16.866,31,20,27.86599,20,24Z" fill="#000000" fill-opacity="1"/></g><g><path d="M28.000050357818605,13.999996304512024L28.000050357818605,7.999996304512024C27.995350357818605,4.135946304512023,24.864050357818602,1.004682064512024,21.000050357818605,1.000000000002024L16.0000503578186,1.000000000002024C14.485250357818604,0.9983339345120239,13.023150357818604,1.556152304512024,11.894500357818604,2.5663963045120237L3.8833003578186034,9.873996304512024C2.7692043578186034,10.978736304512024,2.6950653578186037,12.755496304512024,3.7132563578186035,13.949196304512023C4.731450357818604,15.142896304512023,6.497690357818604,15.349896304512024,7.764300357818604,14.423996304512023L7.7651003578186035,14.425196304512024L10.000000357818603,12.895496304512024L10.000000357818603,23.999996304512024C10.000000357818603,25.656896304512024,11.343150357818603,26.999996304512024,13.000050357818603,26.999996304512024C14.656850357818604,26.999996304512024,16.0000503578186,25.656896304512024,16.0000503578186,23.999996304512024L16.0000503578186,18.815696304512024C17.316150357818604,19.305296304512023,18.794750357818604,18.795396304512025,19.529350357818604,17.598596304512025C19.976250357818603,17.858396304512024,20.483150357818605,17.996796304512024,21.000050357818605,17.999996304512024C22.027750357818604,17.997996304512025,22.982550357818603,17.468896304512025,23.529150357818605,16.59859630451202C23.976050357818604,16.858396304512024,24.483150357818605,16.996796304512024,25.000050357818605,16.999996304512024C26.656150357818603,16.998196304512025,27.998150357818602,15.656096304512024,28.000050357818605,13.999996304512024ZM26.000050357818605,13.999996304512024C26.000050357818605,14.552296304512025,25.552250357818604,14.999996304512024,25.000050357818605,14.999996304512024C24.447750357818602,14.999996304512024,24.000050357818605,14.552296304512025,24.000050357818605,13.999996304512024L24.000050357818605,12.999996304512024L22.000050357818605,12.999996304512024L22.000050357818605,14.999996304512024C22.000050357818605,15.552296304512025,21.552250357818604,15.999996304512024,21.000050357818605,15.999996304512024C20.447750357818602,15.999996304512024,20.000050357818605,15.552296304512025,20.000050357818605,14.999996304512024L20.000050357818605,12.999996304512024L18.0000503578186,12.999996304512024L18.0000503578186,15.999996304512024C18.0000503578186,16.552296304512026,17.552250357818604,16.999996304512024,17.0000503578186,16.999996304512024C16.447750357818606,16.999996304512024,16.0000503578186,16.552296304512026,16.0000503578186,15.999996304512024L16.0000503578186,12.999996304512024L14.000050357818603,12.999996304512024L14.000050357818603,23.999996304512024L14.000050357818603,23.999996304512024C14.000450357818604,24.552396304512023,13.552650357818603,25.000296304512023,13.000250357818604,25.000296304512023C12.447830357818603,25.000296304512023,12.000000357818603,24.552396304512023,12.000000357818603,23.999996304512024L12.000000357818603,9.104496304512024L6.600000357818604,12.800796304512025C6.180870357818604,13.115996304512024,5.589390357818603,13.053596304512023,5.245290357818604,12.657796304512024C4.901190357818604,12.262096304512024,4.921540357818603,11.667696304512024,5.291900357818603,11.296396304512024L13.242550357818603,4.044896304512024C14.002750357818604,3.370656304512024,14.983950357818603,2.998846304512024,16.0000503578186,2.999996304512024L21.000050357818605,2.999996304512024C23.760050357818603,3.003246304512024,25.996750357818602,5.239926304512024,26.000050357818605,7.999996304512024L26.000050357818605,13.999996304512024Z" fill="#000000" fill-opacity="1"/></g><g></g></g></svg>