<svg xmlns="http://www.w3.org/2000/svg" xmlns:xlink="http://www.w3.org/1999/xlink" fill="none" version="1.1" width="32" height="32" viewBox="0 0 32 32"><defs><clipPath id="master_svg0_134_22399"><rect x="0" y="0" width="32" height="32" rx="0"/></clipPath></defs><g clip-path="url(#master_svg0_134_22399)"><g><path d="M25.999976704406738,21L25.999976704406738,20C25.999976704406738,19.447699999999998,26.44767670440674,19,26.999976704406738,19C27.55227670440674,19,27.999976704406738,19.447699999999998,27.999976704406738,20L27.999976704406738,30L29.999976704406738,30L29.999976704406738,20C29.99817670440674,18.343899999999998,28.65607670440674,17.0018,26.999976704406738,17C26.483076704406738,17.0033,25.97607670440674,17.1416,25.529176704406737,17.401400000000002C24.687376704406738,16.03885,22.913176704406737,15.59529,21.529176704406737,16.401400000000002C20.98257670440674,15.53106,20.02777670440674,15.00198,18.999976704406738,15C18.658476704406738,15.00339,18.320176704406737,15.06584,17.999976704406738,15.1846L17.999976704406738,10C17.999976704406738,8.34315,16.656876704406738,7,14.999976704406738,7C13.343146704406738,7,11.999996704406739,8.34315,11.999996704406739,10L11.999996704406739,21.1045L9.765096704406737,19.575200000000002L9.765096704406737,19.575200000000002C8.497536704406738,18.6536,6.733986704406738,18.861800000000002,5.716977704406738,20.0541C4.699968704406738,21.246499999999997,4.772439704406739,23.0208,5.883299704406738,24.1262L12.322296704406739,30L13.670196704406738,28.522L7.291496704406738,22.7036C7.104476704406738,22.5173,6.999546704406738,22.264,6.999996704406739,22C7.000076704406738,21.621299999999998,7.214016704406738,21.275,7.552706704406738,21.1055C7.891396704406738,20.936,8.296776704406739,20.9723,8.599996704406738,21.199199999999998L13.999996704406739,24.8955L13.999996704406739,10C13.999996704406739,9.44771,14.447716704406739,9,14.999976704406738,9C15.552276704406738,9,15.999976704406738,9.44771,15.999976704406738,10L15.999976704406738,21L17.999976704406738,21L17.999976704406738,18C17.999976704406738,17.447699999999998,18.44767670440674,17,18.999976704406738,17C19.552276704406736,17,19.999976704406738,17.447699999999998,19.999976704406738,18L19.999976704406738,21L21.999976704406738,21L21.999976704406738,19C21.999976704406738,18.447699999999998,22.44767670440674,18,22.999976704406738,18C23.55227670440674,18,23.999976704406738,18.447699999999998,23.999976704406738,19L23.999976704406738,21L25.999976704406738,21Z" fill="#000000" fill-opacity="1"/></g><g><path d="M28,12L22,12L22,10L28,10L28,4L4,4L4,10L8,10L8,12L4,12C2.8959099999999998,11.99884,2.00115657,11.10409,2,10L2,4C2.00115776,2.8959099999999998,2.895911,2.00115776,4,2L28,2C29.1041,2.00115848,29.9988,2.895911,30,4L30,10C29.9988,11.10409,29.1041,11.99884,28,12Z" fill="#000000" fill-opacity="1"/></g><g></g></g></svg>