<svg xmlns="http://www.w3.org/2000/svg" xmlns:xlink="http://www.w3.org/1999/xlink" fill="none" version="1.1" width="32" height="32" viewBox="0 0 32 32"><defs><clipPath id="master_svg0_134_22405"><rect x="0" y="0" width="32" height="32" rx="0"/></clipPath></defs><g clip-path="url(#master_svg0_134_22405)"><g><path d="M24,18.000000953674316L19.2212,11.598100953674317C18.4233,10.541900953674316,18,9.296100953674316,18,8.000000953674316C18,4.691700953674316,20.6914,2.0000009536743164,24,2.0000009536743164C27.3086,2.0000009536743164,30,4.691700953674316,30,8.000000953674316C30,9.296100953674316,29.576700000000002,10.542000953674316,28.775399999999998,11.602800953674317L24,18.000000953674316ZM24,4.000000953674316C21.7944,4.000000953674316,20,5.794400953674316,20,8.000000953674316C20,8.857700953674318,20.2837,9.686500953674315,20.8203,10.397200953674316L24,14.656700953674317L27.176299999999998,10.401800953674316C27.7163,9.686500953674315,28,8.857600953674316,28,7.999900953674317C28,5.794300953674316,26.2056,3.9999009536743166,24,4.000000953674316Z" fill="#000000" fill-opacity="1"/></g><g><ellipse cx="24" cy="8" rx="2" ry="2" fill="#000000" fill-opacity="1"/></g><g><path d="M28,18L28,22L4,22L4,6L14,6L14,4L4,4C2.8955,4,2,4.8955,2,6L2,22C2,23.1045,2.8955,24,4,24L12,24L12,28L8,28L8,30L24,30L24,28L20,28L20,24L28,24C29.1046,24,30,23.1045,30,22L30,18L28,18ZM18,28L14,28L14,24L18,24L18,28Z" fill="#000000" fill-opacity="1"/></g><g></g></g></svg>