<svg xmlns="http://www.w3.org/2000/svg" xmlns:xlink="http://www.w3.org/1999/xlink" fill="none" version="1.1" width="32" height="32" viewBox="0 0 32 32"><defs><clipPath id="master_svg0_134_22417"><rect x="0" y="0" width="32" height="32" rx="0"/></clipPath></defs><g clip-path="url(#master_svg0_134_22417)"><g><rect x="11" y="21" width="6" height="2" rx="0" fill="#000000" fill-opacity="1"/></g><g><path d="M24.2456,8L25.96,14L30,14L30,12L27.4688,12L26.1688,7.4512C25.9215,6.59383,25.1379,6.00259,24.2456,6L22.8972,6L22.1685,3.4512C21.9212,2.593935,21.1378,2.00272632,20.2456,2L7.7544,2C6.86233,2.00269508,6.07902,2.5936529999999998,5.8315,3.4507000000000003L4.5312,8L2,8L2,10L6.04,10L7.7544,4L20.2456,4L20.8171,6L11.7544,6C10.86255,6.00267,10.07933,6.59327,9.8315,7.45L8.8171,11L7.7144,11C6.85968,10.99958,6.09935,11.54286,5.8228,12.3516L4.5715,16L2,16L2,18L4,18L4,25C4.00138,26.104,4.896,26.9986,6,27L6,30L8,30L8,27L20,27L20,30L22,30L22,27C23.104,26.9986,23.9986,26.104,24,25L24,18L26,18L26,16L23.4287,16L22.1777,12.3525C21.9012,11.54336,21.1407,10.99971,20.2856,11L10.897,11L11.7544,8L24.2456,8ZM22,19L22,21L20,21L20,23L22,23L22,25L6,25L6,23L8,23L8,21L6,21L6,19L22,19ZM21.6571,17L6.3428,17L7.7144,13L20.2856,13L21.6571,17Z" fill="#000000" fill-opacity="1"/></g><g></g></g></svg>