<svg xmlns="http://www.w3.org/2000/svg" xmlns:xlink="http://www.w3.org/1999/xlink" fill="none" version="1.1" width="32" height="32" viewBox="0 0 32 32"><defs><clipPath id="master_svg0_134_22423"><rect x="0" y="0" width="32" height="32" rx="0"/></clipPath></defs><g clip-path="url(#master_svg0_134_22423)"><g><path d="M26,8L22,4L18,8L19.41,9.42L21,7.83L21,18L23,18L23,7.83L24.58,9.41L26,8Z" fill="#000000" fill-opacity="1"/></g><g><path d="M12.59,22.58L11,24.17L11,14L9,14L9,24.17L7.42,22.59L6,24L10,28L14,24L12.59,22.58Z" fill="#000000" fill-opacity="1"/></g><g><rect x="2" y="2" width="2" height="28" rx="0" fill="#000000" fill-opacity="1"/></g><g><rect x="28" y="2" width="2" height="28" rx="0" fill="#000000" fill-opacity="1"/></g><g><rect x="15" y="2" width="2" height="4" rx="0" fill="#000000" fill-opacity="1"/></g><g><rect x="15" y="10" width="2" height="4" rx="0" fill="#000000" fill-opacity="1"/></g><g><rect x="15" y="18" width="2" height="4" rx="0" fill="#000000" fill-opacity="1"/></g><g><rect x="15" y="26" width="2" height="4" rx="0" fill="#000000" fill-opacity="1"/></g><g></g></g></svg>