<svg xmlns="http://www.w3.org/2000/svg" xmlns:xlink="http://www.w3.org/1999/xlink" fill="none" version="1.1" width="32" height="32" viewBox="0 0 32 32"><defs><clipPath id="master_svg0_134_22412"><rect x="0" y="0" width="32" height="32" rx="0"/></clipPath></defs><g clip-path="url(#master_svg0_134_22412)"><g><path d="M24.7957,28L18.974600000000002,2.7754C18.8701,2.321559,18.465899999999998,2,18,2L14,2C13.53419,1.9999307394,13.13002,2.32149,13.0254,2.7754L7.2043,28L4,28L4,30L28,30L28,28L24.7957,28ZM19.973599999999998,16L12.0264,16L12.9493,12L19.0507,12L19.973599999999998,16ZM20.4352,18L21.3582,22L10.6418,22L11.5648,18L20.4352,18ZM14.7952,4L17.2044,4L18.588900000000002,10L13.4109,10L14.7952,4ZM10.18,24L21.82,24L22.743,28L9.2573,28L10.18,24Z" fill="#241F20" fill-opacity="1"/></g><g></g></g></svg>