<svg xmlns="http://www.w3.org/2000/svg" xmlns:xlink="http://www.w3.org/1999/xlink" fill="none" version="1.1" width="32" height="32" viewBox="0 0 32 32"><defs><clipPath id="master_svg0_134_22454"><rect x="0" y="0" width="32" height="32" rx="0"/></clipPath></defs><g clip-path="url(#master_svg0_134_22454)"><g><rect x="2" y="24" width="2" height="6" rx="0" fill="#000000" fill-opacity="1"/></g><g><rect x="28" y="2" width="2" height="28" rx="0" fill="#000000" fill-opacity="1"/></g><g><rect x="15" y="2" width="2" height="4" rx="0" fill="#000000" fill-opacity="1"/></g><g><rect x="15" y="10" width="2" height="4" rx="0" fill="#000000" fill-opacity="1"/></g><g><rect x="15" y="18" width="2" height="4" rx="0" fill="#000000" fill-opacity="1"/></g><g><rect x="15" y="26" width="2" height="4" rx="0" fill="#000000" fill-opacity="1"/></g><g><path d="M6,12.00000170967102C3.8540799999999997,12.05733170967102,2.0657642,10.368681709671021,2,8.22300170967102C2.0187304,7.48718170967102,2.245216,6.77167170967102,2.6532999999999998,6.15910170967102L5.17,2.4140997096710204C5.5852900000000005,1.8620087096710205,6.41391,1.8620087096710205,6.8292,2.4140997096710204L9.3154,6.11000170967102C9.74003,6.73483170967102,9.97753,7.46787170967102,10,8.22300170967102C9.934239999999999,10.368681709671021,8.14592,12.05733170967102,6,12.00000170967102ZM6,4.763201709671021L4.3438,7.2257017096710205C4.13687,7.51876170967102,4.01762,7.86467170967102,4,8.22300170967102C4.06607,9.26388170967102,4.95856,10.05708170967102,6,10.00050170967102C7.04144,10.05708170967102,7.93393,9.26388170967102,8,8.22300170967102C7.97752,7.84548170967102,7.84739,7.482291709671021,7.625,7.176401709671021L6,4.763201709671021Z" fill="#000000" fill-opacity="1"/></g><g><path d="M11,11.762700080871582L9.3438,14.225300080871582C9.136868,14.518370080871582,9.0176239,14.864270080871583,9,15.222600080871583C9.0661201,16.263440080871582,9.9586,17.056590080871583,11,17.000000080871583C12.0414,17.056590080871583,12.93388,16.263440080871582,13,15.222600080871583C12.97754,14.845040080871582,12.84741,14.481820080871582,12.625,14.175900080871582L11,11.762700080871582Z" fill="#000000" fill-opacity="1"/></g><g><path d="M6,15.762700080871582L4.3438,18.225300080871584C4.136869,18.51837008087158,4.0176234,18.86427008087158,4,19.222600080871583C4.0661206,20.263440080871582,4.958601,21.056590080871583,6,21.000000080871583C7.041399999999999,21.056590080871583,7.93388,20.263440080871582,8,19.222600080871583C7.977539999999999,18.84504008087158,7.84741,18.481820080871582,7.625,18.175900080871582L6,15.762700080871582Z" fill="#000000" fill-opacity="1"/></g><g></g></g></svg>