<svg xmlns="http://www.w3.org/2000/svg" xmlns:xlink="http://www.w3.org/1999/xlink" fill="none" version="1.1" width="32" height="32" viewBox="0 0 32 32"><defs><clipPath id="master_svg0_134_22497"><rect x="0" y="0" width="32" height="32" rx="0"/></clipPath></defs><g clip-path="url(#master_svg0_134_22497)"><g></g><g><path d="M24,1C20.68629,1,18,3.68629,18,7C18,10.31371,20.68629,13,24,13C27.31371,13,30,10.31371,30,7C29.9964,3.6878,27.3122,1.00363946,24,1ZM25.4971,10.0884L22.875,7.4658L22.875,3L25.125,3L25.125,6.5342L27.088900000000002,8.4976L25.4971,10.0884Z" fill="#000000" fill-opacity="1"/></g><g><path d="M6,16L6,10L15,10L15,8L6.1843,8C6.60522,6.8047699999999995,7.73283,6.00383,9,6L15,6L15,4L9,4C6.239879999999999,4.0031414,4.0031414,6.239879999999999,4,9L4,21C4.00762892,23.2072,5.46445,25.1472,7.582,25.77L5.7693,30L7.9451,30L9.6594,26L18.340600000000002,26L20.0549,30L22.2307,30L20.418,25.77C22.5356,25.1472,23.9924,23.2072,24,21L24,16L6,16ZM22,20L19,20L19,22L21.8157,22C21.3948,23.1952,20.2672,23.9962,19,24L9,24C7.73283,23.9962,6.60522,23.1952,6.1843,22L9,22L9,20L6,20L6,18L22,18L22,20Z" fill="#000000" fill-opacity="1"/></g><g></g></g></svg>