<svg xmlns="http://www.w3.org/2000/svg" xmlns:xlink="http://www.w3.org/1999/xlink" fill="none" version="1.1" width="32" height="32" viewBox="0 0 32 32"><defs><clipPath id="master_svg0_134_22472"><rect x="0" y="0" width="32" height="32" rx="0"/></clipPath></defs><g clip-path="url(#master_svg0_134_22472)"><g><path d="M27.30300237060547,1.9999999999524658C26.58430237060547,1.9999945163724657,25.896162370605467,2.290667840652466,25.395102370605468,2.805899840652466L25.001902370605467,3.2111978406524657L24.60490237060547,2.805899840652466C23.55995237060547,1.7313508406524658,21.83414237060547,1.7313508406524658,20.78919937060547,2.805899840652466C19.736923370605467,3.891527840652466,19.736923370605467,5.616577840652466,20.78919937060547,6.702197840652466L25.001902370605467,10.999997840652465L29.21080237060547,6.702197840652466C30.26309237060547,5.616577840652466,30.26309237060547,3.891527840652466,29.21080237060547,2.805899840652466C28.70971237060547,2.290671840652466,28.021612370605467,2.0000002384524658,27.30300237060547,1.9999999999524658Z" fill="#000000" fill-opacity="1"/></g><g><path d="M22,13L22,16L6,16L6,10L15,10L15,8L6.1843,8C6.60522,6.8047699999999995,7.73283,6.00383,9,6L15,6L15,4L9,4C6.239879999999999,4.0031414,4.0031414,6.239879999999999,4,9L4,21C4.00762892,23.2072,5.46445,25.1472,7.582,25.77L5.7693,30L7.9451,30L9.6594,26L18.340600000000002,26L20.0549,30L22.2307,30L20.418,25.77C22.5356,25.1472,23.9924,23.2072,24,21L24,13L22,13ZM22,20L19,20L19,22L21.8157,22C21.3948,23.1952,20.2672,23.9962,19,24L9,24C7.73283,23.9962,6.60522,23.1952,6.1843,22L9,22L9,20L6,20L6,18L22,18L22,20Z" fill="#000000" fill-opacity="1"/></g><g></g></g></svg>