<svg xmlns="http://www.w3.org/2000/svg" xmlns:xlink="http://www.w3.org/1999/xlink" fill="none" version="1.1" width="32" height="32" viewBox="0 0 32 32"><defs><clipPath id="master_svg0_134_22548"><rect x="0" y="0" width="32" height="32" rx="0"/></clipPath></defs><g clip-path="url(#master_svg0_134_22548)"><g><path d="M27.849999618530273,29L29.999999618530275,29L23.999999618530275,14L21.649999618530273,14L15.649999618530273,29L17.799999618530272,29L19.399999618530273,25L26.249999618530275,25L27.849999618530273,29ZM20.199999618530274,23L22.819999618530275,16.44L25.449999618530274,23L20.199999618530274,23Z" fill="#000000" fill-opacity="1"/></g><g><path d="M18,7L18,5L11,5L11,2L9,2L9,5L2,5L2,7L12.74,7C12.1859,9.28537,11.09202,11.40459,9.55,13.18C8.5448,11.93351,7.76939,10.51812,7.26,9L5.16,9C5.78947,11.03662,6.80832,12.9317,8.16,14.58C6.66611,16.0291,4.9165600000000005,17.1887,3,18L3.75,19.86C5.90358,18.9507,7.86497,17.6408,9.530000000000001,16C11.16483,17.6633,13.1259,18.9707,15.29,19.84L16,18C14.0724,17.2549,12.3266,16.105800000000002,10.88,14.63C12.7946,12.448,14.1411,9.82714,14.8,7L18,7Z" fill="#000000" fill-opacity="1"/></g><g></g></g></svg>