<svg xmlns="http://www.w3.org/2000/svg" xmlns:xlink="http://www.w3.org/1999/xlink" fill="none" version="1.1" width="32" height="32" viewBox="0 0 32 32"><defs><clipPath id="master_svg0_134_22568"><rect x="0" y="0" width="32" height="32" rx="0"/></clipPath></defs><g clip-path="url(#master_svg0_134_22568)"><g><rect x="12" y="12" width="2" height="12" rx="0" fill="#000000" fill-opacity="1"/></g><g><rect x="18" y="12" width="2" height="12" rx="0" fill="#000000" fill-opacity="1"/></g><g><path d="M4,6L4,8L6,8L6,28C6,29.1046,6.89543,30,8,30L24,30C25.1046,30,26,29.1046,26,28L26,8L28,8L28,6L4,6ZM8,28L8,8L24,8L24,28L8,28Z" fill="#000000" fill-opacity="1"/></g><g><rect x="12" y="2" width="8" height="2" rx="0" fill="#000000" fill-opacity="1"/></g><g></g></g></svg>