<svg xmlns="http://www.w3.org/2000/svg" xmlns:xlink="http://www.w3.org/1999/xlink" fill="none" version="1.1" width="32" height="32" viewBox="0 0 32 32"><defs><clipPath id="master_svg0_134_22730"><rect x="0" y="0" width="32" height="32" rx="0"/></clipPath></defs><g clip-path="url(#master_svg0_134_22730)"><g><path d="M4,20L4,22L8.586,22L2,28.586L3.4139999999999997,30L10,23.414L10,28L12,28L12,20L4,20Z" fill="#000000" fill-opacity="1"/></g><g><path d="M21,4L24,4L24,16L26,16L26,4L29,4L29,2L21,2L21,4Z" fill="#000000" fill-opacity="1"/></g><g><path d="M20,2L18,2L16,8L14,2L12,2L14.751999999999999,9L12,16L14,16L16,10L18,16L20,16L17.245,9L20,2Z" fill="#000000" fill-opacity="1"/></g><g><path d="M3,4L6,4L6,16L8,16L8,4L11,4L11,2L3,2L3,4Z" fill="#000000" fill-opacity="1"/></g><g></g></g></svg>