<svg xmlns="http://www.w3.org/2000/svg" xmlns:xlink="http://www.w3.org/1999/xlink" fill="none" version="1.1" width="32" height="32" viewBox="0 0 32 32"><defs><clipPath id="master_svg0_134_24229"><rect x="0" y="0" width="32" height="32" rx="0"/></clipPath></defs><g clip-path="url(#master_svg0_134_24229)"><g><path d="M13,23L9,23C7.895431,23,7,22.104599999999998,7,21L7,9L9,9L9,21L13,21L13,9L15,9L15,21C15,22.104599999999998,14.104569999999999,23,13,23Z" fill="#000000" fill-opacity="1"/></g><g><path d="M23,9L17,9L17,11L23,11L23,15L18,15L18,17L23,17L23,21L17,21L17,23L23,23C24.10457,23,25,22.104599999999998,25,21L25,11C25,9.895431,24.10457,9,23,9Z" fill="#000000" fill-opacity="1"/></g><g></g></g></svg>