<svg xmlns="http://www.w3.org/2000/svg" xmlns:xlink="http://www.w3.org/1999/xlink" fill="none" version="1.1" width="32" height="32" viewBox="0 0 32 32"><defs><clipPath id="master_svg0_134_22759"><rect x="0" y="0" width="32" height="32" rx="0"/></clipPath></defs><g clip-path="url(#master_svg0_134_22759)"><g><rect x="11" y="14" width="10" height="4" rx="0" fill="#000000" fill-opacity="1"/></g><g><path d="M29.391,14.527L17.473,2.609C17.067,2.203,16.533,2,16,2C15.467,2,14.933,2.203,14.527,2.609L2.609,14.527C2.203,14.933,2,15.466,2,16C2,16.534,2.203,17.067,2.609,17.473L14.526,29.39C14.933,29.797,15.467,30,16,30C16.533,30,17.067,29.797,17.473,29.391L29.39,17.474C29.797,17.067,30,16.534,30,16C30,15.466,29.797,14.933,29.391,14.527ZM16,28.036L3.965,16L16,3.964L28.036,16L16,28.036Z" fill="#000000" fill-opacity="1"/></g><g></g></g></svg>