<svg xmlns="http://www.w3.org/2000/svg" xmlns:xlink="http://www.w3.org/1999/xlink" fill="none" version="1.1" width="32" height="32" viewBox="0 0 32 32"><defs><clipPath id="master_svg0_134_22776"><rect x="0" y="0" width="32" height="32" rx="0"/></clipPath></defs><g clip-path="url(#master_svg0_134_22776)"><g><path d="M30,14L30,10L26,10L26,12L20,12L20,6L22,6L22,2L18,2L18,4L6,4L6,2L2,2L2,6L4,6L4,18L2,18L2,22L6,22L6,20L12,20L12,26L10,26L10,30L14,30L14,28L26,28L26,30L30,30L30,26L28,26L28,14L30,14ZM6,6L18,6L18,18L6,18L6,6ZM26,26L14,26L14,20L18,20L18,22L22,22L22,18L20,18L20,14L26,14L26,26Z" fill="#000000" fill-opacity="1"/></g><g></g></g></svg>