<svg xmlns="http://www.w3.org/2000/svg" xmlns:xlink="http://www.w3.org/1999/xlink" fill="none" version="1.1" width="32" height="32" viewBox="0 0 32 32"><defs><clipPath id="master_svg0_134_22794"><rect x="0" y="0" width="32" height="32" rx="0"/></clipPath></defs><g clip-path="url(#master_svg0_134_22794)"><g transform="matrix(0.7069833278656006,-0.7072302103042603,0.7072302103042603,0.7069833278656006,-2.4873412423929153,4.000347761910348)"><rect x="3.583984375" y="5.001919269561768" width="2" height="4.829999923706055" rx="0" fill="#000000" fill-opacity="1"/></g><g transform="matrix(0.7072302103042603,-0.7069833278656006,0.7069833278656006,0.7072302103042603,-10.765096513729077,23.988715202664025)"><rect x="23.58154296875" y="24.9921875" width="2" height="4.829999923706055" rx="0" fill="#000000" fill-opacity="1"/></g><g><rect x="11" y="2" width="2" height="4" rx="0" fill="#000000" fill-opacity="1"/></g><g><rect x="2" y="11" width="4" height="2" rx="0" fill="#000000" fill-opacity="1"/></g><g><rect x="26" y="19" width="4" height="2" rx="0" fill="#000000" fill-opacity="1"/></g><g><rect x="19" y="26" width="2" height="4" rx="0" fill="#000000" fill-opacity="1"/></g><g><path d="M16.57999284515381,21.07L12.870002845153808,24.79C11.30703284515381,26.353,8.77296284515381,26.353,7.2100028451538085,24.79C5.6470328451538085,23.22703,5.6470328451538085,20.69296,7.2100028451538085,19.13L10.930002845153808,15.41L9.510002845153808,14L5.800002845153808,17.72C3.4035508451538083,20.052509999999998,3.3765608451538087,23.89405,5.740002845153809,26.259999999999998C6.872312845153809,27.3831,8.405182845153808,28.0092,10.000002845153809,28C11.622712845153808,28.0016,13.178482845153809,27.3533,14.31999284515381,26.2L17.99999284515381,22.490000000000002L16.57999284515381,21.07Z" fill="#000000" fill-opacity="1"/></g><g><path d="M15.41,10.929998672103881L19.13,7.2099986721038825C20.69296,5.647038672103882,23.22703,5.647038672103882,24.79,7.2099986721038825C26.353,8.772968672103882,26.353,11.307028672103883,24.79,12.869998672103883L21.07,16.58999867210388L22.490000000000002,17.99999867210388L26.2,14.279998672103881C28.5965,11.947488672103882,28.6234,8.105948672103882,26.259999999999998,5.739998672103882C25.1277,4.616880672103882,23.59482,3.9907791621038817,22,4.000000000103882C20.377290000000002,3.9984402621038817,18.82151,4.646680672103882,17.68,5.799998672103882L14,9.509998672103883L15.41,10.929998672103881Z" fill="#000000" fill-opacity="1"/></g><g></g></g></svg>