<svg xmlns="http://www.w3.org/2000/svg" xmlns:xlink="http://www.w3.org/1999/xlink" fill="none" version="1.1" width="32" height="32" viewBox="0 0 32 32"><defs><clipPath id="master_svg0_134_22817"><rect x="0" y="0" width="32" height="32" rx="0"/></clipPath></defs><g clip-path="url(#master_svg0_134_22817)"><g><path d="M27,25.586L25,23.586L25,21L23,21L23,24.414L25.586,27L27,25.586Z" fill="#000000" fill-opacity="1"/></g><g><path d="M24,31C20.13401,31,17,27.866,17,24C17,20.13401,20.13401,17,24,17C27.866,17,31,20.13401,31,24C30.9957,27.8642,27.8642,30.9957,24,31ZM24,19C21.23858,19,19,21.23858,19,24C19,26.76142,21.23858,29,24,29C26.76142,29,29,26.76142,29,24C28.997,21.23983,26.760170000000002,19.00303,24,19Z" fill="#000000" fill-opacity="1"/></g><g><path d="M16,28C9.37564,27.9926,4.0073799999999995,22.62436,4,16L2,16C2.00871062,23.72838,8.27163,29.991300000000003,16,30L16,28Z" fill="#000000" fill-opacity="1"/></g><g><path d="M12,7.999996422233582L7.0784,7.999996422233582C10.391580000000001,4.291326422233581,15.651,3.0141964222335815,20.296,4.790376422233582C24.9411,6.566546422233581,28.0065,11.026936422233582,28,15.999956422233582L30,15.999956422233582C30.009,10.306566422233582,26.5639,5.176606422233581,21.2904,3.0307864222335814C16.0168,0.8849564222335815,9.968689999999999,2.1521504222335817,6,6.234396422233582L6,2.0000000002335816L4,2.0000000002335816L4,9.99999642223358L12,9.99999642223358L12,7.999996422233582Z" fill="#000000" fill-opacity="1"/></g><g></g></g></svg>