<svg xmlns="http://www.w3.org/2000/svg" xmlns:xlink="http://www.w3.org/1999/xlink" fill="none" version="1.1" width="32" height="32" viewBox="0 0 32 32"><defs><clipPath id="master_svg0_134_22825"><rect x="0" y="0" width="32" height="32" rx="0"/></clipPath></defs><g clip-path="url(#master_svg0_134_22825)"><g><path d="M21,24L11,24C9.895431,24,9,24.89543,9,26L9,28C9,29.10457,9.895431,30,11,30L21,30C22.104599999999998,30,23,29.10457,23,28L23,26C23,24.89543,22.104599999999998,24,21,24ZM21,28L11,28L11,26L21,26L21,28Z" fill="#000000" fill-opacity="1"/></g><g><path d="M28.7069859664917,14.292964952468871L16.7069859664917,2.2929999524688722C16.316685966491697,1.9022865524688721,15.683385966491699,1.9022865524688721,15.292985966491699,2.2929999524688722L3.2930009664916993,14.292964952468871C3.0070936664916994,14.578964952468873,2.921579866491699,15.009064952468872,3.0763234664916994,15.382664952468872C3.2311969664916993,15.756364952468871,3.5957349664916993,15.999964952468872,3.999999966491699,15.999964952468872L8.9999959664917,15.999964952468872L8.9999959664917,19.999964952468872C9.0012659664917,21.10406495246887,9.895955966491698,21.99876495246887,10.9999959664917,21.999964952468872L20.9999859664917,21.999964952468872C22.1039859664917,21.998464952468872,22.9984859664917,21.10396495246887,22.9999859664917,19.999964952468872L22.9999859664917,15.999964952468872L27.9999859664917,15.999964952468872C28.4043859664917,15.999864952468872,28.7688859664917,15.756264952468872,28.9236859664917,15.382664952468872C29.078385966491698,15.009064952468872,28.9928859664917,14.578964952468873,28.7069859664917,14.292964952468871ZM20.9999859664917,13.999964952468872L20.9999859664917,19.999964952468872L10.9999959664917,19.999964952468872L10.9999959664917,13.999964952468872L6.414095966491699,13.999964952468872L15.9999859664917,4.414104952468872L25.5858859664917,13.999964952468872L20.9999859664917,13.999964952468872Z" fill="#000000" fill-opacity="1"/></g><g></g></g></svg>