<svg xmlns="http://www.w3.org/2000/svg" xmlns:xlink="http://www.w3.org/1999/xlink" fill="none" version="1.1" width="32" height="32" viewBox="0 0 32 32"><defs><clipPath id="master_svg0_134_23025"><rect x="0" y="0" width="32" height="32" rx="0"/></clipPath></defs><g clip-path="url(#master_svg0_134_23025)"><g><path d="M30,10L30,8L27.898899999999998,8C27.77,7.37406,27.5214,6.77888,27.167,6.2471L28.657,4.757099999999999L27.243000000000002,3.3430999999999997L25.753,4.8331C25.2212,4.47861,24.62598,4.2300699999999996,24,4.101100000000001L24,2L22,2L22,4.101100000000001C21.37406,4.23005,20.77888,4.47855,20.2471,4.833L18.7571,3.343L17.3431,4.757L18.8331,6.247C18.47861,6.77881,18.23006,7.37402,18.1011,8L16,8L16,10L18.1011,10C18.23005,10.62594,18.47856,11.22112,18.833,11.7529L17.343,13.2429L18.757,14.6569L20.247,13.1669C20.77881,13.5214,21.37402,13.7699,22,13.8989L22,16L24,16L24,13.8989C24.62594,13.77,25.22112,13.5214,25.7529,13.167L27.2429,14.657L28.6569,13.243L27.1669,11.753C27.5214,11.22119,27.7699,10.62598,27.898899999999998,10L30,10ZM23,12C21.34315,12,20,10.65685,20,9C20,7.34315,21.34315,6,23,6C24.65685,6,26,7.34315,26,9C25.998179999999998,10.6561,24.656100000000002,11.99818,23,12Z" fill="#000000" fill-opacity="1"/></g><g><path d="M16,30L14,30L14,25C13.9982,23.3439,12.6561,22.00182,11,22L7,22C5.3439,22.00182,4.00182,23.3439,4,25L4,30L2,30L2,25C2.00325084,22.23993,4.23992,20.00325203,7,20L11,20C13.7601,20.00325012,15.9967,22.23992,16,25L16,30Z" fill="#000000" fill-opacity="1"/></g><g><path d="M9,10C10.65685,10,12,11.34315,12,13C12,14.65685,10.65685,16,9,16C7.34315,16,6,14.65685,6,13C6,11.34315,7.34315,10,9,10ZM9,8C6.23858,8,4,10.238579999999999,4,13C4,15.761420000000001,6.23858,18,9,18C11.761420000000001,18,14,15.761420000000001,14,13C14,10.238579999999999,11.761420000000001,8,9,8Z" fill="#000000" fill-opacity="1"/></g><g></g></g></svg>