<svg xmlns="http://www.w3.org/2000/svg" xmlns:xlink="http://www.w3.org/1999/xlink" fill="none" version="1.1" width="32" height="32" viewBox="0 0 32 32"><defs><clipPath id="master_svg0_134_23018"><rect x="0" y="0" width="32" height="32" rx="0"/></clipPath></defs><g clip-path="url(#master_svg0_134_23018)"><g><path d="M25.334000054321287,11.9500020129776L26.53954005432129,10.7440020129776C26.871140054321287,10.4162320129776,27.36484005432129,10.3149120129776,27.79884005432129,10.4856020129776L29.26814005432129,11.0724020129776C29.706940054321286,11.2506520129776,29.99564005432129,11.6752420129776,30.00004005432129,12.1488920129776L30.00004005432129,14.8408920129776C29.995040054321287,15.4859920129776,29.46804005432129,16.004992012977603,28.82294005432129,15.9999920129776L28.77294005432129,15.9984920129776C18.47750005432129,15.3577920129776,16.40000005432129,6.6357020129776005,16.00729942432129,3.2976020129776C15.936017054321288,2.6565650129776,16.39778505432129,2.0790748129776,17.03880005432129,2.0076000729776C17.08404005432129,2.0023679729776003,17.12956005432129,1.9998302459776,17.175100054321288,1.9999999999976001L19.77450005432129,1.9999999999976001C20.24912005432129,2.0014700929776,20.675200054321287,2.2912980129776,20.85090005432129,2.7322000129776L21.43750005432129,4.2022020129776C21.61384005432129,4.6348820129776005,21.514250054321288,5.1310820129776005,21.18460005432129,5.4622020129776L19.97910005432129,6.6680020129776Q20.673300054321288,11.3682020129776,25.334000054321287,11.9500020129776Z" fill="#000000" fill-opacity="1"/></g><g><path d="M16,30L14,30L14,25C13.9982,23.3439,12.6561,22.00182,11,22L7,22C5.3439,22.00182,4.00182,23.3439,4,25L4,30L2,30L2,25C2.00325084,22.23993,4.23992,20.00325203,7,20L11,20C13.7601,20.00325012,15.9967,22.23992,16,25L16,30Z" fill="#000000" fill-opacity="1"/></g><g><path d="M9,10C10.65685,10,12,11.34315,12,13C12,14.65685,10.65685,16,9,16C7.34315,16,6,14.65685,6,13C6,11.34315,7.34315,10,9,10ZM9,8C6.23858,8,4,10.238579999999999,4,13C4,15.761420000000001,6.23858,18,9,18C11.761420000000001,18,14,15.761420000000001,14,13C14,10.238579999999999,11.761420000000001,8,9,8Z" fill="#000000" fill-opacity="1"/></g><g></g></g></svg>