<svg xmlns="http://www.w3.org/2000/svg" xmlns:xlink="http://www.w3.org/1999/xlink" fill="none" version="1.1" width="32" height="32" viewBox="0 0 32 32"><defs><clipPath id="master_svg0_134_22904"><rect x="0" y="0" width="32" height="32" rx="0"/></clipPath></defs><g clip-path="url(#master_svg0_134_22904)"><g><path d="M21,13Q21,13.12274,20.99398,13.245339999999999Q20.987949999999998,13.367930000000001,20.975920000000002,13.49009Q20.96389,13.61224,20.945880000000002,13.73365Q20.92787,13.855070000000001,20.90392,13.97545Q20.87998,14.095839999999999,20.85015,14.2149Q20.82033,14.333960000000001,20.7847,14.451419999999999Q20.74907,14.56888,20.707720000000002,14.68445Q20.66637,14.80002,20.6194,14.91342Q20.57242,15.02682,20.51995,15.13777Q20.46747,15.24873,20.40961,15.35698Q20.35174,15.46523,20.28864,15.570509999999999Q20.225540000000002,15.67579,20.15735,15.77785Q20.08915,15.879909999999999,20.01604,15.9785Q19.94292,16.077080000000002,19.86505,16.17197Q19.78718,16.266849999999998,19.70475,16.35779Q19.622320000000002,16.44874,19.53553,16.53553Q19.44874,16.622320000000002,19.35779,16.70475Q19.266849999999998,16.78718,19.17197,16.86505Q19.077080000000002,16.94292,18.9785,17.01604Q18.87991,17.08915,18.77785,17.15735Q18.67579,17.225540000000002,18.57051,17.28864Q18.46523,17.35174,18.35698,17.40961Q18.248730000000002,17.46747,18.13777,17.51995Q18.02682,17.57242,17.913420000000002,17.6194Q17.80002,17.66637,17.68445,17.707720000000002Q17.56888,17.74907,17.45142,17.7847Q17.33396,17.82033,17.2149,17.85015Q17.09584,17.87998,16.975450000000002,17.90392Q16.85507,17.92787,16.73365,17.945880000000002Q16.61224,17.96389,16.490090000000002,17.975920000000002Q16.36793,17.987949999999998,16.24534,17.99398Q16.12274,18,16,18Q15.87726,18,15.754660000000001,17.99398Q15.632069999999999,17.987949999999998,15.50991,17.975920000000002Q15.38776,17.96389,15.26635,17.945880000000002Q15.144929999999999,17.92787,15.02455,17.90392Q14.904160000000001,17.87998,14.7851,17.85015Q14.66603,17.82033,14.54858,17.7847Q14.43112,17.74907,14.31555,17.707720000000002Q14.19998,17.66637,14.08658,17.6194Q13.97318,17.57242,13.86222,17.51995Q13.75127,17.46747,13.64302,17.40961Q13.53477,17.35174,13.42949,17.28864Q13.32421,17.225540000000002,13.22215,17.15735Q13.12009,17.08915,13.0215,17.01604Q12.92291,16.94292,12.82803,16.86505Q12.73315,16.78718,12.6422,16.70475Q12.55126,16.622320000000002,12.46447,16.53553Q12.37767,16.44874,12.29524,16.35779Q12.21282,16.266849999999998,12.13495,16.17197Q12.05708,16.077080000000002,11.983962,15.9785Q11.910844,15.879909999999999,11.842652,15.77785Q11.774459,15.67579,11.711357,15.570509999999999Q11.648254,15.46523,11.590394,15.35698Q11.532533,15.24873,11.480053,15.13777Q11.427574,15.02682,11.380602,14.91342Q11.333631,14.80002,11.29228,14.68445Q11.250929,14.56888,11.215298,14.451419999999999Q11.179668,14.333960000000001,11.149844,14.2149Q11.12002,14.095839999999999,11.0960736,13.97545Q11.0721276,13.855070000000001,11.0541174,13.73365Q11.0361073,13.61224,11.0240764,13.49009Q11.0120454,13.367930000000001,11.00602272,13.245339999999999Q11,13.12274,11,13Q11,12.87726,11.00602272,12.754660000000001Q11.0120454,12.632069999999999,11.0240764,12.50991Q11.0361073,12.38776,11.0541174,12.26635Q11.0721276,12.144929999999999,11.0960736,12.02455Q11.12002,11.904160000000001,11.149844,11.7851Q11.179668,11.66603,11.215298,11.54858Q11.250929,11.43112,11.29228,11.31555Q11.333631,11.19998,11.380602,11.08658Q11.427574,10.97318,11.480053,10.86222Q11.532533,10.75127,11.590394,10.64302Q11.648254,10.53477,11.711357,10.42949Q11.774459,10.32421,11.842652,10.22215Q11.910844,10.12009,11.983962,10.0215Q12.05708,9.92291,12.13495,9.82803Q12.21282,9.73315,12.29524,9.6422Q12.37767,9.55126,12.46447,9.46447Q12.55126,9.37767,12.6422,9.29524Q12.73315,9.21282,12.82803,9.13495Q12.92291,9.05708,13.0215,8.983962Q13.12009,8.910844,13.22215,8.842652Q13.32421,8.774459,13.42949,8.711357Q13.53477,8.648254,13.64302,8.590394Q13.75127,8.532533,13.86222,8.480053Q13.97318,8.427574,14.08658,8.380602Q14.19998,8.333631,14.31555,8.29228Q14.43112,8.250929,14.54858,8.215298Q14.66603,8.179668,14.7851,8.149844Q14.904160000000001,8.12002,15.02455,8.0960736Q15.144929999999999,8.0721276,15.26635,8.0541174Q15.38776,8.0361073,15.50991,8.0240764Q15.632069999999999,8.0120454,15.754660000000001,8.00602272Q15.87726,8,16,8Q16.12274,8,16.24534,8.00602272Q16.36793,8.0120454,16.490090000000002,8.0240764Q16.61224,8.0361073,16.73365,8.0541174Q16.85507,8.0721276,16.975450000000002,8.0960736Q17.09584,8.12002,17.2149,8.149844Q17.33396,8.179668,17.45142,8.215298Q17.56888,8.250929,17.68445,8.29228Q17.80002,8.333631,17.913420000000002,8.380602Q18.02682,8.427574,18.13777,8.480053Q18.248730000000002,8.532533,18.35698,8.590394Q18.46523,8.648254,18.57051,8.711357Q18.67579,8.774459,18.77785,8.842652Q18.87991,8.910844,18.9785,8.983962Q19.077080000000002,9.05708,19.17197,9.13495Q19.266849999999998,9.21282,19.35779,9.29524Q19.44874,9.37767,19.53553,9.46447Q19.622320000000002,9.55126,19.70475,9.6422Q19.78718,9.73315,19.86505,9.82803Q19.94292,9.92291,20.01604,10.0215Q20.08915,10.12009,20.15735,10.22215Q20.225540000000002,10.32421,20.28864,10.42949Q20.35174,10.53477,20.40961,10.64302Q20.46747,10.75127,20.51995,10.86222Q20.57242,10.97318,20.6194,11.08658Q20.66637,11.19998,20.707720000000002,11.31555Q20.74907,11.43112,20.7847,11.54858Q20.82033,11.66603,20.85015,11.7851Q20.87998,11.904160000000001,20.90392,12.02455Q20.92787,12.144929999999999,20.945880000000002,12.26635Q20.96389,12.38776,20.975920000000002,12.50991Q20.987949999999998,12.632069999999999,20.99398,12.754660000000001Q21,12.87726,21,13Z" fill="#000000" fill-opacity="1"/></g><g><path d="M16,2C8.26801,2,2,8.26801,2,16C2,23.732,8.26801,30,16,30C23.732,30,30,23.732,30,16C29.9913,8.27162,23.7284,2.00870943,16,2ZM23.9925,24.9258C23.9511,22.1967,21.7294,20.0047,19,20L13,20C10.27057,20.0047,8.048860000000001,22.1967,8.0075,24.9258C2.931807,20.3936,2.636265,12.5523,7.3564,7.65087C12.0765,2.749479,19.9235,2.749478,24.6436,7.65087C29.3637,12.5523,29.0682,20.3936,23.9925,24.9258Z" fill="#000000" fill-opacity="1"/></g><g></g></g></svg>