<svg xmlns="http://www.w3.org/2000/svg" xmlns:xlink="http://www.w3.org/1999/xlink" fill="none" version="1.1" width="32" height="32" viewBox="0 0 32 32"><defs><clipPath id="master_svg0_134_23044"><rect x="0" y="0" width="32" height="32" rx="0"/></clipPath></defs><g clip-path="url(#master_svg0_134_23044)"><g><path d="M29.4146,19L27.7,17.2852C27.8951,16.88472,27.9977,16.44548,28,16C28,14.34315,26.6569,13,25,13C23.3431,13,22,14.34315,22,16C22,17.65685,23.3431,19,25,19C25.4459,18.99783,25.8856,18.8953,26.2864,18.7L28,20.4141L28,28L22,28L22,25C21.9957,21.13579,18.8642,18.0043,15,18L9,18C5.13583,18.00441,2.0044083600000002,21.13583,2,25L2,30L30,30L30,20.4141C30.0014,19.883499999999998,29.7906,19.37436,29.4146,19ZM4,25C4.00331,22.23995,6.23995,20.00331,9,20L15,20C17.7601,20.00325,19.9967,22.23993,20,25L20,28L4,28L4,25Z" fill="#000000" fill-opacity="1"/></g><g><path d="M12,4C14.76142,4,17,6.23858,17,9C17,11.76142,14.76142,14,12,14C9.238579999999999,14,7,11.76142,7,9C7,6.23858,9.238579999999999,4,12,4ZM12,2C8.13401,2,5,5.13401,5,9C5,12.866,8.13401,16,12,16C15.866,16,19,12.866,19,9C19,5.13401,15.866,2,12,2Z" fill="#000000" fill-opacity="1"/></g><g></g></g></svg>