<svg xmlns="http://www.w3.org/2000/svg" xmlns:xlink="http://www.w3.org/1999/xlink" fill="none" version="1.1" width="32" height="32" viewBox="0 0 32 32"><defs><clipPath id="master_svg0_134_22878"><rect x="0" y="0" width="32" height="32" rx="0"/></clipPath></defs><g clip-path="url(#master_svg0_134_22878)"><g><path d="M25,22.99999645690918L24.9785,22.99999645690918C24.540100000000002,22.989996456909182,24.1592,22.695996456909178,24.0385,22.27439645690918L20.8711,11.18999645690918L18.9365,16.35069645690918C18.79013,16.74113645690918,18.41697,16.99985645690918,18,16.99999645690918L14,16.99999645690918L14,14.99999645690918L17.3066,14.99999645690918L20.0635,7.64890045690918C20.21526,7.24487245690918,20.609,6.983697856909179,21.04024,7.00100755690918C21.47148,7.018316756909179,21.84301,7.310209456909179,21.9619,7.72510045690918L25.0732,18.61719645690918L27.0518,12.683596456909179C27.1876,12.27526645690918,27.569699999999997,11.99980645690918,28,11.99999645690918L32,11.99999645690918L32,13.99999645690918L28.7207,13.99999645690918L25.9482,22.31639645690918C25.8125,22.724796456909182,25.4304,23.00029645690918,25,22.99999645690918Z" fill="#000000" fill-opacity="1"/></g><g><path d="M15,30L13,30L13,23C12.9982,21.3439,11.6561,20.00182,10,20L6,20C4.3439,20.00182,3.00182,21.3439,3,23L3,30L1,30L1,23C1.00325191,20.23992,3.23992,18.00325012,6,18L10,18C12.7601,18.00325012,14.9967,20.23992,15,23L15,30Z" fill="#000000" fill-opacity="1"/></g><g><path d="M8,8C9.65685,8,11,9.34315,11,11C11,12.65685,9.65685,14,8,14C6.34315,14,5,12.65685,5,11C5,9.34315,6.34315,8,8,8ZM8,6C5.23858,6,3,8.238579999999999,3,11C3,13.761420000000001,5.23858,16,8,16C10.761420000000001,16,13,13.761420000000001,13,11C13,8.238579999999999,10.761420000000001,6,8,6Z" fill="#000000" fill-opacity="1"/></g><g></g></g></svg>