<svg xmlns="http://www.w3.org/2000/svg" xmlns:xlink="http://www.w3.org/1999/xlink" fill="none" version="1.1" width="32" height="32" viewBox="0 0 32 32"><defs><clipPath id="master_svg0_134_23070"><rect x="0" y="0" width="32" height="32" rx="0"/></clipPath></defs><g clip-path="url(#master_svg0_134_23070)"><g><path d="M13,30L9,30C7.896047,29.99851,7.0014863,29.103949999999998,7,28L7,20L9,20L9,28L13,28L13,20L15,20L15,28C14.99851,29.103949999999998,14.103950000000001,29.99851,13,30Z" fill="#000000" fill-opacity="1"/></g><g><path d="M25,20L23.25,20L21,29.031L18.792,20L17,20L19.5,30L22.5,30L25,20Z" fill="#000000" fill-opacity="1"/></g><g><rect x="15" y="2" width="2" height="5" rx="0" fill="#000000" fill-opacity="1"/></g><g transform="matrix(0.7071067690849304,-0.7071067690849304,0.7071067690849304,0.7071067690849304,0.05902790847051165,17.941287277479546)"><rect x="21.68656349182129" y="8.899391174316406" width="4.958000183105469" height="1.9997999668121338" rx="0" fill="#000000" fill-opacity="1"/></g><g><rect x="25" y="15" width="5" height="2" rx="0" fill="#000000" fill-opacity="1"/></g><g><rect x="2" y="15" width="5" height="2" rx="0" fill="#000000" fill-opacity="1"/></g><g transform="matrix(0.7071067690849304,-0.7071067690849304,0.7071067690849304,0.7071067690849304,-3.2339720429228294,5.807736776632538)"><rect x="5.3935723304748535" y="6.807618141174316" width="1.9997999668121338" height="4.958000183105469" rx="0" fill="#000000" fill-opacity="1"/></g><g><path d="M22,17L20,17L20,16C20,13.79086,18.209139999999998,12,16,12C13.79086,12,12,13.79086,12,16L12,17L10,17L10,16C10,12.68629,12.68629,10,16,10C19.31371,10,22,12.68629,22,16L22,17Z" fill="#000000" fill-opacity="1"/></g><g></g></g></svg>