<svg xmlns="http://www.w3.org/2000/svg" xmlns:xlink="http://www.w3.org/1999/xlink" fill="none" version="1.1" width="32" height="32" viewBox="0 0 32 32"><defs><clipPath id="master_svg0_134_23243"><rect x="0" y="0" width="32" height="32" rx="0"/></clipPath></defs><g clip-path="url(#master_svg0_134_23243)"><g><rect x="4" y="26" width="24" height="2" rx="0" fill="#000000" fill-opacity="1"/></g><g><rect x="4" y="19" width="24" height="2" rx="0" fill="#000000" fill-opacity="1"/></g><g><path d="M12,6L12,12L6,12L6,6L12,6ZM12,4L6,4C4.895431,4,4,4.895431,4,6L4,12C4,13.10457,4.895431,14,6,14L12,14C13.10457,14,14,13.10457,14,12L14,6C14,4.895431,13.10457,4,12,4Z" fill="#000000" fill-opacity="1"/></g><g><path d="M26,6L26,12L20,12L20,6L26,6ZM26,4L20,4C18.895431,4,18,4.895431,18,6L18,12C18,13.10457,18.895431,14,20,14L26,14C27.104570000000002,14,28,13.10457,28,12L28,6C28,4.895431,27.104570000000002,4,26,4Z" fill="#000000" fill-opacity="1"/></g><g></g></g></svg>