<svg xmlns="http://www.w3.org/2000/svg" xmlns:xlink="http://www.w3.org/1999/xlink" fill="none" version="1.1" width="16" height="16" viewBox="0 0 16 16"><defs><clipPath id="master_svg0_134_08800"><rect x="0" y="0" width="16" height="16" rx="0"/></clipPath></defs><g clip-path="url(#master_svg0_134_08800)"><g><path d="M2.6,11.3L3.3,10.6C2.6,9.8,1.9,9,1.5,8C2.5,5.5,5.3,3.5,8,3.5C8.7,3.5,9.4,3.6,10,3.9L10.8,3.1C9.9,2.7,9,2.5,8,2.5C4.7,2.5999999,1.7,4.7,0.5,7.8C0.5,7.9,0.5,8,0.5,8.1C1,9.3,1.7,10.4,2.6,11.3Z" fill="#000000" fill-opacity="1"/></g><g><path d="M6.000000095367431,7.9000018968200685C6.100000095367432,6.9000018968200685,6.900000095367432,6.100001896820069,7.800000095367432,6.100001896820069L8.700000095367432,5.199999896820068C7.2000000953674315,4.699999896820068,5.500000095367431,5.599999896820068,5.099999895367431,7.200001896820068C4.999999995367432,7.700001896820068,4.999999995367432,8.300001896820069,5.099999895367431,8.800001896820069L6.000000095367431,7.9000018968200685Z" fill="#000000" fill-opacity="1"/></g><g><path d="M15.5,7.8C14.9,6.3,13.9,5,12.6,4.1L15,1.7L14.3,1L1,14.3L1.7,15L4.3,12.4C5.4,13.1,6.7,13.4,8,13.5C11.3,13.4,14.3,11.3,15.5,8.2C15.5,8.1,15.5,7.9,15.5,7.8ZM10,8C10,9.1,9.1,10,8,10C7.7,10,7.3,9.9,7,9.7L9.7,7C9.9,7.3,10,7.6,10,8ZM8,12.5C7,12.5,5.9,12.2,5,11.7L6.3,10.4C7.7,11.3,9.5,11,10.5,9.6C11.2,8.6,11.2,7.2,10.5,6.2L11.9,4.8C13,5.6,13.9,6.7,14.5,8C13.4,10.5,10.6,12.5,8,12.5Z" fill="#000000" fill-opacity="1"/></g><g></g></g></svg>