<svg xmlns="http://www.w3.org/2000/svg" xmlns:xlink="http://www.w3.org/1999/xlink" fill="none" version="1.1" width="32" height="32" viewBox="0 0 32 32"><defs><clipPath id="master_svg0_134_23291"><rect x="0" y="0" width="32" height="32" rx="0"/></clipPath></defs><g clip-path="url(#master_svg0_134_23291)"><g><path d="M20,13L12,13C10.896001,13.00137806,10.00137711,13.896002,10,15L10,28C10.00137711,29.104,10.896001,29.9986,12,30L20,30C21.104,29.9986,21.9986,29.104,22,28L22,15C21.9986,13.896002,21.104,13.00137806,20,13ZM20,15L20,18L12,18L12,15L20,15ZM20,20L20,23L12,23L12,20L20,20ZM12,28L12,25L20,25L20,28L12,28Z" fill="#000000" fill-opacity="1"/></g><g><path d="M25.9099976852417,10.129995675354003C25.8612976852417,10.121025675354003,25.8229976852417,10.083325675354004,25.8132976852417,10.034795675354005C25.0117976852417,6.051055675354004,21.8806976852417,2.947623675354004,17.8899976852417,2.181599675354004C12.4935976852417,1.139146675354004,7.267077685241699,4.645985675354003,6.185797685241699,10.034695675354003C6.176237685241699,10.083305675354003,6.138067685241699,10.121195675354004,6.089397685241699,10.130395675354004C2.2922776852416993,10.858405675354003,-0.3296753147583008,14.353015675354003,0.03320168524169922,18.202215675354005C0.39607768524169923,22.051415675354004,3.6249176852416993,24.994415675354006,7.4911976852416995,25.000015675354003L7.9999976852416985,25.000015675354003L7.9999976852416985,23.000015675354003L7.4953976852416995,23.000015675354003C4.143957685241699,22.990715675354004,1.5767276852416992,20.016915675354003,2.056697685241699,16.700015675354003C2.4700076852416992,14.298515675354004,4.3644376852416995,12.425415675354003,6.7704976852417,12.039415675354004L7.787097685241699,11.855795675354004C7.8398976852416995,11.846055675354004,7.881347685241699,11.804995675354004,7.891597685241699,11.752295675354004L8.071597685241699,10.817195675354004C8.682807685241698,7.339665675354004,11.431997685241699,4.632305675354004,14.918497685241698,4.0744956753540045C15.867297685241699,3.944325675354004,16.8317976852417,3.986505675354004,17.765597685241698,4.198995675354004C20.9305976852417,4.969835675354004,23.341797685241698,7.536955675354004,23.9130976852417,10.743995675354004L24.1071976852417,11.752295675354004C24.1172976852417,11.805085675354004,24.158797685241698,11.846215675354005,24.2116976852417,11.855795675354004L25.2692976852417,12.047215675354003C26.4358976852417,12.231415675354004,27.5181976852417,12.768515675354005,28.3703976852417,13.586215675354003C29.9523976852417,15.155315675354004,30.4324976852417,17.523315675354006,29.5866976852417,19.584715675354005C28.7407976852417,21.646115675354004,26.7357976852417,22.994315675354002,24.5075976852417,23.000015675354003L23.9999976852417,23.000015675354003L23.9999976852417,25.000015675354003L24.5075976852417,25.000015675354003C28.3747976852417,24.995815675354002,31.6050976852417,22.052615675354005,31.968197685241698,18.202515675354004C32.3313976852417,14.352415675354004,29.7081976852417,10.857115675354004,25.9099976852417,10.129995675354003Z" fill="#000000" fill-opacity="1"/></g><g></g></g></svg>