<svg xmlns="http://www.w3.org/2000/svg" xmlns:xlink="http://www.w3.org/1999/xlink" fill="none" version="1.1" width="32" height="32" viewBox="0 0 32 32"><defs><clipPath id="master_svg0_134_23377"><rect x="0" y="0" width="32" height="32" rx="0"/></clipPath></defs><g clip-path="url(#master_svg0_134_23377)"><g><rect x="22" y="15" width="10" height="2" rx="0" fill="#000000" fill-opacity="1"/></g><g><path d="M17.99999976158142,29.999962942504883C17.73279976158142,30.000262942504882,17.476699761581422,29.893362942504883,17.28909976158142,29.703062942504882L9.665999761581421,21.999962942504883L2.999999761581421,21.999962942504883C2.448023761581421,22.000362942504882,2.000275611581421,21.553162942504883,2.000000000000421,21.001162942504884L2.000000000000421,11.000002942504883C1.999612331581421,10.448022942504883,2.446823761581421,10.000272942504882,2.998799761581421,10.000002942504882L9.665999761581421,10.000002942504882L17.288999761581422,2.296899942504883C17.574099761581422,2.008625502504883,18.00509976158142,1.9210361425048827,18.38009976158142,2.075143342504883C18.75509976158142,2.229306942504883,18.99999976158142,2.5946059425048826,18.99999976158142,2.999999942504883L18.99999976158142,28.999962942504883C18.999599761581422,29.552162942504882,18.55209976158142,29.999662942504884,17.99999976158142,29.999962942504883Z" fill="#000000" fill-opacity="1"/></g><g></g></g></svg>