<svg xmlns="http://www.w3.org/2000/svg" xmlns:xlink="http://www.w3.org/1999/xlink" fill="none" version="1.1" width="32" height="32" viewBox="0 0 32 32"><defs><clipPath id="master_svg0_134_23512"><rect x="0" y="0" width="32" height="32" rx="0"/></clipPath></defs><g clip-path="url(#master_svg0_134_23512)"><g></g><g><path d="M30.850825391578674,15.4487L23.886725391578675,3.5322C23.695825391578673,3.203334,23.344525391578674,3.000668049,22.964325391578676,3L9.035695391578674,3C8.655445391578674,3.000668526,8.304195391578673,3.203334,8.113305391578674,3.5322L1.1492003915786744,15.4487C0.9503005915786743,15.7893,0.9503005915786743,16.2107,1.1492003915786744,16.551299999999998L8.113305391578674,28.4678C8.304195391578673,28.7967,8.655445391578674,28.9993,9.035695391578674,29L22.964325391578676,29C23.344525391578674,28.9993,23.695825391578673,28.7967,23.886725391578675,28.4678L30.850825391578674,16.551299999999998C31.049725391578676,16.2107,31.049725391578676,15.7893,30.850825391578674,15.4487ZM14.875025391578674,8L17.125025391578674,8L17.125025391578674,19L14.875025391578674,19L14.875025391578674,8ZM16.000025391578674,25C15.171525391578674,25,14.500025391578674,24.3284,14.500025391578674,23.5C14.500025391578674,22.6716,15.171525391578674,22,16.000025391578674,22C16.828425391578676,22,17.500025391578674,22.6716,17.500025391578674,23.5C17.500025391578674,24.3284,16.828425391578676,25,16.000025391578674,25Z" fill="#000000" fill-opacity="1"/></g><g></g></g></svg>