<svg xmlns="http://www.w3.org/2000/svg" xmlns:xlink="http://www.w3.org/1999/xlink" fill="none" version="1.1" width="32" height="32" viewBox="0 0 32 32"><defs><clipPath id="master_svg0_134_23518"><rect x="0" y="0" width="32" height="32" rx="0"/></clipPath></defs><g clip-path="url(#master_svg0_134_23518)"><g><path d="M29.00000008544922,23.000000135803223L25.00000008544922,23.000000135803223L25.00000008544922,21.000000135803223L27.382100085449217,21.000000135803223L19.50000008544922,5.236100135803223L18.39450008544922,7.447300135803222L16.60540008544922,6.552800135803222L18.60540008544922,2.5528001358032224C18.77480008544922,2.2141001358032226,19.13740008544922,2.0001001358032227,19.49990008544922,2.0001001358032227C19.86240008544922,2.0001001358032227,20.225000085449217,2.2141001358032226,20.39440008544922,2.5528001358032224L29.89440008544922,21.552800135803224C30.04920008544922,21.862900135803223,30.032800085449217,22.23100013580322,29.85050008544922,22.525800135803223C29.66840008544922,22.82060013580322,29.346600085449218,23.000000135803223,29.00000008544922,23.000000135803223Z" fill="#000000" fill-opacity="1"/></g><g><ellipse cx="14" cy="25" rx="1.25" ry="1.25" fill="#000000" fill-opacity="1"/></g><g><rect x="13" y="15" width="2" height="7" rx="0" fill="#000000" fill-opacity="1"/></g><g><path d="M24.999962942504883,30L2.999999942504883,30C2.650099942504883,30,2.3256999425048828,29.8171,2.1444999425048827,29.5177C1.9632999425048827,29.2183,1.951900042504883,28.8459,2.1141999425048827,28.536L13.114262942504883,7.536C13.286862942504882,7.2064,13.643462942504883,7,13.999962942504883,7C14.356462942504884,7,14.713062942504882,7.2064,14.885662942504883,7.536L25.885662942504883,28.536C26.04806294250488,28.8459,26.036562942504883,29.2183,25.855362942504883,29.5177C25.674162942504882,29.8171,25.34976294250488,30,24.999962942504883,30ZM4.652602942504883,28L23.347362942504883,28L13.999962942504883,10.1552L4.652602942504883,28Z" fill="#000000" fill-opacity="1"/></g><g></g></g></svg>