<svg xmlns="http://www.w3.org/2000/svg" xmlns:xlink="http://www.w3.org/1999/xlink" fill="none" version="1.1" width="32" height="32" viewBox="0 0 32 32"><defs><clipPath id="master_svg0_134_23499"><rect x="0" y="0" width="32" height="32" rx="0"/></clipPath></defs><g clip-path="url(#master_svg0_134_23499)"><g></g><g><path d="M16,2C8.3,2,2,8.3,2,16C2,23.7,8.3,30,16,30C23.7,30,30,23.7,30,16C30,8.3,23.7,2,16,2ZM14.9,8L17.1,8L17.1,19L14.9,19L14.9,8ZM16,25C15.2,25,14.5,24.3,14.5,23.5C14.5,22.7,15.2,22,16,22C16.8,22,17.5,22.7,17.5,23.5C17.5,24.3,16.8,25,16,25Z" fill="#000000" fill-opacity="1"/></g><g style="opacity:0;"><path d="M17.5,23.5C17.5,24.3,16.8,25,16,25C15.2,25,14.5,24.3,14.5,23.5C14.5,22.7,15.2,22,16,22C16.8,22,17.5,22.7,17.5,23.5ZM17.1,8L14.900001,8L14.900001,19L17.1,19L17.1,8Z" fill="#000000" fill-opacity="1"/></g></g></svg>