<svg xmlns="http://www.w3.org/2000/svg" xmlns:xlink="http://www.w3.org/1999/xlink" fill="none" version="1.1" width="32" height="32" viewBox="0 0 32 32"><defs><clipPath id="master_svg0_134_23543"><rect x="0" y="0" width="32" height="32" rx="0"/></clipPath></defs><g clip-path="url(#master_svg0_134_23543)"><g><path d="M26.0022,4L5.998,4C4.894535,3.999999761581,4,4.894535,4,5.998L4,26.002C4,27.1055,4.894535,28,5.998,28L26.0022,28C27.1056,28,28,27.1055,28,26.002L28,5.998C28,4.894535,27.1056,3.999999761581,26.0022,4ZM14.8752,8L17.1252,8L17.1252,18L14.8752,18L14.8752,8ZM16,24C15.1716,24,14.5,23.3284,14.5,22.5C14.5,21.6716,15.1716,21,16,21C16.828400000000002,21,17.5,21.6716,17.5,22.5C17.5,23.3284,16.828400000000002,24,16,24Z" fill="#000000" fill-opacity="1"/></g><g></g><g></g></g></svg>