<svg xmlns="http://www.w3.org/2000/svg" xmlns:xlink="http://www.w3.org/1999/xlink" fill="none" version="1.1" width="16" height="16" viewBox="0 0 16 16"><defs><clipPath id="master_svg0_134_08814"><rect x="0" y="0" width="16" height="16" rx="0"/></clipPath></defs><g clip-path="url(#master_svg0_134_08814)"><g><path d="M14.499999976158142,14.000048195457458L1.4999999761581422,14.000048195457458C1.299999976158142,14.000048195457458,1.1999999761581421,13.900048195457458,1.099999976158142,13.800048195457459C0.9999999761581421,13.60004819545746,0.9999999761581421,13.500048195457458,1.099999976158142,13.300048195457459L7.599999976158142,1.3000001954574585C7.699999976158142,0.9999999954574585,7.999999976158142,0.8999999954574585,8.199999976158143,1.1000001954574585C8.299999976158142,1.1000001954574585,8.399999976158142,1.2000001954574584,8.399999976158142,1.3000001954574585L14.899999976158142,13.300048195457459C14.999999976158142,13.500048195457458,14.999999976158142,13.60004819545746,14.899999976158142,13.800048195457459C14.899999976158142,13.900048195457458,14.699999976158143,14.000048195457458,14.499999976158142,14.000048195457458ZM2.299999976158142,13.000048195457458L13.599999976158141,13.000048195457458L7.999999976158142,2.499998195457459L2.299999976158142,13.000048195457458Z" fill="#000000" fill-opacity="1"/></g><g><rect x="7.5" y="6" width="1" height="3.5" rx="0" fill="#000000" fill-opacity="1"/></g><g><path d="M7.9999998092651365,10.800000190734863C7.599999809265137,10.800000190734863,7.199999809265137,11.100000190734864,7.199999809265137,11.600000190734864C7.199999809265137,12.100000190734864,7.4999998092651365,12.400000190734863,7.9999998092651365,12.400000190734863C8.399999809265136,12.400000190734863,8.799999809265136,12.100000190734864,8.799999809265136,11.600000190734864C8.799999809265136,11.100000190734864,8.399999809265136,10.800000190734863,7.9999998092651365,10.800000190734863Z" fill="#000000" fill-opacity="1"/></g><g></g></g></svg>