<svg xmlns="http://www.w3.org/2000/svg" xmlns:xlink="http://www.w3.org/1999/xlink" fill="none" version="1.1" width="16" height="16" viewBox="0 0 16 16"><defs><clipPath id="master_svg0_134_08807"><rect x="0" y="0" width="16" height="16" rx="0"/></clipPath></defs><g clip-path="url(#master_svg0_134_08807)"><g><path d="M8,1C4.1,1,1,4.1,1,8C1,11.9,4.1,15,8,15C11.9,15,15,11.9,15,8C15,4.1,11.9,1,8,1ZM8,14C4.7,14,2,11.3,2,8C2,4.7,4.7,2,8,2C11.3,2,14,4.7,14,8C14,11.3,11.3,14,8,14Z" fill="#000000" fill-opacity="1"/></g><g><rect x="7.5" y="4" width="1" height="5" rx="0" fill="#000000" fill-opacity="1"/></g><g><path d="M7.9999998092651365,10.199999809265137C7.599999809265137,10.199999809265137,7.199999809265137,10.499999809265137,7.199999809265137,10.999999809265137C7.199999809265137,11.499999809265137,7.4999998092651365,11.799999809265136,7.9999998092651365,11.799999809265136C8.399999809265136,11.799999809265136,8.799999809265136,11.499999809265137,8.799999809265136,10.999999809265137C8.799999809265136,10.499999809265137,8.399999809265136,10.199999809265137,7.9999998092651365,10.199999809265137Z" fill="#000000" fill-opacity="1"/></g><g></g></g></svg>