<svg xmlns="http://www.w3.org/2000/svg" xmlns:xlink="http://www.w3.org/1999/xlink" fill="none" version="1.1" width="20" height="20" viewBox="0 0 20 20"><defs><clipPath id="master_svg0_134_08888"><rect x="0" y="0" width="20" height="20" rx="0"/></clipPath></defs><g clip-path="url(#master_svg0_134_08888)"><g></g><g><path d="M10,1C5,1,1,5,1,10C1,15,5,19,10,19C15,19,19,15,19,10C19,5,15,1,10,1ZM9.2,5L10.7,5L10.7,12L9.2,12L9.2,5ZM10,16C9.4,16,9,15.6,9,15C9,14.4,9.4,14,10,14C10.6,14,11,14.4,11,15C11,15.6,10.6,16,10,16Z" fill="#000000" fill-opacity="1"/></g><g style="opacity:0;"><path d="M9.2,5L10.7,5L10.7,12L9.2,12L9.2,5ZM10,16C9.4,16,9,15.6,9,15C9,14.4,9.4,14,10,14C10.6,14,11,14.4,11,15C11,15.6,10.6,16,10,16Z" fill="#000000" fill-opacity="1"/></g></g></svg>