<svg xmlns="http://www.w3.org/2000/svg" xmlns:xlink="http://www.w3.org/1999/xlink" fill="none" version="1.1" width="32" height="32" viewBox="0 0 32 32"><defs><clipPath id="master_svg0_134_23549"><rect x="0" y="0" width="32" height="32" rx="0"/></clipPath></defs><g clip-path="url(#master_svg0_134_23549)"><g><path d="M22,8L21,8L21,2L19,2L19,8L13,8L13,2L11,2L11,8L10,8C8.895431,8,8,8.895430000000001,8,10L8,22C8,23.1046,8.895431,24,10,24L11,24L11,30L13,30L13,24L19,24L19,30L21,30L21,24L22,24C23.104599999999998,24,24,23.1046,24,22L24,10C24,8.895430000000001,23.104599999999998,8,22,8ZM10,22L10,10L22,10L22,22L10,22Z" fill="#000000" fill-opacity="1"/></g><g><rect x="25" y="14" width="2" height="4" rx="0" fill="#000000" fill-opacity="1"/></g><g></g></g></svg>