<svg xmlns="http://www.w3.org/2000/svg" xmlns:xlink="http://www.w3.org/1999/xlink" fill="none" version="1.1" width="32" height="32" viewBox="0 0 32 32"><defs><clipPath id="master_svg0_134_23575"><rect x="0" y="0" width="32" height="32" rx="0"/></clipPath></defs><g clip-path="url(#master_svg0_134_23575)"><g><path d="M29.311998672103883,22.9189C30.41619867210388,20.7988,30.99999867210388,18.4062,30.99999867210388,16C30.99999867210388,7.729,24.270998672103882,1,15.999998672103882,1C12.626198672103882,1,9.418498672103881,2.1191,6.7953986721038815,4.1665C6.551298672103882,4.0605,6.282898672103882,4,5.999998672103882,4C4.895498672103882,4,3.999998672103882,4.8955,3.999998672103882,6C3.999998672103882,7.1045,4.895498672103882,8,5.999998672103882,8C7.104498672103881,8,7.999998672103882,7.1045,7.999998672103882,6C7.999998672103882,5.9238,7.985798672103882,5.8511,7.977498672103882,5.7773C10.258698672103883,3.9809,13.056798672103882,3,15.999998672103882,3C16.97269867210388,3,17.917198672103883,3.1157,18.82929867210388,3.3193C15.435498672103883,4.2451,12.929898672103882,7.3466,12.929898672103882,11.0302C12.929898672103882,11.8193,13.046598672103881,12.5805,13.261898672103882,13.3002C12.563398672103881,13.0981,11.833398672103883,12.9696,11.069998672103882,12.9696C7.366098672103882,12.9696,4.250898672103881,15.5038,3.344398672103882,18.9266C3.126398672103882,17.9842,2.999898672103882,17.0077,2.999898672103882,15.9998C2.999898672103882,13.8836,3.4917986721038816,11.867,4.461798672103882,10.0047L2.6878986721038816,9.0809C1.583698672103882,11.201,0.9998986721038818,13.5936,0.9998986721038818,15.9998C0.9998986721038818,24.2708,7.728898672103882,30.9998,15.999898672103882,30.9998C19.37369867210388,30.9998,22.58139867210388,29.8807,25.20449867210388,27.8333C25.44859867210388,27.9393,25.71699867210388,27.9998,25.999898672103882,27.9998C27.104398672103883,27.9998,27.999898672103882,27.1043,27.999898672103882,25.9998C27.999898672103882,24.8953,27.104398672103883,23.9998,25.999898672103882,23.9998C24.89539867210388,23.9998,23.999898672103882,24.8953,23.999898672103882,25.9998C23.999898672103882,26.076,24.01409867210388,26.1487,24.022398672103883,26.2229C22.942798672103883,27.0725,21.744798672103883,27.7327,20.47309867210388,28.2C20.804598672103882,27.5359,20.99999867210388,26.7928,20.99999867210388,25.9998C20.99999867210388,24.3694,20.204098672103882,22.9329,18.993198672103883,22.0193C19.038898672103883,21.6721,19.07009867210388,21.3215,19.07009867210388,20.9695C19.07009867210388,20.1839,18.944398672103883,19.4295,18.73199867210388,18.7122C19.43149867210388,18.9134,20.16659867210388,19.0301,20.92999867210388,19.0301C24.633898672103882,19.0301,27.74909867210388,16.4959,28.65559867210388,13.0731C28.87359867210388,14.0155,29.00009867210388,14.992,29.00009867210388,15.9999C29.00009867210388,18.1161,28.50819867210388,20.1327,27.53819867210388,21.995L29.311998672103883,22.9189ZM11.518498672103881,28.1835C9.679598672103882,27.5028,8.028498672103883,26.4306,6.6859986721038815,25.0497C5.649398672103882,23.9354,5.069998672103882,22.497,5.069998672103882,20.9696C5.069998672103882,17.6615,7.761698672103882,14.9696,11.069998672103882,14.9696C14.378298672103881,14.9696,17.069998672103882,17.6615,17.069998672103882,20.9696C17.069998672103882,21.0194,17.057498672103883,21.0673,17.05659867210388,21.1171C16.715298672103884,21.0434,16.36299867210388,20.9999,15.999998672103882,20.9999C13.242898672103882,20.9999,10.999998672103882,23.2431,10.999998672103882,25.9999C10.999998672103882,26.786,11.192398672103883,27.5233,11.518498672103881,28.1835ZM18.999898672103882,25.9999C18.999898672103882,27.6542,17.65419867210388,28.9999,15.999898672103882,28.9999C14.345598672103883,28.9999,12.999898672103882,27.6542,12.999898672103882,25.9999C12.999898672103882,24.3456,14.345598672103883,22.9999,15.999898672103882,22.9999C17.65419867210388,22.9999,18.999898672103882,24.3456,18.999898672103882,25.9999ZM20.929798672103882,17.0302C17.621498672103883,17.0302,14.929798672103882,14.3383,14.929798672103882,11.0302C14.929798672103882,7.7221,17.621498672103883,5.0302,20.929798672103882,5.0302C22.359198672103883,5.0302,23.671998672103882,5.5341,24.703998672103882,6.372C25.00669867210388,6.6459,25.29579867210388,6.933,25.57169867210388,7.2338C26.41959867210388,8.269,26.92989867210388,9.5907,26.92989867210388,11.0302C26.92989867210388,14.3383,24.23819867210388,17.0302,20.929798672103882,17.0302Z" fill="#000000" fill-opacity="1"/></g><g></g></g></svg>