<svg xmlns="http://www.w3.org/2000/svg" xmlns:xlink="http://www.w3.org/1999/xlink" fill="none" version="1.1" width="32" height="32" viewBox="0 0 32 32"><defs><clipPath id="master_svg0_134_23649"><rect x="0" y="0" width="32" height="32" rx="0"/></clipPath></defs><g clip-path="url(#master_svg0_134_23649)"><g><path d="M17,28L17,17L18,17C19.104,16.998730000000002,19.9987,16.10404,20,15L20,11C19.9987,9.895956,19.104,9.00126743,18,9L14,9C12.896,9.00126743,12.0013,9.895956,12,11L12,15C12.0013,16.10404,12.896,16.998730000000002,14,17L15,17L15,28L2,28L2,30L30,30L30,28L17,28ZM14,11L18,11L18.0015,15L14,15L14,11Z" fill="#000000" fill-opacity="1"/></g><g><path d="M9.33250049041748,18.216800538635255C6.22251449041748,15.433990538635253,6.22251449041748,10.565510538635253,9.33250049041748,7.782700538635254L10.66650049041748,9.272700538635254C8.44417049041748,11.260330538635253,8.44417049041748,14.738780538635254,10.66650049041748,16.726400538635254L9.33250049041748,18.216800538635255Z" fill="#000000" fill-opacity="1"/></g><g><path d="M22.66700018310547,18.216801081848146L21.33300018310547,16.726801081848144C23.55566018310547,14.739321081848145,23.55566018310547,11.260581081848144,21.33300018310547,9.273101081848145L22.66700018310547,7.7831010818481445C25.77745018310547,10.565701081848145,25.77745018310547,15.434601081848145,22.66700018310547,18.216801081848146L22.66700018310547,18.216801081848146Z" fill="#000000" fill-opacity="1"/></g><g><path d="M6.399396551971436,21.8008010345459C0.5338865519714355,17.400001034545898,0.5338865519714355,8.601031034545898,6.399396551971436,4.200201034545898L7.599996551971436,5.8000010345458985C2.7995535519714356,9.400361034545899,2.7995535519714356,16.6010010345459,7.599996551971436,20.2014010345459L6.399396551971436,21.8008010345459Z" fill="#000000" fill-opacity="1"/></g><g><path d="M25.600598803710938,21.800799745941163L24.399398803710938,20.20079974594116C29.200198803710936,16.60039974594116,29.200198803710936,9.39928974594116,24.399398803710938,5.798899745941162L25.600598803710938,4.198899745941162C31.46646880371094,8.599759745941162,31.46646880371094,17.399099745941164,25.600598803710938,21.800799745941163L25.600598803710938,21.800799745941163Z" fill="#000000" fill-opacity="1"/></g><g></g></g></svg>