<svg xmlns="http://www.w3.org/2000/svg" xmlns:xlink="http://www.w3.org/1999/xlink" fill="none" version="1.1" width="32" height="32" viewBox="0 0 32 32"><defs><clipPath id="master_svg0_134_23830"><rect x="0" y="0" width="32" height="32" rx="0"/></clipPath></defs><g clip-path="url(#master_svg0_134_23830)"><g><path d="M25,28C22.2399,27.996859999999998,20.0031,25.76012,20,23L22,23C22,24.65685,23.3431,26,25,26C26.6569,26,28,24.65685,28,23C28,21.34315,26.6569,20,25,20L6,20L6,18L25,18C27.7605,18.0013485,29.9976,20.23953,29.9976,23C29.9976,25.760469999999998,27.7605,27.998649999999998,25,28Z" fill="#000000" fill-opacity="1"/></g><g><path d="M23,15L10,15L10,13L23,13C24.6569,13,26,11.65685,26,10C26,8.34315,24.6569,7,23,7C21.3431,7,20,8.34315,20,10L18,10C18,7.23858,20.238599999999998,5,23,5C25.761400000000002,5,28,7.23858,28,10C28,12.761420000000001,25.761400000000002,15,23,15Z" fill="#000000" fill-opacity="1"/></g><g><rect x="11" y="23" width="2" height="2" rx="0" fill="#000000" fill-opacity="1"/></g><g><rect x="13" y="25" width="2" height="2" rx="0" fill="#000000" fill-opacity="1"/></g><g><rect x="15" y="27" width="2" height="2" rx="0" fill="#000000" fill-opacity="1"/></g><g><rect x="15" y="23" width="2" height="2" rx="0" fill="#000000" fill-opacity="1"/></g><g><rect x="11" y="27" width="2" height="2" rx="0" fill="#000000" fill-opacity="1"/></g><g><rect x="6" y="4" width="2" height="2" rx="0" fill="#000000" fill-opacity="1"/></g><g><rect x="8" y="6" width="2" height="2" rx="0" fill="#000000" fill-opacity="1"/></g><g><rect x="10" y="8" width="2" height="2" rx="0" fill="#000000" fill-opacity="1"/></g><g><rect x="10" y="4" width="2" height="2" rx="0" fill="#000000" fill-opacity="1"/></g><g><rect x="6" y="8" width="2" height="2" rx="0" fill="#000000" fill-opacity="1"/></g><g><rect x="2" y="26" width="2" height="2" rx="0" fill="#000000" fill-opacity="1"/></g><g><rect x="4" y="28" width="2" height="2" rx="0" fill="#000000" fill-opacity="1"/></g><g><rect x="6" y="30" width="2" height="2" rx="0" fill="#000000" fill-opacity="1"/></g><g><rect x="6" y="26" width="2" height="2" rx="0" fill="#000000" fill-opacity="1"/></g><g><rect x="2" y="30" width="2" height="2" rx="0" fill="#000000" fill-opacity="1"/></g><g></g></g></svg>