<svg xmlns="http://www.w3.org/2000/svg" xmlns:xlink="http://www.w3.org/1999/xlink" fill="none" version="1.1" width="32" height="32" viewBox="0 0 32 32"><defs><clipPath id="master_svg0_134_25142"><rect x="0" y="0" width="32" height="32" rx="0"/></clipPath></defs><g clip-path="url(#master_svg0_134_25142)"><g><rect x="15" y="6" width="2" height="3" rx="0" fill="#000000" fill-opacity="1"/></g><g><rect x="25" y="17" width="3" height="2" rx="0" fill="#000000" fill-opacity="1"/></g><g><rect x="15" y="27" width="2" height="3" rx="0" fill="#000000" fill-opacity="1"/></g><g><rect x="4" y="17" width="3" height="2" rx="0" fill="#000000" fill-opacity="1"/></g><g transform="matrix(0.7071067690849304,-0.7071067690849304,0.7071067690849304,0.7071067690849304,-5.218946554427134,7.7733834236972825)"><rect x="6.773830413818359" y="10.186517715454102" width="2" height="3" rx="0" fill="#000000" fill-opacity="1"/></g><g transform="matrix(0.7071067690849304,-0.7071067690849304,0.7071067690849304,0.7071067690849304,-1.3516827945304613,18.5316698575798)"><rect x="21.693862915039062" y="10.8974609375" width="3" height="2" rx="0" fill="#000000" fill-opacity="1"/></g><g transform="matrix(0.7071067690849304,-0.7071067690849304,0.7071067690849304,0.7071067690849304,-11.386289732210571,22.68489170286921)"><rect x="21.68994140625" y="25.0869140625" width="2" height="3" rx="0" fill="#000000" fill-opacity="1"/></g><g transform="matrix(0.7071067690849304,-0.7071067690849304,0.7071067690849304,0.7071067690849304,-16.26593575084337,12.351650333895691)"><rect x="6.776792526245117" y="25.810546875" width="3" height="2" rx="0" fill="#000000" fill-opacity="1"/></g><g><rect x="4" y="2" width="24" height="2" rx="0" fill="#000000" fill-opacity="1"/></g><g><path d="M16,24C19.31371,24,22,21.31371,22,18C22,14.68629,19.31371,12,16,12C12.68629,12,10,14.68629,10,18C10,21.31371,12.68629,24,16,24ZM16,14L16,22C13.79086,22,12,20.209139999999998,12,18C12,15.79086,13.79086,14,16,14Z" fill="#000000" fill-opacity="1"/></g><g></g></g></svg>