<svg xmlns="http://www.w3.org/2000/svg" xmlns:xlink="http://www.w3.org/1999/xlink" fill="none" version="1.1" width="32" height="32" viewBox="0 0 32 32"><defs><clipPath id="master_svg0_134_23858"><rect x="0" y="0" width="32" height="32" rx="0"/></clipPath></defs><g clip-path="url(#master_svg0_134_23858)"><g><path d="M21.68400001525879,19.050999927520753L19.16700001525879,19.890999927520753L13.00000001525879,15.485999927520751L13.00000001525879,7.368999927520752L15.55500001525879,5.664999927520752L14.445000015258788,4.000999927520752L12.00000001525879,5.630999927520752L9.55500001525879,4.000999927520752L8.445000015258788,5.664999927520752L11.00000001525879,7.368999927520752L11.00000001525879,14.056999927520751L6.000000015258789,10.485999927520751L6.000000015258789,7.9999999275207525L4.000000015258789,7.9999999275207525L4.000000015258789,10.27899992752075L1.684000015258789,11.050999927520753L2.316000015258789,12.948999927520752L4.833000015258789,12.109999927520752L10.28000001525879,16.000999927520752L4.833000015258789,19.890999927520753L2.316000015258789,19.050999927520753L1.684000015258789,20.948999927520752L4.000000015258789,21.72099992752075L4.000000015258789,23.99999992752075L6.000000015258789,23.99999992752075L6.000000015258789,21.51499992752075L11.00000001525879,17.94399992752075L11.00000001525879,24.63099992752075L8.445000015258788,26.33499992752075L9.55500001525879,27.998999927520753L12.00000001525879,26.367999927520753L14.445000015258788,27.998999927520753L15.55500001525879,26.33499992752075L13.00000001525879,24.63099992752075L13.00000001525879,17.942999927520752L18.000000015258788,21.51499992752075L18.000000015258788,23.99999992752075L20.000000015258788,23.99999992752075L20.000000015258788,21.72099992752075L22.31600001525879,20.948999927520752L21.68400001525879,19.050999927520753Z" fill="#000000" fill-opacity="1"/></g><g></g><g><path d="M29.911519619750976,13.935536239624023L23.628399619750976,2.3706002396240233C23.501949619750977,2.1419542396240234,23.261279619750976,2.0000362396240234,22.999999619750977,2.0000362396240234C22.738719619750977,2.0000362396240234,22.498049619750976,2.1419542396240234,22.371599619750977,2.3706002396240233L16.088499019750977,13.935536239624023C15.827223619750976,14.415036239624023,16.173938619750977,14.999436239624023,16.719999619750975,15.000036239624023L29.280019619750977,15.000036239624023C29.826019619750976,14.999436239624023,30.172819619750975,14.415036239624023,29.911519619750976,13.935536239624023ZM22.249999619750977,5.999996239624023L23.749999619750977,5.999996239624023L23.749999619750977,9.999996239624023L22.249999619750977,9.999996239624023L22.249999619750977,5.999996239624023ZM22.999999619750977,13.000036239624023C22.447719619750977,13.000036239624023,21.999999619750977,12.552236239624023,21.999999619750977,11.999996239624023C21.999999619750977,11.447716239624024,22.447719619750977,10.999996239624023,22.999999619750977,10.999996239624023C23.552279619750976,10.999996239624023,23.999999619750977,11.447716239624024,23.999999619750977,11.999996239624023C23.999999619750977,12.552236239624023,23.552279619750976,13.000036239624023,22.999999619750977,13.000036239624023Z" fill="#000000" fill-opacity="1"/></g><g></g></g></svg>