<svg xmlns="http://www.w3.org/2000/svg" xmlns:xlink="http://www.w3.org/1999/xlink" fill="none" version="1.1" width="32" height="32" viewBox="0 0 32 32"><defs><clipPath id="master_svg0_134_23944"><rect x="0" y="0" width="32" height="32" rx="0"/></clipPath></defs><g clip-path="url(#master_svg0_134_23944)"><g><path d="M26.99998664855957,17.999998331069946C26.80788664855957,18.000098331069946,26.61988664855957,17.944698331069944,26.45848664855957,17.84059833106995L21.99999664855957,14.968798331069946L17.54149664855957,17.84059833106995C17.19472664855957,18.064098331069946,16.74631664855957,18.051698331069947,16.41242664855957,17.809398331069946C16.07854664855957,17.566998331069946,15.92773664855957,17.144598331069947,16.032696648559572,16.745598331069946L17.38269664855957,11.613798331069946L14.31049964855957,8.689998331069948C14.03260134855957,8.425438331069946,13.93058494855957,8.025188331069947,14.04793734855957,7.659888331069946C14.16528964855957,7.294578331069946,14.48131564855957,7.028628331069946,14.86130064855957,6.975398331069946L19.23579664855957,6.362598331069946L21.10209664855957,2.5593993310699465C21.26837664855957,2.2209703310699465,21.61075664855957,2.004724981069946,21.98779664855957,1.9999999999999463C22.36380664855957,1.9993295670699462,22.709506648559568,2.206159331069946,22.88669664855957,2.5378003310699464L24.879986648559573,6.362498331069946L29.142186648559573,6.975798331069946C29.52148664855957,7.030088331069947,29.836386648559568,7.296338331069946,29.95308664855957,7.661308331069947C30.06968664855957,8.026288331069946,29.96748664855957,8.425818331069946,29.689986648559568,8.689998331069948L26.61768664855957,11.613898331069946L27.96768664855957,16.745698331069946C28.13448664855957,17.37999833106995,27.65578664855957,18.000398331069945,26.99998664855957,17.999998331069946ZM21.99999664855957,12.779298331069946C22.19206664855957,12.779298331069946,22.38007664855957,12.834598331069946,22.541496648559573,12.938698331069947L25.37838664855957,14.765898331069947L24.53268664855957,11.550998331069946C24.44018664855957,11.198518331069947,24.54658664855957,10.823608331069947,24.810486648559568,10.572298331069947L26.817886648559572,8.662298331069946L24.087886648559568,8.269398331069947C23.76941664855957,8.223608331069947,23.49245664855957,8.027268331069946,23.343796648559568,7.7418983310699465L22.02689664855957,5.215098331069946L20.797896648559572,7.719998331069946C20.65163664855957,8.017878331069946,20.36722664855957,8.223888331069947,20.03859664855957,8.269998331069946L17.18999664855957,8.668698331069947L19.18999664855957,10.572298331069947C19.45391664855957,10.823608331069947,19.56033664855957,11.198518331069947,19.46779664855957,11.550998331069946L18.62209664855957,14.765898331069947L21.45899664855957,12.938698331069947C21.62028664855957,12.834698331069946,21.80810664855957,12.779398331069947,21.99999664855957,12.779298331069946Z" fill="#000000" fill-opacity="1"/></g><g><path d="M15.816895628547668,30.00002956390381C9.528165628547669,30.00142956390381,4.032185628547668,25.755029563903808,2.4464416285476682,19.669529563903808C0.8607056285476684,13.583979563903808,3.5854756285476688,7.195459563903809,9.075195628547668,4.127699563903809C9.465865628547668,3.9087695639038085,9.954445628547669,3.9762582639038087,10.271125628547669,4.292895563903809C10.587815628547668,4.609532563903809,10.655375628547668,5.098109563903808,10.436505628547668,5.488799563903808C7.851545628547669,10.10228956390381,8.64891562854767,15.871829563903809,12.388295628547668,19.61132956390381C16.127595628547667,23.35072956390381,21.897095628547667,24.148329563903808,26.51069562854767,21.56352956390381C26.901395628547668,21.34402956390381,27.39039562854767,21.41122956390381,27.70739562854767,21.72802956390381C28.02429562854767,22.044829563903807,28.09179562854767,22.533729563903808,27.872595628547668,22.92462956390381C25.427695628547667,27.28812956390381,20.81869562854767,29.993129563903807,15.816895628547668,30.00002956390381ZM7.327095628547668,7.9726995639038085C2.8322866285476684,12.60379956390381,2.8874026285476684,19.985429563903807,7.450865628547668,24.54892956390381C12.014295628547668,29.11242956390381,19.39599562854767,29.16752956390381,24.02709562854767,24.672729563903808C13.955695628547668,27.142429563903807,4.857365628547669,18.04402956390381,7.327095628547668,7.9726995639038085Z" fill="#000000" fill-opacity="1"/></g><g></g></g></svg>