<svg xmlns="http://www.w3.org/2000/svg" xmlns:xlink="http://www.w3.org/1999/xlink" fill="none" version="1.1" width="32" height="32" viewBox="0 0 32 32"><defs><clipPath id="master_svg0_134_23939"><rect x="0" y="0" width="32" height="32" rx="0"/></clipPath></defs><g clip-path="url(#master_svg0_134_23939)"><g><path d="M24.291002661895753,16.00001127204895L27.87600266189575,9.481901272048951C28.242402661895753,8.81536127204895,27.760402661895753,8.000001272048952,27.000002661895753,8.000001272048952L19.89110266189575,8.000001272048952L16.876002661895754,2.51810027204895C16.70020266189575,2.1987712720489503,16.364502661895752,2.00041127204895,16.000002661895753,2.00041127204895C15.635502661895751,2.0004115104679503,15.299802661895752,2.1987712720489503,15.124002661895751,2.51810027204895L12.108902661895751,8.000001272048952L5.000002661895752,8.000001272048952C4.239506661895752,8.00017127204895,3.757517661895752,8.81553127204895,4.123999661895752,9.481901272048951L7.709002661895752,16.00001127204895L4.123999661895752,22.51811127204895C3.7576206618957517,23.18461127204895,4.239608661895752,24.00001127204895,5.000002661895752,24.00001127204895L12.108902661895751,24.00001127204895L15.124002661895751,29.48191127204895C15.299802661895752,29.80121127204895,15.635502661895751,29.99961127204895,16.000002661895753,29.99961127204895C16.364502661895752,29.99961127204895,16.70020266189575,29.80121127204895,16.876002661895754,29.48191127204895L19.89110266189575,24.00001127204895L27.000002661895753,24.00001127204895C27.760502661895753,23.99981127204895,28.242502661895752,23.18451127204895,27.87600266189575,22.51811127204895L24.291002661895753,16.00001127204895ZM18.70870266189575,22.00001127204895L16.000002661895753,26.92481127204895L13.291302661895752,22.00001127204895L6.691302661895752,22.00001127204895L9.991302661895752,16.00001127204895L6.691302661895752,10.000001272048952L13.291302661895752,10.000001272048952L16.000002661895753,5.07520127204895L18.70870266189575,10.000001272048952L25.30870266189575,10.000001272048952L22.00870266189575,16.00001127204895L25.30870266189575,22.00001127204895L18.70870266189575,22.00001127204895Z" fill="#000000" fill-opacity="1"/></g><g></g></g></svg>