<svg xmlns="http://www.w3.org/2000/svg" xmlns:xlink="http://www.w3.org/1999/xlink" fill="none" version="1.1" width="32" height="32" viewBox="0 0 32 32"><defs><clipPath id="master_svg0_134_24065"><rect x="0" y="0" width="32" height="32" rx="0"/></clipPath></defs><g clip-path="url(#master_svg0_134_24065)"><g><path d="M20,14L28,14C29.1028,14,30,13.1025,30,12L30,4C30,2.8975,29.1028,2,28,2L20,2C18.8972,2,18,2.8975,18,4L18,5L9,5C7.8972,5,7,5.8975,7,7L7,10L4,10C2.8971999999999998,10,2,10.8975,2,12L2,20C2,21.1025,2.8971999999999998,22,4,22L7,22L7,25C7,26.1025,7.8972,27,9,27L18,27L18,28C18,29.1025,18.8972,30,20,30L28,30C29.1028,30,30,29.1025,30,28L30,20C30,18.8975,29.1028,18,28,18L20,18C18.8972,18,18,18.8975,18,20L18,25L9,25L9,22L12,22C13.1028,22,14,21.1025,14,20L14,12C14,10.8975,13.1028,10,12,10L9,10L9,7L18,7L18,12C18,13.1025,18.8972,14,20,14ZM21.4141,28L28.0003,21.4141L28.0001,28L21.4141,28ZM26.586,20L20.0001,26.5859L20.0001,20L26.586,20ZM10.5522,12L4,18.5522L4,12L10.5522,12ZM5.3803,20L12.0002,13.3804L12.0012,20L5.3803,20ZM21.4141,12L28.0003,5.4140999999999995L28.0001,12L21.4141,12ZM26.586,4L20.0001,10.5859L20.0001,4L26.586,4Z" fill="#000000" fill-opacity="1"/></g><g></g></g></svg>