<svg xmlns="http://www.w3.org/2000/svg" xmlns:xlink="http://www.w3.org/1999/xlink" fill="none" version="1.1" width="32" height="32" viewBox="0 0 32 32"><defs><clipPath id="master_svg0_134_24057"><rect x="0" y="0" width="32" height="32" rx="0"/></clipPath></defs><g clip-path="url(#master_svg0_134_24057)"><g><path d="M30,22L25,22L25,20L30,20L30,17L27,17C25.8972,17,25,16.102800000000002,25,15L25,12C25,10.8972,25.8972,10,27,10L32,10L32,12L27,12L27,15L30,15C31.102800000000002,15,32,15.8972,32,17L32,20C32,21.102800000000002,31.102800000000002,22,30,22Z" fill="#000000" fill-opacity="1"/></g><g><path d="M21,22L18,22C16.8972,22,16,21.102800000000002,16,20L16,12C16,10.8972,16.8972,10,18,10L21,10C22.102800000000002,10,23,10.8972,23,12L23,20C23,21.102800000000002,22.102800000000002,22,21,22ZM18,12L18,20L21,20L21,12L18,12Z" fill="#000000" fill-opacity="1"/></g><g><path d="M11.945799827575684,10L7.945799827575684,22L10.054199827575683,22L14.054199827575683,10L11.945799827575684,10Z" fill="#000000" fill-opacity="1"/></g><g><path d="M6,22L0,22L0,19.6973L3.7981,14L0,14L0,12L6,12L6,14.3027L2.2019,20L6,20L6,22Z" fill="#000000" fill-opacity="1"/></g><g></g></g></svg>